<?xml version="1.0" encoding="UTF-8" standalone="no"?>
<svg xmlns:xlink="http://www.w3.org/1999/xlink" height="139.55px" width="72.2px" xmlns="http://www.w3.org/2000/svg">
  <g transform="matrix(1.0, 0.0, 0.0, 1.0, 336.35, 69.5)">
    <use height="138.3" transform="matrix(1.0, 0.0, 0.0, 1.0, -336.35, -69.5)" width="72.2" xlink:href="#shape0"/>
  </g>
  <defs>
    <g id="shape0" transform="matrix(1.0, 0.0, 0.0, 1.0, 336.35, 69.5)">
      <path d="M-292.25 -28.15 L-292.25 -28.05 Q-288.8 -25.35 -283.4 -29.95 -286.7 -49.4 -282.95 -52.7 -277.2 -55.7 -276.6 -57.75 -276.0 -59.85 -275.95 -62.65 -275.95 -65.45 -278.0 -67.5 -280.1 -69.5 -283.1 -69.5 -286.1 -69.55 -288.25 -67.65 -290.45 -65.7 -290.45 -62.9 -290.5 -60.65 -289.1 -56.55 L-289.1 -56.4 -287.3 -55.1 Q-285.85 -54.25 -284.35 -54.45 -286.75 -51.15 -287.95 -41.65 -289.05 -32.05 -290.9 -28.1 L-292.25 -28.15 M-288.7 -57.65 L-288.85 -57.8 -288.7 -57.65" fill="#ffffff" fill-rule="evenodd" stroke="none"/>
      <path d="M-289.1 -56.4 Q-287.2 -43.6 -294.9 -32.1 -293.8 -29.35 -292.3 -28.1 L-292.25 -28.15 -290.9 -28.1 Q-289.05 -32.05 -287.95 -41.65 -286.75 -51.15 -284.35 -54.45 -285.85 -54.25 -287.3 -55.1 L-289.1 -56.4" fill="#e1e1e1" fill-rule="evenodd" stroke="none"/>
      <path d="M-288.85 -57.8 L-288.7 -57.65" fill="none" stroke="#000000" stroke-linecap="round" stroke-linejoin="round" stroke-width="0.05"/>
      <path d="M-318.4 -24.5 L-318.3 -24.5 Q-312.4 -23.75 -311.45 -29.8 -321.0 -41.0 -321.0 -52.0 -318.55 -54.65 -318.5 -58.25 -318.45 -62.05 -321.1 -64.8 -323.75 -67.55 -327.6 -67.6 -331.4 -67.65 -333.7 -64.95 L-334.65 -63.7 Q-336.1 -57.15 -330.5 -52.75 L-324.55 -50.65 -318.6 -30.2 -318.4 -24.5" fill="#ffffff" fill-rule="evenodd" stroke="none"/>
      <path d="M-334.65 -63.7 Q-336.05 -61.45 -336.3 -58.5 -336.65 -54.65 -334.15 -51.85 -331.75 -49.15 -329.65 -48.8 L-325.8 -47.8 Q-320.8 -36.45 -321.25 -25.25 L-321.2 -25.2 -318.4 -24.5 -318.6 -30.2 -324.55 -50.65 -330.5 -52.75 Q-336.1 -57.15 -334.65 -63.7" fill="#dcdcdc" fill-rule="evenodd" stroke="none"/>
      <path d="M-286.45 41.95 Q-288.1 44.7 -287.35 49.9 L-287.1 50.3 Q-280.95 53.4 -280.8 49.15 -283.8 46.1 -286.45 41.95" fill="#ffffff" fill-rule="evenodd" stroke="none"/>
      <path d="M-287.35 49.9 Q-288.1 44.7 -286.45 41.95 -288.4 38.8 -290.15 35.1 -294.5 35.3 -293.9 40.65 L-287.35 49.9" fill="#e1e1e1" fill-rule="evenodd" stroke="none"/>
      <path d="M-287.15 44.15 Q-288.0 39.3 -289.5 35.45 -291.85 29.6 -295.0 29.6 -298.1 29.55 -299.7 34.85 -300.9 38.65 -301.45 44.0 -291.85 50.65 -287.15 44.15 M-289.25 58.3 L-289.45 57.95 Q-290.5 57.65 -291.15 59.5 L-291.8 62.55 -292.3 62.7 -293.15 62.85 Q-293.65 62.85 -294.6 61.85 -295.6 60.8 -295.9 60.8 -297.0 60.8 -297.3 61.85 L-297.45 63.1 -297.95 63.05 -298.1 62.95 Q-297.95 63.95 -297.0 65.1 -295.95 66.4 -295.0 66.45 -293.05 66.45 -291.35 64.85 L-288.8 62.55 -288.75 58.3 -289.15 58.4 -289.25 58.3" fill="#e1e1e1" fill-rule="evenodd" stroke="none"/>
      <path d="M-301.45 44.0 L-301.9 48.75 Q-302.4 57.25 -300.55 62.65 -298.65 68.1 -294.5 68.75 -290.3 69.4 -288.05 63.75 L-287.8 62.95 Q-285.8 57.45 -286.45 49.7 L-287.15 44.15 Q-291.85 50.65 -301.45 44.0 M-289.25 58.3 L-289.15 58.4 -288.75 58.3 -288.8 62.55 -291.35 64.85 Q-293.05 66.45 -295.0 66.45 -295.95 66.4 -297.0 65.1 -297.95 63.95 -298.1 62.95 L-297.95 63.05 -297.45 63.1 -297.3 61.85 Q-297.0 60.8 -295.9 60.8 -295.6 60.8 -294.6 61.85 -293.65 62.85 -293.15 62.85 L-292.3 62.7 -291.8 62.55 -291.15 59.5 Q-290.5 57.65 -289.45 57.95 L-289.25 58.3" fill="#ffffff" fill-rule="evenodd" stroke="none"/>
      <path d="M-302.7 44.05 Q-299.45 43.05 -296.8 46.75 L-296.75 46.7 -296.0 45.25 -296.0 45.1 Q-295.45 41.05 -301.0 40.85 L-301.05 40.8 -302.7 44.05" fill="#e1e1e1" fill-rule="evenodd" stroke="none"/>
      <path d="M-296.8 46.75 Q-299.45 43.05 -302.7 44.05 -306.05 49.9 -311.95 55.4 -312.6 58.5 -308.15 58.6 -301.8 55.6 -296.8 46.75" fill="#ffffff" fill-rule="evenodd" stroke="none"/>
      <path d="M-313.45 35.0 Q-318.15 33.05 -321.95 30.55 -330.4 24.7 -333.7 14.5 -336.6 -12.75 -322.9 -25.9 L-322.2 -25.9 Q-318.1 -30.9 -307.95 -32.25 -299.7 -34.1 -291.45 -32.35 L-282.25 -29.6 Q-268.2 -20.95 -266.7 -13.2 -266.05 -10.55 -266.75 -11.2 L-267.5 -12.25 Q-268.4 -13.35 -269.4 -13.3 -271.55 -13.25 -273.6 -8.25 -275.65 -3.3 -276.15 3.8 -276.65 10.9 -276.15 15.9 -275.65 20.95 -272.15 21.75 L-270.95 21.75 Q-274.7 28.0 -279.3 31.15 -280.55 32.1 -281.95 32.75 -291.3 37.2 -303.8 30.1 L-302.85 28.2 Q-297.75 25.6 -296.7 22.35 -294.6 15.6 -295.0 8.6 -295.4 1.6 -301.2 -4.55 -307.0 -10.7 -313.5 -10.05 -320.1 -9.4 -323.3 -3.85 L-323.5 -3.55 Q-324.3 -8.95 -322.7 -14.4 -324.9 -15.95 -326.05 -12.75 -328.65 -5.3 -328.9 2.7 -329.3 8.6 -326.45 15.25 -324.85 21.55 -320.05 27.85 L-313.45 35.0" fill="#ffffff" fill-rule="evenodd" stroke="none"/>
      <path d="M-266.75 -11.2 L-265.65 -8.95 Q-264.35 -2.9 -264.45 3.35 L-264.45 3.45 -264.5 3.75 -265.3 8.95 Q-266.0 12.9 -267.05 16.05 L-267.15 16.5 -267.7 17.8 -267.9 18.15 Q-268.55 19.45 -269.2 20.05 L-270.6 21.1 Q-271.3 21.55 -272.15 21.75 -275.65 20.95 -276.15 15.9 -276.65 10.9 -276.15 3.8 -275.65 -3.3 -273.6 -8.25 -271.55 -13.25 -269.4 -13.3 -268.4 -13.35 -267.5 -12.25 L-266.75 -11.2 M-323.5 -3.55 L-323.3 -3.85 Q-320.1 -9.4 -313.5 -10.05 -307.0 -10.7 -301.2 -4.55 -295.4 1.6 -295.0 8.6 -294.6 15.6 -296.7 22.35 -297.75 25.6 -302.85 28.2 L-304.3 28.7 -305.4 29.05 -305.7 29.2 -305.35 29.25 -306.35 29.25 -308.25 29.85 -306.75 29.3 -307.25 29.35 Q-315.65 29.55 -319.6 23.35 L-321.45 20.15 Q-323.9 15.15 -325.05 9.4 -326.45 2.3 -323.85 -2.95 L-323.5 -3.55" fill="#919191" fill-rule="evenodd" stroke="none"/>
      <path d="M-264.45 3.45 L-264.45 3.75 Q-264.5 6.3 -264.85 8.95 -265.25 12.75 -266.1 16.5 L-266.45 17.8 -266.55 18.15 -267.6 21.9 -268.6 24.7 Q-272.95 30.35 -277.6 33.5 L-279.3 31.15 -277.65 33.55 -280.75 35.35 Q-283.9 36.9 -287.25 37.25 -295.8 40.2 -304.35 38.0 -309.1 36.8 -313.15 35.1 L-313.45 35.0 -320.05 27.85 Q-324.85 21.55 -326.45 15.25 -329.3 8.6 -328.9 2.7 -328.65 -5.3 -326.05 -12.75 -324.9 -15.95 -322.7 -14.4 -324.3 -8.95 -323.5 -3.55 L-323.85 -2.95 Q-326.45 2.3 -325.05 9.4 -323.9 15.15 -321.45 20.15 L-319.6 23.35 Q-315.65 29.55 -307.25 29.35 L-306.75 29.3 -308.25 29.85 -306.35 29.25 -305.35 29.25 -305.7 29.2 -305.4 29.05 -304.3 28.7 -302.85 28.2 -303.8 30.1 Q-291.3 37.2 -281.95 32.75 -280.55 32.1 -279.3 31.15 -274.7 28.0 -270.95 21.75 L-272.15 21.75 Q-271.3 21.55 -270.6 21.1 L-269.2 20.05 Q-268.55 19.45 -267.9 18.15 L-267.7 17.8 -267.15 16.5 -267.05 16.05 Q-266.0 12.9 -265.3 8.95 L-264.5 3.75 -264.45 3.45" fill="#e1e1e1" fill-rule="evenodd" stroke="none"/>
      <path d="M-322.55 2.15 L-322.1 0.35 Q-320.4 -5.35 -314.85 -6.4 -309.35 -7.5 -304.55 -4.7 -300.25 -2.2 -297.75 3.7 L-297.7 3.9 -297.25 5.0 Q-296.45 7.0 -296.15 9.05 -295.3 13.8 -296.65 18.35 L-297.45 20.45 -297.55 20.65 Q-299.7 25.05 -304.7 25.9 L-307.85 26.1 -308.0 26.1 Q-312.15 25.75 -315.8 22.75 L-317.0 21.75 -317.05 21.7 Q-321.0 17.85 -322.3 12.35 -323.5 7.0 -322.55 2.2 L-322.55 2.15 M-298.85 19.8 Q-298.55 19.45 -298.7 19.15 -298.95 18.15 -302.75 17.1 L-307.75 19.7 Q-313.1 19.65 -314.9 14.95 L-315.0 14.65 -316.0 2.7 Q-318.35 1.0 -320.75 1.9 L-321.3 2.1 -321.55 2.3 -321.7 2.35 Q-321.45 14.9 -316.05 20.75 -312.85 24.2 -307.85 25.3 L-305.05 25.0 Q-301.95 23.95 -298.85 20.1 L-298.85 19.8 M-315.4 2.75 L-316.0 2.7 -316.05 2.05 -316.0 2.7 -315.4 2.75 M-298.85 9.5 Q-298.8 7.4 -299.45 5.7 L-299.75 4.95 -299.85 4.75 Q-301.15 1.65 -304.0 -0.2 -305.85 -1.45 -308.4 -2.1 L-312.0 -2.8 -312.25 -2.45 Q-305.25 0.65 -303.0 4.7 -301.6 7.15 -301.95 9.85 -300.05 11.65 -299.05 9.55 L-298.85 9.5" fill="#000000" fill-rule="evenodd" stroke="none"/>
      <path d="M-301.25 4.2 Q-302.05 2.15 -304.5 0.5 L-305.5 -0.15 Q-306.8 -0.9 -308.2 -1.35 -307.2 -0.9 -305.75 0.3 -303.6 2.1 -302.05 4.25 L-301.85 4.2 -301.25 4.2 M-312.0 -2.8 L-308.4 -2.1 Q-305.85 -1.45 -304.0 -0.2 -301.15 1.65 -299.85 4.75 L-299.75 4.95 -299.45 5.7 Q-298.8 7.4 -298.85 9.5 L-299.05 9.55 Q-300.05 11.65 -301.95 9.85 -301.6 7.15 -303.0 4.7 -305.25 0.65 -312.25 -2.45 L-312.0 -2.8" fill="#bfbfbf" fill-rule="evenodd" stroke="none"/>
      <path d="M-298.85 20.1 Q-301.95 23.95 -305.05 25.0 L-307.85 25.3 Q-312.85 24.2 -316.05 20.75 -321.45 14.9 -321.7 2.35 L-321.55 2.3 -321.3 2.1 -320.75 1.9 Q-318.35 1.0 -316.0 2.7 L-315.0 14.65 -314.9 14.95 Q-313.1 19.65 -307.75 19.7 L-302.75 17.1 Q-298.95 18.15 -298.7 19.15 -298.55 19.45 -298.85 19.8 L-298.85 20.1" fill="#434738" fill-rule="evenodd" stroke="none"/>
      <path d="M-301.25 4.2 L-301.85 4.2 -302.05 4.25 Q-303.6 2.1 -305.75 0.3 -307.2 -0.9 -308.2 -1.35 -306.8 -0.9 -305.5 -0.15 L-304.5 0.5 Q-302.05 2.15 -301.25 4.2" fill="#ffffff" fill-rule="evenodd" stroke="none"/>
      <path d="M-322.55 2.15 L-322.55 2.2 Q-323.5 7.0 -322.3 12.35 -321.0 17.85 -317.05 21.7 L-317.0 21.75 -315.8 22.75 Q-312.15 25.75 -308.0 26.1 L-307.85 26.1 -304.7 25.9 Q-299.7 25.05 -297.55 20.65 L-297.45 20.45 -296.65 18.35 Q-295.3 13.8 -296.15 9.05 -296.45 7.0 -297.25 5.0 L-297.7 3.9 -297.75 3.7 Q-300.25 -2.2 -304.55 -4.7 -309.35 -7.5 -314.85 -6.4 -320.4 -5.35 -322.1 0.35 L-322.55 2.15 M-298.85 19.8 Q-298.55 19.45 -298.7 19.15 -298.95 18.15 -302.75 17.1 L-307.75 19.7 Q-313.1 19.65 -314.9 14.95 L-315.0 14.65 -316.0 2.7 Q-318.35 1.0 -320.75 1.9 L-321.3 2.1 -321.55 2.3 -321.7 2.35 Q-321.45 14.9 -316.05 20.75 -312.85 24.2 -307.85 25.3 L-305.05 25.0 Q-301.95 23.95 -298.85 20.1 M-316.05 2.05 L-316.0 2.7 -315.4 2.75 M-312.0 -2.8 L-308.4 -2.1 Q-305.85 -1.45 -304.0 -0.2 -301.15 1.65 -299.85 4.75 L-299.75 4.95 -299.45 5.7 Q-298.8 7.4 -298.85 9.5 M-299.05 9.55 Q-300.05 11.65 -301.95 9.85 -301.6 7.15 -303.0 4.7 -305.25 0.65 -312.25 -2.45" fill="none" stroke="#000000" stroke-linecap="round" stroke-linejoin="round" stroke-width="0.05"/>
      <path d="M-273.5 -6.2 L-272.9 -7.55 Q-270.6 -12.2 -268.4 -11.9 -266.15 -11.6 -264.95 -6.8 -263.75 -2.05 -264.3 5.1 -264.8 12.25 -267.55 16.75 -270.3 21.25 -272.25 21.2 -273.45 21.1 -274.3 19.3 -273.7 20.5 -272.7 20.25 -271.75 20.1 -270.45 18.75 L-270.4 18.7 Q-274.5 8.5 -273.5 -6.2 M-268.7 4.9 Q-267.6 6.2 -266.35 5.05 -264.95 -1.15 -267.0 -6.55 -267.45 -7.2 -267.95 -6.8 -269.25 -2.6 -268.7 4.9" fill="#000000" fill-rule="evenodd" stroke="none"/>
      <path d="M-266.7 -0.7 Q-266.65 -1.65 -266.9 -2.95 -267.2 -4.3 -267.45 -4.4 L-267.5 -4.25 -267.6 -3.1 -267.6 -0.65 Q-267.4 0.15 -266.9 0.15 L-266.7 -0.7 M-268.7 4.9 Q-269.25 -2.6 -267.95 -6.8 -267.45 -7.2 -267.0 -6.55 -264.95 -1.15 -266.35 5.05 -267.6 6.2 -268.7 4.9" fill="#7f7f7f" fill-rule="evenodd" stroke="none"/>
      <path d="M-273.5 -6.2 Q-274.5 8.5 -270.4 18.7 L-270.45 18.75 Q-271.75 20.1 -272.7 20.25 -273.7 20.5 -274.3 19.3 L-275.3 16.2 Q-276.3 11.35 -275.75 4.2 -275.25 -1.95 -273.5 -6.2" fill="#434738" fill-rule="evenodd" stroke="none"/>
      <path d="M-266.7 -0.7 L-266.9 0.15 Q-267.4 0.15 -267.6 -0.65 L-267.6 -3.1 -267.5 -4.25 -267.45 -4.4 Q-267.2 -4.3 -266.9 -2.95 -266.65 -1.65 -266.7 -0.7" fill="#ffffff" fill-rule="evenodd" stroke="none"/>
    </g>
  </defs>
</svg>
