<?xml version="1.0" encoding="UTF-8" standalone="no"?>
<svg xmlns:xlink="http://www.w3.org/1999/xlink" height="184.85px" width="119.45px" xmlns="http://www.w3.org/2000/svg">
  <g transform="matrix(1.0, 0.0, 0.0, 1.0, 361.15, 121.7)">
    <use height="179.1" transform="matrix(1.0, 0.0, 0.0, 1.0, -361.15, -119.9)" width="118.45" xlink:href="#shape0"/>
  </g>
  <defs>
    <g id="shape0" transform="matrix(1.0, 0.0, 0.0, 1.0, 361.15, 119.9)">
      <path d="M-347.65 -15.8 Q-347.7 -17.25 -347.05 -17.35 L-346.85 -17.35 Q-340.05 -18.3 -334.25 -15.05 L-334.25 -15.0 Q-335.3 -8.2 -333.15 0.05 -329.85 -7.75 -324.85 -12.5 L-323.6 -11.35 -325.6 -7.2 -327.45 -4.1 -328.55 -2.4 Q-330.95 0.85 -333.85 3.65 L-337.7 -10.45 Q-340.55 -12.55 -344.15 -11.85 -344.65 -4.65 -344.4 2.65 -343.95 10.8 -342.45 19.05 -341.6 23.9 -340.2 28.85 L-340.1 29.45 Q-338.85 31.8 -336.75 29.95 L-336.5 29.7 -332.7 25.45 -331.2 23.75 -329.85 22.25 -328.55 20.75 -328.5 20.7 Q-314.2 3.95 -309.0 -6.55 L-309.05 -6.55 Q-311.5 -9.35 -315.15 -10.6 -318.75 -11.8 -323.45 -11.4 L-323.6 -11.4 -324.8 -12.55 -324.8 -12.6 -324.25 -13.1 -323.95 -13.35 -323.8 -13.4 -323.7 -13.5 Q-319.0 -13.55 -314.75 -12.1 L-314.65 -12.1 -314.6 -12.1 Q-311.15 -11.0 -308.0 -9.0 -306.15 -7.6 -307.15 -6.3 L-307.2 -6.1 -307.25 -5.9 -307.35 -5.9 Q-313.05 8.75 -323.5 20.6 L-323.55 20.7 Q-328.8 25.85 -332.15 30.65 L-333.7 33.0 -335.65 36.6 -335.9 36.95 Q-338.6 40.15 -340.95 36.3 L-340.95 36.15 -342.35 31.15 -342.55 30.25 -342.6 30.15 -342.55 30.1 -342.75 29.6 -343.05 28.25 -344.95 19.55 -345.0 19.45 Q-347.4 6.3 -347.7 -6.9 L-347.65 -15.45 -347.65 -15.55 -347.65 -15.8 M-308.8 53.9 L-310.9 53.9 -311.0 53.9 -311.05 53.95 -311.15 53.95 -312.2 53.85 -314.55 53.5 -314.75 53.45 -314.9 53.4 Q-319.35 52.35 -323.3 49.25 L-323.4 49.1 -323.5 49.05 -326.1 46.8 -318.05 36.5 -316.35 34.15 -311.15 27.05 -306.65 20.65 -301.95 13.8 -301.85 13.75 -301.85 13.7 -301.8 13.7 Q-299.5 11.8 -298.95 12.9 L-298.75 13.4 Q-297.7 23.75 -297.15 34.25 L-297.1 34.3 -297.0 38.45 Q-296.9 39.45 -296.95 40.55 L-296.95 40.65 -296.9 41.2 -296.8 42.8 -296.65 49.55 -296.65 50.15 Q-303.0 53.55 -308.8 53.9 M-298.8 -82.25 L-299.2 -82.7 -301.55 -85.45 -301.6 -85.5 Q-303.25 -87.4 -304.7 -91.15 L-305.35 -93.4 Q-305.85 -96.3 -306.0 -101.1 L-306.05 -105.4 -304.25 -101.2 Q-302.45 -97.05 -301.1 -92.65 L-299.75 -85.95 -299.5 -84.9 -299.25 -83.85 -298.8 -82.25 M-262.4 -62.15 L-261.55 -62.7 Q-256.55 -66.15 -253.8 -72.1 L-253.0 -74.05 Q-251.9 -76.95 -251.45 -80.1 L-251.3 -81.55 -251.2 -82.25 -251.05 -81.5 Q-250.7 -79.35 -250.65 -76.6 L-250.75 -73.95 -252.85 -70.1 Q-256.55 -63.6 -260.55 -59.6 L-261.55 -58.65 Q-261.75 -60.0 -262.1 -61.2 L-262.4 -62.15 M-287.0 46.65 L-287.2 43.35 -287.4 41.0 -287.4 40.95 -287.35 40.55 Q-288.35 21.6 -285.25 3.45 L-284.9 1.35 -284.9 1.1 Q-284.55 -1.8 -282.8 -2.7 L-282.65 -2.7 Q-280.5 -2.7 -277.95 -1.75 L-277.8 -1.65 Q-275.7 -0.9 -276.1 2.0 L-276.15 4.5 -276.1 6.05 -275.8 9.6 Q-275.35 13.85 -274.3 12.2 -273.5 11.25 -272.85 10.0 -270.9 6.45 -269.85 1.2 L-269.8 1.1 Q-268.3 -4.0 -261.85 -1.45 L-261.5 1.15 Q-261.6 1.05 -261.75 1.3 L-261.85 1.6 -261.85 1.65 -262.3 3.6 -263.4 7.45 -263.4 7.5 -265.0 12.65 -266.9 12.1 -265.05 12.75 Q-268.1 21.65 -272.55 29.25 -276.75 36.05 -281.95 41.75 L-284.15 44.0 -287.0 46.65 M-266.9 12.1 L-265.25 6.9 Q-265.7 3.35 -268.1 6.1 L-277.0 22.15 -277.85 4.4 -277.95 4.35 Q-280.15 2.4 -283.05 3.8 L-284.05 10.8 Q-285.75 25.0 -284.95 40.95 -280.35 36.6 -274.5 26.7 L-273.85 25.8 Q-269.95 19.85 -267.5 13.75 L-267.45 13.7 -267.35 13.5 -266.9 12.1 M-301.0 19.2 Q-301.9 19.2 -303.4 20.6 -305.05 22.0 -307.4 24.95 L-309.7 28.1 -314.1 34.7 -315.6 37.05 -321.9 47.25 Q-318.25 50.4 -314.3 51.35 L-311.85 51.75 -310.9 51.8 -310.5 51.85 Q-305.55 51.75 -300.05 48.6 -299.55 44.7 -299.35 40.7 L-299.35 40.65 -299.3 37.95 -299.4 34.4 Q-299.55 27.05 -301.0 19.2" fill="#eed56f" fill-rule="evenodd" stroke="none"/>
      <path d="M-348.5 -24.5 L-346.7 -24.15 -332.25 -20.15 -331.25 -19.3 -331.15 -19.25 Q-332.1 -12.5 -331.7 -5.4 -329.5 -12.2 -325.95 -18.25 L-325.9 -18.25 -325.95 -18.45 -325.9 -18.4 -325.85 -18.35 -325.9 -18.25 Q-307.55 -13.35 -303.85 -12.75 -304.0 -10.85 -303.55 -7.3 L-303.5 -7.25 Q-304.3 -4.6 -305.45 -2.4 L-306.55 0.0 -306.55 0.2 -310.0 7.0 -311.8 10.35 Q-315.5 17.35 -319.6 24.15 L-319.95 24.7 -320.6 25.85 Q-326.05 34.7 -332.2 43.15 -333.5 46.15 -330.35 45.05 -322.7 36.6 -315.6 27.0 L-314.8 25.85 Q-307.7 16.05 -301.2 5.15 L-296.6 6.2 -294.25 28.7 -294.1 28.85 -292.1 49.65 -295.6 52.1 -295.8 52.15 -295.85 52.15 -299.1 53.6 Q-303.85 55.4 -308.55 55.75 L-308.8 53.9 -308.6 55.75 -311.35 55.8 -312.55 55.75 -314.7 55.5 -318.45 54.65 Q-325.5 52.5 -332.3 46.7 -332.45 46.55 -332.55 46.55 L-332.95 46.05 Q-338.15 44.25 -341.85 36.8 L-340.95 36.3 Q-338.6 40.15 -335.9 36.95 L-335.65 36.6 -333.7 33.0 -332.15 30.65 Q-328.8 25.85 -323.55 20.7 L-323.5 20.6 Q-313.05 8.75 -307.35 -5.9 L-307.25 -5.9 -307.2 -6.1 -307.15 -6.3 Q-306.15 -7.6 -308.0 -9.0 -311.15 -11.0 -314.6 -12.1 L-314.65 -12.1 -314.75 -12.1 Q-319.0 -13.55 -323.7 -13.5 L-323.8 -13.4 -323.95 -13.35 -324.25 -13.1 -324.8 -12.6 -324.8 -12.55 -324.85 -12.5 Q-329.85 -7.75 -333.15 0.05 -335.3 -8.2 -334.25 -15.0 L-334.25 -15.05 Q-340.05 -18.3 -346.85 -17.35 L-347.05 -17.35 Q-347.7 -17.25 -347.65 -15.8 L-349.8 -16.95 -349.9 -17.05 Q-351.4 -18.5 -351.7 -20.0 L-351.75 -21.05 -351.6 -21.6 -350.9 -23.15 -350.35 -23.8 -350.2 -23.75 Q-349.0 -23.65 -348.5 -24.5 M-301.85 13.7 L-301.85 13.75 -301.95 13.8 -306.65 20.65 -311.15 27.05 -316.35 34.15 -318.05 36.5 -326.1 46.8 -323.5 49.05 -323.4 49.1 -323.3 49.25 Q-319.35 52.35 -314.9 53.4 L-314.75 53.45 -314.55 53.5 -312.2 53.85 -311.15 53.95 -311.05 53.95 -311.0 53.9 -310.9 53.9 -308.8 53.9 Q-303.0 53.55 -296.65 50.15 L-296.65 49.55 -296.8 42.8 -296.9 41.2 -296.95 40.65 -296.95 40.55 Q-296.9 39.45 -297.0 38.45 L-297.1 34.3 -297.15 34.25 Q-297.7 23.75 -298.75 13.4 L-298.95 12.9 Q-299.5 11.8 -301.8 13.7 L-301.55 12.5 -301.85 13.7 M-295.2 -76.2 L-295.5 -76.2 Q-297.5 -78.1 -298.8 -82.25 L-299.25 -83.85 -299.5 -84.9 -299.75 -85.95 -301.1 -92.65 Q-302.45 -97.05 -304.25 -101.2 L-306.05 -105.4 -306.35 -106.15 -308.9 -112.0 -305.0 -106.75 -304.7 -106.25 Q-297.15 -95.0 -295.55 -83.9 -295.0 -80.05 -295.2 -76.2 M-261.5 1.15 L-261.85 -1.45 Q-268.3 -4.0 -269.8 1.1 L-269.85 1.2 Q-270.9 6.45 -272.85 10.0 -273.5 11.25 -274.3 12.2 -275.35 13.85 -275.8 9.6 L-276.1 6.05 -276.15 4.5 -276.1 2.0 Q-275.7 -0.9 -277.8 -1.65 L-277.95 -1.75 Q-280.5 -2.7 -282.65 -2.7 L-282.8 -2.7 Q-284.55 -1.8 -284.9 1.1 L-284.9 1.35 -285.25 3.45 Q-288.35 21.6 -287.35 40.55 L-287.4 40.95 -287.4 41.0 -287.2 43.35 -287.0 46.65 -287.1 46.8 -288.15 47.7 Q-288.5 47.85 -289.65 48.9 L-290.85 49.3 -289.4 11.05 -288.3 3.7 -288.35 3.6 -288.35 3.55 -288.15 3.05 -287.8 1.35 Q-285.75 -3.05 -285.35 -7.0 L-276.85 -6.75 -274.0 -6.05 -273.9 -6.05 -273.85 -6.0 -273.85 -5.95 Q-272.65 -1.1 -273.35 3.45 L-274.05 6.45 -273.55 6.8 -273.3 7.0 -271.5 3.85 Q-269.65 0.7 -269.5 -5.35 L-268.4 -5.6 -268.15 -5.95 -265.95 -6.05 -264.2 -6.0 -261.65 -5.7 -261.45 -5.65 -259.9 -5.35 -259.6 -3.35 -259.5 -2.85 -259.5 -1.6 Q-259.7 -0.05 -260.5 1.15 L-260.75 1.45 -260.9 1.45 -261.3 1.3 -261.35 1.25 Q-261.45 1.15 -261.5 1.15 M-310.0 11.4 L-310.0 11.45 -310.1 11.35 -310.0 11.4 M-311.05 10.85 L-311.05 10.8 -311.0 10.9 -311.05 10.85" fill="#e99849" fill-rule="evenodd" stroke="none"/>
      <path d="M-323.6 -11.4 L-323.45 -11.4 Q-318.75 -11.8 -315.15 -10.6 -311.5 -9.35 -309.05 -6.55 L-309.0 -6.55 Q-314.2 3.95 -328.5 20.7 L-328.55 20.75 -329.85 22.25 -331.2 23.75 -332.7 25.45 -336.5 29.7 -336.75 29.95 Q-338.85 31.8 -340.1 29.45 L-340.2 28.85 Q-341.6 23.9 -342.45 19.05 -343.95 10.8 -344.4 2.65 -344.65 -4.65 -344.15 -11.85 -340.55 -12.55 -337.7 -10.45 L-333.85 3.65 Q-330.95 0.85 -328.55 -2.4 L-327.45 -4.1 -325.6 -7.2 -323.6 -11.35 -323.6 -11.4 M-327.2 -1.65 L-327.25 -1.4 Q-330.35 8.7 -332.1 19.15 L-332.55 22.55 -330.05 19.5 Q-321.2 8.9 -316.6 -2.9 L-316.45 -3.3 Q-316.25 -4.95 -317.65 -5.55 L-317.95 -5.7 -323.4 -6.15 -323.55 -6.05 Q-324.8 -5.55 -326.2 -3.3 L-327.2 -1.65 M-266.9 12.1 L-267.35 13.5 -267.45 13.7 -267.5 13.75 Q-269.95 19.85 -273.85 25.8 L-274.5 26.7 Q-280.35 36.6 -284.95 40.95 -285.75 25.0 -284.05 10.8 L-283.05 3.8 Q-280.15 2.4 -277.95 4.35 L-277.85 4.4 -277.0 22.15 -268.1 6.1 Q-265.7 3.35 -265.25 6.9 L-266.9 12.1 M-281.85 6.75 L-282.7 11.0 Q-283.5 19.3 -282.2 27.8 -282.0 29.55 -281.0 28.05 L-281.0 27.95 Q-279.3 17.6 -279.8 7.25 -280.6 5.6 -281.85 6.75 M-275.55 22.95 L-276.25 24.3 -278.8 29.15 -278.85 29.25 Q-276.75 27.7 -274.95 25.1 -271.85 20.6 -269.3 13.1 L-269.25 13.0 Q-272.5 17.55 -275.55 22.95 M-301.0 19.2 Q-299.55 27.05 -299.4 34.4 L-299.3 37.95 -299.35 40.65 -299.35 40.7 Q-299.55 44.7 -300.05 48.6 -305.55 51.75 -310.5 51.85 L-310.9 51.8 -311.85 51.75 -314.3 51.35 Q-318.25 50.4 -321.9 47.25 L-315.6 37.05 -314.1 34.7 -309.7 28.1 -307.4 24.95 Q-305.05 22.0 -303.4 20.6 -301.9 19.2 -301.0 19.2 M-309.15 35.95 L-309.25 36.1 -310.2 37.95 -310.3 38.2 Q-311.25 40.3 -310.3 42.15 L-310.25 42.25 Q-309.55 43.6 -308.75 44.1 L-308.25 44.3 Q-307.1 44.55 -305.9 43.1 -304.75 41.65 -304.4 39.55 L-304.4 39.45 -304.25 37.4 -304.35 36.8 -304.8 35.75 -306.3 33.55 -306.35 33.5 Q-306.9 32.9 -308.0 34.25 L-309.05 35.8 -309.15 35.95 M-342.0 3.3 Q-341.55 10.8 -337.45 19.1 -335.3 7.3 -340.2 -5.35 -342.05 -4.05 -342.0 2.6 L-342.0 3.3" fill="#f4e768" fill-rule="evenodd" stroke="none"/>
      <path d="M-264.65 -67.4 Q-259.45 -71.55 -255.9 -77.0 L-255.55 -89.7 -255.5 -89.75 -255.05 -89.75 Q-253.35 -88.4 -252.05 -85.2 L-251.9 -84.9 -251.3 -82.85 -251.2 -82.25 -251.3 -81.55 -251.45 -80.1 Q-251.9 -76.95 -253.0 -74.05 L-253.8 -72.1 Q-256.55 -66.15 -261.55 -62.7 L-262.4 -62.15 Q-264.2 -64.1 -265.25 -66.95 L-264.65 -67.4 M-258.5 -4.95 L-258.7 -3.2 -258.9 -1.55 -258.9 -1.5 Q-259.1 0.2 -259.45 1.8 -261.95 17.35 -269.55 30.55 L-269.6 30.55 -269.6 30.6 Q-273.05 36.5 -277.55 42.1 L-277.6 42.15 -278.0 42.6 -280.0 44.95 -280.0 45.0 -280.3 45.2 -280.3 45.25 Q-284.45 49.95 -289.55 54.35 L-291.65 55.25 -295.5 56.65 -298.4 57.55 -298.45 57.55 -298.45 57.6 Q-305.6 59.5 -312.1 59.15 L-313.1 59.1 Q-322.3 58.4 -330.45 53.15 L-336.35 48.7 -338.05 47.05 -339.2 45.95 -341.4 43.45 -342.0 42.7 -343.5 39.45 -345.75 34.25 -345.8 34.2 -347.4 30.05 -347.4 29.9 -347.9 28.6 -348.2 27.6 -348.3 27.5 Q-353.95 10.75 -353.8 -6.05 L-353.8 -6.1 Q-353.65 -13.65 -352.45 -21.15 L-352.45 -21.2 -352.3 -21.75 -352.1 -22.95 -351.0 -24.05 Q-350.0 -24.65 -348.5 -24.5 -349.0 -23.65 -350.2 -23.75 L-350.35 -23.8 -350.9 -23.15 -351.6 -21.6 -351.75 -21.05 -351.7 -20.0 Q-351.4 -18.5 -349.9 -17.05 L-349.8 -16.95 -349.8 -15.4 -349.7 -6.75 Q-349.45 5.1 -348.45 13.6 -347.45 21.65 -345.85 26.85 L-345.45 27.7 -344.5 30.1 -344.3 30.7 -343.4 33.3 -341.9 36.65 -341.85 36.8 Q-338.15 44.25 -332.95 46.05 L-332.55 46.55 Q-332.45 46.55 -332.3 46.7 -325.5 52.5 -318.45 54.65 L-314.7 55.5 -312.55 55.75 -311.35 55.8 -308.6 55.75 -308.55 55.75 Q-303.85 55.4 -299.1 53.6 L-295.85 52.15 -295.8 52.15 -295.6 52.1 -292.1 49.65 -292.05 50.3 -290.9 50.15 -290.85 49.3 -289.65 48.9 Q-288.5 47.85 -288.15 47.7 L-287.1 46.8 -287.0 46.65 -284.15 44.0 -281.95 41.75 Q-276.75 36.05 -272.55 29.25 -268.1 21.65 -265.05 12.75 L-265.0 12.65 -263.4 7.5 -263.4 7.45 -262.3 3.6 -262.6 5.6 -262.75 6.15 -263.0 7.55 -263.0 7.6 Q-265.45 18.6 -271.6 29.7 L-271.6 29.8 Q-275.8 37.45 -280.45 43.1 L-279.75 43.7 -278.05 41.65 Q-274.2 36.7 -270.7 30.35 L-270.7 30.25 -270.55 30.05 Q-264.4 18.85 -261.95 7.8 L-261.7 6.45 -261.55 5.85 -261.55 5.8 -260.9 1.45 -260.75 1.45 -260.5 1.15 Q-259.7 -0.05 -259.5 -1.6 L-259.5 -2.85 -259.6 -3.35 -259.9 -5.35 -258.5 -4.95 M-352.9 -6.05 Q-352.8 3.55 -351.05 13.95 L-351.05 14.05 -350.95 14.4 -350.95 14.45 -350.9 14.95 Q-349.6 21.7 -347.95 27.35 L-347.9 27.45 -347.9 27.5 -347.55 28.5 -345.85 33.35 -345.5 34.2 -344.85 35.75 -344.0 37.8 Q-342.4 41.15 -341.2 42.8 L-341.15 42.8 -338.7 45.6 Q-338.15 45.95 -337.35 47.05 L-336.9 47.5 -336.5 48.0 -336.0 48.4 Q-334.3 49.75 -330.05 52.0 L-329.9 52.15 -329.75 52.2 Q-323.7 55.45 -319.05 56.45 L-319.0 56.5 -314.9 57.2 -312.85 57.5 -311.75 57.65 Q-304.65 58.3 -298.65 56.9 L-298.1 56.8 -298.05 56.75 -295.65 56.05 -293.15 54.95 -292.65 54.65 -292.0 54.3 -291.4 53.8 -291.35 53.85 -291.3 53.85 Q-285.75 50.55 -280.7 44.9 L-280.5 44.55 -279.8 43.75 -279.75 43.7 -280.5 43.15 Q-285.6 49.2 -291.15 52.9 L-291.75 53.3 -293.05 54.05 Q-295.3 55.2 -298.4 55.85 -304.35 57.35 -311.55 56.65 L-312.65 56.5 -314.75 56.2 -314.8 56.2 -318.75 55.5 Q-323.35 54.45 -329.45 51.25 L-329.55 51.15 Q-334.05 48.8 -335.8 47.35 L-336.7 46.45 -338.45 44.65 -340.5 42.25 -340.95 41.75 -343.45 37.45 -344.35 35.5 -344.4 35.4 -345.3 33.2 -347.0 28.35 -347.35 27.25 -347.4 27.2 Q-349.1 21.55 -350.4 14.9 L-350.65 14.05 -350.6 13.9 Q-352.45 3.55 -352.65 -6.05 L-352.9 -6.05" fill="#fffbdd" fill-rule="evenodd" stroke="none"/>
      <path d="M-349.8 -16.95 L-347.65 -15.8 -347.65 -15.55 -347.65 -15.45 -347.7 -6.9 Q-347.4 6.3 -345.0 19.45 L-344.95 19.55 -343.05 28.25 -342.75 29.6 -342.55 30.1 -342.6 30.15 -342.55 30.25 -342.35 31.15 -340.95 36.15 -340.95 36.3 -341.85 36.8 -341.9 36.65 -343.4 33.3 -344.3 30.7 -344.5 30.1 -345.45 27.7 -345.85 26.85 Q-347.45 21.65 -348.45 13.6 -349.45 5.1 -349.7 -6.75 L-349.8 -15.4 -349.8 -16.95" fill="#e99f4d" fill-rule="evenodd" stroke="none"/>
      <path d="M-327.2 -1.65 L-326.2 -3.3 Q-324.8 -5.55 -323.55 -6.05 L-323.4 -6.15 -317.95 -5.7 -317.65 -5.55 Q-316.25 -4.95 -316.45 -3.3 L-316.6 -2.9 Q-321.2 8.9 -330.05 19.5 L-332.55 22.55 -332.1 19.15 Q-330.35 8.7 -327.25 -1.4 L-327.2 -1.65 M-313.25 -117.05 L-309.0 -112.15 -308.9 -112.0 -306.35 -106.15 -306.05 -105.4 -306.0 -101.1 Q-305.85 -96.3 -305.35 -93.4 L-304.7 -91.15 Q-303.25 -87.4 -301.6 -85.5 L-301.55 -85.45 -299.2 -82.7 -298.8 -82.25 Q-297.5 -78.1 -295.5 -76.2 L-295.2 -76.2 -295.2 -75.95 -295.2 -75.85 -295.35 -74.15 -295.7 -74.3 -296.3 -74.55 -296.35 -74.6 Q-301.9 -77.1 -306.7 -83.35 L-306.7 -83.4 -306.35 -83.6 -306.6 -86.4 Q-306.95 -89.45 -307.75 -92.85 -308.8 -97.9 -310.85 -103.7 L-317.25 -116.15 Q-317.75 -118.0 -314.2 -118.05 L-313.25 -117.05 M-281.85 6.75 Q-280.6 5.6 -279.8 7.25 -279.3 17.6 -281.0 27.95 L-281.0 28.05 Q-282.0 29.55 -282.2 27.8 -283.5 19.3 -282.7 11.0 L-281.85 6.75 M-275.55 22.95 Q-272.5 17.55 -269.25 13.0 L-269.3 13.1 Q-271.85 20.6 -274.95 25.1 -276.75 27.7 -278.85 29.25 L-278.8 29.15 -276.25 24.3 -275.55 22.95 M-309.15 35.95 L-309.05 35.8 -308.0 34.25 Q-306.9 32.9 -306.35 33.5 L-306.3 33.55 -304.8 35.75 -304.35 36.8 -304.25 37.4 -304.4 39.45 -304.4 39.55 Q-304.75 41.65 -305.9 43.1 -307.1 44.55 -308.25 44.3 L-308.75 44.1 Q-309.55 43.6 -310.25 42.25 L-310.3 42.15 Q-311.25 40.3 -310.3 38.2 L-310.2 37.95 -309.25 36.1 -309.15 35.95 M-342.0 3.3 L-342.0 2.6 Q-342.05 -4.05 -340.2 -5.35 -335.3 7.3 -337.45 19.1 -341.55 10.8 -342.0 3.3" fill="#fff5a2" fill-rule="evenodd" stroke="none"/>
      <path d="M-352.9 -6.05 L-352.65 -6.05 Q-352.45 3.55 -350.6 13.9 L-350.65 14.05 -350.4 14.9 Q-349.1 21.55 -347.4 27.2 L-347.35 27.25 -347.0 28.35 -345.3 33.2 -344.4 35.4 -344.35 35.5 -343.45 37.45 -340.95 41.75 -340.5 42.25 -338.45 44.65 -336.7 46.45 -335.8 47.35 Q-334.05 48.8 -329.55 51.15 L-329.45 51.25 Q-323.35 54.45 -318.75 55.5 L-314.8 56.2 -314.75 56.2 -312.65 56.5 -311.55 56.65 Q-304.35 57.35 -298.4 55.85 -295.3 55.2 -293.05 54.05 L-291.75 53.3 -291.15 52.9 Q-285.6 49.2 -280.5 43.15 L-279.75 43.7 -279.8 43.75 -280.5 44.55 -280.7 44.9 Q-285.75 50.55 -291.3 53.85 L-291.35 53.85 -291.4 53.8 -292.0 54.3 -292.65 54.65 -293.15 54.95 -295.65 56.05 -298.05 56.75 -298.1 56.8 -298.65 56.9 Q-304.65 58.3 -311.75 57.65 L-312.85 57.5 -314.9 57.2 -319.0 56.5 -319.05 56.45 Q-323.7 55.45 -329.75 52.2 L-329.9 52.15 -330.05 52.0 Q-334.3 49.75 -336.0 48.4 L-336.5 48.0 -336.9 47.5 -337.35 47.05 Q-338.15 45.95 -338.7 45.6 L-341.15 42.8 -341.2 42.8 Q-342.4 41.15 -344.0 37.8 L-344.85 35.75 -345.5 34.2 -345.85 33.35 -347.55 28.5 -347.9 27.5 -347.9 27.45 -347.95 27.35 Q-349.6 21.7 -350.9 14.95 L-350.95 14.45 -350.95 14.4 -351.05 14.05 -351.05 13.95 Q-352.8 3.55 -352.9 -6.05 M-261.5 1.15 Q-261.45 1.15 -261.35 1.25 L-261.3 1.3 -260.9 1.45 -261.55 5.8 -261.55 5.85 -261.7 6.45 -261.95 7.8 Q-264.4 18.85 -270.55 30.05 L-270.7 30.25 -270.7 30.35 Q-274.2 36.7 -278.05 41.65 L-279.75 43.7 -280.45 43.1 Q-275.8 37.45 -271.6 29.8 L-271.6 29.7 Q-265.45 18.6 -263.0 7.6 L-263.0 7.55 -262.75 6.15 -262.6 5.6 -262.3 3.6 -261.85 1.65 -261.85 1.6 -261.75 1.3 Q-261.6 1.05 -261.5 1.15" fill="#f4dfb1" fill-rule="evenodd" stroke="none"/>
      <path d="M-357.2 -32.75 L-357.6 -33.7 -355.5 -33.05 Q-354.65 -32.75 -353.85 -32.2 -354.0 -31.35 -353.65 -30.5 L-355.9 -32.05 -357.2 -32.75" fill="#e4c5d3" fill-rule="evenodd" stroke="none"/>
      <path d="M-326.9 -62.05 L-334.35 -73.5 -334.5 -73.65 Q-337.5 -78.6 -334.3 -81.35 L-334.0 -81.65 Q-322.8 -87.45 -310.3 -86.75 L-310.7 -83.8 -310.6 -83.55 Q-309.25 -80.25 -305.55 -76.4 -316.8 -81.95 -331.95 -76.55 -331.75 -72.65 -330.35 -70.45 L-330.1 -70.6 -327.15 -62.8 -326.85 -62.0 -326.9 -62.05 M-284.45 -80.95 Q-271.75 -76.7 -264.65 -67.4 L-265.25 -66.95 Q-264.2 -64.1 -262.4 -62.15 L-262.1 -61.2 Q-276.7 -75.9 -285.75 -69.6 L-285.85 -69.5 Q-283.95 -75.0 -284.45 -80.95 M-255.55 -89.7 L-255.4 -90.9 -254.85 -94.15 Q-250.95 -89.6 -248.2 -84.1 L-246.55 -80.7 Q-244.85 -76.7 -243.55 -72.35 -245.35 -76.75 -247.35 -80.25 L-247.7 -80.9 -249.35 -83.55 -250.85 -85.65 -250.9 -85.7 Q-253.85 -89.55 -255.0 -89.75 L-255.05 -89.75 -255.5 -89.75 -255.55 -89.7 M-254.35 -48.65 Q-252.1 -42.5 -252.15 -37.0 L-252.2 -36.9 -252.5 -36.65 -252.5 -36.6 -252.65 -36.5 -255.8 -34.15 Q-254.2 -38.2 -257.6 -42.3 L-257.55 -42.55 Q-260.25 -43.55 -263.5 -42.55 -261.5 -46.75 -255.8 -48.3 L-255.5 -48.3 -255.3 -48.3 -255.1 -48.45 -254.35 -48.65 M-250.3 -10.8 Q-251.3 -10.25 -252.1 -10.2 -254.3 -10.9 -267.8 -10.0 L-271.2 -9.75 -271.95 -9.65 -271.95 -9.6 -271.45 -10.7 -271.15 -10.8 -269.8 -11.1 Q-260.55 -12.05 -252.15 -11.05 L-250.3 -10.8 M-353.85 -32.2 Q-353.15 -31.8 -352.55 -31.25 L-352.35 -31.2 Q-341.15 -26.5 -329.0 -25.3 L-322.85 -23.4 -322.8 -23.3 -315.7 -21.6 Q-316.2 -20.65 -319.45 -20.3 L-321.95 -20.75 -322.2 -20.8 -324.4 -21.15 -324.5 -21.15 -324.9 -20.8 Q-325.7 -20.2 -326.4 -20.05 L-326.75 -19.95 Q-328.5 -19.8 -329.6 -22.5 L-330.2 -22.9 -332.5 -23.45 -333.15 -23.35 -332.95 -23.55 -345.75 -26.45 -350.5 -27.55 -353.65 -30.5 Q-354.0 -31.35 -353.85 -32.2 M-257.6 -28.2 Q-257.6 -25.3 -259.4 -22.35 L-260.15 -21.25 -261.9 -19.05 -262.0 -19.05 -262.2 -18.8 -262.45 -18.5 -262.55 -18.5 -262.75 -18.85 -262.8 -19.8 -257.8 -28.25 -257.65 -28.2 -257.6 -28.2 M-280.3 -39.5 Q-282.3 -48.3 -289.8 -54.35 -285.9 -59.5 -281.65 -58.1 -277.55 -48.05 -280.3 -39.5" fill="#fff7f7" fill-rule="evenodd" stroke="none"/>
      <path d="M-330.35 -70.45 Q-331.75 -72.65 -331.95 -76.55 -316.8 -81.95 -305.55 -76.4 -309.25 -80.25 -310.6 -83.55 L-310.7 -83.8 -310.3 -86.75 Q-310.0 -89.8 -310.2 -92.8 -310.55 -98.15 -312.4 -103.2 L-312.4 -103.25 -313.95 -106.9 Q-315.7 -110.55 -318.25 -114.0 L-318.95 -115.6 Q-320.3 -119.25 -316.95 -119.9 L-315.0 -118.9 -314.2 -118.05 Q-317.75 -118.0 -317.25 -116.15 L-310.85 -103.7 Q-308.8 -97.9 -307.75 -92.85 -306.95 -89.45 -306.6 -86.4 L-306.35 -83.6 -306.7 -83.4 -306.7 -83.35 Q-301.9 -77.1 -296.35 -74.6 L-296.3 -74.55 -295.7 -74.3 -295.7 -74.0 -295.75 -73.05 Q-295.95 -72.1 -297.4 -71.6 L-298.4 -71.05 -299.45 -69.95 Q-294.8 -62.55 -288.0 -65.3 L-287.8 -65.35 -287.7 -65.4 Q-286.6 -67.45 -285.85 -69.5 L-285.75 -69.6 Q-276.7 -75.9 -262.1 -61.2 -261.75 -60.0 -261.55 -58.65 L-261.5 -58.25 -260.15 -59.2 -257.25 -61.85 Q-255.3 -64.0 -253.55 -66.8 L-252.3 -68.95 -251.95 -69.65 Q-251.45 -70.5 -251.15 -71.6 L-250.8 -73.65 -250.75 -73.95 -250.65 -76.6 Q-250.7 -79.35 -251.05 -81.5 L-251.2 -82.25 -251.3 -82.85 -251.9 -84.9 -252.05 -85.2 Q-253.35 -88.4 -255.05 -89.75 L-255.0 -89.75 Q-253.85 -89.55 -250.9 -85.7 L-250.85 -85.65 -249.35 -83.55 -247.7 -80.9 -247.35 -80.25 Q-245.35 -76.75 -243.55 -72.35 L-243.35 -71.55 -242.95 -70.15 -242.85 -69.6 Q-242.3 -65.35 -243.65 -61.5 L-244.35 -59.7 -250.5 -53.35 -248.55 -57.0 Q-246.6 -60.4 -245.9 -62.3 -245.15 -64.15 -245.9 -67.5 -246.55 -70.05 -247.05 -70.85 L-247.3 -71.2 -248.6 -71.45 -248.75 -71.15 -248.9 -71.05 -252.35 -65.95 Q-254.4 -63.15 -256.35 -60.9 L-259.05 -58.0 -261.3 -56.1 Q-262.0 -53.8 -261.0 -51.2 -259.2 -48.35 -255.8 -48.3 -261.5 -46.75 -263.5 -42.55 -260.25 -43.55 -257.55 -42.55 L-257.6 -42.3 Q-254.2 -38.2 -255.8 -34.15 L-258.0 -32.7 Q-261.35 -30.65 -264.8 -29.35 L-265.4 -29.2 Q-275.4 -26.1 -283.0 -34.5 L-283.2 -34.75 Q-286.8 -42.9 -291.65 -47.65 L-291.7 -47.7 -294.05 -49.75 Q-299.55 -53.95 -306.45 -54.25 L-306.6 -54.2 -306.95 -54.3 Q-310.75 -53.7 -313.9 -55.85 L-313.85 -56.0 -325.8 -70.9 -326.2 -71.15 -329.7 -71.05 -330.15 -70.7 -330.2 -70.9 -330.35 -70.45 M-290.5 -98.2 L-290.35 -98.05 -290.15 -97.65 -290.0 -97.45 Q-287.1 -92.2 -285.7 -87.3 -289.85 -93.7 -294.3 -98.8 -299.85 -105.25 -305.8 -109.8 L-308.9 -112.05 -309.0 -112.15 -313.25 -117.05 -307.85 -113.5 -304.75 -111.2 Q-297.75 -105.95 -292.45 -100.4 L-290.5 -98.2 M-254.5 -49.1 L-254.35 -48.65 -255.1 -48.45 -254.5 -49.1 M-266.8 -12.15 L-264.4 -12.55 -262.6 -12.7 -260.0 -12.75 -259.75 -12.8 -256.25 -12.7 -253.4 -12.4 -249.1 -11.6 -250.3 -10.8 -252.15 -11.05 Q-260.55 -12.05 -269.8 -11.1 L-267.85 -11.65 -267.65 -11.7 -266.8 -12.15 M-250.25 -7.55 Q-249.55 -6.3 -249.45 -5.05 L-250.55 -5.05 -251.7 -7.2 Q-251.15 -7.7 -250.25 -7.55 M-254.15 -4.35 L-254.45 -3.8 -254.6 -3.2 -254.5 -2.35 -253.4 -1.35 Q-256.05 -1.6 -257.55 -4.65 L-258.1 -4.85 -258.5 -4.95 -259.9 -5.35 -261.45 -5.65 -261.65 -5.7 -264.2 -6.0 -265.95 -6.05 -268.15 -5.95 -268.4 -5.6 -269.5 -5.35 Q-269.65 0.7 -271.5 3.85 L-273.3 7.0 -273.55 6.8 -273.25 5.85 -272.95 3.5 -272.35 -0.1 Q-272.15 -1.0 -272.55 -3.15 -272.9 -5.25 -273.3 -6.05 L-273.85 -5.95 -273.85 -6.0 -273.9 -6.05 -274.0 -6.05 -276.85 -6.75 Q-274.7 -7.95 -271.35 -8.0 L-271.35 -7.95 -270.95 -8.0 -267.55 -8.35 -266.05 -8.45 Q-263.1 -8.65 -259.9 -8.5 L-258.25 -8.45 -254.25 -8.1 Q-253.55 -6.05 -254.15 -4.35 M-352.1 -22.95 Q-355.25 -20.15 -359.2 -19.35 -357.8 -21.25 -357.65 -23.45 L-357.2 -23.7 Q-351.85 -26.9 -347.25 -25.7 L-345.75 -26.45 -332.95 -23.55 -333.15 -23.35 -332.5 -23.45 -330.2 -22.9 -329.6 -22.5 Q-328.5 -19.8 -326.75 -19.95 L-326.0 -18.55 -325.9 -18.4 -325.95 -18.45 -325.9 -18.25 -325.95 -18.25 Q-329.5 -12.2 -331.7 -5.4 -332.1 -12.5 -331.15 -19.25 L-331.25 -19.3 -332.25 -20.15 -346.7 -24.15 -348.5 -24.5 Q-350.0 -24.65 -351.0 -24.05 L-352.1 -22.95 M-292.1 49.65 L-294.1 28.85 -294.25 28.7 -296.6 6.2 -301.2 5.15 Q-307.7 16.05 -314.8 25.85 L-315.6 27.0 Q-322.7 36.6 -330.35 45.05 -333.5 46.15 -332.2 43.15 -326.05 34.7 -320.6 25.85 L-319.95 24.7 -319.6 24.15 Q-315.5 17.35 -311.8 10.35 L-310.0 7.0 -306.55 0.2 -306.55 0.0 -305.45 -2.4 Q-304.3 -4.6 -303.5 -7.25 L-303.35 -7.25 -303.35 -4.35 Q-303.3 -3.0 -303.9 -1.3 L-303.8 -1.3 -304.1 -0.8 -306.15 2.7 -308.25 7.65 Q-308.55 6.0 -309.5 7.2 L-310.95 10.7 -311.05 10.8 -311.05 10.85 Q-314.0 17.5 -318.15 23.65 L-318.85 24.65 -317.95 23.55 Q-313.65 18.1 -310.0 11.45 L-310.0 11.4 -308.65 8.85 -309.45 11.65 Q-309.3 12.35 -308.75 12.15 L-306.25 8.95 Q-304.75 6.75 -303.55 4.3 L-302.35 1.55 Q-301.85 0.7 -300.1 0.65 L-299.8 1.05 -298.15 1.3 Q-296.7 1.2 -295.8 1.75 -294.25 2.7 -294.7 5.75 L-294.8 6.2 -294.85 6.4 -294.8 6.4 -294.85 8.6 -294.2 11.5 Q-293.4 13.55 -291.95 15.65 L-291.9 14.8 -291.65 20.15 -291.25 27.7 -291.25 28.05 -291.25 28.35 -291.2 29.25 -291.1 28.35 -291.1 28.1 -291.05 27.85 -290.6 20.15 -290.0 11.05 -289.9 10.45 -289.95 10.35 -290.45 9.6 Q-291.1 9.85 -291.6 10.55 -291.65 8.4 -291.2 6.35 L-291.05 6.25 -291.25 6.25 -290.7 4.55 Q-290.25 3.35 -289.4 2.55 L-287.8 1.35 -288.15 3.05 -288.35 3.55 -288.35 3.6 -288.3 3.7 -289.4 11.05 -290.85 49.3 -290.9 50.15 -292.05 50.3 -292.1 49.65 M-273.15 -19.3 L-273.05 -18.75 Q-272.85 -17.35 -273.8 -16.2 L-273.95 -16.15 Q-279.0 -15.3 -285.2 -18.8 -274.8 -27.1 -273.15 -19.3 M-280.3 -39.5 Q-277.55 -48.05 -281.65 -58.1 -285.9 -59.5 -289.8 -54.35 -282.3 -48.3 -280.3 -39.5" fill="#f8cbd5" fill-rule="evenodd" stroke="none"/>
      <path d="M-327.15 -62.8 L-330.1 -70.6 -329.7 -71.05 -326.2 -71.15 -325.8 -70.9 -313.85 -56.0 -313.9 -55.85 Q-310.75 -53.7 -306.95 -54.3 L-306.6 -54.2 -306.45 -54.25 Q-299.55 -53.95 -294.05 -49.75 L-291.7 -47.7 -291.65 -47.65 Q-286.8 -42.9 -283.2 -34.75 L-283.0 -34.5 Q-275.4 -26.1 -265.4 -29.2 L-264.8 -29.35 Q-261.35 -30.65 -258.0 -32.7 L-255.8 -34.15 -252.65 -36.5 -253.55 -34.0 -255.35 -33.25 Q-256.2 -33.1 -258.55 -31.7 L-260.65 -30.15 -263.4 -27.6 -264.75 -25.9 Q-267.95 -21.7 -269.05 -17.95 -269.9 -14.9 -269.0 -13.65 L-271.5 -12.5 -271.8 -12.4 -277.25 -11.7 -277.55 -11.7 -279.5 -11.5 -282.25 -12.55 -287.2 -13.35 -292.1 -13.1 -292.4 -13.3 -292.55 -13.4 -298.6 -16.35 -299.25 -16.65 -301.8 -18.0 Q-302.05 -18.1 -302.35 -18.3 L-302.55 -18.4 Q-304.85 -19.9 -308.55 -26.6 L-308.6 -26.65 -308.5 -26.7 Q-306.45 -23.15 -303.3 -20.9 -302.1 -20.05 -300.9 -19.5 -297.4 -17.85 -293.95 -19.05 -289.45 -20.65 -287.75 -26.35 -286.1 -31.95 -288.35 -38.35 -290.0 -43.15 -293.1 -46.3 L-295.3 -48.15 Q-300.1 -51.55 -304.65 -49.95 -309.2 -48.4 -310.85 -42.8 -312.25 -38.1 -311.0 -32.95 L-310.35 -30.7 -309.05 -27.7 -309.15 -27.65 -311.7 -32.75 -318.15 -54.05 Q-320.55 -63.25 -327.15 -62.8 M-285.7 -87.3 L-285.6 -86.95 Q-284.75 -83.9 -284.45 -80.95 -283.95 -75.0 -285.85 -69.5 -286.6 -67.45 -287.7 -65.4 L-287.8 -65.35 -288.0 -65.3 Q-294.8 -62.55 -299.45 -69.95 L-298.4 -71.05 -297.4 -71.6 Q-295.95 -72.1 -295.75 -73.05 L-295.7 -74.0 -295.7 -74.3 -295.35 -74.15 -295.2 -75.85 -295.2 -75.95 -295.2 -76.2 Q-295.0 -80.05 -295.55 -83.9 -297.15 -95.0 -304.7 -106.25 L-305.0 -106.75 -308.9 -112.0 -308.9 -112.05 -305.8 -109.8 Q-299.85 -105.25 -294.3 -98.8 -289.85 -93.7 -285.7 -87.3 M-250.5 -53.35 L-254.5 -49.1 -255.1 -48.45 -255.3 -48.3 -255.5 -48.3 -255.8 -48.3 Q-259.2 -48.35 -261.0 -51.2 -262.0 -53.8 -261.3 -56.1 L-259.05 -58.0 -256.35 -60.9 Q-254.4 -63.15 -252.35 -65.95 L-248.9 -71.05 -248.75 -71.15 -248.6 -71.45 -247.3 -71.2 -247.05 -70.85 Q-246.55 -70.05 -245.9 -67.5 -245.15 -64.15 -245.9 -62.3 -246.6 -60.4 -248.55 -57.0 L-250.5 -53.35 M-252.1 -10.2 L-252.25 -10.15 -251.8 -9.65 -251.85 -9.5 -251.75 -9.6 -250.25 -7.55 Q-251.15 -7.7 -251.7 -7.2 L-250.55 -5.05 -253.6 -5.05 -254.15 -4.35 Q-253.55 -6.05 -254.25 -8.1 L-258.25 -8.45 -259.9 -8.5 Q-263.1 -8.65 -266.05 -8.45 L-267.55 -8.35 -270.95 -8.0 -271.35 -7.95 -271.35 -8.0 Q-274.7 -7.95 -276.85 -6.75 L-285.35 -7.0 Q-285.75 -3.05 -287.8 1.35 L-289.4 2.55 Q-290.25 3.35 -290.7 4.55 L-291.25 6.25 -291.05 6.25 -291.2 6.35 Q-291.65 8.4 -291.6 10.55 L-291.6 11.0 -291.9 14.8 -291.95 15.65 Q-293.4 13.55 -294.2 11.5 L-294.85 8.6 -294.8 6.4 -294.85 6.4 -294.8 6.2 -294.7 5.75 Q-294.25 2.7 -295.8 1.75 -296.7 1.2 -298.15 1.3 L-299.8 1.05 -300.1 0.65 Q-301.85 0.7 -302.35 1.55 L-303.55 4.3 Q-304.75 6.75 -306.25 8.95 L-308.75 12.15 Q-309.3 12.35 -309.45 11.65 L-308.65 8.85 -308.55 8.5 -308.25 7.65 -306.15 2.7 -304.1 -0.8 -303.8 -1.3 -303.9 -1.3 Q-303.3 -3.0 -303.35 -4.35 L-303.35 -7.25 -303.5 -7.25 -303.55 -7.3 Q-304.0 -10.85 -303.85 -12.75 L-303.85 -13.15 -305.15 -14.3 -306.05 -15.3 -307.65 -17.8 -308.15 -19.15 -305.35 -16.55 -305.1 -16.5 -301.45 -14.5 Q-301.45 -13.8 -300.9 -12.7 L-300.35 -11.6 Q-297.9 -7.55 -293.8 -6.6 -289.7 -5.65 -287.65 -8.25 L-287.6 -8.3 Q-286.85 -9.25 -286.45 -10.05 L-279.45 -9.7 -271.45 -10.7 -271.95 -9.6 -271.2 -9.75 -267.8 -10.0 Q-254.3 -10.9 -252.1 -10.2 M-356.75 -29.2 Q-356.35 -30.15 -356.45 -31.15 L-357.2 -32.75 -355.9 -32.05 -353.65 -30.5 -350.5 -27.55 -345.75 -26.45 -347.25 -25.7 Q-351.85 -26.9 -357.2 -23.7 -354.15 -25.85 -356.75 -29.2 M-325.9 -18.4 L-326.0 -18.55 -326.75 -19.95 -326.4 -20.05 Q-325.7 -20.2 -324.9 -20.8 L-324.5 -21.15 -324.4 -21.15 -322.2 -20.8 -321.95 -20.75 -319.45 -20.3 -313.2 -19.0 -313.1 -19.0 -313.3 -18.4 -324.3 -19.45 Q-325.4 -19.8 -325.8 -18.4 L-325.85 -18.35 -325.9 -18.4 M-285.0 -14.6 L-275.3 -12.75 -275.2 -13.15 -276.6 -13.55 -281.2 -14.35 -286.0 -15.3 -286.1 -15.15 -285.75 -14.9 -285.0 -14.6 M-273.15 -19.3 Q-274.8 -27.1 -285.2 -18.8 -279.0 -15.3 -273.95 -16.15 L-273.8 -16.2 Q-272.85 -17.35 -273.05 -18.75 L-273.15 -19.3 M-273.55 6.8 L-274.05 6.45 -273.35 3.45 Q-272.65 -1.1 -273.85 -5.95 L-273.3 -6.05 Q-272.9 -5.25 -272.55 -3.15 -272.15 -1.0 -272.35 -0.1 L-272.95 3.5 -273.25 5.85 -273.55 6.8" fill="#c994af" fill-rule="evenodd" stroke="none"/>
      <path d="M-357.2 -23.7 L-357.65 -23.7 -357.6 -24.0 Q-359.65 -23.95 -361.15 -25.7 L-357.4 -28.1 -356.75 -29.2 Q-354.15 -25.85 -357.2 -23.7" fill="#ead1dc" fill-rule="evenodd" stroke="none"/>
      <path d="M-352.35 -31.2 Q-340.6 -28.7 -329.0 -25.3 -341.15 -26.5 -352.35 -31.2 M-315.7 -21.6 L-308.85 -19.95 -308.15 -19.15 -307.65 -17.8 -313.1 -19.0 -313.2 -19.0 -319.45 -20.3 Q-316.2 -20.65 -315.7 -21.6" fill="#d7c9cd" fill-rule="evenodd" stroke="none"/>
      <path d="M-303.85 -12.75 Q-307.55 -13.35 -325.9 -18.25 L-325.85 -18.35 -325.8 -18.4 Q-325.4 -19.8 -324.3 -19.45 L-313.3 -18.4 -313.1 -19.0 -307.65 -17.8 -306.05 -15.3 -305.15 -14.3 -303.85 -13.15 -303.85 -12.75" fill="#e0afc2" fill-rule="evenodd" stroke="none"/>
      <path d="M-271.95 -9.6 L-271.95 -9.65 -271.2 -9.75 -271.95 -9.6" fill="#d3a6bc" fill-rule="evenodd" stroke="none"/>
      <path d="M-301.15 -41.6 L-301.05 -41.2 Q-304.7 -30.2 -295.25 -25.65 L-295.2 -25.6 -295.15 -25.65 Q-293.3 -20.4 -297.25 -21.2 L-297.3 -21.2 Q-302.35 -24.0 -304.95 -27.8 -305.85 -29.0 -306.45 -30.35 -308.75 -35.75 -306.65 -42.7 -301.95 -46.0 -301.15 -41.6 M-301.45 -14.5 Q-297.35 -12.5 -293.15 -11.35 L-293.15 -11.45 Q-289.8 -10.5 -286.45 -10.05 -286.85 -9.25 -287.6 -8.3 L-287.65 -8.25 Q-289.7 -5.65 -293.8 -6.6 -297.9 -7.55 -300.35 -11.6 L-300.9 -12.7 Q-301.45 -13.8 -301.45 -14.5 M-263.35 -19.9 L-263.45 -18.9 -263.5 -17.9 Q-263.7 -16.9 -264.35 -16.2 L-264.85 -15.65 Q-265.35 -15.2 -265.85 -15.05 -266.35 -14.9 -266.85 -15.05 -268.35 -15.35 -267.75 -18.05 L-267.7 -18.4 -265.65 -22.15 Q-263.85 -24.9 -262.6 -25.7 -263.05 -24.4 -263.3 -21.15 L-263.4 -20.1 -263.35 -19.9" fill="#795353" fill-rule="evenodd" stroke="none"/>
      <path d="M-291.6 10.55 Q-291.1 9.85 -290.45 9.6 L-289.95 10.35 -289.9 10.45 -290.0 11.05 -290.6 20.15 -291.05 27.85 -291.1 28.1 -291.1 28.35 -291.2 29.25 -291.25 28.35 -291.25 28.05 -291.25 27.7 -291.65 20.15 -291.9 14.8 -291.6 11.0 -291.6 10.55" fill="#fef4f4" fill-rule="evenodd" stroke="none"/>
      <path d="M-326.9 -62.05 L-326.85 -62.0 -327.15 -62.8 Q-320.55 -63.25 -318.15 -54.05 L-311.7 -32.75 -309.15 -27.65 -309.2 -27.65 -308.6 -26.65 -308.55 -26.6 Q-304.85 -19.9 -302.55 -18.4 L-302.35 -18.3 Q-302.05 -18.1 -301.8 -18.0 L-299.25 -16.65 -298.6 -16.35 -292.55 -13.4 -292.4 -13.3 -292.1 -13.1 -287.2 -13.35 -282.25 -12.55 -279.5 -11.5 -277.55 -11.7 -277.25 -11.7 -271.8 -12.4 -271.5 -12.5 -269.0 -13.65 -268.45 -13.25 Q-266.8 -12.3 -263.8 -14.75 L-263.55 -14.45 -266.8 -12.15 -267.65 -11.7 -267.85 -11.65 -269.8 -11.1 -271.15 -10.8 -271.45 -10.7 -279.45 -9.7 -286.45 -10.05 Q-289.8 -10.5 -293.15 -11.45 L-293.15 -11.35 Q-297.35 -12.5 -301.45 -14.5 L-305.1 -16.5 -305.35 -16.55 -308.15 -19.15 -308.85 -19.95 Q-316.6 -28.3 -319.3 -40.1 L-319.4 -40.4 Q-320.9 -45.95 -323.1 -51.5 L-324.05 -53.95 -326.9 -62.05" fill="#d9b7cc" fill-rule="evenodd" stroke="none"/>
      <path d="M-253.55 -34.0 L-254.25 -31.45 Q-255.3 -27.4 -257.6 -22.55 L-258.1 -21.7 -259.7 -19.25 Q-261.7 -16.55 -263.8 -14.75 -266.8 -12.3 -268.45 -13.25 L-269.0 -13.65 Q-269.9 -14.9 -269.05 -17.95 -267.95 -21.7 -264.75 -25.9 L-263.4 -27.6 -260.65 -30.15 Q-262.8 -28.4 -264.55 -25.8 -267.15 -21.9 -268.05 -18.6 L-268.2 -18.1 Q-268.95 -15.2 -267.85 -14.4 L-266.75 -14.2 -265.65 -14.55 Q-264.85 -14.95 -263.8 -15.75 L-261.7 -17.75 -261.4 -18.1 -261.1 -18.4 -259.35 -20.65 -258.6 -21.8 Q-256.05 -25.7 -255.3 -29.1 -254.55 -32.5 -254.9 -33.1 L-255.35 -33.25 -253.55 -34.0 M-309.05 -27.7 L-310.35 -30.7 -311.0 -32.95 Q-312.25 -38.1 -310.85 -42.8 -309.2 -48.4 -304.65 -49.95 -300.1 -51.55 -295.3 -48.15 L-293.1 -46.3 Q-290.0 -43.15 -288.35 -38.35 -286.1 -31.95 -287.75 -26.35 -289.45 -20.65 -293.95 -19.05 -297.4 -17.85 -300.9 -19.5 -302.1 -20.05 -303.3 -20.9 -306.45 -23.15 -308.5 -26.7 L-309.05 -27.7 M-287.95 -30.45 Q-288.05 -35.75 -290.65 -40.65 -293.65 -46.35 -298.2 -48.3 -302.7 -50.2 -306.45 -47.35 -310.2 -44.45 -310.3 -38.55 -310.45 -33.75 -308.65 -29.4 L-307.65 -27.2 -307.15 -26.4 Q-304.45 -21.7 -300.2 -19.85 -298.8 -19.25 -297.55 -19.05 L-297.45 -19.05 Q-294.4 -18.6 -291.85 -20.3 -289.6 -21.85 -288.6 -24.75 -288.0 -26.55 -287.9 -28.9 L-287.95 -30.45" fill="#604251" fill-rule="evenodd" stroke="none"/>
      <path d="M-260.65 -30.15 L-258.55 -31.7 Q-256.2 -33.1 -255.35 -33.25 L-254.9 -33.1 Q-254.55 -32.5 -255.3 -29.1 -256.05 -25.7 -258.6 -21.8 L-259.35 -20.65 -261.1 -18.4 -261.4 -18.1 -261.7 -17.75 -263.8 -15.75 Q-264.85 -14.95 -265.65 -14.55 L-266.75 -14.2 -267.85 -14.4 Q-268.95 -15.2 -268.2 -18.1 L-268.05 -18.6 Q-267.15 -21.9 -264.55 -25.8 -262.8 -28.4 -260.65 -30.15 M-301.15 -41.6 Q-301.95 -46.0 -306.65 -42.7 -308.75 -35.75 -306.45 -30.35 -305.85 -29.0 -304.95 -27.8 -302.35 -24.0 -297.3 -21.2 L-297.25 -21.2 Q-293.3 -20.4 -295.15 -25.65 L-295.2 -25.6 -295.25 -25.65 Q-304.7 -30.2 -301.05 -41.2 L-301.15 -41.6 M-287.95 -30.45 L-287.9 -28.9 Q-288.0 -26.55 -288.6 -24.75 -289.6 -21.85 -291.85 -20.3 -294.4 -18.6 -297.45 -19.05 L-297.55 -19.05 Q-298.8 -19.25 -300.2 -19.85 -304.45 -21.7 -307.15 -26.4 L-307.65 -27.2 -308.65 -29.4 Q-310.45 -33.75 -310.3 -38.55 -310.2 -44.45 -306.45 -47.35 -302.7 -50.2 -298.2 -48.3 -293.65 -46.35 -290.65 -40.65 -288.05 -35.75 -287.95 -30.45 M-290.0 -25.85 Q-289.4 -28.15 -289.45 -30.4 -289.75 -37.85 -298.1 -44.55 -292.1 -35.5 -291.65 -26.2 -291.2 -24.5 -290.2 -25.3 L-290.0 -25.85 M-285.0 -14.6 L-285.75 -14.9 -286.1 -15.15 -286.0 -15.3 -281.2 -14.35 -276.6 -13.55 -275.2 -13.15 -275.3 -12.75 -285.0 -14.6 M-257.6 -28.2 L-257.65 -28.2 -257.8 -28.25 -262.8 -19.8 -262.75 -18.85 -262.55 -18.5 -262.45 -18.5 -262.2 -18.8 -262.0 -19.05 -261.9 -19.05 -260.15 -21.25 -259.4 -22.35 Q-257.6 -25.3 -257.6 -28.2 M-263.35 -19.9 L-263.4 -20.1 -263.3 -21.15 Q-263.05 -24.4 -262.6 -25.7 -263.85 -24.9 -265.65 -22.15 L-267.7 -18.4 -267.75 -18.05 Q-268.35 -15.35 -266.85 -15.05 -266.35 -14.9 -265.85 -15.05 -265.35 -15.2 -264.85 -15.65 L-264.35 -16.2 Q-263.7 -16.9 -263.5 -17.9 L-263.45 -18.9 -263.35 -19.9" fill="#000000" fill-rule="evenodd" stroke="none"/>
      <path d="M-261.55 -58.65 L-260.55 -59.6 Q-256.55 -63.6 -252.85 -70.1 L-250.75 -73.95 -250.8 -73.65 -251.15 -71.6 Q-251.45 -70.5 -251.95 -69.65 L-252.3 -68.95 -253.55 -66.8 Q-255.3 -64.0 -257.25 -61.85 L-260.15 -59.2 -261.5 -58.25 -261.55 -58.65" fill="#e99b4b" fill-rule="evenodd" stroke="none"/>
      <path d="M-314.2 -118.05 L-314.0 -118.45 Q-304.65 -113.45 -295.1 -105.35 L-290.5 -98.2 -292.45 -100.4 Q-297.75 -105.95 -304.75 -111.2 L-307.85 -113.5 -313.25 -117.05 -314.2 -118.05" fill="#f5ebec" fill-rule="evenodd" stroke="none"/>
      <path d="M-290.0 -25.85 L-290.2 -25.3 Q-291.2 -24.5 -291.65 -26.2 -292.1 -35.5 -298.1 -44.55 -289.75 -37.85 -289.45 -30.4 -289.4 -28.15 -290.0 -25.85" fill="#ffffff" fill-rule="evenodd" stroke="none"/>
      <path d="M-308.65 8.85 L-310.0 11.4 -310.1 11.35 -310.0 11.45 Q-313.65 18.1 -317.95 23.55 L-318.85 24.65 -318.15 23.65 Q-314.0 17.5 -311.05 10.85 L-311.0 10.9 -311.05 10.8 -310.95 10.7 -309.5 7.2 Q-308.55 6.0 -308.25 7.65 L-308.55 8.5 -308.65 8.85" fill="#fdeef0" fill-rule="evenodd" stroke="none"/>
      <path d="M-284.45 -90.05 L-284.25 -89.75" fill="none" stroke="#000000" stroke-linecap="round" stroke-linejoin="round" stroke-width="0.05"/>
    </g>
  </defs>
</svg>
