<?xml version="1.0" encoding="UTF-8" standalone="no"?>
<svg xmlns:xlink="http://www.w3.org/1999/xlink" height="163.85px" width="151.3px" xmlns="http://www.w3.org/2000/svg">
  <g transform="matrix(1.0, 0.0, 0.0, 1.0, 369.1, 93.9)">
    <use height="157.25" transform="matrix(1.0, 0.0, 0.0, 1.0, -334.3, -93.9)" width="90.75" xlink:href="#shape0"/>
  </g>
  <defs>
    <g id="shape0" transform="matrix(1.0, 0.0, 0.0, 1.0, 334.3, 93.9)">
      <path d="M-311.7 23.5 L-312.4 24.25 -312.35 24.3 -311.7 23.5 M-297.35 -12.45 L-297.2 -12.3 -297.25 -12.55 -297.35 -12.45" fill="#f6e852" fill-rule="evenodd" stroke="none"/>
      <path d="M-316.0 -29.7 Q-310.5 -19.4 -308.45 -6.5 L-323.15 -9.0 Q-308.7 6.8 -303.2 24.1 L-311.7 23.5 Q-310.35 23.65 -308.35 24.8 -305.2 26.65 -302.15 30.35 -296.1 37.65 -291.6 50.7 -292.75 19.6 -297.2 -12.25 L-297.2 -12.3 -297.35 -12.45 Q-305.55 -21.9 -316.0 -29.7" fill="#ffffff" fill-rule="evenodd" stroke="none"/>
      <path d="M-316.0 -29.7 L-315.45 -30.6 -319.85 -33.05 -320.1 -32.9 Q-314.1 -21.2 -311.35 -8.85 L-311.35 -8.8 -311.4 -8.8 -328.1 -11.2 Q-324.15 -7.0 -320.75 -2.6 -311.5 9.35 -306.15 22.4 L-316.15 21.25 -312.45 24.2 -312.4 24.25 -311.7 23.5 -303.2 24.1 Q-308.7 6.8 -323.15 -9.0 L-308.45 -6.5 Q-310.5 -19.4 -316.0 -29.7 -305.55 -21.9 -297.35 -12.45 L-297.25 -12.55 -296.3 -13.35 -297.2 -12.3 -297.2 -12.25 Q-292.75 19.6 -291.6 50.7 -296.1 37.65 -302.15 30.35 -305.2 26.65 -308.35 24.8 -310.35 23.65 -311.7 23.5 L-312.35 24.3 Q-295.05 39.05 -290.65 63.35 L-290.4 63.3 -290.1 55.35 -290.05 50.65 Q-289.7 18.8 -295.55 -12.45 L-295.7 -12.65 -296.1 -13.2 -296.15 -13.2 -296.3 -13.35 Q-305.4 -24.35 -315.4 -30.55 L-316.0 -29.7" fill="#ffff5e" fill-rule="evenodd" stroke="none"/>
      <path d="M-297.35 32.2 L-294.8 42.35 -292.4 52.5 -290.6 54.45 -290.25 53.1 -290.25 53.0 -288.35 46.15 -285.4 36.7 -285.35 36.65 Q-280.8 23.4 -274.45 10.2 L-274.8 10.0 Q-285.9 1.05 -301.95 5.2 L-292.15 45.1 -297.35 32.2" fill="#ffffff" fill-rule="evenodd" stroke="none"/>
      <path d="M-292.4 52.5 L-291.95 54.7 -290.2 63.05 -288.7 55.0 -288.35 53.45 Q-286.55 45.45 -283.75 37.25 -279.4 24.45 -272.6 11.15 L-272.15 10.2 -272.2 10.1 -273.1 9.05 -273.15 8.95 -273.35 8.75 -273.4 8.7 Q-285.0 -4.35 -302.8 3.05 L-302.85 3.1 -303.15 3.2 Q-304.35 3.7 -305.6 4.3 L-305.05 6.0 -305.0 6.2 Q-300.8 19.2 -297.35 32.2 L-292.15 45.1 -301.95 5.2 Q-285.9 1.05 -274.8 10.0 L-274.45 10.2 Q-280.8 23.4 -285.35 36.65 L-285.4 36.7 -288.35 46.15 -290.25 53.0 -290.25 53.1 -290.6 54.45 -292.4 52.5" fill="#ffff5e" fill-rule="evenodd" stroke="none"/>
      <path d="M-243.7 -18.75 Q-252.0 -19.55 -259.35 -16.45 -282.15 -14.65 -301.4 -10.7 -320.8 -4.75 -334.3 2.65 -330.05 2.45 -325.95 2.75 L-325.8 1.4 -325.9 2.75 Q-316.45 3.35 -307.35 6.3 L-307.1 6.4 Q-296.95 14.15 -291.8 24.0 -285.85 19.2 -280.7 11.3 L-278.0 20.7 Q-265.0 -1.9 -243.55 -18.55 L-243.7 -18.75 M-325.75 0.7 Q-297.1 -10.05 -259.15 -14.7 L-252.2 -15.5 Q-267.55 -0.2 -278.05 15.95 -278.1 13.35 -279.55 10.7 L-279.6 10.7 -279.6 10.6 -279.65 10.6 -280.4 9.35 -280.7 8.95 -281.95 10.35 Q-286.15 15.75 -290.3 18.75 -295.7 9.25 -306.5 2.4 -316.1 0.0 -325.75 0.9 L-325.75 0.7" fill="#ffff5e" fill-rule="evenodd" stroke="none"/>
      <path d="M-325.75 0.9 Q-316.1 0.0 -306.5 2.4 -295.7 9.25 -290.3 18.75 -286.15 15.75 -281.95 10.35 L-280.7 8.95 -280.4 9.35 -279.65 10.6 -279.6 10.6 -279.6 10.7 -279.55 10.7 Q-278.1 13.35 -278.05 15.95 -267.55 -0.2 -252.2 -15.5 L-259.15 -14.7 Q-297.1 -10.05 -325.75 0.7 L-325.75 0.9" fill="#ffffff" fill-rule="evenodd" stroke="none"/>
      <path d="M-268.95 -51.5 L-270.95 -52.0 -271.15 -52.05 -271.45 -52.1 Q-278.7 -53.8 -285.5 -53.25 -292.75 -52.65 -299.4 -49.45 L-299.4 -49.25 Q-298.7 -46.25 -296.35 -44.85 -290.8 -48.1 -285.5 -49.35 -277.25 -51.3 -269.6 -48.5 -269.6 -50.9 -268.95 -51.5" fill="#ffff5e" fill-rule="evenodd" stroke="none"/>
      <path d="M-268.95 -51.5 Q-269.6 -50.9 -269.6 -48.5 -277.25 -51.3 -285.5 -49.35 -290.8 -48.1 -296.35 -44.85 -298.7 -46.25 -299.4 -49.25 L-299.85 -49.15 Q-302.05 -48.1 -303.6 -46.35 -302.55 -44.15 -303.3 -41.95 L-305.05 -38.0 Q-308.0 -30.15 -307.0 -21.0 -307.45 -30.75 -298.85 -30.05 -289.6 -23.75 -285.55 -15.6 L-285.5 -15.55 Q-284.45 -13.5 -283.8 -11.3 L-282.85 -15.6 Q-280.05 -25.75 -272.6 -25.05 -268.6 -25.65 -265.45 -20.1 L-264.75 -23.45 Q-264.2 -26.65 -262.65 -30.65 -261.1 -34.65 -259.85 -34.4 -258.6 -34.2 -258.35 -30.3 L-258.2 -30.3 Q-258.45 -34.2 -259.55 -38.0 -261.1 -43.45 -264.35 -48.7 L-264.45 -48.8 Q-266.55 -50.45 -268.95 -51.5" fill="#ffffff" fill-rule="evenodd" stroke="none"/>
      <path d="M-303.6 -46.35 L-304.75 -44.85 -305.0 -44.65 -305.1 -44.5 Q-307.35 -41.3 -308.7 -38.0 -313.0 -27.45 -308.5 -15.6 L-308.1 -14.55 -307.9 -14.05 -307.75 -13.7 -307.65 -13.6 Q-297.5 -0.3 -285.5 1.05 -275.35 2.15 -263.9 -5.15 L-263.75 -5.25 Q-259.5 -9.9 -257.15 -14.6 L-256.7 -15.6 -255.9 -17.5 Q-252.55 -26.45 -255.9 -35.55 L-256.95 -38.0 -257.15 -38.55 -258.1 -40.3 -258.6 -41.15 -258.85 -41.55 -261.6 -46.0 -262.05 -46.6 -264.35 -48.7 Q-261.1 -43.45 -259.55 -38.0 -258.45 -34.2 -258.2 -30.3 -257.9 -24.55 -259.4 -18.5 L-259.9 -16.7 -260.05 -16.4 -260.2 -16.2 -260.35 -15.6 Q-260.9 -13.75 -261.55 -12.25 -263.15 -8.6 -264.4 -8.85 -265.65 -9.05 -265.85 -13.0 L-265.85 -15.6 -265.45 -20.1 Q-268.6 -25.65 -272.6 -25.05 -280.05 -25.75 -282.85 -15.6 L-283.8 -11.3 -283.75 -11.15 Q-282.7 -7.85 -282.45 -4.2 L-282.45 -4.1 -282.45 -3.95 Q-282.65 -3.05 -283.65 -2.7 L-285.5 -2.8 Q-299.9 -3.85 -304.85 -13.35 L-306.05 -15.6 -306.5 -17.5 -306.8 -18.7 -307.0 -21.0 Q-308.0 -30.15 -305.05 -38.0 L-303.3 -41.95 Q-302.55 -44.15 -303.6 -46.35" fill="#ffff68" fill-rule="evenodd" stroke="none"/>
      <path d="M-258.35 -30.3 Q-258.6 -34.2 -259.85 -34.4 -261.1 -34.65 -262.65 -30.65 -264.2 -26.65 -264.75 -23.45 L-265.45 -20.1 -265.85 -15.6 -265.85 -13.0 Q-265.65 -9.05 -264.4 -8.85 -263.15 -8.6 -261.55 -12.25 -260.9 -13.75 -260.35 -15.6 L-260.2 -16.2 -260.1 -16.4 -259.6 -18.55 -259.1 -21.1 Q-258.15 -26.4 -258.35 -30.3 M-283.8 -11.3 Q-284.45 -13.5 -285.5 -15.55 L-285.55 -15.6 Q-289.6 -23.75 -298.85 -30.05 -307.45 -30.75 -307.0 -21.0 L-306.5 -17.55 -306.5 -17.5 -305.85 -15.6 -304.85 -13.35 Q-299.9 -3.85 -285.5 -2.8 L-283.65 -2.7 Q-282.65 -3.05 -282.45 -3.95 L-282.45 -4.1 -282.45 -4.2 Q-282.7 -7.85 -283.75 -11.15 L-283.8 -11.15 -283.8 -11.3" fill="#d0881e" fill-rule="evenodd" stroke="none"/>
      <path d="M-265.6 -83.7 Q-264.7 -81.75 -263.3 -82.15 -261.85 -82.5 -260.75 -84.05 -259.6 -85.5 -259.35 -87.8 -259.25 -88.45 -259.3 -89.05 -259.3 -90.6 -259.8 -91.85 -260.55 -93.6 -261.9 -93.85 -263.25 -94.15 -264.5 -93.05 -265.75 -91.95 -266.15 -88.8 -266.5 -85.65 -265.6 -83.7 M-263.95 -88.35 Q-263.8 -89.55 -263.25 -90.25 -262.7 -91.05 -262.1 -90.95 -261.5 -90.85 -261.15 -90.0 L-261.0 -89.05 -261.05 -87.95 Q-261.2 -86.75 -261.75 -86.0 -262.3 -85.25 -262.9 -85.3 -263.5 -85.4 -263.8 -86.3 -264.1 -87.2 -263.95 -88.35" fill="#ffff5e" fill-rule="evenodd" stroke="none"/>
      <path d="M-263.95 -88.35 Q-264.1 -87.2 -263.8 -86.3 -263.5 -85.4 -262.9 -85.3 -262.3 -85.25 -261.75 -86.0 -261.2 -86.75 -261.05 -87.95 L-261.0 -89.05 -261.15 -90.0 Q-261.5 -90.85 -262.1 -90.95 -262.7 -91.05 -263.25 -90.25 -263.8 -89.55 -263.95 -88.35" fill="#ffffff" fill-rule="evenodd" stroke="none"/>
      <path d="M-264.85 -45.85 Q-263.8 -46.15 -262.6 -46.9 -262.5 -59.55 -264.4 -72.15 -268.4 -61.35 -271.2 -49.9 L-269.85 -47.6 -265.85 -57.6 -264.85 -45.85" fill="#ffff5e" fill-rule="evenodd" stroke="none"/>
      <path d="M-264.85 -45.85 L-265.85 -57.6 -269.85 -47.6 Q-267.75 -45.05 -264.85 -45.85" fill="#ffffff" fill-rule="evenodd" stroke="none"/>
      <path d="M-319.85 -84.6 L-318.1 -82.0 Q-317.05 -80.3 -316.95 -78.75 -316.85 -77.15 -318.05 -76.9 -319.25 -76.6 -320.25 -77.95 L-321.9 -80.9 Q-322.55 -82.5 -322.55 -83.55 -322.55 -84.65 -321.55 -85.05 -320.6 -85.45 -319.85 -84.6 M-323.85 -88.5 Q-325.65 -87.65 -325.8 -84.8 -325.95 -81.9 -324.45 -78.7 -322.9 -75.5 -320.55 -73.85 -318.2 -72.2 -316.45 -73.0 -314.7 -73.85 -314.5 -76.75 -314.35 -79.6 -315.85 -82.8 -317.4 -86.0 -319.75 -87.7 -322.1 -89.35 -323.85 -88.5" fill="#ffff5e" fill-rule="evenodd" stroke="none"/>
      <path d="M-319.85 -84.6 Q-320.6 -85.45 -321.55 -85.05 -322.55 -84.65 -322.55 -83.55 -322.55 -82.5 -321.9 -80.9 L-320.25 -77.95 Q-319.25 -76.6 -318.05 -76.9 -316.85 -77.15 -316.95 -78.75 -317.05 -80.3 -318.1 -82.0 L-319.85 -84.6" fill="#ffffff" fill-rule="evenodd" stroke="none"/>
      <path d="M-296.85 -46.05 Q-296.25 -47.05 -295.9 -48.25 -304.2 -60.2 -312.5 -66.0 -310.0 -53.1 -305.6 -41.4 L-303.6 -41.7 -302.85 -44.0 -306.25 -56.05 -296.85 -46.05" fill="#ffff5e" fill-rule="evenodd" stroke="none"/>
      <path d="M-296.85 -46.05 L-306.25 -56.05 -302.85 -44.0 -303.6 -41.7 Q-298.8 -42.75 -296.85 -46.05" fill="#ffffff" fill-rule="evenodd" stroke="none"/>
      <path d="M-296.65 -26.8 Q-300.15 -28.95 -302.75 -27.2 -305.35 -25.45 -305.2 -21.15 -305.1 -16.85 -301.9 -12.5 -298.7 -8.15 -293.4 -5.9 -288.05 -3.65 -285.8 -5.15 -283.55 -6.65 -285.65 -10.9 L-290.45 -19.95 Q-293.1 -24.7 -296.65 -26.8 M-293.3 -18.6 Q-295.9 -21.6 -297.9 -23.0 L-300.7 -24.9 Q-298.8 -25.4 -296.9 -24.15 L-296.75 -24.1 Q-288.75 -19.6 -287.8 -8.35 -288.15 -10.8 -289.4 -13.2 -290.65 -15.65 -293.3 -18.6 M-301.85 -22.7 Q-297.4 -12.9 -289.15 -8.35 -288.2 -6.05 -290.3 -6.35 -304.8 -11.5 -304.05 -22.1 -304.05 -24.95 -301.85 -22.7" fill="#000000" fill-rule="evenodd" stroke="none"/>
      <path d="M-301.85 -22.7 Q-304.05 -24.95 -304.05 -22.1 -304.8 -11.5 -290.3 -6.35 -288.2 -6.05 -289.15 -8.35 -297.4 -12.9 -301.85 -22.7" fill="#ad821f" fill-rule="evenodd" stroke="none"/>
      <path d="M-293.3 -18.6 Q-290.65 -15.65 -289.4 -13.2 -288.15 -10.8 -287.8 -8.35 -288.75 -19.6 -296.75 -24.1 L-296.9 -24.15 Q-298.8 -25.4 -300.7 -24.9 L-297.9 -23.0 Q-295.9 -21.6 -293.3 -18.6" fill="#dfdfdf" fill-rule="evenodd" stroke="none"/>
      <path d="M-260.4 -30.8 L-260.4 -31.1 -260.35 -31.05 -260.35 -31.0 -260.25 -31.0 Q-258.7 -30.25 -258.85 -26.3 L-259.1 -21.75 -260.1 -19.8 Q-259.45 -22.4 -259.8 -26.65 L-260.5 -30.2 -260.4 -30.75 -260.4 -30.8 M-259.35 -17.1 Q-258.75 -18.9 -258.55 -21.0 -257.85 -25.95 -258.45 -29.65 -259.0 -33.45 -260.0 -33.6 -261.0 -33.75 -261.9 -30.35 -262.8 -26.95 -263.5 -22.15 L-263.45 -21.95 Q-263.15 -20.55 -262.15 -19.2 -260.75 -17.4 -259.35 -17.1" fill="#000000" fill-rule="evenodd" stroke="none"/>
      <path d="M-260.25 -31.0 L-260.4 -30.8 -260.4 -30.75 -260.5 -30.2 -259.8 -26.65 Q-259.45 -22.4 -260.1 -19.8 L-259.1 -21.75 -258.85 -26.3 Q-258.7 -30.25 -260.25 -31.0" fill="#ffffff" fill-rule="evenodd" stroke="none"/>
      <path d="M-263.45 -21.95 L-263.5 -22.0 -263.75 -20.45 Q-264.4 -16.5 -265.3 -13.55 -266.35 -9.95 -264.8 -9.85 -263.3 -9.75 -261.25 -12.95 -260.0 -14.75 -259.35 -17.1 -260.75 -17.4 -262.15 -19.2 -263.15 -20.55 -263.45 -21.95" fill="#765915" fill-rule="evenodd" stroke="none"/>
    </g>
  </defs>
</svg>
