<?xml version="1.0" encoding="UTF-8" standalone="no"?>
<svg xmlns:xlink="http://www.w3.org/1999/xlink" height="125.65px" width="159.45px" xmlns="http://www.w3.org/2000/svg">
  <g transform="matrix(1.0, 0.0, 0.0, 1.0, 82.25, 62.7)">
    <use height="55.25" transform="matrix(1.0, 0.0, 0.0, 1.0, -70.1, 2.35)" width="49.6" xlink:href="#shape0"/>
    <use height="50.7" transform="matrix(1.0, 0.0, 0.0, 1.0, 13.4, 2.05)" width="56.8" xlink:href="#shape1"/>
    <use height="125.65" transform="matrix(1.0, 0.0, 0.0, 1.0, -68.15, -62.7)" width="121.9" xlink:href="#shape2"/>
  </g>
  <defs>
    <g id="shape0" transform="matrix(1.0, 0.0, 0.0, 1.0, 24.6, 28.5)">
      <path d="M-1.4 -8.9 Q-1.3 -11.95 0.65 -14.0 2.6 -16.05 5.3 -15.95 7.95 -15.85 9.8 -13.6 11.6 -11.4 11.5 -8.45 L11.65 -7.05 Q12.05 -4.1 11.1 -1.35 L1.0 -7.75 -1.25 -8.8 -1.4 -8.9 M3.4 -15.0 L2.5 -13.85 Q4.2 -8.95 9.05 -8.95 9.85 -9.6 9.5 -10.6 7.95 -14.75 3.4 -15.0 M19.35 13.6 L20.95 14.65 Q23.0 18.3 21.2 22.0 19.85 24.75 16.85 24.75 13.95 24.75 13.75 21.75 L14.0 15.1 15.35 12.4 19.35 13.6 M-7.85 25.5 Q-12.75 27.5 -14.9 22.4 L-15.35 21.2 -15.55 20.65 -16.25 19.15 Q-17.15 17.35 -16.35 16.05 L-13.4 16.05 -9.0 16.7 -1.65 17.15 -4.0 21.55 -7.85 25.5 M16.05 16.0 Q16.0 16.8 16.6 17.55 L16.65 19.35 Q16.65 21.0 17.85 21.95 L19.25 21.7 20.1 20.05 Q21.35 16.85 18.85 14.55 L16.4 14.55 Q16.1 15.25 16.05 16.0 M-15.0 19.1 L-13.65 22.1 -12.75 22.85 -11.0 23.9 Q-7.4 23.65 -5.0 20.75 -8.85 17.95 -13.75 17.6 L-15.0 19.1" fill="#f2bd00" fill-rule="evenodd" stroke="none"/>
      <path d="M11.5 -8.45 L13.0 -7.6 12.95 -7.45 Q13.0 -6.5 13.8 -7.0 L14.75 -5.8 Q18.25 -0.95 19.65 4.75 L19.95 6.9 Q20.4 10.45 19.35 13.6 L15.35 12.4 15.6 9.1 Q15.8 2.8 11.1 -1.35 12.05 -4.1 11.65 -7.05 L11.5 -8.45 M-1.5 -8.65 L-1.45 -8.7 -1.25 -8.8 1.0 -7.75 Q-4.05 -5.3 -7.0 -0.65 -10.2 4.5 -10.15 10.65 -10.15 13.8 -9.0 16.7 L-13.4 16.05 -14.7 15.85 -14.3 6.2 -13.95 6.1 Q-13.25 5.55 -14.0 5.25 L-10.1 -2.55 -9.75 -2.45 Q-9.0 -2.65 -9.35 -3.4 L-7.75 -4.85 Q-5.1 -7.3 -1.5 -8.65 M13.75 21.75 Q10.65 24.3 6.7 25.4 L2.5 26.3 Q-2.9 27.45 -7.85 25.5 L-4.0 21.55 Q0.2 22.8 4.5 21.6 10.5 20.05 14.0 15.1 L13.75 21.75" fill="#ae9157" fill-rule="evenodd" stroke="none"/>
      <path d="M11.5 -8.45 Q11.6 -11.4 9.8 -13.6 7.95 -15.85 5.3 -15.95 2.6 -16.05 0.65 -14.0 -1.3 -11.95 -1.4 -8.9 L-1.45 -8.7 -1.5 -8.65 -9.7 -6.8 Q-10.15 -10.15 -8.8 -13.2 -6.0 -19.45 0.95 -20.15 7.3 -20.35 13.4 -18.1 L17.3 -10.05 13.0 -7.6 11.5 -8.45 M13.8 -7.0 L17.6 -9.1 20.8 3.35 19.65 4.75 Q18.25 -0.95 14.75 -5.8 L13.8 -7.0 M12.45 -19.5 Q7.7 -21.0 2.65 -21.25 -3.4 -21.4 -7.35 -17.1 -11.6 -12.45 -10.65 -6.25 -13.6 -4.3 -16.85 -3.0 L-17.15 -2.9 Q-19.75 -4.2 -19.2 -7.25 -17.6 -15.7 -11.85 -22.2 L-2.4 -27.0 Q1.15 -26.65 4.35 -25.35 9.2 -23.55 12.45 -19.5 M-15.35 21.2 L-15.8 20.75 -15.55 20.65 -15.35 21.2" fill="#688b0b" fill-rule="evenodd" stroke="none"/>
      <path d="M1.0 -7.75 L11.1 -1.35 Q15.8 2.8 15.6 9.1 L15.35 12.4 14.0 15.1 Q10.5 20.05 4.5 21.6 0.2 22.8 -4.0 21.55 L-1.65 17.15 -9.0 16.7 Q-10.15 13.8 -10.15 10.65 -10.2 4.5 -7.0 -0.65 -4.05 -5.3 1.0 -7.75" fill="#e3be7a" fill-rule="evenodd" stroke="none"/>
      <path d="M3.4 -15.0 Q7.95 -14.75 9.5 -10.6 9.85 -9.6 9.05 -8.95 4.2 -8.95 2.5 -13.85 L3.4 -15.0 M16.05 16.0 Q16.1 15.25 16.4 14.55 L18.85 14.55 Q21.35 16.85 20.1 20.05 L19.25 21.7 17.85 21.95 Q16.65 21.0 16.65 19.35 L16.6 17.55 Q16.0 16.8 16.05 16.0 M-15.0 19.1 L-13.75 17.6 Q-8.85 17.95 -5.0 20.75 -7.4 23.65 -11.0 23.9 L-12.75 22.85 -13.65 22.1 -15.0 19.1" fill="#ffffcc" fill-rule="evenodd" stroke="none"/>
      <path d="M-9.7 -6.8 L-1.5 -8.65 Q-5.1 -7.3 -7.75 -4.85 L-9.35 -3.4 -9.7 -6.8 M-11.85 -22.2 Q-17.6 -15.7 -19.2 -7.25 -19.75 -4.2 -17.15 -2.9 L-16.85 -3.0 Q-13.6 -4.3 -10.65 -6.25 L-10.1 -2.55 -14.0 5.25 Q-17.9 4.45 -19.85 1.1 -21.9 -2.45 -22.95 -6.1 -21.3 -10.85 -18.4 -15.05 -15.7 -19.1 -11.85 -22.2 M-15.8 20.75 Q-18.8 18.45 -21.1 15.25 -24.55 10.5 -24.6 4.8 -24.6 -0.05 -23.35 -4.7 L-22.15 -0.8 Q-20.15 4.9 -14.3 6.2 L-14.7 15.85 -16.35 16.05 Q-17.15 17.35 -16.25 19.15 L-15.55 20.65 -15.8 20.75" fill="#9cb557" fill-rule="evenodd" stroke="none"/>
      <path d="M17.3 -10.05 L13.4 -18.1 24.05 -14.2 24.4 -10.25 17.3 -10.05 M20.8 3.35 L17.6 -9.1 24.5 -9.25 Q25.5 -4.45 23.7 -0.3 22.7 1.9 20.8 3.35 M12.45 -19.5 Q9.2 -23.55 4.35 -25.35 1.15 -26.65 -2.4 -27.0 3.6 -29.5 9.95 -27.8 15.6 -26.15 20.25 -22.6 22.55 -20.9 23.5 -18.35 24.05 -16.85 24.0 -15.25 L12.45 -19.5" fill="#4c7401" fill-rule="evenodd" stroke="none"/>
      <path d="M13.0 -7.6 L17.3 -10.05 24.4 -10.25 24.8 -10.1 25.0 -9.8 24.9 -9.4 Q24.75 -9.25 24.5 -9.25 L17.6 -9.1 13.8 -7.0 Q13.0 -6.5 12.95 -7.45 L13.0 -7.6 M13.4 -18.1 Q7.3 -20.35 0.95 -20.15 -6.0 -19.45 -8.8 -13.2 -10.15 -10.15 -9.7 -6.8 L-9.35 -3.4 Q-9.0 -2.65 -9.75 -2.45 L-10.1 -2.55 -10.65 -6.25 Q-11.6 -12.45 -7.35 -17.1 -3.4 -21.4 2.65 -21.25 7.7 -21.0 12.45 -19.5 L24.0 -15.25 Q24.95 -14.85 24.15 -14.35 L24.05 -14.2 13.4 -18.1 M-23.35 -4.7 L-22.95 -6.1 Q-21.9 -2.45 -19.85 1.1 -17.9 4.45 -14.0 5.25 -13.25 5.55 -13.95 6.1 L-14.3 6.2 Q-20.15 4.9 -22.15 -0.8 L-23.35 -4.7" fill="#3a2311" fill-rule="evenodd" stroke="none"/>
    </g>
    <g id="shape1" transform="matrix(1.0, 0.0, 0.0, 1.0, 29.7, 26.0)">
      <path d="M-28.15 -11.3 L-28.1 -11.5 Q-27.0 -15.0 -28.2 -18.55 L-25.35 -16.65 Q-20.85 -13.5 -15.8 -11.2 -10.4 -8.5 -4.7 -7.4 -7.55 -2.95 -8.45 2.2 -9.25 6.5 -7.3 10.25 -12.2 8.45 -16.25 5.15 -21.15 1.25 -25.15 -3.6 L-28.15 -11.3 M-28.35 -19.85 L-26.5 -25.2 -23.4 -24.5 -21.75 -26.0 Q-15.0 -20.0 -6.4 -17.35 L-1.75 -11.5 -4.05 -8.3 -7.0 -9.1 Q-12.6 -10.5 -17.8 -13.25 -23.2 -16.15 -28.35 -19.85 M-6.1 11.55 L-5.25 13.45 Q-10.4 12.0 -14.75 8.7 -19.2 5.35 -22.5 0.75 L-16.85 5.85 Q-12.0 10.15 -6.1 11.55" fill="#688b0b" fill-rule="evenodd" stroke="none"/>
      <path d="M3.6 -14.7 Q3.75 -17.2 6.15 -17.2 9.95 -16.75 13.5 -15.55 L14.9 -12.85 15.4 -7.95 15.2 -5.55 9.15 -9.05 5.35 -11.75 3.6 -14.7 M23.3 4.15 Q26.9 4.3 27.0 8.15 L27.1 10.85 Q27.15 12.05 26.3 13.0 L21.55 18.3 19.65 17.05 17.7 14.7 18.75 9.4 Q20.8 7.05 19.7 4.2 L19.65 3.95 23.3 4.15 M3.2 21.85 L0.05 24.7 Q-3.7 24.45 -7.05 22.2 -8.75 21.05 -9.35 19.15 -9.35 17.55 -7.8 16.4 -6.25 15.25 -4.1 15.25 L2.65 13.1 5.35 11.85 Q7.1 13.8 6.75 16.35 L6.65 16.9 3.2 21.85 M8.05 -15.85 L7.4 -15.3 7.2 -14.3 12.8 -9.15 13.95 -9.85 Q14.05 -15.5 8.05 -15.85 M24.75 6.8 Q23.8 6.1 22.65 6.95 18.7 9.9 20.15 14.35 L21.65 14.45 22.0 14.2 Q26.0 11.4 24.75 6.8 M4.05 15.7 L3.1 15.35 Q0.85 14.95 -1.3 16.0 L-6.75 18.55 -5.5 20.45 Q-4.05 22.0 -2.15 21.75 3.1 20.7 4.05 15.7" fill="#f2bd00" fill-rule="evenodd" stroke="none"/>
      <path d="M14.9 -12.85 Q21.0 -10.3 22.8 -4.2 24.0 0.0 23.3 4.15 L19.65 3.95 Q19.6 -1.95 16.25 -6.8 L15.4 -7.95 14.9 -12.85 M19.65 17.05 Q15.95 22.5 9.2 23.05 6.05 23.3 3.2 21.85 L6.65 16.9 Q11.5 19.0 15.2 15.35 17.7 12.9 18.75 9.4 L17.7 14.7 19.65 17.05 M5.35 -11.75 L9.15 -9.05 Q5.25 -4.95 3.15 0.25 0.5 6.75 2.65 13.1 L-4.1 15.25 -5.25 13.45 -6.1 11.55 -5.95 11.25 Q-5.9 10.7 -6.45 10.55 -7.0 7.5 -5.6 4.7 L0.3 -6.95 0.5 -6.95 Q1.45 -7.05 0.85 -7.85 L5.35 -11.75" fill="#ae9157" fill-rule="evenodd" stroke="none"/>
      <path d="M9.15 -9.05 L15.2 -5.55 15.4 -7.95 16.25 -6.8 Q19.6 -1.95 19.65 3.95 L19.7 4.2 Q20.8 7.05 18.75 9.4 17.7 12.9 15.2 15.35 11.5 19.0 6.65 16.9 L6.75 16.35 Q7.1 13.8 5.35 11.85 L2.65 13.1 Q0.5 6.75 3.15 0.25 5.25 -4.95 9.15 -9.05" fill="#e3be7a" fill-rule="evenodd" stroke="none"/>
      <path d="M8.05 -15.85 Q14.05 -15.5 13.95 -9.85 L12.8 -9.15 7.2 -14.3 7.4 -15.3 8.05 -15.85 M24.75 6.8 Q26.0 11.4 22.0 14.2 L21.65 14.45 20.15 14.35 Q18.7 9.9 22.65 6.95 23.8 6.1 24.75 6.8 M4.05 15.7 Q3.1 20.7 -2.15 21.75 -4.05 22.0 -5.5 20.45 L-6.75 18.55 -1.3 16.0 Q0.85 14.95 3.1 15.35 L4.05 15.7" fill="#ffffcc" fill-rule="evenodd" stroke="none"/>
      <path d="M-6.4 -17.35 L3.6 -14.7 5.35 -11.75 0.85 -7.85 -4.05 -8.3 -1.75 -11.5 -6.4 -17.35 M0.3 -6.95 L-5.6 4.7 Q-7.0 7.5 -6.45 10.55 L-7.3 10.25 Q-9.25 6.5 -8.45 2.2 -7.55 -2.95 -4.7 -7.4 L0.3 -6.95" fill="#9cb557" fill-rule="evenodd" stroke="none"/>
      <path d="M-9.35 19.15 Q-14.9 16.7 -18.75 11.95 L-22.3 7.55 -28.9 -0.35 Q-29.7 -1.3 -29.7 -2.55 L-28.05 -5.45 -22.5 0.75 Q-19.2 5.35 -14.75 8.7 -10.4 12.0 -5.25 13.45 L-4.1 15.25 Q-6.25 15.25 -7.8 16.4 -9.35 17.55 -9.35 19.15 M-28.45 -6.8 Q-29.05 -9.05 -28.15 -11.3 L-25.15 -3.6 -28.45 -6.8" fill="#4c7401" fill-rule="evenodd" stroke="none"/>
      <path d="M-28.05 -5.45 L-28.45 -6.8 -25.15 -3.6 Q-21.15 1.25 -16.25 5.15 -12.2 8.45 -7.3 10.25 L-6.45 10.55 Q-5.9 10.7 -5.95 11.25 L-6.1 11.55 Q-12.0 10.15 -16.85 5.85 L-22.5 0.75 -28.05 -5.45 M-28.2 -18.55 L-28.8 -18.95 -29.05 -19.3 -28.95 -19.65 -28.65 -19.9 -28.35 -19.85 Q-23.2 -16.15 -17.8 -13.25 -12.6 -10.5 -7.0 -9.1 L-4.05 -8.3 0.85 -7.85 Q1.45 -7.05 0.5 -6.95 L0.3 -6.95 -4.7 -7.4 Q-10.4 -8.5 -15.8 -11.2 -20.85 -13.5 -25.35 -16.65 L-28.2 -18.55" fill="#3a2311" fill-rule="evenodd" stroke="none"/>
    </g>
    <g id="shape2" transform="matrix(1.0, 0.0, 0.0, 1.0, 65.4, 62.7)">
      <path d="M26.1 -46.35 L23.6 -53.55 29.35 -49.55 27.2 -56.35 Q28.95 -55.5 30.4 -53.55 L33.35 -49.6 33.35 -49.55 33.0 -49.7 33.2 -49.5 33.1 -49.3 31.75 -49.8 30.85 -49.3 30.3 -49.55 Q28.15 -49.15 26.75 -47.3 L26.1 -46.35 M33.55 -50.15 L32.45 -55.5 37.5 -49.8 33.55 -50.15 M-44.4 -51.95 L-42.45 -61.15 -38.8 -53.55 Q-37.1 -58.45 -34.15 -62.7 L-33.3 -53.55 -26.95 -58.55 -29.9 -48.9 -33.1 -50.8 -33.3 -53.55 -33.45 -51.05 -34.4 -51.4 -34.45 -51.85 -34.7 -52.15 -35.05 -52.1 -35.3 -51.7 -38.5 -52.65 -38.8 -53.55 -39.15 -52.65 -42.25 -51.75 -43.0 -51.8 -44.4 -51.95 M9.3 -24.0 Q10.95 -27.9 13.65 -31.15 L15.25 -33.0 13.4 -25.95 13.4 -25.9 13.5 -25.95 15.3 -27.55 Q17.25 -29.4 19.7 -29.4 L17.2 -26.45 12.4 -20.95 12.35 -20.9 12.25 -20.8 12.5 -20.9 Q17.4 -24.05 21.8 -20.25 L21.35 -20.6 Q20.7 -21.0 20.5 -20.25 L14.9 -20.25 18.25 -15.25 16.5 -15.45 11.55 -16.8 11.45 -17.0 Q11.05 -17.5 10.75 -17.2 L8.8 -19.7 9.6 -20.55 9.2 -23.55 9.3 -24.0" fill="#f3c301" fill-rule="evenodd" stroke="none"/>
      <path d="M26.1 -46.35 L26.75 -47.3 Q28.15 -49.15 30.3 -49.55 29.8 -49.45 30.1 -48.9 32.95 -43.9 33.95 -38.3 34.45 -35.45 32.85 -33.1 30.4 -37.6 26.45 -40.8 L25.85 -41.0 26.1 -46.35 M30.85 -49.3 L31.75 -49.8 33.1 -49.3 33.6 -48.3 37.2 -43.35 Q40.45 -38.0 43.15 -32.35 45.25 -27.85 46.5 -23.05 L46.45 -23.05 Q44.55 -22.6 42.75 -23.4 36.4 -26.15 33.4 -32.15 35.5 -34.95 34.9 -38.4 33.95 -44.2 30.85 -49.3 M33.65 -49.65 L33.55 -50.15 37.5 -49.8 Q43.25 -47.95 46.6 -43.0 L53.0 -33.2 53.0 -32.75 Q53.25 -29.1 51.5 -26.05 50.1 -23.65 47.45 -23.2 46.15 -28.05 43.85 -32.75 L38.95 -42.1 Q36.7 -46.1 33.65 -49.65 M-50.85 -48.35 L-44.4 -51.95 -43.0 -51.8 -49.7 -38.05 -50.85 -48.35 M-29.9 -48.9 Q-31.35 -42.85 -29.6 -36.9 -28.25 -32.2 -23.65 -31.65 L-22.4 -30.95 -18.7 -24.05 -18.1 -21.25 Q-20.7 -20.05 -23.3 -20.55 -29.75 -21.55 -32.85 -27.4 -36.0 -33.3 -35.75 -40.0 -35.55 -45.75 -34.4 -51.4 L-33.45 -51.05 -33.1 -50.8 -29.9 -48.9 M-23.4 -32.05 Q-20.15 -37.95 -13.85 -39.65 -8.6 -41.2 -3.1 -42.0 L0.85 -39.05 Q2.65 -37.75 3.75 -35.95 7.25 -30.35 8.15 -23.8 3.0 -23.35 -2.05 -23.95 -7.8 -25.0 -13.3 -26.85 -17.95 -28.45 -22.25 -31.1 L-23.4 -32.05 M-1.65 -42.1 Q3.5 -42.55 8.7 -42.35 13.45 -42.2 17.9 -40.45 21.9 -39.0 23.3 -35.25 L24.3 -32.05 Q21.9 -29.15 18.6 -27.2 L17.2 -26.45 19.7 -29.4 Q17.25 -29.4 15.3 -27.55 L13.5 -25.95 13.4 -25.95 15.25 -33.0 13.65 -31.15 Q10.95 -27.9 9.3 -24.0 L9.15 -23.95 7.7 -29.75 Q6.85 -32.65 5.5 -35.3 3.25 -39.8 -1.65 -42.1 M-39.15 -52.65 L-38.5 -52.65 -35.3 -51.7 Q-36.7 -46.05 -36.85 -40.05 -37.0 -33.75 -34.6 -28.2 -32.05 -22.3 -26.1 -20.2 L-23.8 -19.6 Q-29.05 -14.85 -35.7 -17.75 -41.15 -20.15 -44.55 -25.4 -47.85 -30.45 -49.4 -36.35 L-42.25 -51.75 -39.15 -52.65" fill="#9cb557" fill-rule="evenodd" stroke="none"/>
      <path d="M53.0 -33.2 L53.2 -32.8 53.0 -32.75 53.0 -33.2 M55.7 -27.25 Q57.45 -21.25 55.35 -15.2 53.9 -11.15 52.1 -7.6 49.25 -2.0 43.35 0.65 37.5 3.1 31.1 3.6 L26.3 3.3 26.2 3.25 26.15 3.25 Q26.0 3.15 25.4 3.6 L25.3 3.65 25.35 3.6 24.25 4.05 24.7 4.0 24.75 4.25 20.25 6.2 20.35 -7.6 20.75 -8.1 Q23.7 -11.65 25.1 -16.05 L28.7 -9.55 29.4 -5.15 Q33.65 -5.15 37.25 -7.95 L39.8 -10.05 Q42.75 -12.55 46.35 -13.9 45.35 -10.1 42.65 -7.05 42.1 -6.4 41.35 -6.15 35.5 -3.75 29.3 -4.5 L28.95 -4.35 28.8 -4.2 28.75 -4.05 28.9 -3.65 38.4 -3.9 Q39.35 -4.05 40.05 -4.35 46.3 -7.0 47.5 -14.3 50.9 -14.3 53.3 -18.1 55.7 -21.9 55.7 -27.25 M-15.25 56.6 L-16.6 50.2 -19.15 38.55 Q-19.7 36.15 -20.75 33.9 L-21.05 33.45 -26.3 9.75 -23.25 7.95 Q-19.65 6.3 -15.7 6.1 L-15.55 4.5 -19.9 1.95 -18.75 -0.05 -18.35 -0.1 Q-17.45 -0.5 -18.3 -1.05 L-17.65 -3.55 Q-16.35 -9.05 -17.1 -14.7 L-10.95 -16.0 Q-7.7 -12.55 -4.2 -9.4 0.05 -5.65 5.7 -4.6 L5.2 -3.25 Q4.5 -1.4 3.1 0.0 L-4.75 8.25 -4.4 8.25 -4.35 8.4 0.0 4.9 Q4.6 0.95 6.7 -4.4 11.1 -3.6 15.25 -4.45 17.6 -5.05 19.35 -6.65 L19.3 6.6 16.2 7.8 14.9 8.2 9.5 9.45 -1.5 9.9 -4.2 9.35 -4.35 8.95 -4.75 8.75 -4.75 8.6 -4.95 8.8 -5.15 8.55 -5.1 8.25 -11.35 6.85 -15.15 4.7 Q-15.45 10.5 -15.35 16.2 L-14.75 28.1 -14.2 30.85 Q-13.85 31.95 -12.9 32.85 -9.75 35.95 -7.9 39.95 L-7.05 56.3 -15.25 56.6 M-27.1 5.25 L-38.25 5.85 Q-44.8 5.35 -50.5 2.55 -55.35 0.2 -58.8 -3.75 -62.6 -8.2 -64.25 -13.9 -65.9 -19.8 -65.2 -25.9 -64.5 -31.9 -61.1 -36.95 L-58.1 -41.3 Q-59.05 -36.8 -59.6 -32.35 -60.2 -27.15 -59.25 -22.1 -58.3 -17.15 -55.3 -13.15 -52.3 -9.15 -48.25 -6.35 -46.5 -4.15 -44.2 -2.3 -40.25 0.95 -35.2 1.0 L-23.35 0.65 -21.9 3.45 -27.1 5.25 M-23.65 -31.65 L-23.4 -32.05 -22.25 -31.1 -22.4 -30.95 -23.65 -31.65 M23.3 -35.25 L24.8 -36.3 27.65 -29.85 25.15 -29.3 24.3 -32.05 23.3 -35.25 M28.05 -28.9 Q30.0 -24.2 29.2 -19.2 28.6 -15.7 28.6 -12.1 L25.45 -17.2 Q26.8 -21.45 25.85 -25.85 L25.3 -28.35 28.05 -28.9 M9.15 -23.95 L9.3 -24.0 9.2 -23.55 9.15 -23.95 M12.4 -20.95 L12.5 -20.9 12.35 -20.9 12.4 -20.95 M-18.7 -24.05 L-11.75 -16.85 -17.25 -15.7 -17.9 -20.25 -17.8 -20.25 Q-17.05 -21.1 -18.1 -21.25 L-18.7 -24.05 M16.7 10.95 L21.8 9.2 20.7 18.0 Q19.7 24.65 17.3 31.0 14.8 37.5 10.75 43.25 L11.4 38.25 Q15.1 33.55 16.1 27.65 16.7 23.95 16.75 20.25 L16.7 10.95 M-7.2 40.45 Q-3.75 35.5 -0.95 30.0 0.0 28.2 2.0 27.3 5.9 25.5 8.35 29.0 9.55 30.65 9.75 32.6 L10.5 38.65 10.15 39.15 9.15 45.55 Q5.5 50.2 0.4 53.5 -2.65 55.4 -6.05 56.15 L-7.2 40.45 M-44.7 -4.1 Q-40.2 -2.0 -35.5 -3.45 -28.65 -5.45 -23.9 -0.3 L-33.8 0.1 Q-40.2 0.55 -44.7 -4.1" fill="#688b0b" fill-rule="evenodd" stroke="none"/>
      <path d="M13.1 10.05 L12.0 9.5 11.65 11.15 12.95 13.3 13.1 10.05 M10.55 9.75 L14.05 8.95 Q14.75 11.55 14.05 14.2 L13.5 15.8 11.95 16.15 10.55 9.75 M-6.75 12.35 L-6.75 10.15 -8.35 9.25 -8.35 12.3 -7.8 13.25 -6.75 12.35 M-6.7 15.35 Q-7.15 16.0 -7.85 15.85 -9.3 14.8 -9.9 12.9 -10.75 10.4 -10.5 7.8 L-5.4 9.6 Q-4.65 12.6 -6.7 15.35" fill="#2e1705" fill-rule="evenodd" stroke="none"/>
      <path d="M14.9 8.2 L16.2 7.8 16.7 10.95 16.75 20.25 Q16.7 23.95 16.1 27.65 15.1 33.55 11.4 38.25 L10.8 38.4 10.5 38.65 9.75 32.6 Q9.55 30.65 8.35 29.0 5.9 25.5 2.0 27.3 0.0 28.2 -0.95 30.0 -3.75 35.5 -7.2 40.45 L-7.9 39.95 Q-9.75 35.95 -12.9 32.85 -13.85 31.95 -14.2 30.85 L-14.75 28.1 -15.35 16.2 Q-15.45 10.5 -15.15 4.7 L-11.35 6.85 Q-12.35 11.95 -9.1 16.05 -7.85 17.6 -6.2 16.45 L-5.8 15.95 Q-3.7 12.95 -4.2 9.35 L-1.5 9.9 9.5 9.45 11.35 17.1 14.05 16.95 14.35 16.15 Q15.95 12.3 14.9 8.2 M14.85 24.6 Q15.4 24.15 15.15 23.45 13.75 19.55 9.55 19.15 1.25 17.6 -6.95 20.55 -10.35 21.7 -12.1 24.7 L-11.95 24.9 -5.1 24.25 Q4.95 22.8 14.85 24.6" fill="#e9c47e" fill-rule="evenodd" stroke="none"/>
      <path d="M13.1 10.05 L12.95 13.3 11.65 11.15 12.0 9.5 13.1 10.05 M9.7 23.0 L9.95 20.2 Q12.7 20.55 14.1 22.9 L14.25 23.6 9.7 23.0 M8.95 20.1 L8.7 22.85 6.8 22.65 6.65 19.8 8.95 20.1 M1.75 19.75 L1.9 22.65 -1.15 22.9 -1.25 20.1 1.75 19.75 M2.9 22.6 L2.75 19.7 5.65 19.7 5.8 22.6 2.9 22.6 M-6.75 12.35 L-7.8 13.25 -8.35 12.3 -8.35 9.25 -6.75 10.15 -6.75 12.35 M-2.25 20.3 L-2.15 23.0 -4.65 23.2 -4.75 20.95 -2.25 20.3 M-5.75 21.25 L-5.65 23.3 -10.25 23.8 Q-8.15 22.1 -5.75 21.25" fill="#ffffff" fill-rule="evenodd" stroke="none"/>
      <path d="M53.2 -32.8 L55.7 -27.25 Q55.7 -21.9 53.3 -18.1 50.9 -14.3 47.5 -14.3 48.35 -17.5 47.8 -21.0 L47.45 -23.2 Q50.1 -23.65 51.5 -26.05 53.25 -29.1 53.0 -32.75 L53.2 -32.8 M24.75 4.25 L25.15 4.55 Q24.75 8.2 23.95 11.9 L22.3 19.2 20.4 26.85 17.45 38.4 Q15.95 44.05 13.85 49.65 11.9 54.75 9.15 59.25 8.05 61.05 5.9 61.75 L10.75 43.25 Q14.8 37.5 17.3 31.0 19.7 24.65 20.7 18.0 L21.8 9.2 16.7 10.95 16.2 7.8 19.3 6.6 19.45 6.7 Q20.2 7.15 20.25 6.2 L24.75 4.25 M4.85 61.95 L-5.6 62.45 -6.05 56.15 Q-2.65 55.4 0.4 53.5 5.5 50.2 9.15 45.55 L4.85 61.95 M-6.6 62.4 L-7.75 62.2 Q-12.8 61.15 -15.25 56.6 L-7.05 56.3 -6.6 62.4 M-26.3 9.75 L-27.1 5.25 -21.9 3.45 -23.35 0.65 -18.75 -0.05 -19.9 1.95 -15.55 4.5 -15.7 6.1 Q-19.65 6.3 -23.25 7.95 L-26.3 9.75 M-58.1 -41.3 L-50.85 -48.35 -49.7 -38.05 Q-51.5 -34.4 -52.9 -28.85 -54.25 -23.65 -53.35 -18.2 -52.3 -11.55 -48.25 -6.35 -52.3 -9.15 -55.3 -13.15 -58.3 -17.15 -59.25 -22.1 -60.2 -27.15 -59.6 -32.35 -59.05 -36.8 -58.1 -41.3 M24.8 -36.3 Q26.1 -37.55 26.0 -39.35 L25.85 -41.0 26.45 -40.8 Q30.4 -37.6 32.85 -33.1 L32.65 -32.9 Q30.55 -30.3 27.65 -29.85 L24.8 -36.3 M33.4 -32.15 Q36.4 -26.15 42.75 -23.4 44.55 -22.6 46.45 -23.05 L46.5 -23.05 46.5 -23.0 46.45 -23.05 46.8 -20.85 Q47.4 -17.25 46.35 -13.9 42.75 -12.55 39.8 -10.05 L37.25 -7.95 Q33.65 -5.15 29.4 -5.15 L28.7 -9.55 28.6 -12.1 Q28.6 -15.7 29.2 -19.2 30.0 -24.2 28.05 -28.9 L28.9 -29.15 Q31.7 -29.95 33.4 -32.15 M24.3 -32.05 L25.15 -29.3 24.95 -29.05 Q24.65 -28.45 25.3 -28.35 L25.85 -25.85 Q26.8 -21.45 25.45 -17.2 L21.8 -20.25 Q17.4 -24.05 12.5 -20.9 L12.4 -20.95 17.2 -26.45 18.6 -27.2 Q21.9 -29.15 24.3 -32.05 M11.55 -16.8 L16.5 -15.45 16.5 -15.3 Q19.25 -11.3 19.35 -6.65 17.6 -5.05 15.25 -4.45 11.1 -3.6 6.7 -4.4 L11.55 -16.8 M18.25 -15.25 L14.9 -20.25 20.5 -20.25 25.1 -16.05 Q23.7 -11.65 20.75 -8.1 L20.35 -7.6 Q20.15 -11.25 18.1 -14.15 17.65 -14.8 18.25 -15.25 M8.15 -23.8 L8.15 -20.55 Q4.55 -19.25 0.8 -18.55 L-11.75 -16.85 -18.7 -24.05 -22.4 -30.95 -22.25 -31.1 Q-17.95 -28.45 -13.3 -26.85 -7.8 -25.0 -2.05 -23.95 3.0 -23.35 8.15 -23.8 M-17.25 -15.7 L-17.3 -15.7 -17.6 -15.45 -17.7 -15.1 -17.45 -14.75 -17.1 -14.7 Q-16.35 -9.05 -17.65 -3.55 L-18.3 -1.05 -23.9 -0.3 Q-28.65 -5.45 -35.5 -3.45 -40.2 -2.0 -44.7 -4.1 -49.45 -8.4 -51.45 -14.4 -53.35 -20.1 -52.45 -26.15 -51.65 -31.4 -49.4 -36.35 -47.85 -30.45 -44.55 -25.4 -41.15 -20.15 -35.7 -17.75 -29.05 -14.85 -23.8 -19.6 L-17.9 -20.25 -17.25 -15.7 M-10.95 -16.0 L-1.65 -17.1 Q3.8 -17.75 8.8 -19.7 L10.75 -17.2 5.7 -4.6 Q0.05 -5.65 -4.2 -9.4 -7.7 -12.55 -10.95 -16.0" fill="#4c7401" fill-rule="evenodd" stroke="none"/>
      <path d="M30.3 -49.55 L30.85 -49.3 Q33.95 -44.2 34.9 -38.4 35.5 -34.95 33.4 -32.15 31.7 -29.95 28.9 -29.15 L28.05 -28.9 25.3 -28.35 Q24.65 -28.45 24.95 -29.05 L25.15 -29.3 27.65 -29.85 Q30.55 -30.3 32.65 -32.9 L32.85 -33.1 Q34.45 -35.45 33.95 -38.3 32.95 -43.9 30.1 -48.9 29.8 -49.45 30.3 -49.55 M33.1 -49.3 L33.2 -49.5 33.35 -49.55 33.35 -49.6 33.65 -49.65 Q36.7 -46.1 38.95 -42.1 L43.85 -32.75 Q46.15 -28.05 47.45 -23.2 L47.8 -21.0 Q48.35 -17.5 47.5 -14.3 46.3 -7.0 40.05 -4.35 39.35 -4.05 38.4 -3.9 L28.9 -3.65 28.75 -4.05 28.8 -4.2 28.95 -4.35 29.3 -4.5 Q35.5 -3.75 41.35 -6.15 42.1 -6.4 42.65 -7.05 45.35 -10.1 46.35 -13.9 47.4 -17.25 46.8 -20.85 L46.45 -23.05 46.5 -23.0 46.5 -23.05 Q45.25 -27.85 43.15 -32.35 40.45 -38.0 37.2 -43.35 L33.6 -48.3 33.1 -49.3 M5.9 61.75 Q5.7 62.75 5.0 62.1 L4.85 61.95 9.15 45.55 10.15 39.15 10.5 38.65 10.8 38.4 11.4 38.25 10.75 43.25 5.9 61.75 M-5.6 62.45 Q-6.0 63.45 -6.55 62.5 L-6.6 62.4 -7.05 56.3 -7.9 39.95 -7.2 40.45 -6.05 56.15 -5.6 62.45 M-3.1 -42.0 Q-2.95 -42.65 -2.4 -42.4 L-1.65 -42.1 Q3.25 -39.8 5.5 -35.3 6.85 -32.65 7.7 -29.75 L9.15 -23.95 9.2 -23.55 9.6 -20.55 8.8 -19.7 Q3.8 -17.75 -1.65 -17.1 L-10.95 -16.0 -17.1 -14.7 -17.45 -14.75 -17.7 -15.1 -17.6 -15.45 -17.3 -15.7 -17.25 -15.7 -11.75 -16.85 0.8 -18.55 Q4.55 -19.25 8.15 -20.55 L8.15 -23.8 Q7.25 -30.35 3.75 -35.95 2.65 -37.75 0.85 -39.05 L-3.1 -42.0 M28.6 -12.1 L28.7 -9.55 25.1 -16.05 20.5 -20.25 Q20.7 -21.0 21.35 -20.6 L21.8 -20.25 25.45 -17.2 28.6 -12.1 M10.75 -17.2 Q11.05 -17.5 11.45 -17.0 L11.55 -16.8 6.7 -4.4 Q4.6 0.95 0.0 4.9 L-4.35 8.4 -4.4 8.25 -4.75 8.25 3.1 0.0 Q4.5 -1.4 5.2 -3.25 L5.7 -4.6 10.75 -17.2 M16.5 -15.45 L18.25 -15.25 Q17.65 -14.8 18.1 -14.15 20.15 -11.25 20.35 -7.6 L20.25 6.2 Q20.2 7.15 19.45 6.7 L19.3 6.6 19.35 -6.65 Q19.25 -11.3 16.5 -15.3 L16.5 -15.45 M10.55 9.75 L11.95 16.15 13.5 15.8 14.05 14.2 Q14.75 11.55 14.05 8.95 L10.55 9.75 M2.9 22.6 L5.8 22.6 5.65 19.7 2.75 19.7 2.9 22.6 M1.75 19.75 L-1.25 20.1 -1.15 22.9 1.9 22.65 1.75 19.75 M8.95 20.1 L6.65 19.8 6.8 22.65 8.7 22.85 8.95 20.1 M9.7 23.0 L14.25 23.6 14.1 22.9 Q12.7 20.55 9.95 20.2 L9.7 23.0 M14.85 24.6 Q4.95 22.8 -5.1 24.25 L-11.95 24.9 -12.1 24.7 Q-10.35 21.7 -6.95 20.55 1.25 17.6 9.55 19.15 13.75 19.55 15.15 23.45 15.4 24.15 14.85 24.6 M14.9 8.2 Q15.95 12.3 14.35 16.15 L14.05 16.95 11.35 17.1 9.5 9.45 14.9 8.2 M-4.2 9.35 Q-3.7 12.95 -5.8 15.95 L-6.2 16.45 Q-7.85 17.6 -9.1 16.05 -12.35 11.95 -11.35 6.85 L-5.1 8.25 -5.15 8.55 -4.95 8.8 -4.75 8.75 -4.35 8.95 -4.2 9.35 M-42.25 -51.75 L-49.4 -36.35 Q-51.65 -31.4 -52.45 -26.15 -53.35 -20.1 -51.45 -14.4 -49.45 -8.4 -44.7 -4.1 -40.2 0.55 -33.8 0.1 L-23.9 -0.3 -18.3 -1.05 Q-17.45 -0.5 -18.35 -0.1 L-18.75 -0.05 -23.35 0.65 -35.2 1.0 Q-40.25 0.95 -44.2 -2.3 -46.5 -4.15 -48.25 -6.35 -52.3 -11.55 -53.35 -18.2 -54.25 -23.65 -52.9 -28.85 -51.5 -34.4 -49.7 -38.05 L-43.0 -51.8 -42.25 -51.75 M-23.8 -19.6 L-26.1 -20.2 Q-32.05 -22.3 -34.6 -28.2 -37.0 -33.75 -36.85 -40.05 -36.7 -46.05 -35.3 -51.7 L-35.05 -52.1 -34.7 -52.15 -34.45 -51.85 -34.4 -51.4 Q-35.55 -45.75 -35.75 -40.0 -36.0 -33.3 -32.85 -27.4 -29.75 -21.55 -23.3 -20.55 -20.7 -20.05 -18.1 -21.25 -17.05 -21.1 -17.8 -20.25 L-17.9 -20.25 -23.8 -19.6 M-6.7 15.35 Q-4.65 12.6 -5.4 9.6 L-10.5 7.8 Q-10.75 10.4 -9.9 12.9 -9.3 14.8 -7.85 15.85 -7.15 16.0 -6.7 15.35 M-5.75 21.25 Q-8.15 22.1 -10.25 23.8 L-5.65 23.3 -5.75 21.25 M-2.25 20.3 L-4.75 20.95 -4.65 23.2 -2.15 23.0 -2.25 20.3" fill="#3a2311" fill-rule="evenodd" stroke="none"/>
    </g>
  </defs>
</svg>
