<?xml version="1.0" encoding="UTF-8" standalone="no"?>
<svg xmlns:xlink="http://www.w3.org/1999/xlink" height="150.3px" width="104.3px" xmlns="http://www.w3.org/2000/svg">
  <g transform="matrix(1.0, 0.0, 0.0, 1.0, 0.8, 4.75)">
    <use height="30.65" transform="matrix(1.0, 0.0, 0.0, 1.0, 69.55, 101.45)" width="26.1" xlink:href="#shape0"/>
    <use height="145.25" transform="matrix(1.0, 0.0, 0.0, 1.0, 11.85, 0.0)" width="89.95" xlink:href="#shape1"/>
    <use height="43.95" transform="matrix(1.0, 0.0, 0.0, 1.0, 0.0, 97.55)" width="37.45" xlink:href="#shape2"/>
  </g>
  <defs>
    <g id="shape0" transform="matrix(1.0, 0.0, 0.0, 1.0, 0.0, 0.0)">
      <path d="M20.35 23.25 L21.05 21.55 21.2 21.55 21.2 21.45 Q22.35 18.8 22.35 16.7 L22.25 15.15 Q21.6 19.35 17.6 22.3 L16.45 23.15 Q16.35 23.15 16.2 23.25 L16.0 23.35 16.1 23.25 18.85 20.4 Q19.7 18.5 19.7 16.2 19.7 14.4 17.8 12.5 L15.9 11.0 15.5 12.9 14.55 15.45 Q12.95 18.4 13.25 18.2 12.85 20.4 13.25 23.25 L13.05 23.25 12.3 18.95 Q12.2 17.55 13.9 14.9 L14.95 12.9 Q15.5 11.75 15.4 10.8 14.55 10.3 13.7 9.95 11.7 9.25 10.1 6.05 L9.35 6.05 Q6.65 6.15 4.3 7.0 L3.35 7.45 Q0.7 8.5 1.05 9.35 L0.95 9.35 0.7 9.25 Q0.85 8.3 1.35 7.65 2.6 6.9 4.5 6.5 4.95 5.0 5.9 3.45 L6.2 3.0 7.25 1.45 5.45 2.05 4.75 2.4 4.95 2.4 4.95 2.6 Q2.7 3.75 1.25 6.4 0.5 7.75 0.2 8.9 L0.1 8.9 0.1 9.55 Q0.1 10.6 0.7 11.85 1.35 12.9 2.1 13.35 L3.15 13.55 4.75 12.9 5.55 12.4 6.65 11.55 6.65 11.65 6.4 12.9 6.2 15.05 Q6.2 16.8 7.6 19.75 L7.8 20.3 8.3 21.35 9.25 22.75 Q10.65 24.0 12.95 24.4 L16.55 24.3 17.3 24.2 19.4 23.65 19.9 23.45 20.35 23.25" fill="#719210" fill-rule="evenodd" stroke="none"/>
      <path d="M22.25 15.15 L22.35 16.7 Q22.35 18.8 21.2 21.45 L21.2 21.55 21.05 21.55 20.35 23.25 Q21.9 22.5 23.1 21.25 L23.3 21.05 Q25.0 18.95 25.6 15.65 L26.05 12.9 Q26.45 7.45 23.4 3.95 19.6 -0.35 10.85 0.05 L7.25 1.45 6.2 3.0 5.9 3.45 Q4.95 5.0 4.5 6.5 6.85 5.85 10.0 5.75 L11.6 5.75 Q16.0 5.95 16.0 8.9 L16.0 9.0 16.85 9.75 19.7 10.9 Q20.85 11.65 21.5 12.9 L21.8 13.75 21.8 12.9 Q21.7 8.05 20.65 6.4 19.7 4.6 14.75 1.1 L14.95 1.0 Q19.9 4.15 21.2 5.95 22.45 7.75 22.35 12.9 L22.35 13.85 22.25 15.15" fill="#9cb557" fill-rule="evenodd" stroke="none"/>
      <path d="M22.25 15.15 L22.35 13.85 22.35 12.9 Q22.45 7.75 21.2 5.95 19.9 4.15 14.95 1.0 L14.75 1.1 Q19.7 4.6 20.65 6.4 21.7 8.05 21.8 12.9 L21.8 13.75 Q21.7 17.05 18.85 20.4 L16.1 23.25 16.0 23.35 16.2 23.25 Q16.35 23.15 16.45 23.15 L17.6 22.3 Q21.6 19.35 22.25 15.15 M16.0 9.0 L16.0 8.9 Q16.0 5.95 11.6 5.75 L10.0 5.75 Q6.85 5.85 4.5 6.5 2.6 6.9 1.35 7.65 0.85 8.3 0.7 9.25 L0.95 9.35 1.05 9.35 Q0.7 8.5 3.35 7.45 L4.3 7.0 Q6.65 6.15 9.35 6.05 L10.1 6.05 Q12.0 5.95 13.05 6.5 13.7 6.7 14.0 7.0 L14.2 7.35 Q15.25 8.5 15.4 10.3 L15.4 10.8 Q15.5 11.75 14.95 12.9 L13.9 14.9 Q12.2 17.55 12.3 18.95 L13.05 23.25 13.25 23.25 Q12.85 20.4 13.25 18.2 12.95 18.4 14.55 15.45 L15.5 12.9 15.9 11.0 16.0 9.0 M0.1 8.9 L0.2 8.9 Q0.5 7.75 1.25 6.4 2.7 3.75 4.95 2.6 L4.95 2.4 4.75 2.4 Q1.25 2.5 0.0 8.8 L0.1 8.9" fill="#402420" fill-rule="evenodd" stroke="none"/>
      <path d="M23.1 21.25 Q21.9 22.5 20.35 23.25 L19.9 23.45 22.55 28.3 22.75 28.2 Q23.5 26.1 23.5 23.8 23.5 22.4 23.1 21.25 M16.55 24.3 L12.95 24.4 12.85 26.5 Q12.85 29.7 13.7 30.65 15.7 27.15 16.55 24.3 M9.25 22.75 L8.3 21.35 7.8 20.3 Q7.25 21.05 6.65 22.4 5.55 24.85 5.55 25.8 5.55 26.75 6.1 26.75 6.4 25.8 7.6 24.4 8.5 23.25 9.25 22.75" fill="#f4bb0c" fill-rule="evenodd" stroke="none"/>
      <path d="M21.8 13.75 L21.5 12.9 Q20.85 11.65 19.7 10.9 L16.85 9.75 16.0 9.0 15.9 11.0 17.8 12.5 Q19.7 14.4 19.7 16.2 19.7 18.5 18.85 20.4 21.7 17.05 21.8 13.75 M10.1 6.05 Q11.7 9.25 13.7 9.95 14.55 10.3 15.4 10.8 L15.4 10.3 Q15.25 8.5 14.2 7.35 L14.0 7.0 Q13.7 6.7 13.05 6.5 12.0 5.95 10.1 6.05" fill="#4c7401" fill-rule="evenodd" stroke="none"/>
    </g>
    <g id="shape1" transform="matrix(1.0, 0.0, 0.0, 1.0, 0.0, 0.0)">
      <path d="M75.25 14.35 L81.3 3.6 80.7 10.45 Q80.25 14.8 79.8 16.65 81.6 15.25 84.05 14.2 86.75 13.15 89.5 12.55 L89.5 12.7 Q86.75 16.95 83.45 20.85 L83.3 21.0 80.7 23.9 79.8 24.65 78.6 24.8 Q73.0 24.8 70.55 20.7 68.75 17.85 68.3 12.25 68.0 9.95 68.0 7.4 68.0 0.9 69.35 0.0 71.65 5.45 73.9 13.75 L74.5 15.9 75.25 14.35 M77.85 76.4 Q79.35 75.65 82.05 75.2 L82.85 75.2 80.1 78.7 78.75 80.35 Q79.65 80.5 81.3 81.4 L83.75 83.1 78.0 83.7 77.4 83.7 Q79.05 86.85 79.5 89.45 L75.4 86.25 75.55 85.8 76.3 83.7 77.1 80.65 77.25 80.35 Q77.4 78.85 77.7 77.5 77.7 76.85 77.85 76.4 M5.45 69.3 L1.7 69.45 0.0 69.3 Q1.1 67.65 4.4 65.65 L5.45 65.05 Q8.2 63.85 9.4 64.3 L5.75 61.3 3.05 58.55 6.2 58.55 6.55 58.55 11.35 59.75 Q13.95 60.5 16.2 62.35 L15.6 66.1 15.75 69.0 Q11.35 74.15 6.4 75.05 L10.0 68.25 7.3 69.0 5.45 69.3 M21.95 32.35 Q17.45 30.4 15.75 26.75 L15.9 26.75 23.8 28.6 23.65 25.85 Q23.5 21.8 22.4 18.9 25.45 21.5 26.95 24.2 L28.35 27.25 Q29.7 21.5 32.25 17.4 L32.55 17.4 33.0 28.9 29.1 29.65 Q26.2 30.4 23.8 31.45 L21.95 32.35 M79.8 16.65 L79.35 16.95 79.65 17.25 79.8 16.65" fill="#f4bb0c" fill-rule="evenodd" stroke="none"/>
      <path d="M83.3 21.0 L86.6 25.25 Q88.75 28.45 89.5 33.75 90.25 38.9 89.8 43.7 L88.75 51.75 Q88.0 54.9 85.85 59.0 L85.4 57.65 86.75 53.85 86.9 50.85 Q86.9 43.9 85.55 36.9 83.75 27.85 80.55 26.0 83.45 30.1 84.95 37.8 86.15 44.2 86.15 50.85 86.15 52.2 85.4 56.15 L85.25 56.9 85.4 55.55 84.65 51.9 84.65 51.75 84.05 49.0 83.45 47.5 83.15 46.75 82.85 46.15 81.15 43.1 Q79.65 41.0 77.4 39.8 L77.4 37.5 Q77.4 32.2 76.8 26.0 L76.6 25.55 Q75.7 26.0 75.7 27.4 L76.3 37.5 76.3 39.35 Q73.15 37.95 68.6 37.95 L67.55 38.1 Q63.15 38.3 59.8 41.45 57.4 43.7 51.35 50.7 L46.65 54.9 Q44.7 56.3 40.3 58.1 L30.3 61.15 29.85 61.0 29.55 61.0 Q31.95 60.7 33.95 59.6 L38.45 57.05 Q41.05 55.85 43.3 54.15 L47.4 50.85 50.45 47.35 51.95 44.95 53.75 42.05 56.2 38.1 58.3 34.5 59.95 32.05 61.8 29.8 Q63.45 27.55 65.7 25.85 68.0 24.35 70.1 21.95 65.7 24.05 62.85 27.55 61.5 28.9 60.4 30.55 L59.5 31.9 57.85 34.35 54.5 38.75 Q53.75 39.8 53.15 41.0 L52.7 41.9 52.1 43.1 Q50.6 46.3 48.3 48.7 46.35 51.0 43.9 52.95 L39.4 55.7 Q37.1 57.05 34.7 58.1 32.55 58.85 30.6 60.05 29.7 60.35 28.95 61.15 L28.05 61.75 28.2 61.15 Q28.8 58.1 29.85 55.7 L32.1 50.55 Q32.85 48.85 33.95 47.35 34.85 45.85 35.9 44.5 36.95 43.1 38.15 41.75 36.95 42.5 35.9 43.4 L35.6 43.4 34.25 45.1 Q32.7 46.75 31.5 49.15 30.45 51.0 29.55 52.95 28.65 54.9 28.05 57.05 L27.1 61.15 26.5 61.3 Q24.4 61.75 21.95 64.3 18.65 67.65 17.6 74.15 16.2 69.45 16.2 65.8 L16.65 60.85 16.65 60.5 Q17.9 51.15 23.8 42.35 26.95 37.2 31.05 34.5 32.1 33.75 35.3 32.2 L41.65 29.05 41.5 28.9 Q36.8 29.95 33.0 32.35 27.25 35.85 23.35 42.05 19.1 48.7 16.2 60.35 L16.2 62.35 Q13.95 60.5 11.35 59.75 L6.55 58.55 6.2 58.55 Q6.55 55.85 7.3 52.95 10.6 38.45 21.95 32.35 L23.8 31.45 Q26.2 30.4 29.1 29.65 L33.0 28.9 40.15 28.15 43.3 28.15 Q44.7 24.65 46.8 21.65 49.85 16.8 54.95 14.35 59.8 12.25 64.35 12.1 L68.3 12.25 Q68.75 17.85 70.55 20.7 73.0 24.8 78.6 24.8 L79.8 24.65 80.7 23.9 83.3 21.0 M78.15 69.9 L77.85 76.4 Q77.7 76.85 77.7 77.5 77.4 78.85 77.25 80.35 L77.1 80.65 76.3 83.7 75.55 85.8 75.4 86.25 Q74.2 89.45 72.4 92.45 62.7 108.35 56.35 124.25 L55.75 125.3 55.9 125.3 Q51.05 137.25 44.55 142.1 L45.9 139.7 46.2 139.7 Q47.55 138.0 48.75 135.45 50.45 132.1 51.65 127.25 54.2 116.85 55.9 113.35 56.95 111.1 60.1 107.15 L64.5 101.55 Q65.7 99.9 67.55 94.9 L68.15 93.2 70.7 90.35 Q73.15 86.55 73.15 78.7 L73.0 74.9 Q74.35 73.7 75.7 72.65 L75.85 72.35 Q76.0 72.05 76.3 71.9 L76.6 71.4 76.8 70.95 Q77.4 70.35 78.15 69.9 M5.9 74.45 L5.6 71.75 5.45 69.3 7.3 69.0 10.0 68.25 6.4 75.05 Q11.35 74.15 15.75 69.0 16.2 72.05 17.3 75.65 16.8 78.7 16.8 82.3 16.8 84.3 17.3 86.7 14.85 85.2 11.65 81.85 8.65 78.7 6.55 75.35 L6.4 75.2 6.4 75.05 5.9 74.45 M5.45 65.05 L5.75 61.3 9.4 64.3 Q8.2 63.85 5.45 65.05 M73.9 13.75 L75.25 14.35 74.5 15.9 73.9 13.75 M68.3 18.3 Q68.0 18.0 67.1 18.0 58.15 18.0 52.7 21.95 L50.9 23.45 Q48.15 25.25 46.2 28.3 45.75 28.75 45.45 29.35 L43.9 32.5 Q40.75 37.05 40.75 38.75 L40.9 39.05 40.9 38.9 41.65 37.65 41.95 37.65 Q42.55 36.0 43.3 34.65 45.6 30.7 47.4 28.45 48.45 26.75 49.35 25.85 56.05 18.75 65.7 18.75 L68.6 19.2 69.05 18.75 68.3 18.3 M43.45 28.45 L43.15 28.6 Q42.1 29.35 41.35 33.0 L40.0 37.95 Q39.7 38.75 39.55 39.5 37.7 45.1 37.1 48.1 L37.1 49.0 37.55 49.0 Q39.85 41.9 40.45 38.9 43.6 29.5 43.6 28.75 L43.45 28.45 M33.15 109.85 Q33.5 111.7 33.5 113.8 33.5 117.3 31.95 123.95 L30.75 130.15 29.7 125.45 Q29.4 117.45 28.95 112.75 28.2 105.5 24.85 101.25 27.1 102.3 28.8 103.35 L29.4 103.8 31.35 105.8 33.15 109.85 M31.2 131.8 Q31.5 128.95 32.55 124.1 34.1 117.45 34.1 113.8 L34.1 112.0 Q37.1 120.3 39.7 121.2 L39.4 122.45 Q37.7 125.75 36.35 136.65 L36.35 138.8 Q33.8 138.0 32.85 136.5 32.1 135.15 31.2 131.8 M66.65 94.75 L66.5 95.05 Q65.1 99.25 64.05 101.1 L59.5 106.7 Q57.7 108.8 56.65 110.95 L55.45 113.05 Q53.45 117.0 51.05 126.8 49.5 132.7 47.55 136.8 45.45 138.3 43.0 138.95 L44.05 135.75 45.75 130.3 Q46.65 126.65 46.65 124.25 L46.35 119.4 Q49.85 117.15 53.15 112.15 L56.2 106.55 Q58.6 102.15 59.5 101.4 L66.65 94.75 M40.3 121.2 Q43.0 121.2 45.6 119.85 L45.6 120.3 46.05 124.4 Q46.05 127.25 43.6 135.3 L42.25 139.1 39.7 139.25 36.8 138.8 Q37.1 135.15 38.45 128.2 39.4 123.95 40.3 121.2" fill="#9cb557" fill-rule="evenodd" stroke="none"/>
      <path d="M38.6 144.85 L38.3 145.0 38.15 144.85 Q40.6 142.85 42.25 139.1 L43.6 135.3 Q46.05 127.25 46.05 124.4 L45.6 120.3 45.6 119.85 Q44.7 117.0 43.45 117.0 41.8 117.0 40.3 121.2 39.4 123.95 38.45 128.2 37.1 135.15 36.8 138.8 L36.65 140.6 Q36.65 142.4 36.95 142.55 L36.95 144.4 36.65 144.4 Q36.2 142.4 36.2 140.6 L36.35 138.8 36.35 136.65 Q37.7 125.75 39.4 122.45 L39.7 121.2 Q40.3 118.95 40.9 117.9 42.1 115.3 44.55 116.7 45.75 117.0 46.35 119.4 L46.65 124.25 Q46.65 126.65 45.75 130.3 L44.05 135.75 43.0 138.95 42.25 140.9 Q40.9 143.9 38.6 144.85 M85.25 56.9 L85.4 56.15 Q86.15 52.2 86.15 50.85 86.15 44.2 84.95 37.8 83.45 30.1 80.55 26.0 83.75 27.85 85.55 36.9 86.9 43.9 86.9 50.85 L86.75 53.85 85.4 57.65 Q85.25 57.8 85.25 57.05 L85.25 56.9 M68.3 18.3 L69.05 18.75 68.6 19.2 65.7 18.75 Q56.05 18.75 49.35 25.85 48.45 26.75 47.4 28.45 45.6 30.7 43.3 34.65 42.55 36.0 41.95 37.65 L41.65 37.65 40.9 38.9 40.9 39.05 40.75 38.75 Q40.75 37.05 43.9 32.5 L45.45 29.35 Q45.75 28.75 46.2 28.3 48.15 25.25 50.9 23.45 L52.7 21.95 Q58.15 18.0 67.1 18.0 68.0 18.0 68.3 18.3 M35.9 43.4 Q36.95 42.5 38.15 41.75 36.95 43.1 35.9 44.5 34.85 45.85 33.95 47.35 32.85 48.85 32.1 50.55 L29.85 55.7 Q28.8 58.1 28.2 61.15 L28.05 61.75 28.95 61.15 Q29.7 60.35 30.6 60.05 32.55 58.85 34.7 58.1 37.1 57.05 39.4 55.7 L43.9 52.95 Q46.35 51.0 48.3 48.7 50.6 46.3 52.1 43.1 L52.7 41.9 53.15 41.0 Q53.75 39.8 54.5 38.75 L57.85 34.35 59.5 31.9 60.4 30.55 Q61.5 28.9 62.85 27.55 65.7 24.05 70.1 21.95 68.0 24.35 65.7 25.85 63.45 27.55 61.8 29.8 L59.95 32.05 58.3 34.5 56.2 38.1 53.75 42.05 51.95 44.95 50.45 47.35 47.4 50.85 43.3 54.15 Q41.05 55.85 38.45 57.05 L33.95 59.6 Q31.95 60.7 29.55 61.0 28.95 62.05 28.5 63.25 L27.7 65.95 Q27.85 67.65 28.35 69.3 L29.55 72.05 Q30.45 73.4 31.65 74.45 33.8 75.95 36.2 77.0 38.0 77.95 40.0 78.7 L44.85 79.75 50.3 79.9 55.6 79.9 60.4 79.3 64.65 77.65 69.35 75.65 Q71.15 74.6 72.55 73.25 74.35 71.4 76.45 70.35 76.95 70.05 76.8 70.95 L76.6 71.4 76.3 71.9 Q76.0 72.05 75.85 72.35 L75.7 72.65 Q74.35 73.7 73.0 74.9 L68.9 77.15 64.95 79.0 Q65.1 81.85 64.35 84.9 63.45 88.05 60.4 88.35 57.25 88.7 56.35 86.55 55.45 84.45 55.6 81.25 L43.75 80.65 Q44.7 89.15 38.15 89.15 33.3 89.15 33.3 82.15 33.3 79.9 34.1 77.95 L33.4 77.55 33.3 77.5 30.6 75.2 28.5 72.8 Q27.7 71.25 27.4 69.6 26.95 66.9 26.8 64.0 L27.1 61.15 28.05 57.05 Q28.65 54.9 29.55 52.95 30.45 51.0 31.5 49.15 32.7 46.75 34.25 45.1 L35.9 43.4 M76.3 39.35 L76.3 37.5 75.7 27.4 Q75.7 26.0 76.6 25.55 L76.8 26.0 Q77.4 32.2 77.4 37.5 L77.4 39.8 Q77.25 45.1 76.3 49.8 L76.15 50.1 75.4 53.4 Q74.05 58.1 71.8 62.35 62.85 79.0 41.8 78.7 57.7 74.75 63.75 70.65 68.6 67.5 72.1 60.2 73.9 56.45 74.95 51.75 75.1 50.55 75.4 49.5 L75.4 49.15 Q76.15 44.5 76.3 39.35 M16.2 62.35 L16.2 60.35 Q19.1 48.7 23.35 42.05 27.25 35.85 33.0 32.35 36.8 29.95 41.5 28.9 L41.65 29.05 35.3 32.2 Q32.1 33.75 31.05 34.5 26.95 37.2 23.8 42.35 17.9 51.15 16.65 60.5 L16.65 60.85 16.2 65.8 Q16.2 69.45 17.6 74.15 18.8 78.85 21.35 84.45 23.2 88.55 25.0 91.85 L28.05 97.0 29.4 98.95 29.4 99.1 Q31.5 103.05 32.4 105.15 33.8 108.5 34.1 112.0 L34.1 113.8 Q34.1 117.45 32.55 124.1 31.5 128.95 31.2 131.8 L31.05 133.95 Q31.05 136.5 32.4 139.4 33.8 142.55 35.9 143.9 L35.9 144.2 Q35.75 144.4 35.45 144.4 33.5 144.4 31.8 139.7 30.45 135.9 30.45 133.95 30.45 132.4 30.75 130.15 L31.95 123.95 Q33.5 117.3 33.5 113.8 33.5 111.7 33.15 109.85 32.7 107.45 31.8 105.35 L28.35 98.2 Q26.65 95.8 25.15 93.05 22.75 88.85 20.6 84.15 18.5 79.6 17.3 75.65 16.2 72.05 15.75 69.0 L15.6 66.1 16.2 62.35 M43.45 28.45 L43.6 28.75 Q43.6 29.5 40.45 38.9 39.85 41.9 37.55 49.0 L37.1 49.0 37.1 48.1 Q37.7 45.1 39.55 39.5 39.7 38.75 40.0 37.95 L41.35 33.0 Q42.1 29.35 43.15 28.6 L43.45 28.45 M58.15 85.5 L58.6 85.2 Q59.2 84.6 59.2 84.15 59.2 81.85 58.0 81.85 56.8 81.85 56.8 83.7 56.8 84.9 57.55 85.35 L58.15 85.5 M38.0 84.15 Q38.0 81.85 36.8 81.85 35.6 81.85 35.6 83.7 35.6 84.9 36.35 85.35 L36.95 85.5 Q37.1 85.35 37.4 85.2 L38.0 84.15 M44.85 93.8 L46.35 92.75 Q46.35 92.45 48.9 92.15 52.1 92.15 54.05 101.85 L53.6 102.75 Q51.35 92.9 48.6 92.9 45.3 92.9 43.3 97.9 42.1 101.1 42.1 103.2 L41.95 103.35 Q41.5 103.05 41.5 102.3 L42.1 99.25 Q42.7 96.85 43.0 96.4 43.6 95.05 44.85 93.8 M66.65 94.75 Q68.15 89.9 68.75 88.55 L68.9 88.55 68.9 88.35 71.15 76.1 71.65 76.1 71.65 77.15 71.95 76.55 72.1 77.5 Q72.1 79.0 70.4 84.75 69.8 88.2 69.05 90.2 L68.15 93.2 67.55 94.9 Q65.7 99.9 64.5 101.55 L60.1 107.15 Q56.95 111.1 55.9 113.35 54.2 116.85 51.65 127.25 50.45 132.1 48.75 135.45 47.55 138.0 46.2 139.7 L45.9 139.7 45.75 139.7 46.65 138.3 47.55 136.8 Q49.5 132.7 51.05 126.8 53.45 117.0 55.45 113.05 L56.65 110.95 Q57.7 108.8 59.5 106.7 L64.05 101.1 Q65.1 99.25 66.5 95.05 L66.65 94.75" fill="#402420" fill-rule="evenodd" stroke="none"/>
      <path d="M77.4 39.8 Q79.65 41.0 81.15 43.1 L82.85 46.15 83.15 46.75 83.45 47.5 84.05 49.0 84.65 51.75 84.65 51.9 83.75 54.6 Q82.7 56.6 81.3 56.6 80.55 56.6 79.65 54.6 L78.9 52.5 Q77.7 51.0 76.15 50.1 L76.3 49.8 Q77.25 45.1 77.4 39.8 M29.55 61.0 L29.85 61.0 30.3 61.15 40.3 58.1 Q44.7 56.3 46.65 54.9 L51.35 50.7 Q57.4 43.7 59.8 41.45 63.15 38.3 67.55 38.1 L68.6 37.95 Q73.15 37.95 76.3 39.35 76.15 44.5 75.4 49.15 L75.4 49.5 Q74.55 48.9 73.7 48.45 L73.75 48.4 Q73.75 48.25 73.6 48.4 L73.0 48.25 67.7 48.7 Q65.55 49.3 60.9 51.9 L52.55 55.7 45.0 60.05 Q38.3 62.5 34.85 62.5 32.7 62.35 30.3 63.7 28.65 64.6 27.7 65.95 L28.5 63.25 Q28.95 62.05 29.55 61.0 M17.6 74.15 Q18.65 67.65 21.95 64.3 24.4 61.75 26.5 61.3 L27.1 61.15 26.8 64.0 Q25.45 64.9 24.4 66.3 22.4 68.7 22.4 71.25 L24.1 84.45 25.0 91.85 Q23.2 88.55 21.35 84.45 18.8 78.85 17.6 74.15 M68.9 77.15 L73.0 74.9 73.15 78.7 Q73.15 86.55 70.7 90.35 L68.15 93.2 69.05 90.2 Q69.8 88.2 70.4 84.75 72.1 79.0 72.1 77.5 L71.95 76.55 71.65 77.15 71.65 76.1 71.15 76.1 68.9 88.35 68.9 88.55 68.75 88.55 Q68.15 89.9 66.65 94.75 L59.5 101.4 Q58.6 102.15 56.2 106.55 57.1 101.7 61.05 95.65 66.5 87.15 68.9 77.15 M17.3 75.65 Q18.5 79.6 20.6 84.15 22.75 88.85 25.15 93.05 26.05 98.8 27.1 101.25 L23.95 98.5 Q22.1 97.15 19.7 95.8 11.05 90.5 6.55 75.35 8.65 78.7 11.65 81.85 14.85 85.2 17.3 86.7 16.8 84.3 16.8 82.3 16.8 78.7 17.3 75.65" fill="#4c7401" fill-rule="evenodd" stroke="none"/>
      <path d="M85.85 59.0 L85.4 59.9 81.6 65.35 81.3 65.8 81.3 65.95 81.15 65.95 80.4 67.05 78.3 69.75 78.15 69.6 78.15 69.9 Q77.4 70.35 76.8 70.95 76.95 70.05 76.45 70.35 74.35 71.4 72.55 73.25 71.15 74.6 69.35 75.65 L64.65 77.65 60.4 79.3 55.6 79.9 50.3 79.9 44.85 79.75 40.0 78.7 Q38.0 77.95 36.2 77.0 33.8 75.95 31.65 74.45 30.45 73.4 29.55 72.05 L28.35 69.3 Q27.85 67.65 27.7 65.95 28.65 64.6 30.3 63.7 32.7 62.35 34.85 62.5 38.3 62.5 45.0 60.05 L52.55 55.7 60.9 51.9 Q65.55 49.3 67.7 48.7 L73.0 48.25 73.6 48.4 73.7 48.45 Q74.55 48.9 75.4 49.5 75.1 50.55 74.95 51.75 73.9 56.45 72.1 60.2 68.6 67.5 63.75 70.65 57.7 74.75 41.8 78.7 62.85 79.0 71.8 62.35 74.05 58.1 75.4 53.4 L76.15 50.1 Q77.7 51.0 78.9 52.5 L79.65 54.6 Q80.55 56.6 81.3 56.6 82.7 56.6 83.75 54.6 L84.65 51.9 85.4 55.55 85.25 56.9 85.25 57.05 Q85.25 57.8 85.4 57.65 L85.85 59.0 M44.55 142.1 Q42.1 143.75 39.55 144.7 L38.6 144.85 Q40.9 143.9 42.25 140.9 L43.0 138.95 Q45.45 138.3 47.55 136.8 L46.65 138.3 45.75 139.7 45.9 139.7 44.55 142.1 M38.15 144.85 L38.15 145.0 Q26.5 147.4 25.75 128.65 24.7 108.65 13.2 92.75 7.3 84.6 5.9 74.45 L6.4 75.05 6.4 75.2 6.55 75.35 Q11.05 90.5 19.7 95.8 22.1 97.15 23.95 98.5 L27.1 101.25 Q26.05 98.8 25.15 93.05 26.65 95.8 28.35 98.2 L31.8 105.35 Q32.7 107.45 33.15 109.85 L31.35 105.8 29.4 103.8 28.8 103.35 Q27.1 102.3 24.85 101.25 28.2 105.5 28.95 112.75 29.4 117.45 29.7 125.45 L30.75 130.15 Q30.45 132.4 30.45 133.95 30.45 135.9 31.8 139.7 33.5 144.4 35.45 144.4 35.75 144.4 35.9 144.2 L35.9 143.9 Q33.8 142.55 32.4 139.4 31.05 136.5 31.05 133.95 L31.2 131.8 Q32.1 135.15 32.85 136.5 33.8 138.0 36.35 138.8 L36.2 140.6 Q36.2 142.4 36.65 144.4 L36.95 144.4 36.95 142.55 Q36.65 142.4 36.65 140.6 L36.8 138.8 39.7 139.25 42.25 139.1 Q40.6 142.85 38.15 144.85 M26.8 64.0 Q26.95 66.9 27.4 69.6 27.7 71.25 28.5 72.8 L30.6 75.2 33.3 77.5 33.4 77.55 34.1 77.95 Q33.3 79.9 33.3 82.15 33.3 89.15 38.15 89.15 44.7 89.15 43.75 80.65 L55.6 81.25 Q55.45 84.45 56.35 86.55 57.25 88.7 60.4 88.35 63.45 88.05 64.35 84.9 65.1 81.85 64.95 79.0 L68.9 77.15 Q66.5 87.15 61.05 95.65 57.1 101.7 56.2 106.55 L53.15 112.15 Q49.85 117.15 46.35 119.4 45.75 117.0 44.55 116.7 42.1 115.3 40.9 117.9 40.3 118.95 39.7 121.2 37.1 120.3 34.1 112.0 33.8 108.5 32.4 105.15 31.5 103.05 29.4 99.1 L29.4 98.95 28.05 97.0 25.0 91.85 24.1 84.45 22.4 71.25 Q22.4 68.7 24.4 66.3 25.45 64.9 26.8 64.0 M44.85 93.8 Q43.6 95.05 43.0 96.4 42.7 96.85 42.1 99.25 L41.5 102.3 Q41.5 103.05 41.95 103.35 L42.1 103.2 Q42.1 101.1 43.3 97.9 45.3 92.9 48.6 92.9 51.35 92.9 53.6 102.75 L54.05 101.85 Q52.1 92.15 48.9 92.15 46.35 92.45 46.35 92.75 L44.85 93.8 M40.3 121.2 Q41.8 117.0 43.45 117.0 44.7 117.0 45.6 119.85 43.0 121.2 40.3 121.2" fill="#719210" fill-rule="evenodd" stroke="none"/>
      <path d="M38.0 84.15 L37.4 85.2 Q37.1 85.35 36.95 85.5 L36.35 85.35 Q35.6 84.9 35.6 83.7 35.6 81.85 36.8 81.85 38.0 81.85 38.0 84.15 M58.15 85.5 L57.55 85.35 Q56.8 84.9 56.8 83.7 56.8 81.85 58.0 81.85 59.2 81.85 59.2 84.15 59.2 84.6 58.6 85.2 L58.15 85.5" fill="#ffffff" fill-rule="evenodd" stroke="none"/>
    </g>
    <g id="shape2" transform="matrix(1.0, 0.0, 0.0, 1.0, 0.0, 0.0)">
      <path d="M22.9 8.7 L24.0 8.7 Q27.9 8.85 31.25 10.05 L32.6 10.65 Q36.4 12.15 35.95 13.4 L36.1 13.4 36.4 13.2 Q36.25 11.85 35.5 10.95 33.65 9.9 30.95 9.3 30.35 7.15 28.95 4.9 L28.5 4.3 27.0 2.0 29.6 2.95 30.65 3.4 30.35 3.4 30.35 3.7 Q33.5 5.35 35.65 9.15 36.7 11.1 37.15 12.75 L37.3 12.75 37.3 13.7 Q37.3 15.2 36.4 17.0 35.5 18.5 34.45 19.15 L32.9 19.45 Q32.15 19.45 30.65 18.5 L29.45 17.75 27.9 16.55 27.9 16.7 28.2 18.5 28.45 20.65 28.5 21.55 Q28.5 24.1 26.55 28.35 L26.25 29.1 25.5 30.65 24.15 32.6 Q22.15 34.4 18.85 35.0 L13.7 34.85 12.6 34.7 9.6 33.95 8.85 33.65 8.25 33.35 7.15 30.95 7.0 30.95 7.0 30.8 Q5.35 27.0 5.35 23.95 5.35 22.75 5.5 21.7 6.4 27.75 12.15 32.0 L13.85 33.2 14.15 33.35 14.45 33.5 14.3 33.35 10.35 29.25 Q9.15 26.55 9.15 23.2 9.15 21.95 9.8 20.65 10.45 19.3 11.85 17.9 L14.6 15.8 Q14.75 17.15 15.2 18.5 L15.9 20.65 16.55 22.15 Q18.85 26.4 18.4 26.1 19.0 29.25 18.4 33.35 L18.7 33.35 19.75 27.15 Q19.9 25.2 17.45 21.4 L16.95 20.65 15.95 18.5 Q15.2 16.85 15.35 15.5 16.55 14.75 17.75 14.3 20.65 13.2 22.9 8.7" fill="#719210" fill-rule="evenodd" stroke="none"/>
      <path d="M5.5 21.7 Q5.35 22.75 5.35 23.95 5.35 27.0 7.0 30.8 L7.0 30.95 7.15 30.95 8.25 33.35 Q5.95 32.3 4.3 30.5 L4.0 30.2 Q1.55 27.15 0.65 22.45 L0.3 20.65 0.05 18.5 Q-0.55 10.65 3.85 5.65 9.3 -0.55 21.85 0.05 L27.0 2.0 28.5 4.3 28.95 4.9 Q30.35 7.15 30.95 9.3 27.6 8.4 23.05 8.25 L20.8 8.25 Q14.45 8.55 14.45 12.75 L14.45 12.9 13.25 14.0 9.15 15.65 Q7.5 16.7 6.55 18.5 6.25 19.15 6.1 19.75 5.95 19.15 6.1 18.5 6.25 11.55 7.8 9.15 9.15 6.55 16.25 1.55 L15.95 1.4 Q8.85 5.95 7.0 8.55 5.2 11.1 5.35 18.5 L5.35 19.9 5.4 20.65 5.5 21.7" fill="#9cb557" fill-rule="evenodd" stroke="none"/>
      <path d="M30.95 9.3 Q33.65 9.9 35.5 10.95 36.25 11.85 36.4 13.2 L36.1 13.4 35.95 13.4 Q36.4 12.15 32.6 10.65 L31.25 10.05 Q27.9 8.85 24.0 8.7 L22.9 8.7 Q20.2 8.55 18.7 9.3 17.75 9.6 17.3 10.05 L17.0 10.5 Q15.5 12.15 15.35 14.75 L15.35 15.5 Q15.2 16.85 15.95 18.5 L16.95 20.65 17.45 21.4 Q19.9 25.2 19.75 27.15 L18.7 33.35 18.4 33.35 Q19.0 29.25 18.4 26.1 18.85 26.4 16.55 22.15 L15.9 20.65 15.2 18.5 Q14.75 17.15 14.6 15.8 14.3 14.45 14.45 12.9 L14.45 12.75 Q14.45 8.55 20.8 8.25 L23.05 8.25 Q27.6 8.4 30.95 9.3 M10.35 29.25 L14.3 33.35 14.45 33.5 14.15 33.35 13.85 33.2 12.15 32.0 Q6.4 27.75 5.5 21.7 L5.4 20.65 5.35 19.9 5.35 18.5 Q5.2 11.1 7.0 8.55 8.85 5.95 15.95 1.4 L16.25 1.55 Q9.15 6.55 7.8 9.15 6.25 11.55 6.1 18.5 5.95 19.15 6.1 19.75 L6.2 20.65 Q6.65 24.85 10.35 29.25" fill="#402420" fill-rule="evenodd" stroke="none"/>
      <path d="M8.25 33.35 L8.85 33.65 5.05 40.6 4.75 40.45 Q3.7 37.45 3.7 34.1 3.7 32.15 4.3 30.5 5.95 32.3 8.25 33.35 M13.7 34.85 L18.85 35.0 19.0 38.05 Q19.0 42.6 17.75 43.95 14.9 38.95 13.7 34.85 M24.15 32.6 L25.5 30.65 26.25 29.1 27.9 32.15 Q29.45 35.65 29.45 37.0 29.45 38.35 28.65 38.35 28.2 37.0 26.55 35.0 L24.15 32.6" fill="#f4bb0c" fill-rule="evenodd" stroke="none"/>
      <path d="M22.9 8.7 Q20.65 13.2 17.75 14.3 16.55 14.75 15.35 15.5 L15.35 14.75 Q15.5 12.15 17.0 10.5 L17.3 10.05 Q17.75 9.6 18.7 9.3 20.2 8.55 22.9 8.7 M14.6 15.8 L11.85 17.9 Q10.45 19.3 9.8 20.65 9.15 21.95 9.15 23.2 9.15 26.55 10.35 29.25 6.65 24.85 6.2 20.65 L6.1 19.75 Q6.25 19.15 6.55 18.5 7.5 16.7 9.15 15.65 L13.25 14.0 14.45 12.9 Q14.3 14.45 14.6 15.8 M37.3 12.75 L37.15 12.75 Q36.7 11.1 35.65 9.15 33.5 5.35 30.35 3.7 L30.35 3.4 30.65 3.4 Q35.65 3.55 37.45 12.6 L37.3 12.75" fill="#4c7401" fill-rule="evenodd" stroke="none"/>
    </g>
  </defs>
</svg>
