<?xml version="1.0" encoding="UTF-8" standalone="no"?>
<svg xmlns:xlink="http://www.w3.org/1999/xlink" height="175.0px" width="185.85px" xmlns="http://www.w3.org/2000/svg">
  <g transform="matrix(1.0, 0.0, 0.0, 1.0, 92.9, 87.7)">
    <use height="14.5" transform="matrix(0.4972, 0.0, 0.0, 0.4972, 13.6931, 5.445)" width="31.2" xlink:href="#shape0"/>
    <use height="37.15" transform="matrix(0.4972, 0.0, 0.0, 0.4972, 13.7152, -6.974)" width="29.05" xlink:href="#shape1"/>
    <use height="16.2" transform="matrix(0.4972, 0.0, 0.0, 0.4972, 9.8632, 6.7224)" width="45.8" xlink:href="#shape2"/>
    <use height="14.5" transform="matrix(0.5965, 0.0, 0.0, 0.5965, -85.4061, 10.7251)" width="31.2" xlink:href="#shape0"/>
    <use height="37.15" transform="matrix(0.5965, 0.0, 0.0, 0.5965, -85.4297, -4.1562)" width="29.05" xlink:href="#shape1"/>
    <use height="16.2" transform="matrix(0.5965, 0.0, 0.0, 0.5965, -90.0608, 12.318)" width="45.8" xlink:href="#shape2"/>
    <use height="88.15" transform="matrix(1.0, 0.0, 0.0, 1.0, -48.5, -45.6)" width="77.1" xlink:href="#shape3"/>
    <use height="45.25" transform="matrix(0.9631, 0.0891, -0.0891, 0.9631, -16.5739, -87.3044)" width="27.8" xlink:href="#shape4"/>
    <use height="45.25" transform="matrix(0.8714, -0.3049, 0.3049, 0.8714, -61.2535, -54.9044)" width="27.8" xlink:href="#shape4"/>
    <use height="45.25" transform="matrix(0.9406, -0.0163, 0.0163, 0.9406, -44.3916, -73.2316)" width="27.8" xlink:href="#shape4"/>
    <use height="45.25" transform="matrix(0.9412, 0.1078, -0.1078, 0.9412, 7.2535, -77.9707)" width="27.8" xlink:href="#shape4"/>
    <use height="45.25" transform="matrix(1.0, 0.0, 0.0, 1.0, -28.0, -73.0)" width="27.8" xlink:href="#shape4"/>
    <use height="45.25" transform="matrix(0.9447, 0.0751, -0.0751, 0.9447, -2.7335, -72.595)" width="27.8" xlink:href="#shape4"/>
    <use height="13.05" transform="matrix(1.0, 0.0, 0.0, 1.0, 17.95, 26.1)" width="34.95" xlink:href="#shape5"/>
    <use height="77.8" transform="matrix(1.0, 0.0, 0.0, 1.0, 15.85, -40.8)" width="35.65" xlink:href="#shape6"/>
    <use height="13.85" transform="matrix(1.0, 0.0, 0.0, 1.0, 13.5, 29.0)" width="43.8" xlink:href="#shape7"/>
    <use height="16.0" transform="matrix(1.0, 0.0, 0.0, 1.0, -72.05, 36.5)" width="41.95" xlink:href="#shape8"/>
    <use height="86.4" transform="matrix(1.0, 0.0, 0.0, 1.0, -69.65, -37.05)" width="41.55" xlink:href="#shape9"/>
    <use height="18.4" transform="matrix(1.0, 0.0, 0.0, 1.0, -76.9, 39.0)" width="52.45" xlink:href="#shape10"/>
    <use height="26.1" transform="matrix(1.0, 0.0, 0.0, 1.0, -32.95, -41.15)" width="56.5" xlink:href="#shape11"/>
    <use height="14.5" transform="matrix(1.0, 0.0, 0.0, 1.0, 1.5, 68.5)" width="31.2" xlink:href="#shape0"/>
    <use height="37.15" transform="matrix(1.0, 0.0, 0.0, 1.0, 1.5, 43.55)" width="29.05" xlink:href="#shape1"/>
    <use height="16.2" transform="matrix(1.0, 0.0, 0.0, 1.0, -6.25, 71.1)" width="45.8" xlink:href="#shape2"/>
    <use height="14.5" transform="matrix(0.8422, 0.0, 0.0, 0.8422, 60.8618, 35.2441)" width="31.2" xlink:href="#shape0"/>
    <use height="37.15" transform="matrix(0.8422, 0.0, 0.0, 0.8422, 60.8961, 14.2615)" width="29.05" xlink:href="#shape1"/>
    <use height="16.2" transform="matrix(0.8422, 0.0, 0.0, 0.8422, 54.3638, 37.4282)" width="45.8" xlink:href="#shape2"/>
    <use height="14.5" transform="matrix(0.9696, 0.0, 0.0, 0.9696, -85.3751, 55.2207)" width="31.2" xlink:href="#shape0"/>
    <use height="37.15" transform="matrix(0.9696, 0.0, 0.0, 0.9696, -85.4071, 31.0116)" width="29.05" xlink:href="#shape1"/>
    <use height="16.2" transform="matrix(0.9696, 0.0, 0.0, 0.9696, -92.9029, 57.7466)" width="45.8" xlink:href="#shape2"/>
  </g>
  <defs>
    <g id="shape0" transform="matrix(1.0, 0.0, 0.0, 1.0, 15.6, 7.25)">
      <path d="M-15.55 -0.55 Q-14.85 -1.25 -14.0 -1.25 L-12.4 -0.9 -10.85 -0.55 -6.35 -3.4 Q-5.15 -3.4 -4.8 -2.85 L-4.55 -1.9 -0.8 -1.9 1.75 -3.55 Q2.95 -4.4 4.25 -4.4 7.45 -4.4 11.2 -2.3 13.95 -0.75 15.55 0.1 L15.6 0.95 Q15.6 3.0 12.45 5.05 9.1 7.25 5.35 7.25 L3.85 6.95 2.35 6.65 0.5 6.95 -1.4 7.25 Q-5.1 7.25 -9.6 5.75 -15.6 3.7 -15.6 0.5 L-15.55 -0.55" fill="#865f46" fill-rule="evenodd" stroke="none"/>
      <path d="M15.55 0.1 Q13.95 -0.75 11.2 -2.3 7.45 -4.4 4.25 -4.4 2.95 -4.4 1.75 -3.55 L-0.8 -1.9 -4.55 -1.9 -4.8 -2.85 Q-5.15 -3.4 -6.35 -3.4 L-10.85 -0.55 -12.4 -0.9 -14.0 -1.25 Q-14.85 -1.25 -15.55 -0.55 L-15.3 -2.45 Q-14.8 -4.7 -13.7 -4.7 L-13.05 -4.55 -12.9 -4.5 Q-12.65 -4.4 -12.15 -4.1 -11.8 -5.35 -10.95 -5.3 L-9.95 -5.05 -10.0 -6.25 -8.95 -5.95 -7.85 -5.65 -6.0 -6.55 Q-5.75 -6.55 -4.25 -5.65 L-3.35 -6.55 -2.0 -6.25 -2.0 -4.4 -1.7 -4.4 -0.25 -6.15 1.45 -7.25 3.0 -6.6 Q4.25 -5.95 4.7 -5.95 L6.2 -6.25 7.7 -6.55 8.45 -6.35 9.3 -5.65 9.45 -6.05 Q9.5 -6.25 9.95 -6.25 12.3 -6.25 14.05 -3.8 15.35 -1.95 15.55 0.1" fill="#b49255" fill-rule="evenodd" stroke="none"/>
    </g>
    <g id="shape1" transform="matrix(1.0, 0.0, 0.0, 1.0, 14.55, 18.45)">
      <path d="M5.8 -9.2 L8.55 -9.2 Q12.65 -9.15 13.6 -2.45 14.5 4.25 14.5 8.7 L14.35 13.75 12.35 15.45 12.05 9.75 11.7 1.8 Q10.85 -5.3 5.7 -7.55 L5.8 -9.2 M-9.4 16.45 Q-11.55 15.65 -12.95 14.65 -14.55 9.2 -14.55 2.0 -14.55 -3.95 -13.55 -6.4 -12.2 -9.8 -8.35 -9.55 L-7.9 -9.55 -7.65 -8.25 -6.9 -6.45 Q-8.4 -5.3 -9.35 -3.0 -10.3 -0.5 -10.55 1.5 L-10.75 6.1 Q-10.75 10.8 -9.3 16.2 L-9.4 16.45" fill="#9cb557" fill-rule="evenodd" stroke="none"/>
      <path d="M-7.9 -9.55 L-8.35 -12.0 Q-8.35 -13.9 -6.6 -18.2 L-6.6 -18.45 Q-6.55 -16.15 -4.15 -11.65 L-2.6 -8.75 -2.0 -10.6 0.3 -16.8 1.65 -12.45 4.5 -17.85 Q4.85 -17.85 4.85 -18.2 5.6 -16.6 5.75 -14.6 L5.8 -10.6 5.8 -9.2 5.7 -7.55 5.1 -6.75 Q4.55 -6.25 2.85 -6.4 L2.75 -6.3 Q2.7 -5.35 2.8 -4.55 L1.25 -2.55 Q0.35 -1.65 -1.2 -1.0 L-1.25 -1.0 -2.4 -2.15 Q-3.75 -3.7 -3.85 -4.6 L-4.6 -4.45 Q-5.5 -4.45 -5.9 -5.15 L-6.9 -6.45 -7.65 -8.25 -7.9 -9.55" fill="#f7c202" fill-rule="evenodd" stroke="none"/>
      <path d="M8.45 17.3 Q5.25 18.4 2.05 18.4 L-1.75 18.2 -6.95 17.25 Q-8.35 12.45 -8.35 8.8 -8.35 3.25 -6.85 -1.7 L-5.9 -5.15 Q-5.5 -4.45 -4.6 -4.45 L-3.85 -4.6 Q-3.75 -3.7 -2.4 -2.15 L-1.25 -1.0 -1.25 -0.95 -1.2 -1.0 Q0.35 -1.65 1.25 -2.55 L2.8 -4.55 Q6.0 -4.05 7.5 1.4 8.6 5.35 8.6 12.85 L8.45 16.75 8.45 17.3 M-1.25 -0.95 Q-2.1 2.45 -2.1 8.75 L-1.8 17.55 -1.75 18.2 -1.8 17.55 -2.1 8.75 Q-2.1 2.45 -1.25 -0.95" fill="#6c8d0b" fill-rule="evenodd" stroke="none"/>
      <path d="M12.35 15.45 L11.6 15.85 8.45 17.3 8.45 16.75 8.6 12.85 Q8.6 5.35 7.5 1.4 6.0 -4.05 2.8 -4.55 2.7 -5.35 2.75 -6.3 L2.85 -6.4 Q4.55 -6.25 5.1 -6.75 L5.7 -7.55 Q10.85 -5.3 11.7 1.8 L12.05 9.75 12.35 15.45 M-6.95 17.25 L-8.85 16.65 -9.2 16.55 -9.3 16.2 Q-10.75 10.8 -10.75 6.1 L-10.55 1.5 Q-10.3 -0.5 -9.35 -3.0 -8.4 -5.3 -6.9 -6.45 L-5.9 -5.15 -6.85 -1.7 Q-8.35 3.25 -8.35 8.8 -8.35 12.45 -6.95 17.25" fill="#4c7401" fill-rule="evenodd" stroke="none"/>
      <path d="M-9.2 16.55 L-9.4 16.45 M-1.25 -1.0 L-1.2 -1.0 -1.25 -0.95 -1.25 -1.0 M-6.9 -6.45 Q-8.4 -5.3 -9.35 -3.0 -10.3 -0.5 -10.55 1.5 L-10.75 6.1 Q-10.75 10.8 -9.3 16.2 L-9.2 16.55 M-1.75 18.2 L-1.8 17.55 -2.1 8.75 Q-2.1 2.45 -1.25 -0.95 M2.8 -4.55 Q6.0 -4.05 7.5 1.4 8.6 5.35 8.6 12.85 L8.45 16.75 8.45 17.3" fill="none" stroke="#330000" stroke-linecap="round" stroke-linejoin="round" stroke-width="1.0"/>
    </g>
    <g id="shape2" transform="matrix(1.0, 0.0, 0.0, 1.0, 22.9, 8.1)">
      <path d="M9.0 -3.4 L10.55 -4.3 Q11.2 -4.65 11.55 -5.9 11.85 -6.8 12.45 -7.25 L14.1 -7.15 14.25 -8.1 Q22.6 -5.35 22.9 -1.75 23.2 1.85 16.85 4.75 10.45 7.65 5.35 8.1 L7.8 7.1 Q13.2 4.8 13.2 3.45 13.2 2.15 11.25 1.6 L8.1 1.4 Q8.1 1.0 8.6 -0.25 L9.05 -1.75 8.8 -3.3 9.0 -3.4 M-6.15 7.4 Q-10.5 7.5 -16.25 6.3 -22.75 4.95 -22.9 2.35 -23.1 -0.3 -20.95 -2.15 -18.8 -4.0 -17.95 -4.0 -16.75 -4.0 -16.3 -3.25 L-16.1 -5.0 Q-15.95 -5.55 -15.05 -5.7 L-15.55 -6.1 -14.15 -5.6 Q-15.1 -4.45 -13.75 -3.45 L-13.75 -3.4 Q-14.2 -2.5 -14.25 -1.8 L-14.25 -1.6 Q-14.25 -0.2 -13.65 0.4 L-15.7 -0.2 -17.3 -0.85 -18.15 -0.65 -18.75 -0.5 -18.75 1.1 Q-16.7 3.75 -11.6 5.75 -8.8 6.85 -5.05 7.35 L-6.15 7.4" fill="#ac825a" fill-rule="evenodd" stroke="none"/>
      <path d="M5.35 8.1 L0.45 7.95 -1.05 7.85 -3.05 7.7 -5.75 7.45 -6.15 7.4 -5.05 7.35 Q-8.8 6.85 -11.6 5.75 -16.7 3.75 -18.75 1.1 L-18.75 -0.5 -18.15 -0.65 -17.3 -0.85 -15.7 -0.2 -13.65 0.4 Q-14.25 -0.2 -14.25 -1.6 L-14.25 -1.8 Q-13.55 -0.95 -12.75 -0.5 L-9.9 -0.2 Q-9.2 -0.15 -8.55 0.8 -7.95 1.7 -7.2 1.7 L-6.1 1.4 -5.0 1.1 -3.7 1.2 Q-2.85 1.45 -2.65 2.65 L-4.5 2.95 Q-4.2 2.95 -4.2 3.25 -3.0 4.4 -1.35 4.25 -1.95 4.85 -1.95 5.6 L-1.75 6.35 -1.35 6.8 0.2 6.8 Q-0.15 4.9 0.9 4.7 2.1 4.45 2.1 3.1 L1.2 0.45 Q1.2 -0.25 1.8 -1.45 L2.4 -2.95 2.1 -3.0 2.15 -3.15 2.3 -3.55 Q2.95 -4.9 4.35 -4.9 5.1 -4.9 5.75 -4.05 L6.5 -2.75 7.5 -3.65 Q7.6 -4.0 7.95 -4.0 L8.4 -3.95 8.65 -3.8 9.0 -3.4 8.8 -3.3 9.05 -1.75 8.6 -0.25 Q8.1 1.0 8.1 1.4 L11.25 1.6 Q13.2 2.15 13.2 3.45 13.2 4.8 7.8 7.1 L5.35 8.1 M-13.75 -3.45 L-13.65 -3.4 -13.75 -3.4 -13.75 -3.45" fill="#b49255" fill-rule="evenodd" stroke="none"/>
      <path d="M-13.65 -3.4 Q-12.25 -2.35 -10.1 -1.8 L-6.95 -1.85 Q-5.95 -2.45 -5.3 -2.45 -4.9 -2.45 -4.45 -2.1 L-3.6 -1.75 Q-3.2 -1.75 -2.75 -2.1 L-1.95 -2.45 -1.1 -1.7 Q-0.3 -1.15 0.15 -1.15 1.55 -1.15 2.1 -3.0 L2.4 -2.95 1.8 -1.45 Q1.2 -0.25 1.2 0.45 L2.1 3.1 Q2.1 4.45 0.9 4.7 -0.15 4.9 0.2 6.8 L-1.35 6.8 -1.75 6.35 -1.95 5.6 Q-1.95 4.85 -1.35 4.25 -3.0 4.4 -4.2 3.25 -4.2 2.95 -4.5 2.95 L-2.65 2.65 Q-2.85 1.45 -3.7 1.2 L-5.0 1.1 -6.1 1.4 -7.2 1.7 Q-7.95 1.7 -8.55 0.8 -9.2 -0.15 -9.9 -0.2 L-12.75 -0.5 Q-13.55 -0.95 -14.25 -1.8 -14.2 -2.5 -13.75 -3.4 L-13.65 -3.4" fill="#c7a359" fill-rule="evenodd" stroke="none"/>
    </g>
    <g id="shape3" transform="matrix(1.0, 0.0, 0.0, 1.0, 38.55, 41.05)">
      <path d="M16.05 34.5 Q16.65 35.75 11.55 38.95 6.4 42.15 1.55 43.1 -3.25 43.95 -9.55 42.15 -16.4 40.25 -16.65 37.35 L-16.45 36.5 -16.1 36.0 -14.35 33.85 -12.8 33.8 Q-11.75 33.7 -10.9 33.1 -10.0 32.5 -9.15 32.45 L-7.2 32.6 -5.25 32.75 Q-4.0 32.6 -2.8 31.85 -1.6 31.1 -0.25 30.95 3.05 30.65 8.6 31.85 15.35 33.25 16.05 34.5" fill="#865f46" fill-rule="evenodd" stroke="none"/>
      <path d="M24.9 -37.3 L25.2 -37.2 Q32.0 -35.1 36.5 -32.9 36.05 -25.9 30.45 -17.1 L29.6 -15.8 29.25 -15.3 29.35 -17.85 29.35 -18.05 29.6 -15.8 29.35 -18.05 Q29.45 -24.7 26.75 -32.5 L25.8 -35.1 24.9 -37.3 M9.9 38.55 L7.95 39.65 Q4.45 41.35 -1.5 41.0 L-7.6 40.35 -4.45 34.2 -4.1 33.55 -2.65 31.4 -0.7 29.4 Q1.25 27.8 4.0 26.45 L5.25 26.6 Q6.65 27.15 7.45 28.3 L8.4 30.15 8.55 30.55 8.7 31.4 9.7 37.25 9.9 38.55 M-38.0 -19.3 Q-38.6 -22.85 -38.55 -26.65 -38.5 -29.35 -37.75 -31.85 -31.35 -35.05 -25.65 -36.95 L-20.75 -38.4 -14.85 -39.6 Q-17.2 -34.7 -19.9 -26.65 -22.95 -17.45 -24.35 -9.55 L-28.65 -13.65 Q-29.05 -16.75 -29.05 -19.45 -29.05 -27.25 -28.1 -30.9 -27.65 -32.65 -25.65 -36.95 -27.65 -32.65 -28.1 -30.9 -29.05 -27.25 -29.05 -19.45 -29.05 -16.75 -28.65 -13.65 -32.9 -17.15 -38.0 -19.3 M-6.5 -40.55 L9.45 -41.0 Q11.7 -41.0 18.7 -39.05 L19.55 -38.85 20.3 -32.5 Q21.45 -22.9 21.4 -20.95 21.3 -14.5 20.75 -8.55 21.1 -14.3 20.8 -21.75 20.35 -31.1 19.55 -34.3 18.75 -37.55 18.7 -39.05 18.75 -37.55 19.55 -34.3 20.35 -31.1 20.8 -21.75 21.1 -14.3 20.75 -8.55 L20.45 -5.85 19.75 -0.6 19.05 3.45 18.95 4.0 18.85 4.45 17.2 11.4 15.65 16.35 15.45 17.0 12.8 23.25 12.1 24.65 11.35 27.1 11.05 27.8 10.75 26.9 9.75 25.0 Q11.15 21.25 12.1 16.45 13.3 10.1 13.3 3.95 L13.2 1.0 13.2 0.4 13.2 1.0 13.3 3.95 Q13.3 10.1 12.1 16.45 11.15 21.25 9.75 25.0 L9.25 24.3 8.8 23.75 7.0 21.4 6.9 21.25 7.45 14.85 7.7 11.3 7.75 10.95 7.75 9.9 7.65 4.95 10.35 3.15 12.75 0.85 13.2 0.4 14.9 -1.6 15.1 -2.75 15.55 -5.7 Q16.05 -10.3 16.15 -15.7 16.0 -19.7 16.4 -24.4 L6.0 -25.2 Q0.9 -25.25 -5.0 -23.65 L-8.8 -22.35 -6.15 -7.35 -5.75 -5.05 Q-4.95 -1.2 -4.15 -0.5 L-2.75 0.7 -2.7 0.75 3.05 5.6 3.0 6.9 Q2.75 7.2 2.95 8.6 2.75 9.25 2.95 9.95 L2.95 10.45 2.85 15.8 2.35 21.15 -0.25 23.1 -1.95 24.3 -2.35 24.6 -5.05 26.45 -6.05 28.85 -6.85 27.1 -8.0 24.7 -10.1 20.1 Q-13.7 10.7 -13.75 -3.0 L-13.75 -5.15 Q-13.55 -15.75 -11.5 -25.7 -9.65 -35.2 -6.5 -40.55 M25.2 -37.2 L25.8 -35.1 25.2 -37.2 M18.85 4.45 L17.55 9.55 15.65 16.35 17.55 9.55 18.85 4.45 M-8.0 24.7 Q-10.95 15.9 -12.8 3.95 L-13.75 -3.0 -12.8 3.95 Q-10.95 15.9 -8.0 24.7 M-0.25 23.1 Q-0.9 20.3 -1.6 14.9 -2.75 6.4 -2.7 0.75 -2.75 6.4 -1.6 14.9 -0.9 20.3 -0.25 23.1" fill="#6c8d0b" fill-rule="evenodd" stroke="none"/>
      <path d="M-14.85 -39.6 L-14.8 -39.6 -6.5 -40.55 Q-9.65 -35.2 -11.5 -25.7 -13.55 -15.75 -13.75 -5.15 L-13.75 -3.0 Q-15.15 -14.45 -15.15 -25.8 L-14.8 -39.6 -15.15 -25.8 Q-15.15 -14.45 -13.75 -3.0 -13.7 10.7 -10.1 20.1 L-8.0 24.7 -6.85 27.1 -6.05 28.85 -6.25 29.45 -7.15 31.7 -8.55 35.45 Q-9.25 21.35 -13.75 9.0 -17.8 -2.25 -24.35 -9.55 -22.95 -17.45 -19.9 -26.65 -17.2 -34.7 -14.85 -39.6 M19.55 -38.85 L23.5 -37.7 24.9 -37.3 25.8 -35.1 26.35 -33.1 28.25 -26.4 29.05 -20.65 29.35 -18.05 29.05 -20.65 28.25 -26.4 26.35 -33.1 25.8 -35.1 26.75 -32.5 Q29.45 -24.7 29.35 -18.05 L29.35 -17.85 29.25 -15.3 24.95 -9.2 Q21.75 -4.65 20.45 -2.1 L19.9 -0.9 20.45 -5.85 19.9 -0.9 19.75 -0.6 20.45 -5.85 20.75 -8.55 Q21.3 -14.5 21.4 -20.95 21.45 -22.9 20.3 -32.5 L19.55 -38.85 M11.05 27.8 L11.35 27.1 11.3 27.65 11.15 28.35 11.1 27.9 11.05 27.8 M-8.0 24.7 L-6.25 29.45 -8.0 24.7" fill="#4c7401" fill-rule="evenodd" stroke="none"/>
      <path d="M10.85 -12.95 L10.6 -12.95 10.6 -9.5 10.75 -9.25 10.95 -9.25 Q11.05 -8.6 11.65 -8.55 L11.8 -8.55 11.9 -8.75 11.9 -8.8 12.0 -8.8 12.35 -9.35 12.5 -9.7 12.45 -9.8 12.7 -11.55 Q12.4 -13.2 11.8 -14.05 L11.45 -13.65 10.85 -12.95 M10.35 -16.3 Q10.75 -16.8 11.85 -16.75 13.75 -16.75 13.65 -12.45 L13.6 -9.45 Q13.2 -7.1 11.5 -7.15 10.2 -7.15 9.8 -8.55 9.5 -9.45 9.55 -11.8 9.55 -12.9 9.9 -14.6 L9.95 -14.75 10.0 -14.9 10.0 -14.95 10.05 -15.1 10.35 -16.3 M1.0 -9.6 L1.05 -10.85 1.0 -12.35 Q0.75 -13.45 -0.2 -13.65 -1.05 -12.8 -1.05 -11.2 L-0.95 -9.7 Q-0.8 -8.8 0.0 -8.2 0.85 -9.0 1.0 -9.6 M2.65 -11.45 Q2.55 -6.6 0.1 -6.65 -1.15 -6.65 -1.9 -8.4 -2.6 -10.05 -2.55 -12.25 L-2.2 -14.8 -2.15 -14.9 -1.95 -16.05 -1.8 -16.25 -0.75 -17.0 Q0.7 -16.95 1.7 -15.25 2.65 -13.6 2.65 -11.45" fill="#330000" fill-rule="evenodd" stroke="none"/>
      <path d="M-5.75 -5.05 L-6.15 -7.35 -8.8 -22.35 -5.0 -23.65 Q0.9 -25.25 6.0 -25.2 L16.4 -24.4 Q16.0 -19.7 16.15 -15.7 16.05 -10.3 15.55 -5.7 14.45 -4.1 12.8 -2.65 L10.05 -0.6 Q7.7 0.75 5.65 0.7 2.1 0.65 -1.85 -1.8 L-2.15 -1.95 Q-4.55 -3.5 -5.75 -5.05 M10.35 -16.3 L10.2 -16.15 10.05 -15.1 10.0 -14.95 10.0 -14.9 9.95 -14.75 9.9 -14.6 Q9.55 -12.9 9.55 -11.8 9.5 -9.45 9.8 -8.55 10.2 -7.15 11.5 -7.15 13.2 -7.1 13.6 -9.45 L13.65 -12.45 Q13.75 -16.75 11.85 -16.75 10.75 -16.8 10.35 -16.3 M2.65 -11.45 Q2.65 -13.6 1.7 -15.25 0.7 -16.95 -0.75 -17.0 L-1.8 -16.25 -1.95 -16.05 -2.15 -14.9 -2.2 -14.8 -2.55 -12.25 Q-2.6 -10.05 -1.9 -8.4 -1.15 -6.65 0.1 -6.65 2.55 -6.6 2.65 -11.45 M-2.35 -2.8 L-1.45 -3.1 -1.4 -3.1 Q4.85 -5.15 7.95 -5.1 L10.6 -4.95 12.5 -3.8 10.6 -4.95 7.95 -5.1 Q4.85 -5.15 -1.4 -3.1 L-1.45 -3.1 -2.35 -2.8 M12.5 -3.8 L12.5 -3.6 12.85 -3.6 12.5 -3.8 M2.95 10.45 L3.15 10.45 3.6 11.35 Q4.4 12.8 5.35 12.8 6.25 12.85 7.45 11.35 L7.7 11.3 7.45 14.85 6.9 21.25 7.0 21.4 8.8 23.75 9.25 24.3 Q8.6 26.5 7.45 28.3 6.65 27.15 5.25 26.6 L4.0 26.45 Q1.25 27.8 -0.7 29.4 -1.7 27.65 -2.35 24.6 L-1.95 24.3 -0.25 23.1 2.35 21.15 2.85 15.8 2.95 10.45" fill="#b2935c" fill-rule="evenodd" stroke="none"/>
      <path d="M11.7 37.4 L10.15 38.4 9.9 38.55 9.7 37.25 8.7 31.4 8.55 30.55 8.4 30.15 7.45 28.3 Q8.6 26.5 9.25 24.3 L9.75 25.0 10.75 26.9 11.05 27.8 11.1 27.9 11.15 28.35 11.2 28.8 11.7 37.4 M-7.6 40.35 L-8.45 40.15 -10.0 39.65 -10.2 39.6 -8.55 35.45 -7.15 31.7 -6.25 29.45 -6.05 28.85 -5.05 26.45 -2.35 24.6 Q-1.7 27.65 -0.7 29.4 L-2.65 31.4 -4.1 33.55 -4.45 34.2 -7.6 40.35 M15.55 -5.7 L15.1 -2.75 14.9 -1.6 13.2 0.4 12.75 0.85 10.35 3.15 7.65 4.95 7.75 9.9 7.75 10.95 7.45 11.35 Q6.25 12.85 5.35 12.8 4.4 12.8 3.6 11.35 L3.15 10.45 2.95 9.05 3.0 6.9 3.05 5.6 -2.7 0.75 -2.75 0.7 -4.15 -0.5 Q-4.95 -1.2 -5.75 -5.05 -4.55 -3.5 -2.15 -1.95 L-1.85 -1.8 Q2.1 0.65 5.65 0.7 7.7 0.75 10.05 -0.6 L12.8 -2.65 Q14.45 -4.1 15.55 -5.7" fill="#f3cd86" fill-rule="evenodd" stroke="none"/>
      <path d="M36.5 -32.9 Q37.55 -32.3 38.55 -31.75 38.0 -20.85 34.7 -14.8 32.0 -9.9 28.6 -5.7 L27.9 -4.85 25.75 -2.4 Q20.6 3.05 17.45 16.25 15.05 26.15 13.6 35.9 L11.7 37.4 11.2 28.8 11.15 28.35 11.3 27.65 11.35 27.1 12.1 24.65 12.8 23.25 15.45 17.0 15.65 16.35 17.2 11.4 18.85 4.45 18.95 4.0 19.05 3.45 19.75 -0.6 19.9 -0.9 20.45 -2.1 Q21.75 -4.65 24.95 -9.2 L29.25 -15.3 29.6 -15.8 29.7 -14.2 Q29.7 -9.4 28.6 -5.7 29.7 -9.4 29.7 -14.2 L29.6 -15.8 30.45 -17.1 Q36.05 -25.9 36.5 -32.9 M-10.2 39.6 L-13.95 37.85 Q-14.05 31.25 -15.5 23.4 -17.75 11.6 -21.5 6.5 L-24.9 2.35 -25.6 1.55 -27.2 -0.2 Q-31.05 -4.45 -32.8 -6.85 -36.75 -12.4 -38.0 -19.3 -32.9 -17.15 -28.65 -13.65 L-24.35 -9.55 Q-17.8 -2.25 -13.75 9.0 -9.25 21.35 -8.55 35.45 L-10.2 39.6 M19.05 3.45 L19.9 -0.9 19.05 3.45 M15.45 17.0 Q13.7 23.8 11.3 27.65 13.7 23.8 15.45 17.0 M-24.9 2.35 Q-25.75 0.05 -26.9 -4.7 -28.1 -9.55 -28.65 -13.65 -28.1 -9.55 -26.9 -4.7 -25.75 0.05 -24.9 2.35" fill="#9cb557" fill-rule="evenodd" stroke="none"/>
      <path d="M10.85 -12.95 L11.45 -13.65 11.8 -14.05 Q12.4 -13.2 12.7 -11.55 L12.45 -9.8 12.5 -9.7 12.35 -9.35 12.0 -8.8 11.9 -8.8 11.9 -8.75 11.8 -8.55 11.65 -8.55 Q11.05 -8.6 10.95 -9.25 L10.75 -9.25 10.6 -9.5 10.6 -12.95 10.85 -12.95 M1.0 -9.6 Q0.85 -9.0 0.0 -8.2 -0.8 -8.8 -0.95 -9.7 L-1.05 -11.2 Q-1.05 -12.8 -0.2 -13.65 0.75 -13.45 1.0 -12.35 L1.05 -10.85 1.0 -9.6" fill="#ffffff" fill-rule="evenodd" stroke="none"/>
      <path d="M24.9 -37.3 L25.2 -37.2 25.8 -35.1 26.35 -33.1 28.25 -26.4 29.05 -20.65 29.35 -18.05 29.6 -15.8 29.7 -14.2 Q29.7 -9.4 28.6 -5.7 M-14.85 -39.6 L-14.8 -39.6 -15.15 -25.8 Q-15.15 -14.45 -13.75 -3.0 L-12.8 3.95 Q-10.95 15.9 -8.0 24.7 L-6.25 29.45 M18.7 -39.05 Q18.75 -37.55 19.55 -34.3 20.35 -31.1 20.8 -21.75 21.1 -14.3 20.75 -8.55 L20.45 -5.85 19.9 -0.9 19.05 3.45 18.95 4.0 18.85 4.45 17.55 9.55 15.65 16.35 15.45 17.0 Q13.7 23.8 11.3 27.65 M13.2 0.4 L13.2 1.0 13.3 3.95 Q13.3 10.1 12.1 16.45 11.15 21.25 9.75 25.0 M10.05 -15.1 L10.2 -16.15 10.35 -16.3 Q10.75 -16.8 11.85 -16.75 13.75 -16.75 13.65 -12.45 L13.6 -9.45 Q13.2 -7.1 11.5 -7.15 10.2 -7.15 9.8 -8.55 9.5 -9.45 9.55 -11.8 9.55 -12.9 9.9 -14.6 L9.95 -14.75 10.0 -14.9 10.0 -14.95 10.05 -15.1 10.35 -16.3 M2.65 -11.45 Q2.65 -13.6 1.7 -15.25 0.7 -16.95 -0.75 -17.0 L-1.8 -16.25 -1.95 -16.05 -2.15 -14.9 -2.2 -14.8 -2.55 -12.25 Q-2.6 -10.05 -1.9 -8.4 -1.15 -6.65 0.1 -6.65 2.55 -6.6 2.65 -11.45 M12.5 -3.8 L10.6 -4.95 7.95 -5.1 Q4.85 -5.15 -1.4 -3.1 L-1.45 -3.1 -2.35 -2.8 M12.5 -3.8 L12.85 -3.6 12.5 -3.6 12.5 -3.8 M-25.65 -36.95 Q-27.65 -32.65 -28.1 -30.9 -29.05 -27.25 -29.05 -19.45 -29.05 -16.75 -28.65 -13.65 -28.1 -9.55 -26.9 -4.7 -25.75 0.05 -24.9 2.35 M-2.7 0.75 Q-2.75 6.4 -1.6 14.9 -0.9 20.3 -0.25 23.1" fill="none" stroke="#330000" stroke-linecap="round" stroke-linejoin="round" stroke-width="1.0"/>
      <path d="M12.85 36.15 L13.0 36.4 13.45 37.7 13.35 38.45 12.7 39.1 13.25 39.0 13.45 39.35 14.85 40.4 Q16.1 41.2 13.7 43.25 11.25 45.3 9.1 46.25 L8.85 46.3 4.3 46.7 -1.8 47.05 -2.4 47.1 -4.1 46.65 -8.9 44.65 -11.55 43.8 Q-13.55 43.2 -13.75 42.45 -14.15 41.35 -15.9 39.75 L-17.55 38.05 Q-17.65 37.25 -16.95 35.9 L-16.8 35.7 -16.1 35.55 Q-15.8 35.5 -13.55 37.4 -10.95 39.05 -8.7 39.3 L-4.45 39.9 -3.1 40.05 -0.5 40.05 1.15 39.9 1.9 39.8 2.9 39.65 3.0 39.6 Q7.1 39.1 9.4 38.2 11.6 37.35 12.85 36.15" fill="#c7a359" fill-rule="evenodd" stroke="none"/>
      <path d="M12.85 36.15 Q14.0 35.05 14.25 33.7 L15.3 34.75 15.85 34.7 16.15 34.25 16.35 34.1 16.75 33.95 Q17.75 33.85 19.2 35.5 20.5 37.15 20.6 38.4 20.85 41.0 16.95 43.5 13.35 45.85 9.1 46.25 11.25 45.3 13.7 43.25 16.1 41.2 14.85 40.4 L13.45 39.35 13.25 39.0 12.7 39.1 13.35 38.45 13.45 37.7 13.0 36.4 12.85 36.15" fill="#ac825a" fill-rule="evenodd" stroke="none"/>
      <path d="M-2.4 47.1 L-8.45 46.65 -13.2 46.0 Q-14.35 45.75 -17.45 43.45 -20.55 41.25 -20.6 40.7 L-19.3 38.75 -17.65 36.85 -17.65 36.1 -17.55 35.95 -17.15 35.8 -16.95 35.8 -16.95 35.9 Q-17.65 37.25 -17.55 38.05 L-15.9 39.75 Q-14.15 41.35 -13.75 42.45 -13.55 43.2 -11.55 43.8 L-8.9 44.65 -4.1 46.65 -2.4 47.1" fill="#b49255" fill-rule="evenodd" stroke="none"/>
    </g>
    <g id="shape4" transform="matrix(1.0, 0.0, 0.0, 1.0, 13.9, 22.6)">
      <path d="M11.75 19.7 L12.0 10.6 Q12.25 3.25 10.4 -5.15 8.5 -13.55 2.65 -16.85 L1.55 -16.75 0.65 -17.05 3.05 -16.8 Q7.75 -17.25 10.75 -12.95 13.75 -8.65 13.9 4.0 14.05 16.6 11.75 19.7 M-13.3 12.8 Q-13.9 8.05 -13.9 -0.7 -13.9 -8.1 -12.5 -11.8 -11.35 -14.85 -9.1 -16.1 L-5.2 -16.75 -6.0 -14.25 Q-9.7 -11.35 -11.5 -2.95 -13.35 5.4 -13.3 12.8" fill="#9cb557" fill-rule="evenodd" stroke="none"/>
      <path d="M0.65 -17.05 L1.55 -16.75 2.65 -16.85 5.5 -3.05 Q6.75 3.4 6.75 13.85 L6.45 22.15 -0.35 22.65 Q-4.55 22.65 -7.35 21.65 -8.4 13.45 -8.4 4.55 -8.4 -3.6 -6.9 -10.75 L-6.0 -14.25 -5.2 -16.75 -4.4 -16.85 -2.45 -17.05 -1.35 -17.1 0.65 -17.05" fill="#6c8d0b" fill-rule="evenodd" stroke="none"/>
      <path d="M2.65 -16.85 Q8.5 -13.55 10.4 -5.15 12.25 3.25 12.0 10.6 L11.75 19.7 Q10.25 21.4 6.45 22.15 L6.75 13.85 Q6.75 3.4 5.5 -3.05 L2.65 -16.85 M-6.0 -14.25 L-6.9 -10.75 Q-8.4 -3.6 -8.4 4.55 -8.4 13.45 -7.35 21.65 -11.0 20.3 -12.35 17.2 -12.95 15.8 -13.3 12.8 -13.35 5.4 -11.5 -2.95 -9.7 -11.35 -6.0 -14.25" fill="#4c7401" fill-rule="evenodd" stroke="none"/>
      <path d="M3.05 -16.8 L0.65 -17.05 -1.35 -17.1 -2.45 -17.05 -4.35 -17.05 -3.45 -19.35 Q-2.25 -22.1 -0.85 -22.6 1.65 -19.5 3.05 -16.8" fill="#f0c000" fill-rule="evenodd" stroke="none"/>
      <path d="M2.65 -16.85 L5.5 -3.05 Q6.75 3.4 6.75 13.85 L6.45 22.15 M-5.2 -16.75 L-6.0 -14.25 -6.9 -10.75 Q-8.4 -3.6 -8.4 4.55 -8.4 13.45 -7.35 21.65" fill="none" stroke="#330000" stroke-linecap="round" stroke-linejoin="round" stroke-width="1.0"/>
    </g>
    <g id="shape5" transform="matrix(1.0, 0.0, 0.0, 1.0, 17.45, -24.9)">
      <path d="M17.45 30.25 Q18.0 31.6 12.25 34.5 6.45 37.4 1.3 37.9 -3.9 38.35 -10.4 35.85 -17.45 33.15 -17.45 30.05 -17.45 29.55 -17.1 29.15 L-16.7 28.7 -14.65 26.55 -13.0 26.65 Q-11.9 26.65 -10.9 26.15 -9.9 25.6 -9.0 25.6 L-6.95 25.95 -4.9 26.3 Q-3.55 26.3 -2.25 25.6 -0.9 24.9 0.55 24.9 4.05 24.9 9.85 26.7 16.85 28.85 17.45 30.25" fill="#865f46" fill-rule="evenodd" stroke="none"/>
    </g>
    <g id="shape6" transform="matrix(1.0, 0.0, 0.0, 1.0, 18.05, 38.65)">
      <path d="M-0.75 38.65 Q0.6 33.65 2.05 24.45 3.45 15.25 3.8 6.0 4.15 -3.25 3.4 -7.9 2.65 -12.55 0.45 -15.0 -1.75 -17.5 -6.05 -19.7 -10.35 -21.95 -17.55 -21.9 -17.35 -25.7 -15.15 -31.35 L-15.15 -31.65 -14.95 -31.9 -12.75 -32.55 -7.3 -33.8 Q6.95 -33.8 12.05 -16.55 15.5 -4.9 15.5 21.05 15.5 26.9 14.6 35.75 L10.95 37.55 Q7.75 38.8 -0.3 38.65 L-0.75 38.65" fill="#6c8d0b" fill-rule="evenodd" stroke="none"/>
      <path d="M-17.55 -21.9 Q-10.35 -21.95 -6.05 -19.7 -1.75 -17.5 0.45 -15.0 2.65 -12.55 3.4 -7.9 4.15 -3.25 3.8 6.0 3.45 15.25 2.05 24.45 0.6 33.65 -0.75 38.65 -4.25 38.5 -7.2 37.3 L-5.4 26.15 Q-3.1 10.5 -3.1 2.95 -3.1 -6.75 -7.65 -11.5 -10.55 -14.55 -16.0 -16.2 -17.6 -18.5 -17.6 -21.1 L-17.55 -21.9" fill="#4c7401" fill-rule="evenodd" stroke="none"/>
      <path d="M14.6 35.75 Q15.5 26.9 15.5 21.05 15.5 -4.9 12.05 -16.55 6.95 -33.8 -7.3 -33.8 L-12.75 -32.55 -14.95 -31.9 -12.3 -35.45 Q-9.35 -38.65 -5.2 -38.65 10.45 -38.65 14.15 -22.5 17.85 -6.35 17.6 6.05 17.35 18.45 16.8 25.45 L16.05 34.75 14.6 35.75 M-16.0 -16.2 Q-10.55 -14.55 -7.65 -11.5 -3.1 -6.75 -3.1 2.95 -3.1 10.5 -5.4 26.15 L-7.2 37.3 Q-10.85 35.8 -13.7 32.7 L-11.6 20.7 Q-9.0 4.85 -9.0 -2.6 -9.0 -5.35 -9.35 -8.5 L-9.6 -10.3 -10.5 -11.05 Q-14.15 -13.9 -15.3 -15.3 L-16.0 -16.2" fill="#9cb557" fill-rule="evenodd" stroke="none"/>
      <path d="M-17.55 -21.9 Q-10.35 -21.95 -6.05 -19.7 -1.75 -17.5 0.45 -15.0 2.65 -12.55 3.4 -7.9 4.15 -3.25 3.8 6.0 3.45 15.25 2.05 24.45 0.6 33.65 -0.75 38.65 M14.6 35.75 Q15.5 26.9 15.5 21.05 15.5 -4.9 12.05 -16.55 6.95 -33.8 -7.3 -33.8 L-12.75 -32.55 -14.95 -31.9 -15.15 -31.65 -15.15 -31.35" fill="none" stroke="#330000" stroke-linecap="round" stroke-linejoin="round" stroke-width="1.0"/>
    </g>
    <g id="shape7" transform="matrix(1.0, 0.0, 0.0, 1.0, 21.9, -27.8)">
      <path d="M13.9 31.3 L14.05 31.6 14.35 33.0 14.2 33.8 13.45 34.4 14.05 34.4 14.2 34.75 14.35 35.45 11.5 38.8 8.95 41.65 8.65 41.65 3.8 41.65 -2.65 41.35 -3.3 41.35 -5.05 40.75 -9.95 38.15 -12.7 37.0 Q-14.7 36.15 -14.9 35.35 -15.2 34.15 -16.85 32.3 L-18.45 30.3 Q-18.45 29.45 -17.6 28.1 L-17.45 27.9 -16.7 27.8 Q-16.35 27.8 -14.15 30.0 -11.55 32.05 -9.2 32.5 L-4.8 33.55 -3.35 33.85 -0.65 34.1 1.15 34.1 1.95 34.05 3.05 34.0 3.15 34.0 10.05 33.15 Q12.45 32.45 13.9 31.3" fill="#c7a359" fill-rule="evenodd" stroke="none"/>
      <path d="M13.9 31.3 Q15.2 30.25 15.65 28.8 L16.6 30.05 17.2 30.05 17.55 29.6 17.85 29.45 18.25 29.35 Q19.35 29.35 20.65 31.25 21.9 33.1 21.9 34.45 21.9 37.2 17.5 39.5 13.45 41.6 8.95 41.65 L11.5 38.8 14.35 35.45 14.2 34.75 14.05 34.4 13.45 34.4 14.2 33.8 14.35 33.0 14.05 31.6 13.9 31.3" fill="#ac825a" fill-rule="evenodd" stroke="none"/>
      <path d="M-3.3 41.35 L-9.65 40.3 -14.6 39.2 Q-15.85 38.75 -18.9 36.05 -21.9 33.4 -21.9 32.85 L-20.35 30.9 Q-18.85 29.2 -18.45 29.05 L-18.35 28.25 -18.25 28.05 -17.8 27.95 -17.6 27.95 -17.6 28.1 Q-18.45 29.45 -18.45 30.3 L-16.85 32.3 Q-15.2 34.15 -14.9 35.35 -14.7 36.15 -12.7 37.0 L-9.95 38.15 -5.05 40.75 -3.3 41.35" fill="#b49255" fill-rule="evenodd" stroke="none"/>
    </g>
    <g id="shape8" transform="matrix(1.0, 0.0, 0.0, 1.0, 21.35, -26.15)">
      <path d="M20.5 30.8 Q21.3 32.35 14.7 36.45 8.1 40.6 2.0 41.75 -4.2 42.9 -12.25 40.6 -21.0 38.15 -21.35 34.45 -21.4 33.85 -21.05 33.3 L-20.6 32.7 -18.35 29.9 -16.4 29.85 Q-15.05 29.7 -13.9 29.0 -12.75 28.25 -11.7 28.15 L-9.25 28.3 -6.7 28.55 Q-5.1 28.4 -3.6 27.4 -2.1 26.4 -0.35 26.25 3.85 25.85 11.0 27.35 19.65 29.2 20.5 30.8" fill="#865f46" fill-rule="evenodd" stroke="none"/>
    </g>
    <g id="shape9" transform="matrix(1.0, 0.0, 0.0, 1.0, 20.6, 43.1)">
      <path d="M18.6 -36.75 L9.95 -36.4 Q2.0 -35.3 -4.3 -26.95 -10.65 -18.6 -12.1 -3.9 -13.55 10.75 -12.55 23.1 -11.6 35.45 -10.65 42.8 L-15.0 42.2 Q-18.55 41.35 -19.7 40.5 -20.55 35.05 -20.55 26.4 L-20.6 13.0 Q-20.65 8.3 -20.25 4.1 L-19.4 -6.7 Q-18.9 -13.35 -16.3 -20.45 -13.75 -27.55 -11.9 -30.25 -10.05 -32.95 -7.1 -35.85 -4.2 -38.8 -0.55 -40.8 3.1 -42.8 6.8 -43.05 10.3 -43.4 13.1 -42.05 15.9 -40.75 17.8 -38.05 L18.6 -36.75 M20.65 -24.75 L20.65 -23.7 Q18.8 -20.7 17.65 -15.55 16.45 -10.4 15.95 -3.85 L15.05 8.05 Q14.65 13.4 14.7 23.8 14.75 34.15 15.65 35.45 12.85 38.55 9.05 40.35 L9.1 39.8 9.25 33.2 Q9.25 28.05 8.65 19.1 8.0 10.15 9.6 -1.5 11.15 -13.15 14.1 -17.35 17.05 -21.55 18.75 -23.05 L20.65 -24.75" fill="#9cb557" fill-rule="evenodd" stroke="none"/>
      <path d="M-10.65 42.8 Q-11.6 35.45 -12.55 23.1 -13.55 10.75 -12.1 -3.9 -10.65 -18.6 -4.3 -26.95 2.0 -35.3 9.95 -36.4 L18.6 -36.75 Q19.8 -34.5 20.2 -31.65 L20.45 -29.55 Q11.85 -25.85 7.95 -17.05 3.75 -7.45 3.75 12.1 3.75 16.65 4.5 31.65 L5.05 41.75 Q0.3 43.05 -5.1 43.05 L-10.65 42.8" fill="#6c8d0b" fill-rule="evenodd" stroke="none"/>
      <path d="M5.05 41.75 L4.5 31.65 Q3.75 16.65 3.75 12.1 3.75 -7.45 7.95 -17.05 11.85 -25.85 20.45 -29.55 L20.65 -24.75 18.75 -23.05 Q17.05 -21.55 14.1 -17.35 11.15 -13.15 9.6 -1.5 8.0 10.15 8.65 19.1 9.25 28.05 9.25 33.2 L9.1 39.8 9.05 40.35 6.65 41.3 5.05 41.75" fill="#4c7401" fill-rule="evenodd" stroke="none"/>
      <path d="M18.6 -36.75 L9.95 -36.4 Q2.0 -35.3 -4.3 -26.95 -10.65 -18.6 -12.1 -3.9 -13.55 10.75 -12.55 23.1 -11.6 35.45 -10.65 42.8 M5.05 41.75 L4.5 31.65 Q3.75 16.65 3.75 12.1 3.75 -7.45 7.95 -17.05 11.85 -25.85 20.45 -29.55" fill="none" stroke="#330000" stroke-linecap="round" stroke-linejoin="round" stroke-width="1.0"/>
    </g>
    <g id="shape10" transform="matrix(1.0, 0.0, 0.0, 1.0, 26.2, -28.65)">
      <path d="M16.1 31.95 L16.35 32.3 16.95 33.9 17.0 34.15 18.25 31.7 Q16.85 35.75 17.1 36.0 L18.1 36.9 Q18.9 37.5 16.45 40.5 L12.1 45.15 11.75 45.2 5.95 46.1 -1.75 46.9 -2.55 47.0 -4.7 46.55 Q-6.5 46.15 -11.05 44.4 L-14.5 43.5 Q-17.05 42.85 -17.45 41.95 -18.0 40.55 -20.3 38.65 L-22.55 36.6 Q-22.7 35.6 -21.95 33.85 L-21.8 33.55 -20.9 33.25 Q-20.5 33.2 -17.5 35.45 -14.05 37.45 -11.15 37.5 L-5.7 38.0 -3.95 38.05 -0.7 37.9 1.45 37.55 2.4 37.35 3.65 37.1 3.8 37.1 Q9.0 36.1 11.85 34.85 14.6 33.55 16.1 31.95" fill="#c7a359" fill-rule="evenodd" stroke="none"/>
      <path d="M16.1 31.95 Q17.45 30.5 17.75 28.65 L19.1 29.95 19.8 29.85 20.15 29.25 20.45 29.05 20.95 28.85 Q22.25 28.65 24.1 30.65 25.95 32.6 26.2 34.25 26.7 37.5 21.85 41.05 17.45 44.3 12.1 45.15 L16.45 40.5 Q18.9 37.5 18.1 36.9 L17.1 36.0 Q16.85 35.75 18.25 31.7 L17.0 34.15 16.95 33.9 16.35 32.3 16.1 31.95" fill="#ac825a" fill-rule="evenodd" stroke="none"/>
      <path d="M-2.55 47.0 Q-5.0 47.15 -10.3 46.9 L-16.35 46.5 Q-17.95 46.15 -22.05 43.5 -26.1 40.9 -26.2 40.25 -26.25 39.85 -24.7 37.6 -23.25 35.35 -22.75 35.1 L-22.8 34.1 -22.7 33.85 -22.2 33.65 -21.95 33.65 -21.95 33.85 Q-22.7 35.6 -22.55 36.6 L-20.3 38.65 Q-18.0 40.55 -17.45 41.95 -17.05 42.85 -14.5 43.5 L-11.05 44.4 Q-6.5 46.15 -4.7 46.55 L-2.55 47.0" fill="#b49255" fill-rule="evenodd" stroke="none"/>
    </g>
    <g id="shape11" transform="matrix(1.0, 0.0, 0.0, 1.0, 28.25, 12.85)">
      <path d="M3.4 -5.7 L3.35 -5.75 3.35 -5.7 2.0 -5.65 -10.65 -6.4 -11.0 -6.5 -12.15 -6.5 Q-12.35 -9.15 -13.1 -11.5 L-13.3 -12.1 -13.1 -11.5 Q-12.35 -9.15 -12.15 -6.5 -20.1 -6.4 -22.55 -5.15 -26.3 -3.3 -27.8 3.1 L-28.25 1.05 Q-28.25 -0.45 -26.7 -5.8 L-24.7 -11.45 -23.35 -12.25 Q-21.6 -13.05 -18.2 -12.75 L-13.3 -12.1 -0.2 -10.95 Q7.1 -10.55 12.3 -11.05 L16.15 -11.35 Q17.8 -9.95 19.0 -6.8 L19.8 -4.5 19.0 -6.8 Q17.8 -9.95 16.15 -11.35 23.1 -11.75 23.7 -10.5 26.1 -9.15 27.25 -4.55 28.15 -0.85 28.25 3.65 L27.2 4.9 Q26.0 0.35 23.45 -2.15 21.95 -3.6 19.8 -4.5 17.35 -5.5 14.15 -5.8 12.0 -6.0 3.4 -5.7 M3.35 -5.75 Q1.55 -9.45 -0.2 -10.95 1.55 -9.45 3.35 -5.75" fill="#9cb557" fill-rule="evenodd" stroke="none"/>
      <path d="M5.5 -0.25 Q11.05 0.35 14.55 1.6 18.25 2.95 20.4 5.1 21.6 6.35 22.3 7.9 L19.85 9.05 19.8 9.05 19.75 9.0 18.75 9.4 Q11.2 12.35 5.0 12.75 L3.2 12.85 Q-3.75 12.95 -14.6 10.2 L-13.6 6.55 Q-12.55 2.95 -12.2 -0.6 -12.55 2.95 -13.6 6.55 L-14.6 10.2 -16.25 9.75 Q-21.85 8.25 -24.85 6.3 -21.0 2.6 -18.6 1.3 -16.0 -0.1 -12.2 -0.6 L-7.45 -0.9 5.5 -0.25 Q6.25 2.6 6.25 5.2 6.25 9.65 5.0 12.75 6.25 9.65 6.25 5.2 6.25 2.6 5.5 -0.25 M20.4 5.1 Q19.9 7.15 18.75 9.4 19.9 7.15 20.4 5.1" fill="#6c8d0b" fill-rule="evenodd" stroke="none"/>
      <path d="M3.35 -5.7 L3.4 -5.7 Q12.0 -6.0 14.15 -5.8 17.35 -5.5 19.8 -4.5 20.75 -1.2 20.75 2.1 L20.4 5.1 20.75 2.1 Q20.75 -1.2 19.8 -4.5 21.95 -3.6 23.45 -2.15 26.0 0.35 27.2 4.9 25.6 6.2 22.3 7.9 21.6 6.35 20.4 5.1 18.25 2.95 14.55 1.6 11.05 0.35 5.5 -0.25 L-7.45 -0.9 -12.2 -0.6 -12.05 -4.1 -12.15 -6.5 -12.05 -4.1 -12.2 -0.6 Q-16.0 -0.1 -18.6 1.3 -21.0 2.6 -24.85 6.3 -27.0 4.8 -27.8 3.1 -26.3 -3.3 -22.55 -5.15 -20.1 -6.4 -12.15 -6.5 L-11.0 -6.5 -10.65 -6.4 2.0 -5.65 3.35 -5.7 M5.5 -0.25 Q4.75 -2.9 3.4 -5.7 4.75 -2.9 5.5 -0.25" fill="#4c7401" fill-rule="evenodd" stroke="none"/>
      <path d="M3.4 -5.7 L3.35 -5.75 Q1.55 -9.45 -0.2 -10.95 M19.8 -4.5 L19.0 -6.8 Q17.8 -9.95 16.15 -11.35 M3.4 -5.7 Q4.75 -2.9 5.5 -0.25 6.25 2.6 6.25 5.2 6.25 9.65 5.0 12.75 M20.4 5.1 L20.75 2.1 Q20.75 -1.2 19.8 -4.5 M-12.2 -0.6 Q-12.55 2.95 -13.6 6.55 L-14.6 10.2 M18.75 9.4 Q19.9 7.15 20.4 5.1 M-13.3 -12.1 L-13.1 -11.5 Q-12.35 -9.15 -12.15 -6.5 L-12.05 -4.1 -12.2 -0.6" fill="none" stroke="#330000" stroke-linecap="round" stroke-linejoin="round" stroke-width="1.0"/>
    </g>
  </defs>
</svg>
