<svg xmlns="http://www.w3.org/2000/svg" width="101" height="118" stroke="#000" stroke-linecap="round" stroke-linejoin="round" fill="#fff" fill-rule="evenodd"><style><![CDATA[.B{fill:#bb4543}.C{fill:#4e2d26}.D{fill:#904e2b}.E{fill:#361904}.F{fill:#fd5c04}.G{fill:#bb663d}.H{fill:#fcf1c5}.I{fill:#dfc998}.J{fill:#f3d36e}]]></style><g stroke="none"><path d="M51.1 101.8l.2-.4 2.1-5.45 5.4-3.15 6.2 2.55v-.05l.2.15 1.15.8.25.25q.7.85.7 3.15 0 3.15-2.2 5.85l-.4.4-.2.25-2.6 2.05h-2.7l-.1-.05H59h-.4l-.75-.05.35.3.3.25.2.1.4.1h1l3.55 2.55 1.05.8.25.2 1.05.9-.2.2q-6.1-1.7-7.85-2.65l-4.05-1.8-.35-.25-.8-.9-.25-1.2.1-.55-.3.1-1.2-4.45" class="C"/><path d="M51.1 101.8l1.2 4.45.3-.1-.1.55.25 1.2.8.9.35.25 4.05 1.8q1.75.95 7.85 2.65 1.75 1 2.45 1.1h.1.15.7v.15l-.05.75q-.2.45-1 .45h-.35q-2.3-.15-7.1-1.85l-5.5-2.1-.2-.1-1.45-.7q-1.65-.9-2.35-1.95l-.5-1.35-.1-.7v-.3-.2l.1-.05q-1.15-.15.4-4.85" class="F"/><path d="M66 113.3l-1.05-.9-.25-.2-1.05-.8-3.55-2.55h1.8l1.15-.15q.15.65.95 1.2l.7.5 1.5 1.1.85.9.5.6.4.35.15.15.3.15-.05-.1.75.2.1.85h-.7v-.05l-.15.05h-.1q-.7-.1-2.45-1.1l.55.15-.35-.35m-4.1-5.1l2.6-2.05.2-.25.4-.4q2.2-2.7 2.2-5.85 0-2.3-.7-3.15l-.25-.25-1.15-.8-.2-.15v.05l-6.2-2.55 3.2-1.85q2.25.55 3.8 1.55l.05-.15.45.2 1 .5-.1.8.1.05v.2l.5 1.45.3.7.25.75v3.2l-.15 3.6-.85 1.7-.55.9-.1.2-.25.4-1.75.7-1.35.3-1.45.2" class="D"/><path d="M67.3 93.05l.7.5.35.25q1.35.95 1.85 1.9l.3.55.4 1.55.1 2.1q0 1.95-.55 3.5l-1 1.85-.15.25-.75.75-1.95 1.3-.4.2-.05.05q2.75-1.35.35-.8h-.05l.25-.4.1-.2.55-.9.85-1.7.15-3.6V97l-.25-.75-.3-.7-.5-1.45v-.2l-.1-.05.1-.8M65.55 108l1 1.15 1.55 2.1.05.1.3.55.25.5.15.5.05.2.1.3v.05l.1.3-.75-.2.05.1-.3-.15-.15-.15-.4-.35-.5-.6-.85-.9-1.5-1.1-.7-.5q-.8-.55-.95-1.2l1.45-.35.2-.05.15-.05.05.05.65-.3" class="G"/><path d="M60.1 108.85h-1l-.4-.1-.2-.1-.3-.25-.35-.3.75.05h.4.1l.1.05h2.7l1.45-.2 1.35-.3 1.75-.7h.05q2.4-.55-.35.8H66l-.45.2-.65.3-.05-.05-.15.05-.2.05-1.45.35-1.15.15h-1.8" fill="#2e1816"/><path d="M68.6 88.4l-.3-.65-1.8-3-.05-.1-2.15-3-.4-.4.1.25q-2.95-3.2-5-3.25l3.1-2 2.5 1.7.1-.1.2.2.3.2.55.5-.8.2.15.1v.05h-.5q0 .25-.25.25l.1.2 2 3.4 1.35 2.55 1.25 2.65-.45.25" class="D"/><path d="M65.75 78.75l.75.8.1.1.9 1.2.4.5.25.45.1.05.5.9h-.05l.3.55.7 1.15L71 87.8l.3.9q.7 2.1.7 3v.25l-.6-.35v-.15l-.2.15-.25-.2-.7-.8-.6-1.05-.25-.45-.15-.4-.2-.55-1.25-2.65-1.35-2.55-2-3.4-.1-.2q.25 0 .25-.25h.5v-.05l-.15-.1.8-.2" class="G"/><path d="M57.9 82.45l.45-3.75.65-.45q2.05.05 5 3.25l-.1-.25.4.4 2.15 3 .05.1 1.8 3 .3.65.1.3.3.85.15 1.3-.1.85-.15.3-.55-.3-.75-.55-1.65-1.45-.15-.15v-.05q-4.3-3.35-7.9-7.05" class="C"/><path d="M68.9 92l.15-.3.1-.85-.15-1.3-.3-.85-.1-.3.45-.25.2.55.15.4.25.45.6 1.05.7.8.25.2.2-.15v.15l.6.35-.05.35-.05.2-.1.2-.55.35-.8-.45h-.15-.05l-.95-.4-.4-.2" class="B"/><path d="M57.9 82.45q3.6 3.7 7.9 7.05v.05l.15.15 1.65 1.45.75.55.55.3.4.2.95.4h.05.15l.8.45-1 .2h-.55l-2-.45-.35-.2-.2-.1-1.2-.7h-.05l-.1-.1v-.1q-4.85-3.45-8.1-7.25l.2-1.9" class="F"/><path d="M60.95 79.55h.1l-1.5-3.4 2.75 2.8.4-.2.2.4.2.4.7 1.4.1.3.8 2.8.3 1.1-1.25-2-.1-.3-.45-1.15-.1-.2-.35.25-.9-1.2-.15-.15-.55-.65-.15-.15-.05-.05m-21.25 25.7l-4.9-3.35-2.8-6.95v-.05q-.75-1.7-.75-3v-.3l.45.05-.35-.65-.4-.85v-.85l.1.1-.15-.6-.15.05-2.6 1.1-2.6.9 1.7-3.55-.6.2 4.5-8.65 13.9.3-1.25 3.5h-.5l-.8 2.9-.5 2.35.2.8v.1h-.05l.05.05-1.6 9.75h-.25l-.8-.05v.05l.15.2-1.15.35 1.15 6.1m-4.85-25.3l.1.05.05-.15-.15.1M27.6 87.2l-.25.05h.1l.15-.05m4.15 2.9l-.1.2.1-.15v-.05m4.9-5.85l-.05-.05-.05.05-.2.2.25-.2h.05" class="C"/><path d="M24.55 91.1l.3-.7v-.05l1.1-1.95.55-.7.1-.1.05-.1.6-.2-1.7 3.55-.3.6-.7-.35m39.6-12.95l-.05-.05v-.05l.5-.2h.1l-.55.3m.9-.5l.2-.05-.45.25.1-.1.1-.05.05-.05M27.6 87.2l-.15.05h-.1l.25-.05" class="E"/><path d="M46.2 82.65h1l.6-.1 7.35-1.1 2.05-.5 1.85-.6.3-.1.85-.3.75-.4.05.05.15.15.55.65.15.15.9 1.2.75 1.2.55 1.1-.3-.9 1.25 2 .45 1.85.05.3.3 2.25v.6.05.6.9l-.1-.1v.1.6l.1.05h.05l-.15.7-.1-.05-.3 1.45-.1.2-.2.65-.3.95-.35.7-.45-.25v-.1l-.1-.15-.1-.2q-.25-.35-.5-.35-.3 0-.7.35l-.8.85-.95 1.2-1.45 1.3-1.5.85-1.6.75q-1.3.55-1.7.85-.7.5-2.1.65h-1.85l-2.35-.25-1.4-.45q-.85-.4-1-.6l-1.4-2.6q-.3-.95-.3-2.7 0-1.55 1-5.1 1-3.55 1-6.75l-.1-1.6h.2m11-.1l-1.65.55-1.75.8-1.1.9-.6.65.1.5.3 1.85-.1 1.6-.6 4.05q0 .85 1.5 1.4l2 .4q1 0 2.3-.85.9-.55 1.45-1.25l.5-.85.25-.6q.7-1.9.8-4.2v-.55-1.6l-.65-1.7-.9-.5-1.75-.6h-.1" class="H"/><path d="M65.7 93.05l-.4 1.4.3-1.45.1.05m-30.9 8.85l-3.55-2.4q-5.1-1.25-7.7-5.95l1-2.45.7.35.3-.6 2.6-.9 2.6-1.1.15-.05.15.6-.1-.1v.85l.4.85-.1.6v.3q0 1.3.75 3h-.05l.05.05 2.8 6.95m29.35-23.75l-.65.2.2-.1.4-.2v.05l.05.05" class="D"/><path d="M47.3 79.45l-1.1 3.2H46l.1 1.6q0 3.2-1 6.75-1 3.55-1 5.1 0 1.75.3 2.7l1.4 2.6q.15.2 1 .6l1.4.45 2.35.25h1.85q1.4-.15 2.1-.65.4-.3 1.7-.85l1.6-.75 1.5-.85 1.45-1.3.95-1.2.8-.85q.4-.35.7-.35.25 0 .5.35l.1.2.1.15v.1l.45.25-.35.65q-1.8 3.35-5.5 5.75v.05q-1.7 1.1-3.5 1.85l-.7.3v-1l.2-.05v-.6l-.2.1-5.35 1.6-4.45.3h-1.15l-1.4-.5-.55-1.05-.1-1.1-.6-4.05-.1-.5v-.1l1.6-9.75-.05-.05h.05v-.1l.35-.8.75-2.45.7-2.8h-.2l1.25-3.5 2.05.2.2.1" class="I"/><path d="M64.6 77.85v-.05l.65-.35-.2.2-.05.05-.4.15m-1.5 3.65l.1.2q-.2 0-.1-.15v-.05m.55 1.35l.1.3.3.9-.55-1.1.1-.05.05-.05m4.6-1l-.1-.05-.25-.45.35.5m.25 32.7v.05h-.15l.15-.05m-33.65-34.6l.15-.1-.05.15-.1-.05m1.8 4.3h-.05l-.25.2.2-.2.05-.05.05.05" class="B"/><path d="M47.3 79.45l11.8-3.7.45.4 1.5 3.4h-.1l-.75.4-.85.3-.3.1-1.85.6-2.05.5-7.35 1.1-.6.1h-1l1.1-3.2m9.9 3.1h.1l1.75.6.9.5.65 1.7v1.6.55q-.1 2.3-.8 4.2l-.25.6-.5.85q-.55.7-1.45 1.25-1.3.85-2.3.85l-2-.4q-1.5-.55-1.5-1.4l.6-4.05.1-1.6-.3-1.85-.1-.5.6-.65 1.1-.9 1.75-.8 1.65-.55" fill="#fcf0d8"/><path d="M54.3 105.55l-1.1.4-.6.2-.8.25-1.2.3v-.05l-2.8.35-1.8.1-3.8-.2-.9-.15-.4-.55-.2-.1v-.1l.05-.05v-.05h-.05l-1-.65-1.15-6.1 1.15-.35-.15-.2v-.05l.8.05h.25v.1l.1.5.6 4.05.1 1.1.55 1.05 1.4.5h1.15l4.45-.3 5.35-1.6.2-.1v.6l-.2.05v1m-34.05-27l-.95-.1h1.85l-.9.1M42.2 88.7l-.2-.8.5-2.35.8-2.9h.5.2l-.7 2.8-.75 2.45-.35.8" fill="#fe8e5f"/><path d="M31.75 90.1v.05l-.1.15.1-.2" fill="#bf0a0a"/><path d="M62.75 81.75l.35-.25v.05q-.1.15.1.15l.45 1.15-.05.05-.1.05-.75-1.2m3.05 31.75l.2-.2.35.35-.55-.15M31.35 91l.35.65-.45-.05.1-.6" fill="#762c2c"/><path d="M29.35 107.85l-.2.05.15-.1.05.05" fill="#e12b04"/><path d="M38.95 98.5l.6.1.9 2 .15.7-.65.05-.4-1.2-.6-1.65m-6.8 11.5l-2.55.45-2.55-.3-.2-.05h-.05l-.95-.95.2.05v.1l.9.3 1.4.2 2.95-.2h.15l1.15-.45h.1l.45-.15.4-.2q0 .4-.65.8l-.25.2-.5.2" class="E"/><path d="M29.15 107.9h-.9q-2.45-.1-3.7-1.8-1.3-1.7-1.3-4.7l.25-2.3 1.1-2.65q.6-1.05.6-2.05-.05-.65 1.25-1.95l-.1.55-.15.8q0 1.9 2.15 4.9 2.2 3 3.45 2.8-.05.55.2 1.4.3 1.05.85 1.55-.65 0-2 .55-2 .8-2 2l.3.6.15.2-.15.1m-3.9 3.85l.25-.25.3-.4h.05l1.4.55q1.1.55 1.6.55v.25l-1.3.8-1.7.55h-.05l-.3-.05-.35-.1-.05-.05-.25-.1v-1.2l.1-.15.3-.4" class="G"/><path d="M22.85 113.7l.2-.4.3-.8.2-.6q.9-2 1.7-2.5-1.8-1.1-2.8-3.2l-.45-.95-.55-1.85v-.2l-.2-1.9.2-2.1.3-1.35q.4-1.65 1.55-3.8l1.25-2.95L32 94.9l.05.1 1.6 3.05q.8 1.45 2.6 2.7 1.15.8 1.15 2.5 0 1.35-2.1 2.85l-2.95 1.55.5.25q.3.3.55.3l-.25.8-.45.15h-.1l-1.15.45h-.15l-2.95.2-1.4-.2-.9-.3v-.1l-.2-.05.95.95h.05l.2.05 2.55.3 2.55-.45.2.85q0 1.5-2.7 2.95-2 1.1-3.8 1.3h-.35-.35q-1.1 0-1.6-.5l-.3-.45-.4-.45m6.45-5.9l-.15-.2-.3-.6q0-1.2 2-2 1.35-.55 2-.55-.55-.5-.85-1.55-.25-.85-.2-1.4-1.25.2-3.45-2.8-2.15-3-2.15-4.9l.15-.8.1-.55q-1.3 1.3-1.25 1.95 0 1-.6 2.05l-1.1 2.65-.25 2.3q0 3 1.3 4.7 1.25 1.7 3.7 1.8h.9l.2-.05-.05-.05m-4.05 3.95l-.3.4-.1.15v1.2l.25.1.05.05.35.1.3.05h.05l1.7-.55 1.3-.8v-.25q-.5 0-1.6-.55l-1.4-.55h-.05l-.3.4-.25.25" class="D"/><path d="M32 94.9l4.05 2.1q1.3 1.1 2.8 1.45l.1.05.6 1.65.4 1.2v.05l-.4.1q.25.9-.25 1.9l-.85 1.3.7.3.1.4q0 .8-.9 2.5l-.65 1.15-1.15 1.75-1 1.4-.45.4-.85.55.2-.1v.1l-.65 1.05-.5.25q-4.15 2.1-6.35 2.9l-1 .35h-.1l-.35.1-.5.05-1.35-.15-.75-.35-.35-.35q-.4-.4-.4-1l.7-2.3.4.45.3.45q.5.5 1.6.5h.35.35q1.8-.2 3.8-1.3 2.7-1.45 2.7-2.95l-.2-.85.5-.2.25-.2q.65-.4.65-.8l-.4.2.25-.8q-.25 0-.55-.3l-.5-.25 2.95-1.55q2.1-1.5 2.1-2.85 0-1.7-1.15-2.5-1.8-1.25-2.6-2.7L32.05 95l-.05-.1" class="C"/><path d="M40.6 101.3l.3 2.1v.6l-.1 1.25-.05.65-.05.1v.1l.2.1.4.55-.15-.05.15.6-.1.6q-.4 1.9-3.55 4l-1.1.75-2.75 1.55.65-1.05.1-.15h-.05l-.05.05-.2.1.85-.55.45-.4 1-1.4 1.15-1.75.65-1.15q.9-1.7.9-2.5l-.1-.4-.7-.3.85-1.3q.5-1 .25-1.9l.4-.1v-.05l.65-.05" class="F"/><path d="M31.05 89.4l-.15-.6 1.15-.6q1-.6 1.85-1.5l1.1-1.2q.85-.35 1.35-1.05l.25-.2h.05q.9 1.1 1.8 3.35 1.1 2.8 1.1 5.1 0 1.2-.3 1.6-.3.55-1.2.55-1.85 0-4.05-2.15l-2.25-2.55v-.05l-.1.2-.45-.7-.15-.2m6.9 3.05q0-1.6-.8-3.85-.85-2.45-1.6-2.45l-1.1.8-.8.85-1.1.85-.4.4-.05.05 2 2.4q2.15 2.3 3.15 2.3.7 0 .7-1.35" class="D"/><path d="M36.65 84.25l3.1.15.1.2.55 1.25.1.25v.05l1.05 2.8.05.2.15.95-.2.1-.25 4.1q-.6 3.1-2.45 3.1l-1.75-.3-.15-.1-2.75-2.75-2.55-3.95.1-.15L34 92.7q2.2 2.15 4.05 2.15.9 0 1.2-.55.3-.4.3-1.6 0-2.3-1.1-5.1-.9-2.25-1.8-3.35" class="C"/><path d="M42.4 90.15l.2 1.35v2.35l-.05 2.45q-.35 2.15-1.95 2.3h-.25l-.8-.05v.05l-.6-.1v-.05q-1.5-.35-2.85-1.45h.85l.15.1 1.75.3q1.85 0 2.45-3.1l.25-4.1.2-.1.05.1.6-.05" class="F"/><path d="M37.95 92.45q0 1.35-.7 1.35-1 0-3.15-2.3l-2-2.4.05-.05.4-.4 1.1-.85.8-.85 1.1-.8q.75 0 1.6 2.45.8 2.25.8 3.85" class="G"/><path d="M39.75 84.4q0-.95 1.05.6l.9 1.85.25.9.05.15.2.8-.05.1.25 1.35-.6.05-.05-.1-.15-.95-.05-.2-1.05-2.8v-.05l-.1-.25-.55-1.25-.1-.2M36.1 97l-1.5-1.5-.4-.5h-.05l-2.45-3.35-.35-.65-.4-.85v-.85l.1.1.15.2.45.7 2.55 3.95L36.95 97h-.85" fill="#3f211f"/><path d="M33.25 65.35l-.3 1.9.2 1.75.35 1.6.15.5q.6 1.7 1.5 2.5l.1.1.8.5.5.2.5.2 3.05.45 3.3-.45 1.1-.5 2.3-1.25q.3-.25.35-.25.75 0 .85-.9v-.6-.45l-.1-1.4-.05-.25q-.35-1.85-1.55-3.9l-1.1-1.6.1-.05q1.6 1.1 2.5 2.5.9 1.3 1.15 3.05l.05.25.05 1.35v.5L48.9 73l-.7 1.6-.85 1.3h-.3l.15.3.35.5.55.6 1.3.5.15.1 3.45.5 2.1-.3 1.85-.9.8-.5.8-.6.05-.05.35-.3.6-.55.2-.2.4-.4.35-.4.15-.25.7.55.15.1q.9.6 1.55.6h.05q.7 0 1.4-.6l.6-.65.45-.75.25-.5.35-.7.3.15-.25-.25.2-.5q0-.4-.5.25l-.2.2-.1-.75q-.2-.7-.7-.7-1.45-.1-2.1-.8l-.35-.35-.4-.5-.6-1.05q-.15-.45-.15-2.3l.05-1.55.15.05.2 3q.6 1.8 2.5 1.8 3.1 0 4.05-3.6.45-1.5.45-4.35V59.7q-.1-2.4-.4-3.6l-.25-.7Q67 53 64.5 55.6l-.15.05-.05-.45-.05-1.6-1.75 1.75-1 1.35-1.4 1.6-.25-1.9-1.5 1.65Q56.8 59.85 56 60.3l-.7-1.1-.55 1.4q-.55 1-.85 1l-.9-.05-1.8-.45h-.25l.1.65q-4.3-1.4-6.4-1.75l-3.2-.4-2.2-.45v-.05q-.9-1.9-1.7-2.9l1.6.8 3.45 1.3 7.8 2.4.3-.05.05-.15-.15-.5q1.2.55 2 .6h.25.25l.1-.05v-.05l1.55-7.65L67.5 47v1.7.15l.05.35v.5l.05.2v.75.4.3q.05 1.65.3 1.65.3 0 .65-.5l.05-.15.1.1.25.6.35.95.15.5.55 2.3-.2 1.45v.05l-.3 1.4.25 3.5q.25 2.45.55 3l.3-.7.1-.2.2-.6.6-1.5-.05.3v.2l.25 1.4.05.5.05.3.05.4.1.7.05.05.05 1.1.05 1.1-.1.7-.4 1.15-.55 1.1-.35.5-.05.05.05.05-.4.45v-.05l-.35.4-.4.45-.3.3-.2.25-.7.6-.05.05-.9.75-.05.05-.95.65-.8.5-.2.1-.1.1-.35.1.2-.2-.65.35v.05l-.9.4-.2.1-.3.15-.5.25-.55.3v-.05l-.35.15-.8.4h-.05l-.75.4-.35.1-.5.2-.3.1-1.85.6-.15.05-1.85.45h-.05l-4.3.75-.25-.55-.05-.2h-.05l-4.55.05-4.85-.1q-2.5-.25-4.55-1.05l-.05-1.9-.05-.15-.9.15-4.55.9-.15-.75-.05-.15q-.25-.5-.75-.55l-.2-.45.15-.2.15-.5-.05-.35.05-.1 1.2.7 1.65.85q.45 0 .45-.35 0-.25-1.5-2.75v-.05L30.25 72l-.1-.2.2-.1h.8l.2-.1.1-.2-.1-.3-1.5-2.1-.4-.6-2.5-3.8-.65-1.2.45-.3.1-.05.2-.35-.6-1.25q-.6-1.25-.6-2.3l.45-1.4.3-.45.05-.05.35-.65q.9.6 1.15.6.3 0 .35-.4l-.05-.5 2.85 1.6q1.25.6 4.95 1l.8.15 1.3.25.4.1v.5l-1.6.1h-.1l-4-.4-2.1-.3q-1.35-.2-1.9-.6l.1 1.05-.9-.45-.95-.2.35 1.8q.3 1.45.3 2.3 0 .55-.25 1l-.2.2 2.6 3.35.95 1.25q.75 1.1 1.1 2.1l.2 1.2h-.65l.95.75.05.05q.2.15.45.25h.15l-.7-2.25-.1-.4-.25-1.7v-.8q0-1.55.5-3l.5.15m39.95-7.9l.5-.05.3.2.2-.1.1-.1.35-.2h.05l.4.6-.45.1q-.95.4-1.45 1.85.7-.3 1.1.8l.35 1.35v.7.7l-.55 1.8-.2.4q-.55.9-1.25.9l-.05-.2-.1.1-.3-.3-.15-.25.85-.85.3-1.2-.2-.7-.2-.7.45-.4.05-.4q0-1.2-.85-1.5l-.25-.1 1-2.45M17.35 69.7l-.05.5.25.9q.35.8 1.5 1.2l-.4.65q0 .45.9.8l1.35.25q.6 0 1-.35l.75-.85.65.5.65.3h.1l-.4.8-.1.2-.25.4-.05-.15-.15-.25-.45-.5-.2.5-.1.1-.9.4q-.7.4-1.15.4-.9 0-2.2-.8l-.15-.1q-1.1-.8-1.4-1.7l.1-.1.1-.3.05-1 .05-.4.05-.3.45-1.1" class="I"/><path d="M73.7 57.4v-.1q0-.45.3-.6l.65-.1.1.05q.9.2 1.05 1.05v.25q0 .45-.3.45l-.4-.6-.4-.6h-.05l-.35.2-.1.1-.2.1-.3-.2" fill="#c8a451"/><path d="M33.25 65.35l-.5-.15q-.5 1.45-.5 3v.8l.25 1.7.1.4.7 2.25h-.15q-.25-.1-.45-.25l-.05-.05-.95-.75h.65l-.2-1.2q-.35-1-1.1-2.1l-.95-1.25-2.6-3.35.2-.2q.25-.45.25-1 0-.85-.3-2.3l-.35-1.8.95.2.9.45-.1-1.05q.55.4 1.9.6l2.1.3 4 .4h.1l1.6-.1v-.5l.2.1q.3 0 .25-.1l.05-.25 2.2.45 3.2.4q2.1.35 6.4 1.75l-.1-.65h.25l1.8.45.9.05q.3 0 .85-1l.55-1.4.7 1.1q.8-.45 2.35-2.25l1.5-1.65.25 1.9 1.4-1.6 1-1.35 1.75-1.75.05 1.6.05.45.15-.05-.1.15q-1 1.15-1.9 3.75h-.05l-.7 2.4-.25 2-.15-.05-.05 1.55q0 1.85.15 2.3l.6 1.05.4.5.35.35q.65.7 2.1.8.5 0 .7.7l.1.75-.4.65.15-.6-.75.8-.85.6-1.75.3-.85-.2-.3-.1.05-.4v-.2h-.1l-.4.3v-.3l-.1-.8h-.3l-.35.65-.15.15-.65.8-.7.7-.4.4-2.65 1.7h-.1l-1.35.4-1.85.35-2.8.05v.1l-.5-.2-.1.1.7.45.05.05.1.1.05.1-1.3-.5-.55-.6-.35-.5-.15-.3h.3l.85-1.3.7-1.6.15-1.9v-.5L49 69.25l-.05-.25q-.25-1.75-1.15-3.05-.9-1.4-2.5-2.5l-.1.05-.2-.2-.35-.4Q42.8 61 40.3 60.6h-2.6l-.65.1q-.95.25-1.7.9l-.3.3-1.1 1.55-.7 1.9M50.9 63.9l-.1.1h.05l.45.4 1.6 1.2q-.1.7-1.6 2.15l.4.55v.95l-.2 1.85q-.4 2.65-.85 3.2l.05.05q1.5-1.95 3.7-3l.55-.25q1.95-.8 3.9-.8H60l.4.05.4-.05-.2-1.05-.1-.5-.4-1.4-.55-1.55q-.5-1.35-.5-1.65l.55-1.05.5-1-.25-1.4.15-1.5-.6 1.2q-.5.9-1.4 1.35-2.4 1.2-3.1 1.2-4 1.2-4 .95m22.3-6.45l.6-.9.5-.55.35-.3.9-.8.4-.4.45-.4.5.7q.35.4.35 1.1l.05 2.3-.55 5.3-.6 2-.15.45-.05.15-1.1 1.7-.8-.3.05-.05.15-.1h-.2-.3l-.05-.05h-.05q-.35-.1-.6-.35l-.35-.4-.05-.15q.7 0 1.25-.9l.2-.4.55-1.8v-.7-.7l-.35-1.35q-.4-1.1-1.1-.8.5-1.45 1.45-1.85l.45-.1.4.6q.3 0 .3-.45v-.25q-.15-.85-1.05-1.05l-.1-.05-.65.1q-.3.15-.3.6v.1l-.5.05M15.65 77.4l-1-1-1-1.3-.3-.5-.5-.85-.3-.5v-.1l-.3-.65-.1-.05-.45-.95.15.05-.1-.45-.2-1.4V69v-.05l.05-1 .15-.9.8-.35.05-.15.1.05.15-.05q1.2-.8 2.45-.8 1.6 0 2.95.95 1.25.9 1.3 1.95-1.7-.4-2.5.35-.8.6-.85 2.1l-.05.5.1.6.3.7q.3.9 1.4 1.7l.15.1q1.3.8 2.2.8.45 0 1.15-.4l.9-.4.1-.1.2-.5.45.5.15.25.05.15-.65.75-1.8 1.35q-.95.5-2 .5l-1.1-.1-1-.3-.05.2.1.05-1.15-.05" class="H"/><path d="M71.75 65.6l-.05-.5-.25-1.4v-.2l.05-.3.1-.35.55-2.85.05-.1.25.1q.85.3.85 1.5l-.05.4-.45.4.2.7.2.7-.3 1.2-.85.85-.15-.25-.15.1m-54.4 4.1l.2-.2q.4-.4 1.05-.4l.95.1q1.3.25 2.3 1.35l.55.55.8.9.25-.05.7 1.15-.1.5h-.1l-.65-.3-.65-.5-.75.85q-.4.35-1 .35l-1.35-.25q-.9-.35-.9-.8l.4-.65q-1.15-.4-1.5-1.2l-.25-.9.05-.5" fill="#c6a04a"/><path d="M30.9 79.2l4.55-.9.9-.15.05.15.05 1.9q2.05.8 4.55 1.05l4.85.1 4.55-.05h.05l.05.2.25.55-3.05.35-.6.1h-4.7q-6.15-.2-7.45-1l-.4.75.8-1.7.05-.55.05-.5q.1-.5-.35-.5l-.6.3q-.35.3-.75.3l-.45-.1-.95-.1q0 .2-1.15 0l-.25.2-.05-.4m41.15-11.05l-.05-1.1-.05-.05-.1-.7-.05-.4-.05-.3.15-.1.15.25.15.25.3.3v.1h.1l.1.15.35.4q.25.25.6.35h.05l.05.05.3.15.8.3-.2.15q-.75.55-1.65.55h-.4l-.55-.35m-47.9 4.95l.2.4.35.5-.15.4h.1l.3.4-.1-.1v.1q0 .85-.4 1.7l-.1.2-.4.55-1.15 1.05-.45.25-2.2.45h-.1l-.75-.05V79l-.45-.05v-.05l-.6-.15-1.1-.45-1.5-.9 1.15.05-.1-.05.05-.2 1 .3 1.1.1q1.05 0 2-.5l1.8-1.35.65-.75.25-.4.1-.2.4-.8.1-.5m-.6 3.25l.15.1.05-.05-.2-.05" fill="#fe8e5f"/><path d="M45.2 63.5l1.1 1.6q1.2 2.05 1.55 3.9l.05.25.1 1.4v.45.6q-.1.9-.85.9-.05 0-.35.25l-2.3 1.25-1.1.5-3.3.45-3.05-.45-.5-.2-.5-.2-.8-.5-.1-.1q-.9-.8-1.5-2.5l-.15-.5-.35-1.6-.2-1.75.3-1.9.7-1.9 1.1-1.55.3-.3q.75-.65 1.7-.9l.65-.1h2.6q2.5.4 4.35 2.3l.35.4.2.2m19.3-7.9q2.5-2.6 3.55-.2l.25.7q.3 1.2.4 3.6v1.05q0 2.85-.45 4.35-.95 3.6-4.05 3.6-1.9 0-2.5-1.8l-.2-3 .25-2 .7-2.4h.05q.9-2.6 1.9-3.75l.1-.15m-20.15 8.1l-.05-.05-.3-.55-.15-.15-.15-.15-.1-.1h-.1q-1-.8-2.15-1.2h-.2l-.35-.1-.85-.1q-.55.15-.75.8l-.05.1q-1.2.1-2.1.6-1 .55-1.5 1.65-.5 1.05-.5 3.3l.1 1.25.4 1.9.1.2.9 1.35.5.45q1.15.8 2.9.8 1.55 0 2.95-.6 1.2-.5 1.4-1h.5q.9 0 1.25-.9l.05-.1.1-.9-.1-.6-.3-.35-.85-.25-.25-.6.65-1q.35-.85.35-1.85l-1.35-1.85m18.95-3.65q-.5 1.45-.5 3.05l.3 2.15q.65 2.05 1.95 2.05 1.25 0 2.05-2.6.8 0 .8-1.3 0-1.2-.6-1.5v-.1-.3q.55-.15.9-.7l-.1-2.4-.6-2.5-.8-.45q-1.25-.4-1.65 1.15l-.15 1.15q-1.05.55-1.6 2.3" fill="#5e0f04"/><path d="M40.8 61.4q-1.25 1.2-1.25 1.85 0 1.45.45 2.7.85 2.45 3 2.45 1.4 0 1.9-1.4l.2-1.5-.4-1.1999-.35-.6001 1.35 1.8501q0 1-.35 1.8499l-.65 1 .25.6.85.25.3.35.1.6-.1.9-.05.1q-.35.9-1.25.9h-.5q-.2.5-1.4 1-1.4.6-2.95.6-1.75 0-2.9-.8l-.5-.45-.9-1.35-.1-.2-.4-1.9-.1-1.25q0-2.25.5-3.3.5-1.1 1.5-1.6499.9-.5 2.1-.6001l.05-.1q.2-.65.75-.7999l.85.0999m22.5-1.3499q.55-1.75 1.6-2.3001l.15-1.15q.4-1.5499 1.65-1.15l.8.45.6 2.5.1 2.4001q-.35.5499-.9.6999v.3001.0999q.6.3.6 1.5 0 1.3-.8 1.3-.8 2.6001-2.05 2.6001-1.3 0-1.95-2.0501l-.3-2.15q0-1.6.5-3.0499m2.2-1.75l.2 1.4499q.4 1.15 1.3 1.15.75 0 .9-2 0-2.2-1.2-2.7-1.2-.45-1.2 2.1001M66.65 63.9l.25.4001.2.0999q.45 0 .5-1 0-1-.55-1.15-.55-.15-.55 1.0501l.15.5999M44.4 71.6h.7l.35-.5.15-.85q0-.85-.65-.6999l-.15.0499h-.1q-1 .35-1 1.35l.1.15.2.25.4.25" class="E"/><path d="M50.9 63.9q0 .25 4-.95.7 0 3.1-1.2.9-.45 1.4-1.35l.6-1.2-.15 1.5.25 1.4-.5 1-.55 1.05q0 .3.5 1.65l.55 1.55.4 1.4.1.5.2 1.05-.4.05-.4-.05h-1.15q-1.95 0-3.9.8l-.55.25q-2.2 1.05-3.7 3l-.05-.05q.45-.55.85-3.2l.2-1.85v-.95l-.4-.55q1.5-1.45 1.6-2.15l-1.6-1.2-.45-.4.05-.1m14.4 8.6h-.05v.05l-.1.15-.85 1.1-.9.8h-.2-.35q-.55-.1-1.25-.6l-.7-.5.05-.2.3.1.85.2 1.75-.3.85-.6.75-.8-.15.6m-4.8.5l-.05.1-.7.8-.5.7-.3.4-.15.2-.1.1-.85.75-.9.65h-.1l-1.75.8-3 .4-2.1-.2-.1-.1-.8-.4v-.1l2.8-.05 1.85-.35 1.35-.4h.1l2.65-1.7.4-.4.7-.7.65-.8.15-.15.35-.65h.3l.1.8v.3" fill="#fcf0d8"/><path d="M44.35 63.7l.35.6.4 1.2-.2 1.5q-.5 1.4-1.9 1.4-2.15 0-3-2.45-.45-1.25-.45-2.7 0-.65 1.25-1.85l.35.1h.2q1.15.4 2.15 1.2h.1l.1.1.15.15.15.15.3.55.05.05m22.3.2l-.15-.6q0-1.2.55-1.05.55.15.55 1.15-.05 1-.5 1l-.2-.1-.25-.4m-1.15-5.6q0-2.55 1.2-2.1 1.2.5 1.2 2.7-.15 2-.9 2-.9 0-1.3-1.15l-.2-1.45M44.4 71.6l-.4-.25-.2-.25-.1-.15q0-1 1-1.35h.1l.15-.05q.65-.15.65.7l-.15.85-.35.5h-.7" fill="#f4f7fc"/><path d="M65.7 71.85l.2-.2q.5-.65.5-.25l-.2.5-.05.1-.35.7-.25.5-.45.75-.6.65q-.7.6-1.4.6h-.05q-.65 0-1.55-.6l-.15-.1-.7-.55-.15.25-.35.4-.4.4-.2.2-.6.55-.35.3-.05.05-.8.6-.8.5-1.85.9-2.1.3-3.45-.5-.15-.1-.05-.1-.1-.1-.05-.05-.7-.45.1-.1.5.2.8.4.1.1 2.1.2 3-.4 1.75-.8h.1l.9-.65.85-.75.1-.1.15-.2.3-.4.5-.7.7-.8.05-.1.4-.3h.1v.2l-.05.4-.05.2.7.5q.7.5 1.25.6h.35.2l.9-.8.85-1.1.1-.15v-.05h.05l.4-.65" fill="#8f3434"/><path d="M19.55 68.65l.3.05.75.3q.95.4 1.75 1l.1.1 1.7 3-.7-1.15-.25.05-.8-.9-.55-.5499q-1-1.1001-2.3-1.3501l-.95-.1q-.65 0-1.05.4l-.2.2-.45 1.1001-.05.2999-.05.4-.05 1-.1.3001-.1.0999-.3-.7-.1-.6.05-.5q.05-1.5.85-2.1.8-.75 2.5-.35" fill="#95762f"/><path d="M64.3 17.1q2.8 2.05 4.8 4.85.8.4 1.2-1.25l.1.15Q70.05 22.3 69 22l-.75-.9q-2-2.4-3.95-4m9.15 9.4l.1.1v.1l-.1-.2m-12.2 29h-.05q-.35-.2-.35-1.45l.15 1.1.25.35M32.4 79.3l.5.05h-.1l-.4-.05m-7.7-3.65l-.85-3.1.25.45.2.4.35.5-.15.4h.1l.3.4-.1-.1v.1l-.1.95m-11.2-9.6l-.4.25.2-.15.2-.1M3.25 26.4q.6-4.35.85-8.15 0 5.35-.65 7.45l-.2.7m.95-9.35V17l.65.7-.6-.6-.05-.05m14.15-1.2l.1-.1.15-.1-.25.2m1.75.65l.45.2h-.15l-.3-.2m-3.6-4.6l-.15-.1.15-.15v.25m-2.8-6.45l-.15-1.2.1.85.05.35m16.7 12.9l-.3-1.25.15.6.15.65M27.2 6.1l.65-.7-.4.45-.25.25m35.15 14.95h.1v.05l-.05.15-.05-.2m10.2 45.25h-.1v-.1l.1-.1.05.2.05.15-.1-.15m-.1 2.05L72 68.2l.05.45v.25.25L72 68.2v-.15l.55.35-.1-.05m1.6-1l-.05.05-.3-.15h.3.2l-.15.1M50.8 63.9h-.05l.1-.1-.05.1m15.6 8.15l-.3-.15.05-.1.25.25M8.65 22v-.05.05M34.8 79.75l-.1-.05.15-.1-.05.15M23.7 76.3l-.05.05h-.05l-.1-.1.2.05" fill="#ffff29"/><path d="M44.45 15.15l.05-.05q2.5-.75 3.1 2.35l.05.3-.15.05-.7-.35q-1.2-.5-2.2-.5-.4 0-.55.5l-.2 1.3q0 1.25 1.4 2l1.4 1.05-.35 1-1.15 1.15.75 1 .6 1.2q0 .7-.75 1.05l-2.1.95-.95.2-1.05.1q-.8.2-1.6 1.15l-.05.05h.05q1.2-.1 1.6.95.5 1.35 1.2 1.55l3.2-3.4q2-1.8 3.7-1.8l.7.1.2.1q.35.2.35.8l-.25.95-.25.75q0 1 1.25 2L54 33.5l-3.15.15q0-1.45-1.05-1.9-1.05-.5-1.05-1.5l.1-.9-.7.5-.9.6-.7.5q-.35.4-.5 1.35-.1 0-.35-.15l-.45-.1-.8.1q.1 1.05 2.9 5.3l.3.45q-.45 0-.9-.4v-.05l-.55-.9-.8-.5-.85-.3q-.9 0-.75 1.7v.2h-.15l-.9-1.1-.95-.5.25-1.15q0-1-.65-1.65l-.85-.7-.65-.4-.2-.85-.2-.85-.55-.65-.25-.7.15-1.75h-.25q-1.6 1.1-1.75 1.1l-.65-.15v.15q.4.3.45 1.1L37 30.7q.15.15 1.45.8.95.45.95.95l-.2.6-.2.7.1 1.5-.6-.4-.6-.4-.6-.6-.05-.5h-.95q-.6.1-.9.5-.35.45-.15 1.1l-.5-.4-.3-.5q-.35-.4-.65-.4h-.55q-.45-.1-.55-.9-.1-.9-.5-1.1l-.15.2-.15.05-.8-1.55q-.6-.7-1.45-.3l.35-2.7v-.5l-.4-1.3q-.35-.4-.8-.4l-.5.15-.3.15-.35-.8q-.3-.7-.55-.7l-1.15.45-.8.4q-.6 0-2.15-2-1.6-2.05-1.85-3.15v4l-.75.05-.4.25q-.55.45-.7 1.2l1.1.2h.4q.7.15.7.8l-.2.45-.15.45.65 1.7L23 31q-.7-.15-1.4.3-.85.45-.95 1.35l-.25-.1-1.4-.35q.25.9 1.4 1.2h.05l2.05.45.1 1.1L23 36q-.5 0-1.2-.35l-1.05-.3-.35.05h-.1l.1.2 1.05 1.85.2.4-.45.4-.8.4h-.1l.1.15 1.1 1.3 1 1.4-.2.25-.15.2.75.8q.75.6 1.25.6-.05-1.7 1.15-1.85l2.2.15q.6 0 1-.3h.8l.2 2.05.3.6q.35.05.5-.15l.3-.45.05-.05 1.15-.2 1.4.2.15.05 1.15.25q.7.1 1.2.5L37 45.5q.6.65 1.5 2.35l.6 1.25.4 1.5q0 .75-1.5.75l.8.3.85.5.45.6.05.6q.4-.15 1.7.45l1.35.85.15.1.1.25-.3-.15-2.3-.7-2.35-.65.15-.6.15-.65-.05-.3-.1.05-1.65-.15-1.7-1.5 1.7-.15.1-.05 1.55-.15v-1q-.95-1.7-2.45-2.8-1.8-1.35-3.7-1.35-1.6 0-1.8 1.25l.1 1.55q-.5 0-1.6-.7l-1.05-.8-.3-1.9q-.05-.55-.35-.85l-.7-.4h-1.15v.85l.15.7.2.45v.85q-.5.2-1.5-.5L22.3 44l-1.25-.6-.65-.3-.9-.45.3-.8q.35-.35.35-.6 0-.6-1.7-1.85l-2.15-1.55q.6.1 1.3-.4l.1-.1q.95-.75.95-2.35 0-.65-.6-1.05L17 33.5l-.95-1.05-.55-1.1h-.85L15 32.5l.3 1.45q0 .4-.15.7H14l-.7-.35-1.3-.8q0 1.85-.2 2.35l-.25-.5-.05-.6-.1-.3-.35-.65v-.05l-.6-.25q-.7-.15-.95-.4h.15l-.7-.4-6.35-4.5.65-1.8.2-.7q.65-2.1.65-7.45V17.2l.15.85v-.95l.6.6-.65-.7-.5-.55.35.4.15.1.05.1.75.8 3.65 3.75v.25l.5.6h.05l.1.1q1.55 1.5 1.55 2.1l-.05.2v.05l-.4-.45.3.6q.5.55.5 1.45-.1 1 .8 1l.65-.15.65-.2.45.1q.9.4 2.8 2.3l.1.1.5-.7.5-.1.75.05.6 1.1.3.7q.15.15.35.15v-.75l-.05-1.15q-.1-.65-.6-.8L17.95 28q-.65-.25-.8-1l-.2-.6.25-1.1.45-1.65-1.6-2.6.65.4q.7.6 1.3.9h1l-.5-.85-.35-.85.05-.65-.05-.55q-.15-.5-.75-.8v-.25q0-.4-.75-.85l.05-.05v-.15l-.6-.45-.05.35-.95-.45-.2-.05-.2-2.2-.1-3.45.35.8.25.45.35.65.65.95.25.3 1.85 1.8.1.05-.05-.25.6.05H19l.65.35.1.1.35.15.3.2h.15l.1-.35-.1-.8-.15-.15-2.3-2.2-1.6-1.3v-.25l-.15.15-.55-.5q-1.1-1.1-1.55-2.3-.5-1.3-.55-3.3v-.25l-.05-.35-.1-.85-.15-1.3-.15-1.1 1.45 1.4.2.75-.4-.1.5 1.2q.7 1.1 1.65 1.35l1 .35q1.25.7 1.15 2.3-.1 1.35.65 2.55l.95 1.2.3.25q2.1 1.85 2.1 2.7l-.8 3.45q0 .4 1.3 1.3 1.3.8 2 .95l.1-2q1.4 2.55 2.95 4.15-.2-2.7.4-3.45.4 1.3.9 1.6l.45-.2.15-.1.05-.1.1-3.05-.15-.65.55.6q.35.6.35 2.55l-.35 2.45-.3 3.3.05.7.85.35 1.9.65v-2.15q1.6.65 2.2.65 0-1.35.8-1.35.7 0 2.3 1.8l1.3-.4q2.6-.6 2.6-1.95 0-1.75-2.85-3.95-1.25-.8-2.15-1.5l-2.55-2-.15-.15 1.5-1.2q.7-.55.7-1l-.5-.6-.7-.7 1.5-.55.5-.25 1.45 1.05.1.1-.25.25-.65.4.15 1.1-.5.4-.3.45q0 .35.4.7l.45.35 1 .75.15.6.25.75q.5.9.95 1.2.7.45 1.55 2.15.85 1.65.85 2.45l-.25.85-.55.8 1.05-.15q.8-.15.8-.7-.5-1.45-.5-2 0-.85.45-1.55l.75-1.05-1.05-.6q-1-.65-1.1-1.25l-.1-2.35.05-.25.4.75v.05l.05-.05.05-.25 1-2.8m8.3 5.85l-.1-.35v-.1q.05-.75.85-2.15l.5-.95.35-1.35-.35-.8-.5-.7-1.05-.7-.8-.8 1.75-.05.25.25 1.85 1.85-.35-.05q1.3 1.05 1.45 2.35v.35l-.25 1.25-.3 1q0 .3 1.5 1.45l.4.65.1.95.5.55.85.5.65.8.15.75q0 .75-.35 1.1l-.3.75q0 .4.8 1 .4.35.3.8l-.2.8.2.55.2.55q0 .35-.4.65l.25.35.3.2.35.45.05.05q.4.9.4 2.9h.15v-.1l.25-.8.25-.6-.3-1.05-.15-.4-.2-.6-.25-1.85.1-2.15.05.05.15-.3-.05-.1h-.15l-.25-1.1-.25-.95q0-.4.25-.65l.4.5h.4l.15-2.4v-.15l-.05-.35-.05-.1.1-1.7.05.2.05-.15v-.05-.25l.4 1.05.3.85.3.75.5.7.4-.4.6.95q.35.8.65.8.2 0 .3-.15l.15-.1 1.35 2.1.25.15v-.4l.3.15.4-.45.2-.6-.4-.3.1-.2v-.15-.25-.3-1.35l1.05 1.4.25.4-.1.95-.4-.5.1.9v.25l-.3.35q-.35.15-.35.5l.25.6.6.65q.3.45.3 1.85v.1l-.3 1.25-.25.55-.1.45q0 .4.35.9l.3 1.25v.6l-.85.7.05-.65q0-1.2-.75-2.2l-.7-1.05-.05-.15q0-.7.65-1.15l.45-.5.2-.95q0-1.3-1.3-2.2-1.6-1.05-2-2v1.2h-.5l-.5-.75-.7-.75-.2.05v.25l.1 1.7v.2l-.1.1h-.3v.15l-.05-.05v.25l-.25.45-.45.45-.2-.15-.2.9q0 1.1 1.15 2.4l.5.55q.7.95.7 1.75v.15q0 1.2-.4 1.95l-.35.7-.95 2.05-.45-1.35-.3-.45-.05-.05q-.3-.15-.6.3l.1-.5V37l-.05-1.45q-.15-1.1-.95-1.7l-1.6-.95q-.7-.4-.9-.9.65.15 1.3-.45.7-.55.7-1.3 0-1.1-1.25-1.15-1.25-.1-1.25-1.55l.25-1.15.25-1q0-1.5-2.6-2.45-2.25-.8-2.5-1.95m20.8 5.6v-.9l-.3-3.25.1-.3 1.25 1.3 1.35 2.3.15.25q.95 2.05 1.3 3.5l.1.6.05.25v.2h.05l.05.55.05.55v1.25q-.05 2.45-.75 4.55l-.45 1.05-.55.6-.2-.15-.3.3-.35.4.35-3.35.5-.55-.25-.1-.2.1.4-4.5-.1.05.05-.2v-.55q0-.9-.35-1.4-.3-.5-.8-.5h-.35l.25.4.25 1.6v.45l-.1.7-.05.1h.05l.1.75-.8 8.2-1.05 1.6-.6.95-.25.35-1 1.35.15-1.65v-.05l.3-3.55.2-2.35.05-.05v-.1l.25-2.75.1-1.1-.1.1.15-.5.05-.2v-.1l.5-1.7v-.05q.55-1.95.7-4l.05-.35v-.1M31.3 71.5l-.2.1h-.8l-.4-.2.2.3.1.2h-.5l-.05-.1v.7h-.35l-.55-.55q-.25-.25-.6-.25l.45.85.4 1.15q-.85.1-2.2-1.3-1.25-1.3-2.15-1.05l.5-.35.35-.3-1-1.35h.15l.95.25 1.05.25.05-.05-.5-.5-.2-.3.15.05.15.05.3.05-.2-.25-1.6-1.75q-1.75-1.55-2.8-1.8v-.15h1.15l-.4-1.1-.45-1.1 1-.15V61.7q-1.75-1.8-2-2.5l-.15-2.75q0-1.15-1.65-2.95l-2.7-2.55-.15-.1h.65.85l.3.05 1.55.85 1.5 1.45 1.2 1.1.8.9h.15l-.15-1q.15 0 .15-.2l.55.55.8.45h.15l.15-.1.35.5-.05.1.15.1.65.95-.3.3v.05l-.65-.4q-.7-.45-.75-.45l-.1.15v.9l-2.55-1.35.45.7q.6 1.05.6 1.65l-.25 1.55.55 1.25.8 1.3.1 1.3.3 1.5-.05.55-.5.1 2.9 2.15 1.25 1.1 2 1.95.1-.05-.6-.8 1.6 1.5m-9 6.95l.45-.25 1.15-1.05.4-.55.1-.2.3-.75.1-.95v-.1l.1.1.3.05.9.05.2.05.3.05h.05l-.05.1-.45 1.3.05.5q.25.5 1.05.5h.05l-.6.9h-.2l.15.05-.05.15h.15l.05-.1.1-.1.35-.55.2-.25.25-.1.35-.1.4-.35.2-.15v1.65q-.15.8-1.15 1.25-1 .5-1 1.1l.15.6.15.55q0 1.35-.8 1.35-.35 0-.7-.35l-.5-.35q-.55 0-1.5 1l-.6.7-.1-.1.55-.9v-.85l-1.65-.15V82l1.3-1.05q.35-.6.35-1.1 0-.35-.35-.7l-.5-.7M6.4 48.55h.05l.1-.55.05-.65v-.9q0-1.7-.5-3.05l-.55-1.15Q4.05 40 .7 38.75l-.05-.05H.6l-.15-.05-.45-.2v-.1h1.55l.3.15.6-.05.55.05q2.7.15 4.3 1.95l.5.7.5.8q.1 1.1.5 1.2l.4.25q.5.45.45 1.25V47l1.65.95 2 .55q0-1.05.4-1.25l1.1-.1 2.75.85 1.25.35.95.3.35.1-.4-.05-1-.25h-1.4l-2.7.4-.7.2-.1.05-.4.4-.15.15-.5.4-.45-.15-.35.85-.05.05-.5.3-.85-.3-.05-.05-1.1-.85.35.85.45.75.6.8q.3.45.3.9l-.2.5-.2.55.3.75.4.8-.65.1-.05.5.15.65.15.75-2 .25v.15l2.3 1.35.1.1.65.4 1.25.25q.9.15.9.6l-.15.55-.15.45 2.1-.1h.8v-.1h1q.45.1.75.4l-.1.6q0 .8.55 1.5l-.2.2-.4.3-.2-.05-3.05-.35q-1.2.25-1.95.65l-.05-.1-.75.05-.75-.05V63.7h-.25q-.9.1-1.25-.5.35-.7.35-1.2l-.1-.75-.75-.25L8 60l-.65-.45L6.3 58.3q-.85-1.5-1.25-2.05H5l.15-.05.65.15-.15-1 .8-.3.35-.55q.35.35.95.35l.4-.05.35-.1-.9-1.65L6.8 51v-.25l-.05-.4-.05-.55v-.15l-.05-.4v-.15-.05l-.1.05-.15-.55M2.2 32.3l.05-.25.3-1.45 3.55 3.2.4.3v-.05l.4.25.3.15 1 .9.65.95q.35.5.25 1.15v.05l.1-.1.25-.05.2.1.3.35q.35.45.35.75h.3v-.5h.4l-.15.1q.3.45 2.45 2.25l2.45 1.85q-3.75-1.6-4.65-1.8-1-.25-1.25-1.1-.25-1-.75-1.2l-.7-.7-.1-.2q-.2-.8-.65-1.2L6.5 35.3l-.3-.2-.85-.35.05-.05.2-.1-.35-.35-.25.15-2.8-2.1m45.55 5.65V38l-.1-.1.1.05m26.15 6.6l-.6 1.6-1.5 1.5.05.1.5-.1.5.1q.05.4-.3.75l-.6.6-.4.85v.4.6l.05 1.2-.1.4q-.15.55-.15 1.05 0 .75.3 1.1v.65.35l-.1-.1-.35-.7q-.35-.75-.35-1.2L71 53l.15-.85q-.2-.2-1-.45l.45-1.35.3-.9.15-.35.3-.7 1.55-3.1.15-.25.85-.5m-.65 7.9l.75-.3v2.2l-.95.85-.5.5-.1-.2.3-1.5.1-.4.4-1.15m-3.75 21.5l.05-.05v1.4l-.45.6-.25.4-.1.25v.15l.2.7.45.85-1.15-.7q-.6-.35-1.15-.45v1.35l-1-.9-.4-.5-.05-.05.75-.45.4-.25.35-.2.2-.2.05-.05.4-.3.55-.45v-.05l.65-.55.05-.05.2-.25.25-.25m-56.9-45.4l-.3.3q-.1.25-.45.25l-.95-.8-.6-.65.45 1.8q.5 2 .5 3.4l.05.1.2-.45.15-.45q.15 0 .15-.15l1.3 1.2.3-3.05 2.05.2.3.1.7.55.4.85.75-.4.45.25-.15-1.85-.5.3-.3.25-.6-.1-.85-.45-.55-.35-.1-.1-.2-.4-.05-.05-.05-.15h-.05l-1.35-.15h-.4-.3M7.4 21.8l.1-.1-.05-.05-.05.15m1.25.2v-.05.05M30.1 81.4l1.55-1.05q.15.35.15 1 0 .95-.65 1.65-.35.45-1.05.55l-.8.15-1 .5-.2-.25.3-1.8.5-.15 1.2-.6m-1-11.2q-.3-.25-.75-.35.35.15.75.4v-.05m-.2 13.55q.3-.4 1.55-.65 1.05-.25.8-1.3l-1.25.55-.2.05-.95 1.25.05.1" fill="#dc864b"/><path d="M55.5 15.15q2.5 2.1 1.75-1.75 4 1.4 7.05 3.7 1.95 1.6 3.95 4l.75.9q1.05.3 1.4-1.15v-.15q1.7 2.4 2.1 4.2l.95 1.6.1.2-.05.35q-.15 2.05-.7 4v.05l-.5 1.7v.1l-.05.2-.15.5-.05.25-.6.65v-.15l.15-.7.05-.75v-.75-1.05-.95q-.1-1.05-.7-2.35l-1.4-2.35-.25-.4-1.05-1.4V25v.3.25.15l-.1.2.4.3-.2.6-.4.45-.3-.15v.4l-.25-.15-1.35-2.1-.15.1q-.1.15-.3.15-.3 0-.65-.8l-.6-.95-.4.4-.5-.7-.3-.75-.3-.85-.4-1.05v.25h-.1l-.1 1.7.05.1.05.35v.15l-.15 2.4h-.4l-.4-.5q-.25.25-.25.65l.25.95.25 1.1v.1.25l-.1 2.15.25 1.85.2.6.15.4.3 1.05-.25.6-.25.8v.1h-.15q0-2-.4-2.9l-.05-.05-.35-.45-.3-.2-.25-.35q.4-.3.4-.65l-.2-.55-.2-.55.2-.8q.1-.45-.3-.8-.8-.6-.8-1l.3-.75q.35-.35.35-1.1l-.15-.75-.65-.8-.85-.5-.5-.55-.1-.95-.4-.65q-1.5-1.15-1.5-1.45l.3-1 .25-1.25v-.35q-.15-1.3-1.45-2.35l.35.05m12.05 35.4v-.2l-.05-1.25-.05-.55-.1-.05q-.4.25-.75.6l-1.35 1.25q-1.05 1.1-2.15 2.55L62 54.45l-.1.15-.3.45-.15.25v.2l-.1-.05-.05.05h-.05l-.25-.35-.15-1.1v-.1-.05l-.5.4v.05l-.05.05q-2.4 2.25-3.35 4-.4-.15-.4-.6l.1-.55V57l-.15.25-.15.15.1-1.1v-.4-.25q0-.95-.3-1.45l-.1-.1-.9-1.1v-.3h1.05l-.15-.65-.5-1.75v-.65l.5.1.25.1.45.3.05-1.05.05-1.05 1.05 1.05.15.25.25-.25.7-1.05-.05 1.05-.2 2v.65l.65-.4v1.35l.35-.4q.3-.25.6-.25l.45.2.15.2.05.45v.1h.05l.15.05.05-.3.45.5.5-1.75 1.05-2.4.6-1.2.5-.9.4-.75.1.85.1.05.05.1.95-.8h.1v1.3l.15.15 1.15-1.45 1.25-1.5 1.45-1.55 1.2-1.5h.15l-.15 1.5v.1l.05-.05-.15 1.65v.05l-.2.2q-.55.6-.75 1.35l-.8 1.35v-1.2h-.15l-.95 1.8-.15.45v.2l-.6 1.25m-40.95 6.6l-.05.05-.3.45-.45 1.4q0 1.05.6 2.3l.6 1.25-.2.35-.1.05-.45.3.65 1.2 2.5 3.8.4.6.4.55L31.3 71l.1.3-.1.2-1.6-1.5.6.8-.1.05-2-1.95-1.25-1.1-2.9-2.15.5-.1.05-.55-.3-1.5-.1-1.3-.8-1.3-.55-1.25.25-1.55q0-.6-.6-1.65l-.45-.7 2.55 1.35v-.9l.1-.15q.05 0 .75.45l.65.4v-.05l.5.3M2.55 30.6l.05-.2q.15-1.1 0-2.2l6.35 4.5.7.4H9.5q.25.25.95.4l.6.25v.05l.35.65.1.3.05.6.05.35.2 1.75.1.3-.1.1v.05l-.8.15h-.4v.5h-.3q0-.3-.35-.75l-.3-.35-.2-.1-.25.05-.1.1v-.05q.1-.65-.25-1.15l-.65-.95-1-.9-.3-.15-.4-.25v.05l-.4-.3-3.55-3.2m36.8-16.45q2.55 1.8 3.6 3.3l-.05.25.1 2.35q.1.6 1.1 1.25l1.05.6-.75 1.05q-.45.7-.45 1.55 0 .55.5 2 0 .55-.8.7l-1.05.15.55-.8.25-.85q0-.8-.85-2.45-.85-1.7-1.55-2.15-.45-.3-.95-1.2l-.25-.75-.15-.6-1-.75-.45-.35q-.4-.35-.4-.7l.3-.45.5-.4-.15-1.1.65-.4.25-.25M43.45 55l-.1-.25-.15-.1-1.35-.85q-1.3-.6-1.7-.45l-.05-.6-.45-.6-.85-.5-.8-.3q1.5 0 1.5-.75l-.4-1.5-.6-1.25q-.9-1.7-1.5-2.35l-1.3-1.35q-.5-.4-1.2-.5l-1.15-.25-.15-.05-1.4-.2-1.15.2-.05.05-.3.45q-.15.2-.5.15l-.3-.6-.2-2.05h-.8q-.4.3-1 .3l-2.2-.15q-1.2.15-1.15 1.85-.5 0-1.25-.6l-.75-.8.15-.2.2-.25-1-1.4-1.1-1.3-.1-.15h.1l.8-.4.45-.4-.2-.4-1.05-1.85-.1-.2h.1l.35-.05 1.05.3q.7.35 1.2.35l-.4-1.05-.1-1.1-2.05-.45h-.05q-1.15-.3-1.4-1.2l1.4.35.25.1q.1-.9.95-1.35.7-.45 1.4-.3l-1.2-2.25-.65-1.7.15-.45.2-.45q0-.65-.7-.8h-.4l-1.1-.2q.15-.75.7-1.2l.4-.25.75-.05v-4q.25 1.1 1.85 3.15 1.55 2 2.15 2l.8-.4 1.15-.45q.25 0 .55.7l.35.8.3-.15.5-.15q.45 0 .8.4l.4 1.3v.5l-.35 2.7q.85-.4 1.45.3l.8 1.55.15-.05.15-.2q.4.2.5 1.1.1.8.55.9h.55q.3 0 .65.4l.3.5.5.4q-.2-.65.15-1.1.3-.4.9-.5h.95l.05.5.6.6.6.4.6.4-.1-1.5.2-.7.2-.6q0-.5-.95-.95-1.3-.65-1.45-.8l-.35-1.15q-.05-.8-.45-1.1v-.15l.65.15q.15 0 1.75-1.1h.25l-.15 1.75.25.7.55.65.2.85.2.85.65.4.85.7q.65.65.65 1.65l-.25 1.15.95.5.9 1.1h.15v-.2q-.15-1.7.75-1.7l.85.3.8.5.55.9v.05q.45.4.9.4l-.3-.45q-2.8-4.25-2.9-5.3l.8-.1.45.1q.25.15.35.15.15-.95.5-1.35l.7-.5.9-.6.7-.5-.1.9q0 1 1.05 1.5 1.05.45 1.05 1.9l-.9-.1q-2.95-.2-2.95.7l1.65 1.6 1.65 1.6.05.15-.1.95v.75l-.1-.05-.05.1q-.5.95-.65 2.1l-1.1-1.25v-.05q-.7-1.1-.35-2.3h-.15l-.1.1-.1-.05.1.1-.6.85-.1 1q0 .5-.4.8v5.2h-.15l-.95-1.05L46 48l-2.35-2.55q-1.4-1.3-2-1.45v.65q-.8-.15-1.35-1.25l-.4-1q-.6-2-1.9-2.05.3-1.7.3-2.9l-.1-1.05.3-.05h-.3l-.05-.2L38 37l-1.35-1-.7.7-.15.75V38q-.25 0-1.15-.55l-.55-.35-.3-.15-.35.5-.15.2-.6.5-.55.5-.15 1.1q0 .7.35 1.05l1.15.7.9.1 1.1.05q.4.15.7.7l.45.65.8.4 1.2.75-.15.35-.2.5 1.45 1.75q1 1.2 1.3 2.35l.1 1v.75l-.3.3q1 .4 1.15.85l.05.75q.15.35.95.45l.9.05q.5.05.95.45l1.5 1.3.55-.15.6-.15.45 1.3.1.15.15.55.45 1.8-1.2-.7-.3-.2-.65-.9-1-.75-.95-.5-1.1-.45M73.9 44.55l.15-.1.55-.65.25-.4.15-.4.05.4q.05.6.25 1.25l.2 1-.9 1.6-1.15 1.6-.15.25-.85 1.25q-.6.95-.85 1.8l-.05-1.2v-.6-.4l.4-.85.6-.6q.35-.35.3-.75l-.5-.1-.5.1-.05-.1 1.5-1.5.6-1.6m-8.65 3.05v-.15h-.05l-.05.05-.8 1.5-.05.1-.35.65-.7 1.55.5-.4.5-1.2.1-.2.2-.4.7-1.5M12.6 28.55h.3.4l1.35.15h.05l.05.15.05.05.2.4.1.1.55.35.85.45.6.1.3-.25.5-.3.15 1.85-.45-.25-.75.4-.4-.85-.7-.55-.3-.1-2.05-.2-.3 3.05-1.3-1.2q0 .15-.15.15l-.15.45-.2.45-.05-.1q0-1.4-.5-3.4l-.45-1.8.6.65.95.8q.35 0 .45-.25l.3-.3m7.5 20.2l.3.1.6.15h-.6l-1.3.1-2.9.55-1 .4-1 .7q-.9.85-.9 2.1 0 .8.6 1.25.6.5.6 1l-.25.7-.25.7q0 .8 1.3 2 1.35 1.15 1.35 1.5l-.05.6q-.1.5-.6.6.2.55.8.5v.1H16l-2.1.1.15-.45.15-.55q0-.45-.9-.6l-1.25-.25-.65-.4-.1-.1L9 58.2v-.15l2-.25-.15-.75-.15-.65.05-.5.65-.1-.4-.8-.3-.75.2-.55.2-.5q0-.45-.3-.9l-.6-.8-.45-.75-.35-.85 1.1.85.05.05.85.3.5-.3.05-.05.35-.85.45.15.5-.4.15-.15.4-.4.1-.05.7-.2 2.7-.4h1.4l1 .25.4.05m6.55 29.5l-.15-.05h.2l-.05.05m2.25 5.5l-.05-.1.95-1.25.2-.05 1.25-.55q.25 1.05-.8 1.3-1.25.25-1.55.65" class="J"/><path d="M44.45 15.15l1-2.6Q46.6 9.2 47 5.95l.8-.5q2.2 3.7 5.6 7.6l-1.75.05.8.8 1.05.7.5.7.35.8-.35 1.35-.5.95q-.8 1.4-.85 2.15v.1l.1.35-.7 1.05q.75.6 2.55 1.5 1.4.9 1.35 2.35-.15 1.9.25 3.2.15.45 1.05.95l.8.7-.7.9-1 .9.35.35.85 1 .85.65.6.7.4 2.2.4 3.1v1.2l-3.75-1.8-1.3-.6L52.2 38v-1.15l-2.55-1.9v-.1l2.75-.3 2.6-.25.05-.05.1-.1-.95-1.6-1.35-1.45q-.75-.85-.65-1.6 0-1.45.15-2.25v-.7h-1.2l-.7.5-.7-.1q-1.7 0-3.7 1.8l-3.2 3.4q-.7-.2-1.2-1.55-.4-1.05-1.6-.95H40l.05-.05q.8-.95 1.6-1.15l1.05-.1.95-.2 2.1-.95q.75-.35.75-1.05l-.6-1.2-.75-1 1.15-1.15.35-1-1.4-1.05q-1.4-.75-1.4-2l.2-1.3q.15-.5.55-.5 1 0 2.2.5l.7.35.15-.05-.05-.3q-.6-3.1-3.1-2.35l-.05.05M77.5 30.1q0-.55 2.1 1.95l.25.85q.75 3.05.05 6.1l.2.45v.15l.05.95v.1.2.7l-.05.5-.3 1.35-.2.45-.3.6q-.8 1.3-2.4 2.9l-.3.3-.65.7 1.1-1.5q1.4-1 .55-.45l-1.5 1.05q-.5.35-.2.1l.05-.05L77 46.45l.45-1 .25-1.15-.1-.35-.05-.2q-1 .7-1.35-.3v-.05l-.25-.95-.25-.55-1 .65-.1.2h-.05l-.45.65-.15.2-.9 1.45-.15.25-1.55 3.1-.3.7-.15.35-.3.9-.45 1.35q.8.25 1 .45L71 53l-.15.7q0 .45.35 1.2l.35.7.1.1v-.35q.3-.65.55-.9l.05-.05.1.4v.7h.1l.1.2.5-.5.95-.85v-2.2l-.75.3q.45-1.1 1.15-2.1l.2-.3.55-.8.35-.15.25-.1.4-.55.05-.1h.1q1.35-.45 1.8-1 1.05-1.2 1.2-.8v1.15 1.4l-.1.45-.35.8-.85 1.6-1.2 1.65-.4.3-.05.1-.45.4-.4.4-.9.8-.35.3-.5.55-.6.9-1 2.45-.05.1-.55 2.85-.1.35-.6 1.5-.2.6-.1.2-.3.7q-.3-.55-.55-3l-.25-3.5.3-1.4v-.05l.2-1.45-.55-2.3-.15-.5.2-1.15v-.1-.2-.4l.1-.6.25-1.1q.15-.6.45-1.25v-.05q.95-2.4 3.2-5.65l.6-.85.3-.35.25-.35.85-1.1.25-.3.2-.3h.05l.1-.1.15-.15.15-.2.15-1.2.45-1.05q.7-2.1.75-4.55v-1.25l-.05-.55-.05-.55h-.05v-.2l-.05-.25M30.2 71.9l1.6 2.55v.05q1.5 2.5 1.5 2.75 0 .35-.45.35l-1.65-.85-1.2-.7q-.7-.4-1.2-.55-.7-.3-1.4-.45l-.4-.1V75l-.35-.1h-.05l-.3-.05-.2-.05-.9-.05-.3-.05-.3-.4h.1l-.05-.4-.35-.5-.2-.4-.25-.45L22.4 70h.05l.2.2-.15-.3-.05-.05-.35-.55-.1-.1-.2-.3-.2-.3q-.3-.3-.2-.9l.1-.45V67l-.55-.4L19.5 65l-1.1-.3.4-.3.2-.2q-.55-.7-.55-1.5l.1-.6.05-.7h.15l.05.05.05-.2-1.05-.5q-.8-.55-.8-.9l.2-.85.2-1.1q0-.95-1-1.75l-1-1.1.3-.95.35-.7-.8-1.65q0-.3.55-.5l.9-.3h.1l2.7 2.55q1.65 1.8 1.65 2.95l.15 2.75q.25.7 2 2.5v1.15l-1 .15.45 1.1.4 1.1H22v.15q1.05.25 2.8 1.8l1.6 1.75.2.25-.3-.05-.15-.05L26 69l.2.3.5.5-.05.05-1.05-.25-.95-.25h-.15l1 1.35-.35.3-.5.35q.9-.25 2.15 1.05 1.35 1.4 2.2 1.3l-.4-1.15-.45-.85q.35 0 .6.25l.55.55h.35v-.7l.05.1h.5M29.7 86l-2 .8v.05h-.05l-.45.15-.1.05-.6.2.05-.05-.35.15-.2.1-.35.3-.5.55-.95 1.4-.1-.75q.1-.5-.1-.75l-1.15 1.2-.7-.65-.75-1.1q-.9.65-1.9.65l-1.35-.3q-.55-.35-1.2-.45l-.05-.2.6-1.2.35-.55-.85-.3-.6-.4.85-.65q.95-.5 1.25-.95l1.25-1.7q-.3.15-.65.4l-.9.2q-.7 0-1.6-.4-.9-.4-.9-.65l.95-.55.85-.4.1-.05.15-.1.6.25-.1.1.6.05h.05l2.1-.55-.15.95.15.25.1.35-.3.6-.35.65.65.4q.3.2.3.75l-.5 1.95.6-.4.8-.3q.15.4.15 1.5l.85-1.5.9-.1 1.45.25q.65 0 1.4-1.4l.2.6-.25.65-.3.6 1.1-.3.4.05.75.15-.2.1.95.3m-18-19.05l-.15.9-.05 1v.05.7l.2 1.4.1.45-.15-.05.45.95-.3-.25-.4-.25q-.65-.45-1.4-.45l-1.2.3-.65.3h-.3l-.05-.2.6-.8 1-.95 1-1.15q.5-.8.6-1.6v-.5q0-1.4-.75-1.4-.85 0-2.3 1.8L6.7 68.8l-.1.1-.15.1H6.2v-.1l-.05-.2.35-1.25.65-1.35.1-.25.15-.25.05-.15q1.25-2.4 1.75-2.85l-.55-.15-.75-.35L6.3 61l-1.25-1.45-.7-1.35Q3.3 55.8 3.3 52.95l.15-1.35 1.75 2.1-.05-1.95.3-.1.7.4h.05l-.35-1.1v-.2l-.25-1.1-.1-.55-.05-.15v-.8h.05l.15-.1q.2 0 .4.25l.35.25.15.55.1-.05v.05.15l.05.4v.15l.05.55.05.4V51l.8 2.05.9 1.65-.35.1-.4.05q-.6 0-.95-.35l-.35.55-.8.3.15 1-.65-.15-.15.05h.05q.4.55 1.25 2.05l1.05 1.25L8 60l1.65 1 .75.25.1.75q0 .5-.35 1.2.35.6 1.25.5h.25v1.15l.75.05.75-.05.05.1q-1.1.5-1.3 1.25l-.2.75m-10.45-31l.95-3.65L5 34.4l.25-.15.35.35-.2.1-.05.05.85.35.3.2 1.15.75q.45.4.65 1.2l.1.2.7.7q.5.2.75 1.2.25.85 1.25 1.1.9.2 4.65 1.8L13.3 40.4q-2.15-1.8-2.45-2.25l.15-.1.8-.15v-.05l.1-.1-.1-.3-.2-1.75-.05-.35.25.5q.2-.5.2-2.35l1.3.8.7.35h1.15q.15-.3.15-.7L15 32.5l-.35-1.15h.85l.55 1.1.95 1.05 1.05.45q.6.4.6 1.05 0 1.6-.95 2.35l-.1.1q-.7.5-1.3.4l2.15 1.55q1.7 1.25 1.7 1.85 0 .25-.35.6l-.3.8.9.45.65.3 1.25.6 2.2 1.35q1 .7 1.5.5V45l-.2-.45-.15-.7V43h1.15l.7.4q.3.3.35.85l.3 1.9 1.05.8q1.1.7 1.6.7l-.1-1.55q.2-1.25 1.8-1.25 1.9 0 3.7 1.35 1.5 1.1 2.45 2.8v1l-1.55.15-.1.05-1.7.15 1.7 1.5 1.65.15.1-.05.05.3-.15.65-.15.6 2.35.65 2.3.7.3.15 1.1.45.95.5 1 .75-.3.2.65 1.15h-.1l-5.9-2.45q-2-.85-3.85-1.2l-1.2-.2h-1.35l1.05 2.9h-.1l-3.1-.8-2.9-1.2-1.2-.4-.7-.65q-.2-.6-.9-.55l-.5-.2-.6-.2-.5.55-2.1-1.9q-1.45-1.1-2.5-1.4l-.85-.2.85-.2.05-.05 1.15-.25.85-.15v-.15l-.4-.25-.85-.45-.8-.5-1.85-1.05q-3.35-1.85-4.45-1.85l-.55.05-.15.85h-.15l-1.05-1.2-.55.55-.75-2.1-1.25-2.45Q8.45 38.6 7 37.45 5.5 36.3 3.75 36.3l-.8.2.3-.25.25-.2-1.05.05-1.2-.15M4.1 17.2l.1-.15.05.05v.95l-.15-.85m-.05-.35Q1.2 2.3 2.1 4.4l5.5 11.9 1.75 3.45q1.8 3.45 4.4 7.5l-.45-.1-.65.2-.65.15q-.9 0-.8-1 0-.9-.5-1.45l-.3-.6.4.45v-.05l.05-.2q0-.6-1.55-2.1l-.1-.1h-.05l-.5-.6v-.25L5 17.85l-.75-.8-.05-.1-.15-.1m12.5 12.7l.4-3.15.2.6q.15.75.8 1l1.05.15q.5.15.6.8l.05 1.15v.75q-.2 0-.35-.15L19 30l-.6-1.1-.75-.05-.5.1-.5.7-.1-.1m-.5-8.5l-.05-.1-.95-3.1-.15-1.1.2.05.95.45.05-.35.6.45v.15l-.05.05q.75.45.75.85v.25q.6.3.75.8l.05.55-.05.65.35.85.5.85h-1q-.6-.3-1.3-.9l-.65-.4m-2.8-19.2l-.15-1-.1-.4.25.3.8.95.65.65.85.8.4.4L17.5 4.9l2.6 2.6.3.4q1.15 1.55 1.9 3.45l.85 2.5q.15 1.05.65 2.25l1.6 3.4-.1 2q-.7-.15-2-.95-1.3-.9-1.3-1.3l.8-3.45q0-.85-2.1-2.7l-.3-.25-.95-1.2q-.75-1.2-.65-2.55.1-1.6-1.15-2.3l-1-.35Q15.7 6.2 15 5.1l-.5-1.2.4.1-.2-.75-1.45-1.4M30.1 17.1l-.15-.7-.05-.1-.05-.2-.65-3.65L27.9 14l.5-1.3.15-.7-.1-.55-.4-.45-.65-.25q-.95-.35-1.4-1.55-.45-1.2.9-2.8l.1-.05.2-.25.25-.25.4-.45.45-.4.1-.05.05-.1.1-.05-.45 1.15-.05.8 1.9 1.85.65-1.6.15 1.45.55 2.1.65 1.25.15.2.55.65.05.05.05.05q1 .95 1.65.6.35-.2.4-.55l.15-.6-.4-1.35L37.8 13l-.5.25-1.5.55.7.7.5.6q0 .45-.7 1l-1.5 1.2.15.15 2.55 2q.9.7 2.15 1.5 2.85 2.2 2.85 3.95 0 1.35-2.6 1.95l-1.3.4q-1.6-1.8-2.3-1.8-.8 0-.8 1.35-.6 0-2.2-.65v2.15l-1.9-.65-.85-.35-.05-.7.3-3.3.35-2.45q0-1.95-.35-2.55l-.55-.6-.15-.6m31.55 11.2v-.25-.1h.15l.05.1-.15.3-.05-.05m7.9-2.85l1.4 2.35q.6 1.3.7 2.35v.95 1.05.75l-.05.75-.15.7v.15l.6-.65.05-.25.1-.1-.1 1.1-.6.5-.85.75-.1.1-1.25 1.2-.15.15-.15.15-.95.9-.45.4-.65.7-2.6 2.35-.6.45.1.5v.15l-.2.05q-.55 0-1.15-1.7l-.3-1-.45-1.45v-.05l-1.1 2.8-.55 1.2-.35.65-.3.45.1.5q0 .4-.3.4-.3-.8-.8-1.3l-.05-.05q-.8-.85-2.35-1.35-1-.3-2.2-1-1.3-.85-1.6-1.45l.05 1.15.15 1-.1.15-.2.05q-.3 0-1-.75l-.15-.15-.75-.9q-.3.8-.35 1.75l-.05.25v1.25.6l.1 2.8.5 2.3.1.35-.2.3-.4.05.7 1.35.7 1.5v.25h-.2l-.7-.15-.55-.2q1.45 1.85 2.1 3.25.65 1.5.65 3.2l-.05.55-.05.35-.3-.1v-.2l.1-.6q0-2.35-1.9-4.7-1.9-2-1.9-2.35 0-.25.4-.25l.95.25.85.25-1.6-2.75v-.2l.75.1.05-.2v-.05q-.6-3.6-.6-5.05v-.65l.1-1.75v-.2q.15-1.15.65-2.1l.15.1.6.75.9.9.1-2.25.35-.2.4.35.95 1.25 2.5 1.4 1.65.75 1.4 1 .05.05.05-.05.35-.75.4-.8h-.05l.1-.2q.95-2.05 1.2-3.3l.05-.35v-.05q.3-.45.6-.3l.05.05.3.45.45 1.35.95-2.05.35-.7q.4-.75.4-1.95v-.15q0-.8-.7-1.75l-.5-.55Q62 31.05 62 29.95l.2-.9.2.15.45-.45.25-.45v-.25l.05.05v-.15h.3l.1-.1v-.2l-.1-1.7v-.25l.2-.05.7.75.5.75h.5v-1.2q.4.95 2 2 1.3.9 1.3 2.2l-.2.95-.45.5q-.65.45-.65 1.15l.05.15.7 1.05q.75 1 .75 2.2l-.05.65.85-.7v-.6l-.3-1.25q-.35-.5-.35-.9l.1-.45.25-.55.3-1.25V31q0-1.4-.3-1.85l-.6-.65-.25-.6q0-.35.35-.5l.3-.35v-.25l-.1-.9.4.5.1-.95M47.75 38v-.05l.1-.1H48q-.35 1.2.35 2.3v.05l-.15 4.45.05 1.6.35 1.5v1.1h-.65v.25l.25 1.35-.85.15-.6.25q.65.35 1.95 2.45 1.4 2.35 1.35 3.55-.15-.15-1.1-.4l-.9-.3-.1-.15-.45-1.3-.6.15-.55.15-1.5-1.3q-.45-.4-.95-.45l-.9-.05q-.8-.1-.95-.45L42 52q-.15-.45-1.15-.85l.3-.3v-.75l-.1-1q-.3-1.15-1.3-2.35L38.3 45l.2-.5.15-.35-1.2-.75-.8-.4-.45-.65q-.3-.55-.7-.7l-1.1-.05-.9-.1-1.15-.7q-.35-.35-.35-1.05l.15-1.1.55-.5.6-.5.15-.2.35-.5.3.15.55.35q.9.55 1.15.55v-.55l.15-.75.7-.7L38 37l.15-.85.05.2h.3l-.3.05.1 1.05q0 1.2-.3 2.9 1.3.05 1.9 2.05l.4 1q.55 1.1 1.35 1.25V44q.6.15 2 1.45L46 48l-.45-3.2.95 1.05h.15v-5.2q.4-.3.4-.8l.1-1 .6-.85m14.1 13.1l.95-2 1.3-2.5.25-.4.3-.5 1-1.65.45-.65q1.75-2.45 2.85-2.45l-2.2 2.45-1.05 1.4-.35.55-.6.9-.4.75-.5.9-.6 1.2-1.05 2.4-.5 1.75-.45-.5.6-1.65m12.2-10.25l.8-8.2-.1-.75h-.05l.05-.1.1-.7v-.45l-.25-1.6-.25-.4h.35q.5 0 .8.5.35.5.35 1.4v.55l-.05.2.1-.05-.4 4.5-.05.55-.35 3.35-.3.3-.2.2-.55.7m-8.9 6.65l.1.1-.7 1.5-.2.4-.1.2-.5 1.2-.5.4.7-1.55.35-.65.05-.1.8-1.5m4.35 26.45l.4-.45.35-.4v.05l.4-.45 1.2 3.1-.3.1h-1.3l.05.05.7.65.35.9-.2.7-.2.6.1.5.05.1.75.95.9.65-.4.3-1 .2q-1.4 0-2.2-.85l-.7-1.05q0 .55.35 1.95l.15.6v.25.1h-.2-.15l-.5-.9-.05-.05-.3-.45-.4-.5-.9-1.2-.1-.1-1.3-1.3-.55-.4h-.05l.4-.15-.2.15.6-.3.1-.1.2-.1.15-.05.4.5 1 .9V77.1q.55.1 1.15.45l1.15.7-.45-.85-.2-.7v-.15l.1-.25.25-.4.45-.6v-1.4l-.05.05m-1.7 1.6l.45-.4.05-.05.05-.05v.05l-.55.45m1.25-1.1l.15-.2.05-.05-.2.25M27.15.75l-.3-.75h.35l.05.7-.1.05M7.4 21.8l.05-.15.05.05-.1.1m9.9 29.05l.4-.1.9-.3-.15.45-.3-.05h-.85m8.45 4.75l.95.7-.3.25-.65-.95m3.35 14.6v.05q-.4-.25-.75-.4.45.1.75.35" class="B"/><path d="M50.45 27.05l.7-.5h1.2v.7q-.15.8-.15 2.25-.1.75.65 1.6l1.35 1.45.95 1.6-.1.1-.05.05-2.6.25-2.75.3v.1l2.55 1.9V38l2.55 1.35 1.3.6 3.75 1.8v-1.2l-.4-3.1-.4-2.2-.6-.7-.85-.65-.85-1-.35-.35 1-.9.7-.9-.8-.7q-.9-.5-1.05-.95-.4-1.3-.25-3.2.05-1.45-1.35-2.35-1.8-.9-2.55-1.5l.7-1.05q.25 1.15 2.5 1.95 2.6.95 2.6 2.45l-.25 1-.25 1.15q0 1.45 1.25 1.55 1.25.05 1.25 1.15 0 .75-.7 1.3-.65.6-1.3.45.2.5.9.9l1.6.95q.8.6.95 1.7l.05 1.45v.45l-.1.5V38l-.05.35q-.25 1.25-1.2 3.3l-.1.2h.05l-.4.8-.35.75-.05.05-.05-.05-1.4-1-1.65-.75-2.5-1.4L52.6 39l-.4-.35-.35.2-.1 2.25-.9-.9-.6-.75-.1-.2.1.05v-.75l.1-.95-.05-.15-1.65-1.6-1.65-1.6q0-.9 2.95-.7l.9.1L54 33.5l-2.25-1.85q-1.25-1-1.25-2l.25-.75.25-.95q0-.6-.35-.8l-.2-.1m2.1 33.45l-2-.6.15.5-.05.15-.3.05-7.8-2.4-3.45-1.3-1.6-.8q.8 1 1.7 2.9v.05l-.05.25q.05.1-.25.1l-.2-.1-.4-.1-1.3-.25-.8-.15q-3.7-.4-4.95-1l-.1-.05-2.75-1.55.05.5q-.05.4-.35.4-.25 0-1.15-.6l-.35.65-.5-.3.3-.3.3-.25-.95-.7-.15-.1.05-.1-.35-.5-.15.1H25l-.8-.45-.55-.55q0 .2-.15.2l.15 1h-.15l-.8-.9-1.2-1.1-1.5-1.45-1.55-.85.15-.45-.9.3-.4.1h-.65l.15.1h-.1l-.9.3q-.55.2-.55.5l.8 1.65-.35.7-.3.95 1 1.1q1 .8 1 1.75l-.2 1.1-.2.85q0 .35.8.9l1.05.5-.05.2-.05-.05h-.15l-.05.7q-.3-.3-.75-.4h-1q-.6.05-.8-.5.5-.1.6-.6l.05-.6q0-.35-1.35-1.5-1.3-1.2-1.3-2l.25-.7.25-.7q0-.5-.6-1-.6-.45-.6-1.25 0-1.25.9-2.1l1-.7 1-.4 2.9-.55 1.3-.1h.6l-.6-.15-.3-.1-.35-.1-.95-.3-1.25-.35-2.75-.85-1.1.1q-.4.2-.4 1.25l-2-.55L9.65 47v-2.35q.05-.8-.45-1.25l-.4-.25q-.4-.1-.5-1.2l-.5-.8-.5-.7Q5.7 38.65 3 38.5l-.55-.05-.6.05-.3-.15H0v-.1l.3-.2.1-.1.3-.25H.55q.2-2.6.7-1.75l1.2.15 1.05-.05-.25.2-.3.25.8-.2q1.75 0 3.25 1.15 1.45 1.15 2.65 3.5l1.25 2.45.75 2.1.55-.55 1.05 1.2h.15l.15-.85.55-.05q1.1 0 4.45 1.85l1.85 1.05.8.5.85.45.4.25v.15l-.85.15-1.15.25-.05.05-.85.2.85.2q1.05.3 2.5 1.4l2.1 1.9.5-.55.6.2.5.2q.7-.05.9.55l.7.65 1.2.4 2.9 1.2 3.1.8h.1l-1.05-2.9h1.35l1.2.2q1.85.35 3.85 1.2l5.9 2.45h.1l-.65-1.15.3-.2.65.9.3.2 1.2.7-.45-1.8-.15-.55.9.3q.95.25 1.1.4.05-1.2-1.35-3.55-1.3-2.1-1.95-2.45l.6-.25.85-.15-.25-1.35v-.25h.65v-1.1l-.35-1.5-.05-1.6.15-4.45 1.1 1.25v.2l-.1 1.75v.65q0 1.45.6 5.05v.05l-.05.2-.75-.1v.2l1.6 2.75-.85-.25-.95-.25q-.4 0-.4.25 0 .35 1.9 2.35 1.9 2.35 1.9 4.7l-.1.6v.2l.3.1v.1h.05l-.05.5M29.85 77l-.15.2.2.45q.5.05.75.55l.05.15.15.75.05.4.25-.2q1.15.2 1.15 0h.1l.4.05h.1l.35.05.45.1.75-.3.6-.3q.45 0 .35.5l-.05.5-.05.35v.2l-.8 1.7-.3.35-.05.1q-1.25 1.7-2.9 2.6l-1.55.8-.95-.3.2-.1-.75-.15-.4-.05-1.1.3.3-.6.25-.65-.2-.6q-.75 1.4-1.4 1.4L24.2 85l-.9.1-.85 1.5q0-1.1-.15-1.5l-.8.3-.6.4.5-1.95q0-.55-.3-.75l-.65-.4.35-.65.3-.6-.1-.35-.15-.25.15-.95-2.1.55h-.05l-.6-.05.1-.1-.6-.25.1-.15.65-.7.3-.35.45.05v-.05l.75.05h.1.2l1.2-.15.15-.05.25-.1.4-.15.5.7q.35.35.35.7 0 .5-.35 1.1L21.5 82v.2l1.65.15v.85l-.55.9.1.1.6-.7q.95-1 1.5-1l.5.35q.35.35.7.35.8 0 .8-1.35l-.15-.55-.15-.6q0-.6 1-1.1 1-.45 1.15-1.25V76.7l.25-.1q.3-.2.4.2l.55.2m43.2-31.95l.9-1.45.15-.2.45-.65h.05l.1-.2 1-.65.25.55.25.95v.05q.35 1 1.35.3l.05.2.1.35-.25 1.15-.45 1-1.05 1.05-.05.05q-.3.25.2-.1l-.45.45-1.05 1.05-.1.15-.95 1.25q-.85 1.3-1.15 2.55l-.05.25-.05.15-.05.9v.2l-.05.05q-.25.25-.55.9v-.65q-.3-.35-.3-1.1 0-.5.15-1.05l.1-.4q.25-.85.85-1.8l.85-1.25.15-.25 1.15-1.6.9-1.6-.2-1q-.2-.65-.25-1.25L75 43l-.15.4-.25.4-.55.65-.15.1-.85.5M30.1 81.4l-1.2.6-.5.15-.3 1.8.2.25 1-.5.8-.15q.7-.1 1.05-.55.65-.7.65-1.65 0-.65-.15-1L30.1 81.4m4.7-1.65l.05-.15-.15.1.1.05" fill="#cb4b24"/><path d="M76.05 48.45l.15-.1-.05.1h-.1m-25.9-9.2l.1.2-.15-.1.05-.1m15.1 8.35l-.1-.1.05-.05h.05v.15" class="E"/><path d="M69.25 53.9l-.35-.95-.25-.6-.1-.1-.05.15-.65.5q-.25 0-.3-1.65v-.3-.4l.6-1.25v-.2l.15-.45.95-1.8h.15v1.2l.8-1.35q.2-.75.75-1.35l.2-.2v-.05l1-1.35.25-.35.6-.95 1.05-1.6.55-.7.2-.2.3-.3.35-.4.3-.3.2.15-.5.65-.3.4h.75l-.2.3-.25.3-.85 1.1-.25.35-.3.35-.6.85q-2.25 3.25-3.2 5.65v.05q-.3.65-.45 1.25l-.25 1.1-.1.6v.4h-.15l.15.3-.2 1.15M54.3 59.7l-1.05.7h-.1l-.1.1h-.25-.25l.05-.5h-.05v-.1l.05-.35.05-.55q0-1.7-.65-3.2-.65-1.4-2.1-3.25l.55.2.7.15h.2v-.25l-.7-1.5-.7-1.35.4-.05.2-.3-.1-.35-.5-2.3-.1-2.8v-.6-1.25l.05-.25q.05-.95.35-1.75l.75.9q-.25.7-.25 1.9v.45q.1 2.75 1.2 3.95-.3.6-.8.7l.4 1.05.4 1.6-.7.15q.55.6 1.15 2.7l.75 3.15.9.2.6.2-.1.6-.15.7-.05.2-.05.1v1" fill="#dc6345"/><path d="M51 41.05l.15.15q.7.75 1 .75l.2-.05.1-.15-.15-1-.05-1.15q.3.6 1.6 1.45 1.2.7 2.2 1 1.55.5 2.35 1.35l.05.05q.5.5.8 1.3.3 0 .3-.4l-.1-.5.3-.45.35-.65.55-1.2 1.1-2.8v.05l.45 1.45.3 1q.6 1.7 1.15 1.7l.2-.05v-.15l-.1-.5.6-.45 2.6-2.35.65-.7.45-.4.95-.9.15-.15.15-.15 1.25-1.2.1-.1.85-.75.6-.5-.25 2.75-.1.1.05.05-.2 2.35-.05.05q-1.15 1-2.8 3.5l-1.9 3.05.15-1.5q-.35 0-.65.35l-.55.35-.45-.3.35-.55 1.05-1.4 2.2-2.45q-1.1 0-2.85 2.45l-.45.65-1 1.65-.3.5-.25.4-1.3 2.5-.95 2q-.3-.55-.45-1.35-.35.1-.75.5l-.6.45q.1-.45.85-1.6l1.45-2.25 1.4-2.1-.2-.1-1.2 1q-.3-.3-.5-1.15l-.2-.85-.75 1.9-.7 1.7-2.8-1.45-1.35-.75-1.6-1.3.8 2.15h-.1l-2.4-2v2.15l.65 2.9-.8.15v.25l.55 1.1.5 1.7q-.55 0-.9.3l1.65 1.65q.35.55.35 1.95l-.1 1.05-.6-.2-.9-.2-.75-3.15q-.6-2.1-1.15-2.7l.7-.15-.4-1.6-.4-1.05q.5-.1.8-.7-1.1-1.2-1.2-3.95v-.45q0-1.2.25-1.9m24.5-5.3l.2-.1.25.1-.5.55.05-.55m.45 3.35l.55-.6-.15 1.2-.15.2-.15.15-.1.1h-.05-.75l.3-.4.5-.65" fill="#d88950"/><path d="M56.35 57.4l-1.3 1.5-.75.8v-1l.05-.1.05-.2.15-.7.1-.6.1-1.05q0-1.4-.35-1.95l-1.65-1.65q.35-.3.9-.3l-.5-1.7-.55-1.1v-.25l.8-.15-.65-2.9V43.9l2.4 2h.1l-.8-2.15 1.6 1.3 1.35.75 2.8 1.45.7-1.7.75-1.9.2.85q.2.85.5 1.15l1.2-1 .2.1-1.4 2.1-1.45 2.25q-.75 1.15-.85 1.6l.6-.45q.4-.4.75-.5.15.8.45 1.35l-.6 1.65-.05.3-.15-.05H61v-.1l-.05-.45-.15-.2-.45-.2q-.3 0-.6.25l-.35.4v-1.35l-.65.4v-.65l.2-2 .05-1.05-.7 1.05-.25.25-.15-.25-1.05-1.05-.05 1.05-.05 1.05-.45-.3-.25-.1-.5-.1v.65l.5 1.75.15.65h-1.05v.3l.9 1.1.1.1q.3.5.3 1.45v.25.4l-.1 1.1m9-12.05l.45.3.55-.35q.3-.35.65-.35l-.15 1.5 1.9-3.05q1.65-2.5 2.8-3.5l.05-.05-.3 3.55v.05l-.05.05v-.1l.15-1.5h-.15l-1.2 1.5-1.45 1.55-1.25 1.5-1.15 1.45-.15-.15v-1.3h-.1l-.95.8-.05-.1-.1-.05-.1-.85.6-.9m6.45-7.85l-.05-.05.1-.1v.1l-.05.05m-2.35 15.25l-.15-.3h.15v.3" fill="#eba61a"/><path d="M75.95 48.35l-.05.05-.1.15.15-.1h.1.1l-.4.55-.25.1-.35.15-.55.8-.2.3q-.7 1-1.15 2.1l-.4 1.15-.1.4-.3 1.5h-.1v-.7l-.1-.4v-.2l.05-.9.05-.15.05-.25q.3-1.25 1.15-2.55l.95-1.25.1-.15 1.05-1.05.45-.45 1.5-1.05q.85-.55-.55.45l-1.1 1.5" fill="#963636"/><path d="M22.3 69.9q-.8-.6-1.75-1l-.75-.3-.3-.05q-.05-1.05-1.3-1.95-1.35-.95-2.95-.95l-1.45.3-.3.1-.2.1-.2.15-.3.15-.15.05-.1-.05-.05.15-.8.35.2-.75q.2-.75 1.3-1.25.75-.4 1.95-.65l3.05.35.2.05 1.1.3 1.45 1.6.55.4v.25l-.1.45q-.1.6.2.9l.2.3.2.3.1.1.35.55-.05.05h-.1" class="I"/><path d="M56.65 57.25h-.15l.15-.25v.25M30.3 71.6l-.2.1-.2-.3.4.2m-7.85-1.75l.05.05h-.1l.05-.05" class="H"/><path d="M30 76.05l-.05.1.05.35-.15.5-.55-.2q-.1-.4-.4-.2l-.25.1-.2.15-.4.35-.35.1-.25.1-.2.25-.35.55-.1.1-.05.1h-.15l.05-.15.05-.05.6-.9h-.05q-.8 0-1.05-.5l-.05-.5.45-1.3.05-.1.35.1v-.05l.4.1q.7.15 1.4.45.5.15 1.2.55M22.4 70l-.1-.1h.1.1l.15.3-.2-.2h-.05m2.25 3.9l.05.4h-.1-.1l.15-.4" fill="#cc7a48"/><path d="M64.3969 42.1899l.092-2.492.5737-.6232.3259-.6896.5057-.138.2539-.0961.6497.0318.01-.2708.8116-.2859q.4058-.1429.9156-.3893l.2578-.2044 4.2959-3.8056.046.1108.7237-.6158 1.1774-.7021 1.4273-.6899.004-.1083.0519-.0518.4059-.1429.3038-.0936 1.1694-.4854-.0519.0517q2.4847-.8551 5.4452-1.0356l.2019-.0444 3.3484.1642.4958.1328q2.1788.6496 3.6461 1.5899l.5857.4086.7016-.0199.3299.5589-.4518.0321.3278.6131.2499.0123 2.011-.2271.7616-.2883.042.2192q-.012.325-.6217.5665l-.2039.0985-.3518.0371-.9536.0618-.8975-.0983-.004.1083-.2019.0444q-3.4702-2.2868-4.9995-2.9045l-.5417-.2436-3.2504-.1051-.2498-.0122q-2.6927-.2949-5.6452 1.0258l-.152.0468-.2558.1503.002-.0542-.154.101-1.0714.5445-.052.0517.002-.0542-.104.1035-.2039.0985-1.0254.6553-.05-.0024-1.3874.9631-1.7531 1.3794-.8796.771-.1039.1035-1.2974 1.2389-.156.1552-1.1414 1.0838-.4657.4113-.6778.7266-2.7966 2.5223" class="B"/><path d="M96.3129 49.6702l.0779-.756-.4757-2.0314-.7336-1.827q-1.3134 3.0292-2.9266 3.3301l.054-.106-.5538.0814-.0999-.0049-.102.0493.002-.0542-.0459-.1108.2039-.0985.0519-.0517.5858-.9482q1.0635-1.6846 1.1134-3.039.042-1.1377-.7075-2.5313l-.3778-.6155-.4778-.6204q-1.6671-2.3069-4.3418-3.0893l-2.3888-.3885-1.6551.0817q-2.8206.4587-5.5653 2.9292l-.3099.2562-.5717.569-.006.1625-.5057.138.0519-.0517.1799-.8053-.5237.6256-.1039.1035-.05-.0025-.7497-.0367.8417-1.0985.8855-.9335.1539-.101 3.3364-2.2244 3.0026-1.3182 1.7651-.3477 2.2828.5461q1.3793.6104 2.8386 1.7674 1.8471 1.5016 3.0364 3.1881l.2839.4481.2279-.7486.0579-.2143.1839-.9136.4219.7805.0439.165.5097 1.1104q.2839.4481.5917.2461l.3799.5614.0459.1108.1339.4407.2259.6624.2599 1.0982q.4737 2.0856.4057 3.9275l-.072.5935-.1759.6969-.1199.5369.008-.2167-.022-.7609-.5817.8398m-32.146-1.2503q-.8956-.1524.14-3.7922l.09-2.4379 2.7966-2.5223.6778-.7266.4657-.4113 1.1414-1.0838.156-.1552 1.2974-1.2389.1039-.1035.8796-.7709 1.7531-1.3795 1.3874-.9631.05.0024 1.0254-.6553.2039-.0985.1.0049.002-.0542.052-.0517 1.0714-.5445.154-.101-.002.0542.2558-.1503.152-.0468q2.9525-1.3207 5.6452-1.0258l.2498.0122 3.2504.1051.5417.2437q1.5293.6176 4.9995 2.9044l.2019-.0444.004-.1083.8975.0983.9536-.0618-.6857.9433-1.0415 1.0887q-.3998-.0196-1.873-.7974l-2.5668-.9942-5.5751-.8703q-1.9491-.0956-4.0781.6141l-1.777.6727-2.249 1.2466q-1.6911 1.0568-2.9465 2.5149l.0479.0567L74.31 36.76l.6617-.2932 1.1195-.4878.2459.1206-1.3974 1.234-.6657.4016-2.5008 2.6453q-1.8111 1.5937-4.9596 6.8666.1699-.5344.2099-1.6179-.3498-.0171-.6636.3474l-.5638.3523-.1939-.1723-.1539.101-.4078.1971-.3099.2561-.1699.5344-.3738.633-.02.5417m31.2703 5.9834l-.002.0542-.4818.8448-.2139.3694-.4258.6847-.0539.1059-.148-.0616.052-.0517.4258-.6847.2139-.3694.4838-.8989.1499.0073m-7.5804 8.692l-.098-.0591.15.0074-.052.0517M96.829 28.909l-.034-.4359.2379.3373-.2039.0986m-1.8253 7.4002l.2059-.1528-.002.0542-.0519.0517-.158.2094.006-.1625m4.8535 8.216l.0519-.0517-.0019.0542-.05-.0025M82.4056 60.2229l-.03-.5441.1299.5491-.0999-.005" fill="#d88950"/><path d="M68.1168 49.9161l-.7496-.0367-.038-.3275-.0979-.0591-.4638.3572-2.1989-.1078.5997-1.3274.006-.1625-.0499-.0025-.052.0517-.7536 1.4284-.2-.0097.048-1.3003.0201-.5417.3737-.633.162-.3177.0659.9259.098.0591.046.1108.9815-.8202.0999.0048-.052 1.4086.144.1699 1.2074-1.5148 1.3093-1.564q1.6633-1.6551 2.7707-3.1748l.1499.0074-.2139 1.7262q1.4553-2.8051 3.5424-5.0908l1.0434-1.1429q2.339-2.3276 4.3219-3.153l-1.2933-.2262 2.3748-.5891 2.3129-.2666.3518-.037 3.6781.7231.9875.374 3.8301 2.0331.6497.0318-.2239-.7165 2.1089 2.5456.3318.5048 1.0595 2.4942-.0041.1083-.1499-.0073-.0459-.1108-.3798-.5614q-.3079.202-.5918-.246l-.5097-1.1105-.0439-.165-.4218-.7805-.1839.9136-.058.2143-.2279.7486-.2839-.4481q-1.1893-1.6864-3.0364-3.1881-1.4593-1.157-2.8385-1.7674l-2.2829-.5461-1.7651.3477-3.0026 1.3182-3.3363 2.2244-.154.101-.8855.9335-.1939-.1723-.9895 1.037-.2079.2068-1.6913 2.4137-.9015 1.3669-1.0535 1.4137q-.7277.7242-1.0136 1.6871-.2818.8545-.8536 1.4235l.0481-1.3002-.15-.0073-1.0215 1.9037-.058.2142" class="J"/><path d="M87.471 61.3397l.1019-.0492 1.4233-.5815.3599-.2538 2.011-1.5838 1.7812-2.1379.3158-.4187.4258-.6847.2639-.367q1.1714-1.8964 1.7372-3.6596l.1099-.266.12-.5369.1919-1.1303.5817-.8398.022.7609-.008.2167.1199-.5369.176-.6969.072-.5935q.068-1.8419-.4058-3.9275l-.2598-1.0983-.2259-.6623-.1339-.4407.1499.0073.004-.1084-1.0594-2.4942-.3319-.5047-2.1089-2.5457.2239.7166-.6497-.0319-3.83-2.033-.9875-.3741-3.6782-.723-.3518.037-2.3129.2665-2.3748.5891 1.2934.2263q-1.983.8254-4.3219 3.153l-1.0435 1.1429q-2.087 2.2857-3.5423 5.0908l.2139-1.7263-.1499-.0073q-1.1075 1.5196-2.7707 3.1748l-1.3094 1.564-1.2074 1.5147-.1439-.1699.052-1.4085-.1-.0049-.9815.8202-.046-.1107-.0979-.0591-.066-.9259.3179-.4729.4077-.1971.154-.101.1939.1723.5637-.3522q.3138-.3645.6637-.3474-.04 1.0835-.21 1.6179 3.1486-5.2729 4.9597-6.8666l2.5008-2.6453.6657-.4016 1.3973-1.234-.2459-.1206-1.1194.4878-.6617.2932-2.1909 1.0323-.048-.0566q1.2554-1.4581 2.9466-2.5149l2.2489-1.2466 1.7771-.6727q2.129-.7097 4.078-.6142l5.5752.8704 2.5667.9942q1.4732.7777 1.8731.7973l1.0415-1.0887.6856-.9432.3518-.0371-.3338.9063-.6517 1.3792q.5997.0294 1.0295.5932l1.0175-1.7954q.1499.0073.3059-.1479l-.0541 1.4628q-.6137 1.7066-.6377 2.3567l.9355 1.7826.1859.389.7416 1.6103.3578 1.1573-.7996-.0392q.3378.3422.4558 1.2163l.0879 1.6868.0219 3.4746-.2579 1.5612-.1839.9136-.05-.0024-.0659.4309-.2519 1.3988-.6138 1.7067-.002.0541-.1599.2636-.054.1059-.3259.6895-.6057 1.49-.6397 1.0541-.5397 1.059q-.6757 2.0292-2.9486 3.9259l-.1019.0493-1.9011 1.3179-.5098.2464-1.5732.5741 1.1415-1.0838-1.1994-.0588.9774-.7119.7637-.3424.052-.0518.4097-.2513 2.0151-1.6922.3139-.3645q1.929-2.0763 3.4963-5.2016l.3259-.6896.1638-.3719.9896-2.3937.4478-1.2807-.4278.7389-1.1255 2.0072-.1499-.0073-.4837.8989-.214.3694-.4257.6847-.052.0517.1479.0615-1.1835 2.2215-.5797.7857-1.2074 1.5147-2.021 1.8547-.4118.3055-2.035.8771 1.0355-.9261.052-.0517-.15-.0074-3.0385-.4203 1.4073-.1481.4079-.1971-.2999-.0147 1.2354-.9164m7.5327-25.0305l-.006.1626.1579-.2094.052-.0517.002-.0542-.2059.1527" fill="#eba61a"/><path d="M92.7709 31.6951q2.3668-.3725 2.045-3.8617l.052-.0517.2019-.0444q.3998.0196.6657.9553l.1999 1.3666.0959.1132.2539-1.4529-.1759-.6599q-.1379-.3324-.1279-.6033.028-.7584 1.4492 1.4279l.1439.1699q1.5133 2.4079 1.4253 4.7916-.052 1.4086-.5898 2.4134-.5397 1.059-.5557 1.4924l-.002.0542.0299.5442q.6177.8986 1.3953 2.8906l.2758.6648q.8216 2.1569.7796 3.2946l-.01.2709q.046.1107-.2039.0985-.2499-.0122-.5677-.8962l-.4558-1.2164.1319 1.8518.038 1.6843-.4838 3.6126-.062.3226-.9996 4.0215-.1679.4802-.056.1601-.058.2142-.2259.6945-.4437 1.1722-.4399 1.0639-1.1335 2.2239q-1.7152 3.0638-3.976 4.6354l-2.093 1.0914-.5577.1898-3.1665.3332-3.6761-.7772-.5418-.2437-.2458-.1206-.6377-.3569.038-1.0293.6497.0319.2998.0146.4998.0245 1.7651-.3476.152-.0468q-1.0276-.6474-1.4753-2.0804l-.2778-1.9675-.076-.655.156-1.512q.1899-1.0762.4978-1.2781l.1619-.3178.042.2192.1958.1181.142.2241-.3199.527q-.04 1.0835.2239 2.0734.4817 1.8689 1.931 1.94l2.5647-.3085-1.2354.9163.2999.0147-.4079.1972-1.4072.1481 3.0384.4203.098.0591-1.0355.9261 2.035-.8772.4118-.3054 2.021-1.8548 1.2074-1.5147.5798-.7857 1.1834-2.2214.054-.1059.4258-.6847.2139-.3694.4817-.8448.0021-.0541 1.1254-2.0072.4278-.7389-.4478 1.2806-.9895 2.3938-.1639.3719-.3259.6895q-1.5672 3.1253-3.4963 5.2017l-.3139.3645-2.015 1.6922-.4098.2513-.052.0517-.7636.3425-.9775.7119 1.1994.0588-1.1415 1.0838 1.5732-.5742.5098-.2463 1.9011-1.318.1019-.0492q2.2729-1.8967 2.9486-3.926l.5397-1.059.6397-1.0541.6058-1.4899.3258-.6896.054-.1059.16-.2635.0019-.0542.6138-1.7066.2519-1.3988.0659-.4309.05.0024.1839-.9136.2579-1.5613-.0219-3.4745-.0879-1.6868q-.118-.8742-.4557-1.2164l.7995.0393-.3578-1.1573-.7415-1.6103-.186-.389-.9354-1.7826q.0239-.6501.6376-2.3568l.0541-1.4627q-.156.1552-.3059.1478l-1.0175 1.7954q-.4298-.5638-1.0295-.5932l.6517-1.3791.3339-.9063.2039-.0985q.6097-.2415.6217-.5666l-.042-.2191-.7617.2883-2.011.227-.2498-.0122-.3279-.6131.4518-.0321-.3298-.5589M76.111 40.8646l-.2119.3152-1.1554 1.463-.5777.7315q-2.7447 3.8274-3.9502 6.6448l-2.0989-.1029.058-.2143 1.0215-1.9037.1499.0073-.048 1.3002q.5717-.569.8536-1.4235.2859-.9629 1.0135-1.6871l1.0536-1.4137.9015-1.3669 1.6912-2.4136.2079-.2069.9895-1.037.1939.1723-.8416 1.0985.7496.0368M96.8289 28.909l.204-.0986-.238-.3373.034.4359m3.0282 15.6163l.05.0024.002-.0542-.052.0518M82.4055 60.223l.1.0049-.1299-.5491.0299.5442" fill="#dc6345"/><path d="M91.6931 48.684l.05.0024-.102.0493.052-.0517" class="E"/><path d="M66.6907 46.5845l-.0137-.0042.0099.0084.0038-.0042m-1.1404-.9511l-.0997-.0838-.0013.0209.101.0629" fill="#ff8033"/><path d="M65.4506 45.5495q-1.0881-.8925-2.0271-1.0568-.984-.1726-1.3381.3165.407-.0623.6879.0929-.9073-.0052-.7286.8067-.4508.3049-.0015 1.0503.0747-.1799.3038-.2005-.3006.3135-.0172.9707-.0115-.4728.229-.506.1852.4939.8558.8002.3021.6363-.1827.4935-.4787-.1303-.5481-.5195-.7179-.3314-1.182.1242.3761-.1251.825.1934-.6013-.1304-.8132.2208-.2826.4684-.559-.0801-.2864.4725.0496 1.3432.2092-.7948 1.0889-.526-.2604.0165-.0842.3263.4614.0717 1.012.3359-.0131.3641-.4549.3677.961.5284 1.455.0979-.0589.2594.1736.5651.004-.5481.6204-.4344.422.1929.7385.231-.258.0331-.2039.2257 1.192.6415 1.3344.173.1325-.4768.2598-.6566l.188.4521q.3927.0507.5995-.2755-.1089.2761.1637.8287-.036-.5816.2748-.6734.282-.0791.3317-.2506l.2022.3391q.4327-.6731-.2182-1.6614.2387.3183.5324.3814-.4804-.5361-.8173-1.2311-.4795-.9839-1.3178-1.5121.8358.7834 1.099 1.4825.0788.2428.3388.5569l-.5009-.4357q.7793 1.3315.3515 1.5528l-.1422-.3475q-.132.3597-.3648.3846-.2041.0123-.0993.343-.3236-.3603-.2349-.5945-.2795.0959-.2101.4851l-.2117-.4647q-.1374.4434-.4183.5603-.2984.1168-.347.3259-.0575.2385-.4221.0791.0211-.2176.219-.2425-.3003-.017-.5873-.1848-.297-.176-.5924-.1596.6532-.2378.2586-1.1797-.7609.0075-1.3023-.3446.5045-.5392-.2932-.9376-.5093-.2517-.4317-.7453-.3359-.172-.584.1416.0367-.5649.3925-.6481-.39-.0925-.6259.0327-.0826-.5106.2565-.4976-.0885-.5817.7793-.9406-.4382-.2139-.7282-.2812 1.3502-.2328 2.9689.9072m-5.8213 2.7174q-.1739-.0212-.1559.1337.0194.1339.2172.381-.0906-.1717.0324-.2301.1115-.0459.2978.0003.1962.0547.2345-.1043l-.2649-.0756-.3611-.105m1.7492 1.8305q-.2992.5059.4708 1.7119-.2131-1.2011.717-1.0076-.9912-.2229-1.1878-.7043m2.5923 1.1495q.1725-.23.6908-.0076-.9701-.7125-.6908.0076m.9096-2.2502q-.2122 1.1672-1.0287.5177-.359-.3017-.6754-.3397l.1826-.2215q-.3684-.1553-.8129-.1098.3142-.5226 1.238-.0697.8926.4488 1.0964.223" class="B"/><path d="M65.4506 45.5496q-1.6187-1.14-2.9689-.9072.29.0673.7282.2812-.8678.3588-.7793.9405-.3391-.0129-.2565.4977.2359-.1253.6259-.0328-.3558.0833-.3925.6481.2481-.3135.584-.1416-.0776.4937.4317.7453.7977.3985.2932.9376.5414.3522 1.3023.3446.3946.942-.2586 1.1797.2954-.0164.5924.1597.287.1677.5873.1848-.1979.0249-.219.2424.3646.1594.4221-.079.0486-.2092.347-.326.2809-.1168.4183-.5602l.2117.4647q-.0694-.3892.2101-.4851-.0887.2342.2349.5944-.1048-.3307.0993-.343.2328-.0248.3648-.3845l.1422.3474q.4278-.2212-.3515-1.5527l.5009.4357q-.26-.3141-.3388-.5569-.2632-.6991-1.099-1.4825l-.1921-.1174-.0038.0042q1.0586 1.0222.5866 1.3313.5765.8375-.0327 1.046-.1282-.4018-.3772-.6699-.3139 1.2215-1.2141.5677.2957-.075.1198-.4434-.6091-.0635-1.1271-.3444-.3758-.4189-.4886-.896-.2912.167.0056.8871-1.5236-1.9057-.4219-2.2517-.5117-.5403-.121-.837.3694-.2925 1.833.5921l.0013-.0209" fill="#dc864b"/><path d="M66.677 46.5803q-.6549-.4401-1.1267-.947l-.101-.0628q-1.4636-.8846-1.8329-.5921-.3907.2966.1209.837-1.1017.346.4219 2.2516-.2968-.72-.0056-.8871.1128.4772.4886.896.518.281 1.1271.3445.1759.3684-.1198.4434.9003.6537 1.2142-.5677.2489.2681.3771.6699.6092-.2085.0327-1.0461.4721-.309-.5866-1.3312l-.0099-.0084" class="J"/><g class="B"><path d="M67.7774 49.7602l-.4624.2187-.3282.1413.1601-.1081q.0262-.0236.0419-.0497l.0126-.0233q-.0634-.0247-.2143.0381l-.1654.0797.2171-.149.1087-.1103-.0324-.042q-.0926-.0196-.244.0497l-.152.0828q.2667-.2032.5813-.4665l.0815-.0737-.0054-.0428q-.0324-.042-.6553.2448.0624-.0411.1292-.1015.0261-.0236.0338-.0424l.0044-.0159q-.0819-.0055-.3033.1021l-.2611.1352q.0457-.0413.1353-.1046l.0928-.0662q.0326-.0295.0598-.066.0273-.0365.0218-.0435-.0156-.0203-.199.0542l-.2783.1163.0108-.0217q.3373-.2338.4454-.3198l.038-.0582q-.0415-.0539-.3042.0756-.273.1484-.3142.1631.2123-.1445.2905-.2153.0326-.0295.0337-.0353-.001-.0121.0071-.0374-.0692-.0324-.2651.0546l-.3207.1547.0272-.0365.0815-.0738.3474-.2312q.2248-.1535.3966-.3113.057-.0516.0761-.1165.0154-.0519.0002-.0715-.0334-.0434-.5255.1654-.5942.2524-.6842.2756.222-.1319.4669-.3275.0057-.0931-.2613.0523l-.1922.1097q-.0944.0534-.1052.0465.0488-.0442.2199-.1598l.2091-.1452.0597-.066q-.0688-.0138-.3634.1316-.2204.1091-.2986.1584l.0055-.0287q.062-.0561.3781-.2886l.3063-.2237q.1792-.1622.1522-.1972-.0345-.0448-.4421.1659l-.5184.2753.2118-.156q-.3039.1693-.3365.1738.0218-.0435.0708-.0878.6692-.539.6739-.705-.0669-.0868-.4241.1247l-.2932.1797q-.1644.099-.2491.1292l.0463-.0656.3449-.2884q.2282-.2065.1904-.2555-.0394-.0511-.364.138-.2069.1194-.3904.2475l.1793-.1623q-.0562-.0299-.23.075-.1737.1049-.0069-.0412.1662-.1469.3993-.3364.2325-.1902.1968-.2364-.0534-.0693-.3981.1226-.1623.091-.3355.2037l.0011-.02.3216-.2756q.1098-.0981.0887-.1254-.0184-.0238-.2192.0818-.1829.0966-.2991.1792.0158-.0262.244-.2291.1934-.1727.1637-.2112-.021-.0273-.205.0536-.14.0625-.4424.2446.3919-.3819.5138-.5611.0963-.1443.0698-.1786-.0356-.0462-.3548.1285-.1655.0904-.3941.2283l.1679-.1448q.144-.1327.1582-.186-.1129.0475-.2301.1251l-.1108.0717.0044-.023.1793-.1623-.0271.0008-.1873.1267q-.1407.0976-.1927.0983l.3149-.3812q.254-.3166.2075-.3768-.0535-.0693-.319.096-.2432.1512-.4084.3245.0273-.0544.1762-.2165.13-.1402.1175-.1563l-.0433-.0202q-.1271.1186-.2032.1707l-.0738.0443.0218-.0435q.1272-.1151.2087-.2067l.0016-.0015.0234-.0271-.038.0225q-.0635.0468-.1629.1296-.0826.0653-.1412.0862l.194-.38q.1336-.2718.1168-.2935-.2779.1599-.4544.2935-.0733.0557-.1081.0895l-.0076-.0098q.2148-.2776.2394-.3355-.077.0365-.1835.1245-.0576.0474-.1315.113-.0238-.0308.0372-.1132.0718-.0971.0719-.14-.1254.0742-.1857.1217l-.0043-.0092q.1099-.1267.2284-.2852.1893-.2497.1634-.2833-.0399-.0518-.1703.0555-.0646.0525-.2282.2064l-.0038-.0013q.0815-.0737.1544-.1765.0833-.1182.0746-.1294-.0443-.0574-.4127.2903.2045-.2731.1851-.2983-.0076-.0098-.0303-.0034l-.0239.0049-.1141.1033q-.0158.0119-.1305.1537l.2271-.3802q.1835-.3075.1651-.3313l-.0357-.0104q-.0559.0101-.1651.1089-.0994.09-.1707.1699l-.0308.0137.0212-.0442.0338-.0781q-.0086-.0112-.0547.0115-.0565.0273-.1136.0932.1225-.2.0766-.2595-.0216-.0279-.0868.031-.0212.0192-.1957.2128l.441-.72q-.0404.0912-.0085.1325.0341.0441.0785.03.0418-.0141.133-.0966.0359-.0325.0724-.075l.0011-.0022-.0109-.0032q.1764-.2809.2384-.3691l.0036.0728q.0205.0266.0895-.0275l.0815-.0737q.1581-.1431.3289-.3737l.3265-.4631q.4843-.6818 1.1118-1.2497.4107-.3717.9077-.7394.6023-.4463.8789-.5326l.0054.007q-.3852.3545-.6017.6229-.267.332-.1898.4321.0346.0448.2284-.0664l.2622-.1696q-.2564.2345-.3747.458-.1237.2343-.0362.3477.0643.0833.2638.0442.1328-.0251.2376-.0759-.6536.5772-1.0877 1.1518-.4607.6083-.3322.7749.1059.1372.6816-.1175.4547-.1999.7832-.4271-.1294.1409-.2764.3809-.2145.3498-.1243.4667.067.0868.2905.0142.1014-.0336.1812-.0773-.0853.0832-.1751.1858-.1815.2059-.3187.412-.3358.5083-.1981.6868.1938.2513.7388-.029.2024-.1035.5462-.3576-.0311.0745.0056.1221.0259.0336.4914-.1165.5207-.1681.7321-.1776l-.006.0066-.095.0742q-.106.0959-.052.1658.06.0777.3249-.0883.2329-.1466.4242-.3399-.0147.0169-.1518.2337-.1035.1637-.2942.3363-.1027.0929-.3645.2882-.2617.1953-.4394.356-.4629.4189-.6199.7393-.1395.2855-.0175.4437.1058.1372.3021.1332.2324-.0035.5393-.2194-.0702.1028-.0921.1534-.0414.097.0039.1558.1513.196.7896-.1641.2057-.1173.4539-.2872l.2167-.1532q-.1007.1529-.1335.236-.0589.1461-.0012.221.0994.1288.375.0375l.2588-.0915q.1665-.0568.2907-.0753-.1206.0734-.1303.0823-.0489.0442-.0653.0947-.017.0498.0051.0785.0476.0616.2967-.0675.3853-.2001.5611-.2558-.0738.0443-.3563.2701-.2928.2341-.4639.3889-.0734.0664-.5652.559-.5151.4661-1.1757.8262l-.4396.2338q-.2101.1152-.3127.2081-.1174.1062-.1957.2127-.0947.1285-.0628.1698.0351.0455.1706.0453l.129-.0121-.0142.0211m-4.7438-5.7978l-.038.0475.038-.0475"/><path d="M75.8841 34.0337l-.0022.0115q-.2356.1324-.9919.8167-.2282.2066-.5108.486l-.0114.0068.0702-.1135q.037-.056.023-.0743-.0713-.0924-.391.0709-.2209.1119-.4294.2686l.3688-.2933q.4002-.31.7239-.5184.411-.2638 1.1508-.661m2.9225 2.2026q-.3891.4033-.4527.4609.0153-.0484.0698-.1571.0739-.0657.3705-.3127l.0124.0089m-.7232 2.2271l.0006.0007q-.0718.0685-.1572.1874-.0571.0802-.1883.2726-.2797.4017-.6041.6952-.2005.1814-.4318.3551l-.0054-.007q.363-.3403.3051-.5733l.1548-.1186q.0978-.0742.2147-.2276.161-.1932.28-.3009.1206-.1091.2758-.2021.1081-.0645.1558-.0815M75.3919 41.63q.1677-.3063.2663-.4692.1786-.2959.3351-.4375l.0489-.0371q.0504-.0315.1183-.0834.1619-.1238.4327-.2822.436-.2566.7598-.3642.269-.089.5015-.2648l.2146-.174q.1483-.1235.2558-.203-.602.7338-1.3603 1.1573-.1759.0985-.3513.2478-.2369.2025-.4587.4281l-.0733.0664.1491-.2229q.0513-.0915.0172-.1356-.0621-.0805-.3555.185-.1402.1268-.3098.3374-.1458.1806-.1796.248l-.0108.0039m-4.1051 5.7045q.1847-.3633.1372-.4249-.0264-.0343-.1381.0003-.1405.0439-.2987.1869-.1841.1667-.5692.6399-.385.4733-.6213.6871-.6635.6004-1.4321 1.032-.2377.1331-.5547.2892l.005-.0152-.0234.0093-.129.0121q-.1355.0002-.1706-.0453-.0318-.0413.0628-.1698.0783-.1065.1957-.2127.1027-.0929.3127-.2081l.4397-.2338q.6606-.3601 1.1756-.8262.4919-.4926.5652-.559.1712-.1548.464-.3889.2824-.2258.3562-.2701-.1757.0557-.5611.2558-.2491.1291-.2966.0676-.0222-.0288-.0052-.0786.0164-.0504.0653-.0947.0098-.0088.1303-.0822-.1242.0184-.2907.0752l-.2588.0915q-.2756.0913-.3749-.0375-.0578-.0749.0011-.2209.0328-.0832.1335-.2361l-.2166.1533q-.2482.1699-.454.2871-.6383.3601-.7895.1641-.0454-.0588-.0039-.1558.0218-.0506.092-.1533-.3068.2158-.5393.2193-.1962.004-.3021-.1332-.122-.1581.0176-.4437.1569-.3204.6198-.7393.1777-.1607.4395-.356.2618-.1953.3645-.2882.1907-.1726.2941-.3363.1372-.2168.1519-.2337-.1914.1933-.4243.3399-.2649.166-.3248.0883-.054-.0699.0519-.1658l.0951-.0742.0163-.0076-.0104.0011q-.2113.0094-.7321.1775-.4654.1502-.4914.1166-.0366-.0477-.0056-.1221-.3437.254-.5462.3575-.5449.2803-.7388.029-.1376-.1784.1982-.6868.1371-.2061.3187-.412.0897-.1026.175-.1858-.0797.0437-.1812.0773-.2235.0726-.2904-.0141-.0902-.117.1243-.4668.147-.24.2764-.3808-.3285.2271-.7832.427-.5758.2548-.6816.1175-.1286-.1666.3322-.7749.4341-.5746 1.0876-1.1518-.1047.0508-.2375.0759-.1996.0391-.2639-.0441-.0874-.1134.0363-.3478.1182-.2235.3747-.4579l-.2623.1695q-.1938.1112-.2283.0664-.0772-.1001.1898-.4321.2164-.2683.6017-.6229l.0163-.0147-.0217.0077q-.2767.0863-.879.5326-.4969.3677-.9077.7394-.6275.5679-1.1117 1.2497l-.3265.4631q-.1708.2306-.3289.3737l-.0816.0737q-.0689.0541-.0894.0276l-.0036-.0729q-.0621.0882-.2384.3691l.0097.0055q-.0364.0424-.0723.0749-.0913.0826-.1331.0966-.0444.0141-.0785-.03-.0318-.0413.0086-.1325.3011-.5031.5783-1.0012.4232-.7574 1.0005-1.5448l-.0656.1663q.0865-.0961.1686-.2049l.1398-.1848q.1828-.2331.5235-.5413.1532-.1387.3612-.3032l.1982-.1556q-.0092.0203-.1213.1728-.1007.1493-.0775.1795.0281.0364.3453-.2091l.5155-.3975q.2003-.1385.5781-.3377.3544-.1864.5997-.2883.351-.1477.667-.348.0765-.0515.1254-.0957.0865-.0782.044-.1943.3674-.1767.6487-.3718.1672-.1169.3041-.2408.1597-.1445.3453-.3956l.0065-.0095q.1838-.246.3469-.3935.1499-.1357.2368-.1846.0602-.0331.1991-.0791l.0244-.0079q-.3374.3089-.5377.8171-.0628.159-.296.42-.1751.1964-.3919.3926-.1614.146-.3292.2801-.1662.1326-.2901.2447l-.2891.2854q-.2729.2956-.2167.3685.1825.0428.2464.0325l-.0048.0115q-.1021.0436-.2475.1349-.1803.1143-.3123.2338-.2446.2213-.1446.3507.0362.047.1317-.0015.172-.0962.343-.1725-.189.1497-.2393.3069-.0399.1205.0049.1786.1998.259.7703-.2572.0684-.0619.1332-.1395.0662-.0791.13-.1759.1262-.1916.1881-.2476.0799-.0723.2737-.1513.1508-.0628.2419-.081l-.2579.168q-.2069.1373-.3096.2302-.1206.1091-.2532.2601l-.1447.1713q-.2121.2632-.2871.3311-.0766.0693-.2166.1497l-.2812.1522q-.4098.2222-.6804.4671-.2706.2448-.4757.5494-.2585.3825-.1479.526.0654.0846.3721-.0954.2861-.1674.4476-.3492-.0349.0625-.0084.0968.0675.0875.5565-.355.176-.1593.524-.5693.3464-.4085.5876-.6268.6911-.6254 1.3644-.5097l.0005.0186-.1102.0796q-.1407.1047-.2189.1755-.295.2669-.5235.5735-.1034.1387-.3548.5303.0882-.1726.0304-.2475-.0626-.0812-.4094.115-.3475.1955-.6897.5053-.282.2552-.3916.497-.0818.181-.0441.23.0476.0616.3144-.023-.0216.0078-.1358.111-.3911.354-.2642.5185.0707.0917.2889-.013-.6852.8197-.1632.585.1476-.0669.2868-.2202.2659-.2941.5618-.506l.0011.0085-.1955.3314q-.1454.2529.1959.0818l.0103.0026q-.1044.1194-.1432.2414-.0508.1565.0302.2615.1215.1575.4224.0812.1178-.0304.2415-.0924l.1031-.0565q.2031-.1207.4264-.3228.2934-.2655.5359-.5646.1544-.1909.3797-.5196.2384-.3476.357-.4989.2165-.2755.4675-.5027.2103-.1902.3264-.2692.1738-.1085.3796-.2508-.0886.0683-.1555.1538-.0854.1082-.0514.1522.0643.0833.3504-.1055.1011-.0664.2906-.2082l.3351-.2473q.4355-.3145.7199-.4375.3928-.1688.6265-.0452l.0379.049-.0109.0218-.0006-.0007-.0157.0154q-.3683.0788-.7141.2943-.3089.1916-.749.5898-.2152.1947-.2565.2381-.0885.0932-.2463.312.0315-.0559.0529-.1287.0181-.0662.01-.0767-.0211-.0274-.2378.1259-.1808.128-.2672.2062-.2086.1888-.3832.4217-.1007.135-.1421.2213-.0584.1539-.0006.2144.0578.0606.2716-.0246.1736-.0692.304-.1764-.1333.1788-.2759.3815-.1044.1409-.2463.2692-.2444.2213-.468.344-.1206.0662-.3766.1648-.2393.0917-.4011.187-.2513.1478-.5431.4118-.5314.4809-.6933.8414-.1325.2947-.004.4613.0669.0867.2308.0157l.1661-.0968-.0017.0193q-.4711.4657-.3966.5622.0777.1008.4642-.1157.3805-.2136.6707-.4762.4123-.3731.7857-.9369-.7647 1.5705-.0235.8593l.0271-.0186v.0072q-.1184.2735-.135.3919-.0199.1428.0676.2562.0907.1177.3364.0415.3396-.1052.8579-.5743.2902-.2625.7361-.7968.447-.5364.6442-.7149.1255-.1135.233-.1858l.1146-.0776.0152-.009q.2812-.1772.653-.3591.4271-.2106.5264-.2755-.5218.3533-.9543.7542-.4331.4002-.7465.8443.0924-.275-.2448.1383-.3377.4126-.6141.8292-.5705.8608-.9662 1.2879m2.9095-6.6623q.0173-.0062.0233-.0021l.0032.0007-.0032-.0007q-.006-.0041-.0233.0021m-1.7906 1.5323q.1228-.1421.1636-.1789.1076-.0974.2687-.1719-.0488.0443-.2309.2209-.0521.0472-.2014.1299m-2.7561 4.3424l-.0429.0305.0429-.0305m1.878-5.068q-.2788.2558-.4449.3776l-.7337.5379q.6345-.7453-.7384-.1032 1.4878-.8269 2.2369-1.6427.779-.8487 1.4363-1.2308-.4833.3744-.9818 1.0917-.4957.7137-.7744.9695m-.3598-5.4429q.7969-.6784 1.0659-.9218-.2897.2775-.7447.757-.0449-.0116-.1887.0781l-.1325.0867m-4.5118 5.0408l.0439-.0291q-.0064-.0048-.0326.0187l-.0113.0104m2.0989-.5371l-.013-.0025.013.0025m-5.5307 3.0957l-.0049-.0062.0038.0084.0011-.0022m3.7821.2743l-.0544.048q-.0412.0326-.0896.0596l.0799-.0758.0696-.0605-.0696.0605-.0799.0758q.0484-.027.0896-.0596l.0544-.048"/></g></g><g stroke="#bb4543" fill="none" stroke-width=".0176"><path d="M75.8819 34.0452l.0076-.0045-.0054-.007q-.7398.3972-1.1508.661-.3236.2084-.7239.5184l-.3688.2933-.0863.0674-.0158.0119.1021-.0793q.2085-.1567.4294-.2686.3197-.1633.391-.0709.0141.0183-.023.0743l-.0702.1135-.0049.008.0163-.0148q.2826-.2794.5108-.486.7563-.6843.9919-.8167m2.9248 2.1911q-.3892.4033-.4527.4609.0153-.0484.0698-.1571l-.0136.0111.0146-.0133-.001.0022q.0738-.0657.3705-.3127l.0705-.052-.0581.0609m-.7227 2.2278l.0016-.0015.0093-.0095-.0114.0103q-.0478.017-.1558.0815-.1553.093-.2759.2021-.119.1077-.2799.3009-.117.1534-.2148.2276l-.1548.1186q.0579.233-.3051.5733l.0055.007q.2313-.1737.4318-.3551.3244-.2935.604-.6952.1312-.1924.1883-.2726.0854-.1189.1572-.1874M75.3919 41.63q.1678-.3063.2663-.4692.1786-.2959.3351-.4375l.0489-.0371q.0505-.0315.1183-.0834.1619-.1238.4328-.2822.4359-.2566.7598-.3642.269-.089.5015-.2648l.2145-.174q.1483-.1235.2559-.203-.6021.7338-1.3604 1.1573-.1758.0985-.3513.2478-.2369.2025-.4586.4281l-.0734.0664.1492-.2229q.0512-.0915.0171-.1356-.062-.0805-.3554.185-.1402.1268-.3099.3374-.1458.1806-.1796.248m-4.1158 5.7084l-.0022.0043-.0163.0148.0185-.0191q.1847-.3633.1372-.4249-.0265-.0343-.1382.0003-.1405.0439-.2986.1869-.1842.1667-.5692.6399-.3851.4733-.6214.6871-.6634.6004-1.4321 1.032-.2377.1331-.5546.2892l-.0326.0152-.4624.2187-.3282.1413-.0407.0262-.0055-.007.0462-.0192.1601-.108q.0262-.0237.0419-.0498l.0126-.0232q-.0634-.0248-.2143.038l-.1654.0797.2171-.149.1087-.1103-.0324-.0419q-.0926-.0197-.244.0496l-.152.0828q.2667-.2032.5813-.4665l.0815-.0737-.0054-.0427q-.0324-.0421-.6553.2447-.0809.053-.1531.0707l.1531-.0707q.0624-.041.1292-.1015.0261-.0236.0338-.0424l.0044-.0159q-.0819-.0055-.3033.1021l-.2611.1352q.0457-.0413.1353-.1046l.0928-.0662q.0326-.0295.0598-.066.0273-.0365.0218-.0435-.0156-.0202-.199.0542l-.2783.1163-.0435.0156.0543-.0373q.3373-.2338.4454-.3197l.038-.0583q-.0415-.0539-.3042.0756-.273.1484-.3142.1631.2123-.1445.2905-.2153.0326-.0295.0337-.0353-.001-.0121.0071-.0374-.0692-.0324-.2651.0546l-.3207.1547.0272-.0365.0815-.0738.3474-.2312q.2248-.1535.3966-.3113.057-.0516.0761-.1165.0154-.0519.0002-.0715-.0334-.0434-.5255.1654-.5942.2524-.6842.2757.222-.132.4669-.3276.0057-.093-.2613.0523l-.1922.1097q-.0944.0534-.1052.0465.0488-.0442.2199-.1598l.2091-.1452.0597-.066q-.0688-.0138-.3634.1317-.2204.109-.2986.1583l.0055-.0287q.062-.0561.3781-.2886l.3063-.2236q.1792-.1623.1522-.1973-.0345-.0448-.4421.1659l-.5184.2753.2118-.156q-.3039.1693-.3365.1738.0218-.0435.0708-.0878.6692-.539.6739-.705-.0669-.0867-.4241.1247l-.2932.1797q-.1644.099-.2491.1292l.0463-.0656.3449-.2884q.2282-.2065.1904-.2555-.0394-.0511-.364.138-.2069.1194-.3904.2475l.1793-.1622q-.0562-.03-.23.0749-.1737.105-.0069-.0412.1662-.1469.3993-.3364.2325-.1901.1968-.2364-.0534-.0693-.3981.1226-.1623.091-.3355.2037l-.0261.0165.0272-.0365.3216-.2756q.1098-.0981.0887-.1254-.0184-.0238-.2192.0818-.1829.0966-.2991.1792.0158-.0262.244-.2291.1934-.1727.1637-.2112-.021-.0273-.205.0536-.14.0625-.4424.2446.3919-.3819.5138-.5611.0963-.1443.0698-.1786-.0356-.0462-.3548.1285-.1655.0904-.3941.2283l.1679-.1448q.144-.1327.1582-.186-.1129.0475-.2301.1251l-.1108.0717-.0228.0135.0272-.0365.1793-.1623-.0271.0008-.1873.1267q-.1407.0976-.1927.0983l.3149-.3812q.254-.3166.2075-.3768-.0535-.0693-.319.0961-.2432.1511-.4084.3244.0273-.0544.1762-.2165.13-.1401.1175-.1563l-.0433-.0202q-.1271.1186-.2032.1708l-.0738.0442.0218-.0435q.1272-.1151.2087-.2067l.0016-.0014.0234-.0271-.038.0225q-.0635.0467-.1629.1296-.0826.0652-.1412.0861l.194-.38q.1336-.2718.1168-.2935-.2779.16-.4544.2935-.0733.0557-.1081.0895-.0229.0207-.0294.0337l.0218-.0435q.2148-.2776.2394-.3355-.077.0365-.1835.1245-.0576.0474-.1315.1131-.0238-.0309.0372-.1133.0718-.0971.0719-.14-.1254.0742-.1857.1217l-.0315.0273.0272-.0365q.1099-.1267.2284-.2851.1893-.2498.1634-.2834-.0399-.0518-.1703.0555-.0646.0525-.2282.2065l-.1011.095.0435-.0512.0538-.0452q.0815-.0737.1544-.1765.0833-.1182.0746-.1294-.0443-.0574-.4127.2903.2045-.273.1851-.2983-.0076-.0098-.0303-.0034l-.0239.0049-.1141.1033q-.0158.0119-.1305.1538l.2271-.3803q.1835-.3075.1651-.3313l-.0357-.0104q-.0559.0101-.1651.109-.0994.0899-.1707.1698l-.0739.0871.0431-.0734.0212-.0441.0338-.0782q-.0086-.0112-.0547.0115-.0565.0273-.1136.0932.1225-.1999.0766-.2595-.0216-.0279-.0868.0311-.0212.0191-.1957.2127l.441-.72q.3011-.5031.5783-1.0012.4233-.7574 1.0005-1.5448l-.0655.1663q.0865-.0961.1686-.2049l.1398-.1848q.1827-.2331.5234-.5413.1532-.1387.3612-.3032l.1983-.1556q-.0092.0203-.1214.1728-.1006.1493-.0774.1795.0281.0364.3453-.2091l.5154-.3975q.2004-.1385.5781-.3377.3545-.1864.5997-.2883.3511-.1477.6671-.348m2.2811-1.9728q-.3374.3089-.5377.8171-.0628.159-.296.42-.175.1964-.3918.3926-.1614.146-.3293.2801-.1662.1326-.2901.2447l-.2891.2854q-.2729.2956-.2167.3685.1825.0428.2465.0325m-.0049.0115q-.102.0436-.2475.1349-.1803.1143-.3123.2338-.2445.2213-.1446.3507.0362.047.1317-.0015.1721-.0962.343-.1725-.189.1497-.2393.3069-.0399.1205.0049.1786.1998.259.7703-.2572.0684-.0619.1332-.1395.0663-.0791.13-.1759.1263-.1916.1882-.2476.0799-.0723.2736-.1513.1508-.0628.2419-.081l.0163-.0112.0054.007-.0217.0042-.2579.168q-.2068.1373-.3096.2302-.1206.1091-.2532.2601l-.1446.1713q-.2121.2632-.2872.3311-.0766.0693-.2166.1497l-.2812.1522q-.4097.2222-.6803.4671-.2706.2448-.4758.5494-.2585.3825-.1478.526.0654.0846.3721-.0954.286-.1674.4475-.3492-.0348.0625-.0084.0968.0675.0875.5565-.355.176-.1593.5241-.5693.3463-.4085.5876-.6268.6911-.6254 1.3644-.5097m.0005.0186l.0022-.0008.0244-.0185m.8946 6.8573q.3957-.4271.9661-1.2879.2764-.4166.6142-.8292.3372-.4133.2448-.1383.3134-.4441.7465-.8443.4325-.4009.9543-.7542-.0994.0649-.5265.2755-.3717.1819-.653.3591l-.0152.009-.1145.0776q-.1075.0723-.2331.1858-.1972.1785-.6442.7149-.4459.5343-.736.7968-.5183.4691-.8579.5743-.2458.0762-.3365-.0415-.0874-.1134-.0675-.2562.0166-.1184.1349-.3919l.005-.0116-.0049.0044-.0272.0186q-.7412.7112.0235-.8593-.3733.5638-.7857.9369-.2901.2626-.6706.4762-.3865.2165-.4643.1157-.0745-.0965.3966-.5622l.012-.0132.0201-.0241-.0266.0157-.0037.0023-.1662.0968q-.1638.071-.2308-.0157-.1285-.1666.004-.4613.162-.3605.6934-.8414.2917-.264.5431-.4118.1618-.0953.401-.187.2561-.0986.3766-.1648.2236-.1227.4681-.344.1418-.1283.2463-.2692.1425-.2027.2758-.3815-.1303.1072-.304.1764-.2137.0852-.2716.0246-.0578-.0605.0006-.2144.0415-.0863.1421-.2213.1746-.2329.3833-.4217.0863-.0782.2672-.2062.2166-.1533.2377-.1259.0081.0105-.0099.0767-.0214.0728-.053.1287.1578-.2188.2464-.312.0413-.0434.2564-.2381.4402-.3982.7491-.5898.3458-.2155.714-.2943m.0158-.0154l-.0033-.0007q-.006-.0041-.0233.0021m.5545 1.5439l-.0163.0148.0054-.0109m.6503-.9438l.1184-.0834m-6.9543 2.639q-.1043.1194-.1431.2414-.0509.1565.0301.2615.1215.1575.4225.0812.1177-.0304.2414-.0924l.1032-.0565q.203-.1207.4263-.3228.2934-.2655.536-.5646.1544-.1909.3797-.5196.2383-.3476.3569-.4989.2165-.2755.4675-.5027.2103-.1902.3265-.2692.1737-.1085.3795-.2508-.0885.0683-.1554.1538-.0854.1082-.0514.1522.0643.0833.3504-.1055.101-.0664.2905-.2082l.3351-.2473q.4355-.3145.7199-.4375.3928-.1688.6266-.0452l.0378.049-.0109.0218-.0005-.0007m-1.8172 1.5337l-.051.0272m.051-.0272q.1229-.1421.1637-.1789.1076-.0974.2687-.1719-.0489.0443-.231.2209-.0521.0472-.2014.1299m-3.7271 2.5454l-.095.0742q-.106.0959-.052.1658.06.0777.3249-.0883.2329-.1466.4242-.3399-.0147.0169-.1518.2337-.1035.1637-.2942.3363-.1027.0929-.3645.2882-.2617.1953-.4394.356-.4629.4189-.6199.7393-.1395.2856-.0175.4437.1058.1372.3021.1332.2324-.0035.5393-.2193-.0702.1027-.0921.1533-.0414.097.0039.1558.1513.196.7896-.1641.2057-.1172.4539-.2871l.2167-.1533.0428-.0305m-.3818-.6815l.0152-.009-.0347.0338-.0126.0125m1.5326-.1303l-.0055-.007-.0108.0146-.0158.0154m-1.1294.782q-.1007.1529-.1335.2361-.0589.146-.0012.2209.0994.1288.375.0375l.2588-.0915q.1665-.0568.2907-.0752-.1206.0734-.1303.0822-.0489.0443-.0653.0947-.017.0498.0051.0786.0476.0615.2967-.0676.3853-.2001.5611-.2558-.0738.0443-.3563.2701-.2928.2341-.4639.3889-.0734.0664-.5652.559-.5151.4661-1.1757.8262l-.4396.2338q-.2101.1152-.3127.2081-.1174.1062-.1957.2127-.0947.1285-.0628.1698.0351.0455.1706.0453l.129-.0121.0233-.0093m3.7127-8.2509q-.2787.2558-.4449.3776l-.7337.5379q.6345-.7453-.7384-.1032 1.4878-.8269 2.237-1.6427.7789-.8487 1.4363-1.2308-.4834.3744-.9818 1.0917-.4957.7137-.7745.9695m-1.1619-.9824l-.1102.0796q-.1407.1047-.2189.1755-.2951.2669-.5236.5735-.1033.1387-.3548.5303.0883-.1726.0305-.2475-.0626-.0812-.4095.115-.3474.1955-.6897.5053-.282.2552-.3916.497-.0818.181-.044.23.0475.0616.3144-.023-.0217.0078-.1358.111-.3912.354-.2643.5185.0707.0917.2889-.013l.0016-.0015.0158-.019m.6691-.1122l.006-.0102.0033-.0065-.0103.0082q-.296.2119-.5619.506-.1391.1533-.2867.2202-.522.2347.1631-.585m.6865-.1327l-.1955.3314q-.1454.2529.196.0818l.0233-.0128-.0131.0154m.1243.9181l.0163-.0076-.0103.0011q-.2114.0094-.7321.1775-.4655.1502-.4914.1166-.0367-.0477-.0056-.1221-.3438.254-.5462.3575-.545.2803-.7388.029-.1377-.1784.1981-.6868.1372-.2061.3187-.412.0898-.1026.1751-.1858-.0798.0437-.1812.0773-.2235.0726-.2905-.0141-.0902-.117.1243-.4668.147-.24.2764-.3808-.3285.2271-.7832.427-.5757.2548-.6816.1175-.1285-.1666.3322-.7749.4341-.5746 1.0877-1.1518-.1048.0508-.2376.0759-.1995.0391-.2638-.0441-.0875-.1134.0362-.3478.1183-.2235.3747-.4579l-.2622.1695q-.1938.1112-.2284.0664-.0772-.1001.1898-.4321.2165-.2683.6017-.6229l.0163-.0147-.0217.0077q-.2766.0863-.8789.5326-.497.3677-.9077.7394-.6275.5679-1.1118 1.2497l-.3265.4631q-.1708.2306-.3289.3737l-.0815.0737q-.069.0541-.0895.0276l-.0036-.0729q-.062.0882-.2384.3691m.0109.0033l.038-.0476m3.6224-2.8856l.0114-.0104q.0261-.0235.0326-.0187l-.044.0291m-3.4318 2.5586l-.0049-.0062.0038.0084.0011-.0022m-.2297.3768l.0011-.0022m-.0011.0022q-.0365.0424-.0724.0749-.0912.0826-.133.0966-.0444.0141-.0785-.03-.0319-.0413.0085-.1325m4.2927-.1402l-.0695.0605-.0799.0758q.0483-.027.0896-.0596l.0543-.048"/><path d="M68.1304 39.0234q.0765-.0515.1254-.0957.0865-.0782.044-.1943.3673-.1767.6487-.3718.1672-.1169.3041-.2408.1597-.1445.3453-.3956l.0065-.0095q.1838-.246.3469-.3935.1499-.1357.2368-.1846.0602-.0331.1991-.0791l.0244-.0079m.7562-1.0146l-.0304.0251-.05.0428m.0804-.0679q.7969-.6784 1.0659-.9218-.2897.2775-.7447.757-.0449-.0116-.1887.0781l-.1325.0867-.0696.0462.0392-.0211"/></g></svg>