<?xml version="1.0" encoding="UTF-8" standalone="no"?>
<svg xmlns:xlink="http://www.w3.org/1999/xlink" height="143.25px" width="91.7px" xmlns="http://www.w3.org/2000/svg">
  <g transform="matrix(1.0, 0.0, 0.0, 1.0, 0.0, 0.0)">
    <use height="143.25" transform="matrix(1.0, 0.0, 0.0, 1.0, 0.0, 0.0)" width="91.7" xlink:href="#shape0"/>
    <use height="9.55" transform="matrix(1.0, 0.0, 0.0, 1.0, 53.1, 25.0)" width="33.9" xlink:href="#sprite0"/>
  </g>
  <defs>
    <g id="shape0" transform="matrix(1.0, 0.0, 0.0, 1.0, 0.0, 0.0)">
      <path d="M82.75 22.0 L83.9 23.5 84.25 24.0 85.0 25.0 85.15 24.85 85.55 25.6 86.4 27.6 86.6 28.15 86.45 28.15 82.2 28.55 82.25 29.1 82.15 29.1 81.9 28.55 Q81.4 27.9 80.25 27.5 76.75 26.7 73.15 26.8 70.15 26.85 67.3 27.9 65.9 28.35 66.0 29.45 L60.6 30.3 60.65 30.75 53.1 31.85 53.1 31.9 51.95 32.05 Q48.4 32.5 44.9 33.55 41.25 34.75 38.85 37.65 37.75 39.0 37.9 40.5 38.15 42.9 39.5 45.0 44.05 52.15 49.45 58.65 54.7 65.0 57.15 70.15 59.55 75.3 59.85 81.55 60.1 87.8 54.4 91.6 L50.45 81.85 Q53.1 84.9 55.05 84.9 L55.9 84.75 55.9 81.5 Q55.45 76.4 54.0 73.5 52.55 70.6 49.05 66.25 45.55 61.9 39.95 53.5 34.35 45.05 34.35 40.95 34.35 28.4 56.25 24.3 L73.4 22.15 Q78.75 21.65 82.75 22.0 M85.05 102.6 Q84.55 105.65 83.3 105.55 L82.65 102.8 81.2 105.75 78.65 105.4 Q80.4 112.9 74.05 117.5 L73.25 118.0 Q71.45 119.05 69.65 119.7 L71.8 122.5 Q74.05 124.7 76.15 125.0 L79.6 125.0 Q79.6 124.6 80.05 123.7 L80.3 123.1 81.3 124.6 Q81.6 125.15 81.75 127.7 81.9 130.25 78.8 131.7 75.7 133.1 72.25 132.2 68.8 131.25 65.6 127.75 L58.7 120.3 51.25 118.9 51.25 118.25 51.05 118.85 51.2 119.8 Q50.6 124.25 48.65 127.55 45.7 129.55 43.8 130.1 L40.6 130.8 Q41.95 133.65 43.9 135.55 46.9 138.45 50.95 138.45 52.95 138.45 54.6 137.1 56.25 135.75 56.3 133.95 L56.7 134.5 Q57.35 135.45 57.5 136.7 57.75 138.5 56.7 140.15 54.3 143.85 49.7 143.1 41.1 141.65 35.9 134.45 L33.15 130.45 Q27.3 128.25 24.95 122.3 23.9 119.7 23.3 117.2 15.55 116.95 8.35 114.5 L5.6 113.6 Q11.3 106.15 15.05 98.15 22.25 94.4 27.85 86.45 29.95 82.7 34.3 78.5 40.75 86.8 44.0 94.25 47.25 101.65 50.8 112.0 51.3 112.0 51.6 108.1 51.9 104.2 52.4 102.65 L53.7 103.95 55.75 105.35 Q56.4 103.75 56.35 101.4 L56.3 98.4 Q57.9 103.65 58.7 109.15 58.9 110.65 58.05 111.6 L52.85 106.05 Q52.65 108.45 53.0 110.6 53.35 112.7 53.15 114.8 52.9 116.85 52.0 117.3 L51.1 116.35 51.25 118.25 Q59.55 117.95 66.2 113.3 71.9 109.2 77.3 102.8 L77.55 102.45 77.15 102.6 79.45 98.8 Q79.65 99.9 80.15 100.7 81.15 102.4 83.05 102.4 L85.05 102.6 M15.15 95.05 Q9.1 94.65 3.3 96.25 L0.55 97.1 Q3.1 92.3 7.8 87.3 L10.85 84.5 11.8 83.6 12.1 83.3 13.1 81.3 Q13.05 75.95 17.35 67.9 L18.65 65.55 17.1 66.4 15.85 66.85 17.35 65.55 12.65 66.8 12.6 66.6 12.4 66.95 0.25 73.4 Q0.35 71.45 0.6 69.6 3.55 63.95 10.2 58.45 16.15 53.5 21.15 51.4 L21.25 51.7 Q15.95 58.55 12.6 66.6 14.4 64.15 17.8 61.35 22.95 57.15 26.5 56.1 25.1 59.85 21.05 63.85 L19.1 65.25 17.4 71.4 Q16.3 75.35 16.4 76.25 21.9 69.75 26.15 69.05 L26.15 70.15 Q26.15 72.15 20.85 83.9 17.65 91.0 15.15 95.05 M22.05 38.75 L20.55 39.25 Q19.35 39.65 18.1 40.25 L2.7 44.0 3.9 40.2 Q7.65 36.35 14.6 32.65 25.05 27.15 30.7 27.15 32.5 27.15 33.05 27.6 33.5 27.95 33.5 29.1 33.5 32.0 29.0 35.1 26.9 36.55 24.5 37.7 L22.05 38.75 M33.05 11.95 L35.25 11.45 36.3 11.2 Q29.1 6.15 20.35 3.4 L17.1 2.5 17.15 2.3 19.85 1.7 Q30.55 1.9 38.35 4.8 47.3 8.1 52.9 15.1 52.9 15.95 51.6 15.95 49.85 15.95 40.5 13.6 36.25 12.5 33.05 11.95 M34.0 94.85 L33.7 95.0 33.0 94.8 30.65 94.45 Q24.45 94.45 22.35 101.85 L22.25 102.15 21.5 104.7 Q21.0 106.3 22.25 108.55 25.2 116.4 27.35 119.1 31.25 124.1 39.7 124.1 45.3 124.1 47.65 122.0 50.0 119.9 50.25 115.0 47.25 108.7 42.05 101.95 39.3 98.4 34.0 94.85 M65.45 93.8 Q65.95 96.15 72.1 96.15 74.55 96.15 77.1 95.15 L78.35 94.6 76.95 97.1 Q71.9 104.7 65.0 110.35 67.7 106.5 68.85 99.45 L62.75 99.6 Q63.7 96.0 65.45 93.8" fill="#00c9db" fill-rule="evenodd" stroke="none"/>
      <path d="M86.6 28.15 L86.65 28.15 86.8 28.4 87.0 28.8 86.95 28.1 90.1 34.55 Q91.45 39.35 91.65 42.9 91.85 46.4 90.9 50.1 89.9 53.8 86.8 60.7 83.7 67.6 83.45 77.45 82.6 83.15 82.1 89.0 81.7 94.2 79.45 98.8 L77.15 102.6 77.55 102.45 77.3 102.8 Q71.9 109.2 66.2 113.3 59.55 117.95 51.25 118.25 L51.1 116.35 52.0 117.3 Q52.9 116.85 53.15 114.8 53.35 112.7 53.0 110.6 52.65 108.45 52.85 106.05 L58.05 111.6 Q58.9 110.65 58.7 109.15 57.9 103.65 56.3 98.4 L56.05 97.55 54.4 91.6 Q60.1 87.8 59.85 81.55 59.55 75.3 57.15 70.15 54.7 65.0 49.45 58.65 44.05 52.15 39.5 45.0 38.15 42.9 37.9 40.5 37.75 39.0 38.85 37.65 41.25 34.75 44.9 33.55 48.4 32.5 51.95 32.05 L53.1 31.9 53.1 31.85 60.65 30.75 60.6 30.3 66.0 29.45 77.75 34.1 78.4 33.85 78.85 33.75 78.95 33.7 79.0 33.7 Q81.05 33.15 81.7 31.75 82.4 30.25 82.2 29.25 L82.15 29.1 82.25 29.1 82.2 28.55 86.45 28.15 86.6 28.15 M80.0 43.75 Q80.75 38.9 79.95 36.2 79.25 33.8 79.0 33.7 79.25 33.8 79.95 36.2 80.75 38.9 80.0 43.75 M78.35 94.6 L79.3 92.6 74.25 92.3 Q72.0 91.7 72.65 91.05 L75.55 78.6 Q71.05 86.5 65.45 93.8 63.7 96.0 62.75 99.6 L68.85 99.45 Q67.7 106.5 65.0 110.35 71.9 104.7 76.95 97.1 L78.35 94.6" fill="#ffffff" fill-rule="evenodd" stroke="none"/>
      <path d="M66.0 29.45 Q65.9 28.35 67.3 27.9 70.15 26.85 73.15 26.8 76.75 26.7 80.25 27.5 81.4 27.9 81.9 28.55 L82.15 29.1 82.2 29.25 Q82.4 30.25 81.7 31.75 81.05 33.15 79.0 33.7 L78.95 33.7 78.85 33.75 78.4 33.85 77.75 34.1 66.0 29.45 M76.6 29.85 L77.3 29.2 77.3 28.8 77.25 28.8 77.2 28.95 77.1 28.8 Q76.3 27.65 73.9 27.85 71.45 28.0 71.45 29.0 L71.5 29.2 71.6 29.4 71.9 29.55 72.0 29.8 71.95 29.95 73.55 30.2 73.75 30.2 75.8 30.2 76.6 29.85" fill="#ff7e00" fill-rule="evenodd" stroke="none"/>
      <path d="M83.45 77.45 L85.8 87.2 Q87.6 94.75 85.05 102.6 L83.05 102.4 Q81.15 102.4 80.15 100.7 79.65 99.9 79.45 98.8 81.7 94.2 82.1 89.0 82.6 83.15 83.45 77.45 M73.25 118.0 Q77.6 119.6 80.3 123.1 L80.05 123.7 Q79.6 124.6 79.6 125.0 L76.15 125.0 Q74.05 124.7 71.8 122.5 L69.65 119.7 Q71.45 119.05 73.25 118.0 M48.65 127.55 Q53.35 129.95 56.3 133.95 56.25 135.75 54.6 137.1 52.95 138.45 50.95 138.45 46.9 138.45 43.9 135.55 41.95 133.65 40.6 130.8 L43.8 130.1 Q45.7 129.55 48.65 127.55 M15.05 98.15 L16.65 95.2 15.15 95.05 Q17.65 91.0 20.85 83.9 26.15 72.15 26.15 70.15 L26.15 69.05 Q21.9 69.75 16.4 76.25 16.3 75.35 17.4 71.4 L19.1 65.25 21.05 63.85 Q25.1 59.85 26.5 56.1 22.95 57.15 17.8 61.35 14.4 64.15 12.6 66.6 15.95 58.55 21.25 51.7 L21.7 51.15 21.15 51.4 Q16.15 53.5 10.2 58.45 3.55 63.95 0.6 69.6 1.95 59.25 8.25 50.7 12.4 45.0 18.15 41.0 L20.05 39.75 22.05 38.75 24.5 37.7 Q26.9 36.55 29.0 35.1 33.5 32.0 33.5 29.1 33.5 27.95 33.05 27.6 32.5 27.15 30.7 27.15 25.05 27.15 14.6 32.65 7.65 36.35 3.9 40.2 6.9 31.75 12.3 24.45 18.45 16.25 28.05 13.25 L33.05 11.95 Q36.25 12.5 40.5 13.6 49.85 15.95 51.6 15.95 52.9 15.95 52.9 15.1 47.3 8.1 38.35 4.8 30.55 1.9 19.85 1.7 L25.15 0.75 42.4 0.25 Q51.15 1.05 60.0 5.1 68.85 9.1 75.1 14.4 79.1 17.75 82.75 22.0 78.75 21.65 73.4 22.15 L56.25 24.3 Q34.35 28.4 34.35 40.95 34.35 45.05 39.95 53.5 45.55 61.9 49.05 66.25 52.55 70.6 54.0 73.5 55.45 76.4 55.9 81.5 L55.9 84.75 55.05 84.9 Q53.1 84.9 50.45 81.85 L54.4 91.6 56.05 97.55 56.3 98.4 56.35 101.4 Q56.4 103.75 55.75 105.35 L53.7 103.95 52.4 102.65 Q51.9 104.2 51.6 108.1 51.3 112.0 50.8 112.0 47.25 101.65 44.0 94.25 40.75 86.8 34.3 78.5 29.95 82.7 27.85 86.45 22.25 94.4 15.05 98.15 M0.55 97.1 L0.0 97.2 Q-0.15 83.95 8.95 74.1 L15.85 66.85 17.1 66.4 18.65 65.55 17.35 67.9 Q13.05 75.95 13.1 81.3 L12.1 83.3 11.8 83.6 10.85 84.5 7.8 87.3 Q3.1 92.3 0.55 97.1 M34.0 94.85 Q39.3 98.4 42.05 101.95 47.25 108.7 50.25 115.0 50.0 119.9 47.65 122.0 45.3 124.1 39.7 124.1 31.25 124.1 27.35 119.1 25.2 116.4 22.25 108.55 21.0 106.3 21.5 104.7 L22.25 102.15 22.35 101.85 Q24.45 94.45 30.65 94.45 L33.0 94.8 33.7 95.0 34.0 94.85 M65.45 93.8 Q71.05 86.5 75.55 78.6 L72.65 91.05 Q72.0 91.7 74.25 92.3 L79.3 92.6 78.35 94.6 77.1 95.15 Q74.55 96.15 72.1 96.15 65.95 96.15 65.45 93.8" fill="#00f6ff" fill-rule="evenodd" stroke="none"/>
      <path d="M76.6 29.85 L75.8 30.2 73.75 30.2 73.55 30.2 71.95 29.95 72.0 29.8 71.9 29.55 71.6 29.4 71.5 29.2 71.45 29.0 Q71.45 28.0 73.9 27.85 76.3 27.65 77.1 28.8 L77.2 28.95 77.25 28.8 77.3 28.8 77.3 29.2 76.6 29.85" fill="#ffca2a" fill-rule="evenodd" stroke="none"/>
      <path d="M79.0 33.7 Q79.25 33.8 79.95 36.2 80.75 38.9 80.0 43.75 M78.85 33.75 L78.95 33.7 79.0 33.7 Z" fill="none" stroke="#000000" stroke-linecap="round" stroke-linejoin="round" stroke-width="1.0"/>
    </g>
    <g id="sprite0" transform="matrix(1.0, 0.0, 0.0, 1.0, 0.0, 0.0)">
      <use height="9.55" transform="matrix(1.0, 0.0, 0.0, 1.0, 0.0, 0.0)" width="33.9" xlink:href="#shape1"/>
    </g>
    <g id="shape1" transform="matrix(1.0, 0.0, 0.0, 1.0, 0.0, 0.0)">
      <path d="M31.75 4.95 L32.1 4.5 Q32.95 3.3 32.1 1.55 L31.4 1.5 30.75 2.15 Q30.3 2.75 30.3 3.15 L30.95 4.05 31.75 4.95 M33.85 3.1 Q34.05 5.1 32.95 6.5 31.4 7.05 30.4 6.3 29.45 5.45 29.2 4.25 L29.15 4.1 Q28.95 2.9 29.4 1.6 L29.95 0.0 30.8 0.0 32.7 0.85 Q33.95 1.7 33.85 3.1 M5.65 6.1 L5.8 4.3 5.8 4.15 Q5.75 3.5 4.6 3.35 L3.4 4.3 3.4 4.5 Q3.4 5.25 3.55 6.05 3.7 6.8 4.8 7.15 L5.05 6.9 5.65 6.1 M7.5 5.3 Q7.95 8.75 4.8 9.45 1.2 10.05 0.0 6.9 0.0 4.6 0.85 2.95 1.65 1.3 2.8 1.3 L4.95 1.7 Q6.0 1.7 6.75 2.75 7.5 3.8 7.5 5.3" fill="#000000" fill-rule="evenodd" stroke="none"/>
      <path d="M31.75 4.95 L30.95 4.05 30.3 3.15 Q30.3 2.75 30.75 2.15 L31.4 1.5 32.1 1.55 Q32.95 3.3 32.1 4.5 L31.75 4.95 M5.65 6.1 L5.05 6.9 4.8 7.15 Q3.7 6.8 3.55 6.05 3.4 5.25 3.4 4.5 L3.4 4.3 4.6 3.35 Q5.75 3.5 5.8 4.15 L5.8 4.3 5.65 6.1" fill="#ffffff" fill-rule="evenodd" stroke="none"/>
    </g>
  </defs>
</svg>
