<?xml version="1.0" encoding="UTF-8" standalone="no"?>
<svg xmlns:xlink="http://www.w3.org/1999/xlink" height="103.4px" width="104.5px" xmlns="http://www.w3.org/2000/svg">
  <g transform="matrix(1.0, 0.0, 0.0, 1.0, 51.45, 51.3)">
    <use height="102.65" transform="matrix(1.0, 0.0, 0.0, 1.0, -51.4, -51.3)" width="102.75" xlink:href="#shape0"/>
  </g>
  <defs>
    <g id="shape0" transform="matrix(1.0, 0.0, 0.0, 1.0, 51.4, 51.3)">
      <path d="M-7.15 -51.1 Q-3.3 -50.1 0.2 -48.55 3.7 -46.9 7.0 -44.65 L11.3 -41.45 16.2 -37.4 21.7 -32.25 24.05 -29.75 27.9 -24.95 31.5 -19.7 34.9 -13.75 36.55 -10.6 Q36.25 -9.25 34.9 -8.85 L32.1 -8.0 30.8 -7.7 Q28.5 -14.9 23.9 -20.85 L20.05 -25.45 21.8 -15.8 17.5 -21.9 Q15.35 -24.75 13.5 -27.75 12.55 -29.35 11.95 -31.2 11.0 -33.95 9.4 -36.45 7.45 -39.45 4.75 -42.0 L0.35 -45.7 -1.85 -47.25 -5.15 -49.25 -6.25 -50.4 -7.15 -51.1 M37.8 -8.15 L38.95 -6.25 41.85 -0.65 Q43.5 2.6 44.9 6.35 L46.6 11.35 Q47.75 15.15 48.25 19.0 48.8 23.55 49.65 28.1 49.8 29.0 50.3 29.9 51.1 31.2 51.25 32.85 L51.3 37.1 51.0 39.4 Q50.2 43.1 46.85 45.1 46.85 43.25 45.65 41.95 44.45 40.65 42.75 40.65 42.7 38.75 42.25 36.9 41.3 33.1 38.6 30.2 37.9 29.5 37.85 28.5 L37.35 23.05 Q36.9 19.2 35.7 15.4 L35.8 15.2 36.1 13.6 36.45 13.4 36.35 12.35 37.45 5.75 38.0 -1.2 Q38.15 -4.65 37.8 -8.15 M37.0 48.9 L30.8 49.65 23.1 48.9 Q19.6 48.2 16.9 45.85 L14.5 43.6 14.8 41.55 14.85 41.05 Q14.9 41.8 15.0 41.0 L15.1 40.15 14.85 41.05 14.7 41.45 14.5 42.1 14.45 42.25 14.05 43.5 Q11.2 38.5 6.35 35.1 L0.8 31.65 Q1.6 34.05 1.95 36.6 2.15 38.25 2.7 39.85 4.3 44.25 8.3 46.65 9.35 48.1 10.8 46.95 L10.9 46.9 Q13.1 46.35 13.8 44.45 L14.0 43.8 14.2 44.9 Q13.95 47.15 13.2 49.15 12.65 50.65 11.1 51.15 L8.55 51.2 Q6.6 50.65 5.15 49.0 2.7 46.25 1.5 42.65 L0.9 41.0 Q0.3 43.1 -1.3 44.85 L-2.65 45.9 Q-4.25 46.75 -5.85 47.1 L-8.7 47.5 Q-12.75 47.95 -16.2 46.65 -19.65 45.35 -22.6 42.75 -25.2 40.35 -26.9 37.4 -28.7 34.3 -29.25 30.95 L-29.6 27.45 -29.85 23.25 -29.65 29.5 -34.15 23.9 -37.85 16.95 -40.3 11.7 -42.75 5.35 Q-43.7 2.2 -43.4 -1.05 L-40.4 -0.65 Q-42.8 -3.95 -45.6 -6.7 L-50.0 -10.75 -51.4 -11.85 -51.0 -12.15 -49.1 -11.05 -42.85 -6.95 -37.4 -3.4 Q-34.05 -1.45 -30.5 0.35 L-23.95 3.65 -23.1 4.2 Q-20.65 5.65 -18.3 7.4 L-14.45 10.35 -10.7 13.75 -7.1 17.35 -1.8 22.9 3.7 28.65 6.6 31.6 9.55 34.55 12.65 37.45 17.2 40.95 Q18.55 41.75 20.1 42.25 23.7 43.65 27.4 44.15 L34.85 43.75 Q33.7 45.15 34.25 46.8 L35.05 47.85 37.0 48.9 M-23.2 -22.25 L-24.45 -23.95 -29.2 -30.0 Q-31.15 -32.55 -33.55 -34.65 L-39.15 -38.9 -40.15 -39.65 -39.6 -39.8 -36.45 -38.45 -36.45 -38.5 -34.5 -37.55 Q-26.95 -33.75 -20.3 -28.4 L-16.95 -26.0 Q-15.15 -24.75 -14.7 -22.55 L-14.45 -21.3 Q-14.1 -20.05 -14.8 -18.95 L-15.3 -18.9 -23.2 -22.25 M-12.3 16.1 Q-14.8 13.6 -18.05 11.95 -21.55 10.2 -25.2 11.7 -27.95 12.75 -29.65 15.0 L-30.0 20.7 Q-29.05 23.45 -28.25 26.5 -27.25 30.15 -25.35 33.3 -23.35 36.65 -20.0 38.85 -18.1 40.15 -15.9 40.95 L-8.5 41.2 Q-6.6 40.7 -4.95 39.55 -3.3 38.45 -2.45 36.7 -0.9 33.35 -1.7 29.8 -2.1 28.2 -2.8 26.8 -3.25 25.95 -3.85 25.25 L-7.95 20.7 -12.3 16.1 M44.5 34.2 L44.75 33.4 Q46.0 30.15 49.1 28.85 46.0 30.15 44.75 33.4 L44.5 34.2" fill="#02c1c0" fill-rule="evenodd" stroke="none"/>
      <path d="M-34.15 23.9 L-36.2 21.0 -39.75 15.4 -42.65 10.55 Q-46.25 3.9 -48.4 -3.2 L-47.5 -2.7 Q-45.45 -1.55 -43.4 -1.05 -43.7 2.2 -42.75 5.35 L-40.3 11.7 -37.85 16.95 -34.15 23.9 M-51.0 -12.15 Q-48.6 -14.05 -46.05 -15.4 L-40.65 -18.1 Q-37.2 -19.6 -33.7 -20.55 L-27.2 -22.0 -23.75 -22.2 -23.2 -22.25 -15.3 -18.9 -14.8 -18.95 Q-14.1 -20.05 -14.45 -21.3 L-14.7 -22.55 Q-15.15 -24.75 -16.95 -26.0 L-20.3 -28.4 Q-26.95 -33.75 -34.5 -37.55 -30.9 -36.75 -27.65 -35.0 -24.75 -33.45 -22.2 -31.7 L-16.3 -27.5 -14.4 -26.05 Q-15.85 -28.1 -17.65 -29.8 L-21.1 -32.9 Q-25.1 -36.1 -29.9 -38.1 -33.2 -39.55 -36.45 -38.5 L-36.45 -38.45 -39.6 -39.8 -35.55 -40.65 -29.05 -41.25 -18.35 -40.7 -9.2 -39.0 Q-3.5 -37.7 1.65 -35.2 L1.05 -36.6 -0.25 -39.5 Q-3.55 -46.15 -8.95 -51.3 L-7.15 -51.1 -6.25 -50.4 -5.15 -49.25 -1.85 -47.25 0.35 -45.7 4.75 -42.0 Q7.45 -39.45 9.4 -36.45 11.0 -33.95 11.95 -31.2 12.55 -29.35 13.5 -27.75 15.35 -24.75 17.5 -21.9 L21.8 -15.8 Q22.3 -12.75 22.35 -9.6 L22.35 -6.1 Q22.2 -2.45 21.5 1.15 20.9 4.45 19.95 7.65 L20.65 7.1 23.15 5.35 Q26.25 3.0 28.55 -0.05 L29.45 -1.3 30.25 -2.8 30.65 -2.2 35.7 15.4 Q36.9 19.2 37.35 23.05 L37.85 28.5 Q37.9 29.5 38.6 30.2 41.3 33.1 42.25 36.9 42.7 38.75 42.75 40.65 38.7 40.85 35.45 43.25 L34.85 43.75 27.4 44.15 Q23.7 43.65 20.1 42.25 18.55 41.75 17.2 40.95 L12.65 37.45 9.55 34.55 6.6 31.6 3.7 28.65 -1.8 22.9 -7.1 17.35 -10.7 13.75 -14.45 10.35 -18.3 7.4 Q-20.65 5.65 -23.1 4.2 L-23.95 3.65 -30.5 0.35 Q-34.05 -1.45 -37.4 -3.4 L-42.85 -6.95 -49.1 -11.05 -51.0 -12.15 M-5.15 -49.25 Q-3.35 -45.75 -1.2 -42.5 0.6 -39.75 1.65 -36.85 L2.25 -35.85 2.5 -35.7 Q3.1 -36.45 2.75 -37.6 L2.1 -39.9 1.3 -42.15 Q-0.3 -45.75 -3.5 -48.0 L-5.15 -49.25 M36.2 11.6 L36.25 11.9 36.45 13.4 36.1 13.6 36.2 11.6 M-48.35 -12.85 L-49.1 -11.75 Q-48.4 -10.8 -46.95 -10.9 -40.35 -11.3 -33.9 -10.65 L-28.45 -9.4 -27.3 -9.1 Q-34.75 -12.75 -43.05 -13.0 L-48.35 -12.85 M-12.3 16.1 L-7.95 20.7 -3.85 25.25 Q-3.25 25.95 -2.8 26.8 -2.1 28.2 -1.7 29.8 -0.9 33.35 -2.45 36.7 -3.3 38.45 -4.95 39.55 -6.6 40.7 -8.5 41.2 L-15.9 40.95 Q-18.1 40.15 -20.0 38.85 -23.35 36.65 -25.35 33.3 -27.25 30.15 -28.25 26.5 -29.05 23.45 -30.0 20.7 L-29.65 15.0 Q-27.95 12.75 -25.2 11.7 -21.55 10.2 -18.05 11.95 -14.8 13.6 -12.3 16.1 M-20.8 27.45 Q-21.25 27.6 -21.4 28.15 -22.15 31.75 -20.15 34.85 L-18.25 37.65 Q-16.9 39.6 -14.65 40.4 L-13.25 40.8 Q-10.3 41.35 -8.7 39.4 L-8.45 38.85 -9.3 37.9 Q-12.7 37.65 -15.25 35.35 -17.1 33.75 -18.15 31.6 -18.95 29.25 -20.6 27.6 L-20.8 27.45 M8.3 46.65 Q4.3 44.25 2.7 39.85 2.15 38.25 1.95 36.6 1.6 34.05 0.8 31.65 L6.35 35.1 Q11.2 38.5 14.05 43.5 L14.45 42.25 14.1 43.6 14.05 43.85 14.2 44.9 14.0 43.8 13.8 44.45 Q13.1 46.35 10.9 46.9 11.05 45.8 10.55 44.7 L7.1 37.85 Q6.35 37.9 6.35 38.9 6.35 41.85 7.4 44.55 L8.3 46.65 M20.95 33.8 L24.15 34.65 Q27.8 35.55 30.5 37.85 27.8 35.55 24.15 34.65 L20.95 33.8" fill="#00f6ff" fill-rule="evenodd" stroke="none"/>
      <path d="M-5.15 -49.25 L-3.5 -48.0 Q-0.3 -45.75 1.3 -42.15 L2.1 -39.9 2.75 -37.6 Q3.1 -36.45 2.5 -35.7 L2.25 -35.85 1.65 -36.85 Q0.6 -39.75 -1.2 -42.5 -3.35 -45.75 -5.15 -49.25 M21.8 -15.8 L23.4 -13.15 26.3 -7.6 29.45 -1.3 28.55 -0.05 Q26.25 3.0 23.15 5.35 L20.65 7.1 19.95 7.65 Q20.9 4.45 21.5 1.15 22.2 -2.45 22.35 -6.1 L22.35 -9.6 Q22.3 -12.75 21.8 -15.8 M30.65 -2.2 L30.6 -2.5 30.7 -3.3 31.0 -3.85 31.65 -2.7 33.6 2.1 35.6 8.65 36.2 11.6 35.8 15.2 35.7 15.4 30.65 -2.2 M36.25 11.9 L36.35 12.35 36.45 13.4 36.25 11.9 M-48.35 -12.85 L-43.05 -13.0 Q-34.75 -12.75 -27.3 -9.1 L-28.45 -9.4 -33.9 -10.65 Q-40.35 -11.3 -46.95 -10.9 -48.4 -10.8 -49.1 -11.75 L-48.35 -12.85 M-36.45 -38.5 Q-33.2 -39.55 -29.9 -38.1 -25.1 -36.1 -21.1 -32.9 L-17.65 -29.8 Q-15.85 -28.1 -14.4 -26.05 L-16.3 -27.5 -22.2 -31.7 Q-24.75 -33.45 -27.65 -35.0 -30.9 -36.75 -34.5 -37.55 L-36.45 -38.5 M-20.8 27.45 L-20.6 27.6 Q-18.95 29.25 -18.15 31.6 -17.1 33.75 -15.25 35.35 -12.7 37.65 -9.3 37.9 L-8.45 38.85 -8.7 39.4 Q-10.3 41.35 -13.25 40.8 L-14.65 40.4 Q-16.9 39.6 -18.25 37.65 L-20.15 34.85 Q-22.15 31.75 -21.4 28.15 -21.25 27.6 -20.8 27.45 M8.3 46.65 L7.4 44.55 Q6.35 41.85 6.35 38.9 6.35 37.9 7.1 37.85 L10.55 44.7 Q11.05 45.8 10.9 46.9 L10.8 46.95 Q9.35 48.1 8.3 46.65" fill="#ffffff" fill-rule="evenodd" stroke="none"/>
      <path d="M36.55 -10.6 L37.8 -8.15 Q38.15 -4.65 38.0 -1.2 L37.45 5.75 36.35 12.35 36.25 11.9 36.2 11.6 35.6 8.65 33.6 2.1 31.65 -2.7 31.0 -3.85 30.7 -3.3 30.6 -2.5 30.65 -2.2 30.25 -2.8 29.45 -1.3 26.3 -7.6 23.4 -13.15 21.8 -15.8 20.05 -25.45 23.9 -20.85 Q28.5 -14.9 30.8 -7.7 L32.1 -8.0 34.9 -8.85 Q36.25 -9.25 36.55 -10.6" fill="#ccf0ff" fill-rule="evenodd" stroke="none"/>
      <path d="M5.15 49.0 Q4.15 50.4 2.5 50.7 0.4 51.15 -1.65 50.75 -5.6 49.8 -8.7 47.5 L-5.85 47.1 Q-4.25 46.75 -2.65 45.9 L-1.3 44.85 Q0.3 43.1 0.9 41.0 L1.5 42.65 Q2.7 46.25 5.15 49.0" fill="#01a9a8" fill-rule="evenodd" stroke="none"/>
      <path d="M46.85 45.1 L44.5 46.8 Q41.05 48.65 37.0 48.9 L35.05 47.85 34.25 46.8 Q33.7 45.15 34.85 43.75 L35.45 43.25 Q38.7 40.85 42.75 40.65 44.45 40.65 45.65 41.95 46.85 43.25 46.85 45.1 M44.1 42.8 Q43.4 41.8 42.05 42.1 39.35 42.0 38.1 43.95 L38.15 45.2 Q39.3 46.25 40.95 45.95 42.2 45.7 43.2 44.95 44.0 44.3 44.15 43.25 L44.1 42.8" fill="#ff7e00" fill-rule="evenodd" stroke="none"/>
      <path d="M44.1 42.8 L44.15 43.25 Q44.0 44.3 43.2 44.95 42.2 45.7 40.95 45.95 39.3 46.25 38.15 45.2 L38.1 43.95 Q39.35 42.0 42.05 42.1 43.4 41.8 44.1 42.8" fill="#ffc92a" fill-rule="evenodd" stroke="none"/>
      <path d="M14.8 41.55 L14.2 44.9 14.05 43.85 14.1 43.6 14.45 42.25 14.5 42.1 14.7 41.45 14.85 41.05 15.1 40.15 15.0 41.0 Q14.9 41.8 14.85 41.05 L14.8 41.55" fill="#00c9db" fill-rule="evenodd" stroke="none"/>
      <path d="M49.1 28.85 Q46.0 30.15 44.75 33.4 L44.5 34.2 M30.5 37.85 Q27.8 35.55 24.15 34.65 L20.95 33.8" fill="none" stroke="#330000" stroke-linecap="round" stroke-linejoin="round" stroke-width="1.0"/>
    </g>
  </defs>
</svg>
