<?xml version="1.0" encoding="UTF-8" standalone="no"?>
<svg xmlns:xlink="http://www.w3.org/1999/xlink" height="170.3px" width="181.65px" xmlns="http://www.w3.org/2000/svg">
  <g transform="matrix(1.0, 0.0, 0.0, 1.0, 93.1, 85.15)">
    <use height="68.75" transform="matrix(1.0, 0.0, 0.0, 1.0, 28.5, -41.9)" width="60.05" xlink:href="#sprite0"/>
    <use height="28.3" transform="matrix(1.0, 0.0, 0.0, 1.0, 8.45, 48.3)" width="37.0" xlink:href="#shape2"/>
    <use height="42.8" transform="matrix(1.0, 0.0, 0.0, 1.0, 5.9, 10.8)" width="43.3" xlink:href="#shape3"/>
    <use height="140.85" transform="matrix(1.0, 0.0, 0.0, 1.0, -47.05, -85.15)" width="98.1" xlink:href="#sprite1"/>
    <use height="36.35" transform="matrix(1.0, 0.0, 0.0, 1.0, -36.8, 48.8)" width="23.75" xlink:href="#shape6"/>
    <use height="53.5" transform="matrix(1.0, 0.0, 0.0, 1.0, -39.95, 6.95)" width="43.4" xlink:href="#shape7"/>
    <use height="77.95" transform="matrix(1.0, 0.0, 0.0, 1.0, -93.1, -42.05)" width="100.8" xlink:href="#sprite3"/>
  </g>
  <defs>
    <g id="sprite0" transform="matrix(1.0, 0.0, 0.0, 1.0, 28.1, 32.4)">
      <use height="38.4" transform="matrix(1.0, 0.0, 0.0, 1.0, -24.5, -28.7)" width="39.65" xlink:href="#shape0"/>
      <use height="57.3" transform="matrix(1.0, 0.0, 0.0, 1.0, -5.95, -28.65)" width="30.45" xlink:href="#shape1"/>
    </g>
    <g id="shape0" transform="matrix(1.0, 0.0, 0.0, 1.0, 19.8, 19.25)">
      <path d="M17.85 -2.8 Q19.35 -0.05 19.35 2.6 19.35 10.8 14.85 15.65 10.35 20.55 0.5 17.5 -9.35 14.5 -14.4 6.9 -18.35 0.95 -19.1 -3.1 -14.6 5.55 -8.7 9.25 -2.85 12.9 4.8 13.15 12.4 13.4 15.25 9.25 18.05 5.1 18.05 0.35 L17.85 -2.8" fill="#00c9db" fill-rule="evenodd" stroke="none"/>
      <path d="M-19.1 -3.1 L-19.3 -5.25 Q-19.2 -9.8 -16.25 -14.25 -13.3 -18.7 -8.75 -18.75 L-2.3 -18.35 Q-0.4 -17.9 3.35 -15.8 L9.0 -12.15 Q15.4 -7.3 17.85 -2.8 L18.05 0.35 Q18.05 5.1 15.25 9.25 12.4 13.4 4.8 13.15 -2.85 12.9 -8.7 9.25 -14.6 5.55 -19.1 -3.1" fill="#00f6ff" fill-rule="evenodd" stroke="none"/>
      <path d="M-19.1 -3.1 L-19.3 -5.25 Q-19.2 -9.8 -16.25 -14.25 -13.3 -18.7 -8.75 -18.75 L-2.3 -18.35 Q-0.4 -17.9 3.35 -15.8 L9.0 -12.15 Q15.4 -7.3 17.85 -2.8 19.35 -0.05 19.35 2.6 19.35 10.8 14.85 15.65 10.35 20.55 0.5 17.5 -9.35 14.5 -14.4 6.9 -18.35 0.95 -19.1 -3.1 Z" fill="none" stroke="#0483b3" stroke-linecap="round" stroke-linejoin="round" stroke-width="1.0"/>
    </g>
    <g id="shape1" transform="matrix(1.0, 0.0, 0.0, 1.0, 15.2, 28.65)">
      <path d="M9.35 1.25 L6.95 -0.1 Q4.65 -0.95 2.1 -0.95 -6.85 -0.95 -8.9 5.2 -5.4 2.5 1.15 2.5 L2.1 2.55 2.25 2.55 2.7 4.75 Q2.7 8.15 0.8 10.45 -1.0 12.7 -3.45 12.7 -8.35 12.7 -12.4 7.4 -13.9 5.45 -14.7 3.6 L-14.7 3.2 Q-14.7 -3.15 -11.2 -8.5 -8.1 -13.2 -4.4 -13.8 L-4.35 -13.8 Q-3.9 -16.3 -3.9 -19.5 -3.9 -21.9 -5.2 -25.95 L-5.95 -28.15 -5.5 -27.8 Q-0.6 -22.25 0.45 -15.3 0.55 -10.4 0.8 -7.3 L2.4 -7.6 Q4.75 -7.6 7.35 -3.85 L9.35 -0.7 9.35 0.15 9.35 1.25 M-4.0 16.95 Q-2.05 16.2 0.35 14.85 6.2 11.5 6.2 7.75 6.2 6.7 4.25 4.05 L3.15 2.65 5.8 3.35 6.0 3.45 9.3 3.2 Q10.5 3.45 11.6 4.15 L11.9 5.25 12.6 8.25 Q12.6 13.9 7.85 16.5 4.25 18.4 -1.5 18.4 L-4.55 18.3 -6.35 17.7 -4.0 16.95 M-3.8 -13.5 L-8.65 -0.85 Q-9.55 1.4 -9.9 3.5 -8.95 1.4 -5.25 -2.6 -2.25 -5.85 0.1 -6.95 -0.4 -8.4 -1.4 -10.15 L-3.8 -13.5 M2.55 20.3 Q7.05 20.3 10.6 17.75 L11.05 17.45 11.2 17.6 Q9.7 22.75 5.8 24.7 2.6 26.35 -3.75 26.35 L-7.2 26.2 -9.3 25.35 -9.3 25.3 Q-6.8 25.3 -2.25 23.4 1.1 22.0 2.55 20.3" fill="#00f6ff" fill-rule="evenodd" stroke="none"/>
      <path d="M-14.7 3.6 Q-13.9 5.45 -12.4 7.4 -8.35 12.7 -3.45 12.7 -1.0 12.7 0.8 10.45 2.7 8.15 2.7 4.75 L2.25 2.55 2.1 2.55 1.15 2.5 Q-5.4 2.5 -8.9 5.2 -6.85 -0.95 2.1 -0.95 4.65 -0.95 6.95 -0.1 L9.35 1.25 9.3 3.2 6.0 3.45 5.8 3.35 3.15 2.65 4.25 4.05 Q6.2 6.7 6.2 7.75 6.2 11.5 0.35 14.85 -2.05 16.2 -4.0 16.95 -6.35 15.95 -8.9 13.85 -14.5 9.15 -14.7 3.6 M9.35 -0.7 L7.35 -3.85 Q4.75 -7.6 2.4 -7.6 L0.8 -7.3 Q0.55 -10.4 0.45 -15.3 -0.6 -22.25 -5.5 -27.8 -0.4 -23.9 4.0 -16.35 9.05 -7.7 9.35 -0.7 M-3.8 -13.5 L-1.4 -10.15 Q-0.4 -8.4 0.1 -6.95 -2.25 -5.85 -5.25 -2.6 -8.95 1.4 -9.9 3.5 -9.55 1.4 -8.65 -0.85 L-3.8 -13.5 M-6.35 17.7 L-4.55 18.3 -1.5 18.4 Q4.25 18.4 7.85 16.5 12.6 13.9 12.6 8.25 L11.9 5.25 11.6 4.15 12.05 4.5 Q14.75 6.65 14.75 10.15 14.75 14.6 11.05 17.45 L10.6 17.75 Q7.05 20.3 2.55 20.3 L-1.85 19.65 Q-4.7 18.95 -6.8 17.9 L-6.75 17.75 -6.35 17.7 M-7.2 26.2 L-3.75 26.35 Q2.6 26.35 5.8 24.7 9.7 22.75 11.2 17.6 L12.25 18.55 Q13.2 19.3 13.2 21.45 13.2 23.5 10.75 25.55 8.3 27.6 4.65 27.95 1.05 28.3 -2.0 28.05 -4.25 27.8 -7.3 26.45 L-7.2 26.2" fill="#00c9db" fill-rule="evenodd" stroke="none"/>
      <path d="M9.35 1.25 L9.35 0.15 9.35 -0.7 Q9.05 -7.7 4.0 -16.35 -0.4 -23.9 -5.5 -27.8 L-5.95 -28.15 -5.2 -25.95 Q-3.9 -21.9 -3.9 -19.5 -3.9 -16.3 -4.35 -13.8 L-4.4 -13.8 Q-8.1 -13.2 -11.2 -8.5 -14.7 -3.15 -14.7 3.2 L-14.7 3.6 Q-14.5 9.15 -8.9 13.85 -6.35 15.95 -4.0 16.95 L-6.35 17.7 -6.75 17.75 -6.8 17.9 Q-4.7 18.95 -1.85 19.65 L2.55 20.3 Q1.1 22.0 -2.25 23.4 -6.8 25.3 -9.3 25.3 L-9.3 25.35 -7.2 26.2 -7.3 26.45 Q-4.25 27.8 -2.0 28.05 1.05 28.3 4.65 27.95 8.3 27.6 10.75 25.55 13.2 23.5 13.2 21.45 13.2 19.3 12.25 18.55 L11.2 17.6 M9.3 3.2 L9.35 1.25 M11.05 17.45 Q14.75 14.6 14.75 10.15 14.75 6.65 12.05 4.5 L11.6 4.15 Q10.5 3.45 9.3 3.2" fill="none" stroke="#0483b3" stroke-linecap="round" stroke-linejoin="round" stroke-width="1.0"/>
    </g>
    <g id="shape2" transform="matrix(1.0, 0.0, 0.0, 1.0, 18.5, 14.15)">
      <path d="M-9.5 -14.0 L-9.25 -14.0 Q-5.2 -13.45 -1.55 -11.55 L-0.35 -10.95 2.65 -9.4 Q9.8 -6.0 14.05 -1.4 16.95 1.8 18.25 5.25 16.9 3.7 14.7 2.25 12.9 1.05 8.75 -1.05 L7.75 -1.05 Q8.9 0.4 10.45 3.65 L10.6 4.0 14.1 11.6 14.1 12.45 Q10.8 7.65 8.75 5.35 5.05 1.3 0.55 0.95 L0.5 0.9 0.2 0.9 0.75 1.4 Q1.0 3.05 3.55 5.65 L3.9 6.15 7.4 11.3 6.8 11.3 6.35 11.3 Q1.75 8.95 -3.75 4.5 -12.85 -2.75 -12.85 -8.1 -12.85 -10.1 -11.55 -12.05 -10.7 -13.4 -9.5 -14.0" fill="#00f6ff" fill-rule="evenodd" stroke="none"/>
      <path d="M6.35 11.3 Q1.15 11.0 -7.45 4.0 -16.4 -3.2 -18.5 -10.05 -17.7 -11.5 -15.55 -13.05 -13.45 -14.55 -9.5 -14.0 -10.7 -13.4 -11.55 -12.05 -12.85 -10.1 -12.85 -8.1 -12.85 -2.75 -3.75 4.5 1.75 8.95 6.35 11.3 M18.25 5.25 L18.5 5.9 18.5 6.3 10.6 4.0 10.45 3.65 Q8.9 0.4 7.75 -1.05 L8.75 -1.05 Q12.9 1.05 14.7 2.25 16.9 3.7 18.25 5.25 M14.1 12.45 L14.1 14.15 7.5 8.75 Q4.55 6.55 3.55 5.65 1.0 3.05 0.75 1.4 L0.55 0.95 Q5.05 1.3 8.75 5.35 10.8 7.65 14.1 12.45" fill="#00c9db" fill-rule="evenodd" stroke="none"/>
    </g>
    <g id="shape3" transform="matrix(1.0, 0.0, 0.0, 1.0, 21.65, 21.4)">
      <path d="M21.35 1.3 Q21.8 4.0 21.55 6.55 20.85 14.0 15.45 17.75 10.0 21.45 0.7 21.4 -8.7 21.3 -15.65 17.6 -22.6 13.9 -21.5 1.0 L-21.1 -2.15 -18.45 2.55 -15.5 5.65 Q-13.15 7.8 -9.8 9.8 -6.45 11.75 -3.45 12.9 -0.45 14.05 6.2 14.3 12.9 14.5 17.15 10.45 21.45 6.4 21.35 1.3" fill="#00c9db" fill-rule="evenodd" stroke="none"/>
      <path d="M-21.1 -2.15 Q-19.55 -12.55 -13.65 -16.55 -7.45 -20.8 -1.0 -21.35 L0.15 -21.4 Q7.35 -19.65 12.05 -15.8 L12.4 -15.5 Q15.3 -13.05 17.2 -9.7 20.55 -3.95 21.35 1.3 21.45 6.4 17.15 10.45 12.9 14.5 6.2 14.3 -0.45 14.05 -3.45 12.9 -6.45 11.75 -9.8 9.8 -13.15 7.8 -15.5 5.65 L-18.45 2.55 -21.1 -2.15" fill="#00f6ff" fill-rule="evenodd" stroke="none"/>
    </g>
    <g id="sprite1" transform="matrix(1.0, 0.0, 0.0, 1.0, 49.05, 70.45)">
      <use height="140.85" transform="matrix(1.0, 0.0, 0.0, 1.0, -49.05, -70.45)" width="98.1" xlink:href="#shape4"/>
      <use height="24.45" transform="matrix(1.0, 0.0, 0.0, 1.0, 6.7, 12.65)" width="30.45" xlink:href="#sprite2"/>
    </g>
    <g id="shape4" transform="matrix(1.0, 0.0, 0.0, 1.0, 49.05, 70.45)">
      <path d="M-9.55 -70.0 L-9.55 -70.45 Q-0.75 -68.6 9.5 -59.95 15.15 -55.2 20.35 -49.3 L20.5 -50.95 20.85 -55.2 20.5 -59.9 20.4 -60.95 Q36.0 -46.8 41.55 -29.65 47.1 -12.55 47.45 -7.4 47.75 -2.3 48.3 -1.35 44.7 1.75 39.05 2.95 L34.8 3.6 33.95 -2.5 Q32.9 -9.0 31.6 -12.55 L33.8 -13.25 38.85 -14.85 39.6 -14.85 38.5 -17.95 Q37.85 -19.75 33.65 -26.0 29.4 -32.3 15.3 -40.6 L17.0 -38.95 Q19.35 -36.35 22.6 -31.5 25.8 -26.65 27.75 -21.65 L27.95 -21.15 20.3 -18.7 Q15.65 -17.35 12.75 -16.9 L29.75 -0.85 33.2 3.7 33.2 3.75 25.7 3.2 Q20.1 2.5 5.35 -3.25 -9.45 -9.05 -12.15 -8.75 -14.9 -8.5 -14.2 -7.85 -15.4 -7.55 -15.4 -5.7 -15.4 -3.7 -13.3 -1.55 L-8.75 2.55 Q-2.1 8.75 -2.1 16.95 -2.1 21.4 -4.0 28.95 -5.95 36.5 -5.95 40.3 -5.95 46.8 -3.65 50.3 -2.7 51.75 -1.0 53.25 0.0 54.9 1.45 56.1 5.0 59.05 10.55 59.05 15.35 59.05 19.25 57.5 L14.85 60.95 Q10.85 64.0 -0.4 64.4 -11.7 64.8 -23.0 54.75 -34.3 44.7 -39.3 19.8 L-39.1 19.25 Q-37.55 15.65 -35.6 16.55 L-41.15 6.55 -48.8 -7.8 -49.05 -8.95 -49.05 -10.05 Q-47.95 -9.55 -43.15 -6.3 L-40.7 -4.65 -40.35 -4.45 -40.4 -4.65 Q-38.95 -3.65 -37.3 -3.1 L-37.3 -4.1 -39.6 -16.0 Q-41.85 -26.85 -43.0 -29.75 L-39.9 -27.35 Q-38.0 -25.9 -36.65 -25.2 -36.1 -24.95 -35.45 -25.2 L-34.9 -24.9 Q-31.8 -23.35 -30.4 -21.95 L-33.1 -34.0 Q-35.0 -42.5 -35.9 -45.25 -33.75 -44.2 -30.2 -41.85 L-30.25 -41.65 -29.25 -41.2 -27.7 -40.15 -27.6 -40.45 -22.6 -38.1 Q-17.85 -35.8 -15.1 -32.9 -19.15 -42.5 -29.6 -60.8 L-29.9 -62.9 Q-23.1 -58.2 -17.8 -53.85 L-14.9 -51.4 -13.85 -50.4 -8.05 -44.2 -6.55 -42.75 0.9 -35.9 1.05 -35.75 1.05 -36.05 -1.95 -51.4 Q-5.3 -65.1 -9.55 -70.0 M-30.4 -21.95 L-30.3 -21.5 -30.0 -21.5 -30.4 -21.95 M-35.6 16.55 L-35.4 16.85 -35.05 16.85 -35.6 16.55" fill="#00f6ff" fill-rule="evenodd" stroke="none"/>
      <path d="M48.3 -1.35 L48.9 2.4 45.5 4.35 45.4 4.05 43.75 4.05 Q38.85 5.85 37.7 6.5 L38.15 7.0 36.95 7.2 36.9 6.95 36.25 7.3 36.15 7.35 35.95 7.35 35.0 6.2 35.05 7.45 30.85 7.65 25.8 7.3 22.85 6.9 20.95 6.65 21.95 5.65 17.6 4.55 Q13.25 3.4 12.15 3.4 L11.2 3.45 10.9 3.6 Q10.55 3.8 10.25 4.35 3.75 2.5 -1.7 0.25 L-6.4 -1.95 Q-2.3 1.35 -0.75 4.1 1.8 8.55 1.8 15.4 1.8 23.35 -2.7 36.15 -3.45 40.55 -3.45 42.9 -3.45 49.3 -1.0 53.25 -2.7 51.75 -3.65 50.3 -5.95 46.8 -5.95 40.3 -5.95 36.5 -4.0 28.95 -2.1 21.4 -2.1 16.95 -2.1 8.75 -8.75 2.55 L-13.3 -1.55 Q-15.4 -3.7 -15.4 -5.7 -15.4 -7.55 -14.2 -7.85 -14.9 -8.5 -12.15 -8.75 -9.45 -9.05 5.35 -3.25 20.1 2.5 25.7 3.2 L33.2 3.75 33.25 3.75 35.0 6.2 34.8 3.6 39.05 2.95 Q44.7 1.75 48.3 -1.35 M33.85 41.25 Q30.35 52.9 19.15 61.75 7.9 70.55 -0.7 70.4 L-4.85 70.2 Q-10.7 69.8 -14.9 68.45 -20.5 66.6 -30.25 57.1 -39.55 48.05 -39.95 21.75 L-40.0 18.9 Q-45.55 8.3 -48.8 -7.8 L-41.15 6.55 -35.6 16.55 Q-37.55 15.65 -39.1 19.25 L-39.3 19.8 Q-34.3 44.7 -23.0 54.75 -11.7 64.8 -0.4 64.4 10.85 64.0 14.85 60.95 L19.25 57.5 Q22.5 56.15 25.1 53.75 29.0 50.1 33.85 41.25 M-40.4 -4.65 L-41.0 -7.8 -41.95 -18.8 Q-42.55 -27.0 -43.0 -29.75 -41.85 -26.85 -39.6 -16.0 L-37.3 -4.1 -37.3 -3.1 Q-38.95 -3.65 -40.4 -4.65 M-35.45 -25.2 L-36.65 -25.9 -36.8 -32.3 Q-36.75 -39.9 -36.0 -45.3 L-35.9 -45.25 Q-35.0 -42.5 -33.1 -34.0 L-30.4 -21.95 Q-31.8 -23.35 -34.9 -24.9 L-35.45 -25.2 M-27.6 -40.45 L-27.7 -40.5 Q-27.75 -44.95 -28.65 -52.9 L-29.6 -60.8 Q-19.15 -42.5 -15.1 -32.9 -17.85 -35.8 -22.6 -38.1 L-27.6 -40.45 M-8.05 -44.2 L-11.8 -48.45 -10.9 -53.55 Q-9.65 -61.45 -9.55 -70.0 -5.3 -65.1 -1.95 -51.4 L1.05 -36.05 0.9 -35.9 -6.55 -42.75 -8.05 -44.2" fill="#00c9db" fill-rule="evenodd" stroke="none"/>
      <path d="M48.9 2.4 L49.05 3.15 Q48.65 5.3 47.7 6.4 45.6 8.7 42.15 15.45 38.7 22.15 36.85 29.25 L33.9 41.2 33.85 41.25 Q29.0 50.1 25.1 53.75 22.5 56.15 19.25 57.5 15.35 59.05 10.55 59.05 5.0 59.05 1.45 56.1 0.0 54.9 -1.0 53.25 -3.45 49.3 -3.45 42.9 -3.45 40.55 -2.7 36.15 1.8 23.35 1.8 15.4 1.8 8.55 -0.75 4.1 -2.3 1.35 -6.4 -1.95 L-1.7 0.25 Q3.75 2.5 10.25 4.35 L11.3 4.65 12.6 7.2 Q13.9 9.2 15.55 9.2 17.05 9.2 19.6 7.55 L20.95 6.65 22.85 6.9 25.8 7.3 Q26.1 9.7 27.7 11.7 29.2 13.6 30.65 14.25 L30.75 14.3 30.7 14.1 30.8 13.95 31.2 14.1 Q33.25 14.1 35.25 11.5 37.1 9.1 36.95 7.2 L38.15 7.0 38.95 7.9 Q39.85 8.85 40.65 8.85 42.2 8.85 42.95 7.5 43.95 5.7 44.85 4.65 L45.5 4.35 48.9 2.4 M33.2 3.7 L29.75 -0.85 12.75 -16.9 Q15.65 -17.35 20.3 -18.7 L27.95 -21.15 27.75 -21.65 Q25.8 -26.65 22.6 -31.5 19.35 -36.35 17.0 -38.95 L15.3 -40.6 Q29.4 -32.3 33.65 -26.0 37.85 -19.75 38.5 -17.95 L39.6 -14.85 38.85 -14.85 33.8 -13.25 31.6 -12.55 Q32.9 -9.0 33.95 -2.5 L34.8 3.6 35.0 6.2 33.25 3.75 33.2 3.7 M42.35 5.8 L42.5 6.4 Q42.5 7.3 41.4 7.3 L40.4 7.15 40.35 7.0 40.25 6.45 Q40.25 5.25 42.2 5.6 L42.35 5.8 M14.6 6.25 Q14.6 4.9 16.2 5.15 17.75 5.45 17.75 6.4 L17.3 7.5 Q16.85 8.0 16.35 8.0 15.4 8.0 14.9 7.1 L14.6 6.25" fill="#ffffff" fill-rule="evenodd" stroke="none"/>
      <path d="M10.9 3.6 L11.2 3.45 12.15 3.4 Q13.25 3.4 17.6 4.55 L21.95 5.65 20.95 6.65 19.6 7.55 Q17.05 9.2 15.55 9.2 13.9 9.2 12.6 7.2 L11.3 4.65 10.9 3.6 M38.15 7.0 L37.7 6.5 Q38.85 5.85 43.75 4.05 L45.4 4.05 44.85 4.65 Q43.95 5.7 42.95 7.5 42.2 8.85 40.65 8.85 39.85 8.85 38.95 7.9 L38.15 7.0 M42.35 5.8 L42.2 5.6 Q40.25 5.25 40.25 6.45 L40.35 7.0 40.4 7.15 41.4 7.3 Q42.5 7.3 42.5 6.4 L42.35 5.8 M14.6 6.25 L14.9 7.1 Q15.4 8.0 16.35 8.0 16.85 8.0 17.3 7.5 L17.75 6.4 Q17.75 5.45 16.2 5.15 14.6 4.9 14.6 6.25" fill="#000000" fill-rule="evenodd" stroke="none"/>
      <path d="M25.8 7.3 L30.85 7.65 35.05 7.45 35.95 7.35 36.15 7.35 36.25 7.3 36.95 7.2 Q37.1 9.1 35.25 11.5 33.25 14.1 31.2 14.1 L30.8 13.95 30.7 14.1 30.75 14.3 30.65 14.25 Q29.2 13.6 27.7 11.7 26.1 9.7 25.8 7.3 M32.75 12.1 L33.35 11.05 Q33.35 9.6 31.45 8.85 29.55 8.1 29.55 9.75 30.3 13.0 31.4 13.0 L32.75 12.1" fill="#ff7e00" fill-rule="evenodd" stroke="none"/>
      <path d="M32.75 12.1 L31.4 13.0 Q30.3 13.0 29.55 9.75 29.55 8.1 31.45 8.85 33.35 9.6 33.35 11.05 L32.75 12.1" fill="#ffca2a" fill-rule="evenodd" stroke="none"/>
    </g>
    <g id="sprite2" transform="matrix(1.0, 0.0, 0.0, 1.0, 15.25, 12.25)">
      <use height="24.45" transform="matrix(1.0, 0.0, 0.0, 1.0, -15.25, -12.25)" width="30.45" xlink:href="#shape5"/>
    </g>
    <g id="shape5" transform="matrix(1.0, 0.0, 0.0, 1.0, 15.25, 12.25)">
      <path d="M3.45 -7.2 Q5.45 -7.3 6.5 -8.0 7.5 -8.6 8.4 -10.2 8.5 -9.2 9.3 -8.25 L10.0 -7.5 10.1 -7.4 9.4 -5.4 9.15 -5.5 Q8.3 -6.25 7.6 -6.25 L6.0 -5.9 4.35 -5.55 3.55 -5.65 3.45 -7.2 M9.9 3.8 Q9.6 7.15 7.75 9.45 5.9 11.7 1.3 11.7 -4.4 11.7 -9.05 8.8 -13.45 6.1 -14.75 2.1 L-14.6 1.5 -14.5 1.4 -14.15 1.0 -13.55 0.95 Q-12.05 0.95 -9.65 3.5 -7.2 6.1 -6.2 6.15 -3.75 6.3 -1.1 7.4 1.4 8.45 3.25 8.45 5.5 8.45 6.95 6.75 L9.85 3.8 9.9 3.8" fill="#bcebfe" fill-rule="evenodd" stroke="none"/>
      <path d="M3.45 -7.2 L3.55 -5.65 3.55 -4.95 3.25 -0.35 4.7 -0.05 6.4 -0.25 Q7.3 -0.7 8.9 -4.25 L9.35 -5.3 9.4 -5.4 10.1 -7.4 Q10.85 -6.85 11.7 -6.85 13.05 -6.85 14.6 -8.15 L14.7 -8.05 11.1 -1.55 Q10.3 0.05 10.0 2.5 L9.4 2.5 8.05 2.6 Q7.5 2.9 7.8 4.2 6.5 3.6 5.0 4.6 L3.75 5.4 Q3.65 2.4 0.7 -0.55 -3.3 -4.6 -9.0 -4.6 L-13.0 -4.25 Q-10.55 -11.75 -7.85 -11.75 L-4.3 -9.45 Q-0.7 -7.2 2.7 -7.2 L3.45 -7.2" fill="#cc0000" fill-rule="evenodd" stroke="none"/>
      <path d="M3.55 -5.65 L4.35 -5.55 6.0 -5.9 7.6 -6.25 Q8.3 -6.25 9.15 -5.5 L9.4 -5.4 9.35 -5.3 8.9 -4.25 Q7.3 -0.7 6.4 -0.25 L4.7 -0.05 3.25 -0.35 3.55 -4.95 3.55 -5.65 M10.0 2.5 L9.9 3.75 9.9 3.8 9.85 3.8 6.95 6.75 Q5.5 8.45 3.25 8.45 1.4 8.45 -1.1 7.4 -3.75 6.3 -6.2 6.15 -7.2 6.1 -9.65 3.5 -12.05 0.95 -13.55 0.95 L-14.15 1.0 -13.05 0.1 -10.3 -0.05 Q-8.65 -0.05 -6.95 1.9 L-5.1 3.85 -3.7 3.55 -2.3 3.2 Q-1.85 3.2 -0.2 4.5 1.4 5.8 2.6 5.8 L3.75 5.4 5.0 4.6 Q6.5 3.6 7.8 4.2 7.5 2.9 8.05 2.6 L9.4 2.5 10.0 2.5" fill="#ffffff" fill-rule="evenodd" stroke="none"/>
      <path d="M-14.5 1.4 L-14.6 1.35 -14.55 1.1 -13.3 -3.45 -13.05 -4.1 -13.0 -4.25 -9.0 -4.6 Q-3.3 -4.6 0.7 -0.55 3.65 2.4 3.75 5.4 L2.6 5.8 Q1.4 5.8 -0.2 4.5 -1.85 3.2 -2.3 3.2 L-3.7 3.55 -5.1 3.85 -6.95 1.9 Q-8.65 -0.05 -10.3 -0.05 L-13.05 0.1 -14.15 1.0 -14.5 1.4" fill="#ff9999" fill-rule="evenodd" stroke="none"/>
      <path d="M10.1 -7.4 L10.0 -7.5 9.3 -8.25 Q8.5 -9.2 8.4 -10.2 7.5 -8.6 6.5 -8.0 5.45 -7.3 3.45 -7.2 L2.7 -7.2 Q-0.7 -7.2 -4.3 -9.45 L-7.85 -11.75 Q-10.55 -11.75 -13.0 -4.25 L-13.05 -4.1 -13.3 -3.45 -14.55 1.1 -14.6 1.35 -14.5 1.4 -14.6 1.5 -14.75 2.1 Q-13.45 6.1 -9.05 8.8 -4.4 11.7 1.3 11.7 5.9 11.7 7.75 9.45 9.6 7.15 9.9 3.8 L9.9 3.75 10.0 2.5 Q10.3 0.05 11.1 -1.55 L14.7 -8.05 14.6 -8.15 Q13.05 -6.85 11.7 -6.85 10.85 -6.85 10.1 -7.4 Z" fill="none" stroke="#cccccc" stroke-linecap="round" stroke-linejoin="round" stroke-width="1.0"/>
    </g>
    <g id="shape6" transform="matrix(1.0, 0.0, 0.0, 1.0, 11.9, 18.15)">
      <path d="M-10.45 10.15 L-11.25 7.8 Q-11.9 5.7 -11.9 4.1 -11.9 -3.3 -9.2 -8.8 -7.55 -12.15 -5.05 -14.5 L-4.85 -14.65 Q-2.6 -16.75 0.45 -18.05 L1.35 -18.15 1.8 -18.15 Q3.8 -18.15 5.45 -17.3 7.3 -13.9 8.35 -9.05 9.3 -4.4 9.3 0.45 9.3 2.9 8.4 6.1 L7.6 8.4 7.0 7.35 5.45 4.65 6.4 -0.8 Q3.45 1.6 1.2 8.5 -0.1 12.6 -0.95 17.65 -3.5 7.55 -4.8 0.75 L-5.05 -0.35 -5.1 -0.7 -5.3 -1.05 Q-7.6 -0.1 -9.25 4.0 -10.6 7.35 -10.45 10.15" fill="#00f6ff" fill-rule="evenodd" stroke="none"/>
      <path d="M-10.45 10.15 Q-10.6 7.35 -9.25 4.0 -7.6 -0.1 -5.3 -1.05 L-5.1 -0.7 -5.05 -0.35 -4.8 0.75 Q-5.9 2.0 -6.9 4.15 -9.75 10.2 -9.95 11.2 L-10.05 11.15 -10.45 10.15 M-0.95 17.65 Q-0.1 12.6 1.2 8.5 3.45 1.6 6.4 -0.8 L5.45 4.65 4.2 9.05 Q2.25 15.25 -0.5 18.2 L-0.7 17.9 -0.9 17.85 -0.95 17.65 M7.6 8.4 L8.4 6.1 Q9.3 2.9 9.3 0.45 9.3 -4.4 8.35 -9.05 7.3 -13.9 5.45 -17.3 7.95 -16.05 9.6 -12.8 11.85 -8.3 11.85 -1.75 11.85 2.85 11.65 4.0 11.3 6.2 9.3 11.55 L7.6 8.4" fill="#00c9db" fill-rule="evenodd" stroke="none"/>
    </g>
    <g id="shape7" transform="matrix(1.0, 0.0, 0.0, 1.0, 21.7, 26.75)">
      <path d="M18.75 -10.15 Q19.5 -7.35 19.9 -1.2 20.25 4.9 16.45 11.7 12.65 18.4 2.3 18.0 -8.05 17.6 -13.7 9.95 -19.4 2.3 -21.45 -11.15 -20.8 -17.0 -18.7 -20.35 -15.9 -24.8 -11.7 -26.1 L-10.65 -26.1 -10.7 -26.35 -4.15 -26.75 Q2.65 -26.95 10.85 -20.65 16.0 -16.7 18.7 -10.35 L18.75 -10.15" fill="#00f6ff" fill-rule="evenodd" stroke="none"/>
      <path d="M18.75 -10.15 L18.8 -10.15 Q20.35 -6.45 21.1 -1.9 23.1 10.55 18.55 18.75 14.0 26.95 4.8 26.75 -4.4 26.55 -12.85 17.25 -21.35 7.9 -21.7 -3.55 -21.8 -7.8 -21.45 -11.15 -19.4 2.3 -13.7 9.95 -8.05 17.6 2.3 18.0 12.65 18.4 16.45 11.7 20.25 4.9 19.9 -1.2 19.5 -7.35 18.75 -10.15" fill="#00c9db" fill-rule="evenodd" stroke="none"/>
    </g>
    <g id="sprite3" transform="matrix(1.0, 0.0, 0.0, 1.0, 56.4, 37.1)">
      <use height="42.85" transform="matrix(1.0, 0.0, 0.0, 1.0, -20.3, -30.75)" width="45.35" xlink:href="#shape8"/>
      <use height="45.95" transform="matrix(1.0, 0.0, 0.0, 1.0, -44.45, -15.2)" width="88.85" xlink:href="#shape9"/>
    </g>
    <g id="shape8" transform="matrix(1.0, 0.0, 0.0, 1.0, 22.7, 21.45)">
      <path d="M-21.7 3.3 L-21.6 2.9 Q-20.0 -4.15 -13.95 -11.1 -5.35 -20.95 4.45 -20.95 L4.5 -20.65 6.1 -20.85 7.8 -20.7 Q10.35 -20.45 12.85 -19.65 L15.2 -18.7 15.25 -18.75 18.0 -16.55 19.1 -15.3 19.45 -14.85 Q19.65 -12.85 18.15 -6.6 16.65 -0.35 9.3 6.8 1.9 13.95 -6.55 13.65 -15.0 13.3 -18.5 9.1 -22.0 4.85 -21.7 3.3" fill="#00f6ff" fill-rule="evenodd" stroke="none"/>
      <path d="M-21.7 3.3 Q-22.0 4.85 -18.5 9.1 -15.0 13.3 -6.55 13.65 1.9 13.95 9.3 6.8 16.65 -0.35 18.15 -6.6 19.65 -12.85 19.45 -14.85 22.35 -10.8 22.15 -4.5 21.9 3.2 14.05 11.65 6.2 20.1 -3.0 20.8 -12.25 21.5 -17.2 18.05 -22.2 14.6 -22.2 8.0 -22.2 5.65 -21.7 3.3" fill="#00c9db" fill-rule="evenodd" stroke="none"/>
      <path d="M19.45 -14.85 L19.1 -15.3 18.0 -16.55 15.25 -18.75 15.2 -18.7 12.85 -19.65 Q10.35 -20.45 7.8 -20.7 L6.1 -20.85 4.5 -20.65 4.45 -20.95 Q-5.35 -20.95 -13.95 -11.1 -20.0 -4.15 -21.6 2.9 L-21.7 3.3 Q-22.2 5.65 -22.2 8.0 -22.2 14.6 -17.2 18.05 -12.25 21.5 -3.0 20.8 6.2 20.1 14.05 11.65 21.9 3.2 22.15 -4.5 22.35 -10.8 19.45 -14.85 Z" fill="none" stroke="#0483b3" stroke-linecap="round" stroke-linejoin="round" stroke-width="1.0"/>
    </g>
    <g id="shape9" transform="matrix(1.0, 0.0, 0.0, 1.0, 44.45, 23.0)">
      <path d="M0.35 -20.55 Q5.6 -17.25 9.45 -13.1 L14.3 -7.65 16.85 -10.95 18.55 -12.6 Q21.25 -14.6 25.5 -14.6 30.25 -14.6 36.25 -10.9 40.7 -8.1 41.95 -6.15 L39.0 -7.25 Q35.3 -8.55 32.45 -8.55 28.45 -8.55 25.5 -6.0 22.65 -3.6 22.65 -0.65 22.65 2.1 25.25 2.85 L26.3 3.0 27.4 3.85 Q29.4 5.1 34.15 5.35 L40.55 5.6 41.9 5.6 Q35.5 9.45 25.65 9.45 L20.75 9.15 Q17.25 9.4 17.25 12.15 L17.1 12.3 17.3 12.55 Q18.6 14.2 19.8 14.7 L23.05 15.15 Q24.15 16.7 26.1 17.7 26.95 18.15 30.0 18.9 L33.7 19.6 Q33.0 20.15 31.85 20.4 L26.75 20.6 Q22.35 20.65 18.95 17.8 L14.85 13.95 Q14.15 13.0 12.35 13.0 10.45 13.0 9.35 13.75 L9.15 13.9 8.8 13.4 Q8.1 12.35 8.1 11.8 L8.1 13.45 6.35 13.5 -1.55 12.6 Q2.5 12.05 6.75 9.45 L9.9 7.2 11.2 4.85 11.25 4.75 10.95 4.75 1.6 4.3 Q-5.85 4.2 -11.4 2.85 -26.95 -0.85 -40.6 -16.05 -42.45 -21.25 -43.95 -22.5 -40.2 -19.5 -33.85 -17.95 -27.85 -16.5 -23.6 -16.5 -19.8 -16.5 -16.8 -17.2 -13.0 -16.05 -9.25 -13.3 -13.35 -18.0 -11.4 -19.15 -9.0 -20.65 -8.95 -21.2 L-5.25 -21.9 Q-3.0 -21.9 0.35 -20.55" fill="#00f6ff" fill-rule="evenodd" stroke="none"/>
      <path d="M16.85 -10.95 L14.3 -7.65 9.45 -13.1 Q5.6 -17.25 0.35 -20.55 3.8 -19.2 8.5 -16.35 L16.85 -10.95 M-8.95 -21.2 Q-9.0 -20.65 -11.4 -19.15 -13.35 -18.0 -9.25 -13.3 -13.0 -16.05 -16.8 -17.2 -15.65 -17.45 -14.65 -17.85 -13.15 -18.4 -12.05 -19.2 L-10.45 -20.65 -8.95 -21.2 M-40.6 -16.05 Q-26.95 -0.85 -11.4 2.85 -5.85 4.2 1.6 4.3 L10.95 4.75 11.2 4.85 9.9 7.2 6.75 9.45 Q2.5 12.05 -1.55 12.6 L-8.1 11.3 -9.4 11.0 Q-19.35 8.5 -28.2 1.1 -37.6 -6.85 -39.9 -13.95 L-40.6 -16.05 M9.15 13.9 L9.35 13.75 Q10.45 13.0 12.35 13.0 14.15 13.0 14.85 13.95 L18.95 17.8 Q22.35 20.65 26.75 20.6 L31.85 20.4 Q33.0 20.15 33.7 19.6 L34.65 19.65 34.65 19.95 Q27.25 22.45 23.2 22.45 19.15 22.45 15.6 20.45 12.25 18.5 9.15 13.9 M23.05 15.15 L19.8 14.7 Q18.6 14.2 17.3 12.55 L17.25 12.15 Q17.25 9.4 20.75 9.15 L25.65 9.45 Q35.5 9.45 41.9 5.6 L43.9 5.35 Q41.4 9.0 36.1 11.85 29.95 15.15 23.75 15.15 L23.05 15.15 M26.3 3.0 L25.25 2.85 Q22.65 2.1 22.65 -0.65 22.65 -3.6 25.5 -6.0 28.45 -8.55 32.45 -8.55 35.3 -8.55 39.0 -7.25 L41.95 -6.15 42.3 -5.5 40.55 -5.85 38.65 -6.05 Q34.0 -6.05 30.25 -3.8 26.4 -1.55 26.15 1.75 25.65 2.25 26.3 3.0" fill="#00c9db" fill-rule="evenodd" stroke="none"/>
      <path d="M16.85 -10.95 L8.5 -16.35 Q3.8 -19.2 0.35 -20.55 -3.0 -21.9 -5.25 -21.9 L-8.95 -21.2 -10.45 -20.65 -12.05 -19.2 Q-13.15 -18.4 -14.65 -17.85 -15.65 -17.45 -16.8 -17.2 -19.8 -16.5 -23.6 -16.5 -27.85 -16.5 -33.85 -17.95 -40.2 -19.5 -43.95 -22.5 -42.45 -21.25 -40.6 -16.05 L-39.9 -13.95 Q-37.6 -6.85 -28.2 1.1 -19.35 8.5 -9.4 11.0 L-8.1 11.3 -1.55 12.6 6.35 13.5 8.1 13.45 8.1 11.8 Q8.1 12.35 8.8 13.4 L9.15 13.9 Q12.25 18.5 15.6 20.45 19.15 22.45 23.2 22.45 27.25 22.45 34.65 19.95 L34.65 19.65 33.7 19.6 30.0 18.9 Q26.95 18.15 26.1 17.7 24.15 16.7 23.05 15.15 L23.75 15.15 Q29.95 15.15 36.1 11.85 41.4 9.0 43.9 5.35 L41.9 5.6 40.55 5.6 34.15 5.35 Q29.4 5.1 27.4 3.85 L26.3 3.0 Q25.65 2.25 26.15 1.75 26.4 -1.55 30.25 -3.8 34.0 -6.05 38.65 -6.05 L40.55 -5.85 42.3 -5.5 41.95 -6.15 Q40.7 -8.1 36.25 -10.9 30.25 -14.6 25.5 -14.6 21.25 -14.6 18.55 -12.6 L16.85 -10.95 Z" fill="none" stroke="#0483b3" stroke-linecap="round" stroke-linejoin="round" stroke-width="1.0"/>
    </g>
  </defs>
</svg>
