<?xml version="1.0" encoding="UTF-8" standalone="no"?>
<svg xmlns:xlink="http://www.w3.org/1999/xlink" height="437.3px" width="293.25px" xmlns="http://www.w3.org/2000/svg">
  <g transform="matrix(1.0, 0.0, 0.0, 1.0, 111.7, 251.35)">
    <use height="29.55" transform="matrix(1.0, 0.0, 0.0, 1.0, -111.05, -134.6)" width="79.55" xlink:href="#sprite0"/>
    <use height="73.4" transform="matrix(1.0, 0.0, 0.0, 1.0, -90.4, -200.75)" width="86.45" xlink:href="#sprite1"/>
    <use height="92.05" transform="matrix(1.0, 0.0, 0.0, 1.0, -16.9, -249.55)" width="59.45" xlink:href="#sprite2"/>
    <use height="85.75" transform="matrix(1.0, 0.0, 0.0, 1.0, 83.3, 20.6)" width="54.35" xlink:href="#sprite3"/>
    <use height="137.65" transform="matrix(1.0, 0.0, 0.0, 1.0, -93.3, -45.55)" width="130.5" xlink:href="#sprite4"/>
    <use height="262.15" transform="matrix(1.0, 0.0, 0.0, 1.0, -97.7, -239.6)" width="279.25" xlink:href="#sprite5"/>
    <use height="233.05" transform="matrix(1.0, 0.0, 0.0, 1.0, -14.9, -47.1)" width="123.15" xlink:href="#sprite6"/>
    <use height="139.6" transform="matrix(1.0, 0.0, 0.0, 1.0, -56.45, 37.8)" width="85.5" xlink:href="#sprite7"/>
    <use height="145.35" transform="matrix(1.0, 0.0, 0.0, 1.0, -10.2, -94.05)" width="153.6" xlink:href="#sprite8"/>
  </g>
  <defs>
    <g id="sprite0" transform="matrix(1.0, 0.0, 0.0, 1.0, 0.5, 0.5)">
      <use height="29.55" transform="matrix(1.0, 0.0, 0.0, 1.0, -0.5, -0.5)" width="79.55" xlink:href="#shape0"/>
    </g>
    <g id="shape0" transform="matrix(1.0, 0.0, 0.0, 1.0, 0.5, 0.5)">
      <path d="M78.55 16.8 L78.95 17.15 71.6 27.9 54.4 24.1 Q37.2 20.45 28.2 18.75 25.55 23.1 20.7 26.0 13.35 30.7 6.6 26.55 0.95 23.1 0.1 17.25 -0.35 13.7 0.95 10.4 0.3 12.3 1.6 14.25 2.65 16.6 5.1 17.9 7.45 19.5 13.25 19.7 20.4 20.0 22.35 16.5 L23.05 14.55 23.6 14.65 38.8 16.5 59.6 17.25 57.4 15.3 52.05 11.05 Q68.6 13.05 76.95 15.65 L78.55 16.8" fill="#ffc433" fill-rule="evenodd" stroke="none"/>
      <path d="M52.05 11.05 L57.4 15.3 59.6 17.25 38.8 16.5 23.6 14.65 23.05 14.55 22.35 16.5 Q20.4 20.0 13.25 19.7 7.45 19.5 5.1 17.9 2.65 16.6 1.6 14.25 0.3 12.3 0.95 10.4 L1.05 9.95 0.95 9.95 1.25 9.1 2.55 7.1 Q5.55 1.95 11.65 0.45 17.5 -0.95 21.8 1.95 24.35 3.55 25.55 4.95 L26.9 7.85 Q29.15 8.8 47.95 10.7 L52.05 11.05 M17.75 10.7 L14.3 8.35 Q9.8 5.6 7.25 9.35 4.8 13.05 10.15 16.5 11.95 17.45 12.7 17.45 14.2 17.45 16.15 14.55 L17.2 12.0 17.75 10.7" fill="#ffff33" fill-rule="evenodd" stroke="none"/>
      <path d="M17.75 10.7 L17.2 12.0 16.15 14.55 Q14.2 17.45 12.7 17.45 11.95 17.45 10.15 16.5 4.8 13.05 7.25 9.35 9.8 5.6 14.3 8.35 L17.75 10.7" fill="#fcfc9f" fill-rule="evenodd" stroke="none"/>
      <path d="M78.55 16.8 L76.95 15.65 Q68.6 13.05 52.05 11.05 L47.95 10.7 Q29.15 8.8 26.9 7.85 L25.55 4.95 Q24.35 3.55 21.8 1.95 17.5 -0.95 11.65 0.45 5.55 1.95 2.55 7.1 L1.25 9.1 M0.95 10.4 Q-0.35 13.7 0.1 17.25 0.95 23.1 6.6 26.55 13.35 30.7 20.7 26.0 25.55 23.1 28.2 18.75 37.2 20.45 54.4 24.1 L71.6 27.9 74.05 28.55 M0.95 10.4 L1.05 9.95 0.95 9.95" fill="none" stroke="#806217" stroke-linecap="round" stroke-linejoin="round" stroke-width="1.0"/>
    </g>
    <g id="sprite1" transform="matrix(1.0, 0.0, 0.0, 1.0, 0.5, 0.5)">
      <use height="73.4" transform="matrix(1.0, 0.0, 0.0, 1.0, -0.5, -0.5)" width="86.45" xlink:href="#shape1"/>
    </g>
    <g id="shape1" transform="matrix(1.0, 0.0, 0.0, 1.0, 0.5, 0.5)">
      <path d="M61.1 39.05 Q77.45 52.1 84.5 60.4 L85.45 62.55 85.75 63.3 Q78.3 66.75 70.8 70.15 L54.8 54.65 Q38.85 39.15 30.4 31.55 24.65 34.45 17.6 34.45 6.6 34.45 2.1 25.45 -1.55 18.1 1.15 11.45 3.05 7.2 6.9 4.3 4.9 5.9 4.9 9.0 4.55 12.3 6.15 15.4 7.75 18.65 13.75 22.6 21.35 27.5 25.6 25.25 L27.65 23.75 28.2 24.2 43.15 36.05 Q54.8 44.5 65.05 50.8 L63.85 47.35 61.1 39.05" fill="#ffc433" fill-rule="evenodd" stroke="none"/>
      <path d="M7.85 3.25 L10.55 1.85 Q17.3 -1.35 24.65 1.0 31.8 3.25 34.7 9.25 36.4 12.65 36.6 14.8 36.75 15.1 36.3 19.05 38.0 21.5 56.9 36.05 L61.1 39.05 63.85 47.35 65.05 50.8 Q54.8 44.5 43.15 36.05 L28.2 24.2 27.65 23.75 25.6 25.25 Q21.35 27.5 13.75 22.6 7.75 18.65 6.15 15.4 4.55 12.3 4.9 9.0 4.9 5.9 6.9 4.3 L7.15 4.1 7.25 3.9 7.85 3.25 M24.45 16.05 Q24.0 14.15 22.4 11.15 19.5 5.4 14.3 7.6 9.05 9.85 12.7 17.15 13.75 19.4 14.6 19.9 16.3 20.65 20.05 18.95 L23.25 17.05 24.45 16.05" fill="#ffff33" fill-rule="evenodd" stroke="none"/>
      <path d="M24.45 16.05 L23.25 17.05 20.05 18.95 Q16.3 20.65 14.6 19.9 13.75 19.4 12.7 17.15 9.05 9.85 14.3 7.6 19.5 5.4 22.4 11.15 24.0 14.15 24.45 16.05" fill="#fcfc9f" fill-rule="evenodd" stroke="none"/>
      <path d="M61.1 39.05 Q77.45 52.1 84.5 60.4 L85.45 62.55 M70.8 70.15 L72.85 72.4 M7.85 3.25 L10.55 1.85 Q17.3 -1.35 24.65 1.0 31.8 3.25 34.7 9.25 36.4 12.65 36.6 14.8 36.75 15.1 36.3 19.05 38.0 21.5 56.9 36.05 L61.1 39.05 M6.9 4.3 Q3.05 7.2 1.15 11.45 -1.55 18.1 2.1 25.45 6.6 34.45 17.6 34.45 24.65 34.45 30.4 31.55 38.85 39.15 54.8 54.65 L70.8 70.15 M6.9 4.3 L7.15 4.1 7.25 3.9" fill="none" stroke="#806217" stroke-linecap="round" stroke-linejoin="round" stroke-width="1.0"/>
    </g>
    <g id="sprite2" transform="matrix(1.0, 0.0, 0.0, 1.0, 0.5, 0.5)">
      <use height="92.05" transform="matrix(1.0, 0.0, 0.0, 1.0, -0.5, -0.5)" width="59.45" xlink:href="#shape2"/>
    </g>
    <g id="shape2" transform="matrix(1.0, 0.0, 0.0, 1.0, 0.5, 0.5)">
      <path d="M14.95 0.2 L18.05 0.0 Q25.4 0.0 31.0 5.45 36.45 10.7 36.45 17.3 36.45 21.25 35.55 23.2 L33.55 26.8 Q33.95 29.7 44.55 51.1 45.6 53.55 46.8 55.8 L45.85 64.35 45.2 68.05 Q38.8 57.8 32.25 45.1 L23.8 27.8 23.6 27.35 21.05 27.8 Q16.25 27.8 11.85 20.2 8.0 13.8 8.0 10.25 8.0 6.75 9.6 4.05 11.2 0.95 14.0 0.3 L14.95 0.2 M24.25 18.9 L24.55 13.55 Q24.55 7.05 18.8 6.75 13.15 6.4 13.15 14.55 13.15 17.1 13.65 17.95 14.85 19.55 18.8 19.55 L22.65 19.25 24.25 18.9" fill="#ffff33" fill-rule="evenodd" stroke="none"/>
      <path d="M24.25 18.9 L22.65 19.25 18.8 19.55 Q14.85 19.55 13.65 17.95 13.15 17.1 13.15 14.55 13.15 6.4 18.8 6.75 24.55 7.05 24.55 13.55 L24.25 18.9" fill="#fcfc9f" fill-rule="evenodd" stroke="none"/>
      <path d="M46.8 55.8 Q55.85 74.7 58.45 85.25 L58.45 87.5 58.45 88.5 41.75 87.95 34.3 66.9 22.65 35.5 Q16.25 35.5 10.05 32.5 0.0 27.45 0.0 17.4 0.0 9.3 5.45 4.5 9.05 1.3 14.0 0.3 11.2 0.95 9.6 4.05 8.0 6.75 8.0 10.25 8.0 13.8 11.85 20.2 16.25 27.8 21.05 27.8 L23.6 27.35 23.8 27.8 32.25 45.1 Q38.8 57.8 45.2 68.05 L45.85 64.35 46.8 55.8" fill="#ffc433" fill-rule="evenodd" stroke="none"/>
      <path d="M14.95 0.2 L18.05 0.0 Q25.4 0.0 31.0 5.45 36.45 10.7 36.45 17.3 36.45 21.25 35.55 23.2 L33.55 26.8 Q33.95 29.7 44.55 51.1 45.6 53.55 46.8 55.8 55.85 74.7 58.45 85.25 L58.45 87.5 M41.75 87.95 L42.75 91.05 M14.0 0.3 Q9.05 1.3 5.45 4.5 0.0 9.3 0.0 17.4 0.0 27.45 10.05 32.5 16.25 35.5 22.65 35.5 L34.3 66.9 41.75 87.95" fill="none" stroke="#806217" stroke-linecap="round" stroke-linejoin="round" stroke-width="1.0"/>
    </g>
    <g id="sprite3" transform="matrix(1.0, 0.0, 0.0, 1.0, 0.5, 0.5)">
      <use height="85.75" transform="matrix(1.0, 0.0, 0.0, 1.0, -0.5, -0.5)" width="54.35" xlink:href="#shape3"/>
    </g>
    <g id="shape3" transform="matrix(1.0, 0.0, 0.0, 1.0, 0.5, 0.5)">
      <path d="M12.95 0.4 L13.15 0.4 19.15 1.9 18.4 4.15 Q15.6 11.95 15.6 17.75 15.6 23.05 17.85 32.25 19.45 38.25 22.05 46.05 30.7 72.25 42.45 72.25 45.85 72.25 47.45 68.3 L47.55 67.85 50.8 73.2 Q53.35 77.7 53.35 79.9 53.35 81.85 48.45 81.85 43.75 81.85 38.4 79.5 L37.55 79.2 37.55 79.6 38.05 83.15 38.05 84.75 34.85 84.75 Q30.05 82.05 26.85 78.95 L25.25 77.35 24.3 78.0 24.15 81.75 Q16.15 70.2 13.6 62.1 10.9 53.0 10.6 35.6 L10.6 30.45 Q10.6 17.1 10.9 13.65 11.35 7.45 12.95 0.4 M20.45 72.25 L25.25 77.35 20.45 72.25 M22.55 83.65 L24.15 81.75 23.95 82.8 23.3 84.1 22.55 83.65 M25.55 69.75 Q31.0 75.95 37.55 79.2 31.0 75.95 25.55 69.75" fill="#235401" fill-rule="evenodd" stroke="none"/>
      <path d="M47.55 67.85 L47.45 68.3 Q45.85 72.25 42.45 72.25 30.7 72.25 22.05 46.05 19.45 38.25 17.85 32.25 15.6 23.05 15.6 17.75 15.6 11.95 18.4 4.15 L19.15 1.9 20.65 2.35 Q21.7 8.75 28.45 26.6 L28.75 27.55 Q36.15 46.7 39.65 53.4 L47.55 67.85 M25.15 39.2 Q29.1 51.05 31.0 53.4 32.6 53.0 32.6 51.4 32.6 47.85 28.85 37.3 24.9 25.3 21.4 23.7 L21.05 24.9 Q21.05 27.55 25.15 39.2" fill="#3a821e" fill-rule="evenodd" stroke="none"/>
      <path d="M12.95 0.4 Q11.35 7.45 10.9 13.65 10.6 17.1 10.6 30.45 L10.6 35.6 Q10.9 53.0 13.6 62.1 16.15 70.2 24.15 81.75 L22.55 83.65 Q7.5 72.75 3.0 56.85 1.5 50.85 0.65 40.4 0.0 31.4 0.0 19.35 0.0 16.25 0.65 12.4 L1.3 7.8 Q1.3 7.05 1.85 7.05 6.85 0.4 12.95 0.4" fill="#648d25" fill-rule="evenodd" stroke="none"/>
      <path d="M25.15 39.2 Q21.05 27.55 21.05 24.9 L21.4 23.7 Q24.9 25.3 28.85 37.3 32.6 47.85 32.6 51.4 32.6 53.0 31.0 53.4 29.1 51.05 25.15 39.2" fill="#75bc42" fill-rule="evenodd" stroke="none"/>
      <path d="M24.15 81.75 L24.3 78.0 M25.25 77.35 L20.45 72.25 M20.65 2.35 L20.0 0.0 M1.85 7.05 Q1.3 7.05 1.3 7.8 L0.65 12.4 Q0.0 16.25 0.0 19.35 0.0 31.4 0.65 40.4 1.5 50.85 3.0 56.85 7.5 72.75 22.55 83.65 L23.3 84.1 23.95 82.8 M47.55 67.85 L39.65 53.4 Q36.15 46.7 28.75 27.55 L28.45 26.6 Q21.7 8.75 20.65 2.35 M25.25 77.35 L26.85 78.95 Q30.05 82.05 34.85 84.75 L38.05 84.75 38.05 83.15 37.55 79.6 37.55 79.2 Q31.0 75.95 25.55 69.75 M37.55 79.2 L38.4 79.5 Q43.75 81.85 48.45 81.85 53.35 81.85 53.35 79.9 53.35 77.7 50.8 73.2 L47.55 67.85" fill="none" stroke="#1b3a01" stroke-linecap="round" stroke-linejoin="round" stroke-width="1.0"/>
    </g>
    <g id="sprite4" transform="matrix(1.0, 0.0, 0.0, 1.0, 0.5, 0.5)">
      <use height="137.65" transform="matrix(1.0, 0.0, 0.0, 1.0, -0.5, -0.5)" width="130.5" xlink:href="#shape4"/>
    </g>
    <g id="shape4" transform="matrix(1.0, 0.0, 0.0, 1.0, 0.5, 0.5)">
      <path d="M66.65 19.55 L68.9 19.55 Q76.3 19.55 76.3 25.85 76.3 28.75 73.05 35.9 L68.6 46.35 69.25 46.35 Q71.15 41.9 74.8 38.15 78.1 34.5 83.1 31.5 92.2 25.85 99.55 25.85 106.85 25.85 109.3 29.3 111.95 32.9 111.35 44.45 112.2 42.3 113.45 42.0 L118.05 41.9 Q120.75 41.9 123.85 43.15 L124.15 43.15 Q126.5 44.15 127.8 45.75 L129.5 43.15 129.15 45.2 Q129.5 46.15 129.5 49.7 L129.5 50.95 Q129.05 58.45 124.6 70.65 123.95 64.95 121.05 60.6 119.15 57.7 116.45 55.25 109.1 48.85 99.55 48.85 86.0 48.85 74.35 61.65 L73.7 62.3 Q66.75 70.0 62.7 79.4 L61.55 78.85 Q62.8 69.35 62.8 66.45 62.8 55.25 53.85 55.25 44.75 55.25 35.35 67.45 25.2 80.7 25.2 96.5 25.2 111.35 32.8 120.45 39.85 128.65 49.8 128.65 54.35 128.65 57.05 126.75 60.25 124.6 60.25 120.45 60.25 118.2 57.7 116.6 55.65 115.3 54.15 115.3 51.15 115.3 49.25 119.25 L49.15 117.35 Q49.15 108.9 58.95 108.9 61.45 108.9 63.35 111.65 L63.8 112.1 Q65.8 115.1 66.0 118.95 L66.0 119.25 Q66.0 127.05 59.6 132.2 53.85 136.65 46.55 136.65 30.1 136.65 22.3 122.35 16.2 111.15 16.2 93.05 16.2 80.45 23.6 64.55 L24.25 62.95 Q26.25 58.75 28.5 54.8 27.0 56.85 24.65 57.5 L18.15 57.8 Q8.75 57.8 5.3 49.45 3.4 44.75 3.4 35.8 L0.4 35.45 Q1.5 30.0 4.35 25.2 L6.5 22.2 Q7.9 20.3 9.5 18.7 14.6 13.45 22.3 9.3 39.0 0.0 53.2 0.0 62.8 0.0 71.8 4.05 79.9 7.6 82.8 12.3 L81.85 13.15 Q74.45 15.7 66.65 19.55 L63.05 21.5 66.65 19.55 M61.85 22.1 Q59.6 23.3 57.25 24.8 45.7 31.5 39.3 38.8 L37.9 40.6 35.55 43.8 33.3 40.3 Q32.35 39.1 30.85 38.7 32.35 39.1 33.3 40.3 L35.55 43.8 37.9 40.6 39.3 38.8 Q45.7 31.5 57.25 24.8 59.6 23.3 61.85 22.1 M30.85 38.7 Q32.7 37.5 34.05 35.9 35.35 34.75 36.55 32.9 39.2 28.75 39.2 25.55 39.2 21.8 35.35 19.55 32.15 17.65 28.3 17.65 19.1 17.65 13.0 25.2 7.25 32.5 7.25 42.85 7.25 46.7 9.8 48.85 12.25 50.75 15.6 50.75 21.35 50.75 24.9 45.75 27.35 42.0 27.25 39.3 L29.6 39.3 30.85 38.7 M29.45 53.0 Q32.35 48.3 35.55 43.8 32.35 48.3 29.45 53.0" fill="#d6679a" fill-rule="evenodd" stroke="none"/>
      <path d="M129.5 43.15 L127.8 45.75 Q126.5 44.15 124.15 43.15 L123.85 43.15 Q120.75 41.9 118.05 41.9 L113.45 42.0 Q112.2 42.3 111.35 44.45 111.95 32.9 109.3 29.3 106.85 25.85 99.55 25.85 92.2 25.85 83.1 31.5 78.1 34.5 74.8 38.15 71.15 41.9 69.25 46.35 L68.6 46.35 73.05 35.9 Q76.3 28.75 76.3 25.85 76.3 19.55 68.9 19.55 L66.65 19.55 Q74.45 15.7 81.85 13.15 L81.85 13.45 83.2 12.95 86.45 11.85 95.4 11.55 Q106.1 11.55 116.8 19.55 122.0 23.5 125.1 28.1 129.5 34.85 129.5 43.15" fill="#c44982" fill-rule="evenodd" stroke="none"/>
      <path d="M83.2 12.95 L81.85 13.45 81.85 13.15 82.8 12.3 83.2 12.95 M121.05 60.6 Q120.0 65.6 118.4 70.4 113.8 84.85 106.5 91.45 L105.55 92.45 Q104.3 89.85 103.3 89.45 L99.55 89.1 Q93.8 89.1 88.05 96.6 83.2 102.8 82.6 108.25 L81.95 108.55 Q76.05 111.65 63.35 111.65 61.45 108.9 58.95 108.9 49.15 108.9 49.15 117.35 L49.25 119.25 Q51.15 115.3 54.15 115.3 55.65 115.3 57.7 116.6 60.25 118.2 60.25 120.45 60.25 124.6 57.05 126.75 54.35 128.65 49.8 128.65 39.85 128.65 32.8 120.45 25.2 111.35 25.2 96.5 25.2 80.7 35.35 67.45 44.75 55.25 53.85 55.25 62.8 55.25 62.8 66.45 62.8 69.35 61.55 78.85 L62.7 79.4 Q66.75 70.0 73.7 62.3 L74.35 61.65 Q86.0 48.85 99.55 48.85 109.1 48.85 116.45 55.25 119.15 57.7 121.05 60.6 M30.85 38.7 L29.6 39.3 27.25 39.3 Q27.35 42.0 24.9 45.75 21.35 50.75 15.6 50.75 12.25 50.75 9.8 48.85 7.25 46.7 7.25 42.85 7.25 32.5 13.0 25.2 19.1 17.65 28.3 17.65 32.15 17.65 35.35 19.55 39.2 21.8 39.2 25.55 39.2 28.75 36.55 32.9 35.35 34.75 34.05 35.9 32.7 37.5 30.85 38.7 L28.95 38.35 27.25 38.45 25.3 38.8 23.9 39.1 Q21.35 39.75 20.4 41.25 21.35 39.75 23.9 39.1 L25.3 38.8 27.25 38.45 28.95 38.35 30.85 38.7" fill="url(#gradient0)" fill-rule="evenodd" stroke="none"/>
      <path d="M63.35 111.65 Q76.05 111.65 81.95 108.55 L82.6 108.25 Q83.2 102.8 88.05 96.6 93.8 89.1 99.55 89.1 L103.3 89.45 Q104.3 89.85 105.55 92.45 L106.5 91.45 Q113.8 84.85 118.4 70.4 120.0 65.6 121.05 60.6 123.95 64.95 124.6 70.65 L120.3 80.8 Q115.5 91.35 111.55 97.9 108.1 103.45 105.25 106.0 91.05 118.85 67.3 118.85 L66.0 118.95 Q65.8 115.1 63.8 112.1 L63.35 111.65" fill="#ffd7e9" fill-rule="evenodd" stroke="none"/>
      <path d="M0.4 35.45 L3.4 35.8 Q3.4 44.75 5.3 49.45 8.75 57.8 18.15 57.8 L24.65 57.5 Q27.0 56.85 28.5 54.8 26.25 58.75 24.25 62.95 L22.1 64.0 Q19.55 65.2 16.95 65.2 8.2 65.2 3.4 55.9 0.0 49.05 0.0 41.35 0.0 38.35 0.4 35.45" fill="#f0a8c9" fill-rule="evenodd" stroke="none"/>
      <path d="M66.65 19.55 L63.05 21.5 M124.6 70.65 Q129.05 58.45 129.5 50.95 L129.5 49.7 Q129.5 46.15 129.15 45.2 L129.5 43.15 Q129.5 34.85 125.1 28.1 122.0 23.5 116.8 19.55 106.1 11.55 95.4 11.55 L86.45 11.85 83.2 12.95 81.85 13.45 81.85 13.15 Q74.45 15.7 66.65 19.55 M82.8 12.3 L83.2 12.95 M63.35 111.65 L63.8 112.1 Q65.8 115.1 66.0 118.95 L66.0 119.25 Q66.0 127.05 59.6 132.2 53.85 136.65 46.55 136.65 30.1 136.65 22.3 122.35 16.2 111.15 16.2 93.05 16.2 80.45 23.6 64.55 L24.25 62.95 Q26.25 58.75 28.5 54.8 M67.3 118.85 Q91.05 118.85 105.25 106.0 108.1 103.45 111.55 97.9 115.5 91.35 120.3 80.8 L124.6 70.65 M49.25 119.25 L49.15 117.35 Q49.15 108.9 58.95 108.9 61.45 108.9 63.35 111.65 M30.85 38.7 Q32.35 39.1 33.3 40.3 L35.55 43.8 37.9 40.6 39.3 38.8 Q45.7 31.5 57.25 24.8 59.6 23.3 61.85 22.1 M9.5 18.7 Q14.6 13.45 22.3 9.3 39.0 0.0 53.2 0.0 62.8 0.0 71.8 4.05 79.9 7.6 82.8 12.3 M30.85 38.7 L28.95 38.35 27.25 38.45 25.3 38.8 23.9 39.1 Q21.35 39.75 20.4 41.25 M0.4 35.45 Q1.5 30.0 4.35 25.2 M0.4 35.45 Q0.0 38.35 0.0 41.35 0.0 49.05 3.4 55.9 8.2 65.2 16.95 65.2 19.55 65.2 22.1 64.0 L24.25 62.95 M35.55 43.8 Q32.35 48.3 29.45 53.0" fill="none" stroke="#b42c63" stroke-linecap="round" stroke-linejoin="round" stroke-width="1.0"/>
    </g>
    <radialGradient cx="0" cy="0" gradientTransform="matrix(-0.1427, -0.0094, -0.0094, 0.1427, 83.85, 46.35)" gradientUnits="userSpaceOnUse" id="gradient0" r="819.2" spreadMethod="pad">
      <stop offset="0.0" stop-color="#e478a4"/>
      <stop offset="1.0" stop-color="#ffb8e0"/>
    </radialGradient>
    <g id="sprite5" transform="matrix(1.0, 0.0, 0.0, 1.0, 0.5, 0.5)">
      <use height="262.15" transform="matrix(1.0, 0.0, 0.0, 1.0, -0.5, -0.5)" width="279.25" xlink:href="#shape5"/>
    </g>
    <g id="shape5" transform="matrix(1.0, 0.0, 0.0, 1.0, 0.5, 0.5)">
      <path d="M245.9 53.75 L247.25 53.3 Q247.15 55.55 251.45 56.6 254.45 57.5 257.95 57.5 260.95 57.5 263.2 56.5 266.3 55.25 268.35 52.65 271.85 48.4 271.85 41.65 L271.75 38.15 271.55 37.4 268.2 37.7 Q262.55 37.7 259.45 33.85 256.55 30.35 256.55 25.1 256.55 21.35 258.8 19.45 259.8 18.45 260.85 18.15 256.25 13.0 244.7 10.05 238.2 8.45 231.15 7.8 L221.4 7.35 Q192.65 7.35 170.0 30.1 153.75 46.6 143.1 72.0 L142.85 71.8 Q142.55 51.8 166.4 25.95 190.1 0.0 222.7 0.0 L224.95 0.0 Q247.5 0.4 261.25 8.95 278.25 19.1 278.25 39.55 278.25 50.65 271.85 56.85 269.2 59.4 265.75 60.8 262.15 62.3 257.85 62.3 L255.6 62.05 Q253.05 61.65 250.5 60.15 L249.85 59.7 Q246.55 57.25 245.9 53.75 M231.65 135.15 L235.0 131.85 234.65 132.5 Q234.25 133.25 235.3 131.85 L240.2 131.85 Q243.65 132.3 249.2 136.75 L249.65 137.1 250.15 137.6 Q257.2 143.6 257.2 150.25 257.2 157.8 251.45 162.5 L247.5 164.85 Q245.25 165.1 242.8 164.25 L241.2 163.6 Q244.6 162.85 247.6 160.6 253.05 156.55 253.05 150.35 253.05 147.65 252.85 147.05 L252.2 145.1 Q251.45 145.85 249.85 145.85 247.5 145.85 246.0 144.25 244.7 142.85 244.7 140.95 244.7 140.2 246.0 139.25 244.05 137.1 241.5 136.15 L240.75 135.8 Q238.0 135.05 233.6 135.05 L231.65 135.15 M218.1 184.55 L221.1 181.1 Q222.8 183.05 224.4 190.65 226.2 198.2 226.2 201.75 226.2 215.0 216.6 227.9 L216.3 227.9 Q214.05 227.9 211.8 229.75 L218.2 218.6 Q216.5 218.0 216.2 217.55 215.95 217.25 215.95 215.2 215.95 212.1 216.95 210.5 218.1 208.25 221.4 206.65 L221.65 206.65 221.75 202.25 221.65 193.75 Q221.1 188.8 218.1 184.55 M135.8 71.5 Q131.55 66.9 125.15 62.4 111.9 53.3 102.05 53.3 L96.9 53.4 96.05 54.05 Q97.25 55.35 97.25 58.75 97.25 62.95 93.4 66.05 89.55 69.25 85.05 69.25 80.05 69.25 79.7 64.65 74.9 67.5 74.25 68.15 L73.0 69.55 Q73.0 65.6 73.75 62.95 L72.45 62.3 Q74.05 59.7 76.2 57.5 L77.8 55.9 78.45 55.35 Q87.6 46.9 100.55 46.9 112.85 46.9 126.0 55.65 130.9 58.85 134.45 62.4 135.05 64.1 135.8 71.5 M46.9 142.95 Q42.55 144.15 39.75 145.85 40.3 146.7 43.15 148.65 L52.35 153.95 Q66.55 162.0 70.75 164.85 L36.45 159.4 29.05 158.35 26.4 158.05 Q31.65 152.15 33.35 147.15 L30.05 147.35 27.05 147.8 21.9 147.8 31.3 138.9 Q28.95 137.75 28.95 134.75 28.95 133.15 32.9 129.95 L32.25 129.3 Q40.95 121.9 52.7 116.7 68.8 109.5 82.5 109.5 97.55 109.5 108.25 113.8 L108.7 114.1 108.35 115.5 107.7 117.1 106.85 117.1 87.0 115.8 Q73.4 115.8 61.0 121.8 57.6 123.2 54.3 125.35 L54.2 125.45 Q48.2 128.95 41.05 135.05 L55.15 135.05 Q64.95 137.6 68.5 138.9 L69.15 138.9 53.0 141.6 46.9 142.95" fill="#ffd7e9" fill-rule="evenodd" stroke="none"/>
      <path d="M142.85 71.8 L143.1 72.0 Q153.75 46.6 170.0 30.1 192.65 7.35 221.4 7.35 L231.15 7.8 Q238.2 8.45 244.7 10.05 256.25 13.0 260.85 18.15 259.8 18.45 258.8 19.45 256.55 21.35 256.55 25.1 256.55 30.35 259.45 33.85 262.55 37.7 268.2 37.7 L271.55 37.4 271.75 38.15 271.85 41.65 Q271.85 48.4 268.35 52.65 266.3 55.25 263.2 56.5 260.95 57.5 257.95 57.5 254.45 57.5 251.45 56.6 247.15 55.55 247.25 53.3 L245.9 53.75 245.65 52.05 Q245.65 48.7 247.25 46.25 248.9 44.0 251.1 43.6 L252.4 43.35 Q254.0 43.35 254.95 44.35 L255.4 43.7 255.6 43.6 Q254.0 41.15 251.85 40.4 251.1 40.05 250.15 39.85 L246.95 39.55 Q241.7 39.55 238.0 43.35 233.9 47.85 234.0 53.4 L234.35 62.7 234.65 63.9 Q235.4 66.9 238.6 70.5 L239.6 67.3 239.9 65.9 240.45 66.55 Q241.5 68.6 243.75 70.2 246.95 72.65 250.8 73.1 L250.8 74.7 Q250.8 79.8 250.25 84.6 248.25 77.9 242.8 77.9 238.5 77.9 235.4 85.6 232.95 92.1 232.95 99.15 232.95 104.05 235.4 106.65 237.65 108.9 240.85 108.9 243.0 108.9 244.9 107.7 L241.1 115.5 Q233.9 128.35 222.4 136.0 L215.95 136.35 214.35 136.35 Q200.05 136.35 189.8 130.05 185.5 127.6 182.0 123.75 L180.7 122.45 179.75 121.25 Q179.4 119.25 179.0 115.7 178.35 110.6 178.35 108.25 178.35 104.5 180.9 96.4 183.25 89.2 184.0 88.45 L184.0 87.2 Q183.15 87.3 182.3 87.85 176.2 90.2 173.35 99.9 172.25 103.55 171.7 106.95 167.45 95.1 167.45 79.5 167.45 64.3 174.3 53.65 179.0 46.6 186.8 41.15 L185.95 39.85 Q171.7 38.55 158.35 57.25 146.85 73.3 144.45 93.5 L144.35 94.45 144.05 98.85 143.75 95.3 143.1 80.75 142.85 76.95 142.85 75.0 142.85 72.65 142.85 71.8 M235.0 131.85 L235.3 131.85 Q234.25 133.25 234.65 132.5 L235.0 131.85 M214.9 187.1 L218.1 184.55 Q221.1 188.8 221.65 193.75 L221.75 202.25 221.65 206.65 221.4 206.65 Q218.1 208.25 216.95 210.5 215.95 212.1 215.95 215.2 215.95 217.25 216.2 217.55 216.5 218.0 218.2 218.6 L211.8 229.75 Q214.05 227.9 216.3 227.9 L216.6 227.9 Q221.3 228.15 224.3 231.75 227.85 235.7 227.85 242.35 227.85 252.8 221.1 257.65 216.2 261.15 207.85 261.15 197.5 261.15 191.3 252.7 L190.1 250.9 Q186.6 244.8 185.3 236.9 188.4 242.75 192.55 246.95 L193.2 247.35 Q200.45 254.1 208.5 254.1 213.3 254.1 216.6 252.5 221.4 250.15 221.4 244.8 221.4 237.85 216.95 237.85 214.35 237.85 214.35 239.45 214.35 240.4 215.0 242.15 215.95 244.15 217.25 245.15 216.6 246.1 215.85 246.3 L214.05 246.4 Q209.25 246.4 208.4 240.55 L208.15 239.55 205.9 237.3 Q204.55 236.05 204.55 234.1 204.55 229.5 211.35 218.85 L213.95 214.55 Q218.2 206.55 218.2 201.1 218.2 195.85 217.45 192.75 216.8 190.1 214.9 187.1 M228.45 165.85 Q227.5 159.95 227.5 156.55 227.5 151.95 228.15 148.65 228.9 144.25 230.7 141.7 234.0 136.75 241.5 136.15 244.05 137.1 246.0 139.25 244.7 140.2 244.7 140.95 244.7 142.85 246.0 144.25 247.5 145.85 249.85 145.85 251.45 145.85 252.2 145.1 L252.85 147.05 Q253.05 147.65 253.05 150.35 253.05 156.55 247.6 160.6 244.6 162.85 241.2 163.6 240.2 163.15 239.15 162.3 235.1 159.4 235.1 156.45 235.1 155.8 235.4 154.95 235.75 153.95 236.7 152.9 238.5 150.65 240.1 150.65 L242.35 150.85 Q243.3 151.3 243.75 153.55 L244.6 153.65 244.7 152.15 Q244.7 149.25 242.8 147.15 241.2 145.2 239.8 145.2 234.75 145.2 232.0 150.0 L231.35 151.3 Q229.75 154.6 229.75 158.8 229.75 161.05 230.7 162.65 229.55 163.8 228.45 165.85 M244.4 155.45 L244.6 153.65 244.4 155.45 M129.85 110.9 L128.55 113.35 Q135.8 118.6 139.9 126.4 144.45 135.8 144.45 149.7 144.45 161.55 128.55 166.9 125.05 168.2 120.95 169.05 L115.3 170.0 Q118.2 171.05 120.55 172.25 126.65 174.9 129.6 178.0 134.2 182.6 134.2 191.25 134.2 201.1 120.85 205.9 L113.05 208.15 102.05 209.1 Q93.95 209.1 84.95 206.55 79.7 204.95 73.95 202.6 L66.9 199.2 Q62.3 196.5 59.75 194.05 57.6 192.0 58.15 189.35 56.1 185.6 51.3 183.25 L48.4 184.65 Q45.2 186.9 42.85 190.0 46.6 189.15 48.4 192.0 50.0 194.25 50.0 198.2 50.0 204.4 44.25 208.45 39.65 211.7 34.95 211.7 23.5 211.7 17.75 198.2 L16.8 195.65 15.4 191.35 Q14.55 188.5 14.1 185.6 12.95 179.1 12.95 171.7 12.95 159.65 18.5 144.45 L21.9 136.35 Q22.85 134.2 23.95 132.3 L21.9 131.0 Q27.05 126.4 32.9 122.25 38.45 118.05 44.35 114.45 L55.55 108.0 Q61.65 104.7 67.75 103.45 74.35 101.7 81.0 101.4 86.9 101.1 92.45 101.5 L101.4 102.8 103.35 103.1 110.15 104.5 Q115.95 105.8 121.2 107.7 L121.3 107.7 129.85 110.9 M73.0 69.55 L74.25 68.15 Q74.9 67.5 79.7 64.65 80.05 69.25 85.05 69.25 89.55 69.25 93.4 66.05 97.25 62.95 97.25 58.75 97.25 55.35 96.05 54.05 L96.9 53.4 102.05 53.3 Q111.9 53.3 125.15 62.4 131.55 66.9 135.8 71.5 L136.15 73.95 Q137.4 84.95 137.4 90.95 L137.0 95.3 136.35 95.65 133.25 95.75 Q126.75 95.75 119.6 87.95 L119.45 87.6 Q116.9 84.75 114.65 81.4 113.8 79.5 112.75 78.0 110.9 75.55 108.55 74.6 106.55 73.7 100.9 73.7 97.25 73.7 94.7 75.3 91.8 77.05 91.8 80.15 91.8 82.05 92.45 83.45 L94.05 83.0 94.05 82.4 97.25 82.05 Q99.6 82.05 101.1 84.6 102.35 86.65 102.35 88.9 102.35 94.45 91.45 94.45 87.5 94.45 84.0 92.4 80.8 90.3 78.1 86.55 73.0 78.95 73.0 69.55 M94.8 86.35 Q94.05 85.25 94.05 83.0 94.05 85.25 94.8 86.35 M38.45 199.5 Q39.75 194.05 42.85 190.0 39.75 194.05 38.45 199.5 M46.9 142.95 L53.0 141.6 69.15 138.9 68.5 138.9 Q64.95 137.6 55.15 135.05 L41.05 135.05 Q48.2 128.95 54.2 125.45 L54.3 125.35 Q57.6 123.2 61.0 121.8 73.4 115.8 87.0 115.8 L106.85 117.1 107.7 117.1 108.35 115.5 108.7 114.1 108.25 113.8 Q97.55 109.5 82.5 109.5 68.8 109.5 52.7 116.7 40.95 121.9 32.25 129.3 L32.9 129.95 Q28.95 133.15 28.95 134.75 28.95 137.75 31.3 138.9 L21.9 147.8 27.05 147.8 30.05 147.35 33.35 147.15 Q31.65 152.15 26.4 158.05 L29.05 158.35 36.45 159.4 70.75 164.85 Q66.55 162.0 52.35 153.95 L43.15 148.65 Q40.3 146.7 39.75 145.85 42.55 144.15 46.9 142.95 M59.75 194.05 Q59.4 191.35 58.15 189.35 59.4 191.35 59.75 194.05 M208.15 239.55 L208.05 236.7 Q208.05 233.15 210.85 230.5 L211.8 229.75 210.85 230.5 Q208.05 233.15 208.05 236.7 L208.15 239.55" fill="url(#gradient1)" fill-rule="evenodd" stroke="none"/>
      <path d="M142.85 75.0 L142.85 76.95 143.1 80.75 143.75 95.3 Q142.1 97.55 141.15 100.45 140.2 103.1 138.7 103.1 133.8 103.1 121.95 96.05 114.0 91.25 110.3 90.2 L110.3 89.45 Q110.3 84.0 107.2 80.75 104.3 77.9 99.8 77.9 97.35 77.9 95.65 79.5 94.35 80.75 94.05 82.4 94.35 80.75 95.65 79.5 97.35 77.9 99.8 77.9 104.3 77.9 107.2 80.75 110.3 84.0 110.3 89.45 L110.3 90.2 Q109.95 97.35 102.05 99.8 98.2 100.85 92.65 100.85 98.2 100.85 102.05 99.8 L103.35 103.1 101.4 102.8 92.45 101.5 92.65 100.85 Q88.25 100.85 84.65 99.8 80.15 98.5 76.5 95.4 69.45 89.65 68.5 79.6 L68.5 76.7 Q68.5 68.8 72.45 62.3 L73.75 62.95 Q73.0 65.6 73.0 69.55 73.0 78.95 78.1 86.55 80.8 90.3 84.0 92.4 87.5 94.45 91.45 94.45 102.35 94.45 102.35 88.9 102.35 86.65 101.1 84.6 99.6 82.05 97.25 82.05 L94.05 82.4 94.05 83.0 92.45 83.45 Q91.8 82.05 91.8 80.15 91.8 77.05 94.7 75.3 97.25 73.7 100.9 73.7 106.55 73.7 108.55 74.6 110.9 75.55 112.75 78.0 113.8 79.5 114.65 81.4 116.9 84.75 119.45 87.6 L119.6 87.95 Q126.75 95.75 133.25 95.75 L136.35 95.65 137.0 95.3 137.4 90.95 Q137.4 84.95 136.15 73.95 L135.8 71.5 Q135.05 64.1 134.45 62.4 139.35 67.2 141.8 72.45 L142.45 73.7 142.85 75.0 M144.05 98.85 L144.35 94.45 144.45 93.5 Q146.85 73.3 158.35 57.25 171.7 38.55 185.95 39.85 L186.8 41.15 Q179.0 46.6 174.3 53.65 167.45 64.3 167.45 79.5 167.45 95.1 171.7 106.95 172.25 103.55 173.35 99.9 176.2 90.2 182.3 87.85 183.15 87.3 184.0 87.2 L184.0 88.45 Q183.25 89.2 180.9 96.4 178.35 104.5 178.35 108.25 178.35 110.6 179.0 115.7 179.4 119.25 179.75 121.25 L180.7 122.45 182.0 123.75 Q185.5 127.6 189.8 130.05 200.05 136.35 214.35 136.35 L215.95 136.35 222.4 136.0 Q219.7 137.75 216.6 139.35 217.55 141.9 217.55 145.1 217.55 155.8 210.2 166.9 205.3 174.3 199.85 177.8 196.2 178.75 192.25 178.75 184.55 178.75 175.9 173.3 170.55 170.0 168.0 166.9 L166.5 165.1 166.4 168.2 166.5 169.15 165.55 169.35 166.05 171.95 166.5 178.0 Q166.5 188.5 153.9 201.65 145.75 209.75 138.05 214.55 134.75 216.6 131.45 218.2 L129.5 219.15 Q126.95 220.45 124.15 221.2 L115.3 224.3 113.15 224.95 114.75 222.35 103.0 222.45 Q85.4 222.45 76.2 218.5 70.4 215.85 67.85 211.7 L77.45 213.6 80.05 213.6 Q75.65 212.95 67.2 206.55 L59.2 199.8 59.2 199.5 Q60.05 196.5 59.75 194.05 60.05 196.5 59.2 199.5 L59.2 199.8 Q58.75 202.25 57.5 205.05 L55.8 208.6 55.8 208.8 Q53.95 212.0 51.6 214.65 L50.95 215.3 Q48.2 218.0 45.0 220.1 L43.7 217.65 38.15 218.6 Q24.6 218.6 16.15 209.75 14.1 207.3 12.3 204.65 9.95 200.8 8.1 196.3 4.05 185.2 4.05 169.15 L1.9 168.7 Q2.8 165.1 4.05 161.55 L4.15 161.25 Q5.9 156.45 8.0 152.15 13.45 140.6 21.9 131.0 L23.95 132.3 Q22.85 134.2 21.9 136.35 L18.5 144.45 Q12.95 159.65 12.95 171.7 12.95 179.1 14.1 185.6 14.55 188.5 15.4 191.35 L16.8 195.65 17.75 198.2 Q23.5 211.7 34.95 211.7 39.65 211.7 44.25 208.45 50.0 204.4 50.0 198.2 50.0 194.25 48.4 192.0 46.6 189.15 42.85 190.0 45.2 186.9 48.4 184.65 L51.3 183.25 Q56.1 185.6 58.15 189.35 57.6 192.0 59.75 194.05 62.3 196.5 66.9 199.2 L73.95 202.6 Q79.7 204.95 84.95 206.55 93.95 209.1 102.05 209.1 L113.05 208.15 120.85 205.9 Q134.2 201.1 134.2 191.25 134.2 182.6 129.6 178.0 126.65 174.9 120.55 172.25 118.2 171.05 115.3 170.0 L120.95 169.05 Q125.05 168.2 128.55 166.9 144.45 161.55 144.45 149.7 144.45 135.8 139.9 126.4 135.8 118.6 128.55 113.35 L129.85 110.9 Q137.95 114.65 144.35 118.9 L147.45 121.15 148.75 122.25 147.45 121.15 144.35 118.9 146.7 118.7 Q145.55 113.45 144.45 103.85 L144.05 98.85 M250.8 73.1 Q246.95 72.65 243.75 70.2 241.5 68.6 240.45 66.55 L239.9 65.9 239.6 67.3 238.6 70.5 Q235.4 66.9 234.65 63.9 L234.35 62.7 234.0 53.4 Q233.9 47.85 238.0 43.35 241.7 39.55 246.95 39.55 L250.15 39.85 Q251.1 40.05 251.85 40.4 254.0 41.15 255.6 43.6 L255.4 43.7 254.95 44.35 Q254.0 43.35 252.4 43.35 L251.1 43.6 Q248.9 44.0 247.25 46.25 L246.2 45.2 Q244.4 46.15 243.1 47.85 240.2 51.5 240.2 56.3 240.2 63.55 247.9 67.95 249.3 68.8 250.8 69.45 253.15 70.5 255.3 70.85 L255.1 72.75 252.2 73.1 250.8 73.1 M230.5 136.35 L231.65 135.15 233.6 135.05 Q238.0 135.05 240.75 135.8 L241.5 136.15 Q234.0 136.75 230.7 141.7 228.9 144.25 228.15 148.65 227.5 151.95 227.5 156.55 227.5 159.95 228.45 165.85 227.3 167.85 226.2 171.05 223.75 177.5 221.4 180.7 L221.1 181.1 218.1 184.55 214.9 187.1 210.85 189.35 209.15 190.0 210.85 189.35 214.9 187.1 Q216.8 190.1 217.45 192.75 218.2 195.85 218.2 201.1 218.2 206.55 213.95 214.55 L211.35 218.85 Q204.55 229.5 204.55 234.1 204.55 236.05 205.9 237.3 L208.15 239.55 208.4 240.55 Q209.25 246.4 214.05 246.4 L215.85 246.3 Q216.6 246.1 217.25 245.15 215.95 244.15 215.0 242.15 214.35 240.4 214.35 239.45 214.35 237.85 216.95 237.85 221.4 237.85 221.4 244.8 221.4 250.15 216.6 252.5 213.3 254.1 208.5 254.1 200.45 254.1 193.2 247.35 L192.55 246.95 Q188.4 242.75 185.3 236.9 184.65 232.75 184.65 227.9 L184.85 224.7 Q186.45 227.6 189.7 230.9 193.85 235.3 197.15 236.9 L197.8 234.75 Q196.5 231.45 196.5 226.65 196.5 219.9 201.3 211.05 L202.05 209.55 Q206.15 202.05 206.15 199.7 L205.8 195.35 Q206.9 197.55 208.7 199.2 L211.5 202.05 211.5 196.3 209.25 190.95 209.15 190.0 204.55 191.05 Q204.3 190.75 203.55 190.4 L201.65 190.0 Q200.35 189.65 200.35 188.15 200.35 186.45 203.7 185.3 L204.65 184.95 210.2 183.55 Q213.6 182.3 216.2 179.4 L218.75 175.9 220.75 173.0 220.75 171.05 220.45 171.05 Q220.0 172.9 217.45 174.5 L213.4 176.5 211.8 176.5 Q212.35 174.8 215.55 170.1 218.2 166.15 218.2 163.6 L217.8 163.5 218.2 162.65 218.75 161.35 Q221.95 153.95 222.05 144.15 L222.05 143.95 230.5 136.35 M247.5 164.85 L243.65 165.95 239.9 166.25 Q234.65 166.25 232.1 164.45 L230.7 162.65 Q229.75 161.05 229.75 158.8 229.75 154.6 231.35 151.3 L232.0 150.0 Q234.75 145.2 239.8 145.2 241.2 145.2 242.8 147.15 244.7 149.25 244.7 152.15 L244.6 153.65 243.75 153.55 Q243.3 151.3 242.35 150.85 L240.1 150.65 Q238.5 150.65 236.7 152.9 235.75 153.95 235.4 154.95 235.1 155.8 235.1 156.45 235.1 159.4 239.15 162.3 240.2 163.15 241.2 163.6 L242.8 164.25 Q245.25 165.1 247.5 164.85 M166.8 161.55 Q170.65 163.8 173.35 165.1 180.25 168.85 182.95 168.85 L185.3 168.5 180.6 164.15 Q176.45 159.95 175.25 157.7 L179.95 159.0 185.3 159.65 190.65 159.4 Q193.85 159.1 194.9 157.7 L194.8 157.05 Q187.75 157.2 179.4 150.65 171.0 143.8 171.0 137.75 171.0 134.55 171.95 133.15 L173.2 131.85 173.85 131.3 173.65 131.0 Q173.2 127.05 173.2 117.95 173.2 113.35 173.85 111.55 L174.2 110.25 Q172.35 113.15 170.25 117.1 L169.05 119.25 Q167.35 120.0 166.7 120.0 162.95 120.0 159.45 106.95 156.35 95.0 156.35 86.0 156.35 79.8 157.4 73.7 L158.15 69.85 156.0 72.75 Q151.85 78.95 149.7 91.25 148.0 101.2 148.0 110.8 L148.75 122.25 Q156.1 128.1 160.4 135.4 165.85 144.15 166.8 154.85 L166.8 161.55 166.8 163.8 166.5 165.1 166.8 163.8 166.8 161.55 M147.45 121.15 L146.7 118.7 147.45 121.15" fill="#d6679a" fill-rule="evenodd" stroke="none"/>
      <path d="M245.9 53.75 Q246.55 57.25 249.85 59.7 L250.5 60.15 Q253.05 61.65 255.6 62.05 L255.6 62.95 255.3 70.85 Q253.15 70.5 250.8 69.45 249.3 68.8 247.9 67.95 240.2 63.55 240.2 56.3 240.2 51.5 243.1 47.85 244.4 46.15 246.2 45.2 L247.25 46.25 Q245.65 48.7 245.65 52.05 L245.9 53.75 M143.75 95.3 L144.05 98.85 144.45 103.85 Q145.55 113.45 146.7 118.7 L144.35 118.9 Q137.95 114.65 129.85 110.9 L121.3 107.7 121.2 107.7 Q115.95 105.8 110.15 104.5 L103.35 103.1 102.05 99.8 Q109.95 97.35 110.3 90.2 114.0 91.25 121.95 96.05 133.8 103.1 138.7 103.1 140.2 103.1 141.15 100.45 142.1 97.55 143.75 95.3 M217.8 163.5 L218.2 163.6 Q218.2 166.15 215.55 170.1 212.35 174.8 211.8 176.5 L213.4 176.5 217.45 174.5 Q220.0 172.9 220.45 171.05 L220.75 171.05 220.75 173.0 218.75 175.9 216.2 179.4 Q213.6 182.3 210.2 183.55 L204.65 184.95 203.7 185.3 Q200.35 186.45 200.35 188.15 200.35 189.65 201.65 190.0 L203.55 190.4 Q204.3 190.75 204.55 191.05 L209.15 190.0 209.25 190.95 211.5 196.3 211.5 202.05 208.7 199.2 Q206.9 197.55 205.8 195.35 L206.15 199.7 Q206.15 202.05 202.05 209.55 L201.3 211.05 Q196.5 219.9 196.5 226.65 196.5 231.45 197.8 234.75 L197.15 236.9 Q193.85 235.3 189.7 230.9 186.45 227.6 184.85 224.7 185.3 220.55 186.9 215.55 L189.15 208.15 Q189.15 204.3 183.7 195.65 L181.55 192.35 176.45 184.95 Q174.6 183.55 173.0 181.75 167.15 175.45 166.5 169.15 L166.4 168.2 166.5 165.1 168.0 166.9 Q170.55 170.0 175.9 173.3 184.55 178.75 192.25 178.75 196.2 178.75 199.85 177.8 206.9 176.1 212.35 170.75 215.65 167.55 217.8 163.5 M148.75 122.25 L148.0 110.8 Q148.0 101.2 149.7 91.25 151.85 78.95 156.0 72.75 L158.15 69.85 157.4 73.7 Q156.35 79.8 156.35 86.0 156.35 95.0 159.45 106.95 162.95 120.0 166.7 120.0 167.35 120.0 169.05 119.25 L170.25 117.1 Q172.35 113.15 174.2 110.25 L173.85 111.55 Q173.2 113.35 173.2 117.95 173.2 127.05 173.65 131.0 L173.85 131.3 173.2 131.85 171.95 133.15 Q171.0 134.55 171.0 137.75 171.0 143.8 179.4 150.65 187.75 157.2 194.8 157.05 L194.9 157.7 Q193.85 159.1 190.65 159.4 L185.3 159.65 179.95 159.0 175.25 157.7 Q176.45 159.95 180.6 164.15 L185.3 168.5 182.95 168.85 Q180.25 168.85 173.35 165.1 170.65 163.8 166.8 161.55 L166.8 154.85 Q165.85 144.15 160.4 135.4 156.1 128.1 148.75 122.25 M204.55 191.05 L203.35 191.25 197.15 191.5 Q191.05 191.5 185.85 190.0 L183.25 189.0 Q179.65 187.4 176.45 184.95 179.65 187.4 183.25 189.0 L185.85 190.0 Q191.05 191.5 197.15 191.5 L203.35 191.25 204.55 191.05 M59.2 199.8 L67.2 206.55 Q75.65 212.95 80.05 213.6 L77.45 213.6 67.85 211.7 Q70.4 215.85 76.2 218.5 85.4 222.45 103.0 222.45 L114.75 222.35 113.15 224.95 106.2 227.15 103.45 227.8 Q97.9 229.1 84.1 228.25 77.25 227.9 70.4 223.1 L68.5 221.7 Q62.6 217.0 56.65 209.1 L57.5 205.05 Q58.75 202.25 59.2 199.8 M1.9 168.7 L4.05 169.15 Q4.05 185.2 8.1 196.3 9.95 200.8 12.3 204.65 14.1 207.3 16.15 209.75 24.6 218.6 38.15 218.6 L43.7 217.65 45.0 220.1 Q38.7 223.75 29.9 224.3 22.85 225.25 17.65 223.0 11.35 220.25 7.5 212.95 L5.15 207.95 3.75 204.4 Q-2.65 187.2 1.9 168.7" fill="#c44982" fill-rule="evenodd" stroke="none"/>
      <path d="M222.4 136.0 Q233.9 128.35 241.1 115.5 L244.9 107.7 Q243.0 108.9 240.85 108.9 237.65 108.9 235.4 106.65 232.95 104.05 232.95 99.15 232.95 92.1 235.4 85.6 238.5 77.9 242.8 77.9 248.25 77.9 250.25 84.6 250.8 79.8 250.8 74.7 L250.8 73.1 252.2 73.1 255.1 72.75 254.95 78.95 Q254.35 89.65 252.85 97.85 250.6 109.5 246.55 115.8 239.6 126.6 236.7 130.05 L235.3 131.85 235.0 131.85 231.65 135.15 230.5 136.35 228.9 134.75 222.4 136.0" fill="#f0a8c9" fill-rule="evenodd" stroke="none"/>
      <path d="M199.85 177.8 Q205.3 174.3 210.2 166.9 217.55 155.8 217.55 145.1 217.55 141.9 216.6 139.35 219.7 137.75 222.4 136.0 L228.9 134.75 230.5 136.35 222.05 143.95 222.05 144.15 Q221.95 153.95 218.75 161.35 L218.2 162.65 217.8 163.5 Q215.65 167.55 212.35 170.75 206.9 176.1 199.85 177.8" fill="#e98db8" fill-rule="evenodd" stroke="none"/>
      <path d="M245.9 53.75 Q246.55 57.25 249.85 59.7 L250.5 60.15 Q253.05 61.65 255.6 62.05 L257.85 62.3 Q262.15 62.3 265.75 60.8 269.2 59.4 271.85 56.85 278.25 50.65 278.25 39.55 278.25 19.1 261.25 8.95 247.5 0.4 224.95 0.0 L222.7 0.0 Q190.1 0.0 166.4 25.95 142.55 51.8 142.85 71.8 L142.85 72.65 142.85 75.0 142.85 76.95 143.1 80.75 143.75 95.3 144.05 98.85 144.45 103.85 Q145.55 113.45 146.7 118.7 L147.45 121.15 144.35 118.9 Q137.95 114.65 129.85 110.9 L121.3 107.7 121.2 107.7 Q115.95 105.8 110.15 104.5 L103.35 103.1 101.4 102.8 92.45 101.5 Q86.9 101.1 81.0 101.4 74.35 101.7 67.75 103.45 61.65 104.7 55.55 108.0 L44.35 114.45 Q38.45 118.05 32.9 122.25 27.05 126.4 21.9 131.0 13.45 140.6 8.0 152.15 5.9 156.45 4.15 161.25 L4.05 161.55 Q2.8 165.1 1.9 168.7 -2.65 187.2 3.75 204.4 L5.15 207.95 7.5 212.95 Q11.35 220.25 17.65 223.0 22.85 225.25 29.9 224.3 38.7 223.75 45.0 220.1 48.2 218.0 50.95 215.3 M254.95 44.35 Q254.0 43.35 252.4 43.35 L251.1 43.6 Q248.9 44.0 247.25 46.25 245.65 48.7 245.65 52.05 L245.9 53.75 M255.1 72.75 L255.3 70.85 255.6 62.95 M236.7 130.05 Q239.6 126.6 246.55 115.8 250.6 109.5 252.85 97.85 254.35 89.65 254.95 78.95 L255.1 72.75 M230.5 136.35 L231.65 135.15 235.0 131.85 235.3 131.85 240.2 131.85 Q243.65 132.3 249.2 136.75 L249.65 137.1 250.15 137.6 Q257.2 143.6 257.2 150.25 257.2 157.8 251.45 162.5 L247.5 164.85 243.65 165.95 239.9 166.25 Q234.65 166.25 232.1 164.45 L230.7 162.65 Q229.55 163.8 228.45 165.85 227.3 167.85 226.2 171.05 223.75 177.5 221.4 180.7 L221.1 181.1 218.1 184.55 214.9 187.1 210.85 189.35 209.15 190.0 204.55 191.05 203.35 191.25 197.15 191.5 Q191.05 191.5 185.85 190.0 L183.25 189.0 Q179.65 187.4 176.45 184.95 174.6 183.55 173.0 181.75 167.15 175.45 166.5 169.15 L166.4 168.2 166.5 165.1 168.0 166.9 Q170.55 170.0 175.9 173.3 184.55 178.75 192.25 178.75 196.2 178.75 199.85 177.8 206.9 176.1 212.35 170.75 215.65 167.55 217.8 163.5 L218.2 162.65 M230.5 136.35 L222.05 143.95 222.05 144.15 Q221.95 153.95 218.75 161.35 M235.0 131.85 L234.65 132.5 M230.7 162.65 Q229.75 161.05 229.75 158.8 229.75 154.6 231.35 151.3 L232.0 150.0 Q234.75 145.2 239.8 145.2 241.2 145.2 242.8 147.15 244.7 149.25 244.7 152.15 L244.6 153.65 244.4 155.45 M166.8 161.55 L166.8 163.8 166.5 165.1 M131.45 218.2 Q134.75 216.6 138.05 214.55 145.75 209.75 153.9 201.65 166.5 188.5 166.5 178.0 L166.05 171.95 165.55 169.35 M166.8 161.55 L166.8 154.85 Q165.85 144.15 160.4 135.4 156.1 128.1 148.75 122.25 L147.45 121.15 M59.75 194.05 Q60.05 196.5 59.2 199.5 L59.2 199.8 Q58.75 202.25 57.5 205.05 L55.8 208.6 55.8 208.8 Q53.95 212.0 51.6 214.65 M113.15 224.95 L115.3 224.3 124.15 221.2 Q126.95 220.45 129.5 219.15 M184.85 224.7 Q185.3 220.55 186.9 215.55 L189.15 208.15 Q189.15 204.3 183.7 195.65 L181.55 192.35 176.45 184.95 M184.85 224.7 L184.65 227.9 Q184.65 232.75 185.3 236.9 186.6 244.8 190.1 250.9 L191.3 252.7 Q197.5 261.15 207.85 261.15 216.2 261.15 221.1 257.65 227.85 252.8 227.85 242.35 227.85 235.7 224.3 231.75 221.3 228.15 216.6 227.9 226.2 215.0 226.2 201.75 226.2 198.2 224.4 190.65 222.8 183.05 221.1 181.1 M217.25 245.15 Q216.6 246.1 215.85 246.3 L214.05 246.4 Q209.25 246.4 208.4 240.55 M211.8 229.75 Q214.05 227.9 216.3 227.9 L216.6 227.9 M94.05 82.4 L94.05 83.0 Q94.05 85.25 94.8 86.35 M94.05 82.4 Q94.35 80.75 95.65 79.5 97.35 77.9 99.8 77.9 104.3 77.9 107.2 80.75 110.3 84.0 110.3 89.45 L110.3 90.2 Q109.95 97.35 102.05 99.8 98.2 100.85 92.65 100.85 88.25 100.85 84.65 99.8 80.15 98.5 76.5 95.4 69.45 89.65 68.5 79.6 L68.5 76.7 Q68.5 68.8 72.45 62.3 74.05 59.7 76.2 57.5 L77.8 55.9 78.45 55.35 Q87.6 46.9 100.55 46.9 112.85 46.9 126.0 55.65 130.9 58.85 134.45 62.4 139.35 67.2 141.8 72.45 L142.45 73.7 142.85 75.0 M42.85 190.0 Q39.75 194.05 38.45 199.5 M58.15 189.35 Q56.1 185.6 51.3 183.25 L48.4 184.65 Q45.2 186.9 42.85 190.0 M58.15 189.35 Q59.4 191.35 59.75 194.05 M56.65 209.1 Q62.6 217.0 68.5 221.7 L70.4 223.1 Q77.25 227.9 84.1 228.25 97.9 229.1 103.45 227.8 L106.2 227.15 113.15 224.95 M211.8 229.75 L210.85 230.5 Q208.05 233.15 208.05 236.7 L208.15 239.55" fill="none" stroke="#b42c63" stroke-linecap="round" stroke-linejoin="round" stroke-width="1.0"/>
    </g>
    <radialGradient cx="0" cy="0" gradientTransform="matrix(-0.2731, -0.018, -0.018, 0.2731, 170.0, 130.55)" gradientUnits="userSpaceOnUse" id="gradient1" r="819.2" spreadMethod="pad">
      <stop offset="0.0" stop-color="#e478a4"/>
      <stop offset="1.0" stop-color="#ffb8e0"/>
    </radialGradient>
    <g id="sprite6" transform="matrix(1.0, 0.0, 0.0, 1.0, 0.5, 0.0)">
      <use height="233.05" transform="matrix(1.0, 0.0, 0.0, 1.0, -0.5, 0.0)" width="123.15" xlink:href="#shape6"/>
    </g>
    <g id="shape6" transform="matrix(1.0, 0.0, 0.0, 1.0, 0.5, 0.0)">
      <path d="M104.0 8.35 L106.35 10.4 Q112.45 13.9 115.65 34.0 116.3 37.95 116.6 42.0 L114.8 42.1 Q111.7 35.6 108.25 33.25 103.8 39.85 94.7 43.95 L90.2 45.65 Q82.0 48.4 71.7 48.4 56.45 48.4 47.35 41.7 45.1 45.95 44.6 48.4 44.15 50.9 44.15 56.95 44.15 75.65 50.75 87.85 55.8 96.6 60.95 98.55 60.3 104.75 59.1 110.85 51.3 118.4 43.95 130.05 L41.25 134.75 Q35.5 144.6 31.2 154.65 29.3 159.45 27.7 164.45 27.15 165.65 26.75 167.15 27.05 170.8 30.6 176.75 L31.35 178.25 Q28.35 180.8 25.9 185.95 L24.8 188.85 Q23.85 191.5 23.55 194.4 23.2 196.55 23.2 198.8 23.2 218.85 43.85 221.1 L49.4 221.45 53.0 220.9 Q55.8 220.15 57.1 218.2 58.35 216.2 58.35 212.15 58.35 209.45 58.05 208.95 L59.95 207.65 Q62.55 211.05 62.55 216.95 62.55 223.65 58.7 227.5 57.4 228.8 55.8 229.65 54.0 230.85 51.75 231.5 48.0 232.55 42.95 232.55 L42.25 232.55 Q36.05 227.2 26.4 217.9 7.3 199.2 7.3 194.6 L13.15 180.2 13.25 179.75 13.9 178.15 Q19.35 164.25 20.0 160.75 L20.3 158.4 22.8 143.55 22.9 142.9 24.15 131.65 24.5 123.1 24.5 122.6 24.5 118.75 24.4 113.4 24.4 112.85 21.8 113.2 22.55 101.65 22.55 100.15 22.9 57.85 Q23.4 31.95 29.3 16.8 L30.6 13.9 31.95 12.75 Q35.4 10.25 39.0 8.15 51.0 1.4 65.3 0.35 76.65 -0.65 85.85 1.4 L91.05 2.9 Q102.15 6.45 104.0 8.35 M119.8 191.1 Q118.3 193.35 115.75 195.25 L114.7 196.0 112.75 197.15 Q109.45 198.8 105.05 199.2 L101.55 199.4 97.15 199.1 Q90.75 197.9 83.7 194.05 L82.3 193.35 Q73.0 187.9 73.0 185.3 73.0 184.35 74.2 181.45 L74.5 180.7 76.2 176.75 76.2 171.95 77.5 170.45 81.35 170.8 81.65 167.8 Q84.35 165.65 87.1 162.0 91.4 156.25 95.25 146.85 L96.6 147.4 90.85 164.45 Q85.85 179.2 85.85 179.85 85.85 188.1 95.35 191.4 100.8 193.35 107.5 193.35 L112.95 193.1 116.7 192.35 119.8 191.1" fill="#235401" fill-rule="evenodd" stroke="none"/>
      <path d="M59.1 110.85 Q60.3 104.75 60.95 98.55 55.8 96.6 50.75 87.85 44.15 75.65 44.15 56.95 44.15 50.9 44.6 48.4 45.1 45.95 47.35 41.7 56.45 48.4 71.7 48.4 82.0 48.4 90.2 45.65 L94.7 43.95 Q103.8 39.85 108.25 33.25 111.7 35.6 114.8 42.1 L116.6 42.0 Q117.35 48.85 117.65 55.9 118.0 63.3 117.55 70.85 L117.55 71.1 116.6 70.85 114.35 76.3 114.45 72.35 Q114.45 67.35 111.35 64.35 L112.45 63.05 Q114.45 60.2 114.45 56.0 114.45 51.85 112.45 49.05 110.4 46.2 107.5 46.2 104.65 46.2 102.5 49.05 100.45 51.85 100.45 56.0 100.45 58.25 100.9 60.2 L97.25 59.85 90.75 60.5 Q83.9 61.65 76.95 65.1 76.55 61.8 74.5 59.2 71.6 56.0 67.55 56.0 63.6 56.0 60.95 59.2 58.05 62.4 58.05 67.0 58.05 71.7 60.95 74.95 62.0 76.3 63.4 77.05 62.2 79.85 62.2 82.85 62.2 89.05 65.0 92.25 66.8 94.35 72.25 97.6 L72.25 98.0 71.4 101.55 68.1 118.1 66.15 127.7 Q62.3 147.4 61.25 156.25 60.95 159.45 60.95 161.4 L60.95 162.65 64.25 159.65 Q68.5 155.95 76.0 151.0 L87.1 162.0 Q84.35 165.65 81.65 167.8 L81.0 167.15 80.8 166.95 77.15 163.6 Q74.2 161.05 71.4 160.1 L68.1 164.15 64.35 168.45 59.65 173.9 Q54.95 176.25 51.1 180.1 L50.15 181.15 46.8 174.65 46.2 173.25 Q44.25 169.05 44.25 163.6 44.25 157.2 48.4 145.55 L49.3 143.2 Q50.15 140.75 51.3 138.3 56.75 125.05 59.1 110.95 L59.1 110.85" fill="#dbad79" fill-rule="evenodd" stroke="none"/>
      <path d="M100.9 60.2 Q100.45 58.25 100.45 56.0 100.45 51.85 102.5 49.05 104.65 46.2 107.5 46.2 110.4 46.2 112.45 49.05 114.45 51.85 114.45 56.0 114.45 60.2 112.45 63.05 L111.35 64.35 Q109.55 65.95 107.5 65.95 104.65 65.95 102.5 63.05 101.55 61.8 100.9 60.2 M110.2 60.5 Q110.4 61.35 111.15 61.35 111.8 61.35 112.1 60.5 L112.35 59.75 Q112.35 58.45 111.7 58.25 L111.8 56.55 Q111.8 54.3 110.5 52.7 L110.85 51.5 Q110.85 48.1 107.6 48.1 105.25 48.1 105.25 50.05 105.25 50.55 105.9 51.4 104.75 51.75 104.0 52.7 102.5 54.3 102.5 56.55 102.5 58.8 104.0 60.2 105.25 61.8 107.2 61.8 108.9 61.8 110.2 60.5 M72.55 64.05 L72.55 63.3 Q72.55 62.0 71.95 60.7 71.1 58.9 69.8 58.9 67.45 58.9 66.6 59.85 66.25 60.4 66.25 61.35 64.55 61.45 63.05 62.95 61.35 64.75 61.35 67.35 61.35 69.9 63.05 71.7 64.9 73.65 67.45 73.65 70.0 73.65 71.7 71.7 72.05 72.35 73.0 72.35 73.65 72.35 73.95 71.5 L74.2 70.55 Q74.2 69.6 73.2 69.5 73.55 68.5 73.55 67.35 73.55 65.4 72.55 64.05 M63.4 77.05 Q62.0 76.3 60.95 74.95 58.05 71.7 58.05 67.0 58.05 62.4 60.95 59.2 63.6 56.0 67.55 56.0 71.6 56.0 74.5 59.2 76.55 61.8 76.95 65.1 L77.15 67.0 Q77.15 71.7 74.5 74.95 71.6 78.0 67.55 78.0 65.3 78.0 63.4 77.05" fill="#4a1204" fill-rule="evenodd" stroke="none"/>
      <path d="M111.7 58.25 L111.35 58.15 Q110.1 58.15 110.1 59.55 L110.2 60.5 Q108.9 61.8 107.2 61.8 105.25 61.8 104.0 60.2 102.5 58.8 102.5 56.55 102.5 54.3 104.0 52.7 104.75 51.75 105.9 51.4 106.65 52.5 108.5 53.75 L109.75 53.75 110.5 52.7 Q111.8 54.3 111.8 56.55 L111.7 58.25 M66.25 61.35 L66.25 61.65 Q66.25 64.15 69.35 65.65 L71.3 65.65 72.55 64.45 72.55 64.05 Q73.55 65.4 73.55 67.35 73.55 68.5 73.2 69.5 L72.9 69.5 Q71.6 69.5 71.6 70.55 L71.7 71.7 Q70.0 73.65 67.45 73.65 64.9 73.65 63.05 71.7 61.35 69.9 61.35 67.35 61.35 64.75 63.05 62.95 64.55 61.45 66.25 61.35" fill="#000000" fill-rule="evenodd" stroke="none"/>
      <path d="M111.7 58.25 Q112.35 58.45 112.35 59.75 L112.1 60.5 Q111.8 61.35 111.15 61.35 110.4 61.35 110.2 60.5 L110.1 59.55 Q110.1 58.15 111.35 58.15 L111.7 58.25 M105.9 51.4 Q105.25 50.55 105.25 50.05 105.25 48.1 107.6 48.1 110.85 48.1 110.85 51.5 L110.5 52.7 109.75 53.75 108.5 53.75 Q106.65 52.5 105.9 51.4 M66.25 61.35 Q66.25 60.4 66.6 59.85 67.45 58.9 69.8 58.9 71.1 58.9 71.95 60.7 72.55 62.0 72.55 63.3 L72.55 64.05 72.55 64.45 71.3 65.65 69.35 65.65 Q66.25 64.15 66.25 61.65 L66.25 61.35 M73.2 69.5 Q74.2 69.6 74.2 70.55 L73.95 71.5 Q73.65 72.35 73.0 72.35 72.05 72.35 71.7 71.7 L71.6 70.55 Q71.6 69.5 72.9 69.5 L73.2 69.5 M85.2 125.7 L98.1 121.95 Q97.6 124.2 95.35 130.05 92.65 137.35 90.75 139.8 L89.9 140.65 Q89.15 140.1 87.85 136.8 L87.2 135.2 Q85.6 130.7 85.2 127.5 L85.2 125.7" fill="#ffffff" fill-rule="evenodd" stroke="none"/>
      <path d="M100.9 60.2 Q101.55 61.8 102.5 63.05 104.65 65.95 107.5 65.95 109.55 65.95 111.35 64.35 114.45 67.35 114.45 72.35 L114.35 76.3 110.85 82.75 110.2 83.7 Q108.6 85.95 105.7 88.3 L104.3 89.35 104.3 90.55 Q104.65 92.75 104.65 97.6 L104.65 100.25 Q104.65 123.25 96.6 143.65 L96.2 144.8 95.85 145.55 95.25 146.85 Q91.4 156.25 87.1 162.0 L76.0 151.0 Q68.5 155.95 64.25 159.65 L60.95 162.65 60.95 161.4 Q60.95 159.45 61.25 156.25 62.3 147.4 66.15 127.7 L68.1 118.1 71.4 101.55 72.25 98.0 72.25 97.6 Q66.8 94.35 65.0 92.25 62.2 89.05 62.2 82.85 62.2 79.85 63.4 77.05 65.3 78.0 67.55 78.0 71.6 78.0 74.5 74.95 77.15 71.7 77.15 67.0 L76.95 65.1 Q83.9 61.65 90.75 60.5 L97.25 59.85 100.9 60.2 M90.75 92.15 Q84.65 93.75 80.7 95.65 L87.1 96.6 90.75 96.95 93.75 96.95 97.6 96.6 Q99.2 96.1 100.05 95.35 101.45 93.85 102.15 89.25 L94.05 91.25 90.75 92.15 M85.2 125.7 L85.2 127.5 Q85.6 130.7 87.2 135.2 L87.85 136.8 Q89.15 140.1 89.9 140.65 L90.75 139.8 Q92.65 137.35 95.35 130.05 97.6 124.2 98.1 121.95 L85.2 125.7" fill="#f5e6ab" fill-rule="evenodd" stroke="none"/>
      <path d="M59.95 207.65 L58.05 208.95 Q58.35 209.45 58.35 212.15 58.35 216.2 57.1 218.2 55.8 220.15 53.0 220.9 L49.4 221.45 43.85 221.1 Q23.2 218.85 23.2 198.8 23.2 196.55 23.55 194.4 23.85 191.5 24.8 188.85 L25.9 185.95 Q28.35 180.8 31.35 178.25 L30.6 176.75 Q27.05 170.8 26.75 167.15 27.15 165.65 27.7 164.45 29.3 159.45 31.2 154.65 35.5 144.6 41.25 134.75 L43.95 130.05 Q51.3 118.4 59.1 110.85 L59.1 110.95 Q56.75 125.05 51.3 138.3 50.15 140.75 49.3 143.2 L48.4 145.55 Q44.25 157.2 44.25 163.6 44.25 169.05 46.2 173.25 L46.8 174.65 50.15 181.15 49.05 182.45 48.75 182.75 Q46.05 186.25 44.45 189.5 43.95 187.55 44.25 185.95 L44.25 178.6 44.15 178.6 Q41.9 179.1 38.8 184.9 35.15 191.7 35.05 199.4 L35.05 206.7 35.4 207.0 Q35.8 205.95 37.85 203.35 40.1 200.8 42.0 199.2 42.0 201.65 42.25 202.1 42.35 202.6 44.6 205.4 45.1 204.35 45.85 203.8 47.05 203.25 50.45 203.25 55.9 203.25 59.0 206.35 L59.95 207.65 M117.55 71.1 Q117.55 75.65 117.05 80.25 L114.7 101.45 Q112.65 115.85 109.45 131.25 L104.1 155.2 Q101.75 165.95 99.5 174.5 L99.2 174.5 98.85 176.55 Q98.85 180.2 101.1 182.45 103.35 184.65 107.0 184.65 L109.85 184.25 112.1 183.9 Q111.7 184.55 111.7 185.65 111.7 187.9 113.6 187.9 115.45 187.9 118.65 185.65 L118.65 187.9 Q118.65 189.5 116.7 192.35 L112.95 193.1 107.5 193.35 Q100.8 193.35 95.35 191.4 85.85 188.1 85.85 179.85 85.85 179.2 90.85 164.45 L96.6 147.4 95.25 146.85 95.85 145.55 96.2 144.8 96.6 143.65 Q104.65 123.25 104.65 100.25 L104.65 97.6 Q104.65 92.75 104.3 90.55 L104.3 89.35 105.7 88.3 Q108.6 85.95 110.2 83.7 L110.85 82.75 114.35 76.3 116.6 70.85 117.55 71.1 M77.5 170.45 L75.65 170.35 73.55 170.45 Q70.0 170.45 66.6 171.3 62.95 172.25 59.65 173.9 L64.35 168.45 68.1 164.15 71.4 160.1 Q74.2 161.05 77.15 163.6 L80.8 166.95 81.0 167.15 81.65 167.8 81.35 170.8 77.5 170.45 M46.05 214.6 Q44.8 212.65 44.45 211.15 L44.25 210.85 44.25 207.85 Q44.25 206.35 44.6 205.4 44.25 206.35 44.25 207.85 L44.25 210.85 44.45 211.15 Q44.8 212.65 46.05 214.6" fill="#3a821e" fill-rule="evenodd" stroke="none"/>
      <path d="M90.75 92.15 L94.05 91.25 102.15 89.25 Q101.45 93.85 100.05 95.35 99.2 96.1 97.6 96.6 L93.75 96.95 90.75 96.95 87.1 96.6 80.7 95.65 Q84.65 93.75 90.75 92.15" fill="#ffebd0" fill-rule="evenodd" stroke="none"/>
      <path d="M21.8 113.2 L24.4 112.85 24.4 113.4 24.5 118.75 24.5 122.6 24.5 123.1 24.15 131.65 22.9 142.9 22.8 143.55 20.3 158.4 20.0 160.75 Q19.35 164.25 13.9 178.15 L13.25 179.75 13.15 180.2 7.3 194.6 Q7.3 199.2 26.4 217.9 36.05 227.2 42.25 232.55 33.8 232.1 22.25 222.7 18.95 219.85 15.4 216.3 2.8 203.7 0.55 197.6 L0.0 195.55 Q0.25 192.8 2.8 189.5 8.05 182.95 9.55 178.9 L10.15 176.1 10.25 174.85 14.75 153.7 18.1 137.1 19.25 131.55 20.65 122.8 21.5 116.15 21.8 113.2" fill="#648d25" fill-rule="evenodd" stroke="none"/>
      <path d="M99.5 174.5 Q99.5 177.4 101.45 179.2 103.45 181.15 106.55 181.15 108.9 181.15 110.4 179.55 111.7 178.15 111.7 176.25 111.7 174.5 111.45 174.3 111.35 173.65 109.75 172.9 112.75 170.35 115.3 170.35 L116.05 170.45 Q118.5 171.0 120.25 174.85 L121.5 178.05 Q122.15 180.2 122.15 182.45 122.15 187.45 119.8 191.1 L116.7 192.35 Q118.65 189.5 118.65 187.9 L118.65 185.65 Q115.45 187.9 113.6 187.9 111.7 187.9 111.7 185.65 111.7 184.55 112.1 183.9 L109.85 184.25 107.0 184.65 Q103.35 184.65 101.1 182.45 98.85 180.2 98.85 176.55 L99.2 174.5 99.5 174.5 M44.45 189.5 Q42.0 193.95 42.0 198.15 L42.0 198.25 42.0 199.2 Q40.1 200.8 37.85 203.35 35.8 205.95 35.4 207.0 L35.05 206.7 35.05 199.4 Q35.15 191.7 38.8 184.9 41.9 179.1 44.15 178.6 L44.25 178.6 44.25 185.95 Q43.95 187.55 44.45 189.5" fill="#75bc42" fill-rule="evenodd" stroke="none"/>
      <path d="M116.6 42.0 Q116.3 37.95 115.65 34.0 112.45 13.9 106.35 10.4 L104.0 8.35 M31.95 12.75 L30.6 13.9 M29.3 16.8 Q23.4 31.95 22.9 57.85 L22.55 100.15 22.55 101.65 21.8 113.2 21.5 116.15 20.65 122.8 19.25 131.55 18.1 137.1 14.75 153.7 10.25 174.85 10.15 176.1 9.55 178.9 Q8.05 182.95 2.8 189.5 0.25 192.8 0.0 195.55 L0.55 197.6 Q2.8 203.7 15.4 216.3 18.95 219.85 22.25 222.7 33.8 232.1 42.25 232.55 L42.95 232.55 Q48.0 232.55 51.75 231.5 54.0 230.85 55.8 229.65 57.4 228.8 58.7 227.5 62.55 223.65 62.55 216.95 62.55 211.05 59.95 207.65 L59.0 206.35 Q55.9 203.25 50.45 203.25 47.05 203.25 45.85 203.8 45.1 204.35 44.6 205.4 44.25 206.35 44.25 207.85 L44.25 210.85 44.45 211.15 Q44.8 212.65 46.05 214.6 M116.6 42.0 Q117.35 48.85 117.65 55.9 118.0 63.3 117.55 70.85 L117.55 71.1 Q117.55 75.65 117.05 80.25 L114.7 101.45 Q112.65 115.85 109.45 131.25 L104.1 155.2 Q101.75 165.95 99.5 174.5 99.5 177.4 101.45 179.2 103.45 181.15 106.55 181.15 108.9 181.15 110.4 179.55 111.7 178.15 111.7 176.25 111.7 174.5 111.45 174.3 111.35 173.65 109.75 172.9 112.75 170.35 115.3 170.35 L116.05 170.45 Q118.5 171.0 120.25 174.85 L121.5 178.05 Q122.15 180.2 122.15 182.45 122.15 187.45 119.8 191.1 118.3 193.35 115.75 195.25 L114.7 196.0 112.75 197.15 Q109.45 198.8 105.05 199.2 L101.55 199.4 97.15 199.1 Q90.75 197.9 83.7 194.05 L82.3 193.35 Q73.0 187.9 73.0 185.3 73.0 184.35 74.2 181.45 L74.5 180.7 76.2 176.75 76.2 171.95 M77.5 170.45 L75.65 170.35 73.55 170.45 Q70.0 170.45 66.6 171.3 62.95 172.25 59.65 173.9 54.95 176.25 51.1 180.1 L50.15 181.15 49.05 182.45 48.75 182.75 Q46.05 186.25 44.45 189.5 42.0 193.95 42.0 198.15 L42.0 198.25 42.0 199.2 Q42.0 201.65 42.25 202.1 42.35 202.6 44.6 205.4 M77.5 170.45 L81.35 170.8" fill="none" stroke="#1b3a01" stroke-linecap="round" stroke-linejoin="round" stroke-width="1.0"/>
      <path d="M59.1 110.85 Q60.3 104.75 60.95 98.55 55.8 96.6 50.75 87.85 44.15 75.65 44.15 56.95 44.15 50.9 44.6 48.4 45.1 45.95 47.35 41.7 56.45 48.4 71.7 48.4 82.0 48.4 90.2 45.65 L94.7 43.95 Q103.8 39.85 108.25 33.25 111.7 35.6 114.8 42.1 M114.35 76.3 L116.6 70.85 M114.35 76.3 L110.85 82.75 110.2 83.7 Q108.6 85.95 105.7 88.3 L104.3 89.35 M104.3 90.55 Q104.65 92.75 104.65 97.6 L104.65 100.25 Q104.65 123.25 96.6 143.65 L96.2 144.8 95.85 145.55 95.25 146.85 Q91.4 156.25 87.1 162.0 84.35 165.65 81.65 167.8 L81.0 167.15 80.8 166.95 77.15 163.6 Q74.2 161.05 71.4 160.1 L68.1 164.15 64.35 168.45 59.65 173.9 M59.1 110.85 L59.1 110.95 Q56.75 125.05 51.3 138.3 50.15 140.75 49.3 143.2 L48.4 145.55 Q44.25 157.2 44.25 163.6 44.25 169.05 46.2 173.25 L46.8 174.65 50.15 181.15" fill="none" stroke="#1b3a01" stroke-linecap="round" stroke-linejoin="round" stroke-width="0.5"/>
      <path d="M30.6 13.9 L29.3 16.8" fill="none" stroke="#ff00ff" stroke-linecap="round" stroke-linejoin="round" stroke-width="0.1"/>
    </g>
    <g id="sprite7" transform="matrix(1.0, 0.0, 0.0, 1.0, 0.5, 0.5)">
      <use height="139.6" transform="matrix(1.0, 0.0, 0.0, 1.0, -0.5, -0.5)" width="85.5" xlink:href="#shape7"/>
    </g>
    <g id="shape7" transform="matrix(1.0, 0.0, 0.0, 1.0, 0.5, 0.5)">
      <path d="M84.1 27.15 L84.1 27.2 84.1 27.65 84.2 28.3 84.5 29.4 84.5 29.8 84.5 30.35 84.5 31.0 Q84.4 36.45 83.25 44.25 82.6 42.95 81.85 36.45 L81.3 33.25 81.3 32.9 81.0 30.65 81.0 30.15 80.9 29.7 80.7 28.75 80.05 31.3 78.95 35.8 71.8 66.15 68.05 82.15 65.7 91.7 64.35 96.7 Q59.65 113.4 56.4 119.35 55.15 117.55 52.35 108.9 L49.45 100.25 48.5 97.05 48.5 96.7 46.7 110.3 44.65 100.75 44.45 100.85 Q44.0 102.15 43.5 106.3 L43.4 106.75 42.55 109.0 Q41.55 111.55 39.55 113.05 36.65 115.0 34.3 116.7 L31.5 118.6 Q27.45 121.6 25.85 123.2 L25.55 123.2 25.2 107.95 25.2 106.65 Q25.2 100.45 25.85 92.85 L25.85 91.8 26.3 85.7 Q26.5 85.6 26.3 85.4 L26.5 84.75 25.95 86.0 23.1 88.9 21.8 90.2 15.4 96.7 15.3 96.9 10.45 101.85 10.45 93.5 10.8 92.0 11.0 91.15 Q11.75 87.2 12.05 82.7 L14.0 79.2 19.45 69.25 21.15 66.25 Q26.2 57.15 30.45 48.85 L32.8 44.25 40.4 29.05 Q46.6 16.45 50.45 6.5 L53.1 4.8 Q59.85 0.65 62.85 0.65 69.55 0.65 74.05 4.6 80.7 10.6 83.9 26.5 L84.1 27.15 M43.7 96.7 L44.65 100.75 43.7 96.7 M47.0 38.15 L47.65 35.8 49.15 31.4 Q53.75 18.8 60.9 13.45 L60.25 12.6 Q52.8 16.75 45.65 30.35 L44.45 32.6 Q39.1 43.3 37.6 52.9 L37.3 56.55 37.3 58.75 Q37.3 64.2 38.25 71.7 L40.9 60.7 41.45 59.2 Q45.0 45.2 47.0 38.15" fill="#3a821e" fill-rule="evenodd" stroke="none"/>
      <path d="M12.05 82.7 Q11.75 87.2 11.0 91.15 L10.8 92.0 10.45 93.5 10.45 101.85 15.3 96.9 15.4 96.7 21.8 90.2 23.1 88.9 25.95 86.0 24.6 90.5 23.95 92.45 25.85 92.85 Q25.2 100.45 25.2 106.65 L25.2 107.95 25.55 123.2 25.85 123.2 Q27.45 121.6 31.5 118.6 L34.3 116.7 Q36.65 115.0 39.55 113.05 41.55 111.55 42.55 109.0 L43.4 106.75 43.5 106.3 Q44.0 102.15 44.45 100.85 L44.65 100.75 46.7 110.3 48.5 96.7 48.5 97.05 49.45 100.25 52.35 108.9 Q55.15 117.55 56.4 119.35 59.65 113.4 64.35 96.7 L65.7 91.7 68.05 82.15 71.8 66.15 78.95 35.8 80.05 31.3 80.7 28.75 80.9 29.7 81.0 30.15 81.0 30.65 81.3 32.9 81.3 33.25 81.85 36.45 Q82.6 42.95 83.25 44.25 82.3 52.25 80.25 62.95 L79.7 66.15 78.55 62.6 Q78.2 63.6 76.0 72.0 L69.35 97.05 69.35 97.35 67.95 102.15 Q62.5 121.8 59.2 127.4 L58.25 128.65 Q57.6 129.3 57.05 129.3 55.45 129.3 52.45 121.6 L50.85 117.95 50.85 117.85 47.85 110.5 46.7 110.8 46.7 110.3 46.7 110.8 46.9 111.15 46.6 111.45 Q46.05 111.75 45.65 112.2 L36.95 119.55 36.65 119.7 34.0 121.8 Q25.3 128.0 21.5 128.0 19.85 128.0 18.6 124.5 17.2 120.85 17.2 115.6 17.95 111.45 19.45 106.45 L20.2 103.75 20.4 103.45 20.85 102.15 21.35 100.45 19.75 101.1 18.6 101.5 14.0 103.75 Q9.1 106.0 7.6 106.0 4.05 106.0 4.05 99.25 L3.1 98.85 4.4 96.4 5.55 94.45 8.45 89.45 8.85 88.5 12.05 82.7 M21.35 100.45 L23.95 92.45 21.35 100.45" fill="#235401" fill-rule="evenodd" stroke="none"/>
      <path d="M47.0 38.15 Q45.0 45.2 41.45 59.2 L40.9 60.7 38.25 71.7 Q37.3 64.2 37.3 58.75 L37.3 56.55 37.6 52.9 Q39.1 43.3 44.45 32.6 L45.65 30.35 Q52.8 16.75 60.25 12.6 L60.9 13.45 Q53.75 18.8 49.15 31.4 L47.65 35.8 47.0 38.15" fill="#75bc42" fill-rule="evenodd" stroke="none"/>
      <path d="M79.7 66.15 L79.6 66.8 78.0 75.0 75.0 89.75 72.25 101.2 Q71.8 103.95 70.95 106.45 66.7 123.85 62.85 131.95 L62.1 133.8 Q59.5 138.6 57.05 138.6 52.15 138.6 50.2 129.5 L48.6 120.3 Q45.4 121.6 40.9 124.15 L37.5 126.3 34.95 127.9 Q26.8 132.5 21.05 132.5 17.5 132.5 16.55 130.9 15.9 129.85 15.9 125.35 15.9 121.5 17.2 115.6 17.2 120.85 18.6 124.5 19.85 128.0 21.5 128.0 25.3 128.0 34.0 121.8 L36.65 119.7 36.95 119.55 45.65 112.2 Q46.05 111.75 46.6 111.45 L46.9 111.15 46.7 110.8 47.85 110.5 50.85 117.85 50.85 117.95 52.45 121.6 Q55.45 129.3 57.05 129.3 57.6 129.3 58.25 128.65 L59.2 127.4 Q62.5 121.8 67.95 102.15 L69.35 97.35 69.35 97.05 76.0 72.0 Q78.2 63.6 78.55 62.6 L79.7 66.15 M19.45 106.45 Q17.2 107.05 14.0 108.9 11.3 110.15 8.75 110.15 4.4 110.15 1.9 107.95 0.0 106.1 0.0 104.4 L3.1 98.85 4.05 99.25 Q4.05 106.0 7.6 106.0 9.1 106.0 14.0 103.75 L18.6 101.5 19.75 101.1 21.35 100.45 20.85 102.15 20.4 103.45 20.2 103.75 19.45 106.45 M46.9 111.15 L47.0 112.4 47.55 114.1 48.6 120.3 47.55 114.1 47.0 112.4 46.9 111.15" fill="#648d25" fill-rule="evenodd" stroke="none"/>
      <path d="M84.1 27.2 L84.1 27.15 M50.45 6.5 Q46.6 16.45 40.4 29.05 L32.8 44.25 30.45 48.85 Q26.2 57.15 21.15 66.25 L19.45 69.25 14.0 79.2 12.05 82.7 8.85 88.5 8.45 89.45 5.55 94.45 M25.95 86.0 L26.5 84.75 M44.65 100.75 L43.7 96.7 M84.1 27.2 L84.2 27.45 84.4 28.1 84.5 28.65 84.5 29.4 84.5 29.8 84.5 30.35 84.5 31.0 Q84.4 36.45 83.25 44.25 82.3 52.25 80.25 62.95 L79.7 66.15 M79.6 66.8 L78.0 75.0 75.0 89.75 72.25 101.2 Q71.8 103.95 70.95 106.45 66.7 123.85 62.85 131.95 L62.1 133.8 Q59.5 138.6 57.05 138.6 52.15 138.6 50.2 129.5 L48.6 120.3 Q45.4 121.6 40.9 124.15 L37.5 126.3 34.95 127.9 Q26.8 132.5 21.05 132.5 17.5 132.5 16.55 130.9 15.9 129.85 15.9 125.35 15.9 121.5 17.2 115.6 17.95 111.45 19.45 106.45 17.2 107.05 14.0 108.9 11.3 110.15 8.75 110.15 4.4 110.15 1.9 107.95 0.0 106.1 0.0 104.4 L3.1 98.85 4.4 96.4 M46.7 110.3 L46.7 110.8 46.9 111.15 47.0 112.4 47.55 114.1 48.6 120.3 M50.45 6.5 L53.0 0.0 M25.95 86.0 L24.6 90.5 23.95 92.45 21.35 100.45 20.85 102.15 20.4 103.45 20.2 103.75 19.45 106.45 M46.7 110.3 L44.65 100.75" fill="none" stroke="#1b3a01" stroke-linecap="round" stroke-linejoin="round" stroke-width="1.0"/>
    </g>
    <g id="sprite8" transform="matrix(1.0, 0.0, 0.0, 1.0, 0.5, 0.5)">
      <use height="145.35" transform="matrix(1.0, 0.0, 0.0, 1.0, -0.5, -0.5)" width="153.6" xlink:href="#shape8"/>
    </g>
    <g id="shape8" transform="matrix(1.0, 0.0, 0.0, 1.0, 0.5, 0.5)">
      <path d="M126.2 16.1 L126.45 17.7 126.45 17.95 126.2 17.7 Q123.55 18.9 122.9 19.55 121.95 20.95 121.95 26.5 121.95 28.95 122.6 31.6 123.25 33.95 124.5 36.75 127.7 43.8 132.85 43.8 135.5 43.8 137.1 42.5 138.7 40.7 140.35 39.75 141.7 43.45 141.7 48.2 141.7 52.0 140.35 56.4 139.35 59.1 138.1 60.7 L138.5 61.3 Q136.9 62.05 136.15 63.05 L135.6 63.65 136.15 63.05 Q136.9 62.05 138.5 61.3 L139.15 62.3 Q136.9 62.6 135.95 63.35 L135.6 63.65 135.2 64.55 Q134.65 65.6 134.65 67.75 134.65 74.35 138.5 74.35 141.05 74.35 143.0 73.05 145.55 71.35 145.55 68.05 L145.45 66.25 146.2 67.5 Q148.15 70.7 148.15 72.1 148.15 78.5 142.35 81.4 138.5 83.35 134.15 83.35 121.75 83.35 112.95 70.0 L110.4 65.8 Q105.4 56.2 105.4 46.55 105.4 41.65 106.75 36.55 107.65 33.85 108.35 32.45 L105.05 32.9 Q100.55 32.9 97.45 28.3 96.5 26.7 95.75 24.55 93.2 18.25 93.2 12.15 L93.2 10.25 Q100.25 4.15 106.0 4.15 113.6 4.15 119.4 7.35 123.25 9.4 124.95 12.5 L124.85 12.9 Q124.85 13.25 126.2 16.1 M80.6 20.4 Q83.05 21.9 84.55 23.6 L86.15 25.2 87.65 23.8 Q89.35 26.5 91.15 31.5 L91.5 32.45 92.75 36.85 92.75 37.05 Q93.85 41.25 92.9 43.9 L93.2 46.15 93.85 54.15 93.75 59.4 93.5 61.0 Q84.2 88.45 70.25 88.45 64.35 88.45 62.2 81.95 61.15 78.75 60.6 71.45 58.9 73.7 57.3 74.9 54.95 76.3 51.75 76.3 46.6 76.3 43.1 70.3 L43.0 70.0 41.8 67.5 41.5 66.75 41.35 66.25 Q39.55 61.95 38.9 57.35 38.25 53.3 38.25 49.15 38.25 37.15 42.45 27.75 L41.15 26.5 Q43.3 24.15 45.45 22.3 48.85 19.85 52.7 18.35 57.95 16.35 64.15 16.35 70.45 16.35 76.3 18.35 78.65 19.3 80.6 20.4 M136.25 48.4 L136.5 50.65 137.85 51.05 Q139.45 50.65 139.45 48.4 139.45 45.7 137.85 45.95 136.25 46.15 136.25 48.4 M79.5 41.25 L80.25 40.25 Q81.75 40.25 82.1 47.55 82.5 58.85 83.05 61.95 L83.6 61.95 Q85.85 60.45 85.85 49.45 85.85 40.9 85.4 37.4 L85.1 34.95 Q84.2 31.2 82.4 29.7 L80.6 32.55 80.5 33.3 79.65 34.5 79.5 34.6 79.5 33.55 Q79.3 31.2 77.3 29.6 76.65 29.05 76.1 29.05 75.35 24.55 73.85 24.55 71.6 24.55 65.1 30.95 58.35 37.5 57.5 41.25 L57.6 41.35 Q66.7 35.15 69.9 34.2 69.9 36.85 67.35 44.45 68.0 44.45 69.9 42.95 L71.6 41.65 71.2 44.1 70.65 46.15 Q68.2 57.05 66.4 62.3 L67.65 63.25 Q69.6 60.05 73.55 52.0 L75.8 47.55 76.4 54.5 77.9 54.9 Q79.2 53.0 79.3 49.15 79.5 48.05 79.5 42.6 L79.5 41.25 M14.55 65.8 L15.6 64.65 Q20.1 61.1 25.9 58.75 L29.5 58.75 29.5 58.85 29.75 60.35 30.15 63.05 32.1 72.35 32.3 73.4 32.4 74.05 32.5 74.35 32.8 75.65 Q32.1 83.55 31.1 89.4 L29.75 98.85 28.85 102.65 Q25.0 117.2 17.55 117.2 12.75 117.2 10.15 108.25 8.25 101.4 8.25 92.3 8.25 83.85 9.2 78.85 L9.55 77.15 9.85 76.15 Q10.7 73.4 14.55 65.8 M19.8 89.85 L19.8 90.15 19.9 91.05 20.45 90.05 19.8 89.85" fill="#bcd577" fill-rule="evenodd" stroke="none"/>
      <path d="M138.5 61.3 L138.1 60.7 Q139.35 59.1 140.35 56.4 141.7 52.0 141.7 48.2 141.7 43.45 140.35 39.75 138.7 40.7 137.1 42.5 135.5 43.8 132.85 43.8 127.7 43.8 124.5 36.75 123.25 33.95 122.6 31.6 121.95 28.95 121.95 26.5 121.95 20.95 122.9 19.55 123.55 18.9 126.2 17.7 L126.45 17.95 126.45 17.7 126.2 16.1 129.3 21.65 Q133.9 30.55 134.55 37.7 L135.95 38.35 Q137.55 36.75 137.55 35.25 137.55 30.65 133.6 21.35 129.1 11.2 125.15 11.85 L124.95 12.5 Q123.25 9.4 119.4 7.35 113.6 4.15 106.0 4.15 100.25 4.15 93.2 10.25 L92.55 10.65 Q86.45 16.1 85.1 21.25 84.75 22.3 84.55 23.6 83.05 21.9 80.6 20.4 L81.15 19.55 Q83.05 12.25 90.2 6.6 91.9 5.1 93.85 4.05 99.1 0.95 105.4 0.3 L109.35 0.0 Q124.85 0.0 134.55 10.9 136.6 13.15 138.5 16.0 147.5 29.6 147.5 49.15 147.5 51.05 146.75 54.9 145.9 58.65 145.55 59.1 L145.45 59.8 143.55 59.7 Q141.4 59.7 138.85 61.1 138.7 61.1 138.5 61.3 M145.45 66.25 L145.55 68.05 Q145.55 71.35 143.0 73.05 141.05 74.35 138.5 74.35 134.65 74.35 134.65 67.75 134.65 65.6 135.2 64.55 L135.6 63.65 135.95 63.35 Q136.9 62.6 139.15 62.3 L142.35 62.3 143.0 63.05 144.5 64.95 145.45 66.25 M79.5 34.6 L79.65 34.5 80.5 33.3 80.6 32.55 82.4 29.7 Q84.2 31.2 85.1 34.95 L85.4 37.4 Q85.85 40.9 85.85 49.45 85.85 60.45 83.6 61.95 L83.05 61.95 Q82.5 58.85 82.1 47.55 81.75 40.25 80.25 40.25 L79.5 41.25 79.5 34.6 M75.8 47.55 L73.55 52.0 Q69.6 60.05 67.65 63.25 L66.4 62.3 Q68.2 57.05 70.65 46.15 L71.2 44.1 71.6 41.65 69.9 42.95 Q68.0 44.45 67.35 44.45 69.9 36.85 69.9 34.2 66.7 35.15 57.6 41.35 L57.5 41.25 Q58.35 37.5 65.1 30.95 71.6 24.55 73.85 24.55 75.35 24.55 76.1 29.05 75.05 28.95 75.05 31.6 75.05 37.15 75.8 47.55 M19.8 89.85 L20.45 90.05 19.9 91.05 19.8 90.15 19.8 89.85" fill="#d7f2ab" fill-rule="evenodd" stroke="none"/>
      <path d="M126.2 16.1 Q124.85 13.25 124.85 12.9 L124.95 12.5 125.15 11.85 Q129.1 11.2 133.6 21.35 137.55 30.65 137.55 35.25 137.55 36.75 135.95 38.35 L134.55 37.7 Q133.9 30.55 129.3 21.65 L126.2 16.1 M136.25 48.4 Q136.25 46.15 137.85 45.95 139.45 45.7 139.45 48.4 139.45 50.65 137.85 51.05 L136.5 50.65 136.25 48.4 M79.5 34.6 L79.5 41.25 79.5 42.6 Q79.5 48.05 79.3 49.15 79.2 53.0 77.9 54.9 L76.4 54.5 75.8 47.55 Q75.05 37.15 75.05 31.6 75.05 28.95 76.1 29.05 76.65 29.05 77.3 29.6 79.3 31.2 79.5 33.55 L79.5 34.6" fill="#ffffff" fill-rule="evenodd" stroke="none"/>
      <path d="M93.2 10.25 L93.2 12.15 Q93.2 18.25 95.75 24.55 96.5 26.7 97.45 28.3 100.55 32.9 105.05 32.9 L108.35 32.45 Q107.65 33.85 106.75 36.55 105.4 41.65 105.4 46.55 105.4 56.2 110.4 65.8 L112.95 70.0 Q121.75 83.35 134.15 83.35 138.5 83.35 142.35 81.4 148.15 78.5 148.15 72.1 148.15 70.7 146.2 67.5 L145.45 66.25 144.5 64.95 143.0 63.05 142.35 62.3 139.15 62.3 138.5 61.3 Q138.7 61.1 138.85 61.1 141.4 59.7 143.55 59.7 L145.45 59.8 Q152.6 61.3 152.6 73.95 152.6 82.05 146.85 87.2 141.7 91.65 135.3 91.65 121.2 91.65 108.25 78.2 L107.65 77.8 Q103.9 73.4 93.75 59.4 L93.85 54.15 93.2 46.15 92.9 43.9 Q93.85 41.25 92.75 37.05 L92.75 36.85 91.5 32.45 91.15 31.5 Q89.35 26.5 87.65 23.8 L86.15 25.2 84.55 23.6 Q84.75 22.3 85.1 21.25 86.45 16.1 92.55 10.65 L93.2 10.25 M93.5 61.0 Q91.6 81.0 78.9 97.35 64.65 115.6 49.15 115.6 L47.55 115.6 Q42.0 111.55 41.05 109.95 40.2 108.85 40.2 104.05 L40.2 103.0 40.2 101.5 Q40.75 93.25 46.4 93.25 47.35 93.25 48.55 94.85 49.8 96.6 49.8 98.5 49.8 102.8 45.75 104.05 47.05 104.7 48.2 104.7 50.55 104.7 52.4 102.8 54.3 100.55 54.3 96.9 54.3 93.4 52.4 90.7 50.55 88.15 47.9 87.95 L47.05 87.8 47.35 87.6 Q43.6 85.25 39.9 77.9 L39.25 76.8 Q36.05 70.1 35.05 64.85 L34.75 64.85 33.8 69.35 33.45 69.35 Q31.35 52.9 31.35 50.1 L30.05 50.0 Q31.35 42.0 36.05 33.55 38.25 29.7 40.85 26.7 41.05 26.5 41.15 26.5 L42.45 27.75 Q38.25 37.15 38.25 49.15 38.25 53.3 38.9 57.35 39.55 61.95 41.35 66.25 L41.5 66.75 41.8 67.5 43.0 70.0 43.1 70.3 Q46.6 76.3 51.75 76.3 54.95 76.3 57.3 74.9 58.9 73.7 60.6 71.45 61.15 78.75 62.2 81.95 64.35 88.45 70.25 88.45 84.2 88.45 93.5 61.0 M37.65 116.55 Q33.45 129.5 29.4 135.8 23.75 144.35 15.95 144.35 7.3 144.35 3.2 138.25 0.1 133.75 0.0 127.9 L0.0 127.7 0.0 127.35 Q0.0 124.35 0.75 122.85 1.6 121.5 3.65 120.2 L3.95 120.1 Q0.65 106.95 0.65 100.2 0.65 91.15 3.0 83.65 4.3 80.0 6.1 76.6 L7.2 74.55 Q10.15 69.45 14.55 65.8 10.7 73.4 9.85 76.15 L9.55 77.15 9.2 78.85 Q8.25 83.85 8.25 92.3 8.25 101.4 10.15 108.25 12.75 117.2 17.55 117.2 25.0 117.2 28.85 102.65 L29.75 98.85 31.1 89.4 Q32.1 83.55 32.8 75.65 L35.6 82.35 36.9 84.6 27.8 112.7 31.35 110.15 31.65 110.15 31.65 110.25 Q30.8 113.45 24.3 126.4 L24.4 126.7 Q26.95 125.0 30.8 121.5 L36.05 115.95 37.65 116.55 M5.15 127.35 Q6.95 131.1 7.3 131.4 8.15 132.15 10.15 132.15 13.05 132.15 14.0 131.55 15.6 130.55 15.6 127.05 15.6 119.45 7.6 119.45 L3.95 120.1 7.6 119.45 Q15.6 119.45 15.6 127.05 15.6 130.55 14.0 131.55 13.05 132.15 10.15 132.15 8.15 132.15 7.3 131.4 6.95 131.1 5.15 127.35" fill="#9bb461" fill-rule="evenodd" stroke="none"/>
      <path d="M47.55 115.6 Q42.45 115.05 39.15 111.55 38.25 114.1 37.65 116.55 L36.05 115.95 30.8 121.5 Q26.95 125.0 24.4 126.7 L24.3 126.4 Q30.8 113.45 31.65 110.25 L31.65 110.15 31.35 110.15 27.8 112.7 36.9 84.6 35.6 82.35 32.8 75.65 32.5 74.35 32.4 74.05 32.3 73.4 32.1 72.35 30.15 63.05 29.75 60.35 29.5 58.85 29.5 58.75 Q29.2 54.5 30.05 50.0 L31.35 50.1 Q31.35 52.9 33.45 69.35 L33.8 69.35 34.75 64.85 35.05 64.85 Q36.05 70.1 39.25 76.8 L39.9 77.9 Q43.6 85.25 47.35 87.6 L47.05 87.8 47.9 87.95 Q50.55 88.15 52.4 90.7 54.3 93.4 54.3 96.9 54.3 100.55 52.4 102.8 50.55 104.7 48.2 104.7 47.05 104.7 45.75 104.05 49.8 102.8 49.8 98.5 49.8 96.6 48.55 94.85 47.35 93.25 46.4 93.25 40.75 93.25 40.2 101.5 L40.2 103.0 40.2 104.05 Q40.2 108.85 41.05 109.95 42.0 111.55 47.55 115.6 M37.95 110.15 Q35.6 106.65 35.3 105.55 L35.3 105.35 Q35.05 104.4 35.05 101.2 35.05 95.95 38.6 92.0 39.75 90.7 41.05 89.85 L41.15 89.75 Q43.95 87.8 47.05 87.8 43.95 87.8 41.15 89.75 L41.05 89.85 Q39.75 90.7 38.6 92.0 35.05 95.95 35.05 101.2 35.05 104.4 35.3 105.35 L35.3 105.55 Q35.6 106.65 37.95 110.15 L39.15 111.55 37.95 110.15 M36.9 84.6 Q38.8 87.5 41.05 89.85 38.8 87.5 36.9 84.6" fill="#81984e" fill-rule="evenodd" stroke="none"/>
      <path d="M135.2 64.55 L135.6 63.65 136.15 63.05 Q136.9 62.05 138.5 61.3 138.7 61.1 138.85 61.1 141.4 59.7 143.55 59.7 L145.45 59.8 Q152.6 61.3 152.6 73.95 152.6 82.05 146.85 87.2 141.7 91.65 135.3 91.65 121.2 91.65 108.25 78.2 L107.65 77.8 Q103.9 73.4 93.75 59.4 L93.5 61.0 Q91.6 81.0 78.9 97.35 64.65 115.6 49.15 115.6 L47.55 115.6 Q42.45 115.05 39.15 111.55 38.25 114.1 37.65 116.55 33.45 129.5 29.4 135.8 23.75 144.35 15.95 144.35 7.3 144.35 3.2 138.25 0.1 133.75 0.0 127.9 L0.0 127.7 0.0 127.35 Q0.0 124.35 0.75 122.85 1.6 121.5 3.65 120.2 M145.55 59.1 Q145.9 58.65 146.75 54.9 147.5 51.05 147.5 49.15 147.5 29.6 138.5 16.0 136.6 13.15 134.55 10.9 124.85 0.0 109.35 0.0 L105.4 0.3 Q99.1 0.95 93.85 4.05 91.9 5.1 90.2 6.6 83.05 12.25 81.15 19.55 M80.6 20.4 Q83.05 21.9 84.55 23.6 L86.15 25.2 M92.75 36.85 L92.75 37.05 Q93.85 41.25 92.9 43.9 L93.2 46.15 93.85 54.15 93.75 59.4 M3.95 120.1 Q0.65 106.95 0.65 100.2 0.65 91.15 3.0 83.65 4.3 80.0 6.1 76.6 L7.2 74.55 Q10.15 69.45 14.55 65.8 M15.6 64.65 Q20.1 61.1 25.9 58.75 L29.5 58.75 Q29.2 54.5 30.05 50.0 31.35 42.0 36.05 33.55 38.25 29.7 40.85 26.7 41.05 26.5 41.15 26.5 43.3 24.15 45.45 22.3 48.85 19.85 52.7 18.35 57.95 16.35 64.15 16.35 70.45 16.35 76.3 18.35 78.65 19.3 80.6 20.4 M29.75 60.35 L29.5 58.85 29.5 58.75 M37.95 110.15 L39.15 111.55" fill="none" stroke="#1b3a01" stroke-linecap="round" stroke-linejoin="round" stroke-width="1.0"/>
      <path d="M3.65 120.2 L3.95 120.1 7.6 119.45 Q15.6 119.45 15.6 127.05 15.6 130.55 14.0 131.55 13.05 132.15 10.15 132.15 8.15 132.15 7.3 131.4 6.95 131.1 5.15 127.35 M32.4 74.05 L32.3 73.4 32.1 72.35 30.15 63.05 29.75 60.35 M47.05 87.8 L47.9 87.95 Q50.55 88.15 52.4 90.7 54.3 93.4 54.3 96.9 54.3 100.55 52.4 102.8 50.55 104.7 48.2 104.7 47.05 104.7 45.75 104.05 M36.9 84.6 L35.6 82.35 32.8 75.65 M47.05 87.8 Q43.95 87.8 41.15 89.75 L41.05 89.85 Q39.75 90.7 38.6 92.0 35.05 95.95 35.05 101.2 35.05 104.4 35.3 105.35 L35.3 105.55 Q35.6 106.65 37.95 110.15 M41.05 89.85 Q38.8 87.5 36.9 84.6" fill="none" stroke="#1b3a01" stroke-linecap="round" stroke-linejoin="round" stroke-width="0.5"/>
    </g>
  </defs>
</svg>
