<?xml version="1.0" encoding="UTF-8" standalone="no"?>
<svg xmlns:xlink="http://www.w3.org/1999/xlink" height="187.35px" width="121.65px" xmlns="http://www.w3.org/2000/svg">
  <g transform="matrix(1.0, 0.0, 0.0, 1.0, 52.2, 5.3)">
    <use height="36.15" transform="matrix(1.0, 0.0, 0.0, 1.0, 23.4, 73.05)" width="44.6" xlink:href="#sprite0"/>
    <use height="58.1" transform="matrix(1.0, 0.0, 0.0, 1.0, -28.7, 123.95)" width="30.5" xlink:href="#sprite1"/>
    <use height="41.5" transform="matrix(1.0, 0.0, 0.0, 1.0, 0.7, 129.75)" width="23.55" xlink:href="#sprite2"/>
    <use height="144.6" transform="matrix(1.0, 0.0, 0.0, 1.0, -48.5, -5.3)" width="109.5" xlink:href="#sprite3"/>
    <use height="25.9" transform="matrix(1.0, 0.0, 0.0, 1.0, -49.65, 94.35)" width="38.45" xlink:href="#sprite4"/>
  </g>
  <defs>
    <g id="sprite0" transform="matrix(1.0, 0.0, 0.0, 1.0, 11.9, 0.0)">
      <use height="36.15" transform="matrix(1.0, 0.0, 0.0, 1.0, -11.9, 0.0)" width="44.6" xlink:href="#shape0"/>
    </g>
    <g id="shape0" transform="matrix(1.0, 0.0, 0.0, 1.0, 11.9, 0.0)">
      <path d="M27.55 6.15 Q26.45 5.5 25.35 5.3 24.45 5.5 23.8 6.7 L23.65 6.95 22.45 8.95 25.35 9.15 26.35 8.85 27.85 8.2 27.9 8.15 29.1 7.4 27.85 6.4 27.55 6.15 M30.75 8.5 L30.45 7.05 Q30.1 5.6 28.75 4.05 26.8 1.85 24.55 2.2 L22.45 3.75 24.25 3.95 25.35 4.3 Q26.55 4.75 27.85 5.6 L27.9 5.6 Q29.65 6.6 29.9 7.25 30.0 7.6 29.1 8.4 L28.9 8.4 27.85 9.1 26.35 9.8 25.55 10.05 23.9 10.15 23.0 10.15 24.55 11.25 25.55 11.6 26.35 11.6 27.85 11.35 28.1 11.25 Q29.55 10.9 30.75 10.15 L30.75 8.5 M2.25 11.75 L2.25 11.7 2.1 11.45 2.0 9.6 2.65 9.35 2.75 9.3 3.6 9.05 3.65 9.05 Q7.9 8.0 11.15 6.95 L12.2 6.6 12.3 6.6 13.15 6.35 Q16.15 5.4 18.15 4.5 L18.75 4.3 20.05 3.75 Q20.25 3.4 20.6 3.6 L22.35 2.2 22.45 2.05 Q25.55 -1.7 29.1 1.4 31.55 3.75 32.4 6.6 33.85 11.9 27.85 19.7 L26.8 21.0 26.35 21.5 Q20.95 27.5 13.15 31.35 8.75 33.55 3.6 35.05 L2.75 35.3 2.45 35.35 0.0 35.6 0.15 35.15 0.15 35.05 0.3 34.5 0.45 33.6 0.55 33.05 0.7 33.05 1.9 32.95 2.75 32.75 3.6 32.55 5.35 31.95 Q9.6 30.6 13.15 29.0 L13.2 28.95 Q13.75 28.5 14.5 28.3 L13.15 27.3 11.95 26.3 10.95 25.5 10.5 24.95 7.2 20.85 3.6 14.8 2.75 13.05 2.65 12.8 2.1 12.9 2.1 12.6 2.25 11.75 4.4 10.85 2.25 11.75 M25.0 12.25 Q23.55 11.8 22.45 10.8 20.8 9.35 20.35 7.7 L20.2 6.95 20.15 6.05 19.95 6.95 19.7 8.5 19.9 10.7 20.25 12.8 21.9 16.0 22.25 16.8 22.45 16.9 23.45 18.0 Q24.7 18.9 25.9 18.55 L26.35 18.45 Q26.6 18.35 26.8 18.2 L27.85 16.85 30.2 12.7 30.45 11.25 28.45 12.05 27.85 12.2 26.35 12.35 25.0 12.25 M24.55 5.05 L21.35 5.15 Q20.95 6.05 21.05 6.95 L21.15 7.5 21.7 8.7 23.0 6.95 23.15 6.7 Q24.0 5.6 24.55 5.05 M21.7 17.0 L21.45 16.9 Q20.05 14.55 19.5 13.0 18.95 10.6 18.95 8.5 L18.95 8.25 18.95 7.8 19.1 6.95 19.5 5.5 16.7 6.7 16.25 6.85 16.1 6.95 13.15 8.5 12.95 8.6 12.2 8.95 Q12.05 9.6 12.05 10.5 L11.65 13.45 12.85 15.1 13.15 15.55 Q14.5 17.4 15.5 18.1 16.6 19.0 17.7 19.45 L17.8 19.65 21.25 21.2 23.25 22.0 24.45 20.75 25.0 20.3 25.8 19.45 Q24.45 19.65 23.0 18.55 L21.7 17.0 M21.15 23.75 L22.25 22.75 17.05 20.0 15.4 19.1 13.15 17.15 12.6 16.65 Q12.05 16.1 11.85 15.55 L11.4 14.7 11.3 16.1 Q10.95 19.65 11.65 24.95 L11.75 25.1 13.15 26.2 14.6 27.2 15.5 27.6 Q18.6 25.85 21.15 23.75 M4.45 11.9 L3.8 12.15 3.6 12.25 3.45 12.35 3.6 12.65 3.65 12.8 4.65 15.25 Q5.9 17.8 7.45 19.9 L10.85 24.3 10.75 23.55 Q10.1 21.45 10.3 19.65 L10.5 15.0 11.2 9.5 Q10.95 9.5 10.5 9.8 7.55 11.15 5.1 11.7 L4.45 11.9 M1.4 34.65 L0.3 34.5 1.4 34.65" fill="#89324d" fill-rule="evenodd" stroke="none"/>
      <path d="M30.75 8.5 L30.75 10.15 Q29.55 10.9 28.1 11.25 L27.85 11.35 26.35 11.6 25.55 11.6 24.55 11.25 23.0 10.15 23.9 10.15 25.55 10.05 26.35 9.8 27.85 9.1 28.9 8.4 29.1 8.4 Q30.0 7.6 29.9 7.25 29.65 6.6 27.9 5.6 L27.85 5.6 Q26.55 4.75 25.35 4.3 L24.25 3.95 22.45 3.75 24.55 2.2 Q26.8 1.85 28.75 4.05 30.1 5.6 30.45 7.05 L30.75 8.5 M27.55 6.15 L27.85 6.4 29.1 7.4 27.9 8.15 27.85 8.2 26.35 8.85 25.35 9.15 22.45 8.95 23.65 6.95 23.8 6.7 Q24.45 5.5 25.35 5.3 26.45 5.5 27.55 6.15 M24.55 5.05 Q24.0 5.6 23.15 6.7 L23.0 6.95 21.7 8.7 21.15 7.5 21.05 6.95 Q20.95 6.05 21.35 5.15 L24.55 5.05 M19.9 10.7 L19.7 8.5 19.95 6.95 20.15 6.05 20.2 6.95 20.35 7.7 Q20.8 9.35 22.45 10.8 23.55 11.8 25.0 12.25 L23.35 14.45 Q22.0 13.8 20.6 11.7 L19.9 10.7 M22.45 16.9 L22.25 16.8 Q22.45 16.65 22.6 16.65 L22.7 16.9 22.45 16.9 M12.95 8.6 L13.15 8.5 16.1 6.95 16.25 6.85 16.7 6.7 19.5 5.5 19.1 6.95 18.95 7.8 18.95 8.25 18.95 8.5 Q18.95 10.6 19.5 13.0 20.05 14.55 21.45 16.9 L21.7 17.0 18.7 18.55 Q17.05 19.1 13.3 13.35 L13.15 11.55 12.95 8.6 M11.85 15.55 Q12.05 16.1 12.6 16.65 L13.15 17.15 15.4 19.1 17.05 20.0 15.7 20.65 Q13.85 21.55 13.6 21.85 L13.15 20.85 12.5 19.2 11.85 15.55 M4.45 11.9 L5.1 11.7 Q7.55 11.15 10.5 9.8 L9.4 12.8 Q8.3 16.55 8.65 17.8 L7.3 17.55 Q6.75 17.55 6.45 17.1 5.65 16.35 4.45 11.9 M2.25 11.75 L2.1 12.6 2.1 12.9 2.65 12.8 2.75 13.05 3.6 14.8 7.2 20.85 10.5 24.95 8.95 24.4 7.75 23.65 3.6 18.1 2.8 17.0 2.75 16.95 1.9 15.7 1.95 16.5 Q0.7 15.5 -0.1 14.15 L-0.6 13.05 0.7 12.4 Q1.4 12.1 2.25 11.75" fill="#febae9" fill-rule="evenodd" stroke="none"/>
      <path d="M25.0 12.25 L26.35 12.35 27.85 12.2 28.45 12.05 30.45 11.25 30.2 12.7 27.85 13.65 26.35 14.5 26.1 14.7 Q24.9 15.7 23.45 18.0 L22.45 16.9 22.7 16.9 22.6 16.65 Q22.45 16.65 22.25 16.8 L21.9 16.0 20.25 12.8 19.9 10.7 20.6 11.7 Q22.0 13.8 23.35 14.45 L25.0 12.25 M21.7 17.0 L23.0 18.55 Q24.45 19.65 25.8 19.45 L25.0 20.3 22.25 19.0 Q21.05 18.35 19.9 18.65 L17.7 19.45 Q16.6 19.0 15.5 18.1 14.5 17.4 13.15 15.55 L12.85 15.1 11.65 13.45 12.05 10.5 Q12.05 9.6 12.2 8.95 L12.95 8.6 13.15 11.55 13.3 13.35 Q17.05 19.1 18.7 18.55 L21.7 17.0 M17.05 20.0 L22.25 22.75 21.15 23.75 Q20.05 23.4 18.7 22.75 L16.95 22.65 14.05 23.85 13.15 24.25 Q12.2 24.7 11.75 25.1 L11.65 24.95 Q10.95 19.65 11.3 16.1 L11.4 14.7 11.85 15.55 12.5 19.2 13.15 20.85 13.6 21.85 Q13.85 21.55 15.7 20.65 L17.05 20.0 M10.5 9.8 Q10.95 9.5 11.2 9.5 L10.5 15.0 10.3 19.65 Q10.1 21.45 10.75 23.55 L10.85 24.3 7.45 19.9 Q5.9 17.8 4.65 15.25 L3.65 12.8 3.6 12.65 3.45 12.35 3.6 12.25 3.8 12.15 4.45 11.9 Q5.65 16.35 6.45 17.1 6.75 17.55 7.3 17.55 L8.65 17.8 Q8.3 16.55 9.4 12.8 L10.5 9.8 M10.5 24.95 L10.95 25.5 11.95 26.3 13.15 27.3 14.5 28.3 Q13.75 28.5 13.2 28.95 L13.15 28.95 3.6 23.1 2.75 22.55 1.9 22.0 1.9 22.2 1.5 22.2 Q0.6 20.05 -2.15 18.2 L-5.1 16.4 -3.75 15.1 Q-2.65 14.1 -0.6 13.05 L-0.1 14.15 Q0.7 15.5 1.95 16.5 L1.9 15.7 2.75 16.95 2.8 17.0 3.6 18.1 7.75 23.65 8.95 24.4 10.5 24.95" fill="#d6679a" fill-rule="evenodd" stroke="none"/>
      <path d="M30.2 12.7 L27.85 16.85 26.8 18.2 Q26.6 18.35 26.35 18.45 L25.9 18.55 Q24.7 18.9 23.45 18.0 24.9 15.7 26.1 14.7 L26.35 14.5 27.85 13.65 30.2 12.7 M25.0 20.3 L24.45 20.75 23.25 22.0 21.25 21.2 17.8 19.65 17.7 19.45 19.9 18.65 Q21.05 18.35 22.25 19.0 L25.0 20.3 M21.15 23.75 Q18.6 25.85 15.5 27.6 L14.6 27.2 13.15 26.2 11.75 25.1 Q12.2 24.7 13.15 24.25 L14.05 23.85 16.95 22.65 18.7 22.75 Q20.05 23.4 21.15 23.75 M13.2 28.95 L13.15 29.0 Q9.6 30.6 5.35 31.95 L3.6 32.55 2.75 32.75 1.9 32.95 0.7 33.05 0.55 33.05 0.45 33.6 0.3 34.5 Q-3.9 33.85 -6.2 32.75 -10.4 30.75 -10.4 26.8 -10.4 21.55 -5.15 16.4 L-5.1 16.4 -2.15 18.2 Q0.6 20.05 1.5 22.2 L1.9 22.2 1.9 22.0 2.75 22.55 3.6 23.1 13.15 28.95 13.2 28.95" fill="#c8a6b4" fill-rule="evenodd" stroke="none"/>
      <path d="M2.25 11.75 L4.4 10.85 M0.3 34.5 L1.4 34.65 M-0.6 13.05 Q-2.65 14.1 -3.75 15.1 L-5.1 16.4 -5.15 16.4 Q-10.4 21.55 -10.4 26.8 -10.4 30.75 -6.2 32.75 -3.9 33.85 0.3 34.5 M-0.6 13.05 L0.7 12.4 Q1.4 12.1 2.25 11.75 Z" fill="none" stroke="#89324d" stroke-linecap="round" stroke-linejoin="round" stroke-width="3.0"/>
    </g>
    <g id="sprite1" transform="matrix(1.0, 0.0, 0.0, 1.0, 0.0, 0.0)">
      <use height="58.1" transform="matrix(1.0, 0.0, 0.0, 1.0, 0.0, 0.0)" width="30.5" xlink:href="#shape1"/>
    </g>
    <g id="shape1" transform="matrix(1.0, 0.0, 0.0, 1.0, 0.0, 0.0)">
      <path d="M23.3 17.1 L23.2 16.95 22.15 14.05 23.4 14.45 24.3 14.7 24.65 15.7 25.85 19.05 26.45 21.8 26.95 25.5 27.1 25.95 27.5 31.45 Q27.95 35.45 27.65 39.3 L27.55 40.45 27.4 40.85 28.4 43.2 30.05 47.95 30.3 50.05 30.5 52.45 Q30.3 57.1 27.2 58.0 24.3 58.65 22.2 55.0 L21.2 52.35 19.35 48.05 18.25 45.6 14.8 40.65 14.7 40.45 9.6 32.0 8.15 29.7 Q4.75 24.25 4.1 22.7 3.1 20.6 1.45 14.65 L0.45 10.35 Q-0.1 7.9 0.0 6.9 L0.2 4.7 Q0.3 3.35 0.85 2.6 1.15 1.85 2.1 1.05 L4.45 1.35 2.1 1.05 3.4 0.15 3.6 0.0 4.45 1.35 4.5 1.4 Q1.45 2.8 1.55 7.35 L2.0 10.0 3.0 14.2 Q4.65 20.75 10.25 29.45 L12.05 32.1 16.0 38.55 17.35 40.45 Q18.85 42.85 20.45 46.5 21.2 47.8 22.45 52.15 L22.75 52.9 Q24.3 56.9 26.65 56.35 28.65 55.8 28.85 52.35 L28.85 50.35 28.5 48.4 Q28.2 46.85 27.3 45.6 L26.65 44.4 26.2 44.6 Q25.75 44.85 25.55 44.6 L25.3 44.2 25.65 40.45 Q25.95 36.2 25.85 31.9 L25.4 26.15 24.85 21.8 24.6 20.75 24.45 20.05 24.2 19.4 23.3 17.1 M23.4 15.2 L23.4 14.45 23.4 15.2" fill="#1b3a01" fill-rule="evenodd" stroke="none"/>
      <path d="M23.4 14.45 L22.15 14.05 23.2 16.95 23.3 17.1 Q21.65 15.75 19.45 15.75 17.8 15.65 15.35 16.65 12.35 17.65 9.6 16.0 6.5 14.1 5.2 9.1 L5.1 8.8 Q4.75 7.7 4.65 6.35 4.5 4.9 4.5 3.35 L4.5 1.45 4.5 1.4 4.5 1.35 6.5 1.15 8.8 1.25 Q9.35 1.35 10.65 2.25 L13.25 3.5 Q15.8 4.65 16.95 5.25 19.65 6.65 21.3 8.9 23.1 11.35 23.4 14.45" fill="#9bb461" fill-rule="evenodd" stroke="none"/>
      <path d="M24.45 20.05 L24.6 20.75 24.85 21.8 25.4 26.15 25.85 31.9 Q25.95 36.2 25.65 40.45 L25.3 44.2 25.55 44.6 Q25.75 44.85 26.2 44.6 L26.65 44.4 27.3 45.6 Q28.2 46.85 28.5 48.4 L28.85 50.35 28.85 52.35 Q28.65 55.8 26.65 56.35 24.3 56.9 22.75 52.9 L22.45 52.15 Q21.2 47.8 20.45 46.5 18.85 42.85 17.35 40.45 L16.0 38.55 12.05 32.1 10.25 29.45 Q4.65 20.75 3.0 14.2 L2.0 10.0 1.55 7.35 Q1.45 2.8 4.5 1.4 L4.5 1.45 4.5 3.35 Q4.5 4.9 4.65 6.35 L4.3 9.25 4.3 10.25 Q4.3 12.1 5.1 15.2 L5.95 18.2 Q7.85 22.6 11.4 27.35 L12.6 28.9 Q17.8 35.45 18.45 36.75 L20.15 40.45 20.65 41.75 Q22.2 45.85 22.65 46.6 L23.75 51.05 24.0 51.7 Q25.0 54.15 26.2 53.7 L26.4 53.55 27.3 53.45 28.1 53.15 28.4 52.6 27.85 50.8 27.4 50.15 27.4 49.95 27.2 47.8 Q26.2 46.6 25.65 46.85 25.0 47.25 24.85 48.7 L24.1 45.15 23.75 41.75 24.0 41.75 24.65 40.45 25.4 38.3 Q25.65 37.45 25.1 35.55 24.45 32.9 24.3 29.7 L23.65 24.7 23.65 24.15 Q23.2 21.15 22.75 20.5 L22.2 19.4 21.75 18.85 Q23.3 19.05 24.45 20.05" fill="#d7f2ab" fill-rule="evenodd" stroke="none"/>
      <path d="M23.3 17.1 L24.2 19.4 24.45 20.05 Q23.3 19.05 21.75 18.85 21.0 17.5 19.45 15.75 21.65 15.75 23.3 17.1 M5.95 18.2 Q8.4 20.6 12.35 20.2 L17.55 19.4 Q20.25 18.95 22.2 19.4 L22.75 20.5 Q23.2 21.15 23.65 24.15 L23.65 24.7 23.1 22.4 Q22.75 20.95 22.0 21.15 21.45 25.8 21.45 30.8 21.45 36.55 22.35 39.85 L22.5 40.45 22.75 40.95 23.2 41.85 23.75 41.75 24.1 45.15 24.85 48.7 Q25.0 47.25 25.65 46.85 26.2 46.6 27.2 47.8 L27.4 49.95 27.4 50.15 Q23.75 45.15 25.55 52.15 L26.0 53.35 26.3 53.45 26.4 53.55 26.2 53.7 Q25.0 54.15 24.0 51.7 L23.75 51.05 22.65 46.6 Q22.2 45.85 20.65 41.75 L20.15 40.45 18.45 36.75 Q17.8 35.45 12.6 28.9 L11.4 27.35 Q7.85 22.6 5.95 18.2" fill="#bcd577" fill-rule="evenodd" stroke="none"/>
      <path d="M21.75 18.85 L22.2 19.4 Q20.25 18.95 17.55 19.4 L12.35 20.2 Q8.4 20.6 5.95 18.2 L5.1 15.2 Q4.3 12.1 4.3 10.25 L4.3 9.25 4.65 6.35 Q4.75 7.7 5.1 8.8 L5.2 9.1 Q6.5 14.1 9.6 16.0 12.35 17.65 15.35 16.65 17.8 15.65 19.45 15.75 21.0 17.5 21.75 18.85" fill="#a0b76a" fill-rule="evenodd" stroke="none"/>
      <path d="M23.65 24.7 L24.3 29.7 Q24.45 32.9 25.1 35.55 25.65 37.45 25.4 38.3 L24.65 40.45 24.0 41.75 23.75 41.75 23.2 41.85 22.75 40.95 22.5 40.45 22.35 39.85 Q21.45 36.55 21.45 30.8 21.45 25.8 22.0 21.15 22.75 20.95 23.1 22.4 L23.65 24.7 M27.4 50.15 L27.85 50.8 28.4 52.6 28.1 53.15 27.3 53.45 26.4 53.55 26.3 53.45 26.0 53.35 25.55 52.15 Q23.75 45.15 27.4 50.15" fill="#ffffff" fill-rule="evenodd" stroke="none"/>
      <path d="M4.45 1.35 L2.1 1.05 M23.4 14.45 L23.4 15.2 M23.4 14.45 Q23.1 11.35 21.3 8.9 19.65 6.65 16.95 5.25 15.8 4.65 13.25 3.5 L10.65 2.25 Q9.35 1.35 8.8 1.25 L6.5 1.15 4.5 1.35 4.45 1.35 Z" fill="none" stroke="#1b3a01" stroke-linecap="round" stroke-linejoin="round" stroke-width="2.0"/>
    </g>
    <g id="sprite2" transform="matrix(1.0, 0.0, 0.0, 1.0, 1.4, 5.2)">
      <use height="41.5" transform="matrix(1.0, 0.0, 0.0, 1.0, -1.4, -5.2)" width="23.55" xlink:href="#shape2"/>
    </g>
    <g id="shape2" transform="matrix(1.0, 0.0, 0.0, 1.0, 1.4, 5.2)">
      <path d="M0.7 4.35 L0.75 4.35 1.7 4.35 2.5 7.4 2.7 8.05 5.45 13.5 7.1 16.9 9.05 20.25 9.75 21.45 10.85 23.15 12.3 25.9 14.2 30.95 Q15.5 33.5 16.95 34.3 18.05 34.95 19.3 34.6 20.05 34.5 20.3 33.4 L20.4 31.85 Q20.5 30.3 20.15 29.2 19.6 27.2 18.5 25.45 L17.4 23.15 17.05 22.35 16.75 23.15 16.1 24.2 15.95 24.1 16.2 23.15 16.75 20.25 16.65 18.8 16.85 17.35 16.85 12.4 16.75 11.35 15.95 6.5 15.9 5.85 15.65 4.4 15.65 4.35 14.95 1.15 14.8 0.65 15.15 0.5 16.0 0.0 16.2 0.35 16.85 2.65 17.25 4.35 17.55 5.85 18.2 11.35 18.2 12.25 18.3 13.7 Q18.4 16.05 18.05 18.05 L18.05 18.9 18.15 20.25 18.4 21.35 19.2 23.15 19.95 24.55 Q21.05 26.45 21.6 28.75 L22.15 32.05 22.05 32.95 Q21.6 35.6 19.5 36.15 16.95 36.8 14.85 34.85 13.55 33.6 12.45 31.5 10.35 26.0 8.9 23.15 L8.0 21.55 7.35 20.25 4.25 14.15 3.9 13.7 Q1.9 9.6 1.05 7.3 L0.35 5.85 0.25 5.55 0.0 4.35 0.7 4.35" fill="#1b3a01" fill-rule="evenodd" stroke="none"/>
      <path d="M0.7 4.35 L0.3 3.7 -0.2 3.0 -0.4 0.85 Q-0.4 -2.55 1.1 -3.45 2.35 -4.2 7.1 -4.2 L12.1 -3.7 Q14.5 -2.75 15.15 0.5 L14.8 0.65 14.95 1.15 15.65 4.35 15.65 4.4 15.55 4.35 12.2 4.2 11.8 4.35 11.45 4.55 8.9 5.85 7.0 6.95 5.45 7.5 Q4.6 7.75 4.15 7.95 L3.15 8.05 2.7 8.05 2.5 7.4 1.7 4.35 0.75 4.35 0.7 4.35" fill="#9bb461" fill-rule="evenodd" stroke="none"/>
      <path d="M11.45 4.55 L11.8 4.35 12.2 4.2 15.55 4.35 15.65 4.4 15.9 5.85 15.95 6.5 Q15.3 6.2 14.2 6.5 L14.0 6.5 Q13.55 6.1 13.3 6.1 13.1 6.4 13.1 7.2 11.55 8.05 11.45 10.5 L11.5 11.35 11.65 12.95 11.85 14.7 11.55 14.05 11.1 12.95 10.4 11.35 9.45 8.85 Q8.95 7.2 9.95 5.85 L10.1 5.65 11.45 4.55" fill="#d3f093" fill-rule="evenodd" stroke="none"/>
      <path d="M2.7 8.05 L3.15 8.05 4.15 7.95 Q5.35 10.85 6.7 13.4 L7.55 15.05 10.7 20.25 12.0 22.25 12.35 23.15 14.65 29.2 Q16.2 33.4 17.75 34.05 18.2 34.5 18.75 34.4 19.15 34.3 19.4 33.6 19.6 33.05 19.15 31.85 L17.85 29.3 18.3 29.2 18.4 28.95 18.3 28.3 16.65 26.55 16.2 26.85 14.55 23.8 14.55 23.15 14.3 22.0 14.4 22.1 Q14.85 21.5 15.1 20.25 15.5 18.3 15.5 14.8 L15.35 11.35 14.85 8.3 14.2 6.95 14.0 6.5 14.2 6.5 Q15.3 6.2 15.95 6.5 L16.75 11.35 16.85 12.4 16.85 17.35 16.65 18.8 16.75 20.25 16.2 23.15 15.95 24.1 16.1 24.2 16.75 23.15 17.05 22.35 17.4 23.15 18.5 25.45 Q19.6 27.2 20.15 29.2 20.5 30.3 20.4 31.85 L20.3 33.4 Q20.05 34.5 19.3 34.6 18.05 34.95 16.95 34.3 15.5 33.5 14.2 30.95 L12.3 25.9 10.85 23.15 9.75 21.45 9.05 20.25 7.1 16.9 5.45 13.5 2.7 8.05 M11.85 14.7 L11.65 12.95 11.5 11.35 11.45 10.5 Q11.55 8.05 13.1 7.2 12.85 8.5 12.95 11.35 L13.0 13.05 13.3 18.15 11.85 14.7" fill="#d7f2ab" fill-rule="evenodd" stroke="none"/>
      <path d="M14.0 6.5 L14.2 6.95 14.85 8.3 15.35 11.35 15.5 14.8 Q15.5 18.3 15.1 20.25 14.85 21.5 14.4 22.1 L14.3 22.0 13.65 20.8 13.6 20.25 13.3 18.15 13.0 13.05 12.95 11.35 Q12.85 8.5 13.1 7.2 13.1 6.4 13.3 6.1 13.55 6.1 14.0 6.5 M16.2 26.85 L16.65 26.55 18.3 28.3 18.4 28.95 18.3 29.2 17.85 29.3 16.85 29.1 Q16.3 28.75 16.1 28.1 15.85 27.4 16.1 27.1 L16.2 26.85" fill="#ffffff" fill-rule="evenodd" stroke="none"/>
      <path d="M4.15 7.95 Q4.6 7.75 5.45 7.5 L7.0 6.95 8.9 5.85 11.45 4.55 10.1 5.65 9.95 5.85 Q8.95 7.2 9.45 8.85 L10.4 11.35 11.1 12.95 11.55 14.05 11.85 14.7 13.3 18.15 13.6 20.25 13.65 20.8 14.3 22.0 14.55 23.15 14.55 23.8 16.2 26.85 16.1 27.1 Q15.85 27.4 16.1 28.1 16.3 28.75 16.85 29.1 L17.85 29.3 19.15 31.85 Q19.6 33.05 19.4 33.6 19.15 34.3 18.75 34.4 18.2 34.5 17.75 34.05 16.2 33.4 14.65 29.2 L12.35 23.15 12.0 22.25 10.7 20.25 7.55 15.05 6.7 13.4 Q5.35 10.85 4.15 7.95" fill="#bcd577" fill-rule="evenodd" stroke="none"/>
      <path d="M15.15 0.5 Q14.5 -2.75 12.1 -3.7 L7.1 -4.2 Q2.35 -4.2 1.1 -3.45 -0.4 -2.55 -0.4 0.85 L-0.2 3.0 0.3 3.7 0.7 4.35 0.75 4.35" fill="none" stroke="#1b3a01" stroke-linecap="round" stroke-linejoin="round" stroke-width="2.0"/>
    </g>
    <g id="sprite3" transform="matrix(1.0, 0.0, 0.0, 1.0, 0.0, 0.0)">
      <use height="144.6" transform="matrix(1.0, 0.0, 0.0, 1.0, 0.0, 0.0)" width="109.5" xlink:href="#shape3"/>
    </g>
    <g id="shape3" transform="matrix(1.0, 0.0, 0.0, 1.0, 0.0, 0.0)">
      <path d="M82.5 33.75 L84.5 32.55 Q87.25 30.75 87.45 31.55 97.2 29.0 102.05 33.65 L102.4 34.0 Q103.85 35.55 105.6 39.95 L105.15 39.95 104.05 38.5 Q102.75 36.95 100.95 35.85 95.65 32.3 88.9 34.1 84.5 35.3 81.15 37.95 L76.5 41.3 76.5 40.85 Q78.6 37.5 79.6 36.5 80.7 35.1 82.5 33.75 M72.2 17.4 L72.45 18.6 Q72.45 19.8 71.3 20.15 L65.0 16.75 Q57.95 13.1 55.3 12.4 L55.5 12.55 56.85 13.95 57.95 15.85 57.95 16.85 Q57.85 17.7 56.5 18.05 53.2 19.05 50.3 17.7 48.1 16.75 47.75 15.5 L47.45 14.05 Q47.65 13.1 49.2 12.55 L49.0 12.4 Q47.3 11.4 45.65 11.65 44.55 11.75 44.35 11.0 44.1 10.3 44.55 9.75 45.1 8.75 47.3 8.1 55.3 6.0 64.15 10.75 71.55 14.65 72.2 17.4 M44.55 40.6 Q44.8 41.7 44.45 43.6 L39.05 37.85 Q35.15 33.85 31.75 32.2 L31.95 31.45 Q34.15 30.75 39.25 34.95 44.0 38.6 44.55 40.6 M26.4 5.55 Q27.75 3.45 29.75 4.65 L27.0 7.35 25.85 8.9 Q25.45 9.0 25.3 8.65 25.55 6.9 26.4 5.55 M18.35 11.2 L17.6 10.65 17.15 10.4 15.15 10.55 Q13.7 11.0 12.5 11.95 11.15 12.95 10.15 13.1 9.6 13.2 9.5 12.85 11.05 8.9 15.25 8.3 19.0 7.9 19.7 10.2 L19.7 11.2 19.0 11.3 18.35 11.2 M50.4 83.2 L50.2 85.4 49.85 88.15 Q49.2 92.9 48.1 93.15 47.55 93.25 47.3 92.7 46.9 90.7 48.2 85.95 L48.3 85.6 Q49.85 80.75 50.4 83.2 M64.45 81.65 L64.6 81.4 Q65.8 76.65 66.45 79.45 L66.8 81.0 66.8 81.65 66.7 84.4 66.45 87.3 Q66.35 89.4 65.25 89.6 64.8 89.7 64.35 89.15 L64.0 88.5 Q63.35 86.15 64.45 81.65" fill="#ffffff" fill-rule="evenodd" stroke="none"/>
      <path d="M102.4 34.0 L102.05 33.65 Q97.2 29.0 87.45 31.55 87.25 30.75 84.5 32.55 L82.5 33.75 80.5 34.85 77.5 36.85 75.75 38.2 73.65 40.15 Q70.9 42.5 68.35 45.5 L67.45 46.45 66.55 47.6 58.95 56.65 Q54.4 60.95 50.2 62.2 L49.3 62.2 48.3 61.85 52.5 59.2 52.4 58.95 54.95 57.1 Q58.25 54.2 62.6 49.25 L55.75 52.2 53.1 53.35 52.65 53.55 48.3 55.55 Q41.35 58.75 38.6 61.5 L37.95 62.3 Q34.7 65.95 33.85 69.25 33.05 72.45 33.95 75.9 34.85 79.2 37.7 80.65 40.15 81.95 43.7 81.95 L43.9 81.75 44.25 81.75 Q54.85 78.1 64.7 66.05 68.1 61.95 71.2 56.85 L71.3 56.75 Q71.2 55.75 71.75 56.1 L74.0 52.35 74.4 51.65 Q80.95 40.5 89.9 37.4 99.65 34.0 102.3 43.8 L102.75 46.8 102.3 46.8 101.6 45.7 Q100.3 42.85 99.3 41.85 98.1 40.4 96.0 39.4 94.55 38.5 92.55 37.95 L89.7 38.6 Q86.05 39.6 80.95 46.25 L77.05 51.8 Q79.05 52.9 80.5 57.3 81.5 60.65 81.85 64.6 L83.05 69.15 84.35 76.2 84.5 77.35 85.05 80.85 Q92.0 77.35 96.85 72.9 102.15 68.15 104.95 62.2 L105.6 60.75 105.95 60.1 Q109.45 51.0 107.25 42.4 106.15 38.6 104.4 36.2 103.6 34.95 102.4 34.0 M80.85 32.65 Q88.7 28.35 95.85 29.45 99.95 30.1 102.85 32.3 104.3 33.3 104.95 34.4 L105.7 35.2 Q107.6 37.65 108.8 42.05 109.7 45.7 109.45 51.0 109.25 56.2 107.8 59.95 106.05 64.6 100.05 71.6 L99.5 72.25 Q92.65 80.1 86.9 81.65 L85.6 81.75 85.15 81.65 85.7 86.5 85.7 88.3 85.8 87.95 85.9 89.8 86.05 90.05 85.9 90.95 85.9 91.25 85.9 91.35 85.7 91.35 85.7 94.05 85.7 100.35 85.35 103.65 84.5 110.3 84.5 110.6 84.35 110.95 84.35 111.4 84.25 111.95 83.95 113.4 83.95 113.5 83.8 113.95 83.7 113.95 82.7 117.8 Q81.95 120.7 80.7 123.45 L80.05 124.75 79.95 125.2 79.85 125.3 Q75.1 134.95 66.55 140.05 L66.6 140.25 65.4 140.9 65.35 140.7 64.15 141.25 53.3 144.25 52.2 144.25 52.3 144.6 50.6 144.6 50.55 144.35 43.9 143.45 44.1 143.95 41.95 143.3 41.9 143.25 41.9 143.0 Q36.4 141.45 31.5 137.8 L30.3 136.95 Q26.65 133.95 24.3 130.65 L23.4 129.25 23.45 129.2 22.9 128.1 22.75 127.75 22.1 126.1 21.9 125.45 21.8 125.3 22.5 125.15 23.65 124.9 Q25.0 127.75 26.65 129.95 28.85 132.95 31.3 135.05 L32.85 136.15 Q40.7 141.8 52.85 141.9 L63.45 139.15 Q70.9 135.4 75.4 128.55 L75.75 128.2 77.4 125.3 77.95 124.1 Q79.75 120.8 80.85 116.8 L81.6 114.25 81.6 113.8 Q82.05 113.15 82.25 111.6 L82.15 111.15 82.25 111.15 82.25 110.5 83.4 102.85 83.5 99.35 83.6 94.35 83.5 90.15 83.5 89.6 82.95 82.1 82.15 76.9 Q81.15 71.0 79.6 65.05 L77.2 58.4 75.5 53.9 73.1 57.4 Q74.95 59.85 76.5 64.05 77.5 66.95 78.95 73.35 L79.95 77.45 Q82.25 87.3 81.15 91.9 79.05 101.55 64.8 105.4 56.4 107.75 49.3 104.85 L49.1 104.75 Q43.45 102.45 42.7 99.8 42.35 98.25 42.55 95.25 L43.0 90.8 42.9 87.3 43.0 85.4 43.0 83.95 39.15 84.05 Q38.15 83.85 37.15 83.1 36.15 82.55 35.15 81.65 L34.7 81.3 Q35.05 83.4 34.4 86.15 33.95 87.85 33.15 89.15 L32.95 90.05 32.4 92.35 32.5 92.35 Q31.6 93.7 31.5 94.9 L31.6 95.0 30.85 96.8 30.4 97.55 29.65 99.0 31.05 99.65 28.6 99.8 28.1 99.8 27.75 99.8 26.4 99.8 27.2 99.2 28.3 97.25 28.55 96.9 Q26.4 98.45 25.65 98.65 21.55 99.8 18.7 98.1 16.35 96.9 15.5 94.7 L15.35 94.15 Q14.7 91.7 16.25 90.15 16.9 89.4 19.8 87.6 20.65 87.3 21.35 86.75 24.2 84.5 25.0 81.65 25.55 80.2 25.55 78.45 26.0 76.0 27.2 73.55 27.75 72.25 28.65 70.8 L28.75 70.6 Q30.85 67.05 32.95 65.95 33.95 63.75 35.6 61.5 41.0 55.2 52.5 51.0 L54.95 50.0 Q58.95 48.7 63.7 47.7 L64.35 46.8 Q68.45 41.85 71.75 39.5 L72.3 38.6 73.3 37.75 75.4 36.2 78.5 34.0 Q79.6 33.3 80.85 32.65 M28.85 98.65 L28.6 99.8 28.85 98.65 M28.3 95.45 L29.3 94.7 29.95 94.15 30.05 93.6 Q30.4 93.25 30.65 91.8 29.3 92.8 27.55 93.25 L23.2 93.8 22.35 92.9 22.1 92.5 22.1 92.05 Q31.3 90.25 32.4 84.05 32.95 82.1 31.95 76.75 L31.5 74.9 Q30.95 71.25 32.15 67.8 L30.4 70.25 28.95 72.7 28.85 73.25 28.1 75.0 Q27.1 77.45 27.0 79.75 L26.85 80.85 Q26.55 83.5 25.2 85.4 23.75 87.4 21.35 88.95 L18.0 91.25 Q16.9 92.35 17.25 94.25 L17.35 94.7 Q17.7 96.15 19.8 96.9 22.0 98.0 24.55 97.35 26.3 96.8 28.3 95.45 M79.15 81.65 L78.5 77.9 Q77.75 73.9 76.4 69.15 75.75 66.8 73.75 62.75 L72.0 58.95 71.1 60.1 Q61.35 74.1 52.65 80.1 50.4 81.55 48.2 82.4 L45.0 83.65 44.8 86.85 44.65 90.8 Q43.9 98.35 44.25 99.2 44.8 101.1 49.85 103.2 L50.3 103.45 Q56.7 105.85 64.15 103.85 77.6 100.2 79.6 92.25 80.4 88.85 79.15 81.65" fill="#1b3a01" fill-rule="evenodd" stroke="none"/>
      <path d="M84.5 77.35 L84.35 76.2 83.05 69.15 84.5 64.85 Q86.05 59.5 86.6 54.55 86.8 52.45 88.15 48.9 89.7 45.35 90.8 44.5 91.8 43.7 95.2 42.85 97.0 42.4 96.3 39.85 L96.0 39.4 Q98.1 40.4 99.3 41.85 100.3 42.85 101.6 45.7 102.4 50.45 99.3 57.55 96.0 64.95 93.55 64.6 L93.35 63.6 Q93.45 61.4 94.45 55.45 L95.2 49.9 95.1 49.7 91.9 60.75 Q90.0 67.4 88.8 69.15 87.15 71.35 86.05 73.8 L84.5 77.35" fill="#bcd577" fill-rule="evenodd" stroke="none"/>
      <path d="M83.05 69.15 L81.85 64.6 Q81.5 60.65 80.5 57.3 79.05 52.9 77.05 51.8 L80.95 46.25 Q86.05 39.6 89.7 38.6 L92.55 37.95 Q94.55 38.5 96.0 39.4 L96.3 39.85 Q97.0 42.4 95.2 42.85 91.8 43.7 90.8 44.5 89.7 45.35 88.15 48.9 86.8 52.45 86.6 54.55 86.05 59.5 84.5 64.85 L83.05 69.15" fill="#7a8759" fill-rule="evenodd" stroke="none"/>
      <path d="M105.95 60.1 L105.6 60.75 104.95 62.2 Q102.15 68.15 96.85 72.9 92.0 77.35 85.05 80.85 L84.5 77.35 86.05 73.8 Q87.15 71.35 88.8 69.15 90.0 67.4 91.9 60.75 L95.1 49.7 95.2 49.9 94.45 55.45 Q93.45 61.4 93.35 63.6 L93.55 64.6 Q96.0 64.95 99.3 57.55 102.4 50.45 101.6 45.7 L102.3 46.8 102.75 46.8 102.3 43.8 Q99.65 34.0 89.9 37.4 80.95 40.5 74.4 51.65 L74.1 50.9 73.65 50.45 72.75 50.7 72.55 50.8 Q71.3 51.55 63.8 58.75 55.2 66.7 50.4 68.05 49.0 68.35 47.55 68.05 46.1 67.95 46.0 67.4 45.9 66.95 46.45 65.15 47.0 63.5 46.75 62.85 46.2 61.2 43.25 60.95 L39.05 61.4 38.6 61.5 Q41.35 58.75 48.3 55.55 L49.65 55.3 Q54.3 55.0 54.95 57.1 L52.4 58.95 52.5 59.2 48.3 61.85 49.3 62.2 50.2 62.2 Q54.4 60.95 58.95 56.65 L66.55 47.6 67.45 46.45 65.35 49.7 Q64.25 51.35 64.45 52.1 L65.0 53.2 66.25 52.9 Q69.75 49.0 73.2 45.7 L74.95 44.15 77.75 41.85 Q84.5 36.2 89.0 34.95 94.65 33.55 99.3 35.65 104.85 38.3 106.6 45.05 107.9 49.9 107.7 52.2 107.6 55.0 105.95 60.1 M28.1 75.0 L28.85 73.25 28.95 72.7 30.4 70.25 32.15 67.8 Q30.95 71.25 31.5 74.9 L31.95 76.75 Q32.95 82.1 32.4 84.05 31.3 90.25 22.1 92.05 L22.1 92.5 22.35 92.9 23.2 93.8 27.55 93.25 Q29.3 92.8 30.65 91.8 30.4 93.25 30.05 93.6 L29.95 94.15 29.3 94.7 28.3 95.45 26.0 96.45 Q23.65 97.1 21.8 95.9 20.45 95.0 20.25 94.15 19.8 92.15 23.2 89.95 27.1 87.7 27.85 86.85 29.1 85.6 28.75 82.55 L28.55 81.4 28.4 80.55 Q27.75 77.65 28.1 75.0" fill="#9bb461" fill-rule="evenodd" stroke="none"/>
      <path d="M82.5 33.75 Q80.7 35.1 79.6 36.5 78.6 37.5 76.5 40.85 L76.5 41.3 81.15 37.95 Q84.5 35.3 88.9 34.1 95.65 32.3 100.95 35.85 102.75 36.95 104.05 38.5 L105.15 39.95 105.6 39.95 Q103.85 35.55 102.4 34.0 103.6 34.95 104.4 36.2 106.15 38.6 107.25 42.4 109.45 51.0 105.95 60.1 107.6 55.0 107.7 52.2 107.9 49.9 106.6 45.05 104.85 38.3 99.3 35.65 94.65 33.55 89.0 34.95 84.5 36.2 77.75 41.85 L74.95 44.15 73.2 45.7 Q69.75 49.0 66.25 52.9 L65.0 53.2 64.45 52.1 Q64.25 51.35 65.35 49.7 L67.45 46.45 68.35 45.5 Q70.9 42.5 73.65 40.15 L75.75 38.2 77.5 36.85 80.5 34.85 82.5 33.75 M48.3 55.55 L52.65 53.55 53.1 53.35 55.75 52.2 62.6 49.25 Q58.25 54.2 54.95 57.1 54.3 55.0 49.65 55.3 L48.3 55.55 M28.1 75.0 Q27.75 77.65 28.4 80.55 L28.55 81.4 28.75 82.55 Q29.1 85.6 27.85 86.85 27.1 87.7 23.2 89.95 19.8 92.15 20.25 94.15 20.45 95.0 21.8 95.9 23.65 97.1 26.0 96.45 L28.3 95.45 Q26.3 96.8 24.55 97.35 22.0 98.0 19.8 96.9 17.7 96.15 17.35 94.7 L17.25 94.25 Q16.9 92.35 18.0 91.25 L21.35 88.95 Q23.75 87.4 25.2 85.4 26.55 83.5 26.85 80.85 L27.0 79.75 Q27.1 77.45 28.1 75.0" fill="#d7f2ab" fill-rule="evenodd" stroke="none"/>
      <path d="M31.6 95.0 L31.5 94.9 Q31.6 93.7 32.5 92.35 L32.4 92.35 32.95 90.05 33.15 89.15 Q33.95 87.85 34.4 86.15 35.05 83.4 34.7 81.3 L35.15 81.65 Q36.15 82.55 37.15 83.1 38.15 83.85 39.15 84.05 L43.0 83.95 43.0 85.4 42.9 87.3 43.0 90.8 42.55 95.25 Q42.35 98.25 42.7 99.8 43.45 102.45 49.1 104.75 L49.3 104.85 Q56.4 107.75 64.8 105.4 79.05 101.55 81.15 91.9 82.25 87.3 79.95 77.45 L78.95 73.35 Q77.5 66.95 76.5 64.05 74.95 59.85 73.1 57.4 L75.5 53.9 77.2 58.4 79.6 65.05 Q81.15 71.0 82.15 76.9 L82.95 82.1 Q82.6 90.7 80.95 95.45 77.3 104.95 66.0 107.95 60.7 109.4 51.85 108.3 41.55 106.95 40.35 102.45 L40.15 99.8 Q40.05 97.7 39.8 97.25 39.15 94.25 37.95 93.25 36.7 92.25 34.5 92.9 33.05 93.25 31.6 95.0 M80.85 116.8 Q79.75 120.8 77.95 124.1 L77.4 125.3 76.85 125.55 Q74.4 126.1 68.35 130.5 62.05 135.15 57.95 136.25 48.3 138.8 39.15 134.5 L36.8 133.4 Q31.05 129.95 27.4 124.75 L27.15 124.45 27.25 124.15 27.15 124.45 27.0 124.2 27.25 124.15 27.4 124.0 27.25 123.95 27.45 122.2 Q27.45 118.95 25.55 117.25 L22.85 115.4 23.35 112.85 24.45 113.15 26.4 114.25 28.05 115.3 30.15 117.1 33.65 120.9 33.85 120.7 34.5 121.35 Q38.95 125.8 43.7 127.75 L45.55 128.4 Q51.55 130.5 59.15 129.2 L63.6 128.2 66.45 127.2 69.0 126.1 Q66.9 126.85 63.45 127.4 60.15 128.1 58.25 124.45 56.15 121.0 66.1 115.5 72.45 110.6 76.95 106.1 79.3 103.85 80.95 101.0 L81.05 100.45 81.25 100.35 Q80.95 103.85 80.85 112.4 80.3 115.9 78.85 119.15 L80.85 116.8 M33.65 120.9 L34.5 121.35 33.65 120.9" fill="#235401" fill-rule="evenodd" stroke="none"/>
      <path d="M82.95 82.1 L83.5 89.6 83.5 90.15 83.6 94.35 Q82.7 97.55 81.25 100.35 L81.05 100.45 80.95 101.0 Q79.3 103.85 76.95 106.1 72.45 110.6 66.1 115.5 56.15 121.0 58.25 124.45 60.15 128.1 63.45 127.4 66.9 126.85 69.0 126.1 L66.45 127.2 63.6 128.2 59.15 129.2 Q51.55 130.5 45.55 128.4 L43.7 127.75 Q38.95 125.8 34.5 121.35 L33.85 120.7 33.65 120.9 30.15 117.1 28.05 115.3 26.4 114.25 24.45 113.15 23.35 112.85 Q24.85 106.55 28.6 99.8 L31.05 99.65 29.65 99.0 30.4 97.55 30.85 96.8 31.6 95.0 Q33.05 93.25 34.5 92.9 36.7 92.25 37.95 93.25 39.15 94.25 39.8 97.25 40.05 97.7 40.15 99.8 L40.35 102.45 Q41.55 106.95 51.85 108.3 60.7 109.4 66.0 107.95 77.3 104.95 80.95 95.45 82.6 90.7 82.95 82.1" fill="#3a821e" fill-rule="evenodd" stroke="none"/>
      <path d="M63.7 18.85 L61.8 18.5 66.35 26.15 Q69.1 31.1 69.65 33.0 70.9 37.4 66.9 41.95 63.25 45.9 58.85 47.15 57.95 47.45 55.4 44.7 L49.85 38.5 Q44.25 32.3 39.9 30.0 37.6 28.55 35.05 27.8 L36.4 28.65 35.8 28.55 35.5 28.65 Q40.25 32.1 44.35 36.75 48.3 41.4 49.2 44.25 50.3 48.7 45.65 51.35 L41.55 53.2 Q39.15 54.45 38.15 55.45 37.5 56.0 33.5 62.4 30.3 67.95 27.95 68.5 24.0 69.6 19.0 62.4 15.6 57.2 15.05 53.75 15.15 51.1 15.35 50.55 L15.15 50.45 Q14.6 51.25 14.25 53.0 L14.15 55.55 14.15 55.75 Q14.05 58.75 14.35 60.1 15.25 63.5 18.8 68.15 L20.25 70.05 23.9 74.9 Q24.65 78.2 19.9 82.1 18.9 82.85 18.0 83.65 12.05 83.1 7.05 75.65 5.1 72.55 3.4 68.7 L2.2 65.4 Q0.2 58.2 3.55 49.0 6.4 40.6 13.15 32.0 L14.5 30.55 Q14.7 31.1 14.25 31.2 L13.05 34.2 11.7 37.65 Q11.6 38.2 12.6 37.85 13.6 37.5 15.05 34.65 L15.3 34.05 14.25 37.4 Q13.15 42.7 13.4 45.35 L13.95 47.6 Q17.0 34.75 18.35 31.75 20.0 28.0 25.65 26.45 L28.55 26.55 30.95 26.8 31.05 26.35 31.05 25.45 25.55 22.6 Q26.1 21.35 33.05 18.4 38.8 15.95 41.35 15.3 37.95 14.2 36.15 14.2 L32.05 15.3 29.95 15.85 Q37.05 9.65 43.8 7.9 62.35 2.9 72.45 13.75 73.75 15.05 74.65 16.75 75.4 18.4 76.5 23.05 77.6 26.8 77.5 29.2 L77.05 33.2 76.85 33.2 Q76.65 33.45 76.75 33.75 74.75 29.55 72.1 26.15 L72.0 26.0 Q70.75 23.7 67.45 21.35 L65.25 19.6 62.9 18.05 63.7 18.85 M72.2 17.4 Q71.55 14.65 64.15 10.75 55.3 6.0 47.3 8.1 45.1 8.75 44.55 9.75 44.1 10.3 44.35 11.0 44.55 11.75 45.65 11.65 47.3 11.4 49.0 12.4 L49.2 12.55 Q47.65 13.1 47.45 14.05 L47.75 15.5 Q48.1 16.75 50.3 17.7 53.2 19.05 56.5 18.05 57.85 17.7 57.95 16.85 L57.95 15.85 56.85 13.95 55.5 12.55 55.3 12.4 Q57.95 13.1 65.0 16.75 L71.3 20.15 Q72.45 19.8 72.45 18.6 L72.2 17.4 M44.55 40.6 Q44.0 38.6 39.25 34.95 34.15 30.75 31.95 31.45 L31.75 32.2 Q35.15 33.85 39.05 37.85 L44.45 43.6 Q44.8 41.7 44.55 40.6 M10.7 25.0 Q8.2 25.0 6.5 24.15 5.1 23.25 4.65 21.25 3.85 18.7 5.5 13.95 7.75 8.0 12.7 6.75 17.7 5.45 20.35 7.9 21.45 9.0 22.2 11.3 L23.2 11.55 Q23.45 11.0 23.35 10.2 L25.0 6.45 Q26.65 2.25 28.65 1.8 29.95 1.45 30.95 2.45 L31.5 3.55 Q32.15 5.65 31.6 8.0 31.2 9.85 29.85 12.85 L28.85 13.75 27.85 15.4 28.65 13.5 Q29.3 11.3 30.05 10.1 L29.5 8.0 Q27.85 9.1 25.55 13.75 L23.45 18.4 23.1 18.5 Q22.45 15.95 21.65 14.85 20.8 15.85 20.8 16.3 19.55 12.55 18.35 11.2 L19.0 11.3 19.7 11.2 19.7 10.2 Q19.0 7.9 15.25 8.3 11.05 8.9 9.5 12.85 9.6 13.2 10.15 13.1 11.15 12.95 12.5 11.95 13.7 11.0 15.15 10.55 L17.15 10.4 16.25 10.75 Q16.35 12.3 17.15 15.6 L17.8 19.95 15.35 18.7 Q13.5 17.5 11.5 18.05 8.5 18.85 7.5 20.5 6.95 21.5 7.2 22.15 7.5 23.9 9.6 24.9 L10.7 25.0 M26.4 5.55 Q25.55 6.9 25.3 8.65 25.45 9.0 25.85 8.9 L27.0 7.35 29.75 4.65 Q27.75 3.45 26.4 5.55 M13.05 25.45 L14.5 25.55 Q13.05 26.0 11.15 27.25 8.5 29.1 8.95 30.65 L9.3 31.65 10.6 31.75 10.95 31.65 Q9.15 32.45 8.6 34.55 L11.05 34.0 8.5 37.4 6.95 37.95 4.55 37.85 4.2 37.5 Q3.85 37.2 3.65 36.4 3.0 34.1 4.55 30.9 5.95 28.25 8.3 26.55 L10.85 26.45 12.5 25.7 13.05 25.45" fill="url(#gradient0)" fill-rule="evenodd" stroke="none"/>
      <path d="M80.85 32.65 Q79.6 33.3 78.5 34.0 79.95 29.2 79.15 26.9 78.5 24.05 77.75 22.15 76.4 19.15 74.65 16.75 73.75 15.05 72.45 13.75 62.35 2.9 43.8 7.9 37.05 9.65 29.95 15.85 L27.95 17.5 Q24.9 20.4 19.15 27.1 L18.9 26.9 Q21.45 22.5 25.55 18.05 L27.2 16.15 27.65 15.85 27.75 15.85 27.85 15.4 28.85 13.75 29.85 12.85 Q31.2 9.85 31.6 8.0 32.15 5.65 31.5 3.55 L30.95 2.45 Q29.95 1.45 28.65 1.8 26.65 2.25 25.0 6.45 L23.35 10.2 Q23.45 11.0 23.2 11.55 L22.2 11.3 Q21.45 9.0 20.35 7.9 17.7 5.45 12.7 6.75 7.75 8.0 5.5 13.95 3.85 18.7 4.65 21.25 5.1 23.25 6.5 24.15 8.2 25.0 10.7 25.0 L13.5 24.9 13.05 25.45 12.5 25.7 10.85 26.45 8.3 26.55 Q5.95 28.25 4.55 30.9 3.0 34.1 3.65 36.4 3.85 37.2 4.2 37.5 L4.55 37.85 6.95 37.95 8.5 37.4 11.05 34.0 14.5 29.9 14.6 30.45 14.5 30.55 13.15 32.0 Q6.4 40.6 3.55 49.0 0.2 58.2 2.2 65.4 L3.4 68.7 Q5.1 72.55 7.05 75.65 12.05 83.1 18.0 83.65 L21.8 83.1 Q22.2 82.95 24.3 81.95 L25.0 81.65 Q24.2 84.5 21.35 86.75 17.25 87.4 13.6 85.95 11.05 84.85 8.6 82.55 4.55 78.55 3.4 74.65 L2.65 72.55 Q1.65 71.0 1.65 70.45 -1.2 59.85 0.9 52.0 2.65 45.9 7.6 38.6 L6.2 39.2 Q4.85 39.6 3.85 38.4 L3.65 38.2 Q2.75 37.5 2.55 36.5 2.2 35.3 2.45 34.1 2.45 33.75 3.0 31.45 3.3 30.0 4.3 28.55 L5.5 27.1 6.85 26.25 Q3.75 24.9 2.3 19.4 1.45 16.05 4.1 12.2 6.4 8.55 10.6 6.0 14.7 3.35 18.0 3.9 21.1 4.25 22.55 7.1 23.2 5.55 24.55 3.45 25.45 2.45 27.95 0.9 30.95 -0.75 31.2 0.7 L31.95 2.0 32.75 3.25 Q33.4 5.8 32.95 8.2 32.6 9.85 31.5 12.3 37.7 7.35 44.25 5.55 60.7 1.15 71.55 10.2 78.4 15.85 80.05 22.6 L80.5 25.8 Q81.05 29.45 80.85 32.65 M75.4 36.2 L73.3 37.75 Q73.1 34.95 72.3 32.3 71.1 27.8 69.35 25.15 67.8 22.8 63.7 18.85 L62.9 18.05 65.25 19.6 67.45 21.35 Q70.75 23.7 72.0 26.0 L72.1 26.15 Q73.3 28.35 75.2 35.1 L75.4 36.2 M54.95 50.0 L52.5 51.0 Q51.1 45.05 48.2 40.4 44.0 33.65 36.4 28.65 L35.05 27.8 Q37.6 28.55 39.9 30.0 44.55 32.75 48.45 37.95 52.95 43.8 54.95 50.0 M28.75 70.6 L28.65 70.8 Q27.75 72.25 27.2 73.55 23.75 73.7 20.25 70.05 L18.8 68.15 Q15.25 63.5 14.35 60.1 14.05 58.75 14.15 55.75 L14.15 55.55 14.25 53.0 Q14.6 51.25 15.15 50.45 L15.35 50.55 Q15.15 51.1 15.05 53.75 L15.05 54.55 15.25 58.1 Q16.35 62.6 20.25 66.8 24.45 71.15 28.75 70.6" fill="#585c2c" fill-rule="evenodd" stroke="none"/>
      <path d="M78.5 34.0 L75.4 36.2 75.2 35.1 Q73.3 28.35 72.1 26.15 74.75 29.55 76.75 33.75 76.65 33.45 76.85 33.2 L77.05 33.2 77.5 29.2 Q77.6 26.8 76.5 23.05 75.4 18.4 74.65 16.75 76.4 19.15 77.75 22.15 78.5 24.05 79.15 26.9 79.95 29.2 78.5 34.0 M73.3 37.75 L72.3 38.6 71.75 39.5 Q68.45 41.85 64.35 46.8 L63.7 47.7 Q58.95 48.7 54.95 50.0 52.95 43.8 48.45 37.95 44.55 32.75 39.9 30.0 44.25 32.3 49.85 38.5 L55.4 44.7 Q57.95 47.45 58.85 47.15 63.25 45.9 66.9 41.95 70.9 37.4 69.65 33.0 69.1 31.1 66.35 26.15 L61.8 18.5 63.7 18.85 Q67.8 22.8 69.35 25.15 71.1 27.8 72.3 32.3 73.1 34.95 73.3 37.75 M52.5 51.0 Q41.0 55.2 35.6 61.5 33.95 63.75 32.95 65.95 30.85 67.05 28.75 70.6 24.45 71.15 20.25 66.8 16.35 62.6 15.25 58.1 L15.05 54.55 15.05 53.75 Q15.6 57.2 19.0 62.4 24.0 69.6 27.95 68.5 30.3 67.95 33.5 62.4 37.5 56.0 38.15 55.45 39.15 54.45 41.55 53.2 L45.65 51.35 Q50.3 48.7 49.2 44.25 48.3 41.4 44.35 36.75 40.25 32.1 35.5 28.65 L35.8 28.55 36.4 28.65 Q44.0 33.65 48.2 40.4 51.1 45.05 52.5 51.0 M27.2 73.55 Q26.0 76.0 25.55 78.45 25.55 80.2 25.0 81.65 L24.3 81.95 Q22.2 82.95 21.8 83.1 L18.0 83.65 Q18.9 82.85 19.9 82.1 24.65 78.2 23.9 74.9 L20.25 70.05 Q23.75 73.7 27.2 73.55" fill="#6c9a04" fill-rule="evenodd" stroke="none"/>
      <path d="M29.95 15.85 L32.05 15.3 36.15 14.2 Q37.95 14.2 41.35 15.3 38.8 15.95 33.05 18.4 26.1 21.35 25.55 22.6 L31.05 25.45 31.05 26.35 30.95 26.8 28.55 26.55 25.65 26.45 Q20.0 28.0 18.35 31.75 17.0 34.75 13.95 47.6 L13.4 45.35 Q13.15 42.7 14.25 37.4 L15.3 34.05 15.05 34.65 Q13.6 37.5 12.6 37.85 11.6 38.2 11.7 37.65 L13.05 34.2 14.25 31.2 Q14.7 31.1 14.5 30.55 L14.6 30.45 14.5 29.9 11.05 34.0 8.6 34.55 Q9.15 32.45 10.95 31.65 L10.6 31.75 9.3 31.65 8.95 30.65 Q8.5 29.1 11.15 27.25 13.05 26.0 14.5 25.55 L13.05 25.45 13.5 24.9 10.7 25.0 9.6 24.9 Q7.5 23.9 7.2 22.15 6.95 21.5 7.5 20.5 8.5 18.85 11.5 18.05 13.5 17.5 15.35 18.7 L17.8 19.95 17.15 15.6 Q16.35 12.3 16.25 10.75 L17.15 10.4 17.6 10.65 18.35 11.2 Q19.55 12.55 20.8 16.3 20.8 15.85 21.65 14.85 22.45 15.95 23.1 18.5 L23.45 18.4 25.55 13.75 Q27.85 9.1 29.5 8.0 L30.05 10.1 Q29.3 11.3 28.65 13.5 L27.85 15.4 27.75 15.85 27.65 15.85 27.2 16.15 25.55 18.05 Q21.45 22.5 18.9 26.9 L19.15 27.1 Q24.9 20.4 27.95 17.5 L29.95 15.85" fill="#e478a4" fill-rule="evenodd" stroke="none"/>
      <path d="M74.4 51.65 L74.0 52.35 71.75 56.1 Q71.2 55.75 71.3 56.75 L71.2 56.85 Q68.1 61.95 64.7 66.05 54.85 78.1 44.25 81.75 L43.9 81.75 43.7 81.95 Q40.15 81.95 37.7 80.65 34.85 79.2 33.95 75.9 33.05 72.45 33.85 69.25 34.7 65.95 37.95 62.3 L38.6 61.5 39.05 61.4 43.25 60.95 Q46.2 61.2 46.75 62.85 47.0 63.5 46.45 65.15 45.9 66.95 46.0 67.4 46.1 67.95 47.55 68.05 49.0 68.35 50.4 68.05 55.2 66.7 63.8 58.75 71.3 51.55 72.55 50.8 L72.75 50.7 73.65 50.45 74.1 50.9 74.4 51.65" fill="#c0d1a5" fill-rule="evenodd" stroke="none"/>
      <path d="M52.65 80.1 Q61.35 74.1 71.1 60.1 L72.0 58.95 73.75 62.75 Q75.75 66.8 76.4 69.15 77.75 73.9 78.5 77.9 L79.15 81.65 Q78.4 80.85 77.3 81.2 73.75 82.2 72.0 89.5 70.0 96.55 66.35 97.55 65.45 97.8 63.25 96.45 61.05 95.0 58.4 95.7 56.05 96.35 53.1 99.8 L50.3 103.45 49.85 103.2 Q44.8 101.1 44.25 99.2 43.9 98.35 44.65 90.8 L44.8 86.85 45.0 83.65 48.2 82.4 47.1 86.3 46.75 87.7 Q45.55 93.8 46.55 97.7 47.1 99.45 48.3 100.2 L50.95 100.35 Q53.75 99.65 54.95 94.25 56.3 89.05 55.05 84.05 L54.95 83.1 Q54.6 81.65 53.75 80.65 53.1 80.2 52.65 80.1 M70.35 79.75 L69.55 77.75 69.45 77.65 68.55 76.35 Q68.45 76.2 68.25 76.35 L66.9 76.45 Q64.45 77.1 63.35 81.85 L63.15 83.1 Q62.05 88.6 63.35 93.25 63.8 95.0 64.9 95.8 65.9 96.45 67.35 96.15 68.35 95.8 69.2 93.9 70.35 91.5 70.75 87.85 70.9 85.95 70.65 82.85 L70.35 80.1 70.35 79.75" fill="#dbad79" fill-rule="evenodd" stroke="none"/>
      <path d="M48.2 82.4 Q50.4 81.55 52.65 80.1 53.1 80.2 53.75 80.65 54.6 81.65 54.95 83.1 L55.05 84.05 Q56.3 89.05 54.95 94.25 53.75 99.65 50.95 100.35 L48.3 100.2 Q47.1 99.45 46.55 97.7 45.55 93.8 46.75 87.7 L47.1 86.3 48.2 82.4 M50.4 83.2 Q49.85 80.75 48.3 85.6 L48.2 85.95 Q46.9 90.7 47.3 92.7 47.55 93.25 48.1 93.15 49.2 92.9 49.85 88.15 L50.2 85.4 50.4 83.2 M70.35 79.75 L70.35 80.1 70.65 82.85 Q70.9 85.95 70.75 87.85 70.35 91.5 69.2 93.9 68.35 95.8 67.35 96.15 65.9 96.45 64.9 95.8 63.8 95.0 63.35 93.25 62.05 88.6 63.15 83.1 L63.35 81.85 Q64.45 77.1 66.9 76.45 L68.25 76.35 Q68.45 76.2 68.55 76.35 L69.45 77.65 69.55 77.75 70.35 79.75 M64.45 81.65 Q63.35 86.15 64.0 88.5 L64.35 89.15 Q64.8 89.7 65.25 89.6 66.35 89.4 66.45 87.3 L66.7 84.4 66.8 81.65 66.8 81.0 66.45 79.45 Q65.8 76.65 64.6 81.4 L64.45 81.65" fill="#000000" fill-rule="evenodd" stroke="none"/>
      <path d="M79.15 81.65 Q80.4 88.85 79.6 92.25 77.6 100.2 64.15 103.85 56.7 105.85 50.3 103.45 L53.1 99.8 Q56.05 96.35 58.4 95.7 61.05 95.0 63.25 96.45 65.45 97.8 66.35 97.55 70.0 96.55 72.0 89.5 73.75 82.2 77.3 81.2 78.4 80.85 79.15 81.65" fill="#f5e6ab" fill-rule="evenodd" stroke="none"/>
      <path d="M83.6 94.35 L83.5 99.35 83.4 102.85 82.25 110.5 82.25 111.15 82.15 111.15 82.25 111.6 Q82.05 113.15 81.6 113.8 L81.6 114.25 80.85 116.8 78.85 119.15 Q80.3 115.9 80.85 112.4 80.95 103.85 81.25 100.35 82.7 97.55 83.6 94.35" fill="#75bc42" fill-rule="evenodd" stroke="none"/>
      <path d="M77.4 125.3 L75.75 128.2 75.4 128.55 Q70.9 135.4 63.45 139.15 L52.85 141.9 Q40.7 141.8 32.85 136.15 L31.3 135.05 Q28.85 132.95 26.65 129.95 25.0 127.75 23.65 124.9 L22.5 125.15 Q21.95 120.4 22.85 115.4 L25.55 117.25 Q27.45 118.95 27.45 122.2 L27.25 123.95 27.25 124.15 27.0 124.2 27.15 124.45 27.4 124.75 Q31.05 129.95 36.8 133.4 L39.15 134.5 Q48.3 138.8 57.95 136.25 62.05 135.15 68.35 130.5 74.4 126.1 76.85 125.55 L77.4 125.3" fill="#648d25" fill-rule="evenodd" stroke="none"/>
      <path d="M28.6 99.8 L28.85 98.65 M22.5 125.15 Q21.95 120.4 22.85 115.4 L23.35 112.85 Q24.85 106.55 28.6 99.8" fill="none" stroke="#1b3a01" stroke-linecap="round" stroke-linejoin="round" stroke-width="2.0"/>
      <path d="M27.25 124.15 L27.15 124.45 27.4 124.75 M22.85 115.4 L25.55 117.25 M34.5 121.35 L33.65 120.9 M27.25 124.15 L27.25 123.95" fill="none" stroke="#1b3a01" stroke-linecap="round" stroke-linejoin="round" stroke-width="0.1"/>
    </g>
    <radialGradient cx="0" cy="0" gradientTransform="matrix(0.1357, -0.1079, -0.0688, -0.0866, 54.95, 59.5)" gradientUnits="userSpaceOnUse" id="gradient0" r="819.2" spreadMethod="pad">
      <stop offset="0.1450980392156863" stop-color="#a2d32f"/>
      <stop offset="0.48627450980392156" stop-color="#ffb8e0"/>
    </radialGradient>
    <g id="sprite4" transform="matrix(1.0, 0.0, 0.0, 1.0, 0.0, 0.0)">
      <use height="25.9" transform="matrix(1.0, 0.0, 0.0, 1.0, 0.0, 0.0)" width="38.45" xlink:href="#shape4"/>
    </g>
    <g id="shape4" transform="matrix(1.0, 0.0, 0.0, 1.0, 0.0, 0.0)">
      <path d="M32.2 0.0 L32.35 0.15 33.75 1.0 Q36.95 3.55 37.55 5.65 L37.95 7.0 Q38.85 10.95 38.2 14.4 L38.2 14.95 Q37.55 18.5 35.0 21.05 32.75 23.15 29.0 24.25 L28.55 24.35 28.15 24.55 27.25 24.45 Q26.7 24.7 26.25 25.0 L22.4 25.8 20.6 25.9 Q16.4 26.1 12.75 24.7 L11.1 23.95 9.25 22.85 Q8.1 22.1 7.0 21.15 L4.55 18.6 2.05 15.35 Q0.75 13.25 0.15 11.05 -0.05 10.4 0.05 9.3 L0.25 7.0 0.6 7.0 Q1.05 5.1 2.45 4.65 L4.35 4.55 5.0 4.65 7.45 4.35 Q8.95 3.55 12.25 2.7 L18.05 1.35 24.25 0.55 24.7 0.55 27.15 0.35 27.35 0.15 27.55 0.15 28.9 0.15 29.25 0.15 32.2 0.0 M31.0 2.8 L28.55 3.2 27.55 3.35 24.9 3.8 22.8 4.1 Q25.1 4.95 27.55 7.4 L28.25 8.1 Q31.9 11.75 32.75 15.15 L33.45 17.7 33.45 19.35 33.45 19.5 35.55 16.7 36.2 15.15 Q36.85 14.05 36.95 13.05 37.4 11.5 37.1 10.5 35.85 6.0 34.85 4.65 33.9 3.45 32.35 2.55 L31.0 2.8 M31.8 21.05 L32.2 20.7 32.2 20.6 32.0 20.15 Q31.9 19.9 32.1 18.7 L32.2 17.95 Q32.35 17.15 32.1 16.6 31.1 12.85 27.9 9.4 L27.55 9.0 Q25.2 6.2 22.15 4.75 L22.5 5.2 Q24.05 7.0 24.6 9.3 25.05 10.85 24.9 12.75 L24.6 14.7 24.5 15.35 24.25 16.25 24.15 16.4 Q23.8 17.4 21.7 20.25 L19.5 22.85 17.95 23.95 17.5 24.1 18.4 24.25 23.35 24.0 23.6 23.95 24.35 23.8 25.5 23.4 25.6 23.35 27.15 22.9 27.35 22.85 27.55 22.8 28.0 22.7 28.55 22.35 29.1 22.15 Q30.45 21.8 31.8 21.05 M18.6 13.75 L18.75 15.35 18.75 15.6 18.75 17.5 Q18.75 20.8 16.75 22.7 20.5 20.35 22.25 17.25 L22.95 16.25 23.3 15.35 23.5 14.85 Q24.35 12.05 23.7 9.4 22.8 6.2 20.7 4.55 L19.6 4.65 18.95 4.65 14.55 5.55 Q15.3 6.1 15.95 7.1 17.5 9.3 18.05 11.4 L18.6 13.75 M10.1 14.6 L11.55 13.05 Q12.55 11.75 13.0 9.85 L13.2 7.4 13.2 6.1 12.85 5.9 11.75 5.9 7.1 6.65 7.8 8.1 8.1 10.4 8.1 10.75 Q8.1 11.65 7.65 12.4 L7.35 13.85 6.15 15.35 4.7 16.15 4.9 16.5 6.1 16.6 Q7.8 16.2 9.1 15.35 L10.1 14.6 M13.95 8.65 L13.3 10.75 Q12.85 12.3 12.2 13.5 L10.75 15.05 10.45 15.35 Q9.0 16.75 6.9 17.4 L5.55 17.5 6.25 18.35 6.65 18.95 Q9.1 21.55 12.25 22.85 L13.65 23.35 13.75 23.45 15.05 22.85 Q16.8 21.75 17.6 19.25 18.3 17.0 18.05 15.35 L17.85 14.5 17.6 13.75 Q16.75 10.65 14.75 7.85 L14.2 7.3 13.95 8.65 M7.35 10.3 L7.25 9.3 6.55 7.3 5.35 6.75 4.35 6.65 2.8 6.3 2.8 6.55 3.0 8.1 3.25 9.95 Q3.8 10.95 6.9 12.3 L7.0 12.05 7.25 11.2 7.35 10.3 M1.7 9.95 Q2.8 12.85 4.0 15.05 5.0 14.95 5.8 14.3 L6.45 13.2 Q4.55 13.75 3.15 11.2 L2.25 8.85 Q1.9 9.3 1.7 9.95" fill="#89324d" fill-rule="evenodd" stroke="none"/>
      <path d="M31.0 2.8 L31.9 3.65 Q33.75 5.9 34.55 8.4 35.2 10.85 34.85 11.4 L34.1 12.4 28.9 7.1 27.55 5.85 24.9 3.8 27.55 3.35 28.55 3.2 31.0 2.8 M24.6 14.7 L24.9 12.75 Q25.05 10.85 24.6 9.3 24.05 7.0 22.5 5.2 23.6 5.55 25.7 7.55 L27.55 9.45 Q28.6 10.7 28.9 11.75 L27.55 13.25 27.25 13.5 26.05 14.7 25.35 14.6 24.6 14.7 M19.6 4.65 L20.6 5.9 Q22.05 8.0 22.4 9.4 22.6 10.3 21.5 11.85 20.4 13.4 19.6 13.75 L18.6 13.75 18.05 11.4 Q17.5 9.3 15.95 7.1 15.3 6.1 14.55 5.55 L18.95 4.65 19.6 4.65 M11.75 5.9 L11.55 8.4 Q11.2 11.4 10.3 12.3 L8.1 10.75 8.1 10.4 7.8 8.1 7.1 6.65 11.75 5.9 M12.2 13.5 Q12.85 12.3 13.3 10.75 L13.95 8.65 14.75 10.1 16.4 13.75 16.3 13.85 13.95 13.85 12.2 13.5 M3.0 8.1 L2.8 6.55 2.8 6.3 4.35 6.65 5.35 6.75 6.55 7.3 7.25 9.3 7.35 10.3 Q5.8 9.3 3.0 8.1" fill="#febae9" fill-rule="evenodd" stroke="none"/>
      <path d="M24.9 3.8 L27.55 5.85 28.9 7.1 34.1 12.4 34.85 11.4 Q35.2 10.85 34.55 8.4 33.75 5.9 31.9 3.65 L31.0 2.8 32.35 2.55 Q33.9 3.45 34.85 4.65 35.85 6.0 37.1 10.5 37.4 11.5 36.95 13.05 36.85 14.05 36.2 15.15 L36.0 14.95 Q35.65 14.3 34.45 14.5 L33.2 14.95 33.55 16.5 Q33.9 18.15 33.45 19.35 L33.45 17.7 32.75 15.15 Q31.9 11.75 28.25 8.1 L27.55 7.4 Q25.1 4.95 22.8 4.1 L24.9 3.8 M22.5 5.2 L22.15 4.75 Q25.2 6.2 27.55 9.0 L27.9 9.4 Q31.1 12.85 32.1 16.6 32.35 17.15 32.2 17.95 L32.1 18.7 Q31.9 19.9 32.0 20.15 L32.2 20.6 32.2 20.7 31.8 21.05 Q32.1 19.5 31.8 17.6 L31.1 14.85 30.0 15.05 27.55 16.65 25.5 18.05 Q23.95 19.15 23.25 19.9 L20.15 22.85 18.8 23.95 18.4 24.25 17.5 24.1 17.95 23.95 19.5 22.85 21.7 20.25 Q23.8 17.4 24.15 16.4 L24.25 16.25 24.5 15.35 24.6 14.7 25.35 14.6 26.05 14.7 27.25 13.5 27.55 13.25 28.9 11.75 Q28.6 10.7 27.55 9.45 L25.7 7.55 Q23.6 5.55 22.5 5.2 M18.6 13.75 L19.6 13.75 Q20.4 13.4 21.5 11.85 22.6 10.3 22.4 9.4 22.05 8.0 20.6 5.9 L19.6 4.65 20.7 4.55 Q22.8 6.2 23.7 9.4 24.35 12.05 23.5 14.85 L23.3 15.35 22.95 16.25 22.25 17.25 22.25 15.7 22.05 15.35 21.15 15.15 19.35 15.35 18.75 15.6 18.75 15.35 18.6 13.75 M11.75 5.9 L12.85 5.9 13.2 6.1 13.2 7.4 13.0 9.85 Q12.55 11.75 11.55 13.05 L10.1 14.6 9.1 14.15 7.35 13.85 7.65 12.4 Q8.1 11.65 8.1 10.75 L10.3 12.3 Q11.2 11.4 11.55 8.4 L11.75 5.9 M13.95 8.65 L14.2 7.3 14.75 7.85 Q16.75 10.65 17.6 13.75 L17.85 14.5 18.05 15.35 Q18.3 17.0 17.6 19.25 16.8 21.75 15.05 22.85 L13.75 23.45 13.65 23.35 14.0 22.85 15.65 19.8 Q16.65 17.95 16.4 17.25 16.3 16.6 14.2 15.7 L13.35 15.35 11.85 14.95 11.3 15.35 9.35 16.6 6.25 18.35 5.55 17.5 6.9 17.4 Q9.0 16.75 10.45 15.35 L10.75 15.05 12.2 13.5 13.95 13.85 16.3 13.85 16.4 13.75 14.75 10.1 13.95 8.65 M7.35 10.3 L7.25 11.2 7.0 12.05 6.9 12.3 Q3.8 10.95 3.25 9.95 L3.0 8.1 Q5.8 9.3 7.35 10.3 M1.7 9.95 Q1.9 9.3 2.25 8.85 L3.15 11.2 Q4.55 13.75 6.45 13.2 L5.8 14.3 Q5.0 14.95 4.0 15.05 2.8 12.85 1.7 9.95" fill="#d6679a" fill-rule="evenodd" stroke="none"/>
      <path d="M33.45 19.35 Q33.9 18.15 33.55 16.5 L33.2 14.95 34.45 14.5 Q35.65 14.3 36.0 14.95 L36.2 15.15 35.55 16.7 33.45 19.5 33.45 19.35 M31.8 21.05 Q30.45 21.8 29.1 22.15 L28.55 22.35 28.0 22.7 27.55 22.8 27.35 22.85 27.15 22.9 25.6 23.35 25.5 23.4 24.35 23.8 23.6 23.95 23.35 24.0 18.4 24.25 18.8 23.95 20.15 22.85 23.25 19.9 Q23.95 19.15 25.5 18.05 L27.55 16.65 30.0 15.05 31.1 14.85 31.8 17.6 Q32.1 19.5 31.8 21.05 M18.75 15.6 L19.35 15.35 21.15 15.15 22.05 15.35 22.25 15.7 22.25 17.25 Q20.5 20.35 16.75 22.7 18.75 20.8 18.75 17.5 L18.75 15.6 M7.35 13.85 L9.1 14.15 10.1 14.6 9.1 15.35 Q7.8 16.2 6.1 16.6 L4.9 16.5 4.7 16.15 6.15 15.35 7.35 13.85 M13.65 23.35 L12.25 22.85 Q9.1 21.55 6.65 18.95 L6.25 18.35 9.35 16.6 11.3 15.35 11.85 14.95 13.35 15.35 14.2 15.7 Q16.3 16.6 16.4 17.25 16.65 17.95 15.65 19.8 L14.0 22.85 13.65 23.35" fill="#c8a6b4" fill-rule="evenodd" stroke="none"/>
    </g>
  </defs>
</svg>
