<?xml version="1.0" encoding="UTF-8" standalone="no"?>
<svg xmlns:xlink="http://www.w3.org/1999/xlink" height="320.9px" width="219.1px" xmlns="http://www.w3.org/2000/svg">
  <g transform="matrix(1.0, 0.0, 0.0, 1.0, 107.3, 142.45)">
    <use height="90.8" transform="matrix(1.0, 0.0, 0.0, 1.0, 17.0, 21.05)" width="66.65" xlink:href="#sprite0"/>
    <use height="72.75" transform="matrix(1.0, 0.0, 0.0, 1.0, -46.65, 105.7)" width="61.6" xlink:href="#sprite1"/>
    <use height="42.1" transform="matrix(1.0, 0.0, 0.0, 1.0, 11.9, 102.35)" width="67.7" xlink:href="#sprite2"/>
    <use height="123.4" transform="matrix(1.0, 0.0, 0.0, 1.0, -28.1, 8.0)" width="73.0" xlink:href="#sprite3"/>
    <use height="55.55" transform="matrix(1.0, 0.0, 0.0, 1.0, -39.7, -0.35)" width="91.4" xlink:href="#sprite4"/>
    <use height="175.8" transform="matrix(1.0, 0.0, 0.0, 1.0, -107.3, -142.45)" width="219.1" xlink:href="#sprite5"/>
    <use height="107.6" transform="matrix(1.0, 0.0, 0.0, 1.0, -90.55, 29.35)" width="77.8" xlink:href="#sprite6"/>
  </g>
  <defs>
    <g id="sprite0" transform="matrix(1.0, 0.0, 0.0, 1.0, 0.5, 0.5)">
      <use height="90.8" transform="matrix(1.0, 0.0, 0.0, 1.0, -0.5, -0.5)" width="66.65" xlink:href="#shape0"/>
    </g>
    <g id="shape0" transform="matrix(1.0, 0.0, 0.0, 1.0, 0.5, 0.5)">
      <path d="M8.9 13.05 L8.9 12.85 Q8.9 7.5 10.75 4.15 13.05 0.0 17.85 0.0 23.25 0.0 27.5 5.35 31.5 10.55 30.1 15.25 L31.2 14.15 32.4 13.15 Q34.25 11.95 35.1 11.95 35.55 11.95 36.1 12.4 L37.15 13.7 Q38.6 15.65 38.6 18.4 38.6 20.1 38.25 20.8 L39.35 18.95 Q41.5 15.65 44.45 15.65 45.95 15.65 47.95 17.5 49.75 19.15 50.45 21.55 50.85 22.85 50.85 24.6 50.85 27.2 49.65 28.15 L53.35 27.5 53.45 27.5 Q61.85 27.5 61.85 34.9 61.85 37.95 60.4 39.45 L58.7 40.9 60.3 40.75 Q62.25 40.75 63.45 42.75 64.0 43.15 64.25 44.15 65.3 46.55 65.3 49.15 65.3 53.4 61.5 55.75 59.55 56.85 57.9 57.2 62.7 60.2 64.25 62.3 65.65 64.25 65.65 68.15 65.65 71.3 60.85 71.85 63.45 73.35 63.45 76.75 63.45 80.0 57.8 80.0 L55.95 79.65 Q57.05 80.2 57.05 83.35 57.05 86.5 54.0 88.25 51.6 89.45 48.6 89.45 44.8 89.45 42.4 87.8 L40.1 85.3 36.4 80.85 40.1 85.3 40.0 87.95 Q38.7 88.7 37.05 88.7 34.45 88.7 33.05 86.75 32.3 88.6 31.65 89.0 30.75 89.8 28.7 89.8 L28.15 89.8 Q26.65 89.65 25.1 88.9 23.05 87.8 21.5 85.55 L21.4 85.0 Q20.75 84.15 20.0 82.05 L21.2 82.05 22.95 82.05 Q26.85 81.65 27.4 79.65 L28.25 80.45 29.55 81.3 Q30.55 81.85 31.65 81.85 33.8 81.85 34.9 78.9 L35.95 80.45 Q36.3 80.55 36.4 80.85 38.45 82.05 40.0 82.05 41.4 82.05 42.6 81.5 44.0 80.85 44.1 79.65 L46.3 79.65 Q50.3 79.15 50.3 76.1 50.3 74.15 49.55 72.85 L51.95 71.95 Q54.55 70.75 54.55 67.2 54.55 63.35 52.4 61.0 L51.2 60.2 50.45 59.7 50.3 59.7 46.4 60.2 Q47.8 59.7 48.9 58.6 L49.65 57.95 Q52.4 55.0 52.4 52.05 52.4 49.35 49.55 48.4 L49.35 48.6 49.0 48.25 Q49.35 48.25 49.55 48.4 54.25 44.45 54.25 38.4 54.25 33.9 51.6 32.85 L50.0 32.6 Q49.0 32.6 45.95 33.9 L44.8 34.6 45.1 30.9 Q45.1 26.0 43.45 24.25 42.4 23.05 40.1 23.05 38.9 23.05 37.5 24.25 L36.85 24.7 36.65 25.25 35.2 26.3 36.65 24.25 35.85 23.7 35.1 23.15 32.7 22.75 Q31.4 22.75 29.35 23.8 L28.7 24.25 28.7 23.05 28.5 22.3 Q27.05 16.85 23.35 12.85 19.35 8.3 14.8 8.3 11.2 8.3 8.9 13.05 M37.5 22.4 Q37.7 22.75 36.65 24.25 37.7 22.75 37.5 22.4 L38.25 20.8 37.5 22.4 M44.0 21.2 Q44.0 22.75 46.6 25.35 47.7 24.9 47.7 24.45 47.7 23.7 46.75 22.3 45.65 20.55 44.25 20.55 L44.0 21.2 M54.75 32.6 Q54.75 33.7 55.3 36.3 L55.3 36.55 55.95 36.75 Q57.05 36.75 57.15 35.55 L57.15 33.9 Q57.15 32.1 55.95 31.2 54.75 30.45 54.75 32.6 M41.1 60.45 L43.35 60.45 46.4 60.2 Q45.2 60.85 43.45 61.3 42.3 61.5 41.1 60.45 M57.05 57.4 L57.05 57.85 51.95 59.15 Q51.2 59.35 50.45 59.7 51.2 59.35 51.95 59.15 L57.05 57.85 57.05 57.4 57.9 57.2 57.05 57.4 M47.95 28.4 L49.65 28.15 47.95 28.4 M59.25 45.25 Q57.8 44.9 57.8 46.3 57.8 46.85 58.7 48.9 L57.5 51.0 56.3 53.05 56.3 53.5 Q56.4 53.9 56.85 53.9 59.0 53.9 60.0 50.55 L60.55 47.05 Q60.55 45.55 59.25 45.25 M56.6 41.85 L58.7 40.9 56.6 41.85 M23.05 6.85 Q19.55 3.5 17.4 4.25 L17.15 5.0 Q17.15 5.25 21.1 6.85 24.9 9.15 24.9 12.75 24.8 13.05 25.55 13.05 26.3 13.05 26.4 12.4 L26.4 11.65 Q26.4 10.0 23.05 6.85 M59.35 64.55 Q59.35 65.0 58.45 66.1 57.5 67.2 57.5 67.95 57.9 68.35 58.25 68.35 59.55 68.35 60.3 66.75 L60.85 64.7 Q60.85 62.3 58.25 61.3 57.5 61.65 57.5 62.05 57.5 62.6 58.45 63.15 59.35 63.8 59.35 64.55 M56.3 73.35 Q56.6 73.5 56.6 73.8 L55.65 75.75 Q55.55 76.1 56.3 76.1 57.7 76.1 57.9 74.9 L58.15 73.7 Q58.15 71.65 56.3 72.3 L55.95 72.85 Q55.95 73.35 56.3 73.35 M52.7 80.2 L50.85 80.2 Q50.75 80.75 51.1 81.65 L48.25 83.5 48.25 84.25 48.9 84.45 Q52.95 83.8 52.95 81.2 L52.7 80.2" fill="#febae9" fill-rule="evenodd" stroke="none"/>
      <path d="M54.75 32.6 Q54.75 30.45 55.95 31.2 57.15 32.1 57.15 33.9 L57.15 35.55 Q57.05 36.75 55.95 36.75 L55.3 36.55 55.3 36.3 Q54.75 33.7 54.75 32.6 M44.0 21.2 L44.25 20.55 Q45.65 20.55 46.75 22.3 47.7 23.7 47.7 24.45 47.7 24.9 46.6 25.35 44.0 22.75 44.0 21.2 M59.25 45.25 Q60.55 45.55 60.55 47.05 L60.0 50.55 Q59.0 53.9 56.85 53.9 56.4 53.9 56.3 53.5 L56.3 53.05 57.5 51.0 58.7 48.9 Q57.8 46.85 57.8 46.3 57.8 44.9 59.25 45.25 M23.05 6.85 Q26.4 10.0 26.4 11.65 L26.4 12.4 Q26.3 13.05 25.55 13.05 24.8 13.05 24.9 12.75 24.9 9.15 21.1 6.85 17.15 5.25 17.15 5.0 L17.4 4.25 Q19.55 3.5 23.05 6.85 M52.7 80.2 L52.95 81.2 Q52.95 83.8 48.9 84.45 L48.25 84.25 48.25 83.5 51.1 81.65 Q50.75 80.75 50.85 80.2 L52.7 80.2 M56.3 73.35 Q55.95 73.35 55.95 72.85 L56.3 72.3 Q58.15 71.65 58.15 73.7 L57.9 74.9 Q57.7 76.1 56.3 76.1 55.55 76.1 55.65 75.75 L56.6 73.8 Q56.6 73.5 56.3 73.35 M59.35 64.55 Q59.35 63.8 58.45 63.15 57.5 62.6 57.5 62.05 57.5 61.65 58.25 61.3 60.85 62.3 60.85 64.7 L60.3 66.75 Q59.55 68.35 58.25 68.35 57.9 68.35 57.5 67.95 57.5 67.2 58.45 66.1 59.35 65.0 59.35 64.55" fill="#eed8e1" fill-rule="evenodd" stroke="none"/>
      <path d="M20.0 82.05 L19.55 81.0 18.5 77.5 17.7 77.8 15.35 78.25 15.2 78.25 Q12.2 78.25 10.0 74.65 8.25 71.85 8.25 68.9 L8.5 66.3 9.55 64.25 10.1 63.15 3.25 56.75 Q0.0 53.4 0.0 48.7 0.0 46.1 1.55 43.8 3.05 41.65 4.9 41.55 2.2 37.4 2.2 32.6 2.2 28.15 4.15 24.9 6.3 21.3 10.45 20.0 8.9 16.1 8.9 13.05 11.2 8.3 14.8 8.3 19.35 8.3 23.35 12.85 27.05 16.85 28.5 22.3 L28.7 23.05 28.7 24.25 29.35 23.8 Q31.4 22.75 32.7 22.75 L35.1 23.15 35.85 23.7 36.65 24.25 35.2 26.3 36.65 25.25 36.85 24.7 37.5 24.25 Q38.9 23.05 40.1 23.05 42.4 23.05 43.45 24.25 45.1 26.0 45.1 30.9 L44.8 34.6 45.95 33.9 Q49.0 32.6 50.0 32.6 L51.6 32.85 Q54.25 33.9 54.25 38.4 54.25 44.45 49.55 48.4 49.35 48.25 49.0 48.25 L49.35 48.6 49.55 48.4 Q52.4 49.35 52.4 52.05 52.4 55.0 49.65 57.95 L48.9 58.6 Q47.8 59.7 46.4 60.2 L43.35 60.45 41.1 60.45 Q40.85 60.2 40.75 60.45 36.3 60.0 33.35 58.6 L33.05 58.35 Q30.55 57.05 27.8 53.7 L27.4 53.15 26.4 52.05 Q23.5 46.85 23.25 41.95 L23.25 40.75 Q23.25 38.25 24.0 37.1 L24.45 37.1 Q27.15 36.55 30.0 33.05 L34.0 27.85 35.2 26.3 34.0 27.85 30.0 33.05 Q27.15 36.55 24.45 37.1 L24.0 37.1 Q23.25 38.25 23.25 40.75 L23.25 41.95 Q23.5 46.85 26.4 52.05 L27.4 53.15 27.8 53.7 Q30.55 57.05 33.05 58.35 L33.35 58.6 Q36.3 60.0 40.75 60.45 40.85 60.2 41.1 60.45 42.3 61.5 43.45 61.3 45.2 60.85 46.4 60.2 L50.3 59.7 50.45 59.7 51.2 60.2 52.4 61.0 Q54.55 63.35 54.55 67.2 54.55 70.75 51.95 71.95 L49.55 72.85 Q50.3 74.15 50.3 76.1 50.3 79.15 46.3 79.65 L44.1 79.65 Q44.0 80.85 42.6 81.5 41.4 82.05 40.0 82.05 38.45 82.05 36.4 80.85 36.3 80.55 35.95 80.45 L34.9 78.9 32.6 76.0 Q30.1 72.6 28.25 69.45 25.85 65.35 24.8 62.05 24.0 59.7 24.0 57.85 24.0 55.0 24.45 54.15 L24.8 53.7 24.45 54.15 Q24.0 55.0 24.0 57.85 24.0 59.7 24.8 62.05 25.85 65.35 28.25 69.45 30.1 72.6 32.6 76.0 L34.9 78.9 Q33.8 81.85 31.65 81.85 30.55 81.85 29.55 81.3 L28.25 80.45 27.4 79.65 Q26.85 81.65 22.95 82.05 L21.2 82.05 20.0 82.05 M11.1 24.25 Q11.5 22.6 10.45 20.0 11.5 22.6 11.1 24.25 11.1 25.0 10.45 25.65 L12.6 30.55 Q14.0 34.9 14.25 39.05 15.35 49.05 18.15 52.6 19.25 53.8 20.45 54.45 L21.85 54.55 Q22.95 54.55 24.8 53.7 L26.4 52.05 24.8 53.7 Q22.95 54.55 21.85 54.55 L20.45 54.45 Q19.25 53.8 18.15 52.6 15.35 49.05 14.25 39.05 14.0 34.9 12.6 30.55 L10.45 25.65 Q11.1 25.0 11.1 24.25 M6.85 43.8 L5.35 42.05 4.9 41.55 5.35 42.05 6.85 43.8 17.05 53.5 18.15 52.6 17.05 53.5 6.85 43.8 M17.05 53.5 Q14.9 55.2 12.7 58.7 L10.1 63.15 12.7 58.7 Q14.9 55.2 17.05 53.5" fill="#d6679a" fill-rule="evenodd" stroke="none"/>
      <path d="M8.9 13.05 L8.9 12.85 Q8.9 7.5 10.75 4.15 13.05 0.0 17.85 0.0 23.25 0.0 27.5 5.35 31.5 10.55 30.1 15.25 L31.2 14.15 32.4 13.15 Q34.25 11.95 35.1 11.95 35.55 11.95 36.1 12.4 L37.15 13.7 Q38.6 15.65 38.6 18.4 38.6 20.1 38.25 20.8 L39.35 18.95 Q41.5 15.65 44.45 15.65 45.95 15.65 47.95 17.5 49.75 19.15 50.45 21.55 50.85 22.85 50.85 24.6 50.85 27.2 49.65 28.15 L53.35 27.5 53.45 27.5 Q61.85 27.5 61.85 34.9 61.85 37.95 60.4 39.45 L58.7 40.9 60.3 40.75 Q62.25 40.75 63.45 42.75 64.0 43.15 64.25 44.15 65.3 46.55 65.3 49.15 65.3 53.4 61.5 55.75 59.55 56.85 57.9 57.2 62.7 60.2 64.25 62.3 65.65 64.25 65.65 68.15 65.65 71.3 60.85 71.85 63.45 73.35 63.45 76.75 63.45 80.0 57.8 80.0 L55.95 79.65 Q57.05 80.2 57.05 83.35 57.05 86.5 54.0 88.25 51.6 89.45 48.6 89.45 44.8 89.45 42.4 87.8 L41.1 86.4 Q41.1 87.4 40.0 87.95 38.7 88.7 37.05 88.7 34.45 88.7 33.05 86.75 32.3 88.6 31.65 89.0 30.75 89.8 28.7 89.8 L28.15 89.8 Q26.65 89.65 25.1 88.9 23.05 87.8 21.5 85.55 L21.4 85.0 Q20.75 84.15 20.0 82.05 L19.55 81.0 18.5 77.5 17.7 77.8 15.35 78.25 15.2 78.25 Q12.2 78.25 10.0 74.65 8.25 71.85 8.25 68.9 L8.5 66.3 9.55 64.25 M10.1 63.15 L3.25 56.75 Q0.0 53.4 0.0 48.7 0.0 46.1 1.55 43.8 3.05 41.65 4.9 41.55 2.2 37.4 2.2 32.6 2.2 28.15 4.15 24.9 6.3 21.3 10.45 20.0 8.9 16.1 8.9 13.05 M37.5 22.4 L38.25 20.8 M57.05 57.4 L57.9 57.2 M49.65 28.15 L47.95 28.4 M58.7 40.9 L56.6 41.85 M10.45 20.0 Q11.5 22.6 11.1 24.25 M4.9 41.55 L5.35 42.05 6.85 43.8 M40.1 85.3 L41.1 86.4" fill="none" stroke="#b42c63" stroke-linecap="round" stroke-linejoin="round" stroke-width="1.0"/>
      <path d="M9.55 64.25 L10.1 63.15 12.7 58.7 Q14.9 55.2 17.05 53.5 L18.15 52.6 Q19.25 53.8 20.45 54.45 L21.85 54.55 Q22.95 54.55 24.8 53.7 L26.4 52.05 27.4 53.15 27.8 53.7 Q30.55 57.05 33.05 58.35 L33.35 58.6 Q36.3 60.0 40.75 60.45 40.85 60.2 41.1 60.45 L43.35 60.45 46.4 60.2 50.3 59.7 50.45 59.7 Q51.2 59.35 51.95 59.15 L57.05 57.85 57.05 57.4 M36.65 24.25 Q37.7 22.75 37.5 22.4 M35.2 26.3 L34.0 27.85 30.0 33.05 Q27.15 36.55 24.45 37.1 L24.0 37.1 Q23.25 38.25 23.25 40.75 L23.25 41.95 Q23.5 46.85 26.4 52.05 M11.1 24.25 Q11.1 25.0 10.45 25.65 L12.6 30.55 Q14.0 34.9 14.25 39.05 15.35 49.05 18.15 52.6 M6.85 43.8 L17.05 53.5 M35.2 26.3 L36.65 24.25 M24.8 53.7 L24.45 54.15 Q24.0 55.0 24.0 57.85 24.0 59.7 24.8 62.05 25.85 65.35 28.25 69.45 30.1 72.6 32.6 76.0 L34.9 78.9 M36.4 80.85 L40.1 85.3 42.4 87.8" fill="none" stroke="#b42c63" stroke-linecap="round" stroke-linejoin="round" stroke-width="0.5"/>
    </g>
    <g id="sprite1" transform="matrix(1.0, 0.0, 0.0, 1.0, 0.5, 0.5)">
      <use height="72.75" transform="matrix(1.0, 0.0, 0.0, 1.0, -0.5, -0.5)" width="61.6" xlink:href="#shape1"/>
    </g>
    <g id="shape1" transform="matrix(1.0, 0.0, 0.0, 1.0, 0.5, 0.5)">
      <path d="M54.85 12.1 L53.35 12.2 Q54.1 14.8 55.05 20.9 56.25 28.7 56.25 32.85 L56.25 33.15 56.05 35.55 54.55 34.05 Q52.35 32.2 49.75 31.4 L50.7 28.5 50.7 26.1 Q50.4 25.45 49.65 25.0 48.9 24.45 47.45 24.45 47.05 24.45 46.6 25.0 L45.85 25.9 Q44.75 27.4 43.35 31.0 L42.35 31.1 Q34.55 32.4 29.95 39.9 L29.55 39.55 Q30.75 34.8 33.0 29.05 34.85 24.45 38.75 17.4 L38.9 17.2 40.4 15.0 41.15 13.95 41.5 13.6 42.55 12.4 44.2 10.35 42.55 12.4 41.5 13.6 41.15 13.95 40.4 15.0 38.9 17.2 38.75 17.4 Q34.85 24.45 33.0 29.05 30.75 34.8 29.55 39.55 29.2 40.55 29.0 41.75 L28.55 44.25 27.7 49.05 26.6 56.55 Q25.3 53.15 25.1 50.65 24.55 46.85 24.55 39.05 L24.55 37.95 24.55 36.95 24.55 36.65 24.55 36.1 24.75 27.95 25.3 22.4 25.6 20.55 26.05 18.05 Q27.15 14.05 28.75 10.9 L30.6 7.3 31.95 5.15 30.6 7.3 28.75 10.9 Q27.15 14.05 26.05 18.05 L25.6 20.55 25.3 22.4 24.75 27.95 24.55 36.1 Q24.45 31.85 23.45 29.15 23.0 27.4 22.25 26.1 21.05 23.95 19.65 23.15 19.2 22.85 18.55 22.85 L17.9 22.75 Q14.2 22.75 11.5 27.75 9.0 32.4 9.0 37.75 9.0 40.25 9.65 42.85 L10.4 45.0 Q11.5 47.95 13.35 51.1 16.4 56.55 19.75 60.35 15.3 58.7 11.6 55.55 L10.1 54.25 9.2 53.25 8.8 52.85 7.5 51.4 6.7 50.65 5.95 46.95 Q5.3 43.6 5.3 39.55 5.3 32.85 6.95 25.9 8.9 16.65 11.5 12.75 L12.7 11.3 Q23.45 0.35 28.45 0.0 29.3 0.55 30.75 2.4 L31.4 3.5 31.95 4.35 31.95 5.15 32.35 5.35 36.7 8.05 38.1 8.8 Q41.05 10.25 44.0 10.25 L44.2 10.35 44.4 10.25 44.85 10.25 47.45 9.9 51.4 10.55 Q52.25 10.65 52.9 11.0 54.0 11.3 54.4 11.65 L54.85 12.1" fill="#9bb461" fill-rule="evenodd" stroke="none"/>
      <path d="M56.05 35.55 L56.25 33.15 56.25 32.85 Q56.25 28.7 55.05 20.9 54.1 14.8 53.35 12.2 L54.85 12.1 58.85 21.85 Q60.6 27.3 60.6 35.55 L60.4 38.7 Q60.3 41.1 59.55 43.5 59.2 38.8 56.05 35.55 55.85 43.15 52.9 48.8 L50.6 52.4 49.0 54.05 Q45.3 58.15 39.95 60.0 L40.75 58.8 40.85 57.7 41.05 55.85 41.15 52.85 37.7 57.95 33.65 61.65 31.5 62.95 Q28.9 64.45 26.3 64.8 L24.55 65.0 Q19.75 65.0 16.05 61.1 L11.6 55.55 Q15.3 58.7 19.75 60.35 16.4 56.55 13.35 51.1 11.5 47.95 10.4 45.0 L9.65 42.85 Q9.0 40.25 9.0 37.75 9.0 32.4 11.5 27.75 14.2 22.75 17.9 22.75 L18.55 22.85 Q19.2 22.85 19.65 23.15 21.05 23.95 22.25 26.1 23.0 27.4 23.45 29.15 24.45 31.85 24.55 36.1 L24.55 36.65 24.55 36.95 24.55 37.95 24.55 39.05 Q24.55 46.85 25.1 50.65 25.3 53.15 26.6 56.55 L27.7 49.05 28.55 44.25 29.0 41.75 Q29.2 40.55 29.55 39.55 L29.95 39.9 Q34.55 32.4 42.35 31.1 L43.35 31.0 Q44.75 27.4 45.85 25.9 L46.6 25.0 Q47.05 24.45 47.45 24.45 48.9 24.45 49.65 25.0 50.4 25.45 50.7 26.1 L50.7 28.5 49.75 31.4 Q52.35 32.2 54.55 34.05 L56.05 35.55 M44.4 10.25 L44.2 10.35 44.0 10.25 44.4 10.25 M49.75 31.4 L48.75 31.1 46.9 31.0 45.85 30.9 43.35 31.0 41.4 36.65 Q37.8 47.3 34.1 53.15 L32.35 55.55 33.0 55.35 34.85 54.05 Q40.1 50.35 44.4 43.25 46.4 40.0 47.8 36.95 L49.3 33.15 49.75 31.4 M31.95 4.35 L32.25 4.8 31.95 5.15 31.95 4.35" fill="#bcd577" fill-rule="evenodd" stroke="none"/>
      <path d="M49.75 31.4 L49.3 33.15 47.8 36.95 Q46.4 40.0 44.4 43.25 40.1 50.35 34.85 54.05 L33.0 55.35 32.35 55.55 34.1 53.15 Q37.8 47.3 41.4 36.65 L43.35 31.0 45.85 30.9 46.9 31.0 48.75 31.1 49.75 31.4" fill="#ffffff" fill-rule="evenodd" stroke="none"/>
      <path d="M56.05 35.55 Q59.2 38.8 59.55 43.5 L58.1 47.4 Q56.6 51.3 53.65 54.45 L51.4 56.85 49.2 58.7 Q46.05 61.0 41.6 63.25 L35.95 65.75 35.5 65.0 36.05 64.35 39.55 60.55 39.95 60.0 39.55 60.55 36.05 64.35 35.5 65.0 33.45 66.65 Q33.35 66.65 33.0 66.95 L29.2 69.0 Q23.25 71.75 20.1 71.75 18.8 71.75 17.45 70.55 16.4 69.25 15.5 67.15 13.35 61.3 9.2 59.15 L8.15 58.5 Q3.8 55.85 1.95 51.1 L1.5 49.9 Q0.3 45.9 0.0 38.8 L0.0 35.55 Q0.0 24.7 11.5 12.75 8.9 16.65 6.95 25.9 5.3 32.85 5.3 39.55 5.3 43.6 5.95 46.95 L6.7 50.65 7.5 51.4 8.8 52.85 9.2 53.25 10.1 54.25 11.6 55.55 16.05 61.1 Q19.75 65.0 24.55 65.0 L26.3 64.8 Q28.9 64.45 31.5 62.95 L33.65 61.65 37.7 57.95 41.15 52.85 41.05 55.85 40.85 57.7 40.75 58.8 39.95 60.0 Q45.3 58.15 49.0 54.05 L50.6 52.4 52.9 48.8 Q55.85 43.15 56.05 35.55" fill="#d7f2ab" fill-rule="evenodd" stroke="none"/>
      <path d="M59.55 43.5 Q60.3 41.1 60.4 38.7 L60.6 35.55 Q60.6 27.3 58.85 21.85 L54.85 12.1 54.4 11.65 M35.95 65.75 L41.6 63.25 Q46.05 61.0 49.2 58.7 L51.4 56.85 53.65 54.45 Q56.6 51.3 58.1 47.4 L59.55 43.5 M11.5 12.75 L12.7 11.3 Q23.45 0.35 28.45 0.0 M33.45 66.65 Q33.35 66.65 33.0 66.95 L29.2 69.0 Q23.25 71.75 20.1 71.75 18.8 71.75 17.45 70.55 16.4 69.25 15.5 67.15 13.35 61.3 9.2 59.15 L8.15 58.5 Q3.8 55.85 1.95 51.1 L1.5 49.9 Q0.3 45.9 0.0 38.8 L0.0 35.55 Q0.0 24.7 11.5 12.75 M35.95 65.75 L33.45 66.65 35.5 65.0" fill="none" stroke="#1b3a01" stroke-linecap="round" stroke-linejoin="round" stroke-width="1.0"/>
      <path d="M44.4 10.25 L44.2 10.35 42.55 12.4 41.5 13.6 41.15 13.95 40.4 15.0 38.9 17.2 38.75 17.4 Q34.85 24.45 33.0 29.05 30.75 34.8 29.55 39.55 29.2 40.55 29.0 41.75 L28.55 44.25 27.7 49.05 26.6 56.55 Q25.3 53.15 25.1 50.65 24.55 46.85 24.55 39.05 M39.95 60.0 L39.55 60.55 36.05 64.35 35.5 65.0 M31.95 5.15 L30.6 7.3 28.75 10.9 Q27.15 14.05 26.05 18.05 L25.6 20.55 25.3 22.4 24.75 27.95 24.55 36.1 24.55 36.65 M24.55 36.95 L24.55 37.95 M31.95 4.35 L32.25 4.8 31.95 5.15 M40.85 57.7 L40.75 58.8 39.95 60.0" fill="none" stroke="#1b3a01" stroke-linecap="round" stroke-linejoin="round" stroke-width="0.5"/>
      <path d="M24.55 37.95 L24.55 39.05" fill="none" stroke="#ff00ff" stroke-linecap="round" stroke-linejoin="round" stroke-width="0.1"/>
    </g>
    <g id="sprite2" transform="matrix(1.0, 0.0, 0.0, 1.0, 0.5, 0.4)">
      <use height="42.1" transform="matrix(1.0, 0.0, 0.0, 1.0, -0.5, -0.4)" width="67.7" xlink:href="#shape2"/>
    </g>
    <g id="shape2" transform="matrix(1.0, 0.0, 0.0, 1.0, 0.5, 0.4)">
      <path d="M54.2 24.55 L53.8 24.0 Q48.05 16.75 45.4 15.55 L44.9 16.3 Q44.9 16.95 52.25 25.1 52.8 25.3 55.1 29.65 56.2 31.6 57.05 32.6 L57.25 33.35 49.35 33.35 35.85 36.4 33.8 36.95 Q28.15 38.15 24.35 38.15 19.35 38.15 15.1 35.1 L15.85 35.1 22.15 35.65 21.85 35.55 22.6 35.55 34.35 34.75 36.2 34.45 Q42.9 33.7 45.4 32.25 38.8 30.65 35.65 28.45 33.35 26.7 33.35 24.75 33.35 23.45 34.9 21.95 36.2 20.65 37.25 20.1 L36.95 19.65 37.5 20.0 38.05 20.1 39.55 20.85 Q42.5 22.25 45.55 24.1 49.2 26.3 50.65 27.7 49.2 26.3 45.55 24.1 L46.95 23.05 Q48.9 25.2 50.65 27.7 L53.35 28.45 Q45.1 17.15 39.1 12.9 L37.7 11.85 Q36.2 10.85 33.8 9.75 34.75 8.8 35.95 8.15 31.4 5.85 18.15 0.75 L18.35 0.0 19.35 0.1 Q23.6 0.0 31.85 3.25 36.3 4.9 40.0 7.05 38.15 7.15 36.6 7.8 L36.95 8.45 39.65 10.0 Q44.45 12.7 48.55 17.4 50.0 18.9 54.1 24.35 L54.2 24.55 M58.45 30.1 L56.7 27.7 58.8 30.0 58.45 30.1 M32.25 12.15 Q22.6 7.05 8.35 3.7 10.0 2.3 11.75 1.5 26.5 6.2 33.8 9.75 32.9 10.75 32.25 12.15 M57.25 33.35 L58.15 33.35 58.15 34.1 Q57.5 33.8 57.25 33.35" fill="#bcd577" fill-rule="evenodd" stroke="none"/>
      <path d="M57.05 32.6 Q56.2 31.6 55.1 29.65 52.8 25.3 52.25 25.1 44.9 16.95 44.9 16.3 L45.4 15.55 Q48.05 16.75 53.8 24.0 L54.2 24.55 54.75 25.2 56.7 27.7 58.45 30.1 Q59.55 31.5 59.55 32.15 59.55 32.9 59.2 33.25 L58.45 33.35 Q57.8 33.35 57.05 32.6" fill="#ffffff" fill-rule="evenodd" stroke="none"/>
      <path d="M18.35 0.0 L18.15 0.75 Q31.4 5.85 35.95 8.15 34.75 8.8 33.8 9.75 26.5 6.2 11.75 1.5 14.1 0.45 16.6 0.1 L18.35 0.0 M45.55 24.1 Q42.5 22.25 39.55 20.85 L38.05 20.1 37.5 20.0 36.95 19.65 37.25 20.1 Q36.2 20.65 34.9 21.95 33.35 23.45 33.35 24.75 33.35 26.7 35.65 28.45 38.8 30.65 45.4 32.25 42.9 33.7 36.2 34.45 L34.35 34.75 22.6 35.55 21.85 35.55 22.15 35.65 15.85 35.1 15.1 35.1 8.15 33.8 6.65 31.95 Q0.0 24.1 0.0 16.3 L0.2 14.1 Q0.45 13.05 1.0 12.25 1.85 10.65 3.25 8.9 L5.65 5.95 Q6.95 4.55 8.35 3.7 22.6 7.05 32.25 12.15 L34.1 13.05 38.45 15.85 Q38.9 15.95 39.35 16.4 43.55 19.35 46.95 23.05 L45.55 24.1 M36.95 19.65 Q30.65 16.75 23.35 14.75 11.1 10.85 4.35 9.25 3.8 8.9 3.25 8.9 3.8 8.9 4.35 9.25 11.1 10.85 23.35 14.75 30.65 16.75 36.95 19.65" fill="#9bb461" fill-rule="evenodd" stroke="none"/>
      <path d="M54.2 24.55 L54.1 24.35 Q50.0 18.9 48.55 17.4 44.45 12.7 39.65 10.0 L36.95 8.45 36.6 7.8 Q38.15 7.15 40.0 7.05 L40.3 7.15 Q44.9 9.75 48.45 13.25 53.35 17.7 59.1 25.65 62.9 30.4 66.7 33.8 65.65 37.8 62.25 38.25 L52.9 38.55 37.7 40.4 33.05 40.85 25.65 41.2 Q15.55 41.2 8.15 33.8 L15.1 35.1 Q19.35 38.15 24.35 38.15 28.15 38.15 33.8 36.95 L35.85 36.4 49.35 33.35 57.25 33.35 57.05 32.6 Q57.8 33.35 58.45 33.35 L59.2 33.25 Q59.55 32.9 59.55 32.15 59.55 31.5 58.45 30.1 L58.8 30.0 56.7 27.7 54.75 25.2 54.2 24.55 M33.8 9.75 Q36.2 10.85 37.7 11.85 L39.1 12.9 Q45.1 17.15 53.35 28.45 L50.65 27.7 Q48.9 25.2 46.95 23.05 43.55 19.35 39.35 16.4 38.9 15.95 38.45 15.85 L34.1 13.05 32.25 12.15 Q32.9 10.75 33.8 9.75 M57.25 33.35 Q57.5 33.8 58.15 34.1 L58.15 33.35 57.25 33.35" fill="#d7f2ab" fill-rule="evenodd" stroke="none"/>
      <path d="M40.0 7.05 Q36.3 4.9 31.85 3.25 23.6 0.0 19.35 0.1 M8.15 33.8 Q15.55 41.2 25.65 41.2 L33.05 40.85 37.7 40.4 52.9 38.55 62.25 38.25 Q65.65 37.8 66.7 33.8 62.9 30.4 59.1 25.65 53.35 17.7 48.45 13.25 44.9 9.75 40.3 7.15 L40.0 7.05 M1.0 12.25 Q0.45 13.05 0.2 14.1 L0.0 16.3 Q0.0 24.1 6.65 31.95 L8.15 33.8" fill="none" stroke="#1b3a01" stroke-linecap="round" stroke-linejoin="round" stroke-width="1.0"/>
      <path d="M19.35 0.1 L18.35 0.0 16.6 0.1 Q14.1 0.45 11.75 1.5 10.0 2.3 8.35 3.7 6.95 4.55 5.65 5.95 L3.25 8.9 Q3.8 8.9 4.35 9.25 11.1 10.85 23.35 14.75 30.65 16.75 36.95 19.65 L37.5 20.0 38.05 20.1 M50.65 27.7 Q49.2 26.3 45.55 24.1 42.5 22.25 39.55 20.85 M46.95 23.05 Q43.55 19.35 39.35 16.4 38.9 15.95 38.45 15.85 L34.1 13.05 32.25 12.15 Q22.6 7.05 8.35 3.7 M50.65 27.7 Q48.9 25.2 46.95 23.05 M3.25 8.9 Q1.85 10.65 1.0 12.25" fill="none" stroke="#1b3a01" stroke-linecap="round" stroke-linejoin="round" stroke-width="0.5"/>
    </g>
    <g id="sprite3" transform="matrix(1.0, 0.0, 0.0, 1.0, 0.5, 0.5)">
      <use height="123.4" transform="matrix(1.0, 0.0, 0.0, 1.0, -0.5, -0.5)" width="73.0" xlink:href="#shape3"/>
    </g>
    <g id="shape3" transform="matrix(1.0, 0.0, 0.0, 1.0, 0.5, 0.5)">
      <path d="M17.3 3.85 Q20.75 1.65 25.2 0.7 41.4 -2.35 54.0 7.75 L57.05 10.45 58.35 12.85 Q60.75 18.4 63.6 28.05 L66.6 38.7 68.05 43.95 Q69.35 48.7 70.4 55.65 L70.95 58.8 70.95 59.15 68.6 62.2 64.65 67.2 56.75 76.2 56.3 76.85 Q41.5 81.2 34.35 86.4 31.1 88.7 29.15 91.3 25.45 96.1 25.45 101.95 25.45 107.3 30.35 110.1 34.45 112.4 41.0 112.4 43.6 112.4 48.45 110.55 L52.5 109.0 Q51.5 110.55 49.9 111.95 46.65 114.55 40.45 116.2 33.6 118.05 27.4 118.05 22.6 118.05 18.15 116.95 19.25 114.9 19.25 111.75 L18.8 108.8 Q16.55 107.15 14.35 104.55 10.35 100.1 10.35 96.1 10.35 93.5 11.0 85.9 L12.05 76.2 Q13.8 60.45 13.8 47.65 13.05 35.15 13.05 29.5 14.9 7.75 18.05 4.7 L17.3 3.85 M65.65 52.75 L65.2 49.9 65.1 48.8 Q64.35 44.05 62.95 39.6 L62.8 38.8 59.65 28.7 57.3 20.55 Q52.15 17.95 44.8 17.75 39.9 18.3 35.1 19.5 29.55 21.0 25.1 24.25 19.15 29.35 18.9 34.7 18.8 40.15 19.15 45.45 19.55 50.65 20.65 59.35 L21.55 65.45 22.3 69.6 23.05 71.75 Q24.45 75.65 28.05 76.75 L28.35 76.85 Q35.1 77.75 41.75 75.9 45.65 74.9 49.15 73.5 56.5 70.9 61.5 65.45 66.6 59.9 65.65 53.05 L65.65 52.75" fill="#235401" fill-rule="evenodd" stroke="none"/>
      <path d="M28.35 76.85 L28.05 76.75 Q24.45 75.65 23.05 71.75 L22.3 69.6 21.55 65.45 20.65 59.35 Q19.55 50.65 19.15 45.45 18.8 40.15 18.9 34.7 19.15 29.35 25.1 24.25 29.55 21.0 35.1 19.5 39.9 18.3 44.8 17.75 52.15 17.95 57.3 20.55 L59.65 28.7 62.8 38.8 62.95 39.6 Q64.35 44.05 65.1 48.8 L65.2 49.9 65.65 52.75 Q65.55 52.5 65.2 52.5 63.25 51.75 60.3 51.65 L60.3 51.45 Q61.1 48.4 60.65 43.95 60.3 41.65 59.65 39.8 L58.6 36.2 Q57.3 33.3 55.65 33.5 54.35 33.6 53.6 36.85 52.95 40.25 53.6 44.7 54.0 49.05 55.2 51.95 48.45 52.85 41.5 57.95 L39.25 59.8 Q40.0 56.1 39.35 50.9 38.6 45.0 36.75 41.0 34.9 37.2 33.05 37.5 31.2 37.65 30.35 41.75 29.35 46.1 30.2 51.95 30.75 57.75 32.6 61.45 33.7 63.6 34.65 64.7 31.4 68.8 29.25 74.05 L28.35 76.85" fill="#dbad79" fill-rule="evenodd" stroke="none"/>
      <path d="M34.65 64.7 Q33.7 63.6 32.6 61.45 30.75 57.75 30.2 51.95 29.35 46.1 30.35 41.75 31.2 37.65 33.05 37.5 34.9 37.2 36.75 41.0 38.6 45.0 39.35 50.9 40.0 56.1 39.25 59.8 L38.6 60.25 39.15 60.65 Q38.15 65.0 36.3 65.35 35.55 65.35 34.65 64.7 M55.2 51.95 Q54.0 49.05 53.6 44.7 52.95 40.25 53.6 36.85 54.35 33.6 55.65 33.5 57.3 33.3 58.6 36.2 L59.65 39.8 Q60.3 41.65 60.65 43.95 61.1 48.4 60.3 51.45 L60.3 51.65 Q59.65 54.9 58.35 55.0 56.75 55.1 55.45 52.1 55.45 51.95 55.2 51.95 M54.65 39.35 Q54.65 43.15 56.2 43.5 L56.3 41.0 Q56.3 38.8 55.45 37.75 54.65 36.75 54.65 39.35 M31.4 45.15 Q31.4 51.65 33.35 51.65 34.0 51.65 34.15 50.25 L34.15 48.7 33.7 45.0 Q33.05 42.2 32.6 41.75 L31.5 43.5 31.4 45.15" fill="#000000" fill-rule="evenodd" stroke="none"/>
      <path d="M31.4 45.15 L31.5 43.5 32.6 41.75 Q33.05 42.2 33.7 45.0 L34.15 48.7 34.15 50.25 Q34.0 51.65 33.35 51.65 31.4 51.65 31.4 45.15 M54.65 39.35 Q54.65 36.75 55.45 37.75 56.3 38.8 56.3 41.0 L56.2 43.5 Q54.65 43.15 54.65 39.35" fill="#ffffff" fill-rule="evenodd" stroke="none"/>
      <path d="M15.9 120.1 Q4.9 116.4 1.55 107.5 0.0 103.25 0.0 98.05 0.0 92.85 1.4 83.25 L2.5 77.3 Q5.55 60.55 6.55 50.45 7.4 40.55 7.75 26.45 L7.85 16.45 Q10.65 7.75 17.3 3.85 L18.05 4.7 Q14.9 7.75 13.05 29.5 13.05 35.15 13.8 47.65 13.8 60.45 12.05 76.2 L11.0 85.9 Q10.35 93.5 10.35 96.1 10.35 100.1 14.35 104.55 16.55 107.15 18.8 108.8 L19.25 111.75 Q19.25 114.9 18.15 116.95 L16.95 119.0 15.9 120.1" fill="#648d25" fill-rule="evenodd" stroke="none"/>
      <path d="M65.65 52.75 L65.65 53.05 65.2 53.05 Q64.35 62.85 52.3 69.05 41.85 74.35 31.5 74.35 L29.25 74.05 Q31.4 68.8 34.65 64.7 35.55 65.35 36.3 65.35 38.15 65.0 39.15 60.65 L39.25 59.8 41.5 57.95 Q48.45 52.85 55.2 51.95 55.45 51.95 55.45 52.1 56.75 55.1 58.35 55.0 59.65 54.9 60.3 51.65 63.25 51.75 65.2 52.5 65.55 52.5 65.65 52.75" fill="#f5e6ab" fill-rule="evenodd" stroke="none"/>
      <path d="M40.65 121.75 L38.15 122.05 33.35 122.4 Q22.95 122.4 15.9 120.1 L16.95 119.0 18.15 116.95 Q22.6 118.05 27.4 118.05 33.6 118.05 40.45 116.2 46.65 114.55 49.9 111.95 51.5 110.55 52.5 109.0 L48.45 110.55 Q43.6 112.4 41.0 112.4 34.45 112.4 30.35 110.1 25.45 107.3 25.45 101.95 25.45 96.1 29.15 91.3 31.1 88.7 34.35 86.4 41.5 81.2 56.3 76.85 L56.75 76.2 64.65 67.2 68.6 62.2 68.15 67.75 67.5 74.9 Q59.9 76.2 59.9 85.65 59.9 88.6 62.15 90.2 L63.7 91.3 Q62.15 96.55 60.45 100.55 58.05 106.4 55.55 109.55 50.65 116.2 40.65 121.75" fill="#3a821e" fill-rule="evenodd" stroke="none"/>
      <path d="M65.65 53.05 Q66.6 59.9 61.5 65.45 56.5 70.9 49.15 73.5 45.65 74.9 41.75 75.9 35.1 77.75 28.35 76.85 L29.25 74.05 31.5 74.35 Q41.85 74.35 52.3 69.05 64.35 62.85 65.2 53.05 L65.65 53.05" fill="#ffebd0" fill-rule="evenodd" stroke="none"/>
      <path d="M70.95 59.15 Q72.25 68.05 71.95 81.75 71.85 91.95 65.55 102.05 63.35 105.75 60.3 109.35 51.95 119.35 40.65 121.75 50.65 116.2 55.55 109.55 58.05 106.4 60.45 100.55 62.15 96.55 63.7 91.3 L62.15 90.2 Q59.9 88.6 59.9 85.65 59.9 76.2 67.5 74.9 L68.15 67.75 68.6 62.2 70.95 59.15" fill="#75bc42" fill-rule="evenodd" stroke="none"/>
      <path d="M17.3 3.85 Q20.75 1.65 25.2 0.7 41.4 -2.35 54.0 7.75 L57.05 10.45 58.35 12.85 Q60.75 18.4 63.6 28.05 L66.6 38.7 68.05 43.95 Q69.35 48.7 70.4 55.65 L70.95 58.8 70.95 59.15 Q72.25 68.05 71.95 81.75 71.85 91.95 65.55 102.05 63.35 105.75 60.3 109.35 51.95 119.35 40.65 121.75 M38.15 122.05 L33.35 122.4 Q22.95 122.4 15.9 120.1 4.9 116.4 1.55 107.5 0.0 103.25 0.0 98.05 0.0 92.85 1.4 83.25 L2.5 77.3 Q5.55 60.55 6.55 50.45 7.4 40.55 7.75 26.45 L7.85 16.45 Q10.65 7.75 17.3 3.85" fill="none" stroke="#1b3a01" stroke-linecap="round" stroke-linejoin="round" stroke-width="1.0"/>
      <path d="M28.35 76.85 L28.05 76.75 Q24.45 75.65 23.05 71.75 L22.3 69.6 21.55 65.45 20.65 59.35 Q19.55 50.65 19.15 45.45 18.8 40.15 18.9 34.7 19.15 29.35 25.1 24.25 29.55 21.0 35.1 19.5 39.9 18.3 44.8 17.75 52.15 17.95 57.3 20.55 L59.65 28.7 62.8 38.8 62.95 39.6 Q64.35 44.05 65.1 48.8 L65.2 49.9 65.65 52.75 65.65 53.05 Q66.6 59.9 61.5 65.45 56.5 70.9 49.15 73.5 45.65 74.9 41.75 75.9 35.1 77.75 28.35 76.85" fill="none" stroke="#1b3a01" stroke-linecap="round" stroke-linejoin="round" stroke-width="0.5"/>
    </g>
    <g id="sprite4" transform="matrix(1.0, 0.0, 0.0, 1.0, 0.5, 0.5)">
      <use height="55.55" transform="matrix(1.0, 0.0, 0.0, 1.0, -0.5, -0.5)" width="91.4" xlink:href="#shape4"/>
    </g>
    <g id="shape4" transform="matrix(1.0, 0.0, 0.0, 1.0, 0.5, 0.5)">
      <path d="M86.8 38.25 Q80.4 34.25 76.5 29.7 L76.05 29.25 77.05 28.6 Q78.2 27.95 79.65 27.95 L81.9 27.85 79.65 27.95 Q78.2 27.95 77.05 28.6 L76.05 29.25 74.1 26.1 73.75 25.65 71.25 20.55 70.4 18.9 69.3 17.05 Q67.45 14.25 65.6 12.3 L63.9 12.3 63.45 8.25 70.5 13.7 72.8 15.55 Q73.75 16.1 74.55 16.95 L76.35 20.0 73.45 20.35 73.75 20.35 Q73.75 19.35 71.8 20.35 L71.25 20.55 71.8 20.35 Q73.75 19.35 73.75 20.35 L73.45 20.35 76.35 20.0 76.7 20.45 79.3 24.25 81.9 27.85 Q87.55 35.65 90.4 36.95 89.3 38.15 86.8 38.25 M33.8 24.55 L33.45 27.2 Q32.8 30.45 31.6 32.6 30.95 33.05 30.75 33.8 L27.5 37.5 Q26.7 35.65 25.4 34.45 24.2 32.95 22.6 32.2 21.8 31.85 20.75 31.65 L20.0 31.55 18.9 31.4 19.75 29.05 20.95 27.05 20.95 26.95 Q22.8 23.5 25.3 22.3 26.8 21.55 28.55 21.55 32.7 21.55 33.8 24.55 M37.45 31.1 L36.05 30.75 Q36.3 28.6 37.25 26.65 37.9 25.65 38.9 24.8 40.75 22.6 43.0 21.95 L45.6 21.55 Q47.45 21.55 49.3 22.6 50.1 22.95 50.75 23.4 L51.15 23.5 Q54.95 26.3 57.9 31.95 54.65 36.1 49.65 40.55 48.25 36.0 45.2 33.5 42.8 31.65 39.45 31.2 L37.45 31.1 M27.8 43.7 L27.6 43.5 Q29.1 41.2 31.5 39.55 33.35 37.95 35.3 37.4 L37.45 37.05 38.55 36.95 Q40.2 36.95 42.7 38.5 L43.0 38.6 43.45 38.9 Q45.95 40.55 47.05 42.7 L45.75 43.8 Q41.8 46.95 38.1 49.0 L36.3 50.1 32.35 51.95 31.95 52.15 31.8 50.85 Q31.3 47.05 29.1 44.8 28.55 44.0 27.8 43.7 M20.75 43.35 Q19.75 44.0 18.65 44.45 15.65 46.0 11.95 46.65 L11.85 46.65 9.1 46.95 11.2 44.9 Q11.3 44.55 11.5 44.55 L13.8 41.95 Q17.9 37.7 20.0 37.4 L20.2 37.4 20.4 37.4 20.75 37.5 Q22.05 37.7 23.35 38.9 L24.45 40.45 20.95 43.25 20.85 43.25 20.75 43.35 M10.5 53.25 L12.8 51.85 14.1 51.1 Q18.35 48.8 20.95 47.95 L21.3 47.95 22.8 47.7 24.45 47.95 Q27.25 48.8 27.25 53.25 L27.25 53.7 23.0 54.45 21.95 54.55 21.6 54.55 Q21.3 54.55 20.95 54.8 L17.25 54.55 15.65 54.45 15.0 54.25 13.45 54.15 10.5 53.25" fill="#d7f2ab" fill-rule="evenodd" stroke="none"/>
      <path d="M86.8 38.25 L86.7 38.25 86.25 38.25 82.0 38.5 79.1 37.4 79.75 35.85 Q77.25 34.25 74.95 32.3 L74.2 31.55 Q74.95 30.0 76.05 29.25 74.95 30.0 74.2 31.55 L71.8 29.05 69.95 26.4 68.1 23.05 Q69.65 21.4 71.25 20.55 69.65 21.4 68.1 23.05 L67.8 22.4 67.15 21.4 64.1 15.65 64.1 17.5 Q64.1 19.55 63.55 21.65 L63.45 21.4 62.8 23.4 Q62.05 25.65 60.5 28.15 58.9 23.5 54.1 20.9 L52.7 20.35 Q51.6 19.8 50.4 19.55 48.1 18.8 45.6 18.8 L44.2 18.9 Q40.95 19.25 37.9 21.85 L37.6 22.2 36.7 22.95 37.6 22.2 37.9 21.85 Q40.95 19.25 44.2 18.9 L45.6 18.8 Q48.1 18.8 50.4 19.55 51.6 19.8 52.7 20.35 L54.1 20.9 Q58.9 23.5 60.5 28.15 L57.9 31.95 Q54.95 26.3 51.15 23.5 L50.75 23.4 Q50.1 22.95 49.3 22.6 47.45 21.55 45.6 21.55 L43.0 21.95 Q40.75 22.6 38.9 24.8 37.9 25.65 37.25 26.65 36.3 28.6 36.05 30.75 L37.45 31.1 39.45 31.2 Q42.8 31.65 45.2 33.5 48.25 36.0 49.65 40.55 L47.05 42.95 45.75 43.8 47.05 42.7 Q45.95 40.55 43.45 38.9 L43.0 38.6 42.7 38.5 Q40.2 36.95 38.55 36.95 L37.45 37.05 35.3 37.4 Q33.35 37.95 31.5 39.55 29.1 41.2 27.6 43.5 L27.8 43.7 Q28.55 44.0 29.1 44.8 31.3 47.05 31.8 50.85 L31.95 52.15 31.5 52.3 27.25 53.7 27.25 53.25 Q27.25 48.8 24.45 47.95 L22.8 47.7 21.3 47.95 20.95 47.95 Q18.35 48.8 14.1 51.1 L12.8 51.85 10.5 53.25 8.15 52.15 12.6 50.45 Q13.15 50.1 13.65 50.0 L20.95 46.75 21.15 46.65 24.85 44.45 25.95 43.8 25.0 42.7 25.0 42.6 24.65 42.6 22.7 42.7 20.95 43.35 20.75 43.35 20.85 43.25 20.95 43.25 24.45 40.45 23.35 38.9 Q22.05 37.7 20.75 37.5 L20.4 37.4 20.2 37.4 20.0 37.4 Q17.9 37.7 13.8 41.95 L11.5 44.55 Q11.3 44.55 11.2 44.9 L9.1 46.95 7.9 46.95 7.6 46.95 6.05 46.95 Q8.15 44.9 9.75 42.6 L10.85 41.1 Q13.65 36.75 15.65 31.4 L17.25 26.3 19.1 18.5 19.35 17.2 19.1 17.2 Q16.85 18.5 15.2 21.1 L14.85 21.65 15.2 20.9 Q17.05 15.9 19.35 12.2 20.75 10.0 22.25 8.15 L24.55 5.9 Q29.65 1.2 36.4 0.35 L36.8 0.1 39.75 0.0 Q47.05 0.0 52.25 1.85 L54.1 2.6 55.3 3.05 Q58.55 4.6 63.0 7.95 L63.45 8.25 63.9 12.3 65.6 12.3 Q67.45 14.25 69.3 17.05 L70.4 18.9 71.25 20.55 73.75 25.65 74.1 26.1 76.05 29.25 76.5 29.7 Q80.4 34.25 86.8 38.25 M33.8 24.55 L34.1 20.55 34.2 17.95 Q34.45 6.3 36.5 0.9 L36.8 0.1 36.5 0.9 Q34.45 6.3 34.2 17.95 L34.1 20.55 33.8 24.55 Q32.7 21.55 28.55 21.55 26.8 21.55 25.3 22.3 22.8 23.5 20.95 26.95 L20.95 27.05 19.75 29.05 18.9 31.4 18.65 31.4 17.05 31.2 15.65 31.4 17.05 31.2 18.65 31.4 18.9 31.4 20.0 31.55 20.75 31.65 Q21.8 31.85 22.6 32.2 24.2 32.95 25.4 34.45 26.7 35.65 27.5 37.5 L25.3 39.7 24.45 40.45 Q25.0 41.5 25.0 42.6 L26.7 43.05 27.15 42.7 Q32.25 38.5 34.95 31.2 36.4 27.7 36.7 22.95 34.95 24.45 34.1 25.9 L33.65 26.65 33.45 27.2 33.8 24.55 M63.9 13.8 L63.9 12.3 63.9 13.8 M34.1 20.55 Q30.5 16.0 24.65 16.0 L24.55 16.0 22.05 16.3 Q20.75 16.4 19.35 17.2 20.75 16.4 22.05 16.3 L24.55 16.0 24.65 16.0 Q30.5 16.0 34.1 20.55 M10.85 32.4 L12.6 32.6 Q11.5 33.35 10.0 35.2 L9.7 35.5 10.0 35.1 10.85 32.4 M0.2 45.35 L0.55 46.1 0.0 45.35 0.2 45.35 M34.95 31.2 L36.05 31.2 36.7 31.1 37.45 31.1 36.7 31.1 36.05 31.2 34.95 31.2 M27.6 43.5 L26.7 43.05 27.6 43.5" fill="#9bb461" fill-rule="evenodd" stroke="none"/>
      <path d="M74.2 31.55 L74.95 32.3 Q77.25 34.25 79.75 35.85 L79.1 37.4 73.75 34.45 73.1 34.05 Q73.55 32.6 74.2 31.55 73.55 32.6 73.1 34.05 71.6 32.95 70.4 31.65 L69.65 30.85 Q68.1 29.25 66.5 26.75 L65.7 25.55 65.3 24.8 63.55 21.65 Q64.1 19.55 64.1 17.5 L64.1 15.65 67.15 21.4 67.8 22.4 68.1 23.05 69.95 26.4 71.8 29.05 74.2 31.55 M33.45 27.2 L33.65 26.65 34.1 25.9 Q34.95 24.45 36.7 22.95 36.4 27.7 34.95 31.2 32.8 31.55 31.6 32.6 32.8 31.55 34.95 31.2 32.25 38.5 27.15 42.7 L26.7 43.05 25.0 42.6 25.0 42.7 25.95 43.8 24.85 44.45 21.15 46.65 20.95 46.75 13.65 50.0 Q13.15 50.1 12.6 50.45 L8.15 52.15 Q5.95 50.85 3.9 49.25 L0.55 46.1 0.2 45.35 Q4.65 44.15 7.8 39.25 L9.1 36.95 9.65 35.65 9.65 35.55 9.7 35.5 10.0 35.2 Q11.5 33.35 12.6 32.6 L10.85 32.4 14.55 22.3 14.55 22.2 14.85 21.65 15.2 21.1 Q16.85 18.5 19.1 17.2 L19.35 17.2 19.1 18.5 17.25 26.3 15.65 31.4 Q13.8 31.55 12.6 32.6 13.8 31.55 15.65 31.4 13.65 36.75 10.85 41.1 L9.75 42.6 Q8.15 44.9 6.05 46.95 L4.55 46.75 0.55 46.1 4.55 46.75 6.05 46.95 7.6 46.95 7.9 46.95 9.1 46.95 11.85 46.65 11.95 46.65 Q15.65 46.0 18.65 44.45 19.75 44.0 20.75 43.35 L20.95 43.35 22.7 42.7 24.65 42.6 25.0 42.6 Q25.0 41.5 24.45 40.45 L25.3 39.7 27.5 37.5 30.75 33.8 30.85 33.7 31.6 32.6 Q32.8 30.45 33.45 27.2 M66.5 26.75 Q66.5 24.45 67.9 23.05 L68.1 23.05 67.9 23.05 Q66.5 24.45 66.5 26.75" fill="#c0d1a5" fill-rule="evenodd" stroke="none"/>
      <path d="M82.0 38.5 L86.25 38.25 86.7 38.25 86.8 38.25 Q89.3 38.15 90.4 36.95 87.55 35.65 81.9 27.85 L79.3 24.25 76.7 20.45 76.35 20.0 74.55 16.95 Q73.75 16.1 72.8 15.55 L70.5 13.7 63.45 8.25 63.0 7.95 Q58.55 4.6 55.3 3.05 L54.1 2.6 52.25 1.85 Q47.05 0.0 39.75 0.0 L36.8 0.1 36.4 0.35 Q29.65 1.2 24.55 5.9 L22.25 8.15 Q20.75 10.0 19.35 12.2 17.05 15.9 15.2 20.9 L14.85 21.65 14.55 22.2 14.55 22.3 10.85 32.4 10.0 35.1 9.7 35.5 9.65 35.55 9.65 35.65 9.1 36.95 7.8 39.25 Q4.65 44.15 0.2 45.35 L0.0 45.35 0.55 46.1 3.9 49.25 Q5.95 50.85 8.15 52.15 L10.5 53.25 13.45 54.15 15.0 54.25 15.65 54.45 17.25 54.55" fill="none" stroke="#1b3a01" stroke-linecap="round" stroke-linejoin="round" stroke-width="1.0"/>
      <path d="M76.05 29.25 Q74.95 30.0 74.2 31.55 73.55 32.6 73.1 34.05 L73.75 34.45 79.1 37.4 82.0 38.5 M81.9 27.85 L79.65 27.95 Q78.2 27.95 77.05 28.6 L76.05 29.25 M71.25 20.55 Q69.65 21.4 68.1 23.05 L67.9 23.05 Q66.5 24.45 66.5 26.75 68.1 29.25 69.65 30.85 L70.4 31.65 Q71.6 32.95 73.1 34.05 M63.45 8.25 L63.9 12.3 63.9 13.8 M71.25 20.55 L71.8 20.35 Q73.75 19.35 73.75 20.35 L73.45 20.35 76.35 20.0 M36.8 0.1 L36.5 0.9 Q34.45 6.3 34.2 17.95 L34.1 20.55 33.8 24.55 33.45 27.2 33.65 26.65 M34.1 25.9 Q34.95 24.45 36.7 22.95 L37.6 22.2 37.9 21.85 Q40.95 19.25 44.2 18.9 L45.6 18.8 Q48.1 18.8 50.4 19.55 51.6 19.8 52.7 20.35 L54.1 20.9 Q58.9 23.5 60.5 28.15 62.05 25.65 62.8 23.4 L63.45 21.4 63.55 21.65 Q64.1 19.55 64.1 17.5 L64.1 15.65 M62.8 23.4 Q63.55 22.6 63.55 21.65 L65.3 24.8 65.7 25.55 66.5 26.75 M37.45 31.1 L39.45 31.2 Q42.8 31.65 45.2 33.5 48.25 36.0 49.65 40.55 54.65 36.1 57.9 31.95 L60.5 28.15 M45.75 43.8 L47.05 42.95 49.65 40.55 M27.8 43.7 Q28.55 44.0 29.1 44.8 31.3 47.05 31.8 50.85 L31.95 52.15 32.35 51.95 36.3 50.1 38.1 49.0 Q41.8 46.95 45.75 43.8 M14.85 21.65 L15.2 21.1 Q16.85 18.5 19.1 17.2 L19.35 17.2 Q20.75 16.4 22.05 16.3 L24.55 16.0 24.65 16.0 Q30.5 16.0 34.1 20.55 M12.6 32.6 Q13.8 31.55 15.65 31.4 L17.05 31.2 18.65 31.4 18.9 31.4 20.0 31.55 20.75 31.65 Q21.8 31.85 22.6 32.2 24.2 32.95 25.4 34.45 26.7 35.65 27.5 37.5 L30.75 33.8 Q30.95 33.05 31.6 32.6 32.8 30.45 33.45 27.2 M9.7 35.5 L10.0 35.2 Q11.5 33.35 12.6 32.6 M0.55 46.1 L4.55 46.75 6.05 46.95 7.6 46.95 7.9 46.95 M25.0 42.6 L24.65 42.6 22.7 42.7 20.95 43.35 20.75 43.35 Q19.75 44.0 18.65 44.45 15.65 46.0 11.95 46.65 L11.85 46.65 9.1 46.95 M31.6 32.6 Q32.8 31.55 34.95 31.2 L36.05 31.2 36.7 31.1 37.45 31.1 M30.75 33.8 L30.85 33.7 31.6 32.6 M26.7 43.05 L27.6 43.5 M20.75 43.35 L20.85 43.25 20.95 43.25 24.45 40.45 25.3 39.7 27.5 37.5 M25.0 42.6 L26.7 43.05 M17.25 54.55 L20.95 54.8 Q21.3 54.55 21.6 54.55 L21.95 54.55 23.0 54.45 27.25 53.7 31.5 52.3 31.95 52.15" fill="none" stroke="#1b3a01" stroke-linecap="round" stroke-linejoin="round" stroke-width="0.5"/>
    </g>
    <g id="sprite5" transform="matrix(1.0, 0.0, 0.0, 1.0, 0.5, 0.5)">
      <use height="175.8" transform="matrix(1.0, 0.0, 0.0, 1.0, -0.5, -0.5)" width="219.1" xlink:href="#shape5"/>
    </g>
    <g id="shape5" transform="matrix(1.0, 0.0, 0.0, 1.0, 0.5, 0.5)">
      <path d="M178.1 17.7 L176.15 15.65 Q172.75 12.9 170.6 12.9 L168.3 13.25 Q164.1 10.3 158.0 8.9 153.0 7.8 146.7 7.7 L143.85 7.5 Q138.85 7.5 134.3 9.65 132.25 10.65 130.3 11.95 127.25 14.0 124.1 17.25 L121.5 20.1 119.95 22.15 119.85 22.25 118.85 23.55 Q116.9 26.4 115.05 29.55 L114.1 31.15 114.1 30.75 114.3 28.0 Q114.3 25.2 114.0 24.1 L113.2 23.65 113.55 23.35 114.75 21.5 115.95 19.65 116.7 18.8 116.9 18.45 118.85 16.3 121.5 13.65 Q124.75 10.95 128.45 8.9 128.75 8.55 129.1 8.45 L130.7 7.7 Q133.2 6.4 135.8 5.65 L136.15 6.4 137.25 5.2 Q141.05 4.1 145.4 3.7 L151.15 3.35 154.4 3.55 155.15 3.55 156.45 3.7 163.65 4.85 Q168.75 6.2 173.0 8.8 183.3 14.85 183.3 25.95 183.3 31.5 182.2 34.3 L182.1 34.85 Q181.45 36.3 180.4 36.7 L179.2 36.95 178.1 37.25 177.65 37.35 176.9 37.45 177.55 32.15 178.55 30.1 178.85 29.2 Q179.4 27.25 179.4 25.2 179.4 22.6 179.05 20.75 179.5 19.2 178.1 17.7" fill="#eea4c2" fill-rule="evenodd" stroke="none"/>
      <path d="M168.3 13.25 L170.6 12.9 Q172.75 12.9 176.15 15.65 L178.1 17.7 178.75 18.9 179.05 20.75 Q179.4 22.6 179.4 25.2 179.4 27.25 178.85 29.2 L178.55 30.1 177.55 32.15 177.35 32.15 Q176.25 32.15 175.7 28.9 L174.4 23.65 Q173.2 20.1 171.05 18.15 168.55 16.3 167.55 14.75 L167.55 13.25 168.3 13.25 M169.85 96.25 L172.75 92.8 173.65 91.7 Q176.15 91.7 177.0 97.8 177.75 97.45 178.4 97.25 L179.6 96.6 181.35 95.5 182.1 94.75 182.9 97.8 183.0 98.45 183.55 100.95 Q183.55 102.55 183.0 104.5 L182.9 105.6 181.8 111.35 181.35 113.2 Q181.15 113.3 181.15 113.65 L180.7 115.4 180.15 117.35 178.55 121.7 178.3 122.1 177.55 123.55 Q176.25 125.6 174.75 126.25 L174.75 122.45 175.5 120.6 176.15 118.85 176.45 117.65 176.9 115.05 177.0 113.0 177.55 109.5 177.65 107.8 177.75 107.45 177.75 100.95 176.9 101.15 173.95 102.15 173.3 102.25 Q172.0 102.9 170.15 103.55 L169.95 103.65 164.75 105.5 163.2 104.4 Q163.3 104.3 163.55 104.1 L167.0 99.65 167.75 98.85 169.85 96.25 M212.1 56.9 L211.65 57.45 Q213.95 58.75 213.95 62.9 213.95 68.0 206.65 75.2 L205.9 75.2 Q205.9 73.0 204.6 65.6 L203.2 57.8 Q203.2 55.2 208.3 55.2 210.6 55.2 212.1 56.9 M201.15 107.25 L201.8 109.95 202.0 110.6 202.1 111.7 Q202.55 113.65 202.55 116.15 202.55 120.25 201.65 124.1 L200.9 127.25 Q200.35 128.2 199.95 129.5 198.1 133.75 195.7 135.15 L193.95 135.9 193.3 134.4 194.3 133.0 Q196.15 129.6 197.35 121.45 L197.55 120.4 197.65 118.75 Q198.75 111.9 199.05 106.7 199.2 106.25 199.95 106.25 200.7 106.25 201.15 107.25 M138.55 40.1 L140.7 40.1 141.05 40.1 Q142.45 40.1 143.2 40.6 L143.2 40.1 Q144.75 39.85 145.7 41.15 146.25 42.25 146.25 43.55 L145.95 44.75 144.4 44.85 142.0 45.2 Q139.85 45.2 138.55 44.0 137.55 42.9 137.55 41.7 137.55 40.3 138.55 40.1 M13.9 91.5 Q14.65 90.3 15.55 89.65 L17.05 89.5 17.6 89.5 19.65 89.95 19.9 89.95 Q20.95 90.05 21.85 90.6 22.25 90.7 22.6 91.05 24.65 91.9 25.4 93.3 25.95 94.4 25.95 95.6 25.95 96.35 24.35 98.0 L23.25 99.2 Q22.8 99.95 22.6 100.95 L22.6 101.05 Q22.6 103.2 23.55 104.4 L24.35 105.05 Q24.75 105.4 27.6 106.35 27.8 106.6 28.35 106.7 L28.05 106.7 26.75 108.2 25.75 108.85 22.6 109.1 21.85 109.1 19.55 108.75 Q17.6 108.2 15.95 107.25 L15.4 106.9 14.45 105.95 14.0 105.5 Q13.05 104.1 12.6 102.45 12.15 100.7 12.15 98.75 12.15 94.0 13.9 91.5" fill="#eed8e1" fill-rule="evenodd" stroke="none"/>
      <path d="M178.1 17.7 Q179.5 19.2 179.05 20.75 L178.75 18.9 178.1 17.7 M177.55 32.15 L176.9 37.45 176.25 37.8 175.9 37.8 174.4 38.25 174.3 38.25 173.55 38.55 173.2 38.75 170.9 39.65 Q169.85 40.1 168.75 40.75 L168.3 39.85 Q159.85 39.85 159.85 30.3 159.85 26.7 161.35 25.5 162.45 24.75 164.85 24.75 L166.15 24.85 Q167.25 25.1 167.75 25.85 L168.1 26.3 168.75 28.8 168.85 28.45 169.1 28.15 169.85 25.95 169.85 25.4 Q169.85 24.0 169.4 22.9 168.75 20.95 166.9 19.65 L166.7 19.55 165.7 18.9 Q164.6 18.15 163.3 18.0 L162.45 17.7 160.6 17.5 Q157.0 17.5 154.3 20.1 L152.55 21.95 152.1 22.25 149.2 23.65 Q144.65 25.5 142.15 25.5 L141.15 25.5 139.4 25.2 138.3 24.85 137.35 24.55 Q133.65 22.6 133.2 16.95 L133.2 16.7 133.2 15.5 133.2 15.1 Q133.2 13.55 133.55 12.15 L134.3 9.65 Q138.85 7.5 143.85 7.5 L146.7 7.7 Q153.0 7.8 158.0 8.9 164.1 10.3 168.3 13.25 L167.55 13.25 167.55 14.75 Q168.55 16.3 171.05 18.15 173.2 20.1 174.4 23.65 L175.7 28.9 Q176.25 32.15 177.35 32.15 L177.55 32.15 M137.25 5.2 L136.15 6.4 135.8 5.65 137.25 5.2 M166.7 30.1 Q167.55 30.1 168.75 28.8 167.55 30.1 166.7 30.1 M105.2 116.7 L106.15 116.9 106.7 113.2 106.9 112.1 Q107.55 109.1 108.55 105.95 L109.65 103.55 Q112.55 96.7 117.8 90.4 L118.0 90.3 118.0 90.05 119.2 88.55 Q124.75 82.8 130.7 78.85 131.05 78.55 131.35 78.45 135.5 75.95 139.95 74.4 L140.15 74.4 141.15 74.0 142.45 73.65 144.75 73.65 144.85 73.2 145.5 71.8 146.6 69.85 Q147.65 67.8 149.1 65.95 L149.5 65.2 149.85 64.75 Q152.0 62.15 154.6 59.55 L155.4 58.55 157.55 56.6 157.75 56.25 160.25 54.1 163.65 51.4 Q166.7 48.9 169.85 47.25 172.9 45.4 175.9 44.1 L176.9 43.75 178.55 43.25 182.75 42.25 185.9 41.8 187.35 41.8 Q195.5 41.8 206.55 49.85 215.35 55.95 217.3 61.8 L218.1 61.5 218.1 64.0 217.95 65.6 217.75 67.7 Q213.85 77.8 205.9 81.05 L205.15 81.35 Q202.1 82.45 198.4 82.45 L196.55 82.45 195.35 82.25 193.85 82.15 Q191.35 81.7 189.4 80.95 183.2 78.45 183.2 72.45 183.2 69.55 184.7 67.05 185.5 65.6 186.55 65.05 186.7 64.85 186.9 64.75 187.55 64.4 188.1 64.3 L189.95 64.0 Q191.35 64.0 194.05 65.2 197.55 66.7 198.3 68.55 L199.05 68.1 199.2 68.1 197.75 65.5 Q196.7 63.55 195.15 62.25 193.0 60.6 189.95 59.95 188.0 59.3 186.15 59.55 L184.4 59.95 184.3 59.95 Q183.3 60.3 182.45 60.95 180.7 61.9 179.5 63.35 L174.4 56.7 Q175.15 65.5 171.8 69.95 L169.95 71.8 168.0 73.55 Q167.55 73.65 167.0 74.1 L165.15 75.5 164.4 76.15 Q161.15 78.75 160.95 79.5 L165.5 79.5 166.15 79.5 167.65 79.2 169.6 79.2 169.85 79.2 170.4 79.2 171.45 79.3 173.2 79.5 172.75 81.5 172.75 81.8 172.1 83.55 172.1 84.3 172.1 84.4 179.2 88.75 181.35 90.3 Q185.7 93.55 187.55 95.6 L187.55 96.7 187.35 101.8 187.35 102.8 187.35 105.05 187.55 113.0 187.65 114.5 187.75 115.95 188.3 119.1 189.05 119.1 189.5 118.1 189.85 117.65 Q190.9 115.6 191.8 112.45 L192.45 110.6 193.95 104.4 Q195.9 96.6 196.15 93.75 197.0 93.75 198.1 94.4 L198.75 94.4 199.4 94.85 199.85 95.95 Q201.65 99.95 203.3 104.85 L204.7 108.45 Q205.05 109.1 205.35 109.1 L205.9 108.75 Q206.45 106.7 206.55 102.8 L206.65 100.3 206.65 99.95 207.0 98.75 207.55 99.95 208.1 102.8 Q209.8 109.85 209.8 114.85 209.8 118.45 209.4 121.8 L209.15 122.55 Q208.5 126.35 207.2 130.05 L205.35 134.4 Q203.95 137.45 201.8 140.4 L200.9 141.8 200.15 142.75 199.2 143.75 197.2 146.15 195.35 148.0 194.3 148.85 194.05 149.05 193.2 149.05 192.1 149.05 191.7 149.05 186.45 148.85 186.25 148.85 182.9 148.55 179.2 147.75 177.65 147.2 174.3 145.35 171.35 142.55 171.35 140.25 Q170.6 137.35 169.2 135.05 167.75 132.45 165.8 130.6 L165.4 129.95 164.1 129.05 Q159.4 125.15 152.55 125.15 149.2 125.15 144.3 126.7 L140.6 128.0 140.15 128.1 Q133.3 130.6 127.0 130.6 L126.9 130.6 Q121.35 130.6 116.9 128.85 109.85 126.15 105.95 118.55 L105.2 116.7 M169.85 96.25 L167.75 98.85 167.0 99.65 163.55 104.1 Q163.3 104.3 163.2 104.4 L164.75 105.5 169.95 103.65 170.15 103.55 Q172.0 102.9 173.3 102.25 L173.95 102.15 176.9 101.15 177.75 100.95 177.75 107.45 177.65 107.8 177.55 109.5 177.0 113.0 176.9 115.05 176.45 117.65 176.15 118.85 175.5 120.6 174.75 122.45 174.75 126.25 Q176.25 125.6 177.55 123.55 L178.3 122.1 178.55 121.7 180.15 117.35 180.7 115.4 181.15 113.65 Q181.15 113.3 181.35 113.2 L181.8 111.35 182.9 105.6 183.0 104.5 Q183.55 102.55 183.55 100.95 L183.0 98.45 182.9 97.8 182.1 94.75 181.35 95.5 179.6 96.6 178.4 97.25 Q177.75 97.45 177.0 97.8 176.15 91.7 173.65 91.7 L172.75 92.8 169.85 96.25 M212.1 56.9 Q210.6 55.2 208.3 55.2 203.2 55.2 203.2 57.8 L204.6 65.6 Q205.9 73.0 205.9 75.2 L206.65 75.2 Q213.95 68.0 213.95 62.9 213.95 58.75 211.65 57.45 L212.1 56.9 M201.15 107.25 Q200.7 106.25 199.95 106.25 199.2 106.25 199.05 106.7 198.75 111.9 197.65 118.75 L197.55 120.4 197.35 121.45 Q196.15 129.6 194.3 133.0 L193.3 134.4 193.95 135.9 195.7 135.15 Q198.1 133.75 199.95 129.5 200.35 128.2 200.9 127.25 L201.65 124.1 Q202.55 120.25 202.55 116.15 202.55 113.65 202.1 111.7 L202.0 110.6 201.8 109.95 201.15 107.25 M22.25 134.4 Q22.05 131.05 22.15 127.65 L24.75 131.35 25.95 132.55 26.3 133.0 Q28.55 135.4 30.65 136.7 32.25 137.75 34.0 138.2 L31.7 130.05 33.7 130.05 39.2 129.3 43.55 128.4 43.9 128.4 44.0 128.2 43.7 128.2 43.55 128.1 Q39.45 126.7 37.8 125.9 L39.55 121.05 Q40.2 118.75 40.2 117.25 40.2 113.3 39.55 110.4 L39.45 109.5 38.45 109.85 38.45 108.85 Q38.35 106.9 37.8 105.4 L37.6 104.5 Q37.25 103.2 36.6 102.15 L36.3 101.45 36.6 102.15 Q37.25 103.2 37.6 104.5 L37.8 105.4 37.6 104.75 Q36.7 103.0 36.3 101.45 34.65 98.75 32.15 97.8 L32.05 97.8 31.4 99.1 32.8 101.05 Q33.7 102.8 33.7 104.75 33.7 107.35 32.8 109.3 31.5 111.9 28.8 113.65 L27.05 114.5 Q25.4 115.4 23.55 115.6 L20.2 115.95 19.55 115.95 16.6 115.6 Q14.45 115.05 12.5 113.65 L12.05 113.3 11.4 112.9 9.55 111.05 8.8 109.85 Q5.2 104.75 5.2 98.55 5.2 89.1 10.65 84.4 13.25 82.15 17.05 81.05 L18.6 80.7 21.75 80.3 22.8 80.05 23.7 80.05 24.0 80.05 24.35 80.05 27.7 80.4 29.9 80.7 Q31.4 81.05 32.8 81.7 L34.75 82.55 35.2 82.9 36.95 84.1 Q39.45 85.85 43.35 89.5 L43.35 89.65 43.55 91.05 Q44.0 94.75 45.1 98.2 46.3 101.9 48.45 105.4 51.05 109.5 54.45 111.9 L56.15 113.0 Q61.05 115.8 67.6 115.8 L69.1 115.8 69.95 115.8 70.2 115.8 Q75.2 115.4 78.9 113.55 L78.45 116.7 78.35 117.75 Q78.35 121.45 79.65 127.45 L80.95 133.55 81.05 134.3 Q81.05 141.7 71.4 146.35 69.85 147.2 68.35 147.75 68.15 147.75 68.0 148.0 63.25 149.85 58.15 150.25 L55.5 150.25 Q49.1 150.25 43.25 148.55 38.15 147.0 33.55 144.05 L31.7 143.0 Q28.05 140.4 24.65 137.0 L24.35 136.7 22.25 134.4 M54.35 41.95 L54.65 41.4 54.75 41.15 55.1 40.75 56.7 38.25 60.2 34.85 60.95 34.45 Q62.8 33.25 64.65 32.8 L65.85 32.45 68.0 32.45 69.45 34.45 71.8 38.45 72.6 39.65 69.45 39.55 Q69.45 38.1 64.0 39.1 L62.8 39.2 62.15 39.3 Q58.55 39.95 55.2 41.5 L54.45 41.95 54.35 41.95 M78.35 32.8 L83.35 33.0 84.65 33.35 87.35 34.3 Q89.95 35.2 92.05 36.3 95.5 38.1 97.35 40.3 L97.55 40.6 98.1 43.55 98.55 47.35 Q96.6 43.55 93.9 42.45 L93.55 42.25 89.95 41.05 88.75 40.75 Q85.85 39.85 84.0 39.85 L82.45 40.6 82.05 39.85 81.5 38.75 79.65 35.2 78.35 32.8 M136.6 35.4 L137.25 34.85 Q138.0 34.45 138.75 34.45 139.1 34.45 139.85 35.2 L143.2 35.5 144.85 35.85 145.7 35.95 147.35 36.4 148.0 36.6 149.85 37.25 149.95 37.25 149.6 38.0 Q152.45 39.3 152.45 42.45 152.45 43.55 151.7 44.55 L151.05 45.4 150.95 45.6 149.2 46.9 149.1 47.05 146.7 48.1 Q144.4 49.1 142.0 49.1 L139.95 48.9 138.85 48.55 Q136.9 47.8 135.5 45.95 133.85 43.65 133.65 41.05 L133.65 40.6 133.85 39.1 Q134.3 37.45 135.5 36.3 L136.6 35.4 137.55 35.2 138.45 35.2 139.85 35.2 138.45 35.2 137.55 35.2 136.6 35.4 M121.25 42.6 L121.05 42.8 120.95 42.6 121.25 42.6 M138.55 40.1 Q137.55 40.3 137.55 41.7 137.55 42.9 138.55 44.0 139.85 45.2 142.0 45.2 L144.4 44.85 145.95 44.75 146.25 43.55 Q146.25 42.25 145.7 41.15 144.75 39.85 143.2 40.1 L143.2 40.6 Q142.45 40.1 141.05 40.1 L140.7 40.1 138.55 40.1 M131.5 67.05 L133.2 65.85 131.7 67.05 131.5 67.05 M140.95 60.3 L142.15 59.3 142.9 60.3 142.0 60.3 140.95 60.3 M97.8 58.45 L99.2 58.55 103.0 59.3 105.95 60.05 106.9 56.6 108.35 58.9 108.9 60.05 109.1 60.4 Q110.2 62.9 110.2 64.1 110.2 65.85 109.2 67.45 108.45 69.3 106.6 71.15 L104.65 72.9 Q100.3 76.25 92.15 79.65 91.05 80.05 89.95 80.6 L89.65 80.05 87.35 77.8 Q86.5 77.0 85.5 76.9 L85.4 76.7 82.25 76.6 77.6 76.35 74.65 76.6 Q70.3 77.0 67.6 79.2 L66.7 79.85 66.6 79.95 65.1 82.25 Q64.0 84.5 64.1 87.8 64.3 88.0 64.1 88.1 L65.2 90.05 65.5 90.6 65.85 90.7 65.85 90.6 Q65.5 89.65 65.5 88.0 65.5 86.9 65.85 85.95 66.5 83.75 68.45 82.45 70.3 81.15 72.6 80.7 L74.85 80.6 77.8 80.95 77.6 82.45 Q79.65 83.65 81.25 85.95 82.25 87.45 82.9 89.5 84.1 93.0 84.1 97.25 84.1 103.2 81.05 106.35 L79.55 107.8 Q78.8 108.45 77.7 108.85 74.45 110.4 69.55 110.6 L68.35 110.6 65.5 110.4 Q61.8 109.95 58.8 108.55 57.7 108.0 56.6 107.25 53.9 105.05 51.85 101.7 48.0 95.05 48.0 85.6 L48.0 83.35 Q48.0 79.2 48.15 78.85 L48.8 76.7 49.2 75.4 49.2 75.2 51.05 70.6 Q51.85 68.85 53.25 66.7 L53.35 66.4 54.75 64.4 Q57.7 60.6 55.75 57.45 L55.85 57.35 55.75 57.45 55.6 57.1 55.85 57.35 Q60.65 60.6 61.7 61.7 62.8 62.55 63.25 63.55 L63.35 63.35 67.8 59.1 68.0 58.9 67.6 58.25 Q66.15 56.15 64.1 54.1 L67.35 52.15 Q68.55 51.4 69.85 50.95 L72.8 49.85 75.75 49.3 77.8 49.1 78.0 49.3 79.1 51.4 Q81.5 56.25 82.15 58.55 L80.75 59.1 82.9 60.4 82.15 58.75 82.6 58.55 84.0 58.1 88.35 56.7 86.7 51.15 86.25 49.85 86.15 49.2 98.45 51.15 98.45 51.8 98.1 56.6 97.8 58.45 M88.75 59.55 L88.35 56.7 88.75 59.55 M66.95 92.9 L65.95 91.15 65.85 90.7 65.95 91.15 66.95 92.9 M69.45 39.85 Q69.45 39.55 69.0 39.55 L69.45 39.55 69.45 39.85 M50.95 53.65 L48.9 55.05 Q47.05 56.4 45.5 58.0 L45.5 50.95 45.85 50.95 46.5 51.15 49.85 53.0 50.95 53.65 M13.9 91.5 Q12.15 94.0 12.15 98.75 12.15 100.7 12.6 102.45 13.05 104.1 14.0 105.5 L14.45 105.95 15.4 106.9 15.95 107.25 Q17.6 108.2 19.55 108.75 L21.85 109.1 22.6 109.1 25.75 108.85 26.75 108.2 28.05 106.7 28.35 106.7 Q27.8 106.6 27.6 106.35 24.75 105.4 24.35 105.05 L23.55 104.4 Q22.6 103.2 22.6 101.05 L22.6 100.95 Q22.8 99.95 23.25 99.2 L24.35 98.0 Q25.95 96.35 25.95 95.6 25.95 94.4 25.4 93.3 24.65 91.9 22.6 91.05 22.25 90.7 21.85 90.6 20.95 90.05 19.9 89.95 L19.65 89.95 17.6 89.5 17.05 89.5 15.55 89.65 Q14.65 90.3 13.9 91.5 M44.85 74.0 L44.85 74.1 44.65 74.85 44.85 74.0" fill="url(#gradient0)" fill-rule="evenodd" stroke="none"/>
      <path d="M114.1 31.15 L115.05 29.55 Q116.9 26.4 118.85 23.55 L119.85 22.25 119.95 22.15 121.5 20.1 124.1 17.25 Q127.25 14.0 130.3 11.95 132.25 10.65 134.3 9.65 L133.55 12.15 Q133.2 13.55 133.2 15.1 L133.2 15.5 133.2 16.7 133.2 16.95 Q133.65 22.6 137.35 24.55 L138.3 24.85 139.4 25.2 141.15 25.5 142.15 25.5 Q144.65 25.5 149.2 23.65 L152.1 22.25 152.55 21.95 154.3 20.1 Q157.0 17.5 160.6 17.5 L162.45 17.7 163.3 18.0 Q164.6 18.15 165.7 18.9 L166.7 19.55 166.9 19.65 Q168.75 20.95 169.4 22.9 169.85 24.0 169.85 25.4 L169.85 25.95 169.1 28.15 168.85 28.45 168.75 28.8 168.1 26.3 167.75 25.85 Q167.25 25.1 166.15 24.85 L164.85 24.75 Q162.45 24.75 161.35 25.5 159.85 26.7 159.85 30.3 159.85 39.85 168.3 39.85 L168.75 40.75 Q164.85 42.8 161.05 45.1 L160.25 45.5 159.4 46.15 Q158.0 39.95 149.95 37.25 158.0 39.95 159.4 46.15 L154.4 49.65 153.85 50.1 153.65 50.3 151.8 51.7 150.15 53.0 148.3 54.4 144.85 57.25 143.55 58.25 142.15 59.3 140.95 60.3 Q140.7 60.05 140.6 60.3 L136.15 59.3 135.15 59.1 Q132.45 57.8 130.95 55.6 129.85 54.0 129.2 51.7 128.75 49.65 128.55 47.05 L128.55 45.6 128.75 41.95 129.65 38.55 Q130.15 37.45 130.6 36.7 L132.15 36.3 Q134.3 35.5 136.6 35.4 134.3 35.5 132.15 36.3 L130.6 36.7 128.85 37.45 126.6 38.55 125.05 39.65 124.3 40.1 122.25 41.7 121.35 42.45 121.25 42.6 120.95 42.6 Q118.35 42.6 116.6 41.4 L116.25 41.05 Q115.2 39.95 114.65 38.45 L114.4 38.0 114.0 35.1 114.0 34.1 114.1 31.15 M148.45 34.0 Q149.1 29.55 150.7 25.5 151.45 23.8 152.25 22.6 L152.55 21.95 152.25 22.6 Q151.45 23.8 150.7 25.5 149.1 29.55 148.45 34.0 M218.1 61.5 L217.3 61.8 Q215.35 55.95 206.55 49.85 195.5 41.8 187.35 41.8 L185.9 41.8 182.75 42.25 178.55 43.25 176.9 43.75 175.9 44.1 Q172.9 45.4 169.85 47.25 166.7 48.9 163.65 51.4 L160.25 54.1 157.75 56.25 157.55 56.6 155.4 58.55 154.6 59.55 Q152.0 62.15 149.85 64.75 L149.5 65.2 149.1 65.95 Q147.65 67.8 146.6 69.85 L145.5 71.8 144.85 73.2 144.75 73.65 142.45 73.65 141.15 74.0 140.15 74.4 139.95 74.4 Q135.5 75.95 131.35 78.45 131.05 78.55 130.7 78.85 124.75 82.8 119.2 88.55 L118.0 90.05 118.0 90.3 117.8 90.4 Q112.55 96.7 109.65 103.55 L108.55 105.95 Q107.55 109.1 106.9 112.1 L106.7 113.2 106.15 116.9 105.2 116.7 Q104.0 113.95 103.2 110.4 L102.25 104.5 101.8 97.8 Q108.45 88.85 116.5 82.55 126.7 74.1 139.5 69.85 L140.7 69.55 140.95 69.2 141.45 68.45 Q149.85 58.55 162.45 49.65 L168.85 45.5 Q181.7 37.8 191.8 37.45 L193.65 37.45 193.85 36.7 Q199.2 38.1 206.25 42.8 217.75 50.1 218.1 61.5 M207.0 98.75 L206.65 99.95 206.65 100.3 206.55 102.8 Q206.45 106.7 205.9 108.75 L205.35 109.1 Q205.05 109.1 204.7 108.45 L203.3 104.85 Q201.65 99.95 199.85 95.95 L199.4 94.85 198.75 94.4 198.1 94.4 Q197.0 93.75 196.15 93.75 195.9 96.6 193.95 104.4 L192.45 110.6 191.8 112.45 Q190.9 115.6 189.85 117.65 L189.5 118.1 189.05 119.1 188.3 119.1 187.75 115.95 187.65 114.5 187.55 113.0 187.35 105.05 187.35 102.8 187.35 101.8 187.55 96.7 187.55 95.6 Q185.7 93.55 181.35 90.3 L179.2 88.75 172.1 84.4 172.1 84.3 172.1 83.55 172.75 81.8 172.75 81.5 173.2 79.5 171.45 79.3 170.4 79.2 169.85 79.2 169.6 79.2 167.65 79.2 166.15 79.5 165.5 79.5 160.95 79.5 Q161.15 78.75 164.4 76.15 L165.15 75.5 167.0 74.1 Q167.55 73.65 168.0 73.55 L169.95 71.8 171.8 69.95 Q175.15 65.5 174.4 56.7 L179.5 63.35 Q180.7 61.9 182.45 60.95 183.3 60.3 184.3 59.95 L184.4 59.95 186.15 59.55 Q188.0 59.3 189.95 59.95 193.0 60.6 195.15 62.25 196.7 63.55 197.75 65.5 L199.2 68.1 199.05 68.1 198.3 68.55 Q197.55 66.7 194.05 65.2 191.35 64.0 189.95 64.0 L188.1 64.3 Q187.55 64.4 186.9 64.75 186.7 64.85 186.55 65.05 185.5 65.6 184.7 67.05 183.2 69.55 183.2 72.45 183.2 78.45 189.4 80.95 191.35 81.7 193.85 82.15 L195.35 82.25 196.55 82.45 198.4 82.45 Q202.1 82.45 205.15 81.35 L205.9 81.05 Q213.85 77.8 217.75 67.7 216.9 74.85 212.85 80.4 210.6 83.65 208.4 85.4 L207.2 86.25 Q205.5 87.45 203.65 87.45 L203.2 87.45 201.0 87.65 203.2 87.45 204.05 88.45 207.0 98.75 M201.0 87.65 L199.5 87.8 197.35 87.8 196.15 87.8 Q192.0 87.45 188.0 86.25 183.65 85.15 180.4 82.15 178.55 80.6 177.75 78.2 176.9 75.6 176.55 73.0 175.9 67.35 179.5 63.35 175.9 67.35 176.55 73.0 176.9 75.6 177.75 78.2 178.55 80.6 180.4 82.15 183.65 85.15 188.0 86.25 192.0 87.45 196.15 87.8 L197.35 87.8 199.5 87.8 201.0 87.65 M22.15 127.65 Q22.25 126.6 22.5 125.6 L21.3 125.8 19.65 125.8 19.1 125.8 17.05 125.6 16.95 125.6 16.5 125.5 13.6 124.5 12.6 124.1 9.1 122.1 8.35 121.7 8.05 121.35 6.95 120.6 Q0.0 114.85 0.0 106.15 0.0 96.25 2.5 89.3 4.8 83.0 9.25 79.2 11.4 77.35 14.35 75.95 14.75 75.6 15.4 75.5 19.1 73.75 24.0 73.0 L26.6 72.55 31.5 72.15 31.7 72.15 32.8 72.15 36.95 71.9 37.05 71.9 38.05 72.15 41.4 72.55 41.5 72.55 Q43.7 73.0 44.85 74.0 L44.65 74.85 44.65 75.2 44.1 77.0 Q43.35 80.95 43.35 86.6 L43.35 89.3 43.35 89.5 Q39.45 85.85 36.95 84.1 L35.2 82.9 34.75 82.55 32.8 81.7 Q31.4 81.05 29.9 80.7 L27.7 80.4 24.35 80.05 24.0 80.05 23.7 80.05 22.8 80.05 21.75 80.3 18.6 80.7 17.05 81.05 Q13.25 82.15 10.65 84.4 5.2 89.1 5.2 98.55 5.2 104.75 8.8 109.85 L9.55 111.05 11.4 112.9 12.05 113.3 12.5 113.65 Q14.45 115.05 16.6 115.6 L19.55 115.95 20.2 115.95 23.55 115.6 Q25.4 115.4 27.05 114.5 L28.8 113.65 Q31.5 111.9 32.8 109.3 33.7 107.35 33.7 104.75 33.7 102.8 32.8 101.05 L31.4 99.1 32.05 97.8 32.15 97.8 Q34.65 98.75 36.3 101.45 36.7 103.0 37.6 104.75 L37.8 105.4 Q38.35 106.9 38.45 108.85 L38.45 109.85 39.45 109.5 39.55 110.4 Q40.2 113.3 40.2 117.25 40.2 118.75 39.55 121.05 L37.8 125.9 Q39.45 126.7 43.55 128.1 L43.7 128.2 44.0 128.2 43.9 128.4 43.55 128.4 39.2 129.3 33.7 130.05 31.7 130.05 34.0 138.2 Q32.25 137.75 30.65 136.7 28.55 135.4 26.3 133.0 L25.95 132.55 24.75 131.35 22.15 127.65 M52.8 45.1 L53.65 43.0 54.35 41.95 54.45 41.95 55.2 41.5 Q58.55 39.95 62.15 39.3 L62.8 39.2 64.0 39.1 Q69.45 38.1 69.45 39.55 L72.6 39.65 75.95 45.4 71.7 46.15 67.6 47.05 63.35 48.25 63.25 48.25 63.0 48.45 Q61.3 48.9 59.45 49.65 L58.45 48.9 57.6 48.1 53.0 45.2 52.8 45.1 M139.85 35.2 Q139.1 34.45 138.75 34.45 138.0 34.45 137.25 34.85 L136.6 35.4 135.5 36.3 Q134.3 37.45 133.85 39.1 L133.65 40.6 133.65 41.05 Q133.85 43.65 135.5 45.95 136.9 47.8 138.85 48.55 L139.95 48.9 142.0 49.1 Q144.4 49.1 146.7 48.1 L149.1 47.05 149.2 46.9 150.95 45.6 151.05 45.4 151.7 44.55 Q152.45 43.55 152.45 42.45 152.45 39.3 149.6 38.0 L149.95 37.25 149.85 37.25 148.0 36.6 147.35 36.4 145.7 35.95 144.85 35.85 143.2 35.5 139.85 35.2 M82.45 40.6 L84.0 39.85 Q85.85 39.85 88.75 40.75 L89.95 41.05 93.55 42.25 93.9 42.45 Q96.6 43.55 98.55 47.35 L98.35 47.25 92.15 46.25 91.5 46.15 Q90.2 45.6 88.75 45.5 L88.1 45.4 84.45 44.85 82.45 40.6 M69.45 39.85 L69.45 39.55 69.0 39.55 Q69.45 39.55 69.45 39.85 M38.45 109.85 Q38.45 112.9 36.6 115.95 35.1 118.45 32.25 120.7 L30.95 121.8 28.45 123.55 Q27.05 124.3 25.55 124.75 24.0 125.4 22.5 125.6 24.0 125.4 25.55 124.75 27.05 124.3 28.45 123.55 L30.95 121.8 32.25 120.7 Q35.1 118.45 36.6 115.95 38.45 112.9 38.45 109.85" fill="#e478a4" fill-rule="evenodd" stroke="none"/>
      <path d="M176.9 37.45 L177.65 37.35 178.1 37.25 179.2 36.95 180.4 36.7 182.9 36.4 187.65 35.95 Q190.35 35.6 193.85 36.7 L193.65 37.45 191.8 37.45 Q181.7 37.8 168.85 45.5 L162.45 49.65 Q149.85 58.55 141.45 68.45 L140.95 69.2 140.7 69.55 139.5 69.85 Q126.7 74.1 116.5 82.55 108.45 88.85 101.8 97.8 L101.8 93.65 101.8 92.45 101.8 88.1 102.8 87.25 Q104.75 85.15 107.05 83.2 L109.85 81.05 110.6 80.6 111.7 79.65 113.85 78.1 Q117.55 75.6 121.35 73.35 L125.5 70.95 126.15 70.6 Q128.85 68.75 131.5 67.05 L131.7 67.05 133.2 65.85 133.3 65.6 133.55 65.6 134.85 64.55 135.4 64.3 138.0 62.45 140.7 60.4 140.95 60.3 142.0 60.3 142.9 60.3 142.15 59.3 143.55 58.25 144.85 57.25 148.3 54.4 150.15 53.0 151.8 51.7 153.65 50.3 153.85 50.1 154.4 49.65 159.4 46.15 160.25 45.5 161.05 45.1 Q164.85 42.8 168.75 40.75 169.85 40.1 170.9 39.65 L173.2 38.75 173.55 38.55 174.3 38.25 174.4 38.25 175.9 37.8 176.25 37.8 176.9 37.45" fill="#c8a6b4" fill-rule="evenodd" stroke="none"/>
      <path d="M113.2 23.65 L114.0 24.1 Q114.3 25.2 114.3 28.0 L114.1 30.75 114.1 31.15 114.0 34.1 114.0 35.1 114.4 38.0 114.65 38.45 Q115.2 39.95 116.25 41.05 L116.6 41.4 Q118.35 42.6 120.95 42.6 L121.05 42.8 121.25 42.6 121.35 42.45 122.25 41.7 124.3 40.1 125.05 39.65 126.6 38.55 128.85 37.45 130.6 36.7 Q130.15 37.45 129.65 38.55 L128.75 41.95 128.55 45.6 128.55 47.05 Q128.75 49.65 129.2 51.7 129.85 54.0 130.95 55.6 132.45 57.8 135.15 59.1 L136.15 59.3 140.6 60.3 Q140.7 60.05 140.95 60.3 L140.7 60.4 138.0 62.45 135.4 64.3 134.85 64.55 133.55 65.6 133.3 65.6 133.2 65.85 131.5 67.05 Q130.4 65.05 125.4 61.9 L118.0 58.1 117.55 58.0 117.35 58.0 Q116.6 57.45 115.5 57.05 L116.7 61.4 Q116.7 65.05 111.05 71.15 L109.55 72.8 108.35 74.0 106.6 75.5 103.65 78.2 Q101.5 80.3 94.65 82.8 L92.45 83.35 89.95 84.1 88.0 84.75 86.15 85.15 85.85 85.4 86.15 86.15 88.35 89.65 Q90.2 93.65 90.2 98.55 L91.05 98.85 91.05 99.1 90.3 101.8 89.2 101.35 88.55 102.8 86.95 105.5 84.0 109.6 82.9 110.95 82.15 111.45 80.4 112.55 79.85 113.0 81.05 117.0 82.45 122.75 Q83.65 128.1 83.65 130.7 83.65 133.75 83.0 136.55 81.5 145.5 74.65 152.1 L72.6 153.95 Q69.95 156.15 66.95 157.75 L64.75 158.85 Q59.1 161.35 52.15 162.45 54.1 164.7 57.6 166.65 60.95 168.5 64.75 169.15 L69.1 169.5 73.55 169.3 76.95 169.05 83.9 167.75 88.0 166.35 91.4 165.05 Q88.45 167.65 85.2 169.5 L84.85 169.6 Q81.25 171.65 76.95 172.95 L72.05 174.05 63.55 174.8 62.05 174.8 Q57.6 174.8 53.55 173.75 48.15 172.45 43.35 169.05 39.45 166.25 35.75 162.2 33.7 159.95 31.85 157.2 26.75 149.95 24.35 142.75 L23.35 139.85 22.25 134.4 24.35 136.7 24.65 137.0 Q28.05 140.4 31.7 143.0 L33.55 144.05 Q38.15 147.0 43.25 148.55 49.1 150.25 55.5 150.25 L58.15 150.25 Q63.25 149.85 68.0 148.0 68.15 147.75 68.35 147.75 69.85 147.2 71.4 146.35 81.05 141.7 81.05 134.3 L80.95 133.55 79.65 127.45 Q78.35 121.45 78.35 117.75 L78.45 116.7 78.9 113.55 Q75.2 115.4 70.2 115.8 L69.95 115.8 69.1 115.8 67.6 115.8 Q61.05 115.8 56.15 113.0 L54.45 111.9 Q51.05 109.5 48.45 105.4 46.3 101.9 45.1 98.2 44.0 94.75 43.55 91.05 L43.35 89.65 43.35 89.5 43.35 89.3 43.35 86.6 Q43.35 80.95 44.1 77.0 L44.65 75.2 44.65 74.85 44.85 74.1 44.85 74.0 Q43.7 73.0 41.5 72.55 L41.4 72.55 38.05 72.15 37.05 71.9 36.95 71.9 32.8 72.15 31.7 72.15 31.7 71.9 Q32.15 67.8 32.8 65.85 L32.9 64.85 33.35 63.55 33.7 62.55 Q34.1 61.5 34.65 60.75 L34.9 60.3 Q35.55 59.3 37.35 58.25 L37.8 58.0 38.55 57.7 38.9 57.45 40.65 56.4 45.2 51.05 45.5 50.95 45.5 58.0 Q47.05 56.4 48.9 55.05 L50.95 53.65 53.65 55.5 55.5 56.9 Q55.85 56.9 55.95 57.25 L56.15 57.25 55.95 57.35 56.15 57.25 Q57.35 58.1 55.95 57.35 L55.6 57.1 55.5 57.05 55.55 57.1 55.6 57.1 55.75 57.45 Q57.7 60.6 54.75 64.4 L53.35 66.4 53.25 66.7 Q51.85 68.85 51.05 70.6 L49.2 75.2 49.2 75.4 48.8 76.7 48.15 78.85 Q48.0 79.2 48.0 83.35 L48.0 85.6 Q48.0 95.05 51.85 101.7 53.9 105.05 56.6 107.25 57.7 108.0 58.8 108.55 61.8 109.95 65.5 110.4 L68.35 110.6 69.55 110.6 Q74.45 110.4 77.7 108.85 78.8 108.45 79.55 107.8 L81.05 106.35 Q84.1 103.2 84.1 97.25 84.1 93.0 82.9 89.5 82.25 87.45 81.25 85.95 79.65 83.65 77.6 82.45 L77.8 80.95 74.85 80.6 72.6 80.7 Q70.3 81.15 68.45 82.45 66.5 83.75 65.85 85.95 65.5 86.9 65.5 88.0 65.5 89.65 65.85 90.6 L65.85 90.7 65.5 90.6 65.2 90.05 64.1 88.1 Q64.3 88.0 64.1 87.8 64.0 84.5 65.1 82.25 L66.6 79.95 66.7 79.85 67.6 79.2 Q70.3 77.0 74.65 76.6 L77.6 76.35 82.25 76.6 85.4 76.7 85.5 76.9 Q86.5 77.0 87.35 77.8 L89.65 80.05 89.95 80.6 Q91.05 80.05 92.15 79.65 100.3 76.25 104.65 72.9 L106.6 71.15 Q108.45 69.3 109.2 67.45 110.2 65.85 110.2 64.1 110.2 62.9 109.1 60.4 L108.9 60.05 108.35 58.9 106.9 56.6 107.35 53.75 107.35 53.65 107.55 52.9 107.55 52.6 107.7 50.4 107.7 49.95 Q107.7 46.25 107.35 44.0 L107.25 41.8 107.05 41.05 106.9 39.95 106.7 39.55 108.1 34.75 108.45 33.8 109.65 30.4 109.85 30.3 109.95 29.85 112.45 24.85 113.2 23.65 M105.95 118.55 Q109.85 126.15 116.9 128.85 121.35 130.6 126.9 130.6 L127.0 130.6 Q133.3 130.6 140.15 128.1 L140.6 128.0 144.3 126.7 Q149.2 125.15 152.55 125.15 159.4 125.15 164.1 129.05 L165.4 129.95 165.8 130.6 Q167.75 132.45 169.2 135.05 170.6 137.35 171.35 140.25 L171.35 142.55 174.3 145.35 177.65 147.2 179.2 147.75 182.9 148.55 186.25 148.85 186.45 148.85 191.7 149.05 192.1 149.05 192.1 150.7 189.05 153.2 186.9 154.5 185.9 155.15 185.8 155.35 181.8 157.65 Q174.85 161.45 166.9 163.2 L161.15 164.3 152.9 164.7 145.95 164.4 143.55 163.95 Q138.85 163.2 138.3 162.85 L139.2 162.55 144.75 159.85 139.2 162.55 138.3 162.85 Q137.8 163.0 137.35 163.3 131.7 165.5 125.85 165.5 L120.4 164.85 Q113.35 163.65 107.7 159.95 L104.0 157.0 100.75 153.95 Q100.6 153.75 100.4 153.75 97.05 150.05 94.3 145.6 89.65 138.2 88.0 129.2 L87.8 128.85 87.7 128.0 87.05 121.7 87.05 119.5 87.05 117.75 Q87.25 115.6 87.6 113.65 L87.8 112.25 88.45 109.3 89.85 105.15 89.95 104.3 90.3 102.15 91.25 102.25 Q90.4 103.65 89.85 105.15 L89.85 110.05 89.95 116.35 90.2 118.2 90.3 119.2 Q91.05 125.05 92.6 130.05 94.0 134.05 95.85 137.75 L97.8 141.05 Q99.55 143.75 101.7 145.9 108.9 153.5 119.5 154.7 L123.35 154.85 Q127.55 154.85 130.3 154.05 124.3 153.65 116.15 145.15 105.95 134.4 105.95 121.05 L105.95 118.55 M144.75 159.85 Q148.45 160.9 150.4 160.9 L158.75 159.95 162.55 159.05 164.3 158.5 Q171.45 156.55 172.0 153.65 L167.35 153.95 161.7 153.3 161.15 153.3 Q159.6 152.75 159.1 152.1 L158.75 151.7 Q156.7 152.55 155.05 153.5 147.65 157.35 144.85 159.05 L144.75 159.85 M111.8 52.9 L112.9 51.5 Q113.0 51.15 113.2 51.05 115.7 47.8 118.75 44.85 L118.85 44.75 119.85 43.75 121.05 42.8 119.85 43.75 118.85 44.75 118.75 44.85 Q115.7 47.8 113.2 51.05 113.0 51.15 112.9 51.5 L111.8 52.9 M84.45 44.85 L88.1 45.4 88.75 45.5 Q90.2 45.6 91.5 46.15 L92.15 46.25 98.35 47.25 98.35 47.35 98.45 51.15 86.15 49.2 85.5 47.45 84.45 44.85 M115.5 57.05 L111.25 55.05 110.7 54.85 107.35 53.75 110.7 54.85 111.25 55.05 115.5 57.05 M77.8 49.1 L75.75 49.3 72.8 49.85 69.85 50.95 Q68.55 51.4 67.35 52.15 L64.1 54.1 Q62.8 52.45 60.95 50.95 L59.45 49.65 Q61.3 48.9 63.0 48.45 L63.25 48.25 63.35 48.25 67.6 47.05 71.7 46.15 75.95 45.4 77.35 48.0 77.8 49.1 M86.15 86.15 L85.5 85.4 Q82.25 81.8 77.8 80.95 82.25 81.8 85.5 85.4 L86.15 86.15 M55.75 57.45 Q55.5 57.45 55.2 57.8 53.35 59.2 51.5 61.7 L48.0 67.7 47.8 68.0 45.75 72.15 45.5 72.55 45.1 73.55 44.85 74.0 45.1 73.55 45.5 72.55 45.75 72.15 47.8 68.0 48.0 67.7 51.5 61.7 Q53.35 59.2 55.2 57.8 55.5 57.45 55.75 57.45 M158.85 136.7 Q158.1 136.15 158.3 133.95 157.55 133.2 156.45 133.2 152.9 133.2 147.25 141.05 139.65 151.45 134.3 155.9 L134.4 155.9 Q141.05 153.65 147.35 150.35 159.6 143.95 159.85 138.55 L159.85 138.4 Q159.85 137.65 158.85 136.7 M89.2 101.35 Q90.2 99.65 90.2 98.55 90.2 99.65 89.2 101.35" fill="#6c9a04" fill-rule="evenodd" stroke="none"/>
      <path d="M101.8 97.8 L102.25 104.5 103.2 110.4 Q104.0 113.95 105.2 116.7 L105.95 118.55 105.95 121.05 Q105.95 134.4 116.15 145.15 124.3 153.65 130.3 154.05 127.55 154.85 123.35 154.85 L119.5 154.7 Q108.9 153.5 101.7 145.9 99.55 143.75 97.8 141.05 L95.85 137.75 Q94.0 134.05 92.6 130.05 91.05 125.05 90.3 119.2 L90.2 118.2 89.95 116.35 89.85 110.05 89.85 105.15 88.45 109.3 87.8 112.25 87.6 113.65 Q87.25 115.6 87.05 117.75 L87.05 119.5 87.05 121.7 87.7 128.0 87.8 128.85 88.0 129.2 Q89.65 138.2 94.3 145.6 97.05 150.05 100.4 153.75 100.6 153.75 100.75 153.95 L99.85 154.7 99.4 155.6 98.55 156.55 97.7 158.0 Q94.75 161.9 91.4 165.05 L88.0 166.35 83.9 167.75 76.95 169.05 73.55 169.3 69.1 169.5 64.75 169.15 Q60.95 168.5 57.6 166.65 54.1 164.7 52.15 162.45 59.1 161.35 64.75 158.85 L66.95 157.75 Q69.95 156.15 72.6 153.95 L74.65 152.1 Q81.5 145.5 83.0 136.55 83.65 133.75 83.65 130.7 83.65 128.1 82.45 122.75 L81.05 117.0 79.85 113.0 80.4 112.55 82.15 111.45 82.9 110.95 84.0 109.6 86.95 105.5 88.55 102.8 89.2 101.35 90.3 101.8 91.05 99.1 91.05 98.85 90.2 98.55 Q90.2 93.65 88.35 89.65 L86.15 86.15 85.85 85.4 86.15 85.15 88.0 84.75 89.95 84.1 92.45 83.35 94.65 82.8 Q101.5 80.3 103.65 78.2 L106.6 75.5 108.35 74.0 109.55 72.8 111.05 71.15 Q116.7 65.05 116.7 61.4 L115.5 57.05 Q116.6 57.45 117.35 58.0 L117.55 58.0 118.0 58.1 125.4 61.9 Q130.4 65.05 131.5 67.05 128.85 68.75 126.15 70.6 L125.5 70.95 121.35 73.35 Q117.55 75.6 113.85 78.1 L111.7 79.65 110.6 80.6 109.85 81.05 107.05 83.2 Q104.75 85.15 102.8 87.25 L101.8 88.1 101.8 92.45 101.8 93.65 101.8 97.8 M158.75 151.7 L159.1 152.1 Q159.6 152.75 161.15 153.3 L161.7 153.3 167.35 153.95 172.0 153.65 Q171.45 156.55 164.3 158.5 L162.55 159.05 158.75 159.95 150.4 160.9 Q148.45 160.9 144.75 159.85 L144.85 159.05 Q147.65 157.35 155.05 153.5 156.7 152.55 158.75 151.7 M101.8 88.1 L99.95 89.95 96.25 94.4 95.2 95.8 93.35 98.2 92.45 99.95 91.25 102.25 92.45 99.95 93.35 98.2 95.2 95.8 96.25 94.4 99.95 89.95 101.8 88.1 M91.25 102.25 L90.3 102.15 89.95 104.3 89.85 105.15 Q90.4 103.65 91.25 102.25" fill="#3a821e" fill-rule="evenodd" stroke="none"/>
      <path d="M52.6 0.95 Q54.0 0.3 55.75 0.1 L57.05 0.0 60.95 0.4 62.05 0.75 Q63.9 1.4 65.5 2.5 L66.5 3.25 66.6 3.25 66.95 3.55 65.85 4.85 65.95 5.1 67.05 6.4 Q67.25 6.6 67.25 7.5 L67.25 9.2 67.25 9.55 67.05 11.05 Q66.95 12.6 65.95 13.65 65.4 14.55 64.3 15.2 64.1 15.2 64.0 15.4 L62.9 15.85 60.2 16.3 59.55 16.3 58.8 16.3 Q55.2 16.3 52.9 12.5 L52.15 11.05 51.7 10.0 Q51.05 8.15 51.05 6.3 51.05 2.6 52.6 0.95 M100.95 10.3 Q101.4 10.4 101.7 10.65 102.45 10.95 103.2 11.4 104.0 11.7 104.75 12.25 L105.85 13.25 106.15 13.55 107.55 15.2 Q108.75 16.95 109.1 19.1 L109.4 21.5 Q109.4 25.1 108.0 27.35 L107.8 27.45 107.8 27.7 104.3 31.5 105.7 35.5 Q106.5 37.7 106.7 39.55 L106.9 39.95 107.05 41.05 107.25 41.8 107.35 44.0 Q107.7 46.25 107.7 49.95 L107.7 50.4 107.55 52.6 107.55 52.9 107.35 53.65 107.05 53.75 105.4 54.85 103.35 55.95 103.35 52.45 Q103.35 49.3 101.5 39.2 L101.25 38.0 99.4 29.2 99.65 28.9 100.3 28.15 101.8 25.95 98.55 24.85 96.7 24.0 Q92.6 21.5 92.6 17.5 93.0 15.95 93.9 14.85 L94.3 14.1 Q96.25 11.4 99.55 11.05 L99.65 11.05 100.75 10.95 100.95 10.3 M102.9 15.2 L101.5 15.1 101.4 15.1 101.05 14.85 100.4 14.85 100.2 14.85 Q97.55 15.1 97.25 16.7 L97.25 17.25 Q97.25 18.15 98.45 19.55 L98.75 19.85 Q100.4 21.4 101.8 21.4 L102.05 21.4 Q103.55 21.4 104.3 20.65 104.85 19.85 104.85 18.45 104.85 16.6 104.1 15.85 L102.9 15.2 M63.65 8.45 Q63.25 7.35 62.15 6.6 L61.05 5.85 59.85 5.85 Q58.35 5.65 57.8 5.85 56.7 6.4 56.7 8.9 55.85 12.9 59.55 12.9 L61.4 12.8 Q64.1 12.25 64.1 10.75 64.1 9.55 63.65 8.45 M41.3 35.5 Q42.9 36.3 42.6 37.8 L42.9 38.25 43.25 39.2 43.7 40.75 Q43.7 43.25 41.7 44.0 L40.0 44.45 39.2 44.45 37.8 44.3 Q36.95 44.0 36.3 43.25 L35.85 42.8 35.85 42.6 Q35.2 41.4 35.2 39.3 35.2 36.95 35.95 35.95 36.7 34.85 39.1 34.85 L40.75 35.4 41.3 35.5 M40.65 42.6 L40.65 38.75 Q40.3 38.75 40.3 38.25 L40.2 38.25 39.45 37.7 Q38.45 37.25 37.6 37.25 L35.95 37.45 35.95 39.55 38.35 42.9 38.55 42.9 40.65 42.6" fill="#ffff33" fill-rule="evenodd" stroke="none"/>
      <path d="M102.9 15.2 L104.1 15.85 Q104.85 16.6 104.85 18.45 104.85 19.85 104.3 20.65 103.55 21.4 102.05 21.4 L101.8 21.4 Q100.4 21.4 98.75 19.85 L98.45 19.55 Q97.25 18.15 97.25 17.25 L97.25 16.7 Q97.55 15.1 100.2 14.85 L100.4 14.85 101.05 14.85 101.4 15.1 101.5 15.1 102.9 15.2 M63.65 8.45 Q64.1 9.55 64.1 10.75 64.1 12.25 61.4 12.8 L59.55 12.9 Q55.85 12.9 56.7 8.9 56.7 6.4 57.8 5.85 58.35 5.65 59.85 5.85 L61.05 5.85 62.15 6.6 Q63.25 7.35 63.65 8.45 M40.65 42.6 L38.55 42.9 38.35 42.9 35.95 39.55 35.95 37.45 37.6 37.25 Q38.45 37.25 39.45 37.7 L40.2 38.25 40.3 38.25 Q40.3 38.75 40.65 38.75 L40.65 42.6" fill="#fcfc9f" fill-rule="evenodd" stroke="none"/>
      <path d="M45.5 50.95 Q44.85 50.6 44.65 50.6 L43.05 51.7 42.5 52.15 41.3 52.8 38.9 53.25 38.55 53.25 Q36.95 53.25 35.2 52.6 L34.65 52.25 Q33.35 51.5 32.15 50.4 30.2 48.55 29.2 46.25 L28.9 45.4 28.45 43.35 28.55 42.45 28.9 40.95 29.45 38.0 Q30.2 36.3 31.5 34.85 34.35 32.15 37.8 32.15 L40.0 32.25 Q41.3 32.45 42.25 32.9 43.7 33.35 44.85 34.1 L45.4 34.45 46.2 35.1 47.35 36.3 Q48.15 37.05 48.45 38.0 49.2 39.3 49.2 41.05 L49.1 42.8 48.55 42.8 49.1 43.0 49.2 43.25 50.0 43.55 Q50.75 43.75 51.7 44.45 L52.8 45.1 53.0 45.2 57.6 48.1 58.45 48.9 59.45 49.65 60.95 50.95 Q62.8 52.45 64.1 54.1 66.15 56.15 67.6 58.25 L68.0 58.9 67.8 59.1 63.35 63.35 63.25 63.55 Q62.8 62.55 61.7 61.7 60.65 60.6 55.85 57.35 L55.95 57.35 55.85 57.35 55.6 57.1 55.55 57.1 55.5 57.05 55.6 57.1 55.95 57.35 Q57.35 58.1 56.15 57.25 L55.95 57.25 Q55.85 56.9 55.5 56.9 L53.65 55.5 50.95 53.65 49.85 53.0 46.5 51.15 45.85 50.95 45.5 50.95 M68.0 32.45 L67.6 31.8 67.25 31.5 65.85 29.55 65.75 29.3 64.85 28.45 64.0 27.05 62.05 25.1 61.5 24.55 60.4 23.35 59.65 23.65 59.55 23.8 58.0 24.3 55.85 24.55 55.2 24.55 54.1 24.45 53.9 24.3 Q51.4 23.65 48.9 21.15 L48.55 20.95 47.7 19.85 Q45.75 17.25 45.2 14.45 L45.1 12.9 Q45.1 8.15 48.15 4.35 50.2 1.95 52.6 0.95 51.05 2.6 51.05 6.3 51.05 8.15 51.7 10.0 L52.15 11.05 52.9 12.5 Q55.2 16.3 58.8 16.3 L59.55 16.3 60.2 16.3 62.9 15.85 64.0 15.4 Q64.1 15.2 64.3 15.2 65.4 14.55 65.95 13.65 66.95 12.6 67.05 11.05 L67.25 9.55 67.25 9.2 67.25 7.5 Q67.25 6.6 67.05 6.4 L65.95 5.1 65.85 4.85 66.95 3.55 67.7 3.8 69.1 5.4 69.2 5.65 69.55 5.95 70.2 6.7 71.05 8.25 Q70.65 9.85 70.65 11.05 L70.65 11.4 70.4 13.0 Q69.95 15.85 68.15 19.3 L69.2 20.3 71.8 23.25 Q74.65 26.4 77.7 31.8 L78.1 32.6 78.35 32.8 79.65 35.2 81.5 38.75 82.05 39.85 82.45 40.6 84.45 44.85 85.5 47.45 86.15 49.2 86.25 49.85 86.7 51.15 88.35 56.7 84.0 58.1 82.6 58.55 82.15 58.75 82.15 58.55 Q81.5 56.25 79.1 51.4 L78.0 49.3 77.8 49.1 77.35 48.0 75.95 45.4 72.6 39.65 71.8 38.45 69.45 34.45 68.0 32.45 M97.35 40.3 L96.5 36.7 Q95.1 32.25 94.3 31.4 L94.0 31.4 Q91.25 30.65 88.55 29.1 86.6 27.8 85.5 26.6 84.65 25.4 84.3 24.3 84.0 23.25 84.0 22.15 84.0 18.55 85.2 15.95 85.95 14.55 86.95 13.35 88.35 11.7 90.2 10.75 L90.4 10.65 Q91.05 10.3 91.7 10.1 93.55 9.55 95.85 9.55 L96.15 9.55 99.1 9.85 99.2 9.85 100.95 10.3 100.75 10.95 99.65 11.05 99.55 11.05 Q96.25 11.4 94.3 14.1 L93.9 14.85 Q93.0 15.95 92.6 17.5 92.6 21.5 96.7 24.0 L98.55 24.85 101.8 25.95 100.3 28.15 99.65 28.9 99.4 29.2 101.25 38.0 101.5 39.2 Q103.35 49.3 103.35 52.45 L103.35 55.95 105.4 54.85 107.05 53.75 107.35 53.65 107.35 53.75 106.9 56.6 105.95 60.05 103.0 59.3 99.2 58.55 97.8 58.45 98.1 56.6 98.45 51.8 98.45 51.15 98.35 47.35 98.35 47.25 98.55 47.35 98.1 43.55 97.55 40.6 97.35 40.3 M41.3 35.5 L40.75 35.4 39.1 34.85 Q36.7 34.85 35.95 35.95 35.2 36.95 35.2 39.3 35.2 41.4 35.85 42.6 L35.85 42.8 36.3 43.25 Q36.95 44.0 37.8 44.3 L39.2 44.45 40.0 44.45 41.7 44.0 Q43.7 43.25 43.7 40.75 L43.25 39.2 42.9 38.25 42.6 37.8 Q42.9 36.3 41.3 35.5" fill="#ffc433" fill-rule="evenodd" stroke="none"/>
      <path d="M158.85 136.7 Q159.85 137.65 159.85 138.4 L159.85 138.55 Q159.6 143.95 147.35 150.35 141.05 153.65 134.4 155.9 L134.3 155.9 Q139.65 151.45 147.25 141.05 152.9 133.2 156.45 133.2 157.55 133.2 158.3 133.95 158.1 136.15 158.85 136.7" fill="#75bc42" fill-rule="evenodd" stroke="none"/>
      <path d="M176.9 37.45 L177.65 37.35 178.1 37.25 179.2 36.95 180.4 36.7 M166.9 19.65 L166.7 19.55 165.7 18.9 Q164.6 18.15 163.3 18.0 L162.45 17.7 160.6 17.5 Q157.0 17.5 154.3 20.1 M152.55 21.95 L152.25 22.6 Q151.45 23.8 150.7 25.5 149.1 29.55 148.45 34.0 M168.75 28.8 L168.85 28.45 169.1 28.15 169.85 25.95 169.85 25.4 Q169.85 24.0 169.4 22.9 M168.75 28.8 Q167.55 30.1 166.7 30.1 M168.75 40.75 Q169.85 40.1 170.9 39.65 L173.2 38.75 173.55 38.55 174.3 38.25 M179.5 63.35 Q180.7 61.9 182.45 60.95 183.3 60.3 184.3 59.95 M184.4 59.95 L186.15 59.55 Q188.0 59.3 189.95 59.95 193.0 60.6 195.15 62.25 196.7 63.55 197.75 65.5 M199.2 68.1 L199.05 68.1 M179.5 63.35 Q175.9 67.35 176.55 73.0 176.9 75.6 177.75 78.2 178.55 80.6 180.4 82.15 183.65 85.15 188.0 86.25 192.0 87.45 196.15 87.8 L197.35 87.8 199.5 87.8 201.0 87.65 M130.6 36.7 L132.15 36.3 Q134.3 35.5 136.6 35.4 L137.55 35.2 138.45 35.2 139.85 35.2 143.2 35.5 144.85 35.85 145.7 35.95 147.35 36.4 148.0 36.6 149.85 37.25 149.95 37.25 Q158.0 39.95 159.4 46.15 L154.4 49.65 153.85 50.1 M160.25 45.5 L161.05 45.1 Q164.85 42.8 168.75 40.75 M130.6 36.7 L128.85 37.45 126.6 38.55 125.05 39.65 124.3 40.1 122.25 41.7 121.35 42.45 121.25 42.6 M134.85 64.55 L135.4 64.3 138.0 62.45 140.7 60.4 140.95 60.3 M142.15 59.3 L143.55 58.25 144.85 57.25 148.3 54.4 150.15 53.0 151.8 51.7 153.65 50.3 M32.15 97.8 Q34.65 98.75 36.3 101.45 L36.6 102.15 Q37.25 103.2 37.6 104.5 L37.8 105.4 Q38.35 106.9 38.45 108.85 L38.45 109.85 Q38.45 112.9 36.6 115.95 35.1 118.45 32.25 120.7 L30.95 121.8 28.45 123.55 Q27.05 124.3 25.55 124.75 24.0 125.4 22.5 125.6" fill="none" stroke="#b42c63" stroke-linecap="round" stroke-linejoin="round" stroke-width="1.0"/>
      <path d="M180.4 36.7 Q181.45 36.3 182.1 34.85 L182.2 34.3 Q183.3 31.5 183.3 25.95 183.3 14.85 173.0 8.8 168.75 6.2 163.65 4.85 L156.45 3.7 155.15 3.55 154.4 3.55 151.15 3.35 145.4 3.7 Q141.05 4.1 137.25 5.2 L135.8 5.65 Q133.2 6.4 130.7 7.7 L129.1 8.45 Q128.75 8.55 128.45 8.9 124.75 10.95 121.5 13.65 L118.85 16.3 116.9 18.45 116.7 18.8 115.95 19.65 114.75 21.5 113.55 23.35 113.2 23.65 112.45 24.85 109.95 29.85 109.85 30.3 109.65 30.4 108.45 33.8 108.1 34.75 106.7 39.55 Q106.5 37.7 105.7 35.5 L104.3 31.5 107.8 27.7 107.8 27.45 108.0 27.35 Q109.4 25.1 109.4 21.5 L109.1 19.1 Q108.75 16.95 107.55 15.2 L106.15 13.55 105.85 13.25 104.75 12.25 Q104.0 11.7 103.2 11.4 102.45 10.95 101.7 10.65 101.4 10.4 100.95 10.3 L99.2 9.85 99.1 9.85 96.15 9.55 95.85 9.55 Q93.55 9.55 91.7 10.1 91.05 10.3 90.4 10.65 L90.2 10.75 Q88.35 11.7 86.95 13.35 85.95 14.55 85.2 15.95 84.0 18.55 84.0 22.15 84.0 23.25 84.3 24.3 84.65 25.4 85.5 26.6 86.6 27.8 88.55 29.1 91.25 30.65 94.0 31.4 L94.3 31.4 Q95.1 32.25 96.5 36.7 L97.35 40.3 Q95.5 38.1 92.05 36.3 89.95 35.2 87.35 34.3 L84.65 33.35 83.35 33.0 78.35 32.8 78.1 32.6 77.7 31.8 Q74.65 26.4 71.8 23.25 L69.2 20.3 68.15 19.3 Q69.95 15.85 70.4 13.0 L70.65 11.4 70.65 11.05 Q70.65 9.85 71.05 8.25 M174.3 38.25 L174.4 38.25 175.9 37.8 176.25 37.8 M218.1 61.5 Q217.75 50.1 206.25 42.8 199.2 38.1 193.85 36.7 190.35 35.6 187.65 35.95 L182.9 36.4 180.4 36.7 M194.05 149.05 L194.3 148.85 195.35 148.0 197.2 146.15 199.2 143.75 200.15 142.75 200.9 141.8 201.8 140.4 Q203.95 137.45 205.35 134.4 L207.2 130.05 Q208.5 126.35 209.15 122.55 L209.4 121.8 Q209.8 118.45 209.8 114.85 209.8 109.85 208.1 102.8 L207.55 99.95 207.0 98.75 204.05 88.45 M184.3 59.95 L184.4 59.95 M218.1 64.0 L218.1 61.5 M201.0 87.65 L203.2 87.45 203.65 87.45 Q205.5 87.45 207.2 86.25 L208.4 85.4 Q210.6 83.65 212.85 80.4 216.9 74.85 217.75 67.7 M192.1 150.7 L193.5 149.6 194.05 149.05 M138.3 162.85 Q138.85 163.2 143.55 163.95 L145.95 164.4 152.9 164.7 161.15 164.3 166.9 163.2 Q174.85 161.45 181.8 157.65 L185.8 155.35 185.9 155.15 186.9 154.5 189.05 153.2 192.1 150.7 M158.75 151.7 Q156.7 152.55 155.05 153.5 147.65 157.35 144.85 159.05 L144.75 159.85 139.2 162.55 138.3 162.85 Q137.8 163.0 137.35 163.3 131.7 165.5 125.85 165.5 L120.4 164.85 Q113.35 163.65 107.7 159.95 L104.0 157.0 100.75 153.95 Q100.6 153.75 100.4 153.75 97.05 150.05 94.3 145.6 89.65 138.2 88.0 129.2 L87.8 128.85 87.7 128.0 87.05 121.7 87.05 119.5 87.05 117.75 Q87.25 115.6 87.6 113.65 L87.8 112.25 88.45 109.3 89.85 105.15 Q90.4 103.65 91.25 102.25 L92.45 99.95 93.35 98.2 95.2 95.8 96.25 94.4 99.95 89.95 101.8 88.1 102.8 87.25 Q104.75 85.15 107.05 83.2 L109.85 81.05 110.6 80.6 111.7 79.65 113.85 78.1 Q117.55 75.6 121.35 73.35 L125.5 70.95 126.15 70.6 Q128.85 68.75 131.5 67.05 L131.7 67.05 133.2 65.85 133.3 65.6 133.55 65.6 134.85 64.55 M99.85 154.7 L99.4 155.6 M98.55 156.55 L97.7 158.0 Q94.75 161.9 91.4 165.05 88.45 167.65 85.2 169.5 L84.85 169.6 Q81.25 171.65 76.95 172.95 L72.05 174.05 63.55 174.8 62.05 174.8 Q57.6 174.8 53.55 173.75 48.15 172.45 43.35 169.05 39.45 166.25 35.75 162.2 33.7 159.95 31.85 157.2 26.75 149.95 24.35 142.75 L23.35 139.85 22.25 134.4 Q22.05 131.05 22.15 127.65 22.25 126.6 22.5 125.6 L21.3 125.8 19.65 125.8 19.1 125.8 17.05 125.6 16.95 125.6 16.5 125.5 13.6 124.5 12.6 124.1 9.1 122.1 8.35 121.7 8.05 121.35 6.95 120.6 Q0.0 114.85 0.0 106.15 0.0 96.25 2.5 89.3 4.8 83.0 9.25 79.2 11.4 77.35 14.35 75.95 14.75 75.6 15.4 75.5 19.1 73.75 24.0 73.0 L26.6 72.55 31.5 72.15 31.7 72.15 31.7 71.9 Q32.15 67.8 32.8 65.85 L32.9 64.85 33.35 63.55 33.7 62.55 Q34.1 61.5 34.65 60.75 L34.9 60.3 Q35.55 59.3 37.35 58.25 L37.8 58.0 38.55 57.7 38.9 57.45 40.65 56.4 45.2 51.05 45.5 50.95 Q44.85 50.6 44.65 50.6 L43.05 51.7 42.5 52.15 41.3 52.8 38.9 53.25 38.55 53.25 Q36.95 53.25 35.2 52.6 L34.65 52.25 Q33.35 51.5 32.15 50.4 30.2 48.55 29.2 46.25 L28.9 45.4 28.45 43.35 28.55 42.45 M29.45 38.0 Q30.2 36.3 31.5 34.85 34.35 32.15 37.8 32.15 L40.0 32.25 Q41.3 32.45 42.25 32.9 43.7 33.35 44.85 34.1 L45.4 34.45 46.2 35.1 47.35 36.3 Q48.15 37.05 48.45 38.0 49.2 39.3 49.2 41.05 L49.1 42.8 48.55 42.8 49.1 43.0 49.2 43.25 50.0 43.55 Q50.75 43.75 51.7 44.45 L52.8 45.1 53.65 43.0 M54.35 41.95 L54.65 41.4 M54.75 41.15 L55.1 40.75 56.7 38.25 60.2 34.85 60.95 34.45 Q62.8 33.25 64.65 32.8 L65.85 32.45 68.0 32.45 67.6 31.8 67.25 31.5 65.85 29.55 65.75 29.3 64.85 28.45 64.0 27.05 62.05 25.1 61.5 24.55 60.4 23.35 59.65 23.65 59.55 23.8 58.0 24.3 55.85 24.55 55.2 24.55 54.1 24.45 53.9 24.3 Q51.4 23.65 48.9 21.15 L48.55 20.95 47.7 19.85 Q45.75 17.25 45.2 14.45 L45.1 12.9 Q45.1 8.15 48.15 4.35 50.2 1.95 52.6 0.95 54.0 0.3 55.75 0.1 L57.05 0.0 60.95 0.4 62.05 0.75 Q63.9 1.4 65.5 2.5 L66.5 3.25 66.6 3.25 66.95 3.55 67.7 3.8 M159.4 46.15 L160.25 45.5 M121.25 42.6 L121.05 42.8 119.85 43.75 118.85 44.75 118.75 44.85 Q115.7 47.8 113.2 51.05 113.0 51.15 112.9 51.5 L111.8 52.9 M98.35 47.25 L98.55 47.35 M98.1 43.55 L97.55 40.6 97.35 40.3 M115.5 57.05 Q116.6 57.45 117.35 58.0 L117.55 58.0 118.0 58.1 125.4 61.9 Q130.4 65.05 131.5 67.05 M140.95 60.3 L142.15 59.3 M153.65 50.3 L153.85 50.1 M86.15 86.15 L88.35 89.65 Q90.2 93.65 90.2 98.55 90.2 99.65 89.2 101.35 L88.55 102.8 86.95 105.5 84.0 109.6 82.9 110.95 82.15 111.45 80.4 112.55 79.85 113.0 M107.35 53.75 L110.7 54.85 111.25 55.05 115.5 57.05 M98.45 51.8 L98.45 51.15 86.15 49.2 M82.15 58.75 L82.15 58.55 M77.8 49.1 L75.75 49.3 72.8 49.85 69.85 50.95 Q68.55 51.4 67.35 52.15 L64.1 54.1 M55.85 57.35 L55.75 57.45 Q55.5 57.45 55.2 57.8 53.35 59.2 51.5 61.7 L48.0 67.7 47.8 68.0 45.75 72.15 45.5 72.55 45.1 73.55 44.85 74.0 Q43.7 73.0 41.5 72.55 L41.4 72.55 38.05 72.15 37.05 71.9 36.95 71.9 32.8 72.15 31.7 72.15 M77.8 80.95 L74.85 80.6 72.6 80.7 Q70.3 81.15 68.45 82.45 66.5 83.75 65.85 85.95 65.5 86.9 65.5 88.0 65.5 89.65 65.85 90.6 L65.85 90.7 65.95 91.15 66.95 92.9 M77.8 80.95 Q82.25 81.8 85.5 85.4 L86.15 86.15 M55.5 57.05 L55.6 57.1 55.95 57.35 56.15 57.25 55.95 57.25 M45.5 50.95 L45.85 50.95 M32.05 97.8 L32.15 97.8 M56.15 57.25 Q57.35 58.1 55.95 57.35 L55.85 57.35 M44.65 74.85 L44.85 74.1 44.85 74.0 M44.65 74.85 L44.65 75.2 44.1 77.0 Q43.35 80.95 43.35 86.6 L43.35 89.3 43.35 89.5 43.35 89.65 M43.55 91.05 Q44.0 94.75 45.1 98.2 46.3 101.9 48.45 105.4 51.05 109.5 54.45 111.9 L56.15 113.0 Q61.05 115.8 67.6 115.8 L69.1 115.8 69.95 115.8 70.2 115.8 Q75.2 115.4 78.9 113.55" fill="none" stroke="#1b3a01" stroke-linecap="round" stroke-linejoin="round" stroke-width="1.0"/>
      <path d="M107.55 52.9 L107.55 52.6 107.7 50.4 107.7 49.95 Q107.7 46.25 107.35 44.0 L107.25 41.8 107.05 41.05 106.9 39.95 106.7 39.55 M82.45 40.6 L84.45 44.85 85.5 47.45 86.15 49.2 86.25 49.85 86.7 51.15 88.35 56.7 88.75 59.55 M98.55 47.35 L98.1 43.55 M82.45 40.6 L82.05 39.85 81.5 38.75 79.65 35.2 78.35 32.8 M107.35 53.65 L107.35 53.75 106.9 56.6 105.95 60.05 M97.8 58.45 L98.1 56.6 98.45 51.8 M82.15 58.55 Q81.5 56.25 79.1 51.4 L78.0 49.3 77.8 49.1 77.35 48.0 75.95 45.4 72.6 39.65 71.8 38.45 69.45 34.45 68.0 32.45 M64.1 54.1 Q66.15 56.15 67.6 58.25 L68.0 58.9 M63.25 63.55 Q62.8 62.55 61.7 61.7 60.65 60.6 55.85 57.35 L55.6 57.1 55.55 57.1 55.5 57.05 M98.45 51.15 L98.35 47.35 M59.45 49.65 L58.45 48.9 57.6 48.1 53.0 45.2 52.8 45.1 M55.95 57.25 Q55.85 56.9 55.5 56.9 L53.65 55.5 50.95 53.65 49.85 53.0 46.5 51.15 45.85 50.95 M64.1 54.1 Q62.8 52.45 60.95 50.95 L59.45 49.65" fill="none" stroke="#806217" stroke-linecap="round" stroke-linejoin="round" stroke-width="1.0"/>
    </g>
    <radialGradient cx="0" cy="0" fx="-112.0" fy="0" gradientTransform="matrix(0.1466, -0.1165, -0.1727, -0.2174, 114.0, 118.75)" gradientUnits="userSpaceOnUse" id="gradient0" r="819.2" spreadMethod="pad">
      <stop offset="0.1450980392156863" stop-color="#a2d32f"/>
      <stop offset="0.48627450980392156" stop-color="#ffb8e0"/>
    </radialGradient>
    <g id="sprite6" transform="matrix(1.0, 0.0, 0.0, 1.0, 0.5, 0.5)">
      <use height="107.6" transform="matrix(1.0, 0.0, 0.0, 1.0, -0.5, -0.5)" width="77.8" xlink:href="#shape6"/>
    </g>
    <g id="shape6" transform="matrix(1.0, 0.0, 0.0, 1.0, 0.5, 0.5)">
      <path d="M42.7 17.45 L43.1 17.7 Q43.45 17.8 43.65 18.45 L44.95 25.1 45.5 27.45 45.05 27.45 44.65 26.7 Q41.6 20.65 41.6 19.95 41.6 17.45 42.7 17.45 M53.1 34.3 Q53.1 33.75 53.45 32.7 53.9 31.5 54.2 31.4 L54.75 31.4 Q55.7 33.35 59.55 36.6 60.85 37.45 62.15 38.55 68.35 43.35 70.85 48.1 L71.25 49.1 70.85 48.45 Q68.0 45.1 61.35 40.75 L59.2 39.3 53.9 35.4 53.1 34.3 M34.75 8.9 L34.95 8.9 35.5 9.1 35.85 9.3 Q36.15 9.85 36.15 10.75 36.15 15.2 36.5 17.8 L36.6 18.45 Q36.2 18.7 35.75 18.9 L34.55 16.6 34.3 16.15 Q33.1 13.35 33.1 11.15 33.1 9.85 33.9 9.2 34.3 8.9 34.75 8.9 M19.0 33.0 Q14.2 28.45 14.2 27.35 14.2 24.0 16.5 24.0 20.3 24.0 24.2 35.1 25.1 37.35 25.85 40.3 L25.5 41.8 Q24.95 39.95 23.45 38.1 21.7 35.6 19.0 33.0" fill="#eed8e1" fill-rule="evenodd" stroke="none"/>
      <path d="M42.7 17.45 Q41.6 17.45 41.6 19.95 41.6 20.65 44.65 26.7 L45.05 27.45 45.5 27.45 44.95 25.1 43.65 18.45 Q43.45 17.8 43.1 17.7 L42.7 17.45 M39.55 14.55 L39.75 14.55 39.75 14.45 Q40.6 12.5 42.7 12.5 45.05 12.5 45.85 15.85 L46.25 17.45 48.35 24.45 48.0 27.25 Q48.0 30.3 47.35 31.7 46.8 33.0 44.95 33.0 L44.75 33.0 43.55 32.7 Q41.8 31.95 40.5 28.8 39.75 26.95 39.4 25.2 39.4 26.7 38.75 27.8 37.9 29.65 36.25 29.65 35.4 29.65 34.65 29.3 L34.2 28.9 33.1 27.8 32.45 26.7 Q31.6 24.85 30.95 21.8 30.3 18.55 29.95 15.2 29.85 16.15 29.1 16.95 28.1 17.7 26.6 17.7 L26.5 17.7 24.95 17.25 Q23.1 15.95 21.7 11.8 20.5 5.65 19.75 5.2 19.95 4.35 20.5 3.55 22.35 0.0 25.1 0.0 26.3 0.0 27.9 1.4 29.85 3.0 29.85 6.15 L30.2 7.5 30.6 6.6 Q31.7 4.45 33.25 4.0 L34.2 3.8 Q35.5 3.8 36.5 4.75 L37.35 5.65 38.35 7.35 Q39.1 8.55 39.55 10.4 L39.75 10.85 39.75 14.45 39.55 14.55 Q39.2 15.5 39.1 16.6 39.2 15.5 39.55 14.55 M49.1 26.7 Q49.55 25.6 51.6 25.6 52.35 25.6 53.1 26.15 54.2 26.6 55.4 28.0 L55.5 28.1 Q57.55 30.4 60.2 32.45 L63.45 34.55 Q65.85 35.95 68.45 38.75 69.85 40.1 71.25 41.8 L72.15 43.25 Q74.2 45.85 75.3 48.25 L75.4 48.75 75.3 48.75 Q75.3 56.15 72.35 60.7 69.95 64.55 67.15 64.55 L65.7 64.3 Q64.65 63.65 64.2 62.15 L64.0 59.95 Q64.0 56.7 65.5 54.75 64.65 55.4 62.9 55.4 59.0 55.4 59.0 50.3 59.0 48.0 60.2 45.85 61.05 44.4 62.05 43.55 L61.7 43.25 58.65 42.9 55.5 41.7 53.1 38.25 53.1 38.1 52.9 38.0 52.35 36.95 51.7 35.95 Q48.75 30.6 49.1 27.25 L49.1 26.7 M70.6 72.45 Q70.6 76.9 65.05 80.4 L59.1 83.55 58.0 84.1 50.95 87.45 50.2 87.8 Q49.95 87.8 49.85 88.0 42.15 91.7 37.35 98.75 35.85 101.05 34.0 102.45 L31.7 103.65 30.3 104.1 29.2 104.1 25.75 103.75 Q24.55 103.55 23.9 102.9 23.1 102.1 22.7 99.95 L22.7 99.1 22.7 98.55 17.6 103.3 Q16.95 103.65 16.5 104.1 L16.15 104.3 16.05 104.4 13.25 105.95 10.5 106.6 9.0 106.6 Q7.35 106.25 6.8 105.5 6.3 104.75 6.3 101.8 6.3 98.1 9.2 94.3 10.65 92.45 11.6 91.7 L12.35 91.15 11.7 91.05 Q10.0 90.4 9.2 90.8 6.05 90.8 6.05 86.6 6.05 83.0 8.65 80.05 L9.2 79.65 Q11.3 78.0 11.05 77.45 L11.4 78.1 14.75 75.85 16.95 74.5 14.95 76.7 14.55 77.25 Q13.25 78.85 13.25 80.3 13.25 81.35 13.55 82.15 14.2 83.2 15.75 83.2 16.05 83.0 16.3 83.0 L19.0 82.45 20.2 82.25 20.6 82.15 21.4 82.15 21.4 82.25 20.3 83.55 19.85 84.3 Q18.8 85.8 18.35 87.0 18.0 88.1 18.0 88.85 L18.0 89.65 Q18.15 90.8 18.45 91.7 L18.65 91.9 Q19.2 92.65 20.2 93.0 L21.05 93.0 Q22.9 93.0 23.9 92.45 L24.0 92.25 23.55 93.75 Q23.65 96.9 26.15 97.45 L27.35 97.65 Q29.75 97.65 31.8 96.15 L34.95 93.0 35.85 91.7 Q38.1 88.45 39.95 86.35 42.15 84.1 43.9 83.55 L50.6 81.5 52.15 81.05 56.5 79.5 59.85 78.0 61.35 77.0 63.2 75.5 62.7 74.85 64.0 74.75 Q66.5 74.3 70.6 72.45 M6.95 54.1 L7.25 54.0 8.15 53.65 Q6.6 53.2 5.1 51.5 3.15 49.3 3.15 46.4 3.15 43.55 4.75 40.85 6.8 37.8 9.85 37.8 L11.4 37.7 Q9.45 35.1 9.0 34.1 7.6 31.4 7.6 27.05 7.6 23.8 9.45 21.05 11.4 18.0 14.55 18.0 16.05 18.0 21.05 20.3 L23.55 25.2 23.9 25.6 24.95 27.35 25.1 27.8 Q25.4 28.1 25.4 28.55 L25.75 29.2 Q29.0 36.7 29.0 40.75 29.0 44.75 26.8 47.8 L26.3 48.45 Q24.75 50.3 22.8 51.15 L22.15 51.5 22.8 52.15 24.65 54.3 Q25.1 55.2 25.1 57.7 25.1 61.35 21.6 63.35 L21.4 63.55 18.8 64.55 17.25 64.85 13.25 65.2 Q9.45 65.2 7.35 62.25 6.05 60.05 6.05 57.7 6.05 55.95 6.95 54.1 M53.1 34.3 L53.9 35.4 59.2 39.3 61.35 40.75 Q68.0 45.1 70.85 48.45 L71.25 49.1 70.85 48.1 Q68.35 43.35 62.15 38.55 60.85 37.45 59.55 36.6 55.7 33.35 54.75 31.4 L54.2 31.4 Q53.9 31.5 53.45 32.7 53.1 33.75 53.1 34.3 M49.0 71.8 L49.2 71.8 49.0 72.55 49.0 71.8 M34.75 8.9 Q34.3 8.9 33.9 9.2 33.1 9.85 33.1 11.15 33.1 13.35 34.3 16.15 L34.55 16.6 35.75 18.9 Q36.2 18.7 36.6 18.45 L36.5 17.8 Q36.15 15.2 36.15 10.75 36.15 9.85 35.85 9.3 L35.5 9.1 34.95 8.9 34.75 8.9 M29.45 11.7 Q29.45 9.55 30.2 7.5 29.45 9.55 29.45 11.7 M19.0 33.0 Q21.7 35.6 23.45 38.1 24.95 39.95 25.5 41.8 L25.85 40.3 Q25.1 37.35 24.2 35.1 20.3 24.0 16.5 24.0 14.2 24.0 14.2 27.35 14.2 28.45 19.0 33.0 M13.65 40.4 L11.4 37.7 13.65 40.4 M23.55 93.75 Q22.8 96.15 22.7 98.55 22.8 96.15 23.55 93.75 M9.2 79.65 L11.4 78.1 9.2 79.65" fill="#febae9" fill-rule="evenodd" stroke="none"/>
      <path d="M51.7 35.95 L52.35 36.95 52.9 38.0 53.1 38.1 53.1 38.25 55.5 41.7 57.15 43.65 Q56.05 45.4 55.5 47.05 54.3 46.15 52.8 45.4 52.35 45.1 51.6 44.75 49.4 43.65 46.5 42.7 L46.05 42.6 42.8 41.8 42.05 41.7 39.95 41.15 38.35 41.05 37.7 41.05 36.25 41.15 Q33.9 41.7 33.9 44.4 33.9 45.85 34.65 46.7 L35.85 48.1 33.65 48.0 31.7 48.1 30.6 48.45 30.2 48.55 29.95 47.25 Q29.95 43.75 30.95 40.4 31.8 37.8 32.35 36.95 L32.9 37.7 33.25 38.0 35.5 37.7 39.1 38.1 40.2 38.25 42.45 38.9 43.45 39.1 44.65 39.3 Q49.0 40.4 50.5 41.05 51.25 39.2 51.7 35.95 M27.9 57.25 Q28.35 57.45 28.65 57.8 L30.3 58.75 30.5 58.9 33.25 60.05 34.75 60.6 Q34.2 60.4 32.9 61.15 L31.7 62.15 Q30.5 63.0 29.85 63.75 29.2 64.55 29.2 65.4 L29.45 67.05 30.2 68.45 30.85 69.1 30.95 69.2 Q32.7 70.7 36.25 71.5 L36.5 71.5 37.9 71.8 39.95 71.9 43.65 72.15 44.55 72.15 49.0 71.8 49.0 72.55 Q47.7 76.15 43.1 76.35 L42.35 76.35 39.1 76.25 37.15 75.95 35.75 75.85 35.5 75.85 Q33.45 75.85 32.05 77.0 L28.45 78.45 29.75 73.75 29.2 74.0 24.55 74.3 24.55 73.55 26.3 69.95 27.25 69.5 24.2 69.1 23.55 69.1 Q23.25 68.85 22.9 68.85 19.95 68.2 19.45 67.7 L23.65 64.75 24.65 64.1 Q25.1 63.75 25.4 63.55 28.65 61.35 28.65 60.6 L27.9 57.25 M36.25 41.15 L33.25 38.0 36.25 41.15 M30.2 68.45 L29.1 68.75 27.25 69.5 29.1 68.75 30.2 68.45" fill="#c44982" fill-rule="evenodd" stroke="none"/>
      <path d="M49.1 26.7 L49.1 27.25 Q48.75 30.6 51.7 35.95 51.25 39.2 50.5 41.05 49.0 40.4 44.65 39.3 L43.45 39.1 42.45 38.9 40.2 38.25 39.1 38.1 35.5 37.7 33.25 38.0 32.9 37.7 32.35 36.95 30.95 35.4 30.85 35.2 29.0 32.9 25.85 28.9 25.4 28.25 25.1 27.8 25.4 28.25 25.85 28.9 29.0 32.9 30.85 35.2 30.95 35.4 32.35 36.95 Q31.8 37.8 30.95 40.4 29.95 43.75 29.95 47.25 L30.2 48.55 29.75 48.75 28.1 49.55 27.7 49.95 26.95 50.6 Q25.85 51.8 25.85 53.55 L26.05 54.75 26.5 55.6 Q26.95 56.4 27.9 57.25 L28.65 60.6 Q28.65 61.35 25.4 63.55 25.1 63.75 24.65 64.1 L23.65 64.75 19.45 67.7 Q19.95 68.2 22.9 68.85 23.25 68.85 23.55 69.1 L24.2 69.1 27.25 69.5 26.3 69.95 24.55 73.55 24.55 74.3 29.2 74.0 29.75 73.75 28.45 78.45 32.05 77.0 31.25 78.0 Q29.95 79.65 29.95 82.15 L30.85 85.8 Q30.85 88.0 28.35 88.85 L26.95 89.5 Q25.4 90.3 24.65 91.15 L24.65 91.35 24.2 92.15 24.0 92.25 24.2 92.15 24.65 91.35 24.65 91.15 Q25.4 90.3 26.95 89.5 L28.35 88.85 Q30.85 88.0 30.85 85.8 L29.95 82.15 Q29.95 79.65 31.25 78.0 L32.05 77.0 Q33.45 75.85 35.5 75.85 L35.75 75.85 37.15 75.95 39.1 76.25 42.35 76.35 43.1 76.35 Q47.7 76.15 49.0 72.55 L49.2 71.8 Q50.2 69.65 51.6 68.1 L53.2 66.6 Q54.0 65.85 55.05 65.2 55.7 64.75 56.5 64.4 L58.0 64.55 Q57.35 66.9 57.35 68.85 57.35 73.75 60.85 74.75 L62.15 74.85 62.7 74.85 63.2 75.5 61.35 77.0 59.85 78.0 56.5 79.5 52.15 81.05 50.6 81.5 43.9 83.55 Q42.15 84.1 39.95 86.35 38.1 88.45 35.85 91.7 L34.95 93.0 31.8 96.15 Q29.75 97.65 27.35 97.65 L26.15 97.45 Q23.65 96.9 23.55 93.75 L24.0 92.25 23.9 92.45 Q22.9 93.0 21.05 93.0 L20.2 93.0 Q19.2 92.65 18.65 91.9 L18.45 91.7 Q18.15 90.8 18.0 89.65 L18.0 88.85 Q18.0 88.1 18.35 87.0 18.8 85.8 19.85 84.3 L20.3 83.55 21.4 82.25 21.4 82.15 20.6 82.15 20.2 82.25 19.0 82.45 16.3 83.0 Q16.05 83.0 15.75 83.2 14.2 83.2 13.55 82.15 13.25 81.35 13.25 80.3 13.25 78.85 14.55 77.25 L14.95 76.7 16.95 74.5 17.6 74.3 Q18.8 73.55 20.2 72.9 21.3 72.25 22.35 71.8 22.7 71.5 22.9 71.5 24.3 70.7 25.75 70.3 26.05 69.95 26.3 69.95 26.05 69.95 25.75 70.3 24.3 70.7 22.9 71.5 22.7 71.5 22.35 71.8 21.3 72.25 20.2 72.9 18.8 73.55 17.6 74.3 L16.95 74.5 14.75 75.85 11.4 78.1 11.05 77.45 Q8.35 77.45 4.75 74.85 0.0 71.35 0.0 66.25 0.0 56.4 6.95 54.1 6.05 55.95 6.05 57.7 6.05 60.05 7.35 62.25 9.45 65.2 13.25 65.2 L17.25 64.85 18.8 64.55 21.4 63.55 21.6 63.35 Q25.1 61.35 25.1 57.7 25.1 55.2 24.65 54.3 L22.8 52.15 22.15 51.5 22.8 51.15 Q24.75 50.3 26.3 48.45 L26.8 47.8 Q29.0 44.75 29.0 40.75 29.0 36.7 25.75 29.2 L25.4 28.55 Q25.4 28.1 25.1 27.8 L24.95 27.35 23.9 25.6 23.55 25.2 21.05 20.3 Q19.0 15.1 19.0 10.1 19.0 7.5 19.75 5.2 20.5 5.65 21.7 11.8 23.1 15.95 24.95 17.25 L26.5 17.7 26.6 17.7 Q28.1 17.7 29.1 16.95 29.85 16.15 29.95 15.2 30.3 18.55 30.95 21.8 31.6 24.85 32.45 26.7 L33.1 27.8 34.2 28.9 34.65 29.3 Q35.4 29.65 36.25 29.65 37.9 29.65 38.75 27.8 39.4 26.7 39.4 25.2 39.75 26.95 40.5 28.8 41.8 31.95 43.55 32.7 L44.75 33.0 44.95 33.0 Q46.8 33.0 47.35 31.7 48.0 30.3 48.0 27.25 L48.35 24.45 48.65 25.2 49.1 26.7 M55.5 41.7 L58.65 42.9 61.7 43.25 62.05 43.55 Q61.05 44.4 60.2 45.85 59.0 48.0 59.0 50.3 59.0 55.4 62.9 55.4 64.65 55.4 65.5 54.75 64.0 56.7 64.0 59.95 L64.2 62.15 Q64.65 63.65 65.7 64.3 L67.15 64.55 Q69.95 64.55 72.35 60.7 75.3 56.15 75.3 48.75 L75.4 48.75 Q76.8 52.15 76.8 55.4 76.8 60.7 75.7 65.05 L75.05 66.9 74.75 67.7 74.0 67.25 Q73.45 68.45 72.0 69.3 69.4 71.15 66.25 71.15 L63.55 70.7 Q60.5 69.5 59.85 64.85 L59.75 62.25 58.75 61.9 59.85 59.85 60.6 58.75 Q60.5 58.55 60.2 58.55 L56.6 55.5 55.85 54.3 Q54.95 52.45 54.95 50.75 54.95 48.9 55.5 47.05 56.05 45.4 57.15 43.65 L55.5 41.7" fill="#d6679a" fill-rule="evenodd" stroke="none"/>
      <path d="M44.0 45.5 Q39.75 45.5 39.75 49.1 L39.85 50.75 39.0 50.6 Q37.9 50.6 36.9 51.4 L36.05 52.25 Q35.1 53.55 35.1 54.4 35.1 55.85 36.25 57.25 L37.7 58.45 37.9 58.55 37.9 59.1 37.9 59.2 Q37.9 60.3 38.65 61.05 38.1 61.15 37.7 61.5 36.5 62.45 36.5 63.75 36.5 65.6 37.35 67.25 38.65 69.2 41.25 69.2 44.0 69.2 46.25 68.0 49.1 66.35 49.1 64.0 49.1 61.7 48.35 60.85 49.4 60.6 50.3 59.95 51.7 59.1 52.15 57.8 L52.45 55.95 Q52.45 55.05 51.8 53.55 L51.4 52.9 51.6 52.15 51.6 51.9 Q51.4 49.1 48.45 47.05 46.15 45.5 44.0 45.5 M30.2 48.55 L30.6 48.45 31.7 48.1 33.65 48.0 35.85 48.1 34.65 46.7 Q33.9 45.85 33.9 44.4 33.9 41.7 36.25 41.15 L37.7 41.05 38.35 41.05 39.95 41.15 42.05 41.7 42.8 41.8 46.05 42.6 46.5 42.7 Q49.4 43.65 51.6 44.75 52.35 45.1 52.8 45.4 54.3 46.15 55.5 47.05 54.95 48.9 54.95 50.75 54.95 52.45 55.85 54.3 L56.6 55.5 55.85 55.2 55.85 56.15 Q55.85 57.45 54.95 58.45 L54.0 59.1 Q53.55 59.3 52.9 59.85 53.9 59.95 53.9 61.15 53.9 61.8 52.9 63.2 51.8 64.85 50.5 65.4 L50.5 65.5 Q51.7 65.5 53.2 66.6 L51.6 68.1 Q50.2 69.65 49.2 71.8 L49.0 71.8 44.55 72.15 43.65 72.15 39.95 71.9 37.9 71.8 36.5 71.5 36.25 71.5 Q32.7 70.7 30.95 69.2 L30.85 69.1 30.2 68.45 29.45 67.05 29.2 65.4 Q29.2 64.55 29.85 63.75 30.5 63.0 31.7 62.15 L32.9 61.15 Q34.2 60.4 34.75 60.6 L33.25 60.05 30.5 58.9 30.3 58.75 28.65 57.8 Q28.35 57.45 27.9 57.25 26.95 56.4 26.5 55.6 L26.05 54.75 25.85 53.55 Q25.85 51.8 26.95 50.6 L27.7 49.95 28.1 49.55 29.75 48.75 30.2 48.55" fill="#ffc433" fill-rule="evenodd" stroke="none"/>
      <path d="M44.0 45.5 Q46.15 45.5 48.45 47.05 51.4 49.1 51.6 51.9 L51.6 52.15 51.4 52.9 51.8 53.55 Q52.45 55.05 52.45 55.95 L52.15 57.8 Q51.7 59.1 50.3 59.95 49.4 60.6 48.35 60.85 49.1 61.7 49.1 64.0 49.1 66.35 46.25 68.0 44.0 69.2 41.25 69.2 38.65 69.2 37.35 67.25 36.5 65.6 36.5 63.75 36.5 62.45 37.7 61.5 38.1 61.15 38.65 61.05 37.9 60.3 37.9 59.2 L37.9 59.1 37.9 58.55 37.7 58.45 36.25 57.25 Q35.1 55.85 35.1 54.4 35.1 53.55 36.05 52.25 L36.9 51.4 Q37.9 50.6 39.0 50.6 L39.85 50.75 39.75 49.1 Q39.75 45.5 44.0 45.5" fill="#fcfc9f" fill-rule="evenodd" stroke="none"/>
      <path d="M74.75 67.7 Q73.1 71.7 70.6 72.45 66.5 74.3 64.0 74.75 L62.7 74.85 62.15 74.85 60.85 74.75 Q57.35 73.75 57.35 68.85 57.35 66.9 58.0 64.55 L58.1 64.0 58.35 63.2 58.75 61.9 59.75 62.25 59.85 64.85 Q60.5 69.5 63.55 70.7 L66.25 71.15 Q69.4 71.15 72.0 69.3 73.45 68.45 74.0 67.25 L74.75 67.7" fill="#c8a6b4" fill-rule="evenodd" stroke="none"/>
      <path d="M53.2 66.6 Q51.7 65.5 50.5 65.5 L50.5 65.4 Q51.8 64.85 52.9 63.2 53.9 61.8 53.9 61.15 53.9 59.95 52.9 59.85 53.55 59.3 54.0 59.1 L54.95 58.45 Q55.85 57.45 55.85 56.15 L55.85 55.2 56.6 55.5 60.2 58.55 Q60.5 58.55 60.6 58.75 L59.85 59.85 58.75 61.9 58.35 63.2 58.1 64.0 58.0 64.55 56.5 64.4 Q55.7 64.75 55.05 65.2 54.0 65.85 53.2 66.6" fill="#e7801b" fill-rule="evenodd" stroke="none"/>
      <path d="M48.35 24.45 L46.25 17.45 45.85 15.85 Q45.05 12.5 42.7 12.5 40.6 12.5 39.75 14.45 L39.75 14.55 39.55 14.55 Q39.2 15.5 39.1 16.6 M75.4 48.75 L75.3 48.25 Q74.2 45.85 72.15 43.25 L71.25 41.8 Q69.85 40.1 68.45 38.75 65.85 35.95 63.45 34.55 L60.2 32.45 Q57.55 30.4 55.5 28.1 L55.4 28.0 Q54.2 26.6 53.1 26.15 52.35 25.6 51.6 25.6 49.55 25.6 49.1 26.7 L49.1 27.25 M75.4 48.75 Q76.8 52.15 76.8 55.4 76.8 60.7 75.7 65.05 L75.05 66.9 74.75 67.7 Q73.1 71.7 70.6 72.45 70.6 76.9 65.05 80.4 L59.1 83.55 58.0 84.1 50.95 87.45 50.2 87.8 Q49.95 87.8 49.85 88.0 42.15 91.7 37.35 98.75 35.85 101.05 34.0 102.45 L31.7 103.65 30.3 104.1 29.2 104.1 25.75 103.75 Q24.55 103.55 23.9 102.9 23.1 102.1 22.7 99.95 M22.7 99.1 L22.7 98.55 17.6 103.3 Q16.95 103.65 16.5 104.1 L16.15 104.3 16.05 104.4 13.25 105.95 10.5 106.6 9.0 106.6 Q7.35 106.25 6.8 105.5 6.3 104.75 6.3 101.8 6.3 98.1 9.2 94.3 10.65 92.45 11.6 91.7 L12.35 91.15 11.7 91.05 Q10.0 90.4 9.2 90.8 6.05 90.8 6.05 86.6 6.05 83.0 8.65 80.05 L9.2 79.65 Q11.3 78.0 11.05 77.45 8.35 77.45 4.75 74.85 0.0 71.35 0.0 66.25 0.0 56.4 6.95 54.1 M7.25 54.0 L8.15 53.65 Q6.6 53.2 5.1 51.5 3.15 49.3 3.15 46.4 3.15 43.55 4.75 40.85 6.8 37.8 9.85 37.8 L11.4 37.7 Q9.45 35.1 9.0 34.1 7.6 31.4 7.6 27.05 7.6 23.8 9.45 21.05 11.4 18.0 14.55 18.0 16.05 18.0 21.05 20.3 19.0 15.1 19.0 10.1 19.0 7.5 19.75 5.2 19.95 4.35 20.5 3.55 22.35 0.0 25.1 0.0 26.3 0.0 27.9 1.4 29.85 3.0 29.85 6.15 L30.2 7.5 30.6 6.6 Q31.7 4.45 33.25 4.0 L34.2 3.8 Q35.5 3.8 36.5 4.75 L37.35 5.65 38.35 7.35 Q39.1 8.55 39.55 10.4 L39.75 10.85 39.75 14.45 39.55 14.55 M49.1 26.7 L48.65 25.2 48.35 24.45 M30.2 7.5 Q29.45 9.55 29.45 11.7 M11.4 37.7 L13.65 40.4 M21.05 20.3 L23.55 25.2 23.9 25.6 24.95 27.35 25.1 27.8" fill="none" stroke="#b42c63" stroke-linecap="round" stroke-linejoin="round" stroke-width="1.0"/>
      <path d="M49.1 27.25 Q48.75 30.6 51.7 35.95 L52.35 36.95 52.9 38.0 M22.7 99.95 L22.7 99.1 M49.2 71.8 Q50.2 69.65 51.6 68.1 L53.2 66.6 Q54.0 65.85 55.05 65.2 55.7 64.75 56.5 64.4 L58.0 64.55 Q57.35 66.9 57.35 68.85 57.35 73.75 60.85 74.75 L62.15 74.85 62.7 74.85 64.0 74.75 Q66.5 74.3 70.6 72.45 M56.6 55.5 L55.85 54.3 Q54.95 52.45 54.95 50.75 54.95 48.9 55.5 47.05 56.05 45.4 57.15 43.65 L55.5 41.7 M25.1 27.8 L25.4 28.25 25.85 28.9 29.0 32.9 30.85 35.2 30.95 35.4 32.35 36.95 32.9 37.7 33.25 38.0 36.25 41.15 M16.95 74.5 L17.6 74.3 Q18.8 73.55 20.2 72.9 21.3 72.25 22.35 71.8 22.7 71.5 22.9 71.5 24.3 70.7 25.75 70.3 26.05 69.95 26.3 69.95 L27.25 69.5 29.1 68.75 30.2 68.45 M11.4 78.1 L14.75 75.85 16.95 74.5 M24.0 92.25 L24.2 92.15 24.65 91.35 24.65 91.15 Q25.4 90.3 26.95 89.5 L28.35 88.85 Q30.85 88.0 30.85 85.8 L29.95 82.15 Q29.95 79.65 31.25 78.0 L32.05 77.0 Q33.45 75.85 35.5 75.85 L35.75 75.85 37.15 75.95 39.1 76.25 42.35 76.35 43.1 76.35 Q47.7 76.15 49.0 72.55 L49.2 71.8 M11.4 78.1 L9.2 79.65 M22.7 98.55 Q22.8 96.15 23.55 93.75 L24.0 92.25 M58.75 61.9 L58.35 63.2 58.1 64.0 58.0 64.55 M58.75 61.9 L59.85 59.85 60.6 58.75 Q60.5 58.55 60.2 58.55 L56.6 55.5" fill="none" stroke="#b42c63" stroke-linecap="round" stroke-linejoin="round" stroke-width="0.5"/>
      <path d="M55.5 47.05 Q54.3 46.15 52.8 45.4 52.35 45.1 51.6 44.75 49.4 43.65 46.5 42.7 L46.05 42.6 42.8 41.8 42.05 41.7 39.95 41.15 38.35 41.05 37.7 41.05 36.25 41.15 Q33.9 41.7 33.9 44.4 33.9 45.85 34.65 46.7 L35.85 48.1 33.65 48.0 31.7 48.1 30.6 48.45 30.2 48.55 29.75 48.75 28.1 49.55 27.7 49.95 26.95 50.6 Q25.85 51.8 25.85 53.55 L26.05 54.75 26.5 55.6 Q26.95 56.4 27.9 57.25 28.35 57.45 28.65 57.8 L30.3 58.75 30.5 58.9 33.25 60.05 34.75 60.6 Q34.2 60.4 32.9 61.15 L31.7 62.15 Q30.5 63.0 29.85 63.75 29.2 64.55 29.2 65.4 L29.45 67.05 30.2 68.45 30.85 69.1 30.95 69.2 Q32.7 70.7 36.25 71.5 L36.5 71.5 37.9 71.8 39.95 71.9 43.65 72.15 44.55 72.15 49.0 71.8 49.2 71.8" fill="none" stroke="#806217" stroke-linecap="round" stroke-linejoin="round" stroke-width="0.5"/>
    </g>
  </defs>
</svg>
