<?xml version="1.0" encoding="UTF-8" standalone="no"?>
<svg xmlns:xlink="http://www.w3.org/1999/xlink" height="198.85px" width="106.9px" xmlns="http://www.w3.org/2000/svg">
  <g transform="matrix(1.0, 0.0, 0.0, 1.0, 346.2, 88.4)">
    <use height="198.85" transform="matrix(1.0, 0.0, 0.0, 1.0, -346.1, -88.4)" width="106.8" xlink:href="#shape0"/>
  </g>
  <defs>
    <g id="shape0" transform="matrix(1.0, 0.0, 0.0, 1.0, 346.1, 88.4)">
      <path d="M-336.4 88.5 L-339.75 85.85 Q-345.9 79.85 -341.65 72.05 -337.4 64.25 -332.3 61.8 -327.4 59.3 -324.9 60.35 L-324.1 60.8 Q-325.5 61.25 -328.95 65.0 -332.4 68.7 -334.0 71.5 -335.25 73.7 -336.25 77.2 -337.15 80.45 -337.15 82.45 L-337.1 85.4 Q-337.0 87.1 -336.4 88.5" fill="#f5c000" fill-rule="evenodd" stroke="none"/>
      <path d="M-324.1 60.8 Q-320.15 63.15 -320.45 68.5 -320.85 74.85 -323.5 79.35 -328.35 87.3 -332.75 91.5 L-336.4 88.5 Q-337.0 87.1 -337.1 85.4 L-337.15 82.45 Q-337.15 80.45 -336.25 77.2 -335.25 73.7 -334.0 71.5 -332.4 68.7 -328.95 65.0 -325.5 61.25 -324.1 60.8" fill="#e29803" fill-rule="evenodd" stroke="none"/>
      <path d="M-337.65 73.35 Q-338.85 72.95 -338.85 72.05 L-338.55 71.15 Q-338.1 69.25 -336.65 69.7 -335.1 70.15 -335.6 71.9 -335.8 72.6 -336.4 73.05 -337.0 73.5 -337.65 73.35" fill="#ffffff" fill-rule="evenodd" stroke="none"/>
      <path d="M-339.5 73.85 L-338.9 74.1 -338.55 75.25 Q-336.95 80.6 -335.25 82.5 -331.8 86.0 -331.65 88.35 -332.55 95.6 -334.15 98.6 -335.95 97.25 -338.0 91.95 -340.45 85.7 -340.45 80.25 L-340.15 77.45 -339.5 75.4 -339.5 73.85" fill="#be6102" fill-rule="evenodd" stroke="none"/>
      <path d="M-339.5 73.85 L-339.5 75.4 -340.15 77.45 -340.45 80.25 Q-340.45 85.7 -338.0 91.95 -335.95 97.25 -334.15 98.6 -334.9 100.05 -335.9 100.5 -341.95 93.85 -343.7 87.45 -345.65 80.4 -343.0 76.2 -341.25 73.55 -339.5 73.85" fill="#f37801" fill-rule="evenodd" stroke="none"/>
      <path d="M-342.5 79.65 Q-342.25 78.1 -341.8 77.6 -339.75 76.55 -339.7 78.9 L-339.75 82.6 -339.6 87.85 Q-339.35 91.4 -338.85 92.7 -341.35 91.65 -342.2 87.15 L-342.7 82.6 -342.5 79.65" fill="#ffffff" fill-rule="evenodd" stroke="none"/>
      <path d="M-253.25 52.2 Q-250.5 52.2 -246.7 53.45 -242.05 56.05 -240.95 59.25 -238.2 65.7 -240.0 71.6 -241.6 77.0 -243.5 79.3 -245.95 82.4 -249.9 83.25 L-250.95 82.6 Q-250.2 81.55 -249.15 78.65 -247.75 74.9 -247.75 72.3 -247.75 67.45 -248.9 62.2 -250.4 54.9 -253.25 52.7 L-253.25 52.2" fill="#f5c000" fill-rule="evenodd" stroke="none"/>
      <path d="M-253.25 52.2 L-253.25 52.7 Q-250.4 54.9 -248.9 62.2 -247.75 67.45 -247.75 72.3 -247.75 74.9 -249.15 78.65 -250.2 81.55 -250.95 82.6 L-249.9 83.25 -251.2 83.4 Q-253.75 83.4 -255.35 82.15 -255.05 71.75 -257.65 63.8 -259.05 57.2 -258.4 55.45 -257.15 52.65 -255.45 52.35 L-253.25 52.2" fill="#e29803" fill-rule="evenodd" stroke="none"/>
      <path d="M-245.35 61.6 L-246.0 58.65 Q-246.0 56.05 -243.9 57.65 -241.75 59.15 -241.75 61.95 -241.75 64.5 -243.45 64.5 -244.4 64.5 -245.35 61.6" fill="#ffffff" fill-rule="evenodd" stroke="none"/>
      <path d="M-252.9 78.0 L-250.05 73.35 Q-246.7 68.2 -245.25 67.8 -243.8 67.35 -242.6 69.7 -241.75 71.25 -241.9 73.45 L-242.7 73.45 -243.6 75.2 Q-245.2 77.85 -246.1 78.9 -247.85 80.85 -250.05 80.85 L-251.5 80.2 Q-252.6 79.3 -252.9 78.0" fill="#f37801" fill-rule="evenodd" stroke="none"/>
      <path d="M-241.9 73.45 L-242.3 75.7 Q-243.3 79.45 -245.5 83.75 -247.85 88.0 -252.85 89.35 -257.85 90.65 -256.05 85.6 L-253.75 79.5 -252.9 78.0 Q-252.6 79.3 -251.5 80.2 L-250.05 80.85 Q-247.85 80.85 -246.1 78.9 -245.2 77.85 -243.6 75.2 L-242.7 73.45 -241.9 73.45" fill="#be6102" fill-rule="evenodd" stroke="none"/>
      <path d="M-244.5 73.05 Q-246.55 84.5 -249.2 84.5 L-250.1 84.35 -250.25 83.7 -248.6 80.55 Q-246.85 77.25 -246.4 75.05 L-245.35 70.8 Q-244.5 68.75 -244.5 73.05" fill="#ffffff" fill-rule="evenodd" stroke="none"/>
      <path d="M-286.55 52.25 Q-280.55 52.6 -278.1 54.05 -275.75 55.45 -274.35 59.2 -273.55 61.2 -273.35 63.7 -273.35 66.45 -274.25 69.0 -275.25 71.5 -276.7 73.5 -278.1 75.45 -280.0 76.35 -282.0 77.3 -283.15 76.9 -284.35 76.35 -284.95 73.8 -285.55 71.15 -286.6 68.65 L-290.4 60.8 Q-291.85 58.1 -291.95 55.2 -290.1 51.65 -286.55 52.25" fill="#e29803" fill-rule="evenodd" stroke="none"/>
      <path d="M-277.8 74.55 Q-279.8 77.9 -281.6 78.55 -283.45 79.2 -284.9 77.05 L-285.4 70.0 Q-285.8 66.95 -284.05 64.25 -282.3 61.4 -278.95 60.45 L-276.7 66.2 Q-275.9 71.15 -277.8 74.55" fill="#be6102" fill-rule="evenodd" stroke="none"/>
      <path d="M-315.4 71.3 Q-319.5 64.1 -304.1 52.4 -288.65 40.65 -257.85 39.65 -248.0 42.0 -249.45 47.45 L-250.85 53.55 Q-252.45 54.2 -256.5 56.4 -260.6 58.55 -271.0 62.8 -281.4 67.0 -288.8 68.65 -296.2 70.3 -304.55 70.85 L-315.4 71.3" fill="#eeac5e" fill-rule="evenodd" stroke="none"/>
      <path d="M-315.4 71.3 Q-323.2 71.45 -322.2 64.45 -320.95 55.45 -316.3 51.5 -311.65 47.45 -307.95 45.35 -304.25 43.2 -303.1 42.3 L-296.55 38.5 Q-291.25 35.55 -284.8 33.2 -278.45 30.85 -263.65 31.6 -248.9 32.3 -245.55 40.85 -242.55 48.6 -250.85 53.55 L-249.45 47.45 Q-248.0 42.0 -257.85 39.65 -288.65 40.65 -304.1 52.4 -319.5 64.1 -315.4 71.3" fill="#996633" fill-rule="evenodd" stroke="none"/>
      <path d="M-292.75 41.85 L-292.7 42.65 Q-292.7 50.25 -296.95 52.75 L-297.0 52.85 -297.15 52.9 Q-299.2 53.9 -302.1 54.0 -306.35 54.0 -308.65 51.15 L-308.7 51.15 Q-311.0 48.35 -310.9 43.35 L-310.7 39.5 Q-312.2 41.1 -313.5 43.6 -317.95 51.7 -310.85 59.85 -307.35 63.75 -303.4 64.0 -299.45 64.1 -295.05 60.35 -286.7 53.15 -292.75 41.85 M-295.8 37.0 Q-293.75 37.95 -292.7 39.65 L-292.45 40.0 -292.45 39.95 Q-284.75 53.05 -294.3 61.2 -299.15 65.2 -303.45 65.05 -307.85 65.0 -311.65 60.6 -319.35 51.85 -314.5 43.05 -313.05 40.15 -311.2 38.4 L-311.0 37.9 -309.75 36.85 -309.25 36.7 -308.05 35.9 -308.05 36.0 Q-302.8 33.2 -295.8 37.0 M-261.6 26.5 L-261.6 26.45 -262.1 26.15 -260.8 28.1 -260.8 28.2 -260.2 30.1 -259.9 31.45 -260.0 31.35 Q-259.2 33.55 -259.85 37.65 L-259.85 37.75 -259.85 37.8 -259.9 37.95 Q-260.2 40.3 -261.8 41.6 L-261.9 41.7 -262.05 41.75 Q-263.8 43.3 -265.75 43.3 L-266.3 43.3 Q-264.15 44.8 -261.2 44.4 -259.2 44.1 -257.7 42.5 -254.95 39.7 -255.65 35.9 L-255.65 35.85 Q-255.95 34.0 -256.65 32.35 -257.5 30.45 -258.7 28.95 L-258.6 29.0 Q-258.75 28.85 -258.85 28.8 L-258.85 28.7 Q-260.05 27.4 -261.6 26.5 M-300.65 45.65 Q-301.5 47.3 -301.1 49.35 -300.8 50.7 -299.7 51.15 L-298.25 50.85 -297.15 49.6 Q-296.2 47.55 -296.95 45.5 -298.75 44.4 -300.65 45.65 M-265.2 24.15 L-265.15 24.15 -264.3 24.25 -264.25 24.25 Q-262.65 24.4 -260.95 25.5 -259.3 26.5 -258.0 27.95 L-257.8 28.2 -257.8 28.25 Q-256.4 29.85 -255.6 31.9 L-255.6 31.95 Q-254.9 33.7 -254.5 35.7 -253.75 40.0 -256.85 43.3 -258.6 45.2 -261.05 45.55 -265.6 46.15 -268.55 42.65 L-268.65 42.6 -268.85 42.35 -268.85 42.3 Q-271.8 38.9 -272.65 34.7 -273.35 31.75 -272.3 29.3 L-272.2 29.25 -271.2 27.8 -269.85 26.35 Q-267.95 24.6 -265.2 24.15 M-263.15 34.8 L-263.25 34.8 Q-264.9 35.0 -265.6 35.75 L-265.7 35.85 Q-266.3 36.45 -266.15 37.8 -266.05 39.25 -265.5 40.15 -265.05 40.8 -262.5 40.7 -261.25 39.65 -260.95 37.8 -261.8 34.55 -263.15 34.8" fill="#000000" fill-rule="evenodd" stroke="none"/>
      <path d="M-292.75 41.85 Q-286.7 53.15 -295.05 60.35 -299.45 64.1 -303.4 64.0 -307.35 63.75 -310.85 59.85 -317.95 51.7 -313.5 43.6 -312.2 41.1 -310.7 39.5 L-310.9 43.35 Q-311.0 48.35 -308.7 51.15 L-308.65 51.15 Q-306.35 54.0 -302.1 54.0 -299.2 53.9 -297.15 52.9 L-297.0 52.85 -296.95 52.75 Q-292.7 50.25 -292.7 42.65 L-292.75 41.85 M-300.65 45.65 Q-298.75 44.4 -296.95 45.5 -296.2 47.55 -297.15 49.6 L-298.25 50.85 -299.7 51.15 Q-300.8 50.7 -301.1 49.35 -301.5 47.3 -300.65 45.65 M-261.6 26.5 Q-260.05 27.4 -258.85 28.7 L-258.85 28.8 Q-258.75 28.85 -258.6 29.0 L-258.7 28.95 Q-257.5 30.45 -256.65 32.35 -255.95 34.0 -255.65 35.85 L-255.65 35.9 Q-254.95 39.7 -257.7 42.5 -259.2 44.1 -261.2 44.4 -264.15 44.8 -266.3 43.3 L-265.75 43.3 Q-263.8 43.3 -262.05 41.75 L-261.9 41.7 -261.8 41.6 Q-260.2 40.3 -259.9 37.95 L-259.85 37.8 -259.85 37.75 -259.85 37.65 Q-259.2 33.55 -260.0 31.35 L-259.9 31.45 -260.2 30.1 -260.8 28.2 -260.8 28.1 -262.1 26.15 -261.6 26.45 -261.6 26.5 M-263.15 34.8 Q-261.8 34.55 -260.95 37.8 -261.25 39.65 -262.5 40.7 -265.05 40.8 -265.5 40.15 -266.05 39.25 -266.15 37.8 -266.3 36.45 -265.7 35.85 L-265.6 35.75 Q-264.9 35.0 -263.25 34.8 L-263.15 34.8" fill="#ffffff" fill-rule="evenodd" stroke="none"/>
      <path d="M-282.7 -36.35 L-270.9 -18.5 -263.85 -7.2 Q-255.3 7.1 -249.8 18.3 -247.6 22.85 -246.1 26.65 -238.95 44.95 -247.4 47.75 -241.3 36.75 -261.05 32.6 -266.0 32.35 -270.9 32.8 -294.5 35.15 -316.45 54.6 -325.55 67.85 -316.45 70.55 -327.3 73.7 -334.05 61.35 L-334.45 60.5 -336.55 55.75 Q-340.0 42.65 -341.95 28.4 -344.0 13.55 -344.45 -2.7 L-344.45 -3.3 -344.45 -5.0 Q-344.75 -17.15 -344.1 -30.05 -343.0 -52.8 -339.2 -77.85 -336.25 -92.2 -324.55 -83.75 -317.5 -78.45 -310.4 -71.35 -301.5 -62.35 -292.55 -50.55 L-282.7 -36.35" fill="#ff5d60" fill-rule="evenodd" stroke="none"/>
      <path d="M-283.35 28.4 Q-303.65 32.1 -322.0 52.05 -329.5 57.55 -331.5 47.15 -343.95 -15.35 -334.15 -72.4 -332.1 -82.95 -325.05 -83.8 -277.6 -39.9 -246.1 29.3 -263.2 24.6 -283.35 28.4" fill="#b70541" fill-rule="evenodd" stroke="none"/>
      <path d="M-316.9 -76.9 Q-278.6 -39.4 -250.05 22.0 -284.4 3.15 -309.25 30.7 -318.5 44.0 -326.1 35.2 -336.4 -21.6 -333.3 -55.75 -330.2 -89.95 -316.9 -76.9" fill="#fdc2c4" fill-rule="evenodd" stroke="none"/>
      <path d="M-283.9 -35.45 L-283.9 -35.4 -293.75 -49.6 Q-302.65 -61.35 -311.45 -70.25 -318.5 -77.3 -325.5 -82.55 L-325.4 -82.55 Q-330.4 -86.1 -333.55 -85.05 -336.5 -83.65 -337.7 -77.5 L-338.0 -76.85 Q-337.85 -76.55 -337.95 -76.1 -341.5 -51.95 -342.55 -29.95 -343.25 -17.1 -342.95 -4.95 L-342.95 -3.3 -342.95 -3.0 -342.95 -2.7 Q-342.5 13.4 -340.45 28.3 -338.45 42.4 -335.05 55.4 L-335.1 55.25 -333.05 59.85 Q-332.9 60.1 -332.9 60.4 L-332.7 60.7 Q-328.0 69.35 -321.0 69.65 -322.6 67.9 -322.5 65.25 -322.6 60.9 -317.65 53.8 L-317.45 53.5 Q-290.5 29.6 -260.95 31.1 L-260.75 31.15 Q-251.55 33.05 -247.55 37.0 -245.05 39.45 -244.25 42.65 -243.75 36.8 -247.45 27.3 -249.0 23.5 -251.2 19.05 -256.65 7.85 -265.15 -6.35 -273.2 -19.6 -283.9 -35.45 M-281.4 -37.15 Q-270.6 -21.3 -262.55 -7.9 -253.9 6.45 -248.45 17.75 L-244.65 26.15 Q-240.7 36.35 -241.55 42.95 -242.35 49.45 -244.9 51.2 -247.45 52.95 -249.75 53.4 -252.1 53.85 -251.2 53.05 L-249.95 52.05 -248.6 50.3 Q-247.45 48.65 -247.15 46.75 -246.95 44.85 -247.45 42.85 -248.0 40.8 -249.6 39.2 -253.25 35.85 -261.2 34.15 -289.45 32.75 -315.3 55.7 -319.4 61.7 -319.5 65.25 -319.4 68.15 -316.0 69.1 L-315.25 69.65 Q-314.95 70.05 -314.95 70.55 -314.95 71.1 -315.25 71.45 L-316.0 72.0 Q-328.0 75.65 -335.35 62.15 L-335.6 61.6 -335.8 61.2 -337.95 56.3 -338.0 56.15 Q-341.5 43.0 -343.45 28.65 -345.5 13.7 -346.0 -2.6 L-345.9 -3.0 -346.0 -3.3 -346.0 -4.9 -346.0 -4.95 Q-346.3 -17.1 -345.6 -30.1 -344.55 -52.25 -340.95 -76.55 L-340.6 -77.3 Q-340.8 -77.65 -340.65 -78.15 -339.0 -86.3 -334.6 -87.85 -330.4 -89.8 -323.65 -84.95 -316.55 -79.55 -309.3 -72.35 -300.35 -63.3 -291.35 -51.4 L-291.25 -51.35 -281.4 -37.15" fill="#ff5d60" fill-rule="evenodd" stroke="none"/>
      <path d="M-327.1 42.75 L-327.15 42.75 Q-331.25 45.05 -333.2 51.7 -334.65 56.8 -334.15 60.35 L-333.85 61.05 -333.75 61.55 -334.15 62.05 -334.75 62.1 -335.2 61.7 -335.6 60.8 -335.65 60.65 Q-336.35 56.85 -334.6 51.25 -332.45 43.8 -327.9 41.4 L-327.9 41.45 Q-327.7 41.25 -319.1 37.95 -314.35 36.0 -309.7 28.1 -305.05 19.85 -297.55 13.55 -289.95 7.0 -278.65 10.55 -267.8 13.9 -258.15 21.25 -249.15 28.05 -246.8 26.15 -246.6 25.9 -246.25 25.9 -245.95 25.9 -245.7 26.2 L-245.5 26.75 -245.8 27.25 Q-248.85 30.25 -259.0 22.5 -268.55 15.25 -279.1 12.0 -289.5 8.65 -296.55 14.65 -303.85 20.75 -308.4 28.85 -313.35 37.35 -318.65 39.4 -326.95 42.6 -327.1 42.75 M-332.45 19.55 Q-326.0 14.75 -315.9 -3.1 -305.5 -21.9 -289.9 -14.95 -275.1 -8.4 -264.0 -7.95 L-263.45 -7.7 Q-263.3 -7.5 -263.3 -7.1 -263.3 -6.8 -263.55 -6.6 L-264.1 -6.45 Q-275.4 -6.9 -290.4 -13.55 -304.9 -19.8 -314.7 -2.35 -324.95 15.95 -331.55 20.75 -338.1 25.5 -341.9 29.0 L-342.5 29.15 -343.0 28.95 -343.25 28.4 Q-343.25 28.05 -342.95 27.85 -339.05 24.3 -332.45 19.55 M-319.85 -79.5 L-319.95 -79.0 -320.45 -78.6 -321.1 -78.7 Q-324.8 -80.9 -327.15 -80.9 -330.25 -80.8 -332.75 -76.55 -337.25 -68.9 -339.6 -66.7 L-340.15 -66.45 -340.6 -66.7 -340.8 -67.25 -340.6 -67.75 Q-338.45 -69.95 -334.05 -77.3 -331.0 -82.5 -327.15 -82.4 -324.5 -82.4 -320.25 -80.0 L-319.85 -79.5 M-314.4 -60.7 Q-307.35 -56.3 -300.35 -56.6 L-297.65 -56.35 Q-296.8 -56.05 -295.65 -53.85 L-295.6 -53.35 -295.95 -52.9 -296.55 -52.8 -297.0 -53.2 Q-297.7 -54.7 -298.15 -54.95 L-298.25 -55.0 -300.35 -55.1 Q-307.7 -54.8 -315.25 -59.4 -318.6 -61.55 -321.0 -60.85 -323.35 -60.15 -325.05 -56.75 -328.65 -49.15 -331.65 -45.65 -338.1 -38.15 -343.95 -29.6 L-344.4 -29.3 Q-344.7 -29.2 -344.9 -29.45 L-345.35 -29.9 -345.15 -30.4 Q-339.35 -39.05 -332.75 -46.65 -329.9 -50.05 -326.3 -57.45 -324.4 -61.6 -321.4 -62.35 -318.4 -63.2 -314.4 -60.7 M-310.25 -70.8 Q-310.45 -70.55 -310.75 -70.55 -312.05 -70.55 -318.6 -73.3 -322.0 -74.8 -324.9 -74.8 -330.35 -74.65 -333.3 -63.8 -337.4 -48.5 -342.25 -43.55 -342.5 -43.3 -342.8 -43.3 -343.1 -43.3 -343.3 -43.55 L-343.55 -44.1 -343.3 -44.6 Q-338.75 -49.4 -334.65 -64.2 -331.4 -76.5 -324.9 -76.35 -321.7 -76.35 -317.95 -74.65 -311.9 -72.1 -310.75 -72.1 L-310.25 -71.85 -310.0 -71.35 Q-310.0 -71.0 -310.25 -70.8 M-282.2 -34.45 L-282.5 -33.9 -283.2 -33.85 -285.55 -33.4 -285.65 -33.4 -288.9 -32.7 Q-294.0 -32.6 -301.1 -38.55 -307.65 -44.0 -310.25 -44.1 -315.7 -44.0 -318.6 -36.65 -321.75 -28.6 -328.05 -24.35 -334.15 -20.45 -338.75 -14.5 -343.4 -8.7 -344.15 -3.15 L-344.15 -2.7 Q-344.15 -2.4 -344.4 -2.2 -344.6 -1.95 -344.9 -1.95 -345.3 -1.95 -345.5 -2.2 L-345.75 -2.7 -345.75 -3.3 -345.75 -3.4 Q-344.85 -9.3 -340.05 -15.4 -335.2 -21.55 -328.9 -25.65 -322.9 -29.65 -319.95 -37.15 -316.75 -45.65 -310.25 -45.6 -307.35 -45.65 -300.15 -39.7 -293.6 -34.3 -288.9 -34.2 L-286.15 -34.8 Q-284.05 -35.65 -282.85 -35.35 L-282.3 -34.95 -282.2 -34.45" fill="#ff5d60" fill-rule="evenodd" stroke="none"/>
      <path d="M-285.0 27.35 Q-291.35 27.35 -293.1 24.4 L-293.65 21.45 Q-293.65 13.85 -285.45 14.7 -282.2 15.0 -279.85 16.9 -277.25 18.95 -277.25 21.65 -277.25 27.35 -285.0 27.35" fill="#ffffff" fill-rule="evenodd" stroke="none"/>
      <path d="M-292.45 -2.55 Q-292.45 -0.5 -292.75 0.2 -293.6 2.15 -296.7 2.15 -301.7 2.15 -304.05 -1.8 -305.5 -4.2 -305.5 -6.25 -305.5 -9.05 -303.45 -10.5 -301.55 -11.8 -298.95 -11.35 -292.45 -10.2 -292.45 -2.55" fill="#ffffff" fill-rule="evenodd" stroke="none"/>
      <path d="M-307.85 -31.8 Q-306.4 -29.45 -306.4 -28.25 L-306.5 -27.1 Q-306.7 -26.4 -307.65 -26.4 -311.65 -26.4 -313.95 -30.5 -315.5 -33.4 -315.5 -36.0 -315.5 -38.7 -313.25 -39.7 -310.8 -40.85 -309.5 -35.75 -309.35 -34.25 -307.85 -31.8" fill="#ffffff" fill-rule="evenodd" stroke="none"/>
      <path d="M-318.7 -57.45 Q-315.2 -55.4 -315.2 -51.6 -315.2 -48.9 -317.2 -48.9 -320.35 -48.9 -321.6 -52.05 L-322.2 -55.5 Q-322.2 -59.5 -318.7 -57.45" fill="#ffffff" fill-rule="evenodd" stroke="none"/>
      <path d="M-321.7 -68.35 Q-321.7 -67.1 -322.45 -66.8 L-324.0 -66.65 Q-325.75 -66.65 -326.55 -67.95 -327.15 -68.85 -327.15 -69.75 -327.15 -72.1 -324.45 -71.3 L-323.0 -70.7 -322.7 -70.45 Q-321.7 -69.7 -321.7 -68.35" fill="#ffffff" fill-rule="evenodd" stroke="none"/>
      <path d="M-330.05 -78.0 Q-330.05 -79.8 -328.1 -79.55 -326.2 -79.3 -326.2 -77.5 -326.2 -75.45 -328.35 -75.45 -329.3 -75.45 -329.75 -76.7 L-330.05 -78.0" fill="#ffffff" fill-rule="evenodd" stroke="none"/>
      <path d="M-303.0 101.05 Q-303.85 103.0 -304.7 103.25 L-307.8 103.4 Q-309.1 102.95 -311.75 100.8 -317.45 96.1 -318.9 91.7 -320.4 87.25 -320.45 86.1 -321.7 78.2 -317.75 72.05 -314.1 66.3 -307.85 69.9 -307.5 70.05 -307.1 70.4 L-308.35 70.9 Q-309.55 76.55 -309.55 80.7 -309.55 87.75 -307.55 93.55 -305.85 98.85 -303.0 101.05" fill="#f5c000" fill-rule="evenodd" stroke="none"/>
      <path d="M-307.1 70.4 Q-300.45 74.95 -300.2 85.5 -300.15 87.45 -301.5 95.1 -302.25 99.0 -303.0 101.05 -305.85 98.85 -307.55 93.55 -309.55 87.75 -309.55 80.7 -309.55 76.55 -308.35 70.9 L-307.1 70.4" fill="#e29803" fill-rule="evenodd" stroke="none"/>
      <path d="M-317.15 76.6 L-317.45 75.45 Q-317.45 73.25 -315.75 72.9 -314.1 72.6 -314.1 75.1 -314.1 76.35 -314.25 76.85 -314.55 77.6 -315.6 77.6 -316.6 77.6 -317.15 76.6" fill="#ffffff" fill-rule="evenodd" stroke="none"/>
      <path d="M-308.35 83.6 Q-308.8 83.45 -308.7 86.3 -308.65 89.2 -307.4 95.9 -306.2 102.55 -307.7 102.7 -309.3 102.8 -313.95 96.7 -317.8 91.8 -318.2 89.5 L-318.25 89.5 -318.25 89.35 -318.25 88.65 Q-318.25 84.95 -315.3 79.65 -313.35 77.45 -310.6 80.7 L-308.35 83.6" fill="#f37801" fill-rule="evenodd" stroke="none"/>
      <path d="M-318.25 89.5 L-318.2 89.5 Q-317.8 91.8 -313.95 96.7 -309.3 102.8 -307.7 102.7 -306.2 102.55 -307.4 95.9 -308.65 89.2 -308.7 86.3 -308.8 83.45 -308.35 83.6 L-304.7 88.3 Q-301.8 91.95 -301.8 96.8 L-301.8 110.45 Q-311.15 106.75 -314.55 100.05 -317.95 93.3 -318.25 89.5" fill="#be6102" fill-rule="evenodd" stroke="none"/>
      <path d="M-310.55 98.3 L-308.55 101.55 Q-308.55 102.35 -308.8 102.65 L-309.9 102.95 Q-312.8 102.95 -314.95 95.75 L-316.45 88.45 Q-316.45 84.5 -315.3 87.15 L-313.35 92.85 Q-312.65 94.9 -310.55 98.3" fill="#ffffff" fill-rule="evenodd" stroke="none"/>
      <path d="M-273.5 43.7 Q-270.65 42.05 -267.25 41.8 L-264.65 41.95 Q-260.65 42.6 -257.85 46.3 -254.2 51.15 -254.6 57.0 L-254.6 57.55 Q-255.2 63.0 -258.85 66.95 -262.6 71.05 -268.0 71.05 L-268.45 71.05 Q-272.8 68.6 -274.9 64.8 -276.95 61.2 -276.95 55.8 -276.95 52.9 -275.7 48.9 -274.45 44.85 -273.5 43.7 M-269.3 50.65 Q-271.5 51.85 -271.6 56.95 -271.65 65.35 -265.8 63.0 L-265.6 62.9 -265.45 62.85 -265.05 62.6 -264.75 62.45 Q-263.1 59.95 -262.7 57.55 -262.25 54.2 -264.2 51.1 -264.3 51.0 -264.35 51.0 L-264.5 50.95 -264.65 50.95 -264.9 50.85 -265.0 50.85 -269.3 50.65" fill="#eeac5e" fill-rule="evenodd" stroke="none"/>
      <path d="M-269.3 50.65 L-265.0 50.85 -264.9 50.85 -264.65 50.95 -264.5 50.95 -264.35 51.0 Q-264.3 51.0 -264.2 51.1 -262.25 54.2 -262.7 57.55 -263.1 59.95 -264.75 62.45 L-265.05 62.6 -265.45 62.85 -265.6 62.9 -265.8 63.0 Q-271.65 65.35 -271.6 56.95 -271.5 51.85 -269.3 50.65" fill="url(#gradient0)" fill-rule="evenodd" stroke="none"/>
      <path d="M-268.45 71.05 Q-273.55 70.9 -277.2 66.95 -279.45 64.45 -280.4 61.4 L-280.85 59.45 -281.0 57.75 -281.0 57.7 -281.0 57.55 -281.0 57.0 -281.0 56.55 -280.9 56.1 -280.9 55.65 -280.85 55.05 -280.6 53.75 -280.3 52.6 -280.25 52.3 -279.7 50.85 -279.15 49.8 -278.8 49.2 -277.75 47.3 -278.4 45.6 -280.0 43.05 Q-280.75 41.8 -280.55 41.5 -280.4 41.2 -279.7 41.8 L-278.5 43.35 -278.35 43.5 -277.5 44.4 -277.9 44.0 -276.65 45.25 -275.9 45.45 -275.15 44.95 -273.5 43.7 Q-274.45 44.85 -275.7 48.9 -276.95 52.9 -276.95 55.8 -276.95 61.2 -274.9 64.8 -272.8 68.6 -268.45 71.05" fill="#996633" fill-rule="evenodd" stroke="none"/>
      <path d="M-264.65 49.4 Q-267.25 49.4 -268.85 47.65 -270.0 46.4 -270.0 45.45 -270.0 43.1 -266.35 44.2 -262.7 45.3 -262.7 47.65 -262.7 48.5 -262.95 48.8 -263.3 49.4 -264.65 49.4" fill="#ffffff" fill-rule="evenodd" stroke="none"/>
      <path d="M-263.6 65.95 Q-263.6 67.1 -264.2 68.0 -265.2 69.45 -267.4 69.45 -269.55 69.45 -270.0 68.3 L-270.0 67.1 Q-270.0 65.3 -266.8 64.2 -263.6 63.15 -263.6 65.95" fill="#ffffff" fill-rule="evenodd" stroke="none"/>
    </g>
    <linearGradient gradientTransform="matrix(0.0055, 0.0, 0.0, 0.0081, -267.1, 56.85)" gradientUnits="userSpaceOnUse" id="gradient0" spreadMethod="pad" x1="-819.2" x2="819.2">
      <stop offset="0.0" stop-color="#221b1a"/>
      <stop offset="1.0" stop-color="#a7997a"/>
    </linearGradient>
  </defs>
</svg>
