<?xml version="1.0" encoding="UTF-8" standalone="no"?>
<svg xmlns:xlink="http://www.w3.org/1999/xlink" height="335.4px" width="321.95px" xmlns="http://www.w3.org/2000/svg">
  <g transform="matrix(1.0, 0.0, 0.0, 1.0, 0.0, 0.0)">
    <use height="335.4" transform="matrix(1.0, 0.0, 0.0, 1.0, 0.0, 0.0)" width="321.95" xlink:href="#shape0"/>
  </g>
  <defs>
    <g id="shape0" transform="matrix(1.0, 0.0, 0.0, 1.0, 0.0, 0.0)">
      <path d="M282.05 214.55 L283.8 214.95 Q291.5 217.05 290.35 224.35 289.05 232.4 281.75 235.15 274.4 237.9 252.65 225.55 230.85 213.25 223.1 199.7 215.3 186.15 213.65 178.55 212.95 172.85 220.9 175.6 228.8 178.3 242.25 192.15 L247.15 196.65 246.85 197.0 Q246.5 199.95 248.45 204.55 250.5 209.25 254.1 213.6 263.05 224.4 273.95 224.4 278.95 224.4 281.95 219.25 283.3 216.9 283.75 215.1 L282.05 214.55" fill="#e39902" fill-rule="evenodd" stroke="none"/>
      <path d="M282.05 214.55 L283.75 215.1 Q283.3 216.9 281.95 219.25 278.95 224.4 273.95 224.4 263.05 224.4 254.1 213.6 250.5 209.25 248.45 204.55 246.5 199.95 246.85 197.0 L247.15 196.65 Q260.1 207.4 282.05 214.55" fill="#ffd200" fill-rule="evenodd" stroke="none"/>
      <path d="M162.75 271.7 Q152.7 244.85 155.15 214.3 160.45 208.45 170.55 208.1 182.65 219.6 182.35 236.5 180.3 266.8 162.75 271.7" fill="#000000" fill-rule="evenodd" stroke="none"/>
      <path d="M278.15 213.25 L276.9 214.2 285.25 213.5 Q290.3 213.4 294.05 216.8 295.2 217.85 296.0 219.2 298.55 223.2 300.3 227.3 302.1 231.4 303.35 235.5 304.7 239.9 304.1 244.65 L303.85 246.6 303.15 247.3 Q300.75 249.5 298.25 249.0 L282.05 246.4 Q267.7 244.55 270.25 228.55 271.8 218.75 276.9 214.2 L277.85 213.45 Q278.0 213.3 278.15 213.25" fill="#c56302" fill-rule="evenodd" stroke="none"/>
      <path d="M303.85 246.6 L304.1 244.65 Q304.7 239.9 303.35 235.5 302.1 231.4 300.3 227.3 298.55 223.2 296.0 219.2 295.2 217.85 294.05 216.8 290.3 213.4 285.25 213.5 L276.9 214.2 278.15 213.25 Q281.85 211.1 286.3 210.4 L295.05 209.95 Q299.5 210.4 302.85 213.3 306.1 216.0 308.1 219.8 310.4 224.2 310.5 229.15 310.6 233.75 308.8 237.95 307.2 241.7 303.85 246.6" fill="#ff7e00" fill-rule="evenodd" stroke="none"/>
      <path d="M44.15 219.9 Q37.5 222.6 29.75 222.2 16.1 220.3 17.9 210.8 19.65 201.5 26.85 201.2 36.6 200.85 46.35 203.7 56.95 206.4 71.75 204.9 83.1 205.5 83.25 212.15 83.35 218.75 71.85 218.9 52.65 217.6 44.15 219.9" fill="#e39902" fill-rule="evenodd" stroke="none"/>
      <path d="M44.15 219.9 Q52.65 217.6 71.85 218.9 83.35 218.75 83.25 212.15 83.1 205.5 71.75 204.9 56.95 206.4 46.35 203.7 36.6 200.85 26.85 201.2 19.65 201.5 17.9 210.8 16.1 220.3 29.75 222.2 37.5 222.6 44.15 219.9 Z" fill="none" stroke="#0000ff" stroke-linecap="round" stroke-linejoin="round" stroke-width="2.0"/>
      <path d="M17.25 209.6 L18.65 209.6 Q21.9 210.9 24.05 216.7 25.85 221.55 25.85 226.0 25.85 233.4 24.25 239.2 22.0 247.2 17.45 247.2 13.15 247.2 9.9 241.75 6.6 236.25 6.3 232.8 5.95 229.35 6.2 227.25 7.4 219.7 5.35 222.7 L6.85 220.25 8.7 217.55 Q13.3 211.2 17.25 209.6" fill="#ffd200" fill-rule="evenodd" stroke="none"/>
      <path d="M17.25 209.6 Q19.1 208.5 19.9 208.25 27.85 205.5 33.85 207.7 38.25 209.4 37.4 217.5 33.85 251.45 26.3 265.45 24.45 268.85 17.55 265.3 6.75 259.65 2.0 251.05 -2.75 242.45 3.75 225.6 L5.35 222.7 Q7.4 219.7 6.2 227.25 5.95 229.35 6.3 232.8 6.6 236.25 9.9 241.75 13.15 247.2 17.45 247.2 22.0 247.2 24.25 239.2 25.85 233.4 25.85 226.0 25.85 221.55 24.05 216.7 21.9 210.9 18.65 209.6 L17.25 209.6" fill="#e39902" fill-rule="evenodd" stroke="none"/>
      <path d="M24.6 271.8 L23.85 271.6 Q23.45 272.5 22.2 272.7 L20.05 272.75 Q19.2 272.6 17.5 271.4 15.8 270.2 13.85 267.6 8.25 259.95 8.25 249.5 8.25 246.35 8.85 244.65 L10.3 241.1 Q11.75 241.95 13.05 243.4 16.05 246.6 20.95 253.65 25.9 260.65 25.5 264.7 L24.6 271.8" fill="#ff7e00" fill-rule="evenodd" stroke="none"/>
      <path d="M24.6 271.8 Q23.55 277.6 21.95 277.8 16.65 278.4 12.35 273.7 5.45 266.2 3.05 256.2 L2.8 255.1 Q0.95 243.65 6.25 239.8 8.4 239.95 10.3 241.1 L8.85 244.65 Q8.25 246.35 8.25 249.5 8.25 259.95 13.85 267.6 15.8 270.2 17.5 271.4 19.2 272.6 20.05 272.75 L22.2 272.7 Q23.45 272.5 23.85 271.6 L24.6 271.8" fill="#be5f03" fill-rule="evenodd" stroke="none"/>
      <path d="M149.85 172.25 Q183.0 161.35 201.85 160.0 224.7 161.75 232.25 181.2 238.45 201.75 233.5 216.5 228.5 231.2 203.15 237.25 177.75 243.25 121.75 232.45 L78.65 228.4 Q64.25 224.1 55.05 211.85 45.8 199.6 55.1 188.0 64.35 176.4 90.5 179.8 116.65 183.1 149.85 172.25" fill="#edaa67" fill-rule="evenodd" stroke="none"/>
      <path d="M132.85 205.2 L132.25 213.4 Q133.15 228.4 142.05 240.0 L143.45 242.15 143.65 242.55 Q143.45 243.9 141.25 246.1 138.25 249.0 135.05 249.0 130.9 249.0 127.85 243.4 124.65 237.5 124.65 228.7 124.65 219.35 126.85 213.95 128.35 210.3 132.85 205.2" fill="#e39902" fill-rule="evenodd" stroke="none"/>
      <path d="M143.65 242.55 Q148.95 252.0 144.45 262.4 139.0 272.9 115.75 268.3 98.35 262.2 101.4 245.85 104.4 229.45 110.75 217.55 115.2 209.25 115.05 200.2 115.25 195.35 125.95 194.15 133.9 193.5 133.4 198.5 L132.85 205.2 Q128.35 210.3 126.85 213.95 124.65 219.35 124.65 228.7 124.65 237.5 127.85 243.4 130.9 249.0 135.05 249.0 138.25 249.0 141.25 246.1 143.45 243.9 143.65 242.55" fill="#ea881b" fill-rule="evenodd" stroke="none"/>
      <path d="M184.15 212.9 Q166.35 209.6 142.75 191.4 164.35 204.0 182.15 207.3 199.9 210.6 213.25 202.65 226.55 194.7 228.75 179.0 228.55 200.3 215.25 208.25 201.9 216.2 184.15 212.9" fill="#b36214" fill-rule="evenodd" stroke="none"/>
      <path d="M153.55 194.2 Q156.6 192.6 160.25 192.6 167.25 192.6 172.25 198.5 L172.65 199.0 Q175.15 202.1 176.4 205.9 177.65 209.65 177.65 214.1 177.65 222.95 172.65 229.25 167.5 235.6 160.25 235.6 153.0 235.6 147.9 229.25 142.85 222.95 142.85 214.1 142.85 205.25 147.9 199.0 149.05 197.5 150.35 196.4 151.85 195.05 153.55 194.2 M164.05 198.4 Q167.45 198.4 169.85 202.15 172.25 205.9 172.25 211.2 172.25 216.5 169.85 220.25 167.45 224.0 164.05 224.0 160.65 224.0 158.25 220.25 155.85 216.5 155.85 211.2 155.85 205.9 158.25 202.15 160.65 198.4 164.05 198.4 M226.55 184.6 Q223.0 184.7 220.45 189.65 217.65 195.1 217.65 202.8 217.65 210.5 220.45 215.9 223.0 220.9 226.55 221.0 230.1 220.9 232.65 215.9 235.45 210.5 235.45 202.8 235.45 195.1 232.65 189.65 230.1 184.7 226.55 184.6 M149.45 228.0 Q153.9 233.6 160.25 233.6 166.6 233.6 171.1 228.0 175.65 222.25 175.65 214.1 175.65 205.95 171.1 200.25 166.6 194.6 160.25 194.6 153.9 194.6 149.45 200.25 144.85 205.95 144.85 214.1 144.85 222.25 149.45 228.0 M164.7 209.8 Q163.65 211.2 163.65 213.15 163.65 215.1 164.7 216.5 165.8 217.9 167.35 217.9 168.9 217.9 169.95 216.5 171.05 215.1 171.05 213.15 171.05 211.2 169.95 209.8 168.9 208.4 167.35 208.4 165.8 208.4 164.7 209.8 M225.5 182.7 L226.55 182.6 Q230.3 182.5 233.1 186.55 L234.45 188.75 Q235.55 190.85 236.25 193.3 237.45 197.55 237.45 202.8 237.45 210.2 235.05 215.6 L234.45 216.8 Q230.2 223.1 226.55 223.0 221.9 223.1 218.65 216.8 215.65 211.0 215.65 202.8 215.65 194.6 218.65 188.75 220.75 184.65 223.5 183.3 224.45 182.8 225.5 182.7 M227.3 207.65 Q227.9 206.5 227.9 204.85 227.9 203.2 227.3 202.05 226.75 200.9 225.9 200.9 225.05 200.9 224.45 202.05 224.05 202.9 223.95 204.05 L223.9 204.85 Q223.9 206.5 224.45 207.65 L225.1 208.5 225.9 208.8 Q226.75 208.8 227.3 207.65 M232.85 202.2 Q232.85 206.2 231.35 209.0 229.85 211.8 227.75 211.8 225.65 211.8 224.15 209.0 L223.9 208.5 Q223.0 206.55 222.75 204.05 L222.65 202.2 Q222.65 198.2 224.15 195.4 225.65 192.6 227.75 192.6 229.85 192.6 231.35 195.4 232.85 198.2 232.85 202.2" fill="#000000" fill-rule="evenodd" stroke="none"/>
      <path d="M164.05 198.4 Q160.65 198.4 158.25 202.15 155.85 205.9 155.85 211.2 155.85 216.5 158.25 220.25 160.65 224.0 164.05 224.0 167.45 224.0 169.85 220.25 172.25 216.5 172.25 211.2 172.25 205.9 169.85 202.15 167.45 198.4 164.05 198.4 M164.7 209.8 Q165.8 208.4 167.35 208.4 168.9 208.4 169.95 209.8 171.05 211.2 171.05 213.15 171.05 215.1 169.95 216.5 168.9 217.9 167.35 217.9 165.8 217.9 164.7 216.5 163.65 215.1 163.65 213.15 163.65 211.2 164.7 209.8 M149.45 228.0 Q144.85 222.25 144.85 214.1 144.85 205.95 149.45 200.25 153.9 194.6 160.25 194.6 166.6 194.6 171.1 200.25 175.65 205.95 175.65 214.1 175.65 222.25 171.1 228.0 166.6 233.6 160.25 233.6 153.9 233.6 149.45 228.0 M226.55 184.6 Q230.1 184.7 232.65 189.65 235.45 195.1 235.45 202.8 235.45 210.5 232.65 215.9 230.1 220.9 226.55 221.0 223.0 220.9 220.45 215.9 217.65 210.5 217.65 202.8 217.65 195.1 220.45 189.65 223.0 184.7 226.55 184.6 M227.3 207.65 Q226.75 208.8 225.9 208.8 L225.1 208.5 224.45 207.65 Q223.9 206.5 223.9 204.85 L223.95 204.05 Q224.05 202.9 224.45 202.05 225.05 200.9 225.9 200.9 226.75 200.9 227.3 202.05 227.9 203.2 227.9 204.85 227.9 206.5 227.3 207.65 M232.85 202.2 Q232.85 198.2 231.35 195.4 229.85 192.6 227.75 192.6 225.65 192.6 224.15 195.4 222.65 198.2 222.65 202.2 L222.75 204.05 Q223.0 206.55 223.9 208.5 L224.15 209.0 Q225.65 211.8 227.75 211.8 229.85 211.8 231.35 209.0 232.85 206.2 232.85 202.2" fill="#ffffff" fill-rule="evenodd" stroke="none"/>
      <path d="M153.55 194.2 Q151.85 195.05 150.35 196.4 149.05 197.5 147.9 199.0 142.85 205.25 142.85 214.1 142.85 222.95 147.9 229.25 153.0 235.6 160.25 235.6 167.5 235.6 172.65 229.25 177.65 222.95 177.65 214.1 177.65 209.65 176.4 205.9 175.15 202.1 172.65 199.0 L172.25 198.5 Q167.25 192.6 160.25 192.6 156.6 192.6 153.55 194.2 M162.9 189.35 Q169.05 190.4 174.0 196.85 L174.6 197.7 Q176.85 200.9 178.25 205.15 L176.4 205.9 178.3 205.4 Q179.45 209.2 179.95 213.75 L180.0 214.3 Q181.0 225.3 176.15 232.15 171.3 239.0 162.05 238.9 152.85 238.8 146.15 231.0 L146.2 231.0 145.85 230.65 Q139.45 222.9 139.7 211.85 139.95 200.6 148.35 194.45 L152.15 192.0 Q158.15 188.55 162.9 189.35 M234.45 216.8 L233.4 219.45 Q229.75 226.6 224.55 226.6 219.35 226.6 215.7 219.45 214.6 217.3 213.85 214.95 L213.3 213.0 Q212.05 208.1 212.05 202.2 212.05 192.1 217.0 187.85 L217.55 187.35 Q221.95 183.5 223.4 183.1 L225.5 182.7 Q224.45 182.8 223.5 183.3 220.75 184.65 218.65 188.75 215.65 194.6 215.65 202.8 215.65 211.0 218.65 216.8 221.9 223.1 226.55 223.0 230.2 223.1 234.45 216.8" fill="#b36214" fill-rule="evenodd" stroke="none"/>
      <path d="M132.05 306.55 L131.45 306.0 Q118.9 310.95 114.75 287.05 110.55 263.15 112.7 250.95 114.85 238.7 115.75 236.95 116.6 235.15 121.05 232.4 L120.95 232.05 Q130.15 229.5 137.5 234.35 150.15 242.65 149.8 258.2 149.25 281.95 132.3 306.15 L132.05 306.55" fill="#ffd200" fill-rule="evenodd" stroke="none"/>
      <path d="M110.2 237.15 L108.15 240.35 Q103.85 248.5 103.85 265.0 103.85 277.2 109.55 292.65 115.05 307.65 121.5 312.8 116.2 312.5 109.85 304.7 103.0 296.2 97.25 270.6 95.0 250.2 110.15 237.2 L110.2 237.15" fill="#f66d43" fill-rule="evenodd" stroke="none"/>
      <path d="M120.95 232.05 L121.05 232.4 Q116.6 235.15 115.75 236.95 114.85 238.7 112.7 250.95 110.55 263.15 114.75 287.05 118.9 310.95 131.45 306.0 L132.05 306.55 Q127.8 312.4 122.35 312.8 L121.5 312.8 Q115.05 307.65 109.55 292.65 103.85 277.2 103.85 265.0 103.85 248.5 108.15 240.35 L110.2 237.15 Q115.85 233.45 120.95 232.05" fill="#e39902" fill-rule="evenodd" stroke="none"/>
      <path d="M213.75 203.45 Q200.4 211.4 182.65 208.1 164.85 204.8 143.25 192.2 181.45 167.65 229.25 179.8 227.05 195.5 213.75 203.45" fill="#000000" fill-rule="evenodd" stroke="none"/>
      <path d="M213.5 192.55 Q215.8 191.95 215.8 194.3 215.8 195.2 215.4 195.9 214.75 197.05 213.35 197.05 211.9 197.05 211.4 195.95 L211.15 194.75 Q211.15 193.15 213.5 192.55 M213.6 195.65 L213.65 195.65 213.6 195.65 M206.05 199.95 Q206.45 200.6 206.4 201.3 206.4 202.5 184.75 203.8 176.9 203.8 172.85 200.65 169.8 197.15 168.15 196.5 169.3 196.4 170.25 197.1 L172.3 198.7 Q175.95 201.2 184.45 201.2 L193.05 199.95 Q198.8 198.65 203.35 198.65 205.3 198.65 206.05 199.95 M194.25 201.6 L194.6 201.6 194.45 201.55 194.25 201.6" fill="#ffd7d9" fill-rule="evenodd" stroke="none"/>
      <path d="M276.75 210.55 L276.2 211.4 Q272.0 217.75 267.4 217.1 262.8 216.45 260.4 213.65 L252.4 203.35 Q246.8 195.9 227.8 187.4 208.8 178.9 174.25 188.4 149.95 197.2 131.55 210.45 118.1 220.1 111.85 222.8 92.45 231.25 82.2 234.0 64.25 238.8 42.45 236.4 15.8 230.15 12.45 215.0 11.8 209.9 12.0 205.45 12.25 199.75 13.85 195.1 34.75 221.4 76.25 210.05 117.75 198.65 143.2 188.35 166.75 178.8 181.75 176.3 182.85 175.75 184.05 175.6 198.3 173.5 212.6 172.95 239.2 174.75 255.7 183.25 271.3 191.3 276.05 210.75 L276.75 210.55" fill="#ff5d60" fill-rule="evenodd" stroke="none"/>
      <path d="M272.8 150.6 L272.55 151.5 271.25 150.3 272.8 150.6 M226.15 140.1 Q219.25 136.4 210.3 134.6 L205.3 134.45 Q197.7 135.35 187.35 142.7 185.75 135.8 181.3 130.0 173.6 120.0 157.45 113.2 139.15 129.0 132.15 151.65 121.95 150.35 112.85 153.2 91.85 162.7 80.55 172.85 69.1 155.55 49.45 148.7 42.6 163.7 44.9 180.3 34.55 177.85 31.05 178.6 30.0 174.05 30.0 168.9 30.0 163.75 33.5 154.75 36.95 145.75 43.45 140.0 58.05 139.75 65.55 142.85 73.0 145.9 75.45 147.2 82.85 144.2 87.5 142.7 95.85 140.0 105.05 140.0 L116.3 141.05 121.75 142.15 121.85 141.6 Q125.75 135.35 131.45 128.45 142.8 114.75 153.05 109.6 154.7 108.2 156.65 107.55 159.95 108.95 161.35 109.7 163.45 110.85 164.15 110.3 164.85 109.7 164.85 108.7 L164.8 107.85 Q170.7 110.25 186.35 120.45 194.8 125.95 199.85 129.85 206.7 125.3 218.25 120.6 235.65 113.5 250.3 112.9 257.25 120.5 260.55 127.8 L261.55 130.0 Q265.4 138.8 267.45 146.4 L266.9 147.2 Q259.5 143.0 250.65 144.7 251.8 138.85 249.65 130.0 L247.7 123.25 246.25 119.2 Q237.75 124.05 232.5 130.0 228.3 134.7 226.15 140.1" fill="#c47878" fill-rule="evenodd" stroke="none"/>
      <path d="M102.7 67.0 L93.85 66.35 93.85 65.2 Q107.7 44.95 111.95 40.35 115.15 36.95 118.55 35.7 121.95 34.4 127.65 34.4 L143.25 35.8 154.2 37.05 154.15 36.5 155.05 36.0 158.65 36.0 Q164.6 37.2 169.0 40.6 172.4 43.2 173.05 45.2 L173.4 46.3 Q163.5 49.35 155.1 53.85 135.45 43.2 119.55 43.2 110.95 47.95 102.7 67.0 M35.05 128.0 Q33.9 123.65 33.5 119.55 L33.3 117.1 Q33.7 114.9 35.0 112.25 36.6 108.85 37.85 107.6 39.95 105.4 42.05 103.5 45.7 100.3 47.8 99.75 L48.4 99.65 Q48.0 100.9 47.2 102.1 44.05 115.4 44.55 126.1 L35.05 128.0 M51.25 89.4 Q52.1 83.7 53.4 78.55 L59.45 68.7 Q61.8 64.75 66.15 60.5 70.5 56.2 76.8 53.65 L82.0 51.45 81.15 49.7 81.2 49.7 83.4 50.45 83.75 50.6 87.05 52.2 87.55 52.55 84.25 57.85 78.65 66.8 78.85 67.75 74.75 68.7 Q60.2 72.95 52.2 89.8 L51.25 89.4 M212.75 101.4 Q210.35 81.55 193.55 70.0 182.55 80.45 176.45 96.8 165.15 93.2 157.65 93.8 149.95 96.05 143.2 99.05 L142.45 99.4 Q128.95 105.55 119.15 114.7 102.8 94.15 82.65 89.1 73.35 105.4 76.75 125.7 68.3 124.2 58.8 124.6 L58.65 123.2 Q71.8 86.15 75.0 82.9 L78.2 79.65 84.85 77.6 98.2 79.5 Q110.05 81.55 115.45 83.2 122.35 85.3 130.2 90.15 134.0 92.5 141.8 98.05 143.0 95.3 146.25 90.6 150.7 84.25 156.2 78.5 170.5 63.6 184.3 60.4 L187.05 60.4 Q194.1 61.35 207.15 73.1 220.85 85.45 225.05 96.0 L225.25 97.85 Q219.0 98.65 212.75 101.4 M222.65 74.8 L233.05 74.8 233.15 74.85 233.15 74.9 233.05 75.2 Q239.05 78.5 241.65 89.85 L243.05 100.05 Q239.8 98.55 236.4 97.85 L229.45 97.5 227.85 92.15 227.35 90.55 Q224.2 80.3 221.8 75.7 L222.65 75.2 222.65 74.8 M78.65 66.8 Q83.55 57.9 81.55 61.45 L78.65 66.8" fill="#d08484" fill-rule="evenodd" stroke="none"/>
      <path d="M282.45 166.7 Q284.65 173.4 284.45 181.4 284.2 194.15 278.65 207.2 L276.75 210.55 276.05 210.75 Q271.3 191.3 255.7 183.25 239.2 174.75 212.6 172.95 198.3 173.5 184.05 175.6 182.85 175.75 181.75 176.3 166.75 178.8 143.2 188.35 117.75 198.65 76.25 210.05 34.75 221.4 13.85 195.1 17.1 185.35 26.2 179.8 27.3 179.35 31.05 178.6 34.55 177.85 44.9 180.3 48.25 181.05 52.1 182.25 L60.75 185.2 Q51.15 188.0 45.1 187.25 48.9 190.55 56.75 190.75 L60.75 190.75 Q67.6 190.45 74.55 188.85 83.5 186.7 96.65 178.7 109.8 170.65 121.7 168.6 133.55 166.55 144.2 168.4 154.8 170.25 171.6 167.9 188.4 165.5 198.95 159.55 209.45 153.55 216.45 152.8 223.4 152.0 228.75 156.2 234.1 160.35 240.75 162.35 245.9 163.9 252.3 162.85 L256.15 161.95 Q264.9 159.55 282.45 166.7" fill="#b70541" fill-rule="evenodd" stroke="none"/>
      <path d="M155.1 53.85 Q163.5 49.35 173.4 46.3 L173.05 45.2 Q172.4 43.2 169.0 40.6 164.6 37.2 158.65 36.0 L155.05 36.0 154.15 36.5 154.2 37.05 143.25 35.8 127.65 34.4 Q121.95 34.4 118.55 35.7 115.15 36.95 111.95 40.35 107.7 44.95 93.85 65.2 L93.85 66.35 102.7 67.0 106.3 67.6 Q117.45 69.65 128.9 75.1 137.8 65.0 147.4 59.2 L149.95 57.65 Q156.7 53.45 155.1 53.85 M53.4 78.55 Q57.85 60.4 67.45 48.8 L72.7 48.45 Q78.25 31.2 87.4 21.05 90.55 17.6 94.25 19.0 94.75 10.2 101.05 0.0 112.85 1.1 116.65 8.65 119.25 7.1 122.05 6.6 130.55 8.6 137.0 11.15 L137.05 11.15 137.3 11.25 Q149.9 16.3 154.3 23.4 161.05 21.2 168.85 21.2 179.45 32.95 185.55 43.2 L193.25 41.8 Q206.6 51.65 216.15 66.15 L216.65 65.8 Q226.65 61.75 235.85 62.4 250.05 84.95 248.1 102.9 252.95 106.2 257.55 110.05 269.1 119.75 272.3 130.0 L272.35 130.15 Q275.1 139.3 273.2 148.8 L272.8 150.6 271.25 150.3 269.4 148.8 266.9 147.2 267.45 146.4 Q265.4 138.8 261.55 130.0 L260.55 127.8 Q257.25 120.5 250.3 112.9 235.65 113.5 218.25 120.6 206.7 125.3 199.85 129.85 194.8 125.95 186.35 120.45 170.7 110.25 164.8 107.85 164.65 106.55 164.05 105.75 163.3 104.8 159.85 102.2 157.0 100.65 151.7 100.0 146.05 99.35 146.05 101.2 146.05 103.4 152.65 106.0 L156.65 107.55 Q154.7 108.2 153.05 109.6 142.8 114.75 131.45 128.45 125.75 135.35 121.85 141.6 L121.75 142.15 116.3 141.05 105.05 140.0 Q95.85 140.0 87.5 142.7 82.85 144.2 75.45 147.2 73.0 145.9 65.55 142.85 58.05 139.75 43.45 140.0 36.95 145.75 33.5 154.75 30.0 163.75 30.0 168.9 30.0 174.05 31.05 178.6 27.3 179.35 26.2 179.8 16.3 146.4 35.05 128.0 L44.55 126.1 Q44.05 115.4 47.2 102.1 48.0 100.9 48.4 99.65 L47.8 99.75 Q45.7 100.3 42.05 103.5 39.95 105.4 37.85 107.6 36.6 108.85 35.0 112.25 33.7 114.9 33.3 117.1 32.95 111.7 33.95 106.9 35.35 99.8 39.45 93.8 46.9 88.65 51.25 89.4 L52.2 89.85 52.2 89.8 Q60.2 72.95 74.75 68.7 L78.85 67.75 78.65 66.8 84.25 57.85 87.55 52.55 Q91.75 46.0 96.7 40.5 L97.7 39.35 Q97.05 37.7 95.45 36.0 93.8 34.25 89.8 33.15 L88.9 34.0 Q87.25 35.8 85.85 38.2 84.7 40.2 83.0 44.7 L81.15 49.7 82.0 51.45 76.8 53.65 Q70.5 56.2 66.15 60.5 61.8 64.75 59.45 68.7 L53.4 78.55 M176.45 96.8 L183.35 99.25 Q191.7 102.45 201.75 107.6 L207.9 103.8 Q210.4 102.45 212.75 101.4 219.0 98.65 225.25 97.85 L225.05 96.0 Q220.85 85.45 207.15 73.1 194.1 61.35 187.05 60.4 L184.3 60.4 Q170.5 63.6 156.2 78.5 150.7 84.25 146.25 90.6 143.0 95.3 141.8 98.05 134.0 92.5 130.2 90.15 122.35 85.3 115.45 83.2 110.05 81.55 98.2 79.5 L84.85 77.6 78.2 79.65 75.0 82.9 Q71.8 86.15 58.65 123.2 L58.8 124.6 Q68.3 124.2 76.75 125.7 80.2 126.25 83.45 127.15 93.5 129.95 101.85 135.8 105.6 128.85 110.65 123.0 114.5 118.5 119.15 114.7 128.95 105.55 142.45 99.4 L143.2 99.05 Q149.95 96.05 157.65 93.8 165.15 93.2 176.45 96.8 M222.65 74.8 L222.65 75.2 221.8 75.7 Q224.2 80.3 227.35 90.55 L227.85 92.15 229.45 97.5 236.4 97.85 Q239.8 98.55 243.05 100.05 L241.65 89.85 Q239.05 78.5 233.05 75.2 L233.15 74.9 233.15 74.85 233.05 74.8 222.65 74.8 M142.7 29.35 L145.8 27.25 145.15 26.3 144.1 24.85 141.15 21.7 Q139.4 20.05 136.0 18.4 L134.7 17.85 Q132.95 17.1 132.55 17.4 130.4 19.35 128.9 21.6 126.75 24.7 126.55 27.5 L126.55 27.55 126.55 27.75 127.65 27.75 130.35 28.25 Q135.25 29.25 140.8 31.15 L140.85 31.2 141.05 30.6 141.2 30.5 142.7 29.35 M78.65 66.8 L81.55 61.45 Q83.55 57.9 78.65 66.8" fill="#fab4b4" fill-rule="evenodd" stroke="none"/>
      <path d="M272.55 151.5 Q279.5 158.05 282.45 166.7 264.9 159.55 256.15 161.95 L252.3 162.85 Q245.9 163.9 240.75 162.35 234.1 160.35 228.75 156.2 223.4 152.0 216.45 152.8 209.45 153.55 198.95 159.55 188.4 165.5 171.6 167.9 154.8 170.25 144.2 168.4 133.55 166.55 121.7 168.6 109.8 170.65 96.65 178.7 83.5 186.7 74.55 188.85 67.6 190.45 60.75 190.75 L56.75 190.75 Q48.9 190.55 45.1 187.25 51.15 188.0 60.75 185.2 65.65 184.3 74.95 177.55 L78.05 175.2 80.55 172.85 Q91.85 162.7 112.85 153.2 121.95 150.35 132.15 151.65 L140.65 152.9 144.85 153.85 Q156.7 156.65 168.55 153.45 174.6 151.75 179.55 148.8 183.1 146.7 186.1 143.95 L187.35 142.7 Q197.7 135.35 205.3 134.45 L210.3 134.6 Q219.25 136.4 226.15 140.1 L228.35 141.2 Q235.6 144.85 240.85 148.8 243.45 147.25 245.8 146.3 248.45 145.15 250.65 144.7 259.5 143.0 266.9 147.2 L269.4 148.8 271.25 150.3 272.55 151.5" fill="#ffc9c9" fill-rule="evenodd" stroke="none"/>
      <path d="M164.8 107.85 L164.85 108.7 Q164.85 109.7 164.15 110.3 163.45 110.85 161.35 109.7 159.95 108.95 156.65 107.55 L152.65 106.0 Q146.05 103.4 146.05 101.2 146.05 99.35 151.7 100.0 157.0 100.65 159.85 102.2 163.3 104.8 164.05 105.75 164.65 106.55 164.8 107.85" fill="#ffffff" fill-rule="evenodd" stroke="none"/>
      <path d="M102.7 67.0 Q110.95 47.95 119.55 43.2 135.45 43.2 155.1 53.85 156.7 53.45 149.95 57.65 L147.4 59.2 148.2 57.05 138.05 54.0 Q127.15 51.0 123.45 50.4 L122.25 50.4 113.75 58.35 Q108.4 63.8 106.3 67.6 L102.7 67.0 M81.15 49.7 L83.0 44.7 Q84.7 40.2 85.85 38.2 87.25 35.8 88.9 34.0 L89.8 33.15 Q93.8 34.25 95.45 36.0 97.05 37.7 97.7 39.35 L96.7 40.5 Q95.1 39.85 92.75 39.15 L90.15 38.45 Q88.65 40.6 86.3 45.1 L83.4 50.45 81.2 49.7 81.15 49.7 M176.45 96.8 Q182.55 80.45 193.55 70.0 210.35 81.55 212.75 101.4 210.4 102.45 207.9 103.8 206.3 99.9 202.95 94.5 197.65 85.95 193.45 82.55 L183.35 99.25 176.45 96.8 M76.75 125.7 Q73.35 105.4 82.65 89.1 102.8 94.15 119.15 114.7 114.5 118.5 110.65 123.0 106.8 117.9 98.45 109.95 87.9 99.95 83.8 98.6 L83.05 103.25 Q82.25 109.25 82.25 113.6 82.25 119.25 83.1 125.15 L83.45 127.15 Q80.2 126.25 76.75 125.7 M187.35 142.7 L186.1 143.95 Q182.9 139.9 179.25 136.15 168.05 124.8 158.9 123.1 152.2 132.0 146.3 142.05 142.15 149.15 140.65 152.9 L132.15 151.65 Q139.15 129.0 157.45 113.2 173.6 120.0 181.3 130.0 185.75 135.8 187.35 142.7 M80.55 172.85 L78.05 175.2 74.95 177.55 Q71.65 171.6 62.1 165.55 57.45 162.6 53.85 160.85 L52.85 167.35 Q51.85 174.65 51.85 179.4 L52.1 182.25 Q48.25 181.05 44.9 180.3 42.6 163.7 49.45 148.7 69.1 155.55 80.55 172.85 M226.15 140.1 Q228.3 134.7 232.5 130.0 237.75 124.05 246.25 119.2 L247.7 123.25 249.65 130.0 Q251.8 138.85 250.65 144.7 248.45 145.15 245.8 146.3 245.9 141.05 245.6 137.95 244.95 131.85 242.65 127.7 L237.35 132.35 Q231.3 137.85 228.35 141.2 L226.15 140.1 M126.55 27.55 L126.55 27.5 Q126.75 24.7 128.9 21.6 130.4 19.35 132.55 17.4 132.95 17.1 134.7 17.85 L136.0 18.4 Q139.4 20.05 141.15 21.7 L144.1 24.85 145.15 26.3 145.8 27.25 142.7 29.35 Q140.75 27.45 137.25 25.05 L135.0 23.6 131.55 27.15 130.35 28.25 127.65 27.75 126.55 27.55" fill="#6c2631" fill-rule="evenodd" stroke="none"/>
      <path d="M147.4 59.2 Q137.8 65.0 128.9 75.1 117.45 69.65 106.3 67.6 108.4 63.8 113.75 58.35 L122.25 50.4 123.45 50.4 Q127.15 51.0 138.05 54.0 L148.2 57.05 147.4 59.2 M96.7 40.5 Q91.75 46.0 87.55 52.55 L87.05 52.2 83.75 50.6 83.4 50.45 86.3 45.1 Q88.65 40.6 90.15 38.45 L92.75 39.15 Q95.1 39.85 96.7 40.5 M183.35 99.25 L193.45 82.55 Q197.65 85.95 202.95 94.5 206.3 99.9 207.9 103.8 L201.75 107.6 Q191.7 102.45 183.35 99.25 M186.1 143.95 Q183.1 146.7 179.55 148.8 174.6 151.75 168.55 153.45 156.7 156.65 144.85 153.85 L140.65 152.9 Q142.15 149.15 146.3 142.05 152.2 132.0 158.9 123.1 168.05 124.8 179.25 136.15 182.9 139.9 186.1 143.95 M74.95 177.55 Q65.65 184.3 60.75 185.2 L52.1 182.25 51.85 179.4 Q51.85 174.65 52.85 167.35 L53.85 160.85 Q57.45 162.6 62.1 165.55 71.65 171.6 74.95 177.55 M228.35 141.2 Q231.3 137.85 237.35 132.35 L242.65 127.7 Q244.95 131.85 245.6 137.95 245.9 141.05 245.8 146.3 243.45 147.25 240.85 148.8 235.6 144.85 228.35 141.2 M142.7 29.35 L141.2 30.5 141.05 30.6 140.85 31.2 140.8 31.15 Q135.25 29.25 130.35 28.25 L131.55 27.15 135.0 23.6 137.25 25.05 Q140.75 27.45 142.7 29.35 M110.65 123.0 Q105.6 128.85 101.85 135.8 93.5 129.95 83.45 127.15 L83.1 125.15 Q82.25 119.25 82.25 113.6 82.25 109.25 83.05 103.25 L83.8 98.6 Q87.9 99.95 98.45 109.95 106.8 117.9 110.65 123.0" fill="#000000" fill-rule="evenodd" stroke="none"/>
      <path d="M108.65 10.05 Q106.15 10.05 103.15 7.45 100.55 5.2 100.55 4.3 100.55 -0.7 106.0 2.35 108.1 3.55 109.75 5.4 111.45 7.25 111.45 8.5 111.45 10.05 108.65 10.05" fill="#ffffff" fill-rule="evenodd" stroke="none"/>
      <path d="M131.8 15.55 L126.6 16.7 Q122.15 17.75 118.75 20.25 115.35 22.7 111.35 24.85 107.3 26.95 102.95 27.0 98.6 27.05 97.3 24.7 L94.8 22.9 94.1 22.35 100.95 21.85 Q108.25 20.85 109.9 19.1 L113.55 15.5 Q115.5 13.6 119.05 11.6 122.55 9.55 131.95 11.3 141.35 13.05 148.2 20.75 150.2 24.95 138.7 16.95 L134.75 15.85 131.8 15.55" fill="#ffffff" fill-rule="evenodd" stroke="none"/>
      <path d="M147.65 33.75 Q147.7 37.1 130.95 34.6 L126.8 34.25 112.75 33.6 Q111.4 33.35 111.85 31.75 112.25 30.15 113.1 30.1 L121.7 29.65 Q129.65 29.35 145.55 32.9 L147.65 33.75" fill="#ffffff" fill-rule="evenodd" stroke="none"/>
      <path d="M159.75 94.3 Q159.75 92.1 169.25 94.8 L170.1 95.05 Q175.55 96.65 184.0 99.8 188.3 101.7 195.35 105.5 202.4 109.25 209.35 115.3 210.45 116.2 211.05 117.8 211.65 119.4 211.3 120.7 210.95 122.0 207.85 120.45 L201.0 116.2 Q193.65 111.5 185.85 108.05 L175.55 103.5 173.95 102.9 Q170.9 101.75 167.75 100.15 L163.6 98.0 161.15 96.45 Q159.75 95.4 159.75 94.3 M169.75 97.05 L169.7 97.05 169.85 97.1 169.75 97.05" fill="#ffffff" fill-rule="evenodd" stroke="none"/>
      <path d="M103.3 68.55 Q108.7 69.3 112.5 71.1 116.65 73.1 116.65 75.5 116.65 77.7 115.3 78.75 113.95 79.75 108.35 78.0 102.7 76.25 96.35 75.1 89.95 73.95 89.95 72.1 89.95 69.55 94.1 68.65 97.85 67.85 103.3 68.55" fill="#ffffff" fill-rule="evenodd" stroke="none"/>
      <path d="M181.55 44.5 L187.8 43.65 194.25 43.9 194.95 44.25 Q199.4 47.15 203.15 51.05 207.1 55.15 212.5 62.45 217.9 69.75 220.45 73.85 222.95 77.9 223.35 79.9 L223.85 83.8 Q223.7 87.4 221.8 83.2 219.85 78.95 213.3 72.25 L203.35 61.75 Q199.95 57.95 196.45 54.85 L192.75 51.35 192.95 51.05 Q190.95 52.2 187.95 55.2 L182.9 60.15 180.3 62.6 Q177.9 65.35 175.05 67.35 172.2 69.35 167.35 69.2 173.65 63.8 175.3 62.95 176.9 62.1 187.1 51.35 192.05 47.4 186.3 47.6 180.55 47.75 173.35 51.35 166.15 54.95 161.6 58.1 157.0 61.25 153.8 61.95 L149.3 62.15 147.2 61.15 Q146.9 60.95 147.15 60.55 147.75 59.5 148.9 58.8 152.25 56.5 155.7 54.65 L161.0 51.8 Q163.85 50.3 166.8 49.35 L174.2 46.7 Q177.75 45.15 181.55 44.5 M225.1 81.5 L225.1 81.65 225.1 81.85 225.1 81.5" fill="#ffffff" fill-rule="evenodd" stroke="none"/>
      <path d="M230.8 67.75 L230.9 67.8 230.8 67.7 230.8 67.75 M229.8 68.8 L220.55 69.1 Q217.25 69.1 217.25 67.6 L217.3 66.9 Q217.1 65.4 224.75 63.95 L235.05 63.65 Q239.0 67.15 243.25 77.3 248.05 88.95 247.75 94.25 247.45 99.55 246.35 97.65 244.7 94.4 242.9 89.1 239.55 79.2 237.85 75.65 236.1 72.05 234.1 70.3 232.1 68.55 229.8 68.8" fill="#ffffff" fill-rule="evenodd" stroke="none"/>
      <path d="M249.9 114.55 Q245.65 110.15 237.05 108.85 236.05 109.4 234.05 110.8 L230.1 113.35 Q228.15 114.5 228.15 112.85 228.15 111.2 229.45 108.95 230.75 106.7 232.75 105.5 231.9 106.35 232.9 105.6 233.9 104.8 225.9 106.25 L216.9 106.5 216.55 105.3 Q216.55 103.9 225.05 101.65 233.3 99.45 238.1 100.65 244.85 101.7 253.0 111.5 257.2 116.6 260.15 122.15 L262.1 126.3 262.1 126.2 262.25 125.9 Q261.5 116.25 264.9 122.0 268.0 127.25 269.45 132.8 L269.7 133.8 270.15 135.75 270.35 136.55 270.45 140.7 Q270.45 142.95 269.35 144.6 268.85 145.3 268.15 145.25 L268.2 145.25 Q265.35 144.95 264.75 139.25 264.6 136.4 263.9 132.95 L262.85 128.85 262.95 129.95 Q262.95 130.95 262.45 131.8 L259.35 127.25 256.65 123.2 252.85 118.25 249.9 114.55" fill="#ffffff" fill-rule="evenodd" stroke="none"/>
      <path d="M160.25 162.35 L157.1 163.2 Q144.8 163.2 137.35 158.85 L132.25 155.5 Q129.55 153.7 127.1 153.2 131.5 151.4 144.1 154.65 148.35 155.75 160.25 159.6 L163.3 160.6 Q162.15 161.65 160.25 162.35" fill="#ffffff" fill-rule="evenodd" stroke="none"/>
      <path d="M202.5 142.9 Q200.05 140.8 198.7 140.25 206.8 136.05 212.6 136.45 217.25 136.8 222.9 140.55 L234.45 148.7 Q242.8 154.05 252.3 157.05 L249.15 158.45 Q246.5 159.65 242.3 159.65 232.6 159.65 225.65 150.75 L220.55 144.65 Q217.55 141.85 213.9 141.85 212.9 141.85 211.1 142.85 209.3 143.85 208.3 143.85 203.65 143.85 202.5 142.9" fill="#ffffff" fill-rule="evenodd" stroke="none"/>
      <path d="M261.1 153.0 L261.45 152.4 Q271.25 154.2 277.05 163.55 281.65 171.0 281.65 178.4 281.65 180.9 280.65 183.55 279.05 187.7 275.85 188.2 L276.15 187.55 276.45 185.8 Q276.45 175.05 268.75 164.2 261.05 155.25 261.05 154.2 L261.1 153.0" fill="#ffffff" fill-rule="evenodd" stroke="none"/>
      <path d="M306.55 281.8 Q308.5 279.7 310.65 274.5 312.75 269.3 313.05 256.4 313.35 243.45 306.95 227.75 300.5 212.0 288.9 211.85 L290.35 211.15 Q295.9 208.9 303.4 210.65 319.2 214.3 321.4 236.2 323.55 258.05 317.35 269.35 315.25 273.1 312.7 276.15 309.9 279.4 306.55 281.8" fill="#ffd200" fill-rule="evenodd" stroke="none"/>
      <path d="M283.75 216.0 Q282.65 219.1 285.15 240.45 287.65 261.8 296.7 271.05 305.7 280.3 303.8 283.35 L303.75 283.4 300.55 285.15 Q298.6 284.05 296.3 281.3 L295.2 279.95 294.85 279.45 Q292.45 276.25 289.65 271.4 287.45 267.65 280.5 251.25 273.5 234.85 280.55 220.9 282.0 218.1 283.75 216.0" fill="#f66d43" fill-rule="evenodd" stroke="none"/>
      <path d="M290.35 211.15 L288.9 211.85 Q300.5 212.0 306.95 227.75 313.35 243.45 313.05 256.4 312.75 269.3 310.65 274.5 308.5 279.7 306.55 281.8 305.15 282.6 303.8 283.35 305.7 280.3 296.7 271.05 287.65 261.8 285.15 240.45 282.65 219.1 283.75 216.0 L284.2 215.5 284.25 215.45 Q286.95 212.5 290.35 211.15" fill="#e39902" fill-rule="evenodd" stroke="none"/>
      <path d="M313.05 248.6 L312.35 252.5 312.65 256.2 Q312.65 267.35 305.4 277.2 300.25 284.1 293.9 287.95 288.25 266.75 299.2 255.45 306.6 247.85 312.15 248.45 L313.05 248.6" fill="#ff7e00" fill-rule="evenodd" stroke="none"/>
      <path d="M313.05 248.6 Q315.4 249.15 317.4 251.3 324.3 258.75 318.45 270.2 308.4 292.8 299.05 297.8 295.2 294.15 294.25 289.2 L293.9 287.95 Q300.25 284.1 305.4 277.2 312.65 267.35 312.65 256.2 L312.35 252.5 313.05 248.6" fill="#be5f03" fill-rule="evenodd" stroke="none"/>
      <path d="M125.55 274.15 L125.45 274.4 124.25 275.8 Q122.0 278.7 120.7 283.0 119.05 288.4 119.05 297.7 119.05 306.95 121.85 313.3 125.0 320.3 131.45 321.6 L133.45 321.6 134.05 321.9 Q131.05 329.55 126.05 335.4 116.2 327.75 110.05 302.2 109.75 285.3 121.85 273.8 L125.55 274.15" fill="#ff7e00" fill-rule="evenodd" stroke="none"/>
      <path d="M134.05 321.9 L133.45 321.6 131.45 321.6 Q125.0 320.3 121.85 313.3 119.05 306.95 119.05 297.7 119.05 288.4 120.7 283.0 122.0 278.7 124.25 275.8 L125.45 274.4 125.55 274.15 Q132.95 275.25 137.25 280.0 140.5 305.2 134.05 321.9" fill="#be5f03" fill-rule="evenodd" stroke="none"/>
      <path d="M213.15 228.65 L213.75 229.15 213.8 229.9 213.35 230.5 212.6 230.55 209.6 229.1 Q208.0 228.2 206.75 228.2 L204.35 228.7 204.4 228.7 201.85 229.2 Q200.3 229.25 197.2 227.8 194.7 226.65 193.95 226.6 192.6 226.6 191.55 227.4 L191.55 227.45 187.15 231.15 186.4 231.4 Q186.0 231.4 185.7 231.1 185.4 230.75 185.45 230.35 185.45 229.95 185.8 229.65 L190.4 225.8 Q191.95 224.6 193.95 224.6 194.9 224.55 198.05 226.0 200.6 227.15 201.85 227.2 L203.85 226.75 206.75 226.2 Q208.4 226.2 210.55 227.35 L213.15 228.65" fill="#000000" fill-rule="evenodd" stroke="none"/>
      <path d="M13.25 244.45 Q14.35 246.0 14.45 247.95 L14.9 251.35 Q15.1 253.45 15.8 256.6 16.45 259.75 18.2 263.3 19.95 266.8 21.35 268.2 L22.8 269.95 22.9 270.55 22.9 270.6 Q22.9 271.6 22.35 271.6 L21.4 271.4 Q16.5 270.55 12.45 259.55 9.15 250.65 9.15 247.0 9.15 243.75 10.3 243.45 12.0 242.65 13.25 244.45" fill="#ffe5cc" fill-rule="evenodd" stroke="none"/>
      <path d="M124.8 279.65 Q126.7 274.9 130.9 277.45 135.1 279.95 135.1 285.9 135.1 293.9 133.9 305.85 132.05 324.55 129.5 321.6 128.4 320.3 128.05 318.55 127.35 315.7 127.25 312.05 L127.3 303.2 Q127.3 295.75 126.0 288.55 124.7 282.65 124.7 281.6 L124.8 279.65" fill="#ffe5cc" fill-rule="evenodd" stroke="none"/>
      <path d="M320.25 255.3 L320.45 256.95 320.45 257.55 Q320.45 260.85 318.4 266.9 L318.4 266.95 316.6 272.25 314.15 277.85 312.4 280.95 312.15 281.45 312.1 281.5 310.6 283.85 309.8 285.2 308.75 286.6 Q307.9 287.65 307.35 287.7 306.85 287.75 308.15 283.45 309.4 279.35 311.85 273.65 L311.85 273.6 313.65 269.25 Q316.1 263.35 316.1 259.6 316.1 257.85 315.55 257.0 314.75 255.85 313.5 255.85 L311.85 256.1 310.45 256.3 Q309.0 256.3 308.55 255.45 L308.35 254.25 Q308.35 253.25 309.8 252.3 L310.25 252.0 Q312.15 250.9 314.4 250.8 318.45 250.6 319.8 253.75 L319.9 253.9 319.95 254.1 320.25 255.1 320.25 255.3" fill="#ffe5cc" fill-rule="evenodd" stroke="none"/>
    </g>
  </defs>
</svg>
