<?xml version="1.0" encoding="UTF-8" standalone="no"?>
<svg xmlns:xlink="http://www.w3.org/1999/xlink" height="203.05px" width="151.55px" xmlns="http://www.w3.org/2000/svg">
  <g transform="matrix(1.0, 0.0, 0.0, 1.0, -0.3, 11.7)">
    <use height="200.65" transform="matrix(1.0, 0.0, 0.0, 1.0, 1.1, -9.3)" width="150.2" xlink:href="#shape0"/>
  </g>
  <defs>
    <g id="shape0" transform="matrix(1.0, 0.0, 0.0, 1.0, -1.1, 9.3)">
      <path d="M144.75 120.25 Q142.85 125.35 139.35 129.35 135.9 133.25 133.45 133.75 131.15 134.2 130.4 132.65 130.0 125.05 132.75 117.25 133.85 114.8 136.2 113.4 140.8 110.55 143.3 110.65 146.75 114.5 144.75 120.25" fill="#ff7e00" fill-rule="evenodd" stroke="none"/>
      <path d="M136.1 104.35 Q140.35 104.7 143.5 109.35 146.65 114.0 144.05 120.45 141.35 126.9 137.15 127.0 132.75 127.1 132.4 119.95 132.35 112.7 131.7 109.2 132.0 104.15 136.1 104.35" fill="#e49e02" fill-rule="evenodd" stroke="none"/>
      <path d="M137.45 118.8 Q135.45 120.8 131.25 119.2 127.0 117.65 123.15 118.75 119.25 119.7 115.95 118.25 111.95 115.25 111.7 112.0 120.55 106.95 129.1 105.85 137.7 104.7 138.6 110.75 139.5 116.8 137.45 118.8" fill="#e39902" fill-rule="evenodd" stroke="none"/>
      <path d="M135.0 119.95 Q139.35 107.95 132.35 105.55 138.4 102.8 140.65 109.8 142.9 116.85 138.8 120.9 136.3 121.65 135.0 119.95" fill="#be5f03" fill-rule="evenodd" stroke="none"/>
      <path d="M8.9 121.0 Q9.85 118.15 11.15 116.6 L11.45 116.3 Q13.45 114.1 16.5 114.5 L17.0 114.6 Q18.25 114.85 23.15 119.45 27.55 123.65 28.1 124.65 L26.55 124.05 Q21.3 121.8 15.85 121.9 11.15 121.85 8.9 121.0" fill="#e49e02" fill-rule="evenodd" stroke="none"/>
      <path d="M28.1 124.65 Q27.55 123.65 23.15 119.45 18.25 114.85 17.0 114.6 L16.5 114.5 Q13.45 114.1 11.45 116.3 L11.15 116.6 Q9.85 118.15 8.9 121.0 L8.25 120.7 Q3.6 118.4 3.75 115.4 3.4 113.0 5.85 109.5 10.45 104.85 17.2 107.1 24.05 109.45 30.1 115.85 33.35 119.0 32.55 122.7 31.85 125.75 28.1 124.65" fill="#ffd200" fill-rule="evenodd" stroke="none"/>
      <path d="M8.05 124.25 Q9.2 118.95 11.15 116.6 13.25 114.05 16.5 114.5 16.95 116.55 16.75 119.25 15.85 123.55 12.55 124.35 L8.05 124.25" fill="#be5f03" fill-rule="evenodd" stroke="none"/>
      <path d="M16.5 114.5 Q13.25 114.05 11.15 116.6 9.2 118.95 8.05 124.25 L6.8 123.55 Q4.35 121.95 3.2 119.3 1.55 115.3 4.7 111.05 6.45 108.95 9.15 108.85 11.9 108.75 14.5 111.05 15.9 112.3 16.5 114.5" fill="#ff7e00" fill-rule="evenodd" stroke="none"/>
      <path d="M8.35 112.3 Q7.6 112.15 7.5 111.65 L7.6 111.15 Q7.9 109.75 8.95 109.95 9.95 110.2 9.75 111.2 9.45 112.55 8.35 112.3" fill="#ffffff" fill-rule="evenodd" stroke="none"/>
      <path d="M7.4 136.25 Q6.9 129.45 7.7 125.55 L8.05 124.25 8.5 122.3 Q9.55 118.5 11.15 116.6 L11.45 116.3 Q13.15 118.2 14.45 120.7 16.8 126.75 14.2 132.0 12.25 134.95 9.75 136.1 L7.4 136.25" fill="#e49e02" fill-rule="evenodd" stroke="none"/>
      <path d="M11.45 116.3 L11.15 116.6 Q9.55 118.5 8.5 122.3 L8.05 124.25 7.7 125.55 Q6.9 129.45 7.4 136.25 6.35 135.7 5.45 134.15 1.55 127.8 1.1 119.1 1.85 111.25 7.65 113.2 9.7 114.5 11.45 116.3" fill="#ffd200" fill-rule="evenodd" stroke="none"/>
      <path d="M4.1 117.4 Q4.2 116.75 4.85 115.65 5.45 114.6 6.3 114.5 7.0 115.05 6.8 115.9 5.85 120.7 4.7 120.5 3.75 120.3 3.75 119.1 L4.1 117.4" fill="#ffffff" fill-rule="evenodd" stroke="none"/>
      <path d="M7.85 140.5 Q6.3 139.3 5.55 137.35 3.15 131.35 2.95 127.25 2.75 123.15 4.65 122.05 6.2 121.1 8.5 122.3 L8.05 124.25 7.7 125.55 Q6.7 130.65 7.85 140.5" fill="#ff7e00" fill-rule="evenodd" stroke="none"/>
      <path d="M7.85 140.5 Q6.7 130.65 7.7 125.55 L8.05 124.25 8.5 122.3 Q9.0 122.55 9.55 122.95 12.55 125.0 13.45 128.95 14.35 132.9 9.05 141.25 L7.85 140.5" fill="#be5f03" fill-rule="evenodd" stroke="none"/>
      <path d="M7.3 127.3 Q7.2 127.75 7.65 129.9 L8.3 133.25 Q8.6 134.5 8.5 135.65 8.45 136.7 8.0 136.85 7.65 137.0 6.4 132.15 5.15 127.3 5.35 125.85 5.5 124.4 6.1 124.45 6.9 124.45 7.5 125.6 L7.3 127.3" fill="#ffffff" fill-rule="evenodd" stroke="none"/>
      <path d="M149.8 123.25 Q151.55 126.9 149.95 131.35 147.9 136.55 144.2 140.3 140.5 144.0 137.85 144.25 135.95 144.4 134.85 143.2 136.85 144.4 142.1 137.65 148.5 129.35 149.8 123.25" fill="#ff7e02" fill-rule="evenodd" stroke="none"/>
      <path d="M134.85 143.2 Q134.4 142.8 133.9 141.4 134.5 132.95 136.95 126.55 138.1 124.05 140.65 122.85 145.6 120.4 148.25 120.9 L149.8 123.25 Q148.5 129.35 142.1 137.65 136.85 144.4 134.85 143.2" fill="#be5f03" fill-rule="evenodd" stroke="none"/>
      <path d="M143.1 112.45 L144.55 114.8 Q145.55 116.75 145.85 118.4 146.2 120.0 146.15 122.65 146.1 125.3 145.4 128.45 L144.0 133.65 Q143.35 135.7 142.95 135.95 L142.25 136.1 Q141.1 137.3 139.3 135.9 L139.0 135.8 Q134.35 134.1 135.9 126.8 137.75 119.55 138.15 115.8 139.6 111.55 143.1 112.45" fill="#e49e02" fill-rule="evenodd" stroke="none"/>
      <path d="M143.1 112.45 L144.1 112.8 Q148.55 114.95 150.65 120.9 152.7 126.8 148.15 132.15 145.55 135.2 142.95 135.95 143.35 135.7 144.0 133.65 L145.4 128.45 Q146.1 125.3 146.15 122.65 146.2 120.0 145.85 118.4 145.55 116.75 144.55 114.8 L143.1 112.45" fill="#ffd200" fill-rule="evenodd" stroke="none"/>
      <path d="M146.7 126.5 L146.95 126.15 147.2 125.7 147.3 124.35 Q147.2 123.5 147.4 122.5 147.85 120.25 148.65 121.15 149.4 122.1 148.95 124.4 148.35 127.5 147.2 127.3 L146.9 127.2 146.75 127.0 Q146.65 126.9 146.7 126.5" fill="#ffffff" fill-rule="evenodd" stroke="none"/>
      <path d="M140.0 123.7 Q139.15 124.6 137.9 125.1 134.45 126.25 129.9 124.0 125.3 121.8 121.1 122.35 116.9 122.9 113.35 120.85 L111.9 119.5 Q113.0 118.4 117.15 117.7 122.9 116.85 130.0 118.3 139.15 120.2 140.0 123.7" fill="#e39902" fill-rule="evenodd" stroke="none"/>
      <path d="M111.9 119.5 Q108.85 116.45 108.65 113.6 119.1 109.4 135.65 110.95 143.0 112.65 142.2 118.25 141.6 121.85 140.0 123.7 139.15 120.2 130.0 118.3 122.9 116.85 117.15 117.7 113.0 118.4 111.9 119.5" fill="#ffd200" fill-rule="evenodd" stroke="none"/>
      <path d="M135.4 116.4 L128.25 115.55 Q126.4 115.15 126.0 114.75 125.85 114.6 125.95 114.15 126.2 112.9 131.7 113.4 137.25 113.85 136.9 115.35 136.75 116.2 135.4 116.4" fill="#ffffff" fill-rule="evenodd" stroke="none"/>
      <path d="M138.8 121.45 Q140.8 120.9 141.95 119.95 L143.85 117.8 Q144.45 116.8 144.45 116.2 L144.5 115.0 Q146.25 119.85 142.35 125.05 137.9 131.0 132.4 125.6 137.1 126.05 138.8 121.45" fill="#be5f03" fill-rule="evenodd" stroke="none"/>
      <path d="M144.5 115.0 L144.45 116.2 Q144.45 116.8 143.85 117.8 L141.95 119.95 Q140.8 120.9 138.8 121.45 139.95 118.2 139.55 112.5 141.35 111.4 143.75 113.3 L144.5 115.0" fill="#ff7e02" fill-rule="evenodd" stroke="none"/>
      <path d="M143.4 117.35 L142.75 118.8 Q142.05 119.85 141.25 119.7 L140.65 119.3 140.65 118.9 141.25 118.2 141.65 117.8 141.5 116.65 141.35 116.25 141.4 115.4 141.4 115.25 Q141.8 113.4 142.75 114.6 143.7 115.85 143.4 117.35" fill="#ffffff" fill-rule="evenodd" stroke="none"/>
      <path d="M44.65 116.65 L45.35 116.7 48.3 117.1 Q53.75 117.75 55.7 121.9 57.65 126.05 50.9 127.7 44.2 129.4 38.95 133.45 33.75 137.45 30.8 137.95 25.2 139.0 23.0 136.7 L22.75 136.35 23.0 136.2 Q23.0 133.8 23.4 131.75 24.15 128.2 26.0 125.5 29.1 121.0 35.35 118.9 38.75 117.75 44.65 116.8 L44.65 116.65" fill="#e49e02" fill-rule="evenodd" stroke="none"/>
      <path d="M22.75 136.35 L22.55 136.1 Q20.4 134.1 20.15 128.85 21.15 121.05 29.45 118.2 36.25 115.85 44.65 116.65 L44.65 116.8 Q38.75 117.75 35.35 118.9 29.1 121.0 26.0 125.5 24.15 128.2 23.4 131.75 23.0 133.8 23.0 136.2 L22.75 136.35" fill="#ffd200" fill-rule="evenodd" stroke="none"/>
      <path d="M23.6 142.3 Q23.1 139.55 23.0 137.1 L23.0 136.7 Q23.0 133.7 23.4 131.75 24.15 128.2 26.0 125.5 27.0 124.05 28.3 122.85 29.6 123.6 30.85 124.7 34.35 127.75 33.8 135.45 32.6 141.05 28.25 142.2 L23.6 142.3" fill="#be5f03" fill-rule="evenodd" stroke="none"/>
      <path d="M28.3 122.85 Q27.0 124.05 26.0 125.5 24.15 128.2 23.4 131.75 23.0 133.7 23.0 136.7 L23.0 137.1 Q23.1 139.55 23.6 142.3 22.05 141.95 20.75 141.1 17.5 138.95 16.05 135.5 13.9 130.3 18.0 124.7 20.35 121.9 23.9 121.75 26.1 121.7 28.3 122.85" fill="#ff7e00" fill-rule="evenodd" stroke="none"/>
      <path d="M27.25 125.45 Q26.1 125.2 25.1 124.35 L24.3 123.4 26.85 123.3 Q29.15 124.2 28.95 125.15 28.8 125.75 27.25 125.45" fill="#ffffff" fill-rule="evenodd" stroke="none"/>
      <path d="M27.35 152.1 L26.75 150.3 Q24.65 143.55 24.7 138.3 24.65 135.95 25.05 133.9 25.8 130.35 27.7 127.6 L28.05 127.95 Q34.5 136.8 35.5 146.2 36.05 150.9 32.55 151.8 L27.35 152.1" fill="#e49e02" fill-rule="evenodd" stroke="none"/>
      <path d="M27.7 127.6 Q25.8 130.35 25.05 133.9 24.65 135.95 24.7 138.3 24.65 143.55 26.75 150.3 L27.35 152.1 24.5 151.5 Q17.55 148.55 15.25 140.65 13.95 133.7 16.45 127.6 20.95 121.05 27.7 127.6" fill="#ffd200" fill-rule="evenodd" stroke="none"/>
      <path d="M22.2 126.3 Q23.65 126.7 22.9 129.15 22.75 129.9 22.75 131.8 L22.6 133.9 Q22.5 134.5 21.95 134.75 L21.1 134.9 Q19.85 134.65 20.0 130.9 L20.4 127.5 Q20.7 126.0 22.2 126.3" fill="#ffffff" fill-rule="evenodd" stroke="none"/>
      <path d="M23.6 136.8 Q26.35 137.55 30.4 141.5 34.8 145.7 35.85 153.2 36.9 160.65 33.9 162.55 L32.85 163.05 Q28.2 157.15 25.65 148.8 23.55 142.05 23.6 136.8" fill="#ff7e00" fill-rule="evenodd" stroke="none"/>
      <path d="M32.85 163.05 Q30.2 163.9 26.65 161.35 22.35 158.15 18.35 151.35 15.25 144.05 19.15 138.3 21.55 135.85 23.1 136.7 L23.6 136.8 Q23.55 142.05 25.65 148.8 28.2 157.15 32.85 163.05" fill="#ce6702" fill-rule="evenodd" stroke="none"/>
      <path d="M30.05 153.9 Q29.75 155.2 28.25 154.9 24.75 154.2 22.3 147.45 20.3 141.9 20.6 140.55 20.85 139.25 22.15 139.5 23.5 139.8 24.15 141.75 L24.5 143.7 24.9 145.75 Q25.05 149.2 27.55 151.9 28.8 153.25 30.05 153.9" fill="#ffffff" fill-rule="evenodd" stroke="none"/>
      <path d="M104.75 129.45 Q97.75 131.75 88.05 133.35 71.2 136.1 62.8 134.25 64.8 126.1 73.8 117.0 82.9 107.8 90.25 109.55 95.1 111.6 97.15 119.1 99.6 128.75 104.75 129.45" fill="#f1b670" fill-rule="evenodd" stroke="none"/>
      <path d="M62.8 134.25 Q60.6 133.8 59.05 133.05 51.1 129.3 47.65 123.9 43.15 116.2 44.95 110.85 47.35 103.75 56.85 98.7 66.4 93.6 78.0 91.5 89.45 89.4 102.5 93.05 116.35 96.35 120.9 106.1 125.4 115.75 117.25 122.85 112.9 126.65 104.75 129.45 99.6 128.75 97.15 119.1 95.1 111.6 90.25 109.55 82.9 107.8 73.8 117.0 64.8 126.1 62.8 134.25" fill="#000000" fill-rule="evenodd" stroke="none"/>
      <path d="M61.2 107.75 Q66.2 104.3 71.65 105.85 77.2 107.3 79.85 112.8 82.55 118.15 80.8 124.55 79.05 130.85 74.1 134.1 69.05 137.4 63.6 135.75 58.2 134.1 55.55 128.75 L55.55 128.7 Q52.85 123.3 54.55 117.2 56.2 111.05 61.2 107.75 M62.05 109.05 Q57.5 112.05 56.05 117.55 L56.05 117.6 Q54.5 123.2 56.95 128.0 59.3 132.8 64.05 134.25 68.85 135.7 73.2 132.8 77.75 129.85 79.25 124.15 80.8 118.3 78.45 113.45 76.1 108.7 71.3 107.4 66.5 106.1 62.1 109.05 L62.05 109.05 M65.85 113.1 Q68.35 111.05 70.9 111.75 73.45 112.4 74.6 115.45 75.7 118.55 74.75 122.1 73.8 125.7 71.3 127.8 68.75 129.85 66.2 129.15 63.65 128.5 62.55 125.45 61.4 122.4 62.35 118.8 63.35 115.2 65.85 113.1 M71.35 114.75 Q70.35 114.45 69.5 115.15 68.55 115.8 68.2 117.05 68.0 118.2 68.35 119.25 68.8 120.25 69.8 120.5 70.7 120.75 71.6 120.1 72.5 119.4 72.8 118.25 73.1 117.05 72.7 116.0 72.25 114.95 71.35 114.75" fill="#000000" fill-rule="evenodd" stroke="none"/>
      <path d="M62.05 109.05 L62.1 109.05 Q66.5 106.1 71.3 107.4 76.1 108.7 78.45 113.45 80.8 118.3 79.25 124.15 77.75 129.85 73.2 132.8 68.85 135.7 64.05 134.25 59.3 132.8 56.95 128.0 54.5 123.2 56.05 117.6 L56.05 117.55 Q57.5 112.05 62.05 109.05 M65.85 113.1 Q63.35 115.2 62.35 118.8 61.4 122.4 62.55 125.45 63.65 128.5 66.2 129.15 68.75 129.85 71.3 127.8 73.8 125.7 74.75 122.1 75.7 118.55 74.6 115.45 73.45 112.4 70.9 111.75 68.35 111.05 65.85 113.1 M71.35 114.75 Q72.25 114.95 72.7 116.0 73.1 117.05 72.8 118.25 72.5 119.4 71.6 120.1 70.7 120.75 69.8 120.5 68.8 120.25 68.35 119.25 68.0 118.2 68.2 117.05 68.55 115.8 69.5 115.15 70.35 114.45 71.35 114.75" fill="#ffffff" fill-rule="evenodd" stroke="none"/>
      <path d="M47.75 131.15 Q49.05 130.9 50.55 131.6 51.95 132.65 52.65 133.75 L52.75 133.95 Q53.4 135.0 53.5 136.05 60.4 152.05 67.4 156.1 77.25 155.6 81.25 160.2 85.3 164.75 85.25 169.7 85.2 174.85 83.35 179.1 L83.1 179.0 Q79.3 183.0 74.4 185.4 68.6 188.2 63.75 187.2 57.55 185.95 54.15 180.8 50.95 175.9 52.0 170.85 52.85 166.55 55.4 163.35 58.1 159.85 61.5 159.45 63.85 156.9 67.3 156.1 55.8 158.6 52.15 145.95 48.55 133.3 47.75 131.15 M78.4 172.35 L78.8 171.95 Q79.6 170.85 79.2 168.95 78.4 165.15 74.2 164.85 70.0 164.45 66.15 166.0 62.35 167.6 60.4 169.9 58.5 172.25 57.7 175.0 56.9 177.75 58.15 179.3 59.3 180.8 62.7 181.65 L63.0 181.7 65.15 181.45 71.45 178.55 Q74.85 176.85 78.4 172.35" fill="#ff7e00" fill-rule="evenodd" stroke="none"/>
      <path d="M63.0 181.7 L62.7 181.65 Q59.3 180.8 58.15 179.3 56.9 177.75 57.7 175.0 58.5 172.25 60.4 169.9 62.35 167.6 66.15 166.0 70.0 164.45 74.2 164.85 78.4 165.15 79.2 168.95 79.6 170.85 78.8 171.95 L78.4 172.35 Q77.5 173.2 75.8 173.65 L70.7 173.85 65.9 173.1 Q63.5 172.75 62.15 174.75 60.75 176.75 60.7 177.9 60.65 178.6 61.45 180.25 L61.65 180.75 61.65 180.8 63.0 181.7" fill="#000000" fill-rule="evenodd" stroke="none"/>
      <path d="M83.35 179.1 Q81.9 182.25 79.4 184.95 72.25 191.95 62.75 191.3 53.25 190.7 49.95 182.15 46.7 173.6 51.5 164.65 50.4 154.85 43.95 138.75 42.8 135.25 45.2 132.6 46.4 131.4 47.75 131.15 48.55 133.3 52.15 145.95 55.8 158.6 67.3 156.1 63.85 156.9 61.5 159.45 58.1 159.85 55.4 163.35 52.85 166.55 52.0 170.85 50.95 175.9 54.15 180.8 57.55 185.95 63.75 187.2 68.6 188.2 74.4 185.4 79.3 183.0 83.1 179.0 L83.35 179.1 M78.4 172.35 Q74.85 176.85 71.45 178.55 L65.15 181.45 63.0 181.7 61.65 180.8 61.65 180.75 61.45 180.25 Q60.65 178.6 60.7 177.9 60.75 176.75 62.15 174.75 63.5 172.75 65.9 173.1 L70.7 173.85 75.8 173.65 Q77.5 173.2 78.4 172.35" fill="#ce6702" fill-rule="evenodd" stroke="none"/>
      <path d="M68.1 165.0 L66.8 164.9 64.95 165.4 Q63.35 165.9 61.3 168.05 L60.35 169.0 59.4 169.75 Q58.6 170.25 57.9 170.45 L57.65 170.4 57.25 170.45 56.8 170.35 56.35 169.85 56.35 169.75 56.25 169.4 56.2 168.85 56.2 168.8 56.3 167.9 Q56.5 166.95 57.35 165.6 57.85 164.85 60.25 162.55 62.6 160.3 65.7 159.25 68.7 158.25 70.55 158.9 72.6 159.55 72.1 161.85 L71.65 163.5 Q71.3 164.35 70.0 164.75 L68.1 165.0 M73.0 184.2 Q72.75 185.5 70.65 186.9 67.8 188.75 64.05 188.0 62.45 187.65 62.25 186.8 L62.45 185.95 62.95 185.1 Q63.4 184.8 65.0 184.6 66.55 184.4 67.75 183.65 L70.0 181.75 Q71.05 180.6 72.2 181.65 73.35 182.6 73.0 184.2" fill="#ffffff" fill-rule="evenodd" stroke="none"/>
      <path d="M43.4 118.4 Q47.45 114.65 52.45 114.45 54.7 114.35 54.55 116.7 L53.95 119.45 Q53.0 126.75 53.5 128.9 54.3 132.25 51.55 133.15 48.9 133.55 45.0 133.15 39.4 132.75 39.4 127.5 39.35 122.15 43.4 118.4" fill="#e39904" fill-rule="evenodd" stroke="none"/>
      <path d="M53.1 115.6 Q53.6 116.25 53.45 116.6 52.95 118.05 51.45 120.1 49.95 122.15 49.9 123.45 L50.0 125.15 49.95 126.25 49.3 127.7 Q48.85 128.45 47.9 128.1 L47.4 127.95 46.9 126.85 Q46.75 126.0 46.75 123.9 46.75 121.75 47.85 120.2 L49.45 117.75 50.4 116.55 Q51.15 115.85 52.05 115.65 L53.1 115.6" fill="#fed201" fill-rule="evenodd" stroke="none"/>
      <path d="M50.65 124.45 Q49.55 125.55 48.45 125.3 47.4 125.1 47.25 124.3 L47.35 123.45 Q47.7 121.95 49.8 121.8 51.9 121.6 51.6 123.05 51.5 123.65 50.65 124.45" fill="#ffffff" fill-rule="evenodd" stroke="none"/>
      <path d="M44.35 128.2 Q49.2 126.4 52.15 127.75 55.15 129.05 56.35 131.05 57.55 133.05 57.15 135.0 L56.75 136.4 55.65 137.1 55.55 137.15 55.45 137.2 Q55.05 137.0 52.8 136.15 50.45 135.3 47.65 136.25 44.85 137.2 44.3 139.15 43.7 141.1 42.6 141.15 40.3 141.15 39.2 138.75 38.2 136.65 38.7 134.25 39.6 129.85 44.35 128.2" fill="#e39904" fill-rule="evenodd" stroke="none"/>
      <path d="M52.8 134.05 Q52.7 134.4 52.35 134.25 L51.45 133.8 Q50.7 133.4 49.65 133.1 L46.0 133.25 Q43.55 133.75 41.95 136.35 L41.5 136.4 Q41.25 134.3 41.9 133.25 L42.7 132.2 44.5 131.15 48.8 131.35 Q51.65 132.15 52.25 133.15 L52.7 133.8 52.8 134.05" fill="#fed201" fill-rule="evenodd" stroke="none"/>
      <path d="M48.45 131.8 L44.8 131.6 Q44.15 131.8 43.6 132.7 L43.2 133.55 Q43.35 134.05 43.7 134.05 L44.65 133.75 47.95 134.1 Q50.55 134.3 50.1 132.95 49.95 132.4 48.45 131.8" fill="#ffffff" fill-rule="evenodd" stroke="none"/>
      <path d="M124.6 112.85 Q128.6 115.8 129.9 119.45 131.15 123.1 129.25 123.7 127.8 122.5 124.2 121.9 120.65 121.2 118.8 124.75 115.95 119.0 109.3 115.95 107.0 110.65 113.75 110.05 120.6 109.85 124.6 112.85" fill="#e39904" fill-rule="evenodd" stroke="none"/>
      <path d="M112.4 113.4 Q110.5 113.1 112.25 111.45 114.0 109.85 118.25 110.95 126.45 112.8 129.65 120.05 L129.65 120.65 Q127.6 124.0 124.3 120.75 117.8 114.2 112.4 113.4" fill="#fed201" fill-rule="evenodd" stroke="none"/>
      <path d="M123.35 115.35 L122.35 115.5 Q121.7 115.4 121.45 114.75 L121.45 114.15 Q121.55 113.55 122.7 113.8 123.9 114.05 123.75 114.8 L123.35 115.35" fill="#ffffff" fill-rule="evenodd" stroke="none"/>
      <path d="M127.15 153.75 L129.25 156.45 Q133.45 162.85 131.7 170.5 L131.5 171.35 Q130.2 173.5 127.3 175.7 124.45 177.85 120.95 178.55 L114.3 178.9 Q111.2 178.55 108.05 175.65 104.85 172.75 103.8 169.8 102.75 166.75 103.55 163.15 104.35 159.35 106.9 156.4 109.5 153.55 112.3 152.1 115.0 150.55 117.6 149.8 121.3 124.75 124.45 122.5 126.2 124.95 126.0 129.1 L125.2 140.1 Q124.55 147.9 123.95 151.05 L127.15 153.75 M122.3 173.25 Q125.1 172.0 125.95 170.25 126.75 168.45 125.35 165.95 123.95 163.45 121.55 161.65 119.15 159.85 115.1 159.15 111.0 158.45 108.0 160.15 104.9 161.85 105.6 165.3 105.9 167.5 106.9 168.4 L107.0 168.4 110.25 170.65 Q111.8 171.65 114.25 172.25 L119.3 173.2 122.3 173.25" fill="#ff7e00" fill-rule="evenodd" stroke="none"/>
      <path d="M106.9 168.4 Q105.9 167.5 105.6 165.3 104.9 161.85 108.0 160.15 111.0 158.45 115.1 159.15 119.15 159.85 121.55 161.65 123.95 163.45 125.35 165.95 126.75 168.45 125.95 170.25 125.1 172.0 122.3 173.25 123.25 170.3 123.05 169.45 122.8 168.4 120.95 166.75 119.2 165.15 116.9 165.95 114.65 166.8 112.5 167.8 110.3 168.85 108.25 168.85 L106.9 168.4" fill="#000000" fill-rule="evenodd" stroke="none"/>
      <path d="M131.5 171.35 Q129.45 178.9 121.85 182.0 113.9 185.2 106.45 180.6 99.45 175.85 98.55 169.65 97.6 163.4 100.15 157.8 102.7 152.1 111.6 149.75 114.7 145.8 116.05 137.35 117.45 128.75 118.0 126.9 118.5 124.95 120.25 123.1 121.65 121.55 124.45 122.5 128.0 123.6 128.65 130.0 129.0 141.2 127.15 153.75 L123.95 151.05 Q124.55 147.9 125.2 140.1 L126.0 129.1 Q126.2 124.95 124.45 122.5 121.3 124.75 117.6 149.8 115.0 150.55 112.3 152.1 109.5 153.55 106.9 156.4 104.35 159.35 103.55 163.15 102.75 166.75 103.8 169.8 104.85 172.75 108.05 175.65 111.2 178.55 114.3 178.9 L120.95 178.55 Q124.45 177.85 127.3 175.7 130.2 173.5 131.5 171.35 M106.9 168.4 L108.25 168.85 Q110.3 168.85 112.5 167.8 114.65 166.8 116.9 165.95 119.2 165.15 120.95 166.75 122.8 168.4 123.05 169.45 123.25 170.3 122.3 173.25 L119.3 173.2 114.25 172.25 Q111.8 171.65 110.25 170.65 L107.0 168.4 106.9 168.4" fill="#ce6702" fill-rule="evenodd" stroke="none"/>
      <path d="M119.7 158.35 Q118.55 157.4 117.8 157.55 115.8 157.35 115.15 155.75 114.75 154.85 114.95 153.85 115.0 152.85 116.35 152.6 117.75 152.3 119.8 153.65 121.5 154.75 123.15 157.25 124.75 159.65 124.75 160.95 124.85 162.3 124.6 162.75 L123.4 162.65 Q122.45 162.1 121.6 161.0 L120.7 159.55 119.7 158.35 M115.1 175.85 L114.6 175.95 113.15 175.95 Q109.75 175.25 108.55 173.8 107.75 172.85 107.95 171.9 L108.4 171.15 108.85 170.85 110.4 170.75 112.0 171.75 113.3 172.55 Q115.15 173.3 115.55 173.6 116.0 173.85 115.85 174.8 115.65 175.7 115.1 175.85 M109.35 170.9 L109.25 170.85 109.35 170.9" fill="#ffffff" fill-rule="evenodd" stroke="none"/>
      <path d="M131.25 126.7 Q130.5 129.3 129.25 129.4 124.75 121.0 117.65 125.8 115.45 124.65 116.7 121.1 118.0 117.65 122.65 117.15 127.25 116.6 129.65 120.4 131.95 124.1 131.25 126.7" fill="#e39904" fill-rule="evenodd" stroke="none"/>
      <path d="M129.4 125.45 L129.0 125.4 128.55 124.5 127.45 123.05 Q126.75 122.3 124.65 121.5 122.65 120.7 120.25 122.2 L119.85 122.1 Q120.65 120.1 121.6 119.5 L122.75 118.9 124.5 118.9 Q125.9 119.0 127.7 121.15 129.45 123.2 129.45 124.35 L129.45 125.2 129.4 125.45" fill="#fed201" fill-rule="evenodd" stroke="none"/>
      <path d="M123.8 121.5 Q122.7 121.3 122.6 120.75 L122.7 120.25 Q123.0 118.85 124.95 119.0 126.95 119.2 126.65 120.55 126.35 122.05 123.8 121.5" fill="#ffffff" fill-rule="evenodd" stroke="none"/>
      <path d="M105.1 109.2 Q102.8 111.1 101.7 114.35 100.5 117.65 101.15 120.55 101.8 123.35 103.9 124.05 105.85 124.75 108.15 122.9 110.45 121.05 111.55 117.75 112.65 114.45 112.05 111.6 111.4 108.8 109.4 108.1 107.35 107.35 105.1 109.2 M107.15 112.55 Q107.5 111.7 108.15 111.15 108.8 110.7 109.5 110.9 110.15 111.15 110.45 111.9 110.7 112.7 110.4 113.6 110.05 114.5 109.4 115.0 L108.05 115.25 Q107.35 115.0 107.15 114.25 106.9 113.5 107.15 112.55 M116.0 109.25 Q117.65 113.8 115.9 119.05 114.2 124.25 110.3 127.1 106.35 129.8 102.5 128.55 98.65 127.25 97.15 122.8 L97.1 122.8 Q95.5 118.15 97.2 112.95 98.9 107.75 102.95 104.95 106.75 102.25 110.65 103.45 114.5 104.75 116.0 109.25" fill="#ffffff" fill-rule="evenodd" stroke="none"/>
      <path d="M105.1 109.2 Q107.35 107.35 109.4 108.1 111.4 108.8 112.05 111.6 112.65 114.45 111.55 117.75 110.45 121.05 108.15 122.9 105.85 124.75 103.9 124.05 101.8 123.35 101.15 120.55 100.5 117.65 101.7 114.35 102.8 111.1 105.1 109.2 M116.0 109.25 Q114.5 104.75 110.65 103.45 106.75 102.25 102.95 104.95 98.9 107.75 97.2 112.95 95.5 118.15 97.1 122.8 L97.15 122.8 Q98.65 127.25 102.5 128.55 106.35 129.8 110.3 127.1 114.2 124.25 115.9 119.05 117.65 113.8 116.0 109.25 M107.15 112.55 Q106.9 113.5 107.15 114.25 107.35 115.0 108.05 115.25 L109.4 115.0 Q110.05 114.5 110.4 113.6 110.7 112.7 110.45 111.9 110.15 111.15 109.5 110.9 108.8 110.7 108.15 111.15 107.5 111.7 107.15 112.55 M102.0 103.65 Q106.55 100.45 111.15 102.0 115.7 103.45 117.5 108.75 119.3 113.8 117.4 119.55 115.5 125.25 111.15 128.35 106.55 131.55 101.95 130.05 97.45 128.5 95.65 123.25 L95.65 123.3 Q93.75 118.2 95.65 112.45 97.6 106.7 102.0 103.65" fill="#000000" fill-rule="evenodd" stroke="none"/>
      <path d="M46.3 38.55 Q49.75 33.85 53.3 27.65 L53.35 27.6 53.6 27.15 53.6 27.1 Q54.9 24.8 58.7 13.65 L61.5 5.35 63.25 -0.15 Q65.15 -6.15 68.05 -8.05 L68.0 -8.05 Q71.05 -10.4 75.1 -8.3 81.95 -4.9 83.9 9.2 L84.05 10.45 Q86.15 19.75 90.9 25.1 L94.75 29.5 Q102.2 38.15 104.6 40.55 L104.55 40.55 Q114.35 50.05 121.5 57.75 L122.65 58.85 122.65 58.8 Q128.85 64.65 133.45 73.6 138.45 83.3 135.7 96.7 L134.9 99.75 Q133.7 103.75 131.35 109.05 L129.55 112.35 Q126.95 117.15 124.15 119.45 L124.05 119.5 123.6 119.7 123.25 119.7 Q122.95 119.65 122.8 119.5 L122.7 119.45 122.4 118.9 122.4 118.85 121.95 117.05 121.9 116.95 Q120.95 113.25 119.2 110.75 117.25 108.05 114.45 106.5 105.45 101.55 94.35 101.9 87.4 102.05 81.3 103.2 L77.25 104.1 77.0 104.1 76.95 104.1 76.9 104.15 75.0 104.75 66.45 108.15 Q60.3 110.75 52.75 116.3 L52.75 116.25 51.35 117.3 46.4 112.2 Q39.6 104.55 37.65 100.05 36.3 97.2 33.35 86.5 29.75 72.9 30.7 68.15 31.3 65.2 33.45 62.15 L37.9 56.4 Q41.15 52.15 43.35 47.1 45.1 43.05 46.3 38.55" fill="#e891a2" fill-rule="evenodd" stroke="none"/>
      <path d="M46.3 38.55 Q45.1 43.05 43.35 47.1 41.15 52.15 37.9 56.4 L33.45 62.15 Q31.3 65.2 30.7 68.15 29.75 72.9 33.35 86.5 36.3 97.2 37.65 100.05 39.6 104.55 46.4 112.2 L51.35 117.3 Q49.75 118.55 48.55 119.75 L48.55 119.8 47.35 120.8 47.25 120.95 Q44.95 123.45 41.8 123.7 L37.0 123.3 36.95 123.3 Q34.15 122.5 31.25 120.8 L30.0 120.1 29.65 119.8 Q25.0 116.4 21.75 110.25 L21.7 110.15 21.65 110.15 Q20.45 107.7 19.4 105.0 L19.45 105.0 19.45 104.95 19.25 104.55 Q18.45 102.4 18.1 100.05 L18.15 100.05 Q17.5 96.15 17.9 91.6 17.75 91.3 17.9 91.05 18.5 83.5 21.85 74.25 L21.9 74.25 21.95 74.15 Q24.75 67.25 29.8 59.65 34.2 52.95 40.35 45.85 L42.9 42.85 Q42.95 42.75 43.05 42.8 L46.3 38.55" fill="#d81664" fill-rule="evenodd" stroke="none"/>
      <path d="M75.85 -3.45 Q63.9 37.05 54.1 55.2 44.35 73.4 55.2 77.35 66.05 81.35 80.5 80.3 97.35 79.1 107.95 87.05 122.4 99.9 121.7 107.8 114.9 96.55 96.15 94.55 82.65 95.2 66.95 102.35 51.3 109.45 42.65 108.2 25.95 103.15 28.25 88.9 30.55 74.55 37.5 64.45 44.45 54.4 52.9 38.75 61.3 23.15 65.2 11.4 69.15 -0.45 72.2 -6.15 77.75 -4.1 75.85 -3.45" fill="#bc154b" fill-rule="evenodd" stroke="none"/>
      <path d="M84.25 59.9 Q81.7 52.95 76.35 46.3 L68.8 54.8 Q65.55 58.2 65.4 62.55 61.7 59.65 58.3 51.65 53.4 54.4 48.55 62.85 46.55 66.35 46.45 69.7 44.75 67.2 44.1 59.9 39.45 63.3 35.75 69.75 32.05 76.2 32.65 81.6 29.9 79.9 28.6 74.95 27.35 74.65 25.9 77.05 22.75 83.25 20.95 90.65 19.95 94.7 19.4 99.05 18.7 95.2 19.15 90.65 L19.2 90.3 Q19.8 82.95 23.1 73.8 28.35 60.9 41.35 45.65 46.35 43.6 51.7 38.65 56.3 35.0 59.05 30.05 59.3 34.25 60.35 35.85 64.9 29.95 66.65 21.05 69.7 29.75 74.85 35.25 77.0 29.05 76.4 21.3 83.7 30.0 90.0 34.5 88.55 28.9 85.25 23.1 90.4 28.05 94.1 29.45 L104.0 40.5 Q113.8 50.05 120.9 57.7 L122.1 58.75 Q122.0 68.75 120.0 67.35 L112.45 56.9 Q110.4 54.15 109.15 55.8 108.0 60.25 105.6 63.2 103.85 62.45 102.2 58.85 99.75 53.55 95.15 47.9 93.6 47.7 90.45 51.1 87.35 54.45 84.25 59.9 M73.05 -0.1 L71.25 8.5 70.15 5.3 Q68.7 1.3 65.55 5.85 57.55 16.8 62.85 3.9 L64.45 -0.65 Q68.05 -11.7 74.75 -8.2 81.2 -4.85 83.05 8.5 L75.9 -0.95 Q73.95 -3.5 73.05 -0.1" fill="#ffffff" fill-rule="evenodd" stroke="none"/>
      <path d="M31.75 103.85 L32.7 104.3 33.05 104.5 35.15 105.7 36.6 106.7 Q39.75 109.0 43.0 108.1 41.4 103.55 42.9 96.45 L42.95 96.2 43.4 96.55 Q47.5 99.55 52.25 100.8 L57.95 101.95 58.35 99.65 Q59.35 94.25 62.55 88.7 L69.2 94.9 Q72.05 97.4 73.7 97.15 77.45 89.9 83.15 83.6 85.55 85.15 90.55 94.3 L90.75 94.6 84.35 94.9 Q81.5 95.3 77.6 96.55 75.7 97.1 70.8 99.5 70.7 99.5 70.65 99.6 L71.15 99.45 Q70.75 99.55 60.75 104.85 51.9 109.5 46.85 113.6 42.45 117.15 39.6 116.65 36.75 116.05 35.2 112.4 L31.55 103.75 31.75 103.85 M92.8 94.3 Q97.55 87.55 103.15 82.2 106.5 89.75 107.85 96.25 107.8 96.45 107.9 96.65 L101.7 95.4 102.5 95.5 92.55 94.55 92.55 94.6 92.5 94.6 92.8 94.3 M108.7 96.45 Q113.8 90.0 117.7 87.4 119.3 87.65 119.2 100.45 122.3 95.7 126.95 92.9 128.4 93.0 128.2 96.95 128.0 100.95 126.7 104.55 130.75 102.9 133.8 99.8 132.6 103.8 130.25 109.0 L130.05 109.4 130.0 109.35 Q128.5 107.35 125.95 105.2 L124.45 104.15 Q117.6 99.5 114.25 98.65 L109.7 97.1 108.5 96.75 108.7 96.45" fill="#ffa1a1" fill-rule="evenodd" stroke="none"/>
      <path d="M90.55 94.3 L90.8 94.3 92.55 94.3 92.6 94.3 92.65 94.25 92.8 94.3 92.5 94.6 92.55 94.6 92.55 94.55 102.5 95.5 101.7 95.4 107.9 96.65 Q107.8 96.45 107.85 96.25 L107.95 96.3 108.55 96.4 108.7 96.45 108.5 96.75 109.7 97.1 114.25 98.65 Q117.6 99.5 124.45 104.15 L125.95 105.2 Q128.5 107.35 130.0 109.35 L128.65 111.95 Q126.15 116.55 123.45 118.75 L123.0 116.9 Q122.05 112.95 120.05 110.2 118.0 107.3 115.0 105.65 105.75 100.6 94.35 100.9 87.3 101.1 81.1 102.2 L76.95 103.15 76.55 103.2 74.65 103.8 Q70.9 105.15 66.0 107.25 59.75 110.0 52.05 115.55 L47.8 119.05 46.45 120.35 Q44.45 122.6 41.75 122.75 L37.2 122.35 Q34.55 121.65 31.75 120.0 L30.55 119.2 30.35 119.05 Q27.35 115.0 30.0 102.65 L31.6 103.45 31.75 103.85 31.55 103.75 35.2 112.4 Q36.75 116.05 39.6 116.65 42.45 117.15 46.85 113.6 51.9 109.5 60.75 104.85 70.75 99.55 71.15 99.45 L70.65 99.6 Q70.7 99.5 70.8 99.5 75.7 97.1 77.6 96.55 81.5 95.3 84.35 94.9 L90.75 94.6 90.55 94.3" fill="#ffcfcf" fill-rule="evenodd" stroke="none"/>
      <path d="M76.6 4.45 L78.4 8.8 Q80.1 12.8 80.45 15.6 80.8 18.35 80.55 18.75 80.3 19.15 79.65 19.25 79.05 19.25 78.3 18.75 74.2 13.25 74.1 6.95 74.05 4.7 74.8 4.2 75.5 3.7 76.0 3.85 L76.6 4.45" fill="#ffffff" fill-rule="evenodd" stroke="none"/>
      <path d="M58.55 69.35 Q56.45 64.65 70.3 65.45 84.05 66.25 88.35 69.0 92.7 71.75 89.2 73.85 85.65 75.95 80.65 74.4 75.65 72.8 68.3 72.3 60.95 71.65 58.55 69.35" fill="#ffffff" fill-rule="evenodd" stroke="none"/>
      <path d="M113.7 75.8 Q114.2 77.8 113.5 78.45 107.7 85.05 102.8 74.35 L96.5 60.8 96.35 59.9 Q96.65 57.5 98.8 58.95 102.55 62.05 104.35 64.25 106.15 66.5 109.2 69.35 111.8 71.8 113.7 75.8" fill="#ffffff" fill-rule="evenodd" stroke="none"/>
      <path d="M86.0 125.3 Q85.8 125.95 86.25 127.1 86.7 128.1 87.8 128.2 89.0 128.25 89.5 127.8 L90.1 126.6 Q90.2 126.05 89.9 125.2 L89.9 124.6 90.35 124.2 90.95 124.25 Q91.25 124.35 91.35 124.7 91.8 125.95 91.7 126.9 L91.65 126.95 90.7 128.8 Q89.85 129.9 87.75 129.75 85.55 129.65 84.8 127.65 84.1 125.85 84.5 124.8 L84.9 124.35 85.55 124.25 86.0 124.7 86.0 125.3" fill="#000000" fill-rule="evenodd" stroke="none"/>
    </g>
  </defs>
</svg>
