<?xml version="1.0" encoding="UTF-8" standalone="no"?>
<svg xmlns:xlink="http://www.w3.org/1999/xlink" height="164.5px" width="171.05px" xmlns="http://www.w3.org/2000/svg">
  <g transform="matrix(1.0, 0.0, 0.0, 1.0, 2.55, 1.85)">
    <use height="162.65" transform="matrix(1.0, 0.0, 0.0, 1.0, -1.0, 0.0)" width="165.0" xlink:href="#shape0"/>
    <use height="234.55" transform="matrix(0.3394, -0.0013, 0.0013, 0.3394, 70.3968, 40.0524)" width="271.05" xlink:href="#shape1"/>
    <use height="4.6" transform="matrix(1.0066, -0.004, 0.004, 1.0066, 98.65, 98.5)" width="56.4" xlink:href="#shape2"/>
  </g>
  <defs>
    <g id="shape0" transform="matrix(1.0, 0.0, 0.0, 1.0, 1.0, 0.0)">
      <path d="M69.25 142.65 Q68.3 144.0 66.65 144.0 64.75 144.0 63.9 142.45 63.4 141.6 63.4 140.75 63.4 137.35 66.7 137.55 69.95 137.8 69.95 140.8 69.95 141.7 69.25 142.65" fill="#c1b255" fill-rule="evenodd" stroke="none"/>
      <path d="M103.25 132.4 L104.2 124.65 Q104.65 120.65 108.75 115.2 112.8 109.65 120.15 114.35 126.95 118.7 127.7 124.25 L127.7 124.45 129.8 138.35 129.75 138.3 129.35 138.2 129.25 138.25 129.05 138.15 128.2 138.25 Q126.05 138.55 125.0 139.8 L123.8 141.45 Q123.55 141.85 123.9 141.8 L123.35 142.0 122.1 142.3 Q119.05 144.7 118.55 148.6 L115.05 147.3 Q113.35 146.6 111.45 145.3 110.2 144.5 109.3 143.45 L108.55 142.55 108.7 142.85 108.6 142.65 107.5 140.95 106.15 138.9 104.75 135.25 Q103.7 132.5 103.4 132.45 L103.25 132.4" fill="#437710" fill-rule="evenodd" stroke="none"/>
      <path d="M103.25 132.4 L103.4 132.45 Q103.7 132.5 104.75 135.25 L106.15 138.9 107.5 140.95 108.6 142.65 108.7 142.85 108.55 142.55 109.3 143.45 Q110.2 144.5 111.45 145.3 113.35 146.6 115.05 147.3 L118.55 148.6 Q118.45 149.3 118.5 150.05 L118.45 150.05 Q113.25 149.45 108.35 148.0 L107.35 147.65 107.0 147.55 Q104.05 146.7 102.5 141.8 101.8 138.75 102.7 134.4 102.9 133.35 103.25 132.4" fill="#37610e" fill-rule="evenodd" stroke="none"/>
      <path d="M118.55 148.6 Q119.05 144.7 122.1 142.3 L123.35 142.0 123.9 141.8 Q123.55 141.85 123.8 141.45 L125.0 139.8 Q126.05 138.55 128.2 138.25 L129.25 138.25 129.35 138.2 129.75 138.3 129.8 138.35 129.75 138.4 Q127.55 139.35 127.1 139.65 126.3 140.2 126.1 141.1 125.9 142.25 127.5 144.1 L128.7 145.5 Q129.2 146.05 130.8 146.3 L133.35 146.6 Q131.7 147.7 128.55 148.15 127.75 144.5 124.3 142.1 L123.45 142.6 Q122.35 143.45 122.0 144.05 L120.8 146.65 Q120.7 147.1 120.9 147.85 121.2 148.7 121.75 149.05 L124.45 150.0 123.4 150.15 121.65 150.35 118.5 150.05 Q118.45 149.3 118.55 148.6" fill="#b9aa4b" fill-rule="evenodd" stroke="none"/>
      <path d="M129.75 138.4 Q131.4 139.05 132.4 140.15 134.2 141.95 134.45 143.4 134.65 144.85 134.45 145.4 L133.35 146.6 130.8 146.3 Q129.2 146.05 128.7 145.5 L127.5 144.1 Q125.9 142.25 126.1 141.1 126.3 140.2 127.1 139.65 127.55 139.35 129.75 138.4 M128.55 148.15 Q126.85 149.4 124.45 150.0 L121.75 149.05 Q121.2 148.7 120.9 147.85 120.7 147.1 120.8 146.65 L122.0 144.05 Q122.35 143.45 123.45 142.6 L124.3 142.1 Q127.75 144.5 128.55 148.15 M130.2 142.05 L130.1 142.0 129.4 141.85 129.55 141.85 130.2 142.05" fill="#e6da88" fill-rule="evenodd" stroke="none"/>
      <path d="M153.45 87.65 L152.15 85.65 152.1 85.55 Q148.05 79.7 144.85 81.6 142.55 83.55 142.4 85.7 L142.3 86.05 141.35 85.2 Q139.05 82.85 139.0 79.5 L139.0 79.35 139.0 79.3 Q139.0 75.95 141.35 73.55 143.7 71.1 145.75 71.0 L147.95 70.95 148.0 71.0 149.45 71.45 Q151.35 72.2 152.7 73.5 156.1 76.8 155.6 83.5 155.55 86.75 153.45 87.65" fill="#b6c067" fill-rule="evenodd" stroke="none"/>
      <path d="M162.8 124.85 L162.8 125.25 Q160.4 127.35 159.6 131.2 159.25 128.1 157.65 125.65 153.35 122.05 150.9 126.55 149.55 129.05 149.5 130.4 149.2 134.9 149.6 137.7 L146.35 136.9 146.35 136.7 146.3 133.8 Q146.05 129.65 144.8 127.6 142.9 124.55 138.95 125.9 135.3 126.75 136.3 135.2 135.2 134.3 133.6 133.95 L133.6 133.9 133.55 133.85 133.2 133.85 133.45 133.7 Q131.8 131.75 130.85 127.45 131.9 118.15 135.7 108.55 136.9 100.2 140.25 91.3 L140.3 91.25 140.3 91.2 140.5 90.75 141.2 88.95 141.3 88.7 141.45 88.3 141.85 87.35 142.1 86.65 142.1 86.6 142.15 86.55 142.3 86.05 142.4 85.7 Q142.55 83.55 144.85 81.6 148.05 79.7 152.1 85.55 L152.15 85.65 153.45 87.65 156.4 93.1 Q160.2 101.05 161.2 108.9 162.5 117.4 162.8 124.85 M145.05 87.35 L145.0 87.45 Q143.9 89.3 143.25 93.05 141.15 105.1 141.15 113.55 141.15 117.15 141.45 118.85 141.85 121.15 142.9 121.15 143.85 121.15 145.25 119.85 146.65 118.55 147.3 118.55 147.75 118.55 148.35 119.45 L149.35 120.35 150.65 119.35 Q151.55 118.35 152.6 118.35 154.1 118.35 155.45 119.7 156.8 121.05 157.8 121.05 159.95 121.05 159.95 114.4 L159.85 111.45 Q158.2 99.05 152.55 89.8 L152.25 89.3 150.35 86.9 150.25 86.8 Q147.0 84.1 145.05 87.35 M142.1 86.7 L141.9 87.3 142.1 86.75 142.1 86.7" fill="#487d14" fill-rule="evenodd" stroke="none"/>
      <path d="M145.05 87.35 Q147.0 84.1 150.25 86.8 L150.35 86.9 152.25 89.3 152.55 89.8 Q158.2 99.05 159.85 111.45 L159.95 114.4 Q159.95 121.05 157.8 121.05 156.8 121.05 155.45 119.7 154.1 118.35 152.6 118.35 151.55 118.35 150.65 119.35 L149.35 120.35 148.35 119.45 Q147.75 118.55 147.3 118.55 146.65 118.55 145.25 119.85 143.85 121.15 142.9 121.15 141.85 121.15 141.45 118.85 141.15 117.15 141.15 113.55 141.15 105.1 143.25 93.05 143.9 89.3 145.0 87.45 L145.05 87.35" fill="#a1cd51" fill-rule="evenodd" stroke="none"/>
      <path d="M149.6 137.7 Q149.2 134.9 149.5 130.4 149.55 129.05 150.9 126.55 153.35 122.05 157.65 125.65 159.25 128.1 159.6 131.2 160.4 127.35 162.8 125.25 L162.8 124.85 163.7 126.4 Q164.0 127.05 164.0 128.45 164.0 133.15 162.85 134.45 162.0 135.35 159.5 135.7 L158.7 139.35 Q157.3 142.4 151.95 142.0 150.1 141.7 149.6 137.7 M136.3 135.2 Q135.3 126.75 138.95 125.9 142.9 124.55 144.8 127.6 L144.4 127.35 Q142.85 126.45 141.75 126.45 140.1 126.45 139.6 127.4 139.15 128.15 139.15 130.5 139.15 134.0 140.6 136.2 142.0 138.3 144.15 138.3 L144.65 138.2 Q145.8 137.05 146.05 135.5 L146.3 133.8 146.35 136.7 146.35 136.9 146.25 137.25 Q145.55 139.4 143.6 139.85 141.95 140.2 139.45 139.35 L139.5 139.3 Q137.2 138.75 136.3 135.2 M152.75 127.15 L152.65 127.3 152.3 127.95 152.0 129.15 Q151.8 130.4 151.8 135.2 151.8 137.75 152.3 138.95 152.95 140.5 154.55 140.5 156.5 140.5 157.6 138.5 158.5 136.85 158.5 134.95 158.5 131.5 157.6 129.25 156.5 126.55 154.35 126.55 L153.2 126.7 153.05 126.85 152.75 127.15" fill="#b9aa4b" fill-rule="evenodd" stroke="none"/>
      <path d="M144.8 127.6 Q146.05 129.65 146.3 133.8 L146.05 135.5 Q145.8 137.05 144.65 138.2 L144.15 138.3 Q142.0 138.3 140.6 136.2 139.15 134.0 139.15 130.5 139.15 128.15 139.6 127.4 140.1 126.45 141.75 126.45 142.85 126.45 144.4 127.35 L144.8 127.6 M152.75 127.15 L153.05 126.85 153.2 126.7 154.35 126.55 Q156.5 126.55 157.6 129.25 158.5 131.5 158.5 134.95 158.5 136.85 157.6 138.5 156.5 140.5 154.55 140.5 152.95 140.5 152.3 138.95 151.8 137.75 151.8 135.2 151.8 130.4 152.0 129.15 L152.3 127.95 152.65 127.3 152.75 127.15" fill="#e6da88" fill-rule="evenodd" stroke="none"/>
      <path d="M148.3 99.1 L148.2 98.05 Q146.4 89.6 149.65 91.7 155.55 99.65 154.15 109.35 L154.05 109.8 Q151.8 112.2 149.2 109.85 149.4 105.75 148.3 99.1" fill="#ffffff" fill-rule="evenodd" stroke="none"/>
      <path d="M37.45 14.6 Q40.2 7.5 48.1 6.0 53.5 4.9 61.45 6.6 67.35 -0.15 73.3 0.0 L74.05 0.05 Q83.0 0.3 87.2 3.6 87.0 5.1 86.05 5.8 L84.85 6.25 82.6 5.85 Q81.4 6.8 79.9 7.1 L73.65 8.2 70.45 8.35 66.9 8.5 59.35 9.2 57.25 12.25 55.3 11.75 49.2 11.05 45.45 11.35 Q43.05 11.7 42.25 12.15 40.2 13.0 38.85 13.75 38.05 14.15 37.45 14.6 M88.8 5.15 Q94.5 1.35 99.8 3.6 100.7 3.95 101.65 4.55 109.5 9.1 112.7 14.1 L112.7 14.2 112.75 14.2 114.2 17.2 114.35 17.65 114.6 18.55 114.55 18.85 Q115.5 22.85 115.6 25.7 115.65 28.35 117.3 36.25 113.95 28.85 112.55 27.9 109.25 25.65 105.5 25.65 L104.1 25.75 103.5 25.85 103.3 25.75 Q103.45 24.75 102.0 21.7 100.65 19.0 99.0 16.55 97.6 14.45 93.0 12.05 91.55 11.25 88.95 10.55 86.15 9.75 84.3 9.75 L83.4 9.8 Q85.8 7.0 88.8 5.15" fill="#e5d681" fill-rule="evenodd" stroke="none"/>
      <path d="M37.45 14.6 Q38.05 14.15 38.85 13.75 40.2 13.0 42.25 12.15 43.05 11.7 45.45 11.35 L49.2 11.05 55.3 11.75 57.25 12.25 59.35 9.2 66.9 8.5 70.45 8.35 73.65 8.2 79.9 7.1 Q81.4 6.8 82.6 5.85 L84.85 6.25 86.05 5.8 Q87.0 5.1 87.2 3.6 L88.8 5.15 Q85.8 7.0 83.4 9.8 L84.3 9.75 Q86.15 9.75 88.95 10.55 91.55 11.25 93.0 12.05 97.6 14.45 99.0 16.55 100.65 19.0 102.0 21.7 103.45 24.75 103.3 25.75 L103.5 25.85 104.1 25.75 105.5 25.65 Q109.25 25.65 112.55 27.9 113.95 28.85 117.3 36.25 117.55 37.1 117.45 38.0 L117.7 40.55 Q117.7 46.0 115.6 50.35 L115.2 51.2 Q107.75 52.65 100.6 58.0 L98.75 57.2 Q99.9 53.15 100.25 49.4 100.75 43.9 99.45 38.95 98.45 35.35 96.55 32.05 94.95 19.25 79.05 16.7 L78.95 16.7 74.0 16.3 73.85 15.95 Q69.25 10.05 54.35 16.8 L55.05 15.65 Q43.6 14.8 36.75 20.85 L36.35 21.2 35.95 21.55 Q27.2 27.4 20.7 34.9 L20.55 33.6 Q20.6 30.55 24.05 27.1 L24.1 27.05 Q30.6 17.9 36.2 19.45 36.55 16.75 37.45 14.6" fill="#b9ac4b" fill-rule="evenodd" stroke="none"/>
      <path d="M87.95 28.45 L87.85 28.3 87.85 28.35 84.3 24.8 83.85 24.4 Q78.25 22.25 70.7 30.25 63.1 38.2 58.95 44.25 L55.4 49.4 54.35 51.1 53.4 52.85 52.35 55.0 52.2 55.45 Q50.2 56.0 48.1 57.0 48.3 53.45 49.8 49.4 54.05 37.5 69.0 21.05 L69.05 21.05 Q68.15 20.05 65.65 20.05 61.3 20.05 57.65 22.9 L50.2 29.95 47.1 33.4 Q45.5 35.35 43.45 38.5 41.35 41.6 38.6 46.9 L37.5 49.4 Q36.2 52.7 34.5 58.6 L30.8 72.65 Q28.85 75.5 27.05 78.75 26.45 68.8 29.25 58.6 30.5 54.0 32.5 49.4 37.85 36.75 48.4 23.75 47.6 22.15 45.15 22.15 43.75 22.15 42.75 22.7 41.4 23.45 36.65 28.9 32.3 33.85 24.25 49.4 L22.8 52.2 Q21.25 55.3 19.95 58.6 14.4 72.9 13.95 91.55 L12.5 92.5 Q10.7 74.0 15.1 58.6 16.3 54.3 18.0 50.25 L18.35 49.4 Q25.95 31.4 34.0 23.7 34.9 22.55 35.95 21.55 L36.35 21.2 36.75 20.85 Q43.6 14.8 55.05 15.65 L54.35 16.8 Q69.25 10.05 73.85 15.95 L74.0 16.3 78.95 16.7 79.05 16.7 Q94.95 19.25 96.55 32.05 98.45 35.35 99.45 38.95 100.75 43.9 100.25 49.4 99.9 53.15 98.75 57.2 94.75 55.6 90.35 54.65 91.3 51.9 91.85 49.4 94.05 39.35 89.9 33.0 90.05 31.3 88.4 29.05 L87.95 28.45" fill="#958b37" fill-rule="evenodd" stroke="none"/>
      <path d="M0.9 106.45 Q-4.25 81.15 4.7 60.2 L4.85 59.8 5.4 58.6 5.5 58.45 Q7.6 53.8 10.4 49.4 L12.6 46.1 13.45 44.7 Q14.95 42.2 16.7 39.85 L20.7 34.9 Q27.2 27.4 35.95 21.55 34.9 22.55 34.0 23.7 25.95 31.4 18.35 49.4 L18.0 50.25 Q16.3 54.3 15.1 58.6 10.7 74.0 12.5 92.5 4.05 98.15 0.9 106.45 M87.85 28.35 L87.95 28.45 88.4 29.05 Q90.05 31.3 89.9 33.0 94.05 39.35 91.85 49.4 91.3 51.9 90.35 54.65 76.65 51.7 58.8 54.95 L52.2 55.45 52.35 55.0 53.4 52.85 54.35 51.1 55.4 49.4 58.95 44.25 Q63.1 38.2 70.7 30.25 78.25 22.25 83.85 24.4 L84.3 24.8 87.85 28.35 M13.95 91.55 Q14.4 72.9 19.95 58.6 21.25 55.3 22.8 52.2 L24.25 49.4 Q32.3 33.85 36.65 28.9 41.4 23.45 42.75 22.7 43.75 22.15 45.15 22.15 47.6 22.15 48.4 23.75 37.85 36.75 32.5 49.4 30.5 54.0 29.25 58.6 26.45 68.8 27.05 78.75 L26.9 79.0 25.6 81.4 Q24.1 84.3 22.9 87.2 17.9 89.1 13.95 91.55 M30.8 72.65 L34.5 58.6 Q36.2 52.7 37.5 49.4 L38.6 46.9 Q41.35 41.6 43.45 38.5 45.5 35.35 47.1 33.4 L50.2 29.95 57.65 22.9 Q61.3 20.05 65.65 20.05 68.15 20.05 69.05 21.05 L69.0 21.05 Q54.05 37.5 49.8 49.4 48.3 53.45 48.1 57.0 L45.65 58.3 45.15 58.6 Q37.15 63.45 30.8 72.65 M115.2 51.2 L115.6 50.35 Q117.7 46.0 117.7 40.55 L117.45 38.0 Q117.55 37.1 117.3 36.25 115.65 28.35 115.6 25.7 116.9 26.2 121.0 31.05 122.85 33.15 124.05 36.85 L124.05 37.1 Q124.6 37.9 124.75 40.75 127.8 46.15 126.2 49.4 L125.05 50.95 Q120.05 50.2 115.2 51.2" fill="#5b5101" fill-rule="evenodd" stroke="none"/>
      <path d="M136.85 54.95 L137.1 55.1 Q139.9 56.6 142.75 58.6 L143.5 59.15 Q145.4 61.05 144.55 62.35 L143.8 63.1 Q142.9 63.6 141.25 64.0 129.0 59.8 118.55 64.0 105.9 59.55 90.8 59.4 82.25 59.3 74.45 60.6 66.0 61.2 57.6 63.2 53.6 63.75 49.2 65.9 L49.0 66.0 Q47.0 67.0 44.95 68.3 36.9 73.4 33.6 79.85 L33.5 79.95 33.6 79.9 33.65 79.85 Q40.25 74.75 43.8 72.95 L44.0 72.85 Q31.8 81.55 27.35 92.7 19.1 96.75 13.8 103.65 6.4 113.25 7.25 124.9 9.7 134.45 14.3 138.45 L10.65 136.8 9.85 136.35 9.8 136.35 9.1 136.1 Q-4.0 127.5 -0.1 109.65 L0.9 106.45 Q4.05 98.15 12.5 92.5 L13.95 91.55 Q17.9 89.1 22.9 87.2 24.1 84.3 25.6 81.4 L26.9 79.0 27.05 78.75 Q28.85 75.5 30.8 72.65 37.15 63.45 45.15 58.6 L45.65 58.3 48.1 57.0 Q50.2 56.0 52.2 55.45 L58.8 54.95 Q76.65 51.7 90.35 54.65 94.75 55.6 98.75 57.2 L100.6 58.0 Q107.75 52.65 115.2 51.2 120.05 50.2 125.05 50.95 130.85 51.8 136.85 54.95" fill="#c7ba5e" fill-rule="evenodd" stroke="none"/>
      <path d="M114.35 17.65 L121.05 23.5 Q129.9 31.65 133.85 38.8 136.95 44.45 137.0 49.4 L136.85 51.7 136.7 51.55 Q137.3 53.5 136.85 54.95 130.85 51.8 125.05 50.95 L126.2 49.4 Q127.8 46.15 124.75 40.75 124.6 37.9 124.05 37.1 L124.05 36.85 Q122.85 33.15 121.0 31.05 116.9 26.2 115.6 25.7 115.5 22.85 114.55 18.85 L114.6 18.55 114.35 17.65" fill="#b7ac54" fill-rule="evenodd" stroke="none"/>
      <path d="M74.45 60.6 Q57.35 63.4 44.0 72.85 L43.8 72.95 Q40.25 74.75 33.65 79.85 L33.6 79.9 33.6 79.85 Q36.9 73.4 44.95 68.3 47.0 67.0 49.0 66.0 L49.2 65.9 Q53.6 63.75 57.6 63.2 66.0 61.2 74.45 60.6 M55.2 73.2 L55.25 73.25 55.2 73.3 55.2 73.2" fill="#bda442" fill-rule="evenodd" stroke="none"/>
      <path d="M143.8 63.1 Q144.3 65.0 144.3 67.55 144.3 70.7 140.95 74.6 L139.85 75.75 139.1 76.5 138.55 77.05 Q135.85 79.55 130.95 83.15 131.55 84.4 131.55 86.45 131.55 91.2 128.25 95.9 L122.15 104.9 119.1 109.85 117.7 112.3 116.95 113.75 113.55 118.85 Q110.35 123.65 104.05 129.25 97.75 134.85 70.6 142.5 61.3 145.15 51.45 145.3 L44.8 145.15 44.05 145.1 44.05 145.15 Q33.0 144.7 24.1 142.0 L19.2 140.2 Q12.2 131.75 12.3 123.45 L12.3 123.25 12.3 123.2 Q12.55 111.5 21.35 104.3 L25.0 101.8 Q26.4 100.95 27.9 100.35 L31.05 95.8 35.05 91.0 34.45 91.55 36.6 89.25 Q39.2 86.55 42.5 83.9 56.05 72.4 66.75 69.5 77.4 66.55 80.6 65.85 L87.0 64.55 90.95 63.95 96.5 63.5 Q104.75 63.2 112.6 64.85 L115.1 65.6 116.65 64.8 118.55 64.0 Q129.0 59.8 141.25 64.0 142.9 63.6 143.8 63.1 M83.95 60.65 L85.25 60.35 86.05 60.4 83.95 60.65" fill="#51461e" fill-rule="evenodd" stroke="none"/>
      <path d="M19.2 140.2 L16.45 139.0 16.35 139.0 15.65 138.85 14.3 138.45 Q9.7 134.45 7.25 124.9 6.4 113.25 13.8 103.65 19.1 96.75 27.35 92.7 31.8 81.55 44.0 72.85 47.65 71.05 51.35 71.05 55.2 71.05 55.2 73.2 L55.2 73.3 55.25 73.25 Q63.8 65.15 83.95 60.65 L86.05 60.4 85.25 60.35 83.65 60.3 74.45 60.6 Q82.25 59.3 90.8 59.4 105.9 59.55 118.55 64.0 L116.65 64.8 115.1 65.6 112.6 64.85 Q104.75 63.2 96.5 63.5 L90.95 63.95 87.0 64.55 80.6 65.85 Q77.4 66.55 66.75 69.5 56.05 72.4 42.5 83.9 39.2 86.55 36.6 89.25 L34.45 91.55 35.05 91.0 31.05 95.8 27.9 100.35 Q26.4 100.95 25.0 101.8 L21.35 104.3 Q12.55 111.5 12.3 123.2 L12.3 123.25 12.3 123.45 Q12.2 131.75 19.2 140.2" fill="#978335" fill-rule="evenodd" stroke="none"/>
      <path d="M74.45 60.6 L83.65 60.3 85.25 60.35 83.95 60.65 Q63.8 65.15 55.25 73.25 L55.2 73.2 Q55.2 71.05 51.35 71.05 47.65 71.05 44.0 72.85 57.35 63.4 74.45 60.6" fill="#8b7830" fill-rule="evenodd" stroke="none"/>
      <path d="M70.5 150.1 L69.15 150.1 67.6 150.15 67.3 150.15 63.05 150.25 43.75 149.3 34.5 147.7 30.75 146.8 27.5 145.75 26.65 145.6 23.2 142.45 21.15 140.1 Q18.05 136.1 17.9 131.15 17.75 126.7 18.2 122.7 L19.85 123.85 Q23.65 126.35 29.8 128.95 34.35 130.9 39.4 132.65 L49.45 135.65 50.5 135.95 57.5 137.55 Q62.35 144.2 70.5 150.1 M88.15 61.35 L97.2 59.8 97.7 59.85 101.7 60.4 102.3 60.55 104.55 60.9 Q99.65 62.55 95.05 64.55 87.25 67.95 80.15 72.2 68.4 79.4 61.25 87.45 L59.5 89.5 58.75 90.5 Q56.65 93.3 55.05 96.2 L53.3 94.9 52.5 94.25 52.2 94.0 51.55 93.5 Q48.4 90.45 46.7 87.35 45.75 85.7 45.25 84.1 L45.15 83.65 45.05 83.45 44.75 82.05 44.7 82.1 44.7 81.9 49.3 79.1 Q55.75 75.25 65.15 71.2 67.7 70.05 70.2 69.05 74.55 67.25 78.55 65.9 84.45 63.8 89.6 62.65 95.55 61.3 100.45 61.0 L100.55 60.95 88.15 61.35 M34.45 90.05 L34.9 89.55 35.9 88.45 Q36.8 87.55 37.8 86.8 L38.05 86.65 40.85 84.5 Q41.15 84.25 41.6 83.95 L41.65 84.2 41.85 84.45 41.9 84.45 41.95 84.55 42.2 85.2 Q42.7 86.45 43.75 88.0 L44.85 89.4 Q46.85 91.9 49.5 94.0 L51.45 95.55 52.7 96.45 54.35 97.5 53.7 98.75 Q52.0 102.4 51.1 106.15 L50.65 108.35 50.55 109.05 49.2 108.15 45.35 104.85 43.4 103.15 Q38.05 98.05 35.35 92.2 L34.45 90.05 M34.15 90.25 L34.1 90.25 34.15 90.15 34.15 90.25 M31.6 93.15 L31.75 93.45 33.1 95.9 Q34.8 98.65 37.45 101.3 L38.45 102.25 39.75 103.4 43.35 105.9 43.9 106.3 44.4 106.7 Q46.4 108.25 47.95 109.2 L48.8 109.75 49.3 110.0 50.3 110.65 Q50.05 112.75 50.05 115.0 L50.05 115.75 50.15 118.0 50.5 121.0 46.85 119.55 Q43.5 118.15 40.75 116.7 L36.65 114.5 36.4 114.35 35.1 113.55 Q33.9 112.75 34.95 113.7 27.55 110.0 23.75 104.15 24.1 103.0 24.4 102.6 L24.65 102.2 24.75 102.1 25.5 100.9 28.25 97.15 30.55 94.35 31.6 93.15 M21.6 108.2 Q23.85 111.1 27.3 113.5 L27.5 113.35 28.3 114.05 28.7 114.3 29.0 114.45 32.0 116.1 32.65 116.4 40.1 119.7 46.85 122.25 51.0 123.65 Q51.8 127.1 53.25 130.3 L54.4 132.65 66.95 135.65 Q77.7 138.05 86.45 139.2 L92.9 140.25 102.1 140.8 107.15 140.3 110.3 139.55 110.75 139.35 112.25 138.85 111.0 139.6 109.7 140.35 108.8 140.8 107.95 141.0 Q92.0 142.05 69.9 137.85 L55.6 134.7 50.45 133.35 39.25 129.6 Q34.85 127.95 30.8 126.1 23.0 122.6 18.95 119.35 L18.6 119.15 18.65 118.95 18.7 119.05 Q18.85 116.7 19.95 112.85 L20.35 111.65 Q20.9 109.85 21.6 108.2 M19.85 123.85 L19.8 123.85 19.75 124.25 19.85 123.85" fill="#ab9643" fill-rule="evenodd" stroke="none"/>
      <path d="M137.5 107.5 L137.5 108.45 Q134.6 110.9 130.3 112.35 L127.65 113.15 122.3 114.1 121.8 114.15 Q110.25 115.45 92.65 112.35 72.15 108.7 54.9 97.85 L54.35 97.5 52.7 96.45 51.45 95.55 49.5 94.0 Q46.85 91.9 44.85 89.4 L43.75 88.0 Q42.7 86.45 42.2 85.2 L41.95 84.55 41.9 84.45 41.85 84.45 41.65 84.2 41.6 83.95 41.65 83.9 Q40.5 82.3 40.9 80.1 42.35 79.15 44.5 77.9 44.1 80.25 44.7 81.9 L44.7 82.1 44.75 82.05 45.05 83.45 45.15 83.65 45.25 84.1 Q45.75 85.7 46.7 87.35 48.4 90.45 51.55 93.5 L52.2 94.0 52.5 94.25 53.3 94.9 55.05 96.2 Q69.4 106.45 92.55 111.15 110.5 114.7 122.2 113.3 L127.65 112.3 130.05 111.6 Q134.5 110.1 137.5 107.5 M136.05 112.7 L136.0 113.6 134.3 115.2 133.9 115.85 Q130.65 119.95 124.7 122.1 121.15 123.45 116.7 124.1 L116.2 124.15 Q104.65 125.85 87.05 123.35 67.15 120.4 50.3 110.65 L49.3 110.0 48.8 109.75 47.95 109.2 Q46.4 108.25 44.4 106.7 L43.9 106.3 43.35 105.9 39.75 103.4 38.45 102.25 37.45 101.3 Q34.8 98.65 33.1 95.9 L31.75 93.45 31.6 93.15 Q30.75 91.3 30.55 89.85 30.35 88.8 30.5 87.9 L33.55 85.4 33.6 86.85 Q33.8 88.25 34.45 90.05 L35.35 92.2 Q38.05 98.05 43.4 103.15 L45.35 104.85 49.2 108.15 50.55 109.05 Q64.7 118.3 86.95 122.15 104.9 125.05 116.6 123.3 120.95 122.65 124.45 121.35 130.35 119.2 133.75 115.15 L134.2 114.5 Q135.3 113.75 136.05 112.7 M125.9 128.55 L125.65 128.9 124.95 129.65 123.85 130.2 122.8 130.6 117.75 132.35 115.25 133.05 115.05 133.05 111.8 133.7 111.0 133.8 107.2 134.1 Q93.3 134.9 85.35 132.95 L85.15 132.9 Q71.85 130.05 61.6 127.05 L58.75 126.2 51.0 123.65 46.85 122.25 40.1 119.7 32.65 116.4 32.0 116.1 29.0 114.45 28.7 114.3 28.3 114.05 27.5 113.35 27.3 113.5 Q23.85 111.1 21.6 108.2 20.55 106.9 19.8 105.5 18.55 103.3 18.25 101.3 L20.9 97.7 Q21.85 101.2 23.75 104.15 27.55 110.0 34.95 113.7 33.9 112.75 35.1 113.55 L36.4 114.35 36.65 114.5 40.75 116.7 Q43.5 118.15 46.85 119.55 L50.5 121.0 Q58.1 123.9 68.25 126.8 L84.9 131.4 Q93.9 133.95 109.2 133.1 L110.85 133.05 111.25 133.0 115.2 132.3 117.3 131.8 122.35 130.25 122.45 130.15 123.4 129.8 123.5 129.75 125.9 128.55 M111.95 140.65 L111.0 141.4 110.95 141.4 107.9 141.8 Q91.7 143.45 68.9 139.7 L57.5 137.55 50.5 135.95 49.45 135.65 39.4 132.65 Q34.35 130.9 29.8 128.95 23.65 126.35 19.85 123.85 L18.2 122.7 17.55 122.15 17.0 121.75 16.8 121.6 Q14.45 119.9 13.1 117.35 12.0 115.25 12.15 113.55 L12.35 112.9 13.6 109.55 Q13.65 111.3 14.5 113.45 L14.65 113.25 15.0 114.75 15.35 115.45 16.05 116.55 18.6 119.15 18.95 119.35 Q23.0 122.6 30.8 126.1 34.85 127.95 39.25 129.6 L50.45 133.35 55.6 134.7 69.9 137.85 Q92.0 142.05 107.95 141.0 L108.9 140.95 111.95 140.65 M34.15 90.25 L34.15 90.15 34.1 90.25 34.15 90.25 34.15 90.3 34.2 90.25 34.15 90.25" fill="#5b5024" fill-rule="evenodd" stroke="none"/>
      <path d="M19.85 123.85 L19.75 124.25 19.8 123.85 19.85 123.85" fill="#b2dd5d" fill-rule="evenodd" stroke="none"/>
      <path d="M104.55 60.9 Q109.95 61.9 115.4 63.5 121.0 60.25 127.1 59.55 L132.55 59.4 Q136.95 59.65 141.55 61.1 L142.85 60.7 143.0 60.25 Q151.75 69.75 145.6 79.3 L143.35 81.55 143.25 89.15 140.25 98.95 139.7 99.8 136.95 103.4 Q134.45 106.35 131.65 108.7 L131.4 109.0 127.95 111.3 127.65 111.45 127.65 112.3 122.2 113.3 Q110.5 114.7 92.55 111.15 69.4 106.45 55.05 96.2 56.65 93.3 58.75 90.5 L59.5 89.5 61.25 87.45 Q68.4 79.4 80.15 72.2 87.25 67.95 95.05 64.55 99.65 62.55 104.55 60.9 M113.65 138.2 L113.7 138.25 Q113.3 139.45 111.95 140.65 L108.9 140.95 107.95 141.0 108.8 140.8 109.7 140.35 111.0 139.6 112.25 138.85 112.75 138.6 113.65 138.2 M110.95 141.4 L110.75 141.55 107.85 143.15 Q104.9 144.5 100.45 145.75 88.0 149.35 70.5 150.1 62.35 144.2 57.5 137.55 L68.9 139.7 Q91.7 143.45 107.9 141.8 L110.95 141.4 M50.55 109.05 L50.65 108.35 51.1 106.15 Q52.0 102.4 53.7 98.75 L54.35 97.5 54.9 97.85 Q72.15 108.7 92.65 112.35 110.25 115.45 121.8 114.15 L122.3 114.1 127.65 113.15 Q127.6 114.3 125.7 116.4 123.8 118.4 122.15 119.2 117.4 121.45 114.9 122.35 113.1 122.85 112.05 123.25 L117.15 122.8 124.45 121.35 Q120.95 122.65 116.6 123.3 104.9 125.05 86.95 122.15 64.7 118.3 50.55 109.05 M50.5 121.0 L50.15 118.0 50.05 115.75 50.05 115.0 Q50.05 112.75 50.3 110.65 67.15 120.4 87.05 123.35 104.65 125.85 116.2 124.15 114.5 127.6 113.45 128.45 L110.0 130.9 108.5 131.85 106.7 132.5 109.75 132.4 110.7 132.4 112.6 132.25 114.95 132.1 Q115.2 131.95 115.2 132.3 L111.25 133.0 110.85 133.05 109.2 133.1 Q93.9 133.95 84.9 131.4 L68.25 126.8 Q58.1 123.9 50.5 121.0 M107.15 140.3 L102.1 140.8 92.9 140.25 86.45 139.2 Q77.7 138.05 66.95 135.65 L54.4 132.65 53.25 130.3 Q51.8 127.1 51.0 123.65 L58.75 126.2 61.6 127.05 Q71.85 130.05 85.15 132.9 L85.35 132.95 Q93.3 134.9 107.2 134.1 L111.0 133.8 111.8 133.7 115.05 133.05 115.25 133.05 Q115.25 133.85 113.45 135.55 L109.5 138.65 Q108.4 139.4 107.15 140.3" fill="#b9aa4b" fill-rule="evenodd" stroke="none"/>
      <path d="M136.95 103.4 L137.5 107.25 137.5 107.5 Q134.5 110.1 130.05 111.6 L127.65 112.3 127.65 111.45 127.95 111.3 131.4 109.0 131.65 108.7 Q134.45 106.35 136.95 103.4 M137.5 108.45 L137.5 108.75 136.85 111.3 136.8 111.35 136.05 112.7 Q135.3 113.75 134.2 114.5 L133.75 115.15 Q130.35 119.2 124.45 121.35 L117.15 122.8 112.05 123.25 Q113.1 122.85 114.9 122.35 117.4 121.45 122.15 119.2 123.8 118.4 125.7 116.4 127.6 114.3 127.65 113.15 L130.3 112.35 Q134.6 110.9 137.5 108.45 M136.0 113.6 L135.95 114.3 Q135.25 118.65 132.1 122.45 L129.95 124.65 Q128.3 126.9 125.9 128.55 L123.5 129.75 123.4 129.8 122.45 130.15 122.35 130.25 117.3 131.8 115.2 132.3 Q115.2 131.95 114.95 132.1 L112.6 132.25 110.7 132.4 109.75 132.4 106.7 132.5 108.5 131.85 110.0 130.9 113.45 128.45 Q114.5 127.6 116.2 124.15 L116.7 124.1 Q121.15 123.45 124.7 122.1 130.65 119.95 133.9 115.85 L134.3 115.2 136.0 113.6 M124.95 129.65 L124.1 130.55 123.3 131.4 120.1 134.2 118.95 135.1 116.0 137.0 113.75 138.2 113.65 138.2 112.75 138.6 112.25 138.85 110.75 139.35 110.3 139.55 107.15 140.3 Q108.4 139.4 109.5 138.65 L113.45 135.55 Q115.25 133.85 115.25 133.05 L117.75 132.35 122.8 130.6 123.85 130.2 124.95 129.65 M129.6 133.2 L129.8 133.25 129.5 133.3 129.6 133.2" fill="#e6da88" fill-rule="evenodd" stroke="none"/>
      <path d="M26.65 145.6 L25.95 145.45 23.9 144.1 22.75 143.3 22.05 142.75 Q16.55 138.35 13.65 132.35 9.35 123.35 12.15 113.55 12.0 115.25 13.1 117.35 14.45 119.9 16.8 121.6 L17.0 121.75 17.55 122.15 18.2 122.7 Q17.75 126.7 17.9 131.15 18.05 136.1 21.15 140.1 L23.2 142.45 26.65 145.6 M13.6 109.55 Q15.3 105.5 18.25 101.3 18.55 103.3 19.8 105.5 20.55 106.9 21.6 108.2 20.9 109.85 20.35 111.65 L19.95 112.85 Q18.85 116.7 18.7 119.05 L18.65 118.95 18.6 119.15 16.05 116.55 15.35 115.45 15.0 114.75 14.65 113.25 14.5 113.45 Q13.65 111.3 13.6 109.55 M20.9 97.7 L22.1 96.25 22.25 96.1 Q26.0 91.75 30.5 87.9 30.35 88.8 30.55 89.85 30.75 91.3 31.6 93.15 L30.55 94.35 28.25 97.15 25.5 100.9 24.75 102.1 24.65 102.2 24.4 102.6 Q24.1 103.0 23.75 104.15 21.85 101.2 20.9 97.7 M33.55 85.4 Q36.75 82.85 40.9 80.1 40.5 82.3 41.65 83.9 L41.6 83.95 Q41.15 84.25 40.85 84.5 L38.05 86.65 37.8 86.8 Q36.8 87.55 35.9 88.45 L34.9 89.55 34.45 90.05 Q33.8 88.25 33.6 86.85 L33.55 85.4 M44.5 77.9 Q55.7 71.2 70.0 66.4 74.1 64.7 77.75 63.95 L78.15 63.85 Q83.2 62.4 88.15 61.35 L100.55 60.95 100.45 61.0 Q95.55 61.3 89.6 62.65 84.45 63.8 78.55 65.9 74.55 67.25 70.2 69.05 67.7 70.05 65.15 71.2 55.75 75.25 49.3 79.1 L44.7 81.9 Q44.1 80.25 44.5 77.9 M34.15 90.25 L34.2 90.25 34.15 90.3 34.15 90.25" fill="#867535" fill-rule="evenodd" stroke="none"/>
      <path d="M35.8 93.2 L35.95 93.2 37.5 93.4 Q43.85 93.65 47.7 97.65 41.2 95.05 37.5 99.3 L37.5 99.2 37.4 99.3 Q36.15 100.9 34.95 104.9 33.75 108.9 34.05 117.5 34.3 126.1 35.3 131.05 L35.4 131.5 Q39.05 133.2 39.5 136.4 L39.55 137.35 Q39.55 139.9 36.9 140.75 L35.95 141.0 29.25 141.9 Q24.6 142.35 21.85 143.6 L19.35 144.4 17.0 143.3 16.75 143.15 15.65 142.45 13.75 141.0 Q11.95 139.4 10.7 137.35 L9.55 135.2 12.05 136.25 Q17.25 138.55 21.9 138.55 L23.7 138.55 Q24.5 138.4 24.5 137.25 24.5 136.15 23.4 135.4 L21.0 133.7 Q18.5 131.45 17.8 126.25 L17.5 122.05 17.5 121.65 17.5 121.55 17.5 121.35 17.6 121.35 17.6 121.3 Q17.65 115.05 21.7 106.5 L22.7 104.6 22.7 104.55 22.75 104.45 23.65 102.7 Q24.55 101.0 26.15 99.15 27.75 97.3 30.3 95.5 32.8 93.65 35.8 93.2" fill="#5b951e" fill-rule="evenodd" stroke="none"/>
      <path d="M51.7 137.9 Q55.7 141.7 53.8 146.4 51.7 153.2 44.55 157.75 41.95 159.4 38.65 160.75 40.4 150.3 30.15 146.4 39.1 146.5 44.55 143.0 48.05 140.75 50.1 137.0 L51.6 138.3 51.7 137.9" fill="#497e15" fill-rule="evenodd" stroke="none"/>
      <path d="M16.75 143.15 L17.0 143.3 19.35 144.4 Q22.15 145.5 25.65 146.1 L26.8 146.25 27.1 146.3 30.1 146.4 30.15 146.4 Q40.4 150.3 38.65 160.75 31.3 162.7 25.35 162.65 17.25 162.5 11.75 158.7 9.15 148.7 15.9 143.1 L16.75 143.15 M15.15 146.35 Q13.85 146.8 13.5 147.4 12.65 148.85 12.65 151.7 12.65 155.0 13.1 156.25 13.75 158.15 15.85 158.15 18.6 158.15 21.05 155.75 23.3 153.5 23.3 151.6 23.3 150.25 22.35 150.05 21.2 150.0 20.75 149.65 L18.8 147.4 18.3 146.9 Q17.3 146.0 16.25 146.0 15.75 146.0 15.2 146.3 L15.15 146.3 15.15 146.35 M27.8 149.3 L28.2 148.8 28.15 148.75 27.65 149.5 27.8 149.3 M26.1 155.95 Q26.15 157.05 26.55 157.8 27.0 158.7 28.2 158.7 29.7 158.7 31.2 157.55 32.75 156.3 32.75 154.95 L32.45 153.25 32.25 151.2 Q31.95 150.1 31.25 149.3 30.5 148.35 29.9 148.35 L28.8 148.6 27.95 149.2 27.55 149.7 27.35 150.0 26.65 151.4 Q26.2 152.35 26.1 153.6 L26.1 155.95" fill="#b9aa4b" fill-rule="evenodd" stroke="none"/>
      <path d="M11.75 158.7 Q8.65 156.5 6.4 153.25 L6.2 152.95 6.2 152.9 Q4.55 145.8 10.75 143.7 L15.9 143.1 Q9.15 148.7 11.75 158.7 M15.2 146.3 Q15.75 146.0 16.25 146.0 17.3 146.0 18.3 146.9 L18.8 147.4 20.75 149.65 Q21.2 150.0 22.35 150.05 23.3 150.25 23.3 151.6 23.3 153.5 21.05 155.75 18.6 158.15 15.85 158.15 13.75 158.15 13.1 156.25 12.65 155.0 12.65 151.7 12.65 148.85 13.5 147.4 13.85 146.8 15.15 146.35 L15.2 146.35 15.2 146.3 M26.1 155.95 L26.1 153.6 Q26.2 152.35 26.65 151.4 L27.35 150.0 27.55 149.7 27.95 149.2 28.8 148.6 29.9 148.35 Q30.5 148.35 31.25 149.3 31.95 150.1 32.25 151.2 L32.45 153.25 32.75 154.95 Q32.75 156.3 31.2 157.55 29.7 158.7 28.2 158.7 27.0 158.7 26.55 157.8 26.15 157.05 26.1 155.95 M27.8 149.3 L27.65 149.5 28.15 148.75 28.2 148.8 27.8 149.3" fill="#e5d987" fill-rule="evenodd" stroke="none"/>
      <path d="M10.7 137.35 Q11.95 139.4 13.75 141.0 L15.65 142.45 16.75 143.15 15.9 143.1 10.75 143.7 Q4.55 145.8 6.2 152.9 L4.85 150.85 Q3.3 144.85 6.15 141.0 7.7 138.8 10.7 137.35" fill="#609225" fill-rule="evenodd" stroke="none"/>
      <path d="M19.35 144.4 L21.85 143.6 Q24.6 142.35 29.25 141.9 L35.95 141.0 36.9 140.75 Q39.55 139.9 39.55 137.35 L39.5 136.4 Q39.05 133.2 35.4 131.5 L35.3 131.05 Q34.3 126.1 34.05 117.5 33.75 108.9 34.95 104.9 36.15 100.9 37.4 99.3 L37.5 99.2 37.5 99.3 Q41.2 95.05 47.7 97.65 56.85 107.15 51.7 137.9 L51.6 138.3 50.1 137.0 Q48.05 140.75 44.55 143.0 39.1 146.5 30.15 146.4 L30.1 146.4 27.1 146.3 26.8 146.25 25.65 146.1 Q22.15 145.5 19.35 144.4" fill="#407010" fill-rule="evenodd" stroke="none"/>
      <path d="M35.8 93.2 Q32.8 93.65 30.3 95.5 27.75 97.3 26.15 99.15 24.55 101.0 23.65 102.7 L22.75 104.45 22.7 104.55 22.7 104.6 21.7 106.5 Q17.65 115.05 17.6 121.3 L17.6 121.35 17.5 121.35 17.5 121.55 17.5 121.65 17.5 122.05 17.8 126.25 Q18.5 131.45 21.0 133.7 L23.4 135.4 Q24.5 136.15 24.5 137.25 24.5 138.4 23.7 138.55 L21.9 138.55 Q17.25 138.55 12.05 136.25 L9.55 135.2 Q7.1 129.45 8.0 120.95 L8.15 120.0 8.25 119.0 Q8.8 115.35 9.9 111.3 L10.2 110.65 Q12.55 105.35 15.65 101.65 L16.55 100.6 Q24.15 92.3 35.8 93.2" fill="#87c727" fill-rule="evenodd" stroke="none"/>
      <path d="M44.05 78.5 L44.3 78.55 44.7 78.75 45.6 79.25 Q47.3 80.65 46.55 83.9 44.45 92.45 44.35 95.95 44.15 103.35 44.55 108.6 44.75 111.35 45.6 116.75 L47.15 125.05 Q52.6 124.5 52.65 127.7 L52.3 129.4 Q51.75 131.3 49.95 134.1 46.15 132.1 43.5 129.0 L41.55 126.45 40.75 125.0 40.6 124.65 Q39.35 122.25 38.6 119.35 36.0 109.45 39.05 94.25 L39.3 93.1 Q40.2 88.6 41.4 84.95 42.35 81.9 43.5 79.45 L43.95 78.65 44.05 78.5" fill="#92bb47" fill-rule="evenodd" stroke="none"/>
      <path d="M49.95 134.1 Q51.75 131.3 52.3 129.4 L52.65 127.7 Q52.6 124.5 47.15 125.05 L45.6 116.75 Q44.75 111.35 44.55 108.6 44.15 103.35 44.35 95.95 44.45 92.45 46.55 83.9 47.3 80.65 45.6 79.25 L44.7 78.75 44.3 78.55 44.05 78.5 Q50.35 65.8 61.65 68.65 66.3 70.05 69.5 73.85 L69.95 74.65 70.35 74.9 70.5 75.05 72.8 78.15 72.8 78.35 73.15 78.9 Q75.2 82.15 76.65 87.1 77.8 91.2 78.55 96.5 79.55 103.4 79.55 110.35 L79.35 116.6 Q79.1 119.55 78.4 122.0 L78.1 123.15 77.85 123.9 77.95 124.5 Q78.85 128.3 78.2 130.55 L78.05 131.05 77.65 131.7 77.45 132.05 77.05 132.45 Q76.5 129.8 72.9 134.0 70.55 136.4 68.75 137.25 L67.15 137.7 67.1 137.7 66.75 137.7 66.3 135.7 66.25 135.6 Q63.35 124.45 58.7 126.2 58.35 126.3 57.9 126.55 54.75 131.75 53.7 135.7 L53.55 135.65 49.95 134.1 M60.7 74.35 Q56.0 75.75 53.75 83.85 51.7 91.9 53.3 102.1 54.1 106.85 55.5 110.8 57.1 115.15 59.45 118.4 64.05 124.7 68.75 123.3 73.5 122.05 75.65 113.85 77.85 105.8 76.15 95.7 L74.95 90.0 Q73.6 85.25 71.55 81.7 L71.45 81.6 70.0 79.35 Q65.45 73.0 60.7 74.35" fill="#6c9d2d" fill-rule="evenodd" stroke="none"/>
      <path d="M60.7 74.35 Q65.45 73.0 70.0 79.35 L71.45 81.6 71.55 81.7 Q73.6 85.25 74.95 90.0 L76.15 95.7 Q77.85 105.8 75.65 113.85 73.5 122.05 68.75 123.3 64.05 124.7 59.45 118.4 57.1 115.15 55.5 110.8 54.1 106.85 53.3 102.1 51.7 91.9 53.75 83.85 56.0 75.75 60.7 74.35" fill="#bae363" fill-rule="evenodd" stroke="none"/>
      <path d="M49.95 134.1 L53.55 135.65 Q52.8 138.35 53.25 140.55 52.25 141.35 51.15 141.65 L50.35 141.25 47.85 139.5 Q46.6 138.3 46.25 137.4 43.35 130.45 43.5 129.0 46.15 132.1 49.95 134.1 M58.7 126.2 Q63.35 124.45 66.25 135.6 L66.3 135.7 66.75 137.7 67.1 137.7 Q66.55 140.35 66.8 143.9 L66.8 144.0 66.85 144.8 66.55 143.9 Q66.35 143.1 66.4 142.05 L65.05 143.95 64.0 144.0 Q62.9 143.9 61.0 143.2 58.45 142.3 57.6 141.0 57.25 140.35 56.5 137.3 56.2 135.9 56.5 133.1 56.8 130.35 57.45 128.55 57.9 127.35 58.4 126.65 L58.7 126.2 M68.75 137.25 Q70.55 136.4 72.9 134.0 76.5 129.8 77.05 132.45 L77.45 132.05 77.65 131.7 78.05 131.05 Q78.4 132.2 78.2 134.5 77.9 137.7 76.95 140.3 L74.9 144.95 74.75 145.15 Q72.5 146.05 71.25 145.6 69.8 145.1 69.2 143.6 L68.8 141.7 Q68.55 138.55 68.75 137.25" fill="#c1b255" fill-rule="evenodd" stroke="none"/>
      <path d="M53.55 135.65 L53.7 135.7 Q54.75 131.75 57.9 126.55 58.35 126.3 58.7 126.2 L58.4 126.65 Q57.9 127.35 57.45 128.55 56.8 130.35 56.5 133.1 56.2 135.9 56.5 137.3 57.25 140.35 57.6 141.0 58.45 142.3 61.0 143.2 62.9 143.9 64.0 144.0 L65.05 143.95 Q62.0 148.05 58.55 146.85 55.7 145.65 54.35 143.65 L54.05 143.15 Q53.5 142.1 53.25 140.75 L53.25 140.55 Q52.8 138.35 53.55 135.65 M67.1 137.7 L67.15 137.7 68.75 137.25 Q68.55 138.55 68.8 141.7 L69.2 143.6 Q69.8 145.1 71.25 145.6 72.5 146.05 74.75 145.15 73.15 147.25 71.05 147.35 L70.3 147.3 69.85 147.15 Q67.65 146.6 66.85 144.8 L66.8 144.0 66.8 143.9 Q66.55 140.35 67.1 137.7 M41.55 126.45 L43.5 129.0 Q43.35 130.45 46.25 137.4 46.6 138.3 47.85 139.5 L50.35 141.25 51.15 141.65 Q46.8 142.75 40.25 135.1 37.2 132.25 41.55 126.45" fill="#9c8738" fill-rule="evenodd" stroke="none"/>
      <path d="M64.4 82.4 Q64.7 81.45 65.3 81.7 L65.5 81.8 Q69.4 90.75 70.4 95.55 71.0 98.1 70.5 100.75 70.0 103.4 66.35 103.5 62.7 103.6 62.65 97.65 L62.65 97.6 Q62.65 90.4 64.4 82.4" fill="#ffffff" fill-rule="evenodd" stroke="none"/>
    </g>
    <g id="shape1" transform="matrix(1.0, 0.0, 0.0, 1.0, 0.0, 2.35)">
      <path d="M219.6 46.75 L39.45 53.25 44.65 32.05 Q142.9 -34.05 215.9 26.9 L219.6 46.75" fill="#c7ba5e" fill-rule="evenodd" stroke="none"/>
      <path d="M224.85 39.45 Q228.45 32.9 238.8 31.8 258.9 32.9 265.85 53.4 L265.85 54.15 Q271.95 66.75 270.9 81.7 269.75 96.25 261.7 113.3 258.15 120.4 253.55 128.15 L251.95 130.65 Q215.6 173.5 166.8 152.0 L146.5 139.7 145.75 139.25 Q139.1 134.95 126.35 120.25 115.5 108.1 100.55 88.85 L98.75 86.9 88.35 75.2 77.4 63.5 Q74.15 59.75 70.9 56.95 45.95 34.7 27.7 53.4 23.15 57.85 19.1 64.8 10.95 79.8 16.15 120.85 L14.8 120.55 12.75 118.8 Q-1.35 96.1 0.15 65.85 0.45 57.85 1.9 49.4 L2.05 49.1 Q2.65 44.95 3.7 41.4 13.05 5.95 44.8 7.0 51.15 7.3 58.7 9.05 L60.05 9.35 Q66.85 12.0 73.4 15.75 L75.2 16.75 Q85.7 23.0 95.35 31.45 104.85 39.9 113.45 50.7 128.55 70.0 140.55 96.7 L143.1 101.0 Q173.95 149.05 212.5 136.75 238.6 127.55 242.6 105.3 246.45 100.4 249.25 93.45 253.4 83.2 252.25 72.8 250.9 62.3 245.85 54.45 240.8 46.55 236.2 46.55 231.45 46.4 230.9 47.6 230.3 48.65 230.3 52.95 L230.3 54.6 226.6 49.55 226.45 49.1 226.15 48.5 Q225.7 43.8 224.85 39.45" fill="#e6da88" fill-rule="evenodd" stroke="none"/>
      <path d="M16.15 120.85 Q10.95 79.8 19.1 64.8 23.15 57.85 27.7 53.4 45.95 34.7 70.9 56.95 53.55 66.45 43.0 78.0 29.8 92.25 26.85 109.6 L27.0 109.3 26.7 113.9 Q26.7 116.55 27.15 120.1 L27.7 124.7 28.3 128.55 28.15 129.3 Q32.3 164.75 48.5 186.7 27.6 163.55 16.15 120.85" fill="#4f4222" fill-rule="evenodd" stroke="none"/>
      <path d="M70.9 56.95 Q74.15 59.75 77.4 63.5 L88.35 75.2 Q84.5 78.45 80.95 83.65 70.9 98.3 69.1 118.95 67.0 139.1 74.3 153.05 79.05 162.7 86.15 165.65 89.1 167.0 92.65 167.0 96.25 167.0 99.65 165.65 107.2 162.7 114.05 153.2 123.8 139.7 126.35 120.25 139.1 134.95 145.75 139.25 L146.5 139.7 166.8 152.0 Q215.6 173.5 251.95 130.65 L253.55 128.15 Q254.3 153.65 251.2 165.65 249.85 170.25 248.2 172.9 L247.8 173.5 244.7 179.25 244.65 179.3 244.8 179.3 244.2 180.6 242.75 182.85 Q239.35 187.75 235.6 192.05 L234.6 193.25 Q227.15 201.85 218.85 208.5 L218.1 209.4 207.9 215.9 Q207.45 215.75 186.4 220.65 165.35 225.4 141.0 219.2 116.55 212.95 103.2 203.3 99.5 200.65 96.55 198.25 L95.8 197.65 89.1 192.05 85.4 188.35 84.5 187.3 84.35 187.3 82.45 185.65 82.45 185.5 80.35 183.75 79.6 183.15 Q73.7 177.8 71.6 173.65 69.55 169.8 67.75 165.65 64.5 158.4 61.7 150.5 56.2 135.1 56.2 126.2 56.2 115.95 60.65 103.35 L65.1 90.3 Q65.1 87.5 63.9 85.25 62.25 82.3 59.15 82.3 53.25 82.3 48.35 86.15 46.25 87.65 44.5 89.85 34.85 98.75 29.05 114.35 L27.15 120.1 Q26.7 116.55 26.7 113.9 L27.0 109.3 26.85 109.6 Q29.8 92.25 43.0 78.0 53.55 66.45 70.9 56.95 M246.75 174.55 L246.75 174.4 Q246.15 173.95 246.6 174.55 L246.75 174.55" fill="#578a1f" fill-rule="evenodd" stroke="none"/>
      <path d="M163.7 64.95 Q169.35 65.25 176.0 61.1 182.55 56.95 185.35 54.45 191.0 49.4 197.35 25.35 199.9 20.05 202.7 21.8 204.05 22.7 205.2 24.75 L204.5 26.25 Q203.9 27.9 203.9 29.65 L204.35 34.85 Q204.8 38.55 204.8 43.3 L204.5 50.55 Q203.25 64.85 197.2 78.6 193.5 87.2 189.65 94.0 189.65 96.25 191.75 97.75 193.5 98.9 195.75 98.9 203.15 98.9 216.35 89.85 222.7 85.4 226.85 81.55 223.75 98.75 212.65 108.55 208.05 112.4 202.1 115.25 L201.2 115.4 Q173.95 120.55 162.5 95.35 158.5 85.55 160.75 74.9 161.65 70.0 163.7 64.95 M213.1 98.05 L212.9 98.05 213.25 98.15 213.1 98.05" fill="#ad9a41" fill-rule="evenodd" stroke="none"/>
      <path d="M226.6 49.55 L230.3 54.6 Q236.8 64.05 239.6 74.15 242.15 82.45 242.9 89.7 241.7 95.95 240.05 99.5 237.7 103.95 233.85 108.4 219.15 123.55 215.15 123.55 L213.4 122.95 Q211.6 122.2 211.6 121.6 211.6 120.55 212.5 117.0 213.4 113.45 213.4 112.1 213.4 110.5 212.65 108.55 223.75 98.75 226.85 81.55 228.2 73.7 227.9 64.5 227.6 57.25 226.3 49.1 L226.6 49.55 M113.45 50.7 Q104.85 39.9 95.35 31.45 L96.95 31.05 96.85 30.75 Q142.6 14.3 189.0 26.6 L187.7 32.8 186.55 36.95 184.0 43.3 181.65 47.45 Q179.0 51.3 175.7 54.15 L167.55 61.4 164.0 64.5 163.7 64.95 Q161.65 70.0 160.75 74.9 157.75 76.1 155.4 77.55 147.85 82.3 146.8 82.3 145.6 82.3 134.95 66.45 124.25 50.55 114.3 50.55 L113.45 50.7" fill="#713b0e" fill-rule="evenodd" stroke="none"/>
      <path d="M242.6 105.3 Q238.6 127.55 212.5 136.75 173.95 149.05 143.1 101.0 L140.55 96.7 Q128.55 70.0 113.45 50.7 L114.3 50.55 Q124.25 50.55 134.95 66.45 145.6 82.3 146.8 82.3 147.85 82.3 155.4 77.55 157.75 76.1 160.75 74.9 158.5 85.55 162.5 95.35 173.95 120.55 201.2 115.4 L202.1 115.25 Q208.05 112.4 212.65 108.55 213.4 110.5 213.4 112.1 213.4 113.45 212.5 117.0 211.6 120.55 211.6 121.6 211.6 122.2 213.4 122.95 L215.15 123.55 Q219.15 123.55 233.85 108.4 237.7 103.95 240.05 99.5 241.7 95.95 242.9 89.7 243.8 98.05 242.6 105.3" fill="#452003" fill-rule="evenodd" stroke="none"/>
      <path d="M88.35 75.2 L98.75 86.9 100.55 88.85 Q115.5 108.1 126.35 120.25 123.8 139.7 114.05 153.2 107.2 162.7 99.65 165.65 96.25 167.0 92.65 167.0 89.1 167.0 86.15 165.65 79.05 162.7 74.3 153.05 67.0 139.1 69.1 118.95 70.9 98.3 80.95 83.65 84.5 78.45 88.35 75.2 M77.25 107.8 L75.45 124.55 Q73.85 140.75 81.1 155.7 90.6 166.85 105.15 156.15 L103.2 152.45 Q98.6 150.65 97.7 149.65 86.75 143.4 90.15 98.6 84.05 79.5 77.55 106.5 L77.25 107.8" fill="#040503" fill-rule="evenodd" stroke="none"/>
      <path d="M230.3 54.6 L230.3 52.95 Q230.3 48.65 230.9 47.6 231.45 46.4 236.2 46.55 240.8 46.55 245.85 54.45 250.9 62.3 252.25 72.8 253.4 83.2 249.25 93.45 246.45 100.4 242.6 105.3 243.8 98.05 242.9 89.7 242.15 82.45 239.6 74.15 236.8 64.05 230.3 54.6" fill="#a9943e" fill-rule="evenodd" stroke="none"/>
      <path d="M224.85 39.45 Q225.7 43.8 226.15 48.5 L226.45 49.1 226.3 49.1 Q227.6 57.25 227.9 64.5 228.2 73.7 226.85 81.55 222.7 85.4 216.35 89.85 203.15 98.9 195.75 98.9 193.5 98.9 191.75 97.75 189.65 96.25 189.65 94.0 193.5 87.2 197.2 78.6 203.25 64.85 204.5 50.55 L204.8 43.3 Q204.8 38.55 204.35 34.85 L203.9 29.65 Q203.9 27.9 204.5 26.25 L205.2 24.75 Q204.05 22.7 202.7 21.8 199.9 20.05 197.35 25.35 191.0 49.4 185.35 54.45 182.55 56.95 176.0 61.1 169.35 65.25 163.7 64.95 L164.0 64.5 167.55 61.4 175.7 54.15 Q179.0 51.3 181.65 47.45 L184.0 43.3 186.55 36.95 187.7 32.8 189.0 26.6 189.55 22.4 189.65 21.35 Q192.75 -5.05 199.9 1.2 219.8 14.65 224.85 39.45" fill="#ece0b5" fill-rule="evenodd" stroke="none"/>
      <path d="M207.9 215.9 Q207.45 216.05 207.0 216.35 147.4 250.3 78.9 211.45 78.3 211.0 77.7 210.7 60.65 202.4 49.25 187.6 L48.5 186.7 Q32.3 164.75 28.15 129.3 L28.3 128.55 27.7 124.7 27.15 120.1 29.05 114.35 Q34.85 98.75 44.5 89.85 46.25 87.65 48.35 86.15 53.25 82.3 59.15 82.3 62.25 82.3 63.9 85.25 65.1 87.5 65.1 90.3 L60.65 103.35 Q56.2 115.95 56.2 126.2 56.2 135.1 61.7 150.5 64.5 158.4 67.75 165.65 69.55 169.8 71.6 173.65 73.7 177.8 79.6 183.15 L80.35 183.75 82.45 185.5 82.45 185.65 84.35 187.3 84.5 187.3 85.4 188.35 89.1 192.05 95.8 197.65 96.55 198.25 Q99.5 200.65 103.2 203.3 116.55 212.95 141.0 219.2 165.35 225.4 186.4 220.65 207.45 215.75 207.9 215.9" fill="#52761b" fill-rule="evenodd" stroke="none"/>
      <path d="M77.25 107.8 L77.55 106.5 Q84.05 79.5 90.15 98.6 86.75 143.4 97.7 149.65 98.6 150.65 103.2 152.45 L105.15 156.15 Q90.6 166.85 81.1 155.7 73.85 140.75 75.45 124.55 L77.25 107.8" fill="#a2a2a2" fill-rule="evenodd" stroke="none"/>
      <path d="M106.65 144.7 Q100.85 143.6 102.2 133.55 103.45 123.4 97.35 111.6 110.65 116.8 112.6 135.55 112.5 145.85 106.65 144.7" fill="#ffffff" fill-rule="evenodd" stroke="none"/>
    </g>
    <g id="shape2" transform="matrix(1.0, 0.0, 0.0, 1.0, 0.0, 0.0)">
      <path d="M53.35 2.75 L53.35 2.7 51.75 0.85 Q54.05 1.2 55.35 1.7 L56.35 2.2 Q56.6 2.85 54.75 2.8 L53.35 2.75 M51.3 0.8 L49.05 2.45 47.25 0.4 51.3 0.8 M46.8 0.4 L44.35 2.3 41.7 0.2 45.1 0.3 46.8 0.4 M41.15 0.2 L38.15 2.35 35.2 0.1 41.15 0.2 M34.7 0.1 L31.9 2.45 28.8 0.2 34.7 0.1 M28.35 0.2 L25.45 2.65 22.7 0.45 28.35 0.2 M22.2 0.5 L20.3 2.85 16.8 0.9 22.2 0.5 M16.3 0.95 L13.65 3.35 10.45 1.7 16.3 0.95 M9.95 1.75 L8.4 3.55 6.15 2.5 9.95 1.75 M5.75 2.6 L3.55 4.25 3.5 4.35 0.7 4.6 0.4 4.45 0.0 4.2 5.75 2.6 M4.0 4.25 L6.05 2.75 8.35 3.85 8.35 3.9 4.0 4.25 M8.65 3.85 L10.3 1.95 13.4 3.5 8.65 3.85 M14.0 3.45 L16.6 1.1 20.1 3.1 14.0 3.45 M20.6 3.05 L22.5 0.7 25.2 2.85 20.6 3.05 M25.75 2.8 L28.55 0.4 31.65 2.65 25.75 2.8 M32.2 2.65 L34.95 0.3 37.9 2.55 32.2 2.65 M38.45 2.55 L41.4 0.4 44.15 2.55 38.45 2.55 M44.55 2.55 L47.0 0.6 48.75 2.65 47.5 2.6 44.55 2.55 M49.3 2.65 L51.45 1.05 52.9 2.75 49.3 2.65" fill="#bcbcbc" fill-rule="evenodd" stroke="none"/>
      <path d="M51.75 0.85 L53.35 2.7 53.35 2.75 53.35 2.8 53.25 2.9 53.1 2.9 53.0 2.85 52.9 2.75 51.45 1.05 49.3 2.65 49.15 2.75 49.05 2.75 48.95 2.75 48.85 2.7 48.75 2.65 47.0 0.6 44.55 2.55 44.5 2.6 44.4 2.65 44.3 2.65 44.2 2.6 44.15 2.55 41.4 0.4 38.45 2.55 38.3 2.65 38.2 2.65 38.1 2.65 38.0 2.65 37.9 2.55 34.95 0.3 32.2 2.65 32.05 2.75 32.0 2.75 31.85 2.75 31.75 2.75 31.65 2.65 28.55 0.4 25.75 2.8 25.6 2.95 25.5 2.95 25.4 2.95 25.3 2.95 25.2 2.85 22.5 0.7 20.6 3.05 20.55 3.15 20.45 3.2 20.35 3.2 20.25 3.15 20.1 3.1 16.6 1.1 14.0 3.45 13.9 3.6 13.75 3.65 13.6 3.6 13.4 3.5 10.3 1.95 8.65 3.85 8.6 3.85 8.55 3.9 8.45 3.9 8.35 3.9 8.35 3.85 6.05 2.75 4.0 4.25 3.85 4.4 3.75 4.45 3.6 4.4 3.5 4.35 3.55 4.25 5.75 2.6 5.85 2.5 6.0 2.45 6.15 2.45 6.15 2.5 8.4 3.55 9.95 1.75 10.05 1.65 10.1 1.6 10.25 1.6 10.35 1.6 10.45 1.7 13.65 3.35 16.3 0.95 16.4 0.85 16.5 0.8 16.6 0.8 16.7 0.8 16.8 0.9 20.3 2.85 22.2 0.5 22.3 0.4 22.4 0.35 22.5 0.3 22.6 0.4 22.7 0.45 25.45 2.65 28.35 0.2 28.4 0.15 28.5 0.1 28.6 0.1 28.7 0.15 28.8 0.2 31.9 2.45 34.7 0.1 34.8 0.05 34.9 0.0 35.0 0.0 35.1 0.05 35.2 0.1 38.15 2.35 41.15 0.2 41.25 0.1 41.35 0.05 41.45 0.05 41.55 0.1 41.7 0.2 44.35 2.3 46.8 0.4 46.85 0.3 46.95 0.25 47.1 0.3 47.2 0.3 47.25 0.4 49.05 2.45 51.3 0.8 51.35 0.75 51.45 0.7 51.6 0.7 51.7 0.75 51.75 0.85" fill="#6a6a6a" fill-rule="evenodd" stroke="none"/>
    </g>
  </defs>
</svg>
