<?xml version="1.0" encoding="UTF-8" standalone="no"?>
<svg xmlns:xlink="http://www.w3.org/1999/xlink" height="197.4px" width="207.45px" xmlns="http://www.w3.org/2000/svg">
  <g transform="matrix(1.0, 0.0, 0.0, 1.0, 4.6, 30.25)">
    <use height="157.75" transform="matrix(1.0, 0.0, 0.0, 1.0, 0.35, 0.0)" width="174.15" xlink:href="#shape0"/>
    <use height="69.05" transform="matrix(1.0, 0.0, 0.0, 1.0, 86.9, 19.7)" width="91.6" xlink:href="#shape1"/>
  </g>
  <defs>
    <g id="shape0" transform="matrix(1.0, 0.0, 0.0, 1.0, 0.0, 0.0)">
      <path d="M67.2 93.3 L67.1 92.8 67.25 92.65 67.2 93.3" fill="#b8a94a" fill-rule="evenodd" stroke="none"/>
      <path d="M139.4 90.45 L139.95 90.35 141.7 90.75 142.95 92.0 Q144.1 93.2 146.45 94.5 L147.75 95.3 Q148.35 95.95 148.05 96.8 153.95 98.55 154.3 93.65 L154.35 93.0 152.0 93.05 Q147.75 92.95 144.45 91.2 140.25 88.95 139.45 87.8 139.0 89.1 139.4 90.45" fill="#e4d885" fill-rule="evenodd" stroke="none"/>
      <path d="M148.05 96.8 Q148.35 95.95 147.75 95.3 L146.45 94.5 Q144.1 93.2 142.95 92.0 L141.7 90.75 139.95 90.35 139.4 90.45 Q140.25 93.45 145.3 95.7 L146.05 96.05 146.4 96.2 148.05 96.8" fill="#ffffff" fill-rule="evenodd" stroke="none"/>
      <path d="M138.35 48.85 Q136.65 49.3 134.6 50.1 L131.25 51.5 130.3 51.85 Q128.0 53.25 126.45 54.7 L126.2 54.85 126.15 54.8 124.3 56.3 Q120.0 59.9 117.85 65.7 117.1 68.2 117.05 70.45 L117.1 72.0 117.15 72.3 Q117.25 73.95 117.8 75.45 L118.25 76.25 118.35 76.4 118.5 76.75 118.6 76.75 118.65 76.65 119.45 77.45 Q121.15 79.1 125.3 80.6 129.5 82.05 132.25 79.45 L134.05 77.65 136.75 73.55 Q136.2 75.85 136.4 77.9 136.85 81.55 139.7 84.65 144.0 89.55 149.0 92.05 L152.0 93.05 154.35 93.0 158.15 92.2 158.6 92.05 158.7 92.0 159.6 91.65 160.1 91.4 Q164.05 87.65 164.55 78.95 L163.6 73.45 Q159.95 57.75 147.05 50.8 L144.05 49.3 138.35 48.85 M154.6 88.55 Q152.4 88.2 150.3 86.5 147.65 84.35 146.5 81.1 L146.2 80.1 Q145.1 76.35 146.65 73.4 147.5 71.75 148.85 70.9 149.9 70.2 151.3 70.05 L151.35 70.05 Q154.5 69.7 157.55 72.25 160.55 74.65 161.55 78.4 162.75 82.35 161.25 85.35 159.75 88.25 156.45 88.55 L154.6 88.55" fill="#8ecc45" fill-rule="evenodd" stroke="none"/>
      <path d="M152.0 93.05 L149.0 92.05 Q144.0 89.55 139.7 84.65 136.85 81.55 136.4 77.9 136.2 75.85 136.75 73.55 L134.05 77.65 132.25 79.45 Q129.5 82.05 125.3 80.6 121.15 79.1 119.45 77.45 L118.65 76.65 118.6 76.75 118.5 76.75 Q119.5 78.45 121.05 79.85 L121.15 80.0 Q123.8 82.2 128.05 83.65 L128.1 83.65 131.25 84.6 131.4 84.7 136.75 85.7 137.6 86.8 138.1 87.2 138.7 87.35 138.95 87.45 139.15 87.55 139.45 87.8 Q140.25 88.95 144.45 91.2 147.75 92.95 152.0 93.05 M139.05 87.35 L139.2 87.3 139.55 87.5 139.05 87.35" fill="#648c26" fill-rule="evenodd" stroke="none"/>
      <path d="M148.3 79.0 Q148.25 77.65 148.85 76.65 149.55 75.75 150.45 75.7 151.4 75.65 152.1 76.5 152.8 77.5 152.9 78.85 152.9 80.15 152.2 81.05 151.6 82.1 150.6 82.1 149.7 82.1 148.95 81.2 148.35 80.3 148.3 79.0 M151.35 70.05 L151.3 70.05 Q149.9 70.2 148.85 70.9 147.5 71.75 146.65 73.4 145.1 76.35 146.2 80.1 L146.5 81.1 Q147.65 84.35 150.3 86.5 152.4 88.2 154.6 88.55 157.05 87.6 158.45 85.55 L158.9 84.8 Q160.45 81.95 159.65 78.75 L159.1 77.2 Q157.45 73.15 153.25 70.9 152.3 70.35 151.35 70.05 M172.8 82.8 Q173.95 77.3 172.25 72.55 171.4 70.75 170.15 70.2 L168.85 70.15 168.8 70.15 168.0 70.35 167.9 70.45 167.8 70.6 168.3 73.55 Q169.1 79.05 167.2 86.85 L167.2 87.15 168.0 87.65 169.85 87.85 Q171.3 86.65 172.25 84.7 L172.4 84.25 172.8 82.8" fill="#b8a94a" fill-rule="evenodd" stroke="none"/>
      <path d="M148.3 79.0 Q148.35 80.3 148.95 81.2 149.7 82.1 150.6 82.1 151.6 82.1 152.2 81.05 152.9 80.15 152.9 78.85 152.8 77.5 152.1 76.5 151.4 75.65 150.45 75.7 149.55 75.75 148.85 76.65 148.25 77.65 148.3 79.0" fill="#ffffff" fill-rule="evenodd" stroke="none"/>
      <path d="M154.6 88.55 L156.45 88.55 Q159.75 88.25 161.25 85.35 162.75 82.35 161.55 78.4 160.55 74.65 157.55 72.25 154.5 69.7 151.35 70.05 152.3 70.35 153.25 70.9 157.45 73.15 159.1 77.2 L159.65 78.75 Q160.45 81.95 158.9 84.8 L158.45 85.55 Q157.05 87.6 154.6 88.55" fill="#a59141" fill-rule="evenodd" stroke="none"/>
      <path d="M138.35 48.85 L144.05 49.3 147.05 50.8 Q159.95 57.75 163.6 73.45 L164.55 78.95 Q164.05 87.65 160.1 91.4 L163.35 89.35 164.15 89.35 165.05 89.4 166.7 89.2 167.55 89.0 Q168.85 88.6 169.85 87.85 L168.0 87.65 167.2 87.15 Q166.55 86.4 166.15 85.15 165.25 78.6 166.0 74.75 166.55 72.0 167.8 70.6 L167.9 70.45 168.0 70.35 168.8 70.15 168.85 70.15 170.15 70.2 Q171.4 70.75 172.25 72.55 173.95 77.3 172.8 82.8 L172.85 82.8 Q175.55 76.35 172.65 68.0 L171.55 65.35 171.05 64.1 170.4 62.85 Q168.6 59.8 166.55 57.35 162.7 52.85 158.05 50.45 L156.35 49.65 Q155.25 49.15 154.1 48.8 150.05 47.55 145.45 47.65 L143.25 47.8 141.2 48.05 138.35 48.85" fill="#729f2d" fill-rule="evenodd" stroke="none"/>
      <path d="M167.8 70.6 Q166.55 72.0 166.0 74.75 165.25 78.6 166.15 85.15 166.55 86.4 167.2 87.15 L167.2 86.85 Q169.1 79.05 168.3 73.55 L167.8 70.6" fill="#e4d885" fill-rule="evenodd" stroke="none"/>
      <path d="M62.95 0.6 Q77.1 -1.2 93.45 2.35 98.3 3.85 102.1 6.1 L101.5 6.2 Q92.05 8.85 88.6 8.85 75.85 8.85 68.35 4.8 65.0 3.05 62.95 0.6" fill="#ebe0a2" fill-rule="evenodd" stroke="none"/>
      <path d="M62.95 0.6 Q65.0 3.05 68.35 4.8 75.85 8.85 88.6 8.85 92.05 8.85 101.5 6.2 L102.1 6.1 Q105.05 7.75 107.35 9.95 92.0 8.85 79.25 12.5 76.55 13.15 73.9 14.3 68.35 7.5 59.9 4.05 L59.85 4.05 59.05 3.7 Q57.15 2.9 54.2 2.3 58.5 1.2 62.95 0.6 M116.5 13.0 Q128.65 16.15 137.9 24.5 146.55 32.35 148.75 43.75 L149.0 45.15 148.7 43.95 148.55 43.35 146.2 40.05 142.55 36.0 141.6 35.1 135.3 31.8 135.45 31.95 Q125.45 28.75 115.95 28.6 L113.1 28.6 Q106.95 28.6 101.0 29.85 93.45 31.45 86.25 35.15 L86.3 35.3 83.75 36.55 83.75 36.5 Q77.8 39.85 72.05 44.65 L71.9 44.65 71.8 44.7 70.1 46.6 68.75 48.15 68.5 48.45 66.6 50.95 66.55 50.95 66.45 51.1 Q64.85 53.2 63.4 55.4 L62.2 57.25 61.05 59.1 59.05 62.65 58.85 62.85 58.55 63.45 58.4 63.8 57.85 64.9 57.45 65.85 Q55.4 70.0 53.75 74.45 L53.25 75.75 52.5 77.95 52.35 78.45 52.35 78.5 52.45 78.7 52.45 78.8 52.35 78.7 52.0 79.65 52.0 79.7 51.65 80.75 51.35 81.85 50.15 87.0 47.95 99.95 47.95 100.2 47.9 100.4 47.9 100.65 47.85 100.9 Q47.65 103.1 47.6 106.2 L47.6 106.3 47.85 109.2 48.0 110.35 48.15 111.95 48.75 115.7 49.2 117.9 49.25 118.1 Q50.35 122.65 51.4 124.9 49.05 126.85 49.6 130.25 L49.55 130.2 Q48.05 130.85 46.4 131.1 L44.95 131.15 Q40.0 131.15 36.45 127.4 L34.85 125.3 34.3 124.3 Q31.6 120.6 30.0 113.3 L29.8 112.3 29.5 110.9 29.0 107.9 Q27.75 99.9 27.75 92.1 L27.75 89.3 27.8 88.45 27.8 87.7 27.8 87.6 28.1 83.3 28.35 81.05 Q29.45 71.1 32.65 61.4 L33.2 59.75 33.25 59.75 33.4 59.2 33.5 58.95 33.55 58.8 33.55 58.75 33.65 58.35 33.8 57.95 34.2 56.75 34.45 56.05 34.75 55.4 Q35.65 53.3 36.95 51.25 L36.95 51.2 39.15 47.95 39.1 48.0 39.45 47.6 39.5 47.45 Q43.65 41.3 47.3 36.65 L48.45 35.7 Q49.9 34.55 52.75 33.95 L56.15 33.55 56.2 33.55 56.4 33.55 Q57.8 33.6 59.4 34.55 60.8 35.4 62.35 37.0 L62.55 37.2 63.15 37.8 64.6 39.25 65.95 40.45 Q66.7 40.45 70.8 35.5 L71.9 34.2 72.5 33.45 74.95 30.9 78.85 27.5 82.9 24.8 Q86.15 22.8 90.7 20.4 98.6 16.2 100.1 15.85 L106.2 14.4 106.55 14.35 107.15 14.25 119.9 14.75 116.5 13.0 M137.7 31.8 L137.85 31.95 137.85 31.85 137.7 31.8" fill="#b8a94a" fill-rule="evenodd" stroke="none"/>
      <path d="M13.4 109.6 L10.05 105.25 13.75 108.15 Q17.55 110.75 22.6 112.05 L22.55 111.95 29.8 112.3 30.0 113.3 Q26.6 113.85 23.65 113.3 L23.4 113.3 Q20.35 113.0 17.75 111.8 14.95 110.6 13.4 109.6 M1.8 56.2 L2.55 53.35 Q2.8 58.1 3.35 62.3 4.5 70.8 6.95 76.6 L7.5 77.75 7.65 78.05 Q10.6 84.4 15.35 87.2 L15.45 87.25 Q21.8 90.0 27.75 89.3 L27.75 92.1 Q22.4 92.6 15.2 89.5 9.45 86.65 6.2 80.15 L5.85 79.55 5.3 78.25 Q1.8 69.85 1.8 56.2 M22.2 20.75 L24.1 18.9 Q17.2 34.0 16.6 49.1 16.25 56.9 18.6 64.8 L18.95 65.9 19.25 66.7 21.1 71.55 21.1 71.65 Q25.45 78.7 28.35 81.05 L28.1 83.3 Q23.8 80.25 19.65 73.95 L19.7 73.95 Q18.2 71.35 17.1 68.55 L16.8 67.75 16.5 66.9 Q9.0 46.3 22.2 20.75 M42.7 6.35 L44.55 5.55 Q32.95 26.3 39.45 47.6 L39.1 48.0 39.15 47.95 36.95 51.2 Q29.8 28.45 42.7 6.35 M59.05 3.7 L59.85 4.05 59.9 4.05 Q53.15 14.95 55.4 27.65 L55.1 27.9 53.3 29.7 Q51.45 15.45 59.05 3.7" fill="#070a03" fill-rule="evenodd" stroke="none"/>
      <path d="M4.25 94.95 Q2.65 91.35 1.8 87.75 L1.25 85.15 0.9 83.2 0.85 82.8 Q-1.25 69.1 1.8 56.2 1.8 69.85 5.3 78.25 L5.85 79.55 6.2 80.15 Q9.45 86.65 15.2 89.5 22.4 92.6 27.75 92.1 27.75 99.9 29.0 107.9 23.85 107.05 17.85 102.95 L17.75 102.85 17.8 103.0 Q9.1 96.0 4.25 83.2 L3.75 81.9 3.2 80.4 3.15 80.2 3.15 80.5 Q2.95 81.75 2.9 83.05 L2.8 85.8 Q2.8 90.25 4.25 94.95 M2.55 53.35 Q6.45 39.6 16.5 26.85 19.25 23.6 22.2 20.75 9.0 46.3 16.5 66.9 L16.8 67.75 17.1 68.55 Q18.2 71.35 19.7 73.95 L19.65 73.95 Q23.8 80.25 28.1 83.3 L27.8 87.6 27.8 87.7 27.75 88.45 27.25 88.45 Q15.8 86.65 11.3 69.6 10.5 64.0 10.6 57.3 6.45 62.3 3.35 62.3 2.8 58.1 2.55 53.35 M24.1 18.9 Q32.7 10.95 42.7 6.35 29.8 28.45 36.95 51.2 L36.95 51.25 Q35.65 53.3 34.75 55.4 L34.45 56.05 33.8 57.95 33.65 58.35 33.55 58.8 33.5 58.95 33.4 59.2 33.25 59.75 33.2 59.75 32.65 61.4 32.2 60.2 32.1 59.75 31.75 58.15 31.5 57.0 31.5 56.95 31.3 55.95 Q29.75 47.7 30.4 39.1 22.75 47.4 16.6 49.1 17.2 34.0 24.1 18.9 M44.55 5.55 Q49.2 3.5 54.2 2.3 57.15 2.9 59.05 3.7 51.45 15.45 53.3 29.7 50.5 32.55 47.3 36.65 43.65 41.3 39.5 47.45 L39.45 47.6 Q32.95 26.3 44.55 5.55 M59.9 4.05 Q68.35 7.5 73.9 14.3 65.55 17.7 55.4 27.65 53.15 14.95 59.9 4.05" fill="#2b4c01" fill-rule="evenodd" stroke="none"/>
      <path d="M34.85 125.3 Q29.35 123.15 23.1 119.6 17.55 114.6 13.4 109.6 14.95 110.6 17.75 111.8 20.35 113.0 23.4 113.3 L23.65 113.3 Q26.6 113.85 30.0 113.3 31.6 120.6 34.3 124.3 L34.85 125.3 M10.05 105.25 Q6.45 100.15 4.25 94.95 2.8 90.25 2.8 85.8 L2.9 83.05 Q2.95 81.75 3.15 80.5 L3.15 80.2 3.2 80.4 3.75 81.9 4.25 83.2 Q9.1 96.0 17.8 103.0 L17.85 102.95 Q23.85 107.05 29.0 107.9 L29.5 110.9 29.8 112.3 22.55 111.95 22.6 112.05 Q17.55 110.75 13.75 108.15 L10.05 105.25 M32.65 61.4 Q29.45 71.1 28.35 81.05 25.45 78.7 21.1 71.65 L21.1 71.55 19.25 66.7 18.95 65.9 18.6 64.8 Q16.25 56.9 16.6 49.1 22.75 47.4 30.4 39.1 29.75 47.7 31.3 55.95 L31.5 56.95 31.5 57.0 31.75 58.15 32.1 59.75 32.2 60.2 32.65 61.4 M27.8 88.45 L27.75 89.3 Q21.8 90.0 15.45 87.25 L15.35 87.2 Q10.6 84.4 7.65 78.05 L7.5 77.75 6.95 76.6 Q4.5 70.8 3.35 62.3 6.45 62.3 10.6 57.3 10.5 64.0 11.3 69.6 15.8 86.65 27.25 88.45 L27.75 88.45 27.8 88.45" fill="#596c13" fill-rule="evenodd" stroke="none"/>
      <path d="M148.7 43.95 Q144.2 74.95 138.85 85.0 133.45 94.95 126.35 114.1 119.2 133.25 94.1 138.85 68.95 144.35 51.25 131.5 L49.6 130.3 49.6 130.25 Q49.05 126.85 51.4 124.9 50.35 122.65 49.25 118.1 L49.2 117.9 48.75 115.7 48.15 111.95 48.0 110.35 47.85 109.2 47.6 106.3 47.6 106.2 Q47.65 103.1 47.85 100.9 L47.9 100.65 47.9 100.4 47.95 100.2 47.95 99.95 50.15 87.0 51.35 81.85 51.65 80.75 52.0 79.7 52.0 79.65 52.35 78.7 52.45 78.8 52.45 78.7 52.35 78.5 52.35 78.45 52.5 77.95 53.25 75.75 53.75 74.45 Q55.4 70.0 57.45 65.85 L57.85 64.9 58.4 63.8 58.55 63.45 58.85 62.85 59.05 62.65 61.05 59.1 62.2 57.25 63.4 55.4 Q64.85 53.2 66.45 51.1 L66.55 50.95 66.6 50.95 68.5 48.45 68.75 48.15 70.1 46.6 71.8 44.7 71.9 44.65 72.05 44.65 Q77.8 39.85 83.75 36.5 L83.75 36.55 86.3 35.3 86.25 35.15 Q93.45 31.45 101.0 29.85 106.95 28.6 113.1 28.6 L115.95 28.6 Q125.45 28.75 135.45 31.95 L135.3 31.8 141.6 35.1 142.55 36.0 146.2 40.05 148.55 43.35 148.7 43.95" fill="#554a22" fill-rule="evenodd" stroke="none"/>
      <path d="M107.35 9.95 Q110.75 10.15 116.5 13.0 L119.9 14.75 107.15 14.25 106.55 14.35 106.2 14.4 100.1 15.85 Q98.6 16.2 90.7 20.4 86.15 22.8 82.9 24.8 L78.85 27.5 74.95 30.9 72.5 33.45 71.9 34.2 70.8 35.5 Q66.7 40.45 65.95 40.45 L64.6 39.25 63.15 37.8 62.55 37.2 62.35 37.0 Q60.8 35.4 59.4 34.55 57.8 33.6 56.4 33.55 L56.2 33.55 56.15 33.55 52.75 33.95 Q49.9 34.55 48.45 35.7 L47.3 36.65 Q50.5 32.55 53.3 29.7 L55.1 27.9 55.4 27.65 Q65.55 17.7 73.9 14.3 76.55 13.15 79.25 12.5 92.0 8.85 107.35 9.95 M93.75 11.5 L89.7 11.15 Q88.15 11.3 85.75 12.05 L82.6 13.15 81.85 13.75 Q73.6 20.35 71.1 23.15 68.55 26.15 68.95 26.65 69.3 27.05 69.9 27.05 71.1 27.05 72.8 26.0 L76.55 23.1 Q78.6 21.25 83.65 19.6 86.4 17.95 87.65 17.4 93.15 14.95 94.1 14.7 95.05 14.35 95.2 13.15 L95.2 12.7 94.75 11.95 Q94.35 11.65 93.75 11.5" fill="#e6da88" fill-rule="evenodd" stroke="none"/>
      <path d="M93.75 11.5 Q94.35 11.65 94.75 11.95 L95.2 12.7 95.2 13.15 Q95.05 14.35 94.1 14.7 93.15 14.95 87.65 17.4 86.4 17.95 83.65 19.6 78.6 21.25 76.55 23.1 L72.8 26.0 Q71.1 27.05 69.9 27.05 69.3 27.05 68.95 26.65 68.55 26.15 71.1 23.15 73.6 20.35 81.85 13.75 L82.6 13.15 85.75 12.05 Q88.15 11.3 89.7 11.15 L93.75 11.5" fill="#fefefb" fill-rule="evenodd" stroke="none"/>
      <path d="M58.3 16.2 Q56.6 13.1 59.5 9.45 L60.05 8.8 Q64.25 7.35 63.1 11.55 61.45 13.45 61.4 16.3 L58.3 16.2" fill="#bad78e" fill-rule="evenodd" stroke="none"/>
      <path d="M45.65 16.8 Q42.6 15.9 43.55 11.7 44.5 7.45 47.3 8.4 50.35 9.05 48.15 13.35 46.95 16.95 45.65 16.8" fill="#bad78e" fill-rule="evenodd" stroke="none"/>
      <path d="M145.75 111.75 L146.75 114.0 Q149.2 120.25 148.5 125.55 L147.65 126.95 Q143.5 133.3 139.2 136.55 134.35 140.1 135.95 136.7 L137.75 132.6 138.3 131.45 139.4 128.55 139.7 127.65 139.75 127.45 140.35 121.9 Q140.75 116.7 140.2 111.65 139.65 106.6 139.65 103.6 L141.25 105.15 Q144.1 108.1 145.75 111.6 L145.7 111.6 145.75 111.75" fill="#acdd59" fill-rule="evenodd" stroke="none"/>
      <path d="M145.75 111.75 L145.7 111.6 145.75 111.6 145.8 111.75 145.75 111.75 M139.65 103.6 Q139.65 106.6 140.2 111.65 140.75 116.7 140.35 121.9 L139.75 127.45 139.7 127.65 139.4 128.55 138.3 131.45 137.75 132.6 135.95 136.7 Q134.35 140.1 139.2 136.55 143.5 133.3 147.65 126.95 L148.5 125.55 147.45 131.85 144.1 135.65 138.35 141.1 135.1 143.85 131.2 146.8 131.05 146.8 Q120.95 147.5 119.3 145.45 113.45 143.85 108.9 139.05 102.25 132.0 102.25 122.05 102.25 112.1 108.9 105.1 115.65 98.1 125.15 98.15 133.45 98.15 139.65 103.6" fill="#5a951c" fill-rule="evenodd" stroke="none"/>
      <path d="M147.45 131.85 Q152.9 135.55 154.05 139.8 L152.5 140.7 Q149.25 142.3 144.7 142.3 142.3 142.3 138.95 141.3 L138.35 141.1 144.1 135.65 147.45 131.85" fill="#e4d885" fill-rule="evenodd" stroke="none"/>
      <path d="M154.05 139.8 L154.25 141.05 Q154.7 145.3 131.2 146.8 L135.1 143.85 138.35 141.1 138.95 141.3 Q142.3 142.3 144.7 142.3 149.25 142.3 152.5 140.7 L154.05 139.8" fill="#b8a94a" fill-rule="evenodd" stroke="none"/>
      <path d="M53.45 130.3 L54.65 130.5 54.55 130.3 54.3 129.8 Q52.8 126.7 52.65 125.65 L51.05 120.35 Q50.35 117.8 50.35 114.05 L51.75 115.7 51.75 115.95 53.3 117.3 54.35 118.35 56.9 120.75 59.55 123.05 Q64.15 126.75 69.25 129.6 71.25 130.95 75.4 132.65 L82.1 135.1 84.2 135.7 Q84.1 136.95 85.95 137.85 88.15 138.9 88.15 140.0 88.15 141.45 86.0 143.45 L84.3 144.85 Q72.05 145.55 57.7 139.55 L53.45 130.3 M50.5 109.9 Q51.1 101.75 54.2 89.5 L54.5 88.35 55.35 89.7 55.65 90.15 59.2 95.35 Q61.6 98.45 64.6 101.4 L67.2 103.9 69.95 106.25 Q77.7 112.4 86.75 115.75 L88.5 116.4 93.35 117.8 94.0 117.95 98.55 118.85 108.25 119.55 109.5 119.5 Q106.4 128.45 93.2 132.45 L91.55 132.85 86.85 133.95 84.35 133.2 83.7 133.05 79.05 131.45 77.4 130.7 Q71.5 128.25 66.25 124.7 L61.35 121.05 58.75 118.8 56.2 116.4 52.0 111.75 51.1 110.65 50.5 109.9 M55.75 84.4 L55.85 84.1 55.85 84.05 56.0 83.5 57.35 79.7 60.1 73.3 Q63.75 79.4 69.6 84.95 72.25 87.5 75.1 89.65 88.1 99.55 104.5 101.5 L114.45 101.85 117.95 101.4 118.0 101.5 Q122.6 100.85 126.8 99.35 124.25 103.1 118.55 108.05 110.6 114.7 103.65 116.9 L103.5 116.9 100.05 116.45 95.55 115.55 94.9 115.4 90.1 114.0 88.4 113.35 Q79.45 110.0 71.8 103.85 L69.1 101.5 66.5 99.0 Q63.55 96.05 61.2 92.95 59.2 90.4 57.7 87.75 L57.4 87.3 56.55 85.95 56.3 85.45 56.25 85.4 56.0 84.95 55.75 84.4 M61.65 70.15 L62.05 69.3 62.3 68.8 62.65 68.1 63.35 66.85 65.6 63.0 66.5 61.55 67.75 59.65 68.65 58.3 69.45 57.15 Q71.35 59.7 73.6 62.25 L73.95 62.65 76.15 65.0 Q79.05 67.95 82.1 70.55 96.15 82.25 113.85 86.0 119.5 87.15 124.6 87.35 L128.4 87.25 128.45 87.35 Q133.45 87.1 137.95 85.9 L139.4 85.55 139.0 86.2 138.9 86.45 138.0 87.95 138.1 88.85 138.1 89.3 138.1 90.25 138.1 91.05 137.25 91.7 137.1 91.8 Q133.35 94.75 129.0 96.55 L127.5 97.15 126.25 97.55 124.45 98.1 117.7 99.35 114.25 99.55 104.55 98.85 Q88.6 96.3 75.95 86.25 L73.2 83.9 70.6 81.4 Q65.1 76.0 61.65 70.15 M71.5 54.5 L71.6 54.3 71.65 54.25 71.7 54.2 71.75 54.15 72.55 53.1 73.55 51.8 Q77.15 49.0 82.35 45.95 L83.9 47.55 87.55 51.0 Q95.25 57.6 104.15 61.3 110.3 63.9 117.0 65.15 L121.65 65.8 127.05 66.1 127.8 66.05 130.55 65.8 130.6 65.9 Q135.2 65.45 139.4 64.1 L140.8 63.7 140.8 63.65 142.25 63.05 Q144.85 61.9 147.3 60.35 L148.45 59.55 Q146.9 71.05 140.7 83.1 L140.35 83.2 138.75 83.7 137.35 83.95 135.45 84.4 128.15 85.0 124.4 84.85 Q119.4 84.55 113.95 83.2 96.7 78.9 83.0 67.0 L80.05 64.25 77.25 61.35 73.25 56.8 71.5 54.5 M83.35 45.4 Q85.65 44.1 88.25 42.75 L88.0 42.8 88.2 42.7 88.25 42.75 90.95 41.5 Q114.65 31.5 143.9 39.85 147.95 46.8 148.25 55.15 L148.25 57.8 147.25 58.45 Q144.75 60.05 141.95 61.2 L141.6 61.3 Q140.9 61.5 140.15 61.85 L138.85 62.15 137.1 62.65 130.3 63.6 128.25 63.6 126.8 63.6 Q122.2 63.5 117.15 62.35 111.7 61.1 106.75 59.1 L104.95 58.3 Q100.35 56.25 96.1 53.4 92.2 50.8 88.6 47.6 L88.4 47.4 86.95 46.0 85.7 44.8 85.3 44.45 83.35 45.4 M62.0 120.3 L62.05 120.45 62.1 120.45 62.0 120.3" fill="#b8a94a" fill-rule="evenodd" stroke="none"/>
      <path d="M60.4 67.6 L60.25 67.85 59.75 68.8 59.9 68.4 60.2 67.8 60.4 67.6 M53.4 84.0 L53.4 84.05 53.3 83.85 53.4 84.0 M50.35 114.05 L50.4 111.95 50.5 109.9 51.1 110.65 52.0 111.75 56.2 116.4 58.75 118.8 61.35 121.05 66.25 124.7 Q71.5 128.25 77.4 130.7 L79.05 131.45 83.7 133.05 84.35 133.2 86.85 133.95 88.7 134.35 92.05 135.0 92.15 135.05 97.95 135.75 99.15 135.75 101.2 135.8 107.7 135.2 109.3 134.85 109.4 134.8 111.5 134.35 Q115.7 133.1 119.4 130.8 119.55 130.65 119.75 130.6 L119.9 130.5 120.75 129.95 122.9 128.45 123.45 127.9 Q126.95 124.9 129.0 121.0 L128.35 122.5 Q124.75 127.3 119.25 132.3 L118.9 132.5 118.75 132.6 Q116.1 134.25 113.25 135.4 L110.3 136.35 108.25 136.9 106.5 137.2 99.95 137.8 97.85 137.75 96.6 137.7 Q92.1 137.45 87.25 136.4 L84.2 135.65 82.85 135.25 82.2 135.05 77.5 133.45 75.8 132.75 Q72.4 131.35 69.25 129.6 64.15 126.75 59.55 123.05 L56.9 120.75 54.35 118.35 53.3 117.3 51.75 115.95 51.75 115.7 50.35 114.05 M54.5 88.35 L54.65 87.75 55.0 86.55 55.4 85.35 55.75 84.4 56.0 84.95 56.25 85.4 56.3 85.45 56.55 85.95 57.4 87.3 57.7 87.75 Q59.2 90.4 61.2 92.95 63.55 96.05 66.5 99.0 L69.1 101.5 71.8 103.85 Q79.45 110.0 88.4 113.35 L90.1 114.0 94.9 115.4 95.55 115.55 100.05 116.45 103.5 116.9 103.65 116.9 103.65 116.95 109.6 117.15 110.85 117.1 113.0 116.95 119.7 115.7 121.35 115.2 121.45 115.2 121.45 115.15 123.6 114.4 Q127.3 112.9 130.6 110.55 L131.5 109.9 131.8 109.7 132.15 109.4 132.25 109.25 132.3 109.3 133.15 108.65 135.4 106.7 135.05 107.85 134.95 108.5 132.1 111.05 131.45 111.55 131.25 111.7 131.1 111.8 130.65 112.2 Q126.8 115.05 122.4 116.8 L120.25 117.55 118.45 118.1 111.7 119.35 109.5 119.5 108.25 119.55 98.55 118.85 94.0 117.95 93.35 117.8 88.5 116.4 86.75 115.75 Q77.7 112.4 69.95 106.25 L67.2 103.9 64.6 101.4 Q61.6 98.45 59.2 95.35 L55.65 90.15 55.35 89.7 54.5 88.35 M60.1 73.3 L60.5 72.4 61.65 70.15 Q65.1 76.0 70.6 81.4 L73.2 83.9 75.95 86.25 Q88.6 96.3 104.55 98.85 L114.25 99.55 117.7 99.35 124.45 98.1 126.25 97.55 127.5 97.15 129.0 96.55 Q133.35 94.75 137.1 91.8 L137.25 91.7 138.1 91.05 138.1 92.45 138.1 92.65 138.1 92.85 137.95 92.95 Q134.05 96.1 129.6 98.2 L128.15 98.8 126.8 99.35 Q122.6 100.85 118.0 101.5 L117.95 101.4 114.45 101.85 104.5 101.5 Q88.1 99.55 75.1 89.65 72.25 87.5 69.6 84.95 63.75 79.4 60.1 73.3 M69.45 57.15 L71.45 54.45 71.5 54.5 73.25 56.8 77.25 61.35 80.05 64.25 83.0 67.0 Q96.7 78.9 113.95 83.2 119.4 84.55 124.4 84.85 L128.15 85.0 135.45 84.4 137.35 83.95 138.75 83.7 140.35 83.2 140.7 83.1 139.4 85.55 137.95 85.9 Q133.45 87.1 128.45 87.35 L128.4 87.25 124.6 87.35 Q119.5 87.15 113.85 86.0 96.15 82.25 82.1 70.55 79.05 67.95 76.15 65.0 L73.95 62.65 73.6 62.25 Q71.35 59.7 69.45 57.15 M82.35 45.95 L82.3 45.9 83.35 45.4 85.3 44.45 85.7 44.8 86.95 46.0 88.4 47.4 88.6 47.6 Q92.2 50.8 96.1 53.4 100.35 56.25 104.95 58.3 L106.75 59.1 Q111.7 61.1 117.15 62.35 122.2 63.5 126.8 63.6 L128.25 63.6 130.3 63.6 137.1 62.65 138.85 62.15 140.15 61.85 Q140.9 61.5 141.6 61.3 L141.95 61.2 Q144.75 60.05 147.25 58.45 L148.25 57.8 148.95 57.3 148.85 59.25 148.45 59.55 147.3 60.35 Q144.85 61.9 142.25 63.05 L140.8 63.65 140.8 63.7 139.4 64.1 Q135.2 65.45 130.6 65.9 L130.55 65.8 127.8 66.05 127.05 66.1 121.65 65.8 117.0 65.15 Q110.3 63.9 104.15 61.3 95.25 57.6 87.55 51.0 L83.9 47.55 82.35 45.95 M62.0 120.3 L62.1 120.45 62.05 120.45 62.0 120.3" fill="#867535" fill-rule="evenodd" stroke="none"/>
      <path d="M138.1 92.85 L138.0 95.15 138.0 95.3 137.4 100.1 Q136.95 102.05 136.6 102.4 L136.2 103.3 136.4 102.85 135.7 105.2 135.4 106.7 133.15 108.65 132.3 109.3 132.25 109.25 132.15 109.4 131.8 109.7 131.5 109.9 130.6 110.55 Q127.3 112.9 123.6 114.4 L121.45 115.15 121.45 115.2 121.35 115.2 119.7 115.7 113.0 116.95 110.85 117.1 109.6 117.15 103.65 116.95 103.65 116.9 Q110.6 114.7 118.55 108.05 124.25 103.1 126.8 99.35 L128.15 98.8 129.6 98.2 Q134.05 96.1 137.95 92.95 L138.1 92.85 M130.4 100.85 L129.3 102.2 Q125.7 106.1 119.65 108.8 L118.3 110.05 Q126.35 109.2 130.25 106.6 L131.3 105.8 Q132.65 104.6 133.25 103.15 134.5 99.3 131.5 99.55 L131.3 99.55 130.4 100.85" fill="#e4d782" fill-rule="evenodd" stroke="none"/>
      <path d="M130.4 100.85 L131.3 99.55 131.5 99.55 Q134.5 99.3 133.25 103.15 132.65 104.6 131.3 105.8 L130.25 106.6 Q126.35 109.2 118.3 110.05 L119.65 108.8 Q125.7 106.1 129.3 102.2 L130.4 100.85 M125.8 120.8 Q123.15 125.55 111.0 123.75 L112.4 122.9 Q120.3 121.45 124.25 116.9 127.3 117.25 125.8 120.8" fill="#ffffff" fill-rule="evenodd" stroke="none"/>
      <path d="M134.95 108.5 L134.9 108.65 134.9 108.85 Q133.8 114.45 129.9 120.3 L128.35 122.5 129.0 121.0 Q126.95 124.9 123.45 127.9 L122.9 128.45 120.75 129.95 119.9 130.5 119.75 130.6 Q119.55 130.65 119.4 130.8 115.7 133.1 111.5 134.35 L109.4 134.8 109.3 134.85 107.7 135.2 101.2 135.8 99.15 135.75 97.95 135.75 92.15 135.05 92.05 135.0 88.7 134.35 86.85 133.95 91.55 132.85 93.2 132.45 Q106.4 128.45 109.5 119.5 L111.7 119.35 118.45 118.1 120.25 117.55 122.4 116.8 Q126.8 115.05 130.65 112.2 L131.1 111.8 131.25 111.7 131.45 111.55 132.1 111.05 134.95 108.5 M119.25 132.3 L116.2 134.95 Q115.35 135.55 114.6 136.25 L113.8 136.85 108.3 141.0 Q99.15 144.5 88.85 144.65 L84.3 144.85 86.0 143.45 Q88.15 141.45 88.15 140.0 88.15 138.9 85.95 137.85 84.1 136.95 84.2 135.7 L82.1 135.1 75.4 132.65 Q71.25 130.95 69.25 129.6 72.4 131.35 75.8 132.75 L77.5 133.45 82.2 135.05 82.85 135.25 84.2 135.65 87.25 136.4 Q92.1 137.45 96.6 137.7 L97.85 137.75 99.95 137.8 106.5 137.2 108.25 136.9 110.3 136.35 113.25 135.4 Q116.1 134.25 118.75 132.6 L118.9 132.5 119.25 132.3 M125.8 120.8 Q127.3 117.25 124.25 116.9 120.3 121.45 112.4 122.9 L111.0 123.75 Q123.15 125.55 125.8 120.8" fill="#e3d882" fill-rule="evenodd" stroke="none"/>
      <path d="M60.4 67.6 L61.0 66.5 62.5 63.9 63.7 61.95 64.95 60.05 68.15 55.6 68.25 55.5 68.3 55.45 70.3 52.85 70.65 52.5 72.0 50.9 73.8 48.95 74.05 48.9 Q80.1 43.9 86.4 40.4 L86.4 40.45 89.1 39.15 89.05 39.0 Q113.6 26.6 141.8 36.7 L143.9 39.85 Q114.65 31.5 90.95 41.5 L88.25 42.75 88.2 42.7 88.0 42.8 88.25 42.75 Q85.65 44.1 83.35 45.4 L82.3 45.9 82.35 45.95 Q77.15 49.0 73.55 51.8 L72.55 53.1 71.75 54.15 71.7 54.2 71.65 54.25 71.6 54.3 71.5 54.5 71.45 54.45 69.45 57.15 68.65 58.3 67.75 59.65 66.5 61.55 65.6 63.0 63.35 66.85 62.65 68.1 62.3 68.8 62.05 69.3 61.65 70.15 60.5 72.4 60.1 73.3 57.35 79.7 56.0 83.5 55.85 84.05 55.85 84.1 55.75 84.4 55.4 85.35 55.0 86.55 54.65 87.75 54.5 88.35 54.2 89.5 Q51.1 101.75 50.5 109.9 L50.4 111.95 50.35 114.05 Q50.35 117.8 51.05 120.35 L52.65 125.65 Q52.8 126.7 54.3 129.8 L54.55 130.3 54.65 130.5 53.45 130.3 53.25 130.25 52.5 129.35 52.65 130.0 52.45 129.35 52.45 129.3 Q51.15 127.2 49.8 121.7 48.45 116.2 48.45 112.95 L48.65 107.35 Q49.35 99.35 52.3 87.55 L52.65 86.4 53.0 85.3 53.0 85.25 53.35 84.25 Q53.7 84.7 53.4 84.05 L53.4 84.0 53.55 83.5 54.35 81.2 54.85 79.85 Q56.55 75.2 58.7 70.9 L59.15 69.95 59.75 68.8 60.25 67.85 60.4 67.6" fill="#50451f" fill-rule="evenodd" stroke="none"/>
      <path d="M128.55 34.8 L130.85 36.55 Q139.15 41.5 144.25 49.85 150.15 59.35 149.4 68.85 148.6 78.6 141.5 84.75 133.5 92.15 120.75 92.5 L114.6 92.2 Q102.15 90.65 91.8 82.4 75.9 69.25 77.25 52.45 78.6 35.35 95.9 30.35 110.15 25.6 125.45 33.25 L128.55 34.8" fill="#735e2f" fill-rule="evenodd" stroke="none"/>
      <path d="M130.35 39.5 Q137.4 43.85 141.75 50.95 146.7 58.85 146.05 67.0 145.45 75.15 139.4 80.65 132.5 86.9 121.8 87.05 L116.6 86.85 Q106.05 85.5 97.15 78.4 83.75 67.4 84.9 53.1 86.05 38.6 100.65 34.3 112.8 30.45 125.8 36.75 L128.45 38.1 130.35 39.5" fill="#241f0f" fill-rule="evenodd" stroke="none"/>
      <path d="M25.6 117.6 L26.15 116.95 Q25.3 114.75 25.3 112.25 25.3 105.8 30.85 101.25 36.4 96.7 44.3 96.7 52.2 96.7 57.75 101.25 63.35 105.8 63.35 112.25 63.35 114.3 62.8 116.15 L62.0 115.7 61.95 115.7 61.9 115.9 61.2 116.85 58.5 120.45 57.9 121.2 57.0 122.2 56.3 122.95 53.95 125.25 52.95 126.15 Q49.7 129.0 45.9 131.35 50.0 133.2 53.25 135.55 L53.45 135.7 56.05 137.8 Q60.2 141.6 62.5 146.6 61.6 147.2 60.45 147.45 57.6 143.9 54.4 141.65 L51.55 139.9 51.35 139.85 Q47.9 138.15 44.2 137.75 41.15 136.85 36.8 139.35 31.45 142.35 24.05 150.5 22.15 148.5 20.8 146.2 L20.6 145.85 Q28.6 141.8 31.0 137.25 L31.15 137.0 Q31.9 135.3 32.05 133.6 32.25 125.2 25.6 117.6" fill="#5a951c" fill-rule="evenodd" stroke="none"/>
      <path d="M20.6 145.85 L20.25 145.3 Q19.1 143.3 18.35 141.05 L18.15 140.45 Q16.45 129.95 24.45 119.05 L25.6 117.6 Q32.25 125.2 32.05 133.6 31.9 135.3 31.15 137.0 L31.0 137.25 Q28.6 141.8 20.6 145.85 M62.8 116.15 L62.85 116.15 63.65 118.95 64.0 120.35 64.55 123.4 64.6 124.25 64.8 126.25 65.05 131.75 Q65.15 135.4 64.85 139.65 64.95 144.85 62.5 146.6 60.2 141.6 56.05 137.8 L53.45 135.7 53.25 135.55 Q50.0 133.2 45.9 131.35 49.7 129.0 52.95 126.15 L53.95 125.25 56.3 122.95 57.0 122.2 57.9 121.2 58.5 120.45 61.2 116.85 61.9 115.9 61.95 115.7 62.0 115.7 62.8 116.15" fill="#bce564" fill-rule="evenodd" stroke="none"/>
      <path d="M60.45 147.45 L60.2 147.45 Q58.9 152.9 54.4 155.5 L50.9 155.5 48.3 155.45 Q41.45 155.1 37.45 153.05 33.55 151.0 33.55 148.15 33.55 146.5 35.45 144.3 37.35 142.15 37.35 141.6 37.35 140.5 36.8 139.35 41.15 136.85 44.2 137.75 47.9 138.15 51.35 139.85 L51.55 139.9 54.4 141.65 Q57.6 143.9 60.45 147.45 M48.3 146.95 Q49.95 149.8 45.9 152.1 L45.45 152.3 44.95 152.6 44.7 152.85 Q44.05 153.85 44.95 154.2 L45.65 154.3 48.7 154.5 Q50.9 154.05 53.0 151.95 56.3 148.4 53.0 144.9 L50.3 142.75 50.1 142.6 50.0 142.55 Q45.45 140.5 46.0 144.45 L48.2 146.6 48.3 146.95" fill="#e4d885" fill-rule="evenodd" stroke="none"/>
      <path d="M54.4 155.5 Q47.9 159.25 34.55 156.7 28.15 154.7 24.05 150.5 31.45 142.35 36.8 139.35 37.35 140.5 37.35 141.6 37.35 142.15 35.45 144.3 33.55 146.5 33.55 148.15 33.55 151.0 37.45 153.05 41.45 155.1 48.3 155.45 L50.9 155.5 54.4 155.5" fill="#b8a94a" fill-rule="evenodd" stroke="none"/>
      <path d="M48.3 146.95 L48.2 146.6 46.0 144.45 Q45.45 140.5 50.0 142.55 L50.1 142.6 50.3 142.75 53.0 144.9 Q56.3 148.4 53.0 151.95 50.9 154.05 48.7 154.5 L45.65 154.3 44.95 154.2 Q44.05 153.85 44.7 152.85 L44.95 152.6 45.45 152.3 45.9 152.1 Q49.95 149.8 48.3 146.95" fill="#ffffff" fill-rule="evenodd" stroke="none"/>
      <path d="M69.9 112.05 Q68.35 119.6 62.7 117.1 L61.95 116.75 63.45 114.15 Q65.8 109.4 65.8 104.75 65.8 98.75 65.05 97.2 66.75 97.55 68.0 98.75 L67.6 99.3 Q66.95 100.4 66.95 101.4 L67.65 103.6 Q68.25 105.55 68.25 108.95 68.25 110.45 68.4 110.85 68.75 111.85 69.9 112.05" fill="#e4d885" fill-rule="evenodd" stroke="none"/>
      <path d="M68.0 98.75 Q70.85 101.4 70.35 108.4 L70.3 109.4 70.2 109.9 69.9 112.05 Q68.75 111.85 68.4 110.85 68.25 110.45 68.25 108.95 68.25 105.55 67.65 103.6 L66.95 101.4 Q66.95 100.4 67.6 99.3 L68.0 98.75" fill="#ffffff" fill-rule="evenodd" stroke="none"/>
      <path d="M65.35 67.55 L65.25 67.65 65.15 67.65 65.55 69.0 Q66.35 71.85 65.55 77.35 64.65 82.8 60.2 84.3 L57.05 85.2 50.95 85.75 Q53.8 86.5 56.0 88.0 59.7 90.6 61.45 95.6 64.25 103.3 64.05 110.3 L63.45 114.15 61.95 116.75 58.85 120.45 58.35 120.9 58.3 120.95 57.35 121.75 56.75 122.15 Q50.3 124.25 40.4 119.65 37.4 117.55 34.9 115.3 19.7 101.95 19.7 83.55 19.7 81.35 19.85 79.35 21.05 76.05 22.75 72.8 L26.35 69.45 29.85 66.55 30.8 65.75 Q33.75 64.05 36.25 63.2 L36.6 63.0 36.6 62.95 39.3 61.8 Q45.8 59.15 53.55 60.25 56.75 60.9 59.25 62.2 60.1 62.6 60.95 63.15 L61.2 63.35 Q62.95 64.5 64.25 66.0 L64.95 66.95 65.05 67.15 65.35 67.55 M56.85 114.45 Q57.8 111.8 57.2 108.4 56.4 104.2 53.55 101.0 L52.6 100.05 Q49.05 96.65 44.9 96.6 42.55 96.5 40.85 97.55 39.45 98.3 38.4 99.7 L38.4 99.8 Q36.15 103.1 37.1 107.9 38.0 112.65 41.6 116.05 45.2 119.65 49.4 119.8 53.55 119.85 55.8 116.4 L56.85 114.45" fill="#8ecc45" fill-rule="evenodd" stroke="none"/>
      <path d="M63.45 114.15 L64.05 110.3 Q64.25 103.3 61.45 95.6 59.7 90.6 56.0 88.0 53.8 86.5 50.95 85.75 L57.05 85.2 60.2 84.3 Q64.65 82.8 65.55 77.35 66.35 71.85 65.55 69.0 L65.15 67.65 65.25 67.65 65.35 67.55 Q66.65 69.6 67.25 72.15 L67.3 72.4 Q68.2 76.6 67.25 82.15 L67.25 82.2 66.45 86.3 66.45 86.5 Q65.5 90.4 64.3 93.0 L65.05 94.65 65.2 95.35 65.0 96.1 65.0 96.45 65.0 96.75 65.05 97.2 Q65.8 98.75 65.8 104.75 65.8 109.4 63.45 114.15 M64.8 96.5 L64.65 96.65 64.75 97.15 64.8 96.5" fill="#648c26" fill-rule="evenodd" stroke="none"/>
      <path d="M38.4 99.8 L38.4 99.7 Q39.45 98.3 40.85 97.55 42.55 96.5 44.9 96.6 49.05 96.65 52.6 100.05 L53.55 101.0 Q56.4 104.2 57.2 108.4 57.8 111.8 56.85 114.45 54.35 116.55 51.3 116.8 L50.15 116.85 Q46.15 116.85 43.1 114.1 L41.75 112.6 Q38.2 108.35 38.2 102.35 L38.4 99.8 M50.1 101.75 Q48.65 100.85 47.15 100.95 45.75 101.15 45.2 102.15 44.6 103.25 45.05 104.45 45.75 105.8 47.15 106.7 48.6 107.5 50.0 107.3 51.5 107.25 52.1 106.15 52.65 105.15 52.1 103.8 51.5 102.55 50.1 101.75 M39.7 131.05 Q33.0 129.1 28.7 124.4 27.2 122.3 27.4 120.65 27.55 119.8 28.1 119.2 L28.1 119.1 28.85 118.35 29.05 118.3 29.25 118.3 32.15 120.6 Q37.8 124.75 47.5 127.3 L47.85 127.45 48.0 128.6 Q47.9 129.7 47.05 130.8 44.85 131.75 42.15 131.5 L41.55 131.45 39.7 131.05" fill="#b8a94a" fill-rule="evenodd" stroke="none"/>
      <path d="M50.1 101.75 Q51.5 102.55 52.1 103.8 52.65 105.15 52.1 106.15 51.5 107.25 50.0 107.3 48.6 107.5 47.15 106.7 45.75 105.8 45.05 104.45 44.6 103.25 45.2 102.15 45.75 101.15 47.15 100.95 48.65 100.85 50.1 101.75" fill="#ffffff" fill-rule="evenodd" stroke="none"/>
      <path d="M56.85 114.45 L55.8 116.4 Q53.55 119.85 49.4 119.8 45.2 119.65 41.6 116.05 38.0 112.65 37.1 107.9 36.15 103.1 38.4 99.8 L38.2 102.35 Q38.2 108.35 41.75 112.6 L43.1 114.1 Q46.15 116.85 50.15 116.85 L51.3 116.8 Q54.35 116.55 56.85 114.45" fill="#a59141" fill-rule="evenodd" stroke="none"/>
      <path d="M22.75 72.8 Q21.05 76.05 19.85 79.35 19.7 81.35 19.7 83.55 19.7 101.95 34.9 115.3 37.4 117.55 40.4 119.65 50.3 124.25 56.75 122.15 L52.5 124.55 52.1 125.4 51.55 126.45 50.4 128.15 49.65 128.95 47.05 130.8 Q47.9 129.7 48.0 128.6 L47.85 127.45 Q47.45 126.3 46.3 125.1 39.55 120.25 34.9 118.75 31.55 117.75 29.25 118.3 L29.05 118.3 28.85 118.35 28.1 119.1 28.1 119.2 Q27.55 119.8 27.4 120.65 27.2 122.3 28.7 124.4 33.0 129.1 39.7 131.05 L39.7 131.1 Q30.95 130.25 23.5 122.1 L21.2 119.3 20.15 118.05 19.15 116.55 Q16.85 112.75 15.35 109.0 12.65 102.1 12.75 95.5 12.75 94.35 12.9 93.2 L13.3 90.2 Q14.35 85.0 17.25 79.95 L18.65 77.65 20.25 75.5 22.75 72.8" fill="#729f2d" fill-rule="evenodd" stroke="none"/>
      <path d="M29.25 118.3 Q31.55 117.75 34.9 118.75 39.55 120.25 46.3 125.1 47.45 126.3 47.85 127.45 L47.5 127.3 Q37.8 124.75 32.15 120.6 L29.25 118.3" fill="#e4d885" fill-rule="evenodd" stroke="none"/>
    </g>
    <g id="shape1" transform="matrix(1.0, 0.0, 0.0, 1.0, 0.0, 0.0)">
      <path d="M84.3 5.05 Q87.4 12.8 86.6 21.0 L86.75 21.5 86.75 21.55 Q85.85 27.0 84.8 28.35 L83.35 29.85 Q80.1 33.0 75.6 35.4 84.05 26.9 84.3 5.05" fill="#e5d681" fill-rule="evenodd" stroke="none"/>
      <path d="M42.85 2.7 L41.5 3.25 Q35.65 5.55 31.25 8.8 28.55 11.4 26.4 14.1 41.85 15.6 48.3 19.65 50.05 10.55 62.2 5.5 47.75 1.55 42.85 2.7 M0.55 40.7 L0.55 40.55 0.45 40.25 Q-0.35 35.6 0.25 30.25 L0.4 28.65 1.3 24.05 1.4 23.5 1.5 23.0 Q1.9 22.05 2.45 21.2 13.95 -0.75 43.0 0.05 L49.7 0.55 53.8 1.05 Q60.85 2.4 64.45 4.6 L65.7 5.9 66.85 7.6 62.45 8.6 Q51.9 16.4 55.9 25.95 57.25 29.4 60.3 32.95 68.45 39.4 75.6 35.4 80.1 33.0 83.35 29.85 L84.8 28.35 Q85.85 27.0 86.75 21.55 94.6 33.55 89.75 44.95 84.45 47.25 79.3 47.95 68.55 49.3 58.2 43.55 52.1 40.05 46.1 34.1 L45.55 33.5 Q34.8 17.15 21.3 17.9 5.55 19.25 0.6 40.5 L0.6 40.6 0.55 40.7" fill="#623919" fill-rule="evenodd" stroke="none"/>
      <path d="M42.85 2.7 Q47.75 1.55 62.2 5.5 50.05 10.55 48.3 19.65 41.85 15.6 26.4 14.1 28.55 11.4 31.25 8.8 35.65 5.55 41.5 3.25 L42.85 2.7" fill="#804722" fill-rule="evenodd" stroke="none"/>
      <path d="M66.85 7.6 L70.4 6.45 Q74.0 4.75 77.4 1.35 80.8 -0.55 82.9 2.35 81.4 26.7 55.9 25.95 51.9 16.4 62.45 8.6 L66.85 7.6 M76.1 7.5 Q75.5 6.7 74.0 6.7 73.05 6.7 72.1 7.3 71.15 8.1 68.65 9.0 L68.3 9.15 63.95 10.1 Q61.3 10.65 61.3 12.0 61.3 13.2 62.55 14.1 63.7 14.9 65.9 15.05 68.1 15.1 71.75 13.35 75.4 11.5 76.05 9.9 76.65 8.25 76.1 7.5" fill="#e3d47f" fill-rule="evenodd" stroke="none"/>
      <path d="M82.9 2.35 L83.0 2.65 84.3 5.05 Q84.05 26.9 75.6 35.4 68.45 39.4 60.3 32.95 57.25 29.4 55.9 25.95 81.4 26.7 82.9 2.35" fill="#b9ac4b" fill-rule="evenodd" stroke="none"/>
      <path d="M76.1 7.5 Q76.65 8.25 76.05 9.9 75.4 11.5 71.75 13.35 68.1 15.1 65.9 15.05 63.7 14.9 62.55 14.1 61.3 13.2 61.3 12.0 61.3 10.65 63.95 10.1 L68.3 9.15 68.65 9.0 Q71.15 8.1 72.1 7.3 73.05 6.7 74.0 6.7 75.5 6.7 76.1 7.5" fill="#ffffff" fill-rule="evenodd" stroke="none"/>
      <path d="M85.0 52.4 L84.7 52.8 82.55 55.65 79.4 58.6 Q69.05 62.2 51.35 60.1 L46.3 59.4 46.05 59.75 51.6 60.9 Q63.3 62.65 76.55 60.85 L72.85 62.85 72.3 63.05 68.15 64.55 64.75 65.3 61.65 65.75 Q11.7 67.15 7.05 39.25 L7.1 38.9 Q8.9 29.2 17.15 26.65 24.0 24.4 29.95 27.5 27.8 28.55 26.05 30.7 22.7 34.8 22.7 40.55 22.7 46.25 26.05 50.3 29.3 54.4 34.05 54.4 38.7 54.4 42.0 50.3 L43.05 48.9 Q44.7 46.15 45.15 42.8 L48.1 45.1 49.3 45.9 52.7 48.0 Q55.55 49.55 58.8 50.7 73.4 55.55 84.5 52.55 L85.0 52.4" fill="#56881e" fill-rule="evenodd" stroke="none"/>
      <path d="M89.75 44.95 Q88.05 48.7 85.0 52.4 L84.5 52.55 Q73.4 55.55 58.8 50.7 55.55 49.55 52.7 48.0 L49.3 45.9 48.1 45.1 45.15 42.8 43.05 40.75 Q40.2 37.85 37.85 34.35 L37.75 34.3 37.5 33.9 37.3 33.65 Q34.6 29.9 29.95 27.5 24.0 24.4 17.15 26.65 8.9 29.2 7.1 38.9 L7.05 39.25 Q6.8 40.55 6.7 41.95 7.05 51.95 13.5 60.1 L12.4 59.2 12.0 59.15 Q8.95 56.95 7.6 55.4 2.3 49.45 0.75 41.7 L0.55 40.7 0.6 40.6 0.6 40.5 Q5.55 19.25 21.3 17.9 34.8 17.15 45.55 33.5 L46.1 34.1 Q52.1 40.05 58.2 43.55 68.55 49.3 79.3 47.95 84.45 47.25 89.75 44.95" fill="#432004" fill-rule="evenodd" stroke="none"/>
      <path d="M79.4 58.6 L77.7 60.0 77.6 60.15 76.55 60.85 Q63.3 62.65 51.6 60.9 L46.05 59.75 46.3 59.4 51.35 60.1 Q69.05 62.2 79.4 58.6 M37.85 34.35 Q36.95 34.85 36.2 35.55 33.7 37.85 33.7 41.1 33.7 44.35 36.2 46.65 38.45 48.7 41.5 48.95 L41.35 49.05 Q33.5 53.8 28.95 48.5 L28.55 47.95 Q23.95 37.9 37.3 33.65 L37.5 33.9 37.75 34.3 37.85 34.35" fill="#060605" fill-rule="evenodd" stroke="none"/>
      <path d="M41.35 49.05 L41.5 48.95 Q38.45 48.7 36.2 46.65 33.7 44.35 33.7 41.1 33.7 37.85 36.2 35.55 36.95 34.85 37.85 34.35 40.2 37.85 43.05 40.75 L45.15 42.8 Q44.7 46.15 43.05 48.9 L41.35 49.05 M41.5 48.95 L41.7 48.95 41.8 48.75 41.5 48.95" fill="#fbfbfb" fill-rule="evenodd" stroke="none"/>
      <path d="M43.05 48.9 L42.0 50.3 Q38.7 54.4 34.05 54.4 29.3 54.4 26.05 50.3 22.7 46.25 22.7 40.55 22.7 34.8 26.05 30.7 27.8 28.55 29.95 27.5 34.6 29.9 37.3 33.65 23.95 37.9 28.55 47.95 L28.95 48.5 Q33.5 53.8 41.35 49.05 L43.05 48.9" fill="#959595" fill-rule="evenodd" stroke="none"/>
      <path d="M61.65 65.75 L60.55 65.85 59.8 66.25 54.75 67.55 Q30.3 72.7 13.5 60.1 7.05 51.95 6.7 41.95 6.8 40.55 7.05 39.25 11.7 67.15 61.65 65.75" fill="#395313" fill-rule="evenodd" stroke="none"/>
      <path d="M86.95 36.45 Q86.25 36.95 85.45 36.75 84.8 36.55 84.4 35.75 84.05 34.9 84.3 33.9 84.55 33.0 85.3 32.45 86.05 31.95 86.7 32.15 87.5 32.35 87.85 33.15 88.15 34.0 87.9 34.9 87.65 35.9 86.95 36.45" fill="#ffffff" fill-rule="evenodd" stroke="none"/>
      <path d="M82.25 43.4 Q81.0 43.8 79.85 43.1 78.75 42.5 78.4 41.15 78.2 39.65 79.15 38.3 79.95 36.95 81.4 36.5 L83.95 36.6 Q85.1 37.3 85.25 38.7 85.45 40.05 84.65 41.45 83.7 42.8 82.25 43.4" fill="#ffffff" fill-rule="evenodd" stroke="none"/>
    </g>
  </defs>
</svg>
