<?xml version="1.0" encoding="UTF-8" standalone="no"?>
<svg xmlns:xlink="http://www.w3.org/1999/xlink" height="191.05px" width="248.9px" xmlns="http://www.w3.org/2000/svg">
  <g transform="matrix(1.0, 0.0, 0.0, 1.0, 33.1, 2.2)">
    <use height="187.1" transform="matrix(1.0, 0.0, 0.0, 1.0, -32.45, -0.95)" width="248.25" xlink:href="#shape0"/>
    <use height="46.25" transform="matrix(1.0, 0.0, 0.0, 1.0, 169.95, 95.75)" width="39.3" xlink:href="#sprite0"/>
    <use height="88.65" transform="matrix(1.0, 0.0, 0.0, 1.0, 86.15, 67.95)" width="97.75" xlink:href="#sprite1"/>
    <use height="46.25" transform="matrix(1.3, 0.0, 0.0, 1.3, 64.3979, 112.2288)" width="39.3" xlink:href="#sprite0"/>
  </g>
  <defs>
    <g id="shape0" transform="matrix(1.0, 0.0, 0.0, 1.0, 32.45, 0.95)">
      <path d="M206.3 102.45 Q210.95 122.75 194.95 141.9 143.4 171.6 91.75 171.1 17.3 161.55 -0.65 133.8 L5.3 121.9 64.7 94.9 Q72.95 70.15 99.85 51.65 124.5 37.05 147.4 46.25 182.0 66.05 206.3 102.45" fill="#000000" fill-rule="evenodd" stroke="none"/>
      <path d="M55.9 92.15 L52.55 95.5 Q53.2 65.65 72.3 44.5 80.75 35.05 92.75 27.3 138.55 2.85 178.85 57.25 139.85 7.5 95.65 31.1 83.65 38.85 75.2 48.25 58.45 66.85 55.9 92.15 M10.9 122.2 L6.8 122.5 7.45 117.55 Q18.15 43.3 68.95 18.65 74.25 16.05 80.1 14.0 110.65 2.0 141.7 14.75 L145.7 17.35 Q114.35 4.9 83.75 16.9 77.95 18.95 72.65 21.55 21.85 46.2 11.15 120.45 L10.9 122.2 M-8.95 119.15 L-11.15 117.55 -12.4 116.45 Q-3.0 51.7 41.7 19.75 L43.25 18.65 Q69.3 0.6 105.5 0.7 L110.9 1.9 Q73.05 1.9 47.0 19.95 L45.5 21.05 Q0.75 53.0 -8.95 119.15" fill="#2b4900" fill-rule="evenodd" stroke="none"/>
      <path d="M145.7 17.35 Q159.1 26.3 168.7 38.3 177.35 49.25 183.2 63.4 L184.9 68.05 Q172.45 64.45 160.95 57.7 149.4 50.9 134.45 47.55 106.75 56.25 85.9 69.85 65.05 83.4 57.95 90.2 L55.9 92.15 Q58.45 66.85 75.2 48.25 83.65 38.85 95.65 31.1 139.85 7.5 178.85 57.25 138.55 2.85 92.75 27.3 80.75 35.05 72.3 44.5 53.2 65.65 52.55 95.5 43.0 104.9 33.6 116.15 L29.85 117.55 Q19.25 121.2 10.9 122.2 L11.15 120.45 Q21.85 46.2 72.65 21.55 77.95 18.95 83.75 16.9 114.35 4.9 145.7 17.35 M6.8 122.5 Q-2.9 122.85 -8.95 119.15 0.75 53.0 45.5 21.05 L47.0 19.95 Q73.05 1.9 110.9 1.9 122.25 4.6 133.6 10.2 137.8 12.4 141.7 14.75 110.65 2.0 80.1 14.0 74.25 16.05 68.95 18.65 18.15 43.3 7.45 117.55 L6.8 122.5 M-12.4 116.45 Q-23.45 105.95 -20.1 77.75 -5.05 38.65 24.75 18.95 24.95 18.75 25.3 18.65 36.2 11.5 49.05 7.0 77.5 -4.6 105.5 0.7 69.3 0.6 43.25 18.65 L41.7 19.75 Q-3.0 51.7 -12.4 116.45" fill="#596c13" fill-rule="evenodd" stroke="none"/>
      <path d="M2.1 141.4 Q-12.2 145.15 -20.55 137.15 -30.5 127.7 -32.15 112.75 -33.6 99.4 -28.35 82.3 -23.15 69.45 -18.55 70.75 -23.85 110.35 8.65 112.05 26.75 113.45 44.3 97.3 L66.9 76.55 Q85.8 59.2 90.7 55.25 L101.4 46.45 Q107.15 41.45 108.75 36.85 110.2 32.25 113.4 28.05 117.35 22.7 123.8 20.95 131.65 18.9 138.6 21.3 146.55 23.95 151.2 32.0 157.55 42.95 162.2 48.6 168.7 56.6 178.35 63.45 201.75 76.85 209.95 92.7 214.7 100.75 215.7 106.95 205.45 116.25 198.75 106.25 175.55 74.35 149.55 57.35 135.6 48.5 119.75 56.25 98.6 69.6 74.8 90.8 48.95 115.85 16.15 123.65 8.05 125.95 2.1 141.4" fill="#e3d781" fill-rule="evenodd" stroke="none"/>
      <path d="M2.1 141.4 Q8.05 125.95 16.15 123.65 48.95 115.85 74.8 90.8 98.6 69.6 119.75 56.25 135.6 48.5 149.55 57.35 175.55 74.35 198.75 106.25 205.45 116.25 215.7 106.95 L215.8 110.1 Q215.4 117.35 209.0 119.05 202.45 120.65 196.85 114.1 L187.45 100.55 Q182.25 92.8 173.0 82.5 164.85 73.35 155.95 68.6 146.95 63.75 135.95 63.35 124.85 62.85 115.25 67.8 105.55 72.65 94.15 82.1 86.55 88.45 72.85 101.55 49.4 121.9 33.4 128.15 23.05 133.45 8.0 139.35 L2.1 141.4" fill="#b7a84b" fill-rule="evenodd" stroke="none"/>
      <path d="M-15.0 136.0 Q-7.8 132.1 3.35 135.35 28.0 153.5 68.5 159.65 99.1 164.5 125.9 160.5 139.75 158.45 152.8 154.15 168.7 148.75 183.5 139.9 189.8 136.1 193.55 131.25 197.0 126.7 200.6 118.05 210.85 117.3 207.85 129.1 204.5 135.0 200.5 140.3 171.2 164.95 126.15 173.7 81.8 182.25 38.35 172.1 4.65 164.3 -15.0 136.0" fill="#e3d781" fill-rule="evenodd" stroke="none"/>
      <path d="M200.5 140.3 Q183.3 163.1 155.1 172.85 153.9 173.15 152.8 173.6 122.9 183.1 98.55 185.4 68.2 188.2 41.5 180.4 18.5 173.7 1.85 162.6 -12.95 152.75 -20.75 140.95 -38.35 119.0 -26.7 86.5 -31.55 116.75 -15.0 136.0 4.65 164.3 38.35 172.1 81.8 182.25 126.15 173.7 171.2 164.95 200.5 140.3" fill="#b7a84b" fill-rule="evenodd" stroke="none"/>
    </g>
    <g id="sprite0" transform="matrix(1.0, 0.0, 0.0, 1.0, -172.5, -98.6)">
      <use height="41.5" transform="matrix(1.0, 0.0, 0.0, 1.0, 172.5, 100.5)" width="39.3" xlink:href="#shape1"/>
    </g>
    <g id="shape1" transform="matrix(1.0, 0.0, 0.0, 1.0, 0.0, 0.0)">
      <path d="M11.5 0.7 Q18.55 -1.25 25.9 2.3 33.25 5.7 37.15 12.6 40.95 19.5 38.0 28.1 36.05 33.6 33.4 36.9 29.4 39.2 25.15 39.3 20.7 39.3 16.85 36.75 9.75 32.05 6.25 26.9 2.95 22.0 3.35 16.85 3.8 11.7 5.5 7.7 7.25 3.7 11.5 0.7" fill="#8ecc45" fill-rule="evenodd" stroke="none"/>
      <path d="M33.4 36.9 Q31.9 38.6 30.2 39.7 24.85 43.3 16.0 39.6 7.05 35.75 2.6 26.65 -1.9 17.55 1.45 10.05 4.65 2.5 11.5 0.7 7.25 3.7 5.5 7.7 3.8 11.7 3.35 16.85 2.95 22.0 6.25 26.9 9.75 32.05 16.85 36.75 20.7 39.3 25.15 39.3 29.4 39.2 33.4 36.9" fill="#7da239" fill-rule="evenodd" stroke="none"/>
      <path d="M30.85 19.15 L27.35 19.3 Q25.55 18.65 24.8 16.9 24.0 15.2 24.65 13.4 25.3 11.65 27.05 10.85 L30.55 10.75 Q32.3 11.4 33.1 13.1 33.85 14.85 33.2 16.6 32.55 18.4 30.85 19.15" fill="#ecf7df" fill-rule="evenodd" stroke="none"/>
      <path d="M30.4 25.4 L28.85 25.45 Q28.05 25.2 27.7 24.4 27.4 23.65 27.65 22.85 27.95 22.1 28.7 21.75 L30.25 21.7 Q31.05 22.0 31.4 22.75 31.75 23.55 31.45 24.3 31.2 25.1 30.4 25.4" fill="#ecf7df" fill-rule="evenodd" stroke="none"/>
    </g>
    <g id="sprite1" transform="matrix(1.0, 0.0, 0.0, 1.0, 0.0, 1.9)">
      <use height="86.75" transform="matrix(1.0, 0.0, 0.0, 1.0, 0.0, 0.0)" width="97.75" xlink:href="#shape2"/>
    </g>
    <g id="shape2" transform="matrix(1.0, 0.0, 0.0, 1.0, 0.0, 0.0)">
      <path d="M31.9 3.1 Q35.6 1.4 39.8 0.65 L47.9 0.0 54.2 0.65 Q60.65 1.7 67.05 4.75 70.15 6.25 73.0 8.0 75.55 15.45 76.0 21.05 L76.0 21.5 75.9 21.5 74.7 26.05 Q73.85 28.1 71.7 30.05 66.95 34.25 60.75 34.55 53.95 35.0 49.85 30.05 40.15 10.25 31.9 3.1" fill="#623919" fill-rule="evenodd" stroke="none"/>
      <path d="M26.85 5.95 Q27.7 5.3 28.65 4.75 30.3 3.75 31.9 3.1 40.15 10.25 49.85 30.05 53.95 35.0 60.75 34.55 66.95 34.25 71.7 30.05 73.85 28.1 74.7 26.05 L75.9 21.5 76.0 21.5 Q76.45 28.1 73.85 33.8 71.15 39.55 61.65 40.3 52.1 41.05 48.75 37.15 45.3 33.25 37.75 21.15 31.8 11.75 26.85 5.95" fill="#432004" fill-rule="evenodd" stroke="none"/>
      <path d="M97.5 45.9 Q98.05 51.1 97.4 55.1 L97.3 55.95 Q96.55 59.55 94.7 62.45 92.55 65.9 89.0 68.5 74.3 79.3 59.6 83.75 L56.0 84.7 Q38.2 89.15 21.45 83.85 11.05 80.6 5.35 74.0 -0.4 67.4 0.05 59.0 L0.25 55.95 Q1.75 39.45 7.4 27.65 11.4 19.45 17.65 13.15 21.75 9.05 26.85 5.95 4.15 28.2 7.4 52.3 8.8 63.1 18.75 70.35 28.55 77.6 41.65 77.7 68.45 78.0 88.45 61.15 94.8 55.75 97.5 45.9" fill="#7da239" fill-rule="evenodd" stroke="none"/>
      <path d="M73.0 8.0 Q81.75 13.25 87.7 20.95 L89.5 23.55 Q94.15 30.55 96.2 39.0 97.1 42.65 97.5 45.9 94.8 55.75 88.45 61.15 68.45 78.0 41.65 77.7 28.55 77.6 18.75 70.35 8.8 63.1 7.4 52.3 4.15 28.2 26.85 5.95 31.8 11.75 37.75 21.15 45.3 33.25 48.75 37.15 52.1 41.05 61.65 40.3 71.15 39.55 73.85 33.8 76.45 28.1 76.0 21.5 L76.0 21.05 Q75.55 15.45 73.0 8.0" fill="#8ecc45" fill-rule="evenodd" stroke="none"/>
      <path d="M74.3 22.9 Q74.05 24.3 73.2 24.5 72.4 24.75 71.55 23.65 70.6 22.6 70.15 20.85 69.7 19.1 69.95 17.7 70.2 16.4 71.0 16.15 71.85 15.95 72.7 16.95 73.6 18.05 74.05 19.8 74.5 21.55 74.3 22.9" fill="#ecf7df" fill-rule="evenodd" stroke="none"/>
      <path d="M44.0 62.05 Q40.65 67.1 35.75 67.1 30.9 67.1 27.45 62.05 24.1 56.95 24.1 49.8 24.1 42.7 27.45 37.6 30.9 32.55 35.75 32.55 40.65 32.55 44.0 37.6 47.45 42.7 47.45 49.8 47.45 56.95 44.0 62.05" fill="#000100" fill-rule="evenodd" stroke="none"/>
      <path d="M44.4 53.85 Q43.05 56.95 40.65 57.25 38.2 57.5 36.0 54.75 33.9 52.15 33.4 48.0 32.9 43.85 34.25 40.7 35.8 37.7 38.25 37.45 40.65 37.15 42.65 39.8 44.95 42.55 45.45 46.7 45.95 50.85 44.4 53.85" fill="#ecf7df" fill-rule="evenodd" stroke="none"/>
      <path d="M89.7 49.3 Q87.1 53.25 83.35 53.25 79.6 53.25 76.9 49.3 74.3 45.4 74.3 39.85 74.3 34.35 76.9 30.45 79.6 26.5 83.35 26.5 87.1 26.5 89.7 30.45 92.35 34.35 92.35 39.85 92.35 45.4 89.7 49.3" fill="#000100" fill-rule="evenodd" stroke="none"/>
      <path d="M90.1 43.05 Q89.05 45.45 87.2 45.65 85.35 45.85 83.6 43.75 82.0 41.7 81.6 38.5 81.2 35.3 82.3 32.85 83.45 30.55 85.3 30.35 87.15 30.15 88.8 32.15 90.5 34.3 90.9 37.5 91.3 40.7 90.1 43.05" fill="#ecf7df" fill-rule="evenodd" stroke="none"/>
    </g>
  </defs>
</svg>
