<?xml version="1.0" encoding="UTF-8" standalone="no"?>
<svg xmlns:xlink="http://www.w3.org/1999/xlink" height="133.8px" width="95.3px" xmlns="http://www.w3.org/2000/svg">
  <g transform="matrix(1.0, 0.0, 0.0, 1.0, 0.25, 0.65)">
    <use height="54.0" transform="matrix(1.0, 0.0, 0.0, 1.0, 7.9, 73.6)" width="79.65" xlink:href="#shape0"/>
    <use height="14.9" transform="matrix(0.9898, -0.1393, 0.1393, 0.9898, 72.3032, 83.1622)" width="13.45" xlink:href="#shape1"/>
    <use height="15.3" transform="matrix(1.0, 0.0, 0.0, 1.0, 70.6, 66.7)" width="19.5" xlink:href="#shape2"/>
    <use height="27.2" transform="matrix(0.9877, 0.1528, -0.1528, 0.9877, 20.1079, 81.501)" width="27.15" xlink:href="#shape3"/>
    <use height="133.8" transform="matrix(1.0, 0.0, 0.0, 1.0, -0.25, -0.65)" width="94.3" xlink:href="#shape4"/>
    <use height="19.6" transform="matrix(1.0, 0.0, 0.0, 1.0, 4.3, 75.0)" width="39.25" xlink:href="#shape5"/>
  </g>
  <defs>
    <g id="shape0" transform="matrix(1.0, 0.0, 0.0, 1.0, -7.9, -73.6)">
      <path d="M84.15 96.0 Q80.75 105.95 74.25 113.1 L72.3 78.1 86.55 74.35 Q87.55 86.0 84.15 96.0" fill="#a0eef9" fill-rule="evenodd" stroke="none"/>
      <path d="M84.15 96.0 Q80.75 105.95 74.25 113.1 L72.3 78.1 86.55 74.35 Q87.55 86.0 84.15 96.0 Z" fill="none" stroke="#000000" stroke-linecap="round" stroke-linejoin="round" stroke-width="1.5"/>
      <path d="M39.5 93.65 Q47.2 92.75 49.25 97.55 53.25 113.55 37.6 126.85 L30.15 118.0 Q26.9 113.95 20.95 109.35 19.6 104.8 16.9 99.6 L8.65 82.9 Q13.9 84.6 40.8 85.75 40.75 89.95 39.5 93.65" fill="#a0eef9" fill-rule="evenodd" stroke="none"/>
      <path d="M39.5 93.65 Q40.75 89.95 40.8 85.75 13.9 84.6 8.65 82.9 L16.9 99.6 Q19.6 104.8 20.95 109.35 26.9 113.95 30.15 118.0 L37.6 126.85 Q53.25 113.55 49.25 97.55 47.2 92.75 39.5 93.65 Z" fill="none" stroke="#000000" stroke-linecap="round" stroke-linejoin="round" stroke-width="1.5"/>
    </g>
    <g id="shape1" transform="matrix(1.0, 0.0, 0.0, 1.0, 0.75, 0.75)">
      <path d="M0.0 5.3 L0.0 0.0 Q9.0 4.25 11.95 13.4 L0.0 5.3" fill="#54b9ff" fill-rule="evenodd" stroke="none"/>
      <path d="M0.0 5.3 L11.95 13.4 Q9.0 4.25 0.0 0.0" fill="none" stroke="#000000" stroke-linecap="round" stroke-linejoin="round" stroke-width="1.5"/>
    </g>
    <g id="shape2" transform="matrix(1.0, 0.0, 0.0, 1.0, 0.75, 0.6)">
      <path d="M4.45 13.95 Q9.5 12.3 12.95 8.3 15.9 4.85 16.85 0.45 21.5 12.1 7.6 13.9 L4.45 13.95" fill="#54b9ff" fill-rule="evenodd" stroke="none"/>
      <path d="M16.85 0.45 Q15.9 4.85 12.95 8.3 9.5 12.3 4.45 13.95 L1.0 13.75 0.0 8.95 Q7.85 7.95 13.0 1.45 L14.5 0.15 16.85 0.45" fill="#1780c9" fill-rule="evenodd" stroke="none"/>
      <path d="M4.45 13.95 L7.6 13.9 Q21.5 12.1 16.85 0.45 L14.5 0.15 13.0 1.45 Q7.85 7.95 0.0 8.95 M1.0 13.75 L4.45 13.95 Z" fill="none" stroke="#000000" stroke-linecap="round" stroke-linejoin="round" stroke-width="1.5"/>
    </g>
    <g id="shape3" transform="matrix(1.0, 0.0, 0.0, 1.0, 0.7, 0.65)">
      <path d="M25.55 10.0 L25.7 11.45 23.35 10.95 Q14.25 25.65 0.05 25.8 0.5 24.05 2.3 22.85 14.4 14.5 16.75 1.5 L16.55 1.25 Q14.55 0.35 16.0 0.1 L18.6 0.15 Q20.2 10.75 10.55 18.5 L3.7 24.15 Q10.45 22.25 15.0 16.5 18.4 12.15 22.35 8.9 L25.55 10.0" fill="#1780c9" fill-rule="evenodd" stroke="none"/>
      <path d="M25.55 10.0 L22.35 8.9 Q18.4 12.15 15.0 16.5 10.45 22.25 3.7 24.15 L10.55 18.5 Q20.2 10.75 18.6 0.15 21.5 0.15 23.55 3.05 25.55 5.9 25.55 10.0" fill="#54b9ff" fill-rule="evenodd" stroke="none"/>
      <path d="M18.6 0.15 L16.0 0.1 Q14.55 0.35 16.55 1.25 L16.75 1.5 Q14.4 14.5 2.3 22.85 0.5 24.05 0.05 25.8 14.25 25.65 23.35 10.95 L25.7 11.45 25.55 10.0" fill="none" stroke="#000000" stroke-linecap="round" stroke-linejoin="round" stroke-width="1.5"/>
    </g>
    <g id="shape4" transform="matrix(1.0, 0.0, 0.0, 1.0, 0.25, 0.65)">
      <path d="M80.75 15.85 Q86.6 12.1 89.75 19.1 94.3 29.1 93.05 40.1 92.0 49.65 87.25 58.1 L88.45 53.5 88.55 51.35 88.7 45.8 Q91.75 34.85 86.65 24.55 84.25 19.8 80.75 15.85 M75.6 109.2 L75.55 113.55 Q73.6 113.55 72.25 115.0 70.85 116.4 70.85 118.45 L66.15 117.05 66.25 114.05 75.6 109.2 M42.7 104.1 L43.15 101.7 Q44.7 90.8 40.5 80.6 43.3 82.2 45.05 84.9 48.55 90.35 48.9 97.0 49.3 105.0 53.65 109.3 56.75 112.35 61.85 113.55 L51.0 125.3 Q50.85 123.15 50.2 122.15 49.35 120.8 47.45 120.8 45.6 120.8 44.9 123.45 L44.85 123.8 Q40.6 117.65 41.75 109.3 42.0 107.15 42.65 104.85 L42.7 104.1 M4.1 51.6 Q-1.0 45.05 1.1 37.25 4.15 25.75 17.75 28.8 21.7 29.7 25.05 31.65 L20.15 27.85 Q28.1 15.1 38.15 6.8 L34.55 7.0 Q35.8 0.5 43.95 1.25 52.85 1.5 61.25 4.7 L62.9 5.55 Q72.7 10.3 79.75 18.5 86.15 26.2 87.8 37.75 L88.7 45.8 Q83.45 38.1 79.5 46.3 L78.95 47.65 Q74.85 36.5 64.05 35.65 60.35 40.95 62.1 48.6 L62.35 50.75 Q57.55 48.1 49.7 48.15 43.85 48.2 42.2 54.0 31.4 43.6 16.95 40.35 4.75 37.45 3.85 48.6 3.75 50.05 4.1 51.6 M71.75 14.45 L71.15 14.55 70.45 15.35 Q71.15 20.8 75.2 23.4 L76.5 22.0 75.6 17.25 Q74.5 14.45 71.75 14.45 M45.25 17.05 L44.3 19.0 Q46.4 27.8 54.85 27.6 L55.15 27.3 Q56.7 20.75 50.05 17.25 L45.25 17.05" fill="#54b9ff" fill-rule="evenodd" stroke="none"/>
      <path d="M80.75 15.85 Q84.25 19.8 86.65 24.55 91.75 34.85 88.7 45.8 L88.55 51.35 Q88.3 47.1 84.95 44.35 84.7 44.15 84.35 44.1 79.2 48.3 79.6 56.1 77.75 51.75 76.35 47.25 73.35 37.7 65.4 37.95 L64.4 60.05 Q59.95 47.9 48.7 52.75 45.1 54.2 45.2 58.45 45.25 61.2 46.45 63.7 L45.5 62.9 Q37.45 56.45 28.8 50.6 23.7 47.1 17.9 45.35 4.95 41.3 7.2 55.3 5.4 53.45 4.1 51.6 3.75 50.05 3.85 48.6 4.75 37.45 16.95 40.35 31.4 43.6 42.2 54.0 43.85 48.2 49.7 48.15 57.55 48.1 62.35 50.75 L62.1 48.6 Q60.35 40.95 64.05 35.65 74.85 36.5 78.95 47.65 L79.5 46.3 Q83.45 38.1 88.7 45.8 L87.8 37.75 Q86.15 26.2 79.75 18.5 L80.75 15.85 M75.6 105.3 L75.6 109.2 66.25 114.05 66.15 117.05 70.85 118.45 70.65 120.0 70.55 119.85 67.65 118.4 64.05 123.9 60.55 122.7 60.0 118.2 65.6 112.4 Q62.2 114.85 60.0 117.4 L57.2 127.55 Q57.1 126.2 56.15 125.35 55.2 124.5 54.0 124.65 52.8 124.75 52.05 125.8 51.3 126.8 51.4 128.1 L51.05 129.05 51.0 125.3 61.85 113.55 Q56.75 112.35 53.65 109.3 49.3 105.0 48.9 97.0 48.55 90.35 45.05 84.9 43.3 82.2 40.5 80.6 39.2 78.0 37.1 75.75 L41.35 77.0 Q50.1 79.25 49.55 87.8 48.75 99.95 57.5 106.7 59.75 108.4 61.9 109.3 66.45 111.15 70.5 109.3 73.15 108.1 75.6 105.3 M38.65 130.05 Q36.35 128.0 36.75 125.0 L36.8 125.0 36.8 124.55 Q38.05 116.75 40.7 109.3 L42.7 104.1 42.65 104.85 Q42.0 107.15 41.75 109.3 40.6 117.65 44.85 123.8 L44.35 126.95 44.1 126.6 42.15 125.0 Q38.35 125.6 38.65 130.05 M17.75 28.8 L19.75 24.4 Q23.1 17.25 29.2 12.5 29.2 1.35 40.75 0.15 51.55 -0.35 61.25 4.7 52.85 1.5 43.95 1.25 35.8 0.5 34.55 7.0 L38.15 6.8 Q28.1 15.1 20.15 27.85 L25.05 31.65 Q21.7 29.7 17.75 28.8 M71.75 14.45 Q74.5 14.45 75.6 17.25 L76.5 22.0 75.2 23.4 Q71.15 20.8 70.45 15.35 L71.15 14.55 71.75 14.45 M74.7 20.85 Q76.2 17.35 72.85 15.8 72.4 15.6 72.0 15.95 L74.7 20.85 M45.25 17.05 L50.05 17.25 Q56.7 20.75 55.15 27.3 L54.85 27.6 Q46.4 27.8 44.3 19.0 L45.25 17.05 M46.3 19.3 Q46.65 25.15 52.8 26.05 L53.35 25.85 Q54.9 21.6 50.25 19.0 L48.3 18.25 46.3 19.3" fill="#1780c9" fill-rule="evenodd" stroke="none"/>
      <path d="M87.25 58.1 Q90.95 64.45 84.9 71.15 78.9 77.85 73.0 79.05 L66.6 79.35 Q69.35 80.3 73.25 79.95 77.3 95.65 76.95 100.2 76.65 103.2 75.6 105.3 73.15 108.1 70.5 109.3 66.45 111.15 61.9 109.3 59.75 108.4 57.5 106.7 48.75 99.95 49.55 87.8 50.1 79.25 41.35 77.0 L37.1 75.75 Q29.8 73.35 23.55 68.9 14.8 62.7 7.2 55.3 4.95 41.3 17.9 45.35 23.7 47.1 28.8 50.6 37.45 56.45 45.5 62.9 L46.45 63.7 Q56.5 73.55 63.25 62.95 64.05 61.65 64.4 60.05 L65.4 37.95 Q73.35 37.7 76.35 47.25 77.75 51.75 79.6 56.1 L81.6 62.15 Q82.1 64.0 81.65 66.45 82.5 64.6 82.3 63.1 84.35 63.1 85.8 61.65 87.25 60.15 87.25 58.1 M83.7 47.95 Q83.9 46.45 84.7 46.45 86.35 46.45 86.35 51.05 86.35 52.25 85.85 53.75 85.25 55.55 84.4 55.55 83.7 55.55 83.7 50.2 L83.7 47.95 M53.1 59.35 Q52.0 57.15 52.0 55.8 51.95 54.4 52.7 53.45 53.45 52.45 55.45 52.65 57.45 52.8 59.25 55.05 61.1 57.25 60.65 60.5 60.2 63.7 55.55 61.95 54.2 61.45 53.1 59.35" fill="#ffffff" fill-rule="evenodd" stroke="none"/>
      <path d="M75.55 113.55 L75.5 117.7 Q75.45 122.55 70.6 123.45 L70.65 120.0 70.85 118.45 Q70.85 116.4 72.25 115.0 73.6 113.55 75.55 113.55 M70.25 123.5 L64.05 123.9 67.65 118.4 70.55 119.85 70.25 123.5 M57.2 127.55 L51.15 132.15 51.4 128.1 Q51.3 126.8 52.05 125.8 52.8 124.75 54.0 124.65 55.2 124.5 56.15 125.35 57.1 126.2 57.2 127.55 M50.9 132.25 L44.35 132.4 44.35 126.95 44.85 123.8 44.9 123.45 Q45.6 120.8 47.45 120.8 49.35 120.8 50.2 122.15 50.85 123.15 51.0 125.3 L51.05 129.05 50.9 132.25 M44.1 132.35 L38.65 130.05 Q38.35 125.6 42.15 125.0 L44.1 126.6 44.1 132.35 M74.7 20.85 L72.0 15.95 Q72.4 15.6 72.85 15.8 76.2 17.35 74.7 20.85 M46.3 19.3 L48.3 18.25 50.25 19.0 Q54.9 21.6 53.35 25.85 L52.8 26.05 Q46.65 25.15 46.3 19.3" fill="#a0eef9" fill-rule="evenodd" stroke="none"/>
      <path d="M88.55 51.35 L88.45 53.5 87.25 58.1 Q87.25 60.15 85.8 61.65 84.35 63.1 82.3 63.1 L81.6 62.15 79.6 56.1 Q79.2 48.3 84.35 44.1 84.7 44.15 84.95 44.35 88.3 47.1 88.55 51.35 M83.7 47.95 L83.7 50.2 Q83.7 55.55 84.4 55.55 85.25 55.55 85.85 53.75 86.35 52.25 86.35 51.05 86.35 46.45 84.7 46.45 83.9 46.45 83.7 47.95 M82.75 60.75 L85.05 59.2 83.4 58.2 81.0 51.1 Q79.5 56.5 82.75 60.75 M64.4 60.05 Q64.05 61.65 63.25 62.95 56.5 73.55 46.45 63.7 45.25 61.2 45.2 58.45 45.1 54.2 48.7 52.75 59.95 47.9 64.4 60.05 M53.1 59.35 Q54.2 61.45 55.55 61.95 60.2 63.7 60.65 60.5 61.1 57.25 59.25 55.05 57.45 52.8 55.45 52.65 53.45 52.45 52.7 53.45 51.95 54.4 52.0 55.8 52.0 57.15 53.1 59.35 M57.25 66.5 L57.2 66.3 Q51.7 58.95 47.2 56.7 47.2 67.6 57.25 66.5" fill="#000000" fill-rule="evenodd" stroke="none"/>
      <path d="M82.75 60.75 Q79.5 56.5 81.0 51.1 L83.4 58.2 85.05 59.2 82.75 60.75 M57.25 66.5 Q47.2 67.6 47.2 56.7 51.7 58.95 57.2 66.3 L57.25 66.5" fill="#f8499b" fill-rule="evenodd" stroke="none"/>
      <path d="M70.6 123.45 L70.25 123.5 70.55 119.85 70.65 120.0 70.6 123.45 M51.15 132.15 L50.9 132.25 51.05 129.05 51.4 128.1 51.15 132.15 M44.35 132.4 L44.1 132.35 44.1 126.6 44.35 126.95 44.35 132.4" fill="#72e6f5" fill-rule="evenodd" stroke="none"/>
      <path d="M60.0 118.2 L60.0 117.4 Q62.2 114.85 65.6 112.4 L60.0 118.2" fill="#0e527e" fill-rule="evenodd" stroke="none"/>
      <path d="M73.0 79.05 L73.25 79.95 Q69.35 80.3 66.6 79.35 L73.0 79.05 M81.6 62.15 L82.3 63.1 Q82.5 64.6 81.65 66.45 82.1 64.0 81.6 62.15" fill="#cccccc" fill-rule="evenodd" stroke="none"/>
      <path d="M87.25 58.1 Q92.0 49.65 93.05 40.1 94.3 29.1 89.75 19.1 86.6 12.1 80.75 15.85 M87.25 58.1 Q90.95 64.45 84.9 71.15 78.9 77.85 73.0 79.05 M75.6 109.2 L75.55 113.55 75.5 117.7 Q75.45 122.55 70.6 123.45 M70.25 123.5 L64.05 123.9 60.55 122.7 60.0 118.2 M60.0 117.4 L57.2 127.55 51.15 132.15 M50.9 132.25 L44.35 132.4 M44.1 132.35 L38.65 130.05 Q36.35 128.0 36.75 125.0 M37.1 75.75 Q29.8 73.35 23.55 68.9 14.8 62.7 7.2 55.3 5.4 53.45 4.1 51.6 -1.0 45.05 1.1 37.25 4.15 25.75 17.75 28.8 L19.75 24.4 Q23.1 17.25 29.2 12.5 29.2 1.35 40.75 0.15 51.55 -0.35 61.25 4.7 L62.9 5.55 Q72.7 10.3 79.75 18.5" fill="none" stroke="#000000" stroke-linecap="round" stroke-linejoin="round" stroke-width="1.5"/>
    </g>
    <g id="shape5" transform="matrix(1.0, 0.0, 0.0, 1.0, 0.6, 0.75)">
      <path d="M9.75 0.1 L6.95 8.0 2.75 2.05 Q5.15 -0.4 9.75 0.1 M1.9 3.1 L5.25 13.3 Q4.7 14.1 3.75 14.0 1.6 13.65 0.15 11.95 L1.9 3.1 M14.75 2.2 Q15.9 2.2 16.75 3.55 17.55 4.85 17.55 6.75 17.55 8.65 16.75 10.0 15.9 11.3 14.75 11.3 13.6 11.3 12.8 10.0 11.95 8.65 11.95 6.75 11.95 4.85 12.8 3.55 13.6 2.2 14.75 2.2" fill="#a0eef9" fill-rule="evenodd" stroke="none"/>
      <path d="M37.15 5.65 L26.15 1.45 35.6 2.05 37.15 5.65 M1.4 14.95 L3.85 16.15 7.05 12.4 Q8.55 12.1 9.85 12.9 12.05 14.15 14.1 13.55 25.1 10.85 34.55 11.65 23.25 15.3 12.05 17.25 L8.2 14.95 7.3 17.8 4.65 18.1 1.4 14.95" fill="#1780c9" fill-rule="evenodd" stroke="none"/>
      <path d="M26.15 1.45 L37.15 5.65 38.65 13.85 34.55 11.65 Q25.1 10.85 14.1 13.55 12.05 14.15 9.85 12.9 8.55 12.1 7.05 12.4 L3.85 16.15 1.4 14.95 0.15 11.95 Q1.6 13.65 3.75 14.0 4.7 14.1 5.25 13.3 L1.9 3.1 2.75 2.05 6.95 8.0 9.75 0.1 26.15 1.45 M14.75 2.2 Q13.6 2.2 12.8 3.55 11.95 4.85 11.95 6.75 11.95 8.65 12.8 10.0 13.6 11.3 14.75 11.3 15.9 11.3 16.75 10.0 17.55 8.65 17.55 6.75 17.55 4.85 16.75 3.55 15.9 2.2 14.75 2.2" fill="#54b9ff" fill-rule="evenodd" stroke="none"/>
      <path d="M26.15 1.45 L9.75 0.1 Q5.15 -0.4 2.75 2.05 M0.15 11.95 L1.4 14.95 4.65 18.1 7.3 17.8 8.2 14.95 12.05 17.25 Q23.25 15.3 34.55 11.65 M37.15 5.65 L35.6 2.05 26.15 1.45 M0.15 11.95 L1.9 3.1" fill="none" stroke="#000000" stroke-linecap="round" stroke-linejoin="round" stroke-width="1.5"/>
    </g>
  </defs>
</svg>
