<svg xmlns="http://www.w3.org/2000/svg" width="191" height="307" stroke="#000" stroke-linecap="round" stroke-linejoin="round" fill="#fff" fill-rule="evenodd"><style><![CDATA[.B{stroke:none}.C{fill:#40a4d5}.D{fill:#54b9ff}.E{fill:#3177b2}.F{stroke:#083b5f}.G{fill:none}.H{stroke-width:.5}.I{fill:#a5f1fe}.J{fill:#91f5ff}.K{fill:#93dcc1}]]></style><g class="B"><path d="M114.55 208.55q2.4 1.95 4.55 5.35 4.35 6.95 4.35 12.75v1.25q-10.35 4.8-22.6999 12.35-9.3501 5.8-15.25 8.4L81.55 250.2l-7.15 1.55-4.45.65-8.1.6q-13.35.55-13.65 3.1l-7.8-1.2-4.65-1.05q-9.45-2.3-9.45-5.5v-.4l.1-.25 9.75 1.15 1.45.2 4.25.75 6.55.7q12 0 21.55-2.45l5.4-1.8q3.95-1.45 7.35-3.3l2.6-1.55q15.85-10.05 29.25-32.85" class="C"/><path d="M71.5 234.85l6.35-4.05 1.25-.9 5.7999-4.35 3.8501-2.7q4-3.15 10.85-9.25 5-4.55 7.4-7.45h1.45q3 0 5.9 2.25l.2.15q-13.4001 22.8-29.25 32.85l-2.6 1.55q-3.4 1.85-7.35 3.3l-5.4 1.8q-9.55 2.45-21.55 2.45l-6.55-.7-4.25-.75-1.45-.2-9.75-1.15q1.15-1.95 8.95-2.15h1.1l6.85-.5 2.7-.35q6.1-.7 13.4-3.2 4.05-1.25 7.65-3 1.45-.75 2.8-1.35 1.15-.75 2.2-1.25l-.55-1.05m20.55-9.3q-12.95 7.95-18.45 14.1 0 .6.2999.8.3001.55 1.1501.55 1.3499 0 9.0999-6.35 8-6.3 8-7.65l-.0999-1.45" class="D"/><path d="M92.05 225.55l.0999 1.45q0 1.35-8 7.65-7.75 6.35-9.0999 6.35-.85 0-1.1501-.55-.2999-.2-.2999-.8 5.5-6.15 18.45-14.1" class="J"/><path d="M123.45 227.9q-.4 12.75-9.4 21.7-2.7 2.8-6.05 4.95-10.35 2.3-22.5 2.9l-3.1.1-8.9.35h-3.65l-2.05-.1-.35-.95-7.05.6-8.15-.8-1.7-.2-2.35-.35q.3-2.55 13.65-3.1l8.1-.6 4.45-.65 7.15-1.55 3.95-1.55q5.9-2.6 15.25-8.4 12.35-7.55 22.7-12.35" class="E"/><path d="M67.8 257.8l-12.9 5.9q-7.05 2.5-15.45 2.5H37.2l-2.8-.35q-9.55-1.25-19.8-7.25-4.7-2.6001-14.1-11 1.85-.7 19.6-12.75 10.85-7.55 18.25-9.3l4.35-.55q2.8 0 6.4 1.15 3.45 1.15 8 3.3 7.9 3.95 12.55 5.1l1.8501.3.5499 1.05q-1.0499.5-2.2 1.25-1.3499.5999-2.8 1.3499-2.8-3.0999-11.6-5.7999l-7.8-1.8-6.5-.7-3.25.3q-6 1.05-12.3 5.6-4.7 3.55-13.2 11.5 8.95 4.5 12.95 6.25 5.85 2.25 10 3.2l4.35.4 6-.1 4.85-.9 1.7.2 8.15.8 7.05-.6.35.95" class="I"/><path d="M26.4 247.7l-.1.25v.4q0 3.2 9.45 5.5l4.65 1.05 7.8 1.2 2.35.35-4.85.9-6 .1-4.35-.4q-4.15-.95-10-3.2-4-1.75-12.95-6.25 8.5-7.95 13.2-11.5 6.3-4.55 12.3-5.6l3.25-.3 6.5.7 7.8 1.8q8.8 2.7 11.6 5.8-3.6 1.75-7.65 3-7.3 2.5-13.4 3.2l-2.7.35-6.85.5h-1.1q-7.8.2-8.95 2.15" class="K"/></g><g class="F G"><path d="M108.0001 254.55q-10.3501 2.3-22.5 2.9l-3.1001.1-8.8999.35H69.85l-2.05-.1-12.9 5.9q-7.05 2.5-15.45 2.5H37.2l-2.8-.35q-9.55-1.25-19.8-7.25-4.7-2.6-14.1-11 1.85-.7 19.6-12.75 10.85-7.55 18.25-9.3l4.35-.55q2.8 0 6.4 1.15 3.45 1.15 8 3.3 7.9 3.95 12.55 5.1l1.8501.3 6.3499-4.05 1.25-.9 5.8-4.35 3.8501-2.7q4-3.15 10.8499-9.25 5-4.55 7.4001-7.45l1.0999-1.75"/><path d="M26.3 247.95v.4q0 3.2 9.45 5.5l4.65 1.05 7.8 1.2 2.35.35M26.4 247.7q1.15-1.95 8.95-2.15h1.1l6.85-.5 2.7-.35q6.1-.7 13.4-3.2 4.05-1.25 7.65-3 1.4501-.75 2.8-1.35 1.1501-.75 2.2-1.25m-19.8 20.75l8.15.8 7.05-.6" class="H"/></g><g class="B"><path d="M186.3 168.5l.2.3q1.45 3.35 1.8999 16.3-2.1999-4.25-6.25-7.7l-.9499-.7.9499.7q4.0501 3.45 6.25 7.7v.7l.1001.75.2.4q1.25 3.55 1.55 5.5l.1 5.7q0 3.2-.4 5.8l-.35-.2q-.5.2-1.9501 1.05-1.75 1.15-2.8999 1.15l.1-3.65-.1-1.55q1.1499-1.55 1.1499-3.75 0-1.25-.75-2.15l-.2999-.65q-.3-.6-.3-1.15-.2-.3-.55-.3l-.3-.1-1.45.4q-.6001-2.05-2.25-5.45l-.95-1.7q.5999-1.2.5999-2.7l-.1999-.9q-.1-1.75-.8001-2.6l-.8499-.85-.4001-.2v-.1q-.9499-.6-1.6499-.6l-1.45.3-2.6-2.1-4.0501-2.35-2.5999-1.45-1.95-.95-3.35-1.55q-4.15-2.2-11.4-5.4l1.5499-2.5 1.4501.55 9.45 3.7q1.75.75 3.2 1.45 2.8999 1.05 4.8999 2l2.4501 1.05 1.9.9.3.1q3.55 1.8 6.0999 3.75l1.5501 1.25.25-.55 1.85-3.4q1.55-3.1 3-4.25m-8.8 46.15q-2.8-.4-5.4-2.5l1.65-.4.1.2q1.7999 2.15 3.65 2.7m7.05-29.75q0-3-2.7-2.4l-.2001.7.6001 1.9q.75 1.25 1.1499 1.25 1.0501 0 1.1501-.55v-.9" class="D"/><path d="M184.85 213.2q-2.3 1.45-5.9 1.45h-1.45q-1.8501-.55-3.65-2.7v-.2l4.25-.55q2.7999-.7 2.7999-2.05 0-1.25-7.3499-2.2l-2.2.25-.1-1.25h1.25.35l7.65 1q5 .65 5 2.8 0 1.6-.65 3.45m-33.5-50.7l9.75 2.9h.2999l3.0501.7 5.15.95 4.9.6 5.1499.1 5.8501-.2h.1q.4.1.7.95-1.45 1.15-3 4.25l-1.85 3.4.1999-2.65.2001-.75q.4-1.65.7-1.85l-11.2-.2-2.4501-1.05q-2-.95-4.8999-2-1.45-.7-3.2-1.45l-9.45-3.7m30.9 30.55l1.45-.4.3.1q.35 0 .55.3 0 .55.3 1.15l.2999.65q.75.9.75 2.15 0 2.2-1.1499 3.75l-.95.85q-1.85 1.65-4.55 1.65-1.75 0-3.3-.75-.95-.3-1.65-.9l2.8-.55 1.65-.7q2.8999-1.7 2.8999-3.65l-.0999-.95q-.35-.8-1.35-.8-1.45 0-7.9 3.95l-.2-.35q0-1.1 5.5-3.6 3.1-1.45 4.65-1.9m-7.95-14.8l1.45-.3q.7 0 1.6499.6v.1l.4001.2.8499.85q.7001.85.8001 2.6l.1999.9q0 1.5-.5999 2.7-.75 2.4-3.1 4.25l-.75.55q-2.5 1.95-4.15 1.95h-.1q2.6-1.75 4.35-4.35 1.55-2.5 1.55-4.35 0-1.35-.5-2.2-.2001-.6-.6-.9l-.1001-.3-1.0499-.75q-.65-.4-1.15-.4v-.55l.85-.6" class="I"/><path d="M189.95 203.95q-.75 4.35-2.5 6.75-.95 1.45-2.6 2.5.65-1.85.65-3.45 0-2.15-5-2.8l-7.65-1h-.35-1.25l.1 1.25.25.2q.7 2.45 2.15 4.35l-1.65.4-2.6-2.4-1.45-2.05-1.05-1.25q-1.8501-3.4-2.7-6.3l-.5-2-.2-.6v-.1l-.3-2.5-.2-5.1.2-5.4q.5-2.7 1.95-5.35h-.1001q-1.3499-.75-3.5-.75h-.25q-2.7999.2-4.6499 1.95l-.95 1.15-.8 2q-5.2-6.75-9.15-9.65.45-5.5 2.5-9.35 7.25 3.2 11.4 5.4l3.35 1.55 1.95.95 2.5999 1.45 4.0501 2.35 2.6 2.1-.85.6-1.75 1.25-.35.3-1.1 1.5q-1.3501 1.85-1.3501 4.45l.2001 3.5q.5 2.5 1.75 2.8h.1.1q1.65 0 4.15-1.95l.75-.55q2.35-1.85 3.1-4.25l.95 1.7q1.6499 3.4 2.25 5.45-1.55.45-4.65 1.9-5.5 2.5-5.5 3.6v.35q.2999 1.25 2.2 2.7.7.6 1.65.9 1.55.75 3.3.75 2.7 0 4.55-1.65l.95-.85.1 1.55-.1 3.65q1.1499 0 2.8999-1.15 1.4501-.85 1.9501-1.05l.35.2" class="C"/><path d="M184.55 184.9v.9q-.1.55-1.15.55-.3999 0-1.1499-1.25l-.6001-1.9.2001-.7q2.6999-.6 2.6999 2.4" class="J"/><path d="M181.45 176.15l-.25.55-1.55-1.25q-2.5499-1.95-6.1-3.75l-.2999-.1-1.9-.9 11.1999.2q-.2999.2-.6999 1.85l-.2001.75-.2 2.65m-9.3499 22.4l.1999.35q6.4501-3.95 7.9-3.95 1 0 1.35.8l.1.95q0 1.95-2.8999 3.65l-1.65.7-2.8001.55q-1.9-1.45-2.1999-2.7v-.35m-1.85-16.65l1.1-1.5.3499-.3 1.75-1.25v.55q.5 0 1.1501.4l1.0499.75.1001.3q.3999.3.6.9.5.85.5 2.2 0 1.85-1.5501 4.35-1.75 2.6-4.35 4.35h-.0999q-1.25-.3-1.75-2.8l-.2001-3.5q0-2.6 1.3501-4.45m3.5 29.85q-1.4501-1.9-2.15-4.35l-.25-.2 2.1999-.25q7.35.95 7.35 2.2 0 1.35-2.7999 2.05l-4.25.55v.2l-.1-.2" class="K"/><path d="M163.6001 197.45l-.75-1.7q-1-2.55-3.2001-5.8l-1.35-1.85-2.5999-3.75-.6-.7-.1-.2.7999-2 .9501-1.15q1.85-1.75 4.6499-1.95h.25q2.15 0 3.5.75h.1001q-1.4501 2.65-1.9501 5.35l-.1999 5.4.1999 5.1.3001 2.5" class="E"/></g><g class="F G"><path d="M186.3 168.5l.2001.3q1.45 3.35 1.8999 16.3v.7l.1001.75.2.4q1.25 3.55 1.55 5.5l.1 5.7q0 3.2-.4 5.8-.75 4.35-2.5 6.75-.95 1.45-2.6 2.5-2.3001 1.45-5.9 1.45h-1.45q-2.8-.4-5.4-2.5l-2.6-2.4-1.4501-2.05-1.0499-1.25q-1.8501-3.4-2.7001-6.3l-.5-2-.1999-.6v-.1l-.75-1.7q-1-2.55-3.2001-5.8l-1.35-1.85-2.5999-3.75-.6-.7-.1-.2q-5.2001-6.75-9.15-9.65-1.35-1.35-2.6-2m8.1-9.3l9.75 2.9h.2999l3.0501.7 5.15.95 4.9.6 5.1499.1 5.8501-.2h.1q.4.1.6999.95m-34.9499-6l-1.4501-.55-4.4499-1.45"/><path d="M188.3999 185.1q.3001.5.1001 1.45m-24.2 13.6q-.5-1.15-.7-2.6m22.7-29.05q-1.45 1.15-3 4.25l-1.85 3.4-.25.55.9499.7q4.0501 3.45 6.25 7.7m-6.1499 7.95l1.45-.4.3.1q.35 0 .55.3 0 .55.3 1.15l.2999.65q.75.9.75 2.15 0 2.2-1.1499 3.75l-.95.85q-1.85 1.65-4.55 1.65-1.75 0-3.3-.75-.95-.3-1.65-.9-1.9001-1.45-2.2-2.7v-.35q0-1.1 5.5-3.6 3.1-1.45 4.65-1.9m-10.9-22.35l1.9.9.3.1q3.55 1.8 6.0999 3.75l1.5501 1.25m-12.3001-7.05q-2-.95-4.8999-2-1.45-.7-3.2-1.45l-9.45-3.7m22.95 15.75l1.45-.3q.7 0 1.6499.6v.1l.4001.2.8499.85q.7001.85.8001 2.6l.1999.9q0 1.5-.5999 2.7-.75 2.4-3.1 4.25l-.75.55q-2.5 1.95-4.15 1.95h-.1-.1q-1.25-.3-1.75-2.8l-.2001-3.5q0-2.6 1.3501-4.45m3.2-3.05l-1.75 1.25-.35.3m2.1-1.55l.85-.6m-10.7 19.2l-.3-2.5-.2-5.1.2-5.4q.5-2.7 1.95-5.35m6.1 28.1l.25.2q.7 2.45 2.15 4.35l.1.2q1.7999 2.15 3.65 2.7m-6.15-7.45l-.1-1.25h1.25.35l7.65 1q5 .65 5 2.8 0 1.6-.65 3.45" class="H"/></g><g class="B"><path d="M155.3 206.45q4.15.4 6.55 2.6 5.5 3.1 8.7 10.9 1.4501 3.3 1.9501 6.95.9499 3.6.9499 7.55v.1l-.1999 1.75q-.4001 6.25-4.4501 11.85l-1.45 1.95q-2.0999 2.6-3.95 3.75 1.8501-1.15 3.95-3.75.8.2 1.55.55l5.05 1.75 3.5501 1.15.3999.2q2.1001.7 3.55 1.45-.25 2.9-1.8 3-2.05 0-2.8999 2.15l4.6999.15q-1.25 0-1.4499 3.2h-.3501l-5.8999-1.05-1.0501-.1-.6999-.75-.75-.8q-1.8501-2-3.3001-3.1-2.5-2-3.4-2l-1.7.85q-1.75.8-2.45.8-.45 0-.95-.7l-.75-.95h-.4l-1.95.1q2.1501-2.9 4.55-9.85v-.1q2.8-7.75 3.4-15.15l.25-4.45q0-8.3-1.45-12.55-2.2-6.3-7.8-7.45m8.1 47.4q-1.75 1.35-3.45 1.75l-1.25.3 1.25-.3q1.7-.4 3.45-1.75m4.95 10.45l.35-.2v.2h-.35m6.55-4.25l1.8501.3-1.8501-.3" class="D"/><path d="M155.3 206.45q5.6 1.15 7.8 7.45 1.45 4.25 1.45 12.55l-.25 4.45q-.6 7.4-3.4 15.15v.1q-2.4 6.95-4.55 9.85l1.95-.1h.4l.75.95q.5.7.95.7.7 0 2.45-.8l1.7-.85q.9 0 3.4 2 1.45 1.1 3.3 3.1l.75.8.7.75 1.05.1 5.9 1.05h.35q-.25.9-.25 1.85v.95q0 2.7.35 4.35h-.1-.35v-3.3q-.3 0-.3-.65h-8.3l-.2.4-.2-.1v-.2l-.3-.4-.45-.85q-.5-1.15-1.2-1.35v-.1-.2l-.35.2q-1 0-1.65 2.3l-.1.6-.3-.2q-1.45-1.15-2.2-2.6-.4-1.1-1.55-1.45l-1.05-.1-2.15.55-1.55.5-1.45.1-.3.4q0-.3-.35-.4h-.7l-.3-1.45-4.5-6.1q.1-.35.35-.55l.8-1.95.3-.5 2.3-5.5q2.5-6.85 3.3-13 .65-3.3.65-6.5 0-8.4-1.55-11.65-1.8-3.2-9.25-9.4l-.4-.75 5.3-.5 3.3.3m26.15 48.75q2.35.9 3.3 2.25.4.45.4.85v.2l.1 1.75q0 2.6-.4 6.25-.3-2.1-1.25-3.85l-1.05-1.45q-.6-.7-1.1-.7l-4.7-.15q.85-2.15 2.9-2.15 1.55-.1 1.8-3m-16.3 5.3l1.85 1.45q1.35 1.35 1.7 2.15-.35-.8-1.7-2.15l-1.85-1.45" class="C"/><path d="M179.65 270.85l-1.5499.5-1.35.95q-1.3501.85-3 2.6l-.2001-.3-2.2999-6.15-.4-1.15.1999-.4h8.3001q0 .65.2999.65v3.3m-11.2999 8.3l-.9-.75-.2-.2q-1.8-1.45-5.3-1.85l-.85-.3Q156.55 275 151.8 273l-1.5999-.7q-2.35-1.05-4.6501-2.4-12.65-6.75-12.65-14.5 0-1.15.75-2.7.7001-1.75 2.3501-2.9-1.4501-2.5-3.1001-6.45-2.8999-6.95-2.8999-11.8 0-11.5 5.7-18.35 4.3499-5.2 11-6.55l.4.75q7.4499 6.2 9.25 9.4 1.5499 3.25 1.5499 11.65 0 3.2-.6499 6.5-.8 6.15-3.3 13l-2.3001 5.5-.2999.5-.8001 1.95q-.25.2-.3499.55l4.5 6.1.3 1.45h.7q.3499.1.3499.4l.3001-.4 1.4499-.1 1.5501-.5 2.15-.55 1.0499.1q1.1501.35 1.5501 1.45.75 1.45 2.1999 2.6l.3001.2q-.3001 1.55-.3001 3.35 0 3 1.35 6.6l.7001 2" class="E"/><path d="M185.15 258.5q1.3501 0 2.6001 2.2l1.4499 3v1.65l-3.3 1.25-1.05-.1q.4001-3.65.4001-6.25l-.1001-1.75m.65 8.3l-.2.85q0 1.55-.75 3.3-.7 1.75-1.45 1.75-.3 0-1.55-.8l-1.75-1.05q-.3499-1.65-.3499-4.35v-.95q0-.95.25-1.85.1999-3.2 1.4499-3.2.5 0 1.1.7l1.05 1.45q.95 1.75 1.25 3.85l.95.3m-12.0499 8.1q0 3-3.4001 4.95h-.55l-1.45-.7-.7-2q-1.35-3.6-1.35-6.6 0-1.8.3-3.35l.1-.6q.65-2.3 1.65-2.3l.35.1q.7.2 1.2 1.35l.45.85.3.4v.2l.2.1.4001 1.15 2.2999 6.15.2001.3" class="I"/></g><g class="F G"><path d="M167.3501 250.1l1.4499-1.95q4.0501-5.6 4.4501-11.85l.2-1.75v-.1q0-3.95-.95-7.55-.5-3.65-1.9501-6.95-3.1999-7.8-8.6999-10.9-2.4-2.2-6.5501-2.6l-3.2999-.3-5.3.5q-6.6501 1.35-11 6.55-5.7 6.85-5.7 18.35 0 4.85 2.8999 11.8 1.65 3.95 3.1001 6.45-1.65 1.15-2.3501 2.9-.75 1.55-.75 2.7 0 7.75 12.65 14.5 2.3001 1.35 4.6501 2.4l1.5999.7q4.75 2 9.3001 3.05l.85.3q3.5.4 5.3 1.85l.2.2.9.75 1.4499.7h.5501q3.4-1.95 3.4-4.95 1.6499-1.75 3-2.6l1.35-.95 1.5499-.5h.3501.1l1.75 1.05q1.25.8 1.5499.8.75 0 1.4501-1.75.75-1.75.75-3.3l.1999-.85.1-.2 3.3001-1.25v-1.65l-1.45-3q-1.25-2.2-2.6001-2.2v-.2q0-.4-.3999-.85-.9501-1.35-3.3-2.25-1.45-.75-3.5501-1.45l-.3999-.2-3.55-1.15-5.0501-1.75q-.75-.35-1.5499-.55-2.1 2.6-3.9501 3.75"/><path d="M156.35 256l1.95-.1m.4 0l1.25-.3q1.6999-.4 3.4499-1.75M166.6 267.2l.1-.6q.65-2.3 1.65-2.3l.35.1q.6999.2 1.1999 1.35M168.7 264.1q-.35-.8-1.7-2.15l-1.8501-1.45M180 263.7q.2-3.2 1.45-3.2l-4.7-.15-1.8501-.3M168.7 264.3v-.2m0 .3v-.1m1.65 2.3l.2999.4m0 .2l.2001.1.4 1.15 2.3 6.15.2.3m-5.4 4.25l-.7001-2q-1.3499-3.6-1.3499-6.6 0-1.8.3-3.35m18.25-.7q-.3-2.1-1.25-3.85l-1.05-1.45q-.6-.7-1.1-.7m3.6999-2l.1001 1.75q0 2.6-.4 6.25m-4.85-2.8q-.25.9-.25 1.85v.95q0 2.7.35 4.35" class="H"/></g><g class="B"><path d="M152.7 165.1q4.1501 8.5 7.35 17.4 3.5501 9.55 5.2001 17.95L166.7 208v.75l.6501 6.2-.85 1.35q-3.4 4.35-12.3501 4.45h-.6l-4.35-.3q-4.05-.75-6.9499-2.9l-.65-.4-.1-.1q-2.25-2-3.6001-4.7-.45-1.15-.75-2.5l1.3501-.4q.9499-6.4 1.1499-11.6v-2.1l-.2-5.45v-2.95l-.75-13.05-.1999-5.05q1.25-.85 2.6-1.5Q146.3 165.2 152.7 165.1"/><path d="M167.3501 214.95l.1 2.3v1q0 5.4-.85 10.4-1.5501 3.1-3.9501 6.65l-1.5499 2.45-2.15 3q-1.9001 2.5-3.35 3.55-.5-2.8-3.2001-9.75l-1.1499-2.8q-1.65-4.05-1.9501-4.05l-.9499.65q-1.9501 1.1-7.0501 5.05l-.5.45-1.15.8-6.5499 4.9L131.05 241l-1.7999.9q-1.2001.95-2.55 1.45l-1.5501.75-.35.2h-.2999l.2999-.4q1.0501-2.4 1.1501-3.95l.1999-.4.9501-3.65.6999-2.8q2.4001-8.7 3.4501-14.5l.3999-2.3.75-6.75.7001-9.95.2999-5.05v-4.05-1.7l.1001-7.05v-.7l-.1001-7.8-.1999-5.6-.1-1.55-.7001-6-.9499-3q-.85-3.35-3-9.05-3.5501-8.4-3.95-9.75 1.75-.5 3.95-.5 4.05 0 6.65 1.45 3.1 1.85 7.5499 7.7 3.2001 5.05 5.9 10.25l.2001.2 3.95 7.7q-6.4001.1-11.6 2.65-1.35.65-2.6 1.5l.2 5.05.75 13.05v2.95l.1999 5.45v2.1q-.1999 5.2-1.1499 11.6l-1.3501.4q.3001 1.35.75 2.5 1.3501 2.7 3.6001 4.7l.1.1.65.4q2.8999 2.15 6.95 2.9l4.3499.3h.6q8.9501-.1 12.3501-4.45l.85-1.35" fill="#c1dced"/><path d="M101.3 230.8v-.5-1.15l-1.0499-.1-.0501-.2h-.05l.7001-6.35 3.25-7.45 2.25-5.3 1.4499-3.5 2.2001 3.5-.1001 3.45q.1001 4.55 1.55 9.1 1.1501 4.25 3.5 8.6l.75 1.35.7 1.15q4.15 7.05 8.4 10.5l-.2999.4h.2999l.35-.2.8.6 1.35.85q2.3001 1.25 4.65 1.35h.75l-1.05.3q-2.7999.85-5.0499.85h-.6501-.4l-1.35-.1-3.3499-.65q-5.0501-1.55-10.1501-5.5l-1.15-1.15-1.1-1q-2.4-2.3-4.25-4.7-1.5999-1.95-2.9-4.15m14.5-47.15q1.85-6.95 2.6-14.4l.5-3.45q.4-5.3.4-10.55 0-3.15-.6999-5.85l-.4001-1.75-.25-.95q1.8001-6.6 6.5501-8.4.3999 1.35 3.9499 9.75 2.1501 5.7 3 9.05l.95 3 .7001 6-.7001.55-5.3999 4.75-1.4501 1.35-2.2999 2.5q-3.9501 4.05-7.4501 8.4" class="E"/><path d="M149.6001 255.6q-1.0501.5-1.9501 1.15-6.35 3.2-14.1499 3.5H132.4h-.75q-6.1-.2-11.2999-2.05l-1.35-.65q-4.75-1.95-8.7001-5.6l-3.1999-3.5L106.05 247l-1.15-1.95q-1.75-3.15-2.6-6.55-.7999-3.65-1-7.7 1.3001 2.2 2.9 4.15 1.85 2.4 4.25 4.7l1.1 1 1.15 1.15q5.1 3.95 10.1501 5.5l3.3499.65 1.35.1h.4.6501q2.25 0 5.0499-.85l1.05-.3h-.75q-2.3499-.1-4.65-1.35l-1.35-.85-.8-.6 1.55-.75q1.35-.5 2.5501-1.45l1.7999-.9 2.9 2.7h.2l.1001.2q.75-.65 1.75-1.05 1.4499-.75 3.6499-1.15 3.6001-.95 5.6001-2.05l1.35-.85 1.25 4.9q1.4499 6.1 1.75 11.9m-49.35-26.55h-.1001l.05-.2.0501.2m7.5499-22.8l3.9501-9.55 1.35-3.3 1.25-4.6 1.4499-5.15q3.5-4.35 7.4501-8.4l2.2999-2.5 1.4501-1.35 5.3999-4.75.7001-.55.0999 1.55.2 5.6-3.3999 4.15q-1.15 1.55-2.3001 3.65l-.8 1.45q-3.6499 6.75-5.3999 14.3-.75 3.2-1.15 6.55l-.5 5.2v2.35q0 4.9.9 9.55l.35 1.15 1.65 5.7q1.4499 3.75 3.6 7.35l.75 1.25-.9501 3.65-.2.4q-.0999 1.55-1.15 3.95-4.25-3.45-8.4-10.5l-.7-1.15-.75-1.35q-2.3499-4.35-3.5-8.6-1.4499-4.55-1.55-9.1l.1001-3.45-2.2001-3.5" class="C"/><path d="M166.6 228.65q-.85 4.75-2.6 8.9-1.15 3.1-2.9 6l-2.9 4.15q-2.4 2.95-4.95 5.1l-3.65 2.8q-.3-5.8-1.75-11.9l-1.25-4.9-1.35.85q-2 1.1-5.6001 2.05-2.1999.4-3.6499 1.15-1 .4-1.75 1.05l-.1001-.2h-.1999l-2.9-2.7 2.05-1.45 6.5499-4.9 1.1501-.8.5-.45q5.0999-3.95 7.05-5.05l.95-.65q.3 0 1.95 4.05l1.1499 2.8q2.7001 6.95 3.2001 9.75 1.45-1.05 3.35-3.55l2.15-3 1.5499-2.45q2.4001-3.55 3.9501-6.65m-33.2001-55.4l.1001 7.8v.7l-.1001 7.05v1.7 4.05l-.2999 5.05-.7001 9.95-.75 6.75-.3999 2.3q-1.05 5.8-3.45 14.5l-.7 2.8-.75-1.25q-2.15-3.6-3.6-7.35l-1.65-5.7-.35-1.15q-.9-4.65-.9-9.55v-2.35l.5-5.2q.4-3.35 1.15-6.55 1.75-7.55 5.3999-14.3l.8001-1.45q1.15-2.1 2.3-3.65l3.3999-4.15" class="D"/></g><g class="F G"><path d="M152.7 165.1q4.15 8.5 7.35 17.4 3.55 9.55 5.2 17.95l1.45 7.55v.75l.65 6.2.1 2.3v1q0 5.4-.85 10.4-.85 4.75-2.6 8.9-1.15 3.1-2.9 6l-2.9 4.15q-2.4 2.95-4.95 5.1l-3.65 2.8q-1.05.5-1.9501 1.15-6.3499 3.2-14.1499 3.5h-1.1001-.75q-6.0999-.2-11.2999-2.05l-1.35-.65q-4.75-1.95-8.7-5.6l-3.2-3.5-1.05-1.45-1.1501-1.95q-1.75-3.15-2.5999-6.55-.8-3.65-1-7.7v-.5-1.15m-.45-6.65l3.25-7.45 2.25-5.3 1.45-3.5 3.95-9.55 1.35-3.3 1.25-4.6 1.45-5.15q1.8499-6.95 2.5999-14.4l.5-3.45q.4001-5.3.4001-10.55 0-3.15-.7-5.85l-.4-1.75m-.25-.95l-.1-4m24.7999 4.25Q145.85 152 148.55 157.2m.2.2l3.95 7.7"/><path d="M118.2 147.65l-.25-.95q1.8-6.6 6.55-8.4.4 1.35 3.95 9.75 2.15 5.7 3 9.05l.95 3 .7 6 .1 1.55.2 5.6.1 7.8v.7l-.1 7.05v1.7 4.05l-.3 5.05-.7 9.95-.75 6.75-.4 2.3q-1.05 5.8-3.45 14.5l-.7 2.8-.95 3.65-.2.4q-.1 1.55-1.15 3.95l-.3.4h.3l.35-.2 1.55-.75q1.35-.5 2.55-1.45l1.8-.9 2.05-1.45 6.55-4.9 1.15-.8.5-.45q5.1-3.95 7.05-5.05l.95-.65q.3 0 1.95 4.05l1.15 2.8q2.7 6.95 3.2 9.75 1.45-1.05 3.35-3.55l2.15-3 1.55-2.45q2.4-3.55 3.95-6.65m-42.1-90.35q1.75-.5 3.95-.5 4.05 0 6.65 1.45 3.1 1.85 7.55 7.7" class="H"/></g><g class="B"><path d="M163.8 34.4q1.35 1.25 2.5 3.25l.2001.3.75 1.15.1999.7 1.45 3.65q1 3.5 1.3501 7.45l-.4501.2q-.9.35-1.45.75-1.75 0-4.65-6.35-1.05-2.35-1.55-3.9-1.05-2.8-1.05-3.95 0-2.6 2.2-2.6l.5-.65m-9.65 4.4l.1001-.75.2999 1.25-.4-.5m-46.85 8.9l.7001.7.8499.85.7.75.65.6.4.4 2.3 2.7.2.2.85 1.15q1.85 2.5 3.2 5.1l.3.4-.1999 4.75-.1001 4.7-.2.3-.75-.1q-2.25 0-4.4499-1.35L110.4 68q-2.7-2.35-5.5-6.85-2.6-4.55-5.1-10.95 0-3.25 4.05-3.25.6501 0 2.9001 1.25l.5499-.5m11.6 33.9h-.2l-.4-.3.6.3" class="I"/><path d="M188.05 110.65v.4q-1.1 6.85-2.55 11.1-.25.5-.3501 1.15l-.2999 1.15-.3 1q-8.2 28.55-30.2 28.55-7.05 0-16.05-1.45-14.2-3.35-28.3-8.95l-.55-.3q-10.75-4.55-21.35-10.45l-.1-.15q-.6001-.5-1.25-.7-6.65-3.95-11.8-7.65l-2-1.5-.2-.2q-14.4-11.3-14.4-21.45l3.75-.3q9.2 0 19.7999 3.2l.7001.3 3 .85q3.85 1.35 7.9 3.1 3.75 1.55 7.35 3.45l1.35.6q10.25 5.4 19.4 12.75l1.45 1.05q3.95 3.2 7.55 6.65l.75.3q2.2999.8 4.25.8 3.2999 0 7.65-2.25l.1499-.2v1.2l.1001.75.2.5.5 3.25q6.4499-3.55 6.4499-18.25 0-10.1-1.0499-19.8l-1.25-10.6q-1.9501-13.5-5.8-26.55l-.2-.1-3.1-9.45-.55-1.45-1.95-5.4-8.6001-13.75-.75-1.25L122.55 23q-6.45-10.05-7.8-10.35-2.15-.75 3.45-3.75h2.25q3.9499 3 6.65 5.9 2.7999 2.8 5.4 6.15l.7.9V22l.65.6.1.1 1.05.65 3 1.95-.1001 1.75Q141.5 31 145.55 37.1l.8499 1.45 4.8501 7.7 2.2 3.75 1.4499 2.8 4.0501 7.45 4 8.3q4.8 9.85 8 18.85 6.15 16.6 6.9499 29.75 3-3 5.7001-8.7l4.45 2.2"/><path d="M138.3 152.55q-12.75-2.2-29.55-7.4l-.55-.1q-10.5501-3.4-22.7-7.85l-.3-.1-6.2-2.5-8-3.35q-.75-.5-1.65-.7l-.75-.3Q50.25 121.4 44.85 112q.85-5.8 6.85-8.7 3-1.7 6.65-2.1 0 10.15 14.4 21.45l.2.2 2 1.5q5.15 3.7 11.8 7.65.6499.2 1.25.7l.1.15q10.6 5.9 21.35 10.45l.55.3q14.1 5.6 28.3 8.95M84.5 37.2q-.8501-6.4 2.1499-19.15Q88.1 11.8 90.3 7.75 94 .5 99.8.5q6.55 0 15.15 4.8l3.9499 2.45L120.45 8.9h-2.25q-5.6 3-3.45 3.75 1.35.3 7.8 10.35l4.8499 7.6.75 1.25L136.75 45.6l1.95 5.4.55 1.45 3.1 9.45.2.1q3.8499 13.05 5.8 26.55l1.25 10.6q1.0499 9.7 1.0499 19.8 0 14.7-6.4499 18.25l-.5-3.25-.2-.5-.1001-.75v-1.2l.1001-.75v-.4l.7-5.3q.9499-6.1.9499-11.1 0-5.4-.6499-10.9l-.8-8.05q-1.9-13.2-6.45-27.2-.1001-.7-.4-1.25-1.15-4.15-2.7001-8.15l-.9499-2.6-.5-1.55q-1.75-4.7-3.65-8.75l-1.25-2.45q-1.55-3.35-3.3-6.25l-.3-.4q-2.3001-4.25-4.8001-7.6l-2.25-2.8-2.1999-2.15q-6.75-6.55-14-6.55-7.45 0-11.5 9.75-1.65 4.25-3.2 10.6l-1.75-.45" fill="#c1dced"/><path d="M170.25 55.35q.6.35 1 1.15 1.8999 2.6 4.7 9.45l.4 1.15.5 1.45 1.7 4.55.9-.75q2.1-1.3 3.4499-1.3 3.8001 0 5.1501 4.95.8499 3.3.8499 12.85h.9501l-.25 1.55-2.35-2.05q-1.45 1.25-3.8501 1.25-1.8499 0-2.5-2.3v-.2q.2001-1.65-.0999-3.85v-.6l-.1-1.15-2.15 2.2-.35.3q-1.1.9-2.0501.9h-.0999q-2.8-.2-5.5-9.95l-2.6-11.2-.7.35.5-.95q1.35-2 1.85-4.15.65-1.85.65-3.65m-26.8501 76.15l-.1499.2q-4.3501 2.25-7.65 2.25-1.9501 0-4.25-.8l-.75-.3q-3.6-3.45-7.55-6.65l-1.45-1.05q-9.15-7.35-19.4-12.75l-1.35-.6q-3.6-1.9-7.35-3.45-4.05-1.75-7.9-3.1l-3-.85-.7001-.3Q71.3 100.9 62.1 100.9l-3.75.3q0-7.15 4.65-11 4.15-3.5 11.3-3.5l3.75.3q5.3.6 10.45 3.2l.95.4.75.45 2.55 1.55q4.8 2.7 14.55 8.9l1.55.85-1.4501-1.15L94.2 90l-2.15-1.85h-.2L90.3 86.7q-4.7-4.5-4.7-8.1 0-5.8 7.2999-6.25l1.4501-.2 2.9.2 3.5.75q1.45.2 2.6.85l1.95.8q4.5999 2.4 10.7 8.2l1.6499-2.2.2001.35h.1l.25.2h.1l.4.3h.1999l.75-.7.8001-9.25q-.3001-3.55-1.45-6.85l-.1001-.4-1.4499-3.85-.3001-.4q-1.3499-2.6-3.1999-5.1l-.85-1.15-.2001-.2L110.6 51l-.4-.4-.65-.6-.7-.75-.85-.85-1-3.3-.3501-.7q-.6999-2.5-.6999-4.7 0-4.55 1.15-8.2 1.85-5.8 6.1-5.8l1.75-1.85 2.1999 2.15 2.25 2.8q2.5 3.35 4.8001 7.6l.3.4q1.75 2.9 3.3 6.25l1.25 2.45q1.9 4.05 3.65 8.75l.5 1.55.9499 2.6q1.5501 4 2.7001 8.15.2999.55.4 1.25 4.55 14 6.45 27.2l.8 8.05q.6499 5.5.6499 10.9 0 5-.9499 11.1l-.7 5.3v.4l-.1001.75M130.75 74.95q1-8.2-3.05-20.3-3.6-11.5-8.8001-17.85l-1.4499-1.65-.5-.1q-4.6 0-4.6 5.2 0 3.2 5.95 10.75 7.55 9.25 12.45 23.95m47.8-1.85q1.55 4.75 2.15 8.4-.6-3.65-2.15-8.4" class="D"/><path d="M44.85 112q-2.15-3.95-2.15-8 0-3.65.4-4.35 1.45-6.75 10.8-10.6 12.35-5.35 16.05-9 8.4-7.7 12.75-29.65l.35-1.55 1.3-8.4.45-.35.7-.7q.55-.6.55-1.15l.2-.6q1.55-6.35 3.2-10.6 4.05-9.75 11.5-9.75 7.25 0 14 6.55l-1.75 1.85q-4.25 0-6.1 5.8-1.15 3.65-1.15 8.2 0 2.2.7 4.7l.35.7 1 3.3-.7-.7q-2.8-2.5-5.3-3.85l-.4-.2-1.15-.6q-.85-2.1-.85-4.4l.1-2.55q.1-.45.55-.95l-2-.1q-4.65 0-7.65 8.1-1.45 3.8-2.2 7.85-.4 3.25-.4 6.55l.1 3.75q.1 2.15.65 3.9l1.45-.8q5.05-3.25 8.15-3.25l.65-.4q.3.1.4.55l.75 1 1.35 1.55.1.35 2.8 3.1.5.7 1.05 1.25 1.75 1.8.1.1 9.85 9.6-1.65 2.2q-6.1-5.8-10.7-8.2l-1.95-.8q-1.15-.65-2.6-.85l-3.5-.75-2.9-.2-1.45.2q-7.3.45-7.3 6.25 0 3.6 4.7 8.1l1.55 1.45h.2L94.2 90l13.2 11.2 1.45 1.15-1.55-.85q-9.75-6.2-14.55-8.9l-2.55-1.55-.75-.45-.95-.4q-5.15-2.6-10.45-3.2l-3.75-.3q-7.15 0-11.3 3.5-4.65 3.85-4.65 11-3.65.4-6.65 2.1-6 2.9-6.85 8.7M138 25.3q6.5 4.35 11.3 8.6.3.1.6.4l3.2 3.35-1.65-.3q-1.25 0-2.25.9l4.95 6.55 2.3 2.9 1.55 2.7q3.2 5.5 5.1 12l.6 2h.3q.45-.55.75-2.4l.8-2.7.95 2.7.4 1.05q.1.6.35 1.05l.7-.35 2.6 11.2q2.7 9.75 5.5 9.95h.1q.95 0 2.05-.9l.35-.3 2.15-2.2.1 1.15v.6q.3 2.2.1 3.85v.2q.65 2.3 2.5 2.3 2.4 0 3.85-1.25l2.35 2.05q-.2 1.7-.8 3.25l-.75 2.8q-2.15 6.95-4.45 12-2.7 5.7-5.7 8.7-.8-13.15-6.95-29.75-3.2-9-8-18.85l-4-8.3-4.05-7.45-1.45-2.8-2.2-3.75-4.85-7.7-.85-1.45q-4.05-6.1-7.65-10.05l.1-1.75M82.4 82.35q-1.65-1.8-1.65-3.65l-.95-1.45-1.95 1.65q-2.1 1.55-4.7 4.05l4.8.85 1.55.3q5.3 1.15 5.6 1.45l-2.7-3.2" class="C"/><path d="M163.8 34.4l-.5.65q-2.2 0-2.2 2.6 0 1.15 1.05 3.95.5 1.55 1.55 3.9 2.9 6.35 4.65 6.35.55-.4 1.45-.75l.45-.2.1 3-.1 1.45q0 1.8-.65 3.65-.5 2.15-1.85 4.15l-.5.95q-.25-.45-.35-1.05l-.4-1.05-.95-2.7q-1.95-5.8-4.75-10.8l-2.2-3.7q-.4-.95-1-1.45-1.45-2.2-3.05-4.05l-.3-1.25q.65-5.3 5.8-5.3 2.1 0 3.75 1.65m-63.35 8.65l1.15.6.4.2q2.5 1.35 5.3 3.85l-.55.5q-2.25-1.25-2.9-1.25-4.05 0-4.05 3.25 2.5 6.4 5.1 10.95 2.8 4.5 5.5 6.85l1.35.85q2.2 1.35 4.45 1.35l.75.1.2-.3.1-4.7.2-4.75 1.45 3.85.1.4q1.15 3.3 1.45 6.85l-.8 9.25-.75.7-.6-.3h-.1l-.25-.2h-.1l-.2-.35-9.85-9.6-.1-.1-1.75-1.8L104.9 68l-.5-.7-2.8-3.1-.1-.35-1.35-1.55-.75-1q-.1-.45-.4-.55-2.2-3.2-3.65-5.8-1.75-3.4-2.15-6.1V47.4q0-1.55.3-2.6.85-2.5 3.75-2.5 1.65 0 3.2.75" class="K"/><path d="M153.1001 37.65l1.0499 1.15.4.5q1.6 1.85 3.0501 4.05.5999.5 1 1.45l2.1999 3.7q2.8001 5 4.75 10.8l-.7999 2.7q-.3001 1.85-.75 2.4H163.7l-.5999-2q-1.9001-6.5-5.1-12l-1.5501-2.7-2.3-2.9-4.95-6.55q1-.9 2.25-.9l1.6501.3m-54.1 23.1l-.65.4q-3.1 0-8.1501 3.25l-1.4499.8q-.5501-1.75-.65-3.9l-.1-3.75q0-3.3.3999-6.55.75-4.05 2.2001-7.85 3-8.1 7.65-8.1l2 .1q-.4501.5-.5501.95l-.0999 2.55q0 2.3.8499 4.4-1.55-.75-3.1999-.75-2.9 0-3.75 2.5-.3001 1.05-.3001 2.6v1.45q.4001 2.7 2.1501 6.1 1.4499 2.6 3.65 5.8M82.4 82.35l2.7001 3.2q-.3001-.3-5.6-1.45l-1.5501-.3-4.8-.85q2.6001-2.5 4.7001-4.05L79.8 77.25l.9501 1.45q0 1.85 1.6499 3.65" class="E"/><path d="M181.1 65.2q6.5499 0 8.1 7.6.3 1.45.4 5.6l.25 5.8v1.05.2 3.4h-.9501q0-9.55-.8499-12.85-1.35-4.95-5.1501-4.95-1.3499 0-3.4499 1.3l-.9.75-1.7-4.55-.5-1.45 4.75-1.9m-50.35 9.75q-4.9-14.7-12.45-23.95-5.95-7.55-5.95-10.75 0-5.2 4.6-5.2l.5.1 1.4499 1.65Q124.1 43.15 127.7 54.65q4.05 12.1 3.05 20.3" class="J"/></g><g class="F G"><path d="M170.25 50.9q-.35-3.95-1.35-7.45l-1.45-3.65-.2-.7-.75-1.15-.2-.3q-1.15-2-2.5-3.25-1.65-1.65-3.75-1.65-5.15 0-5.8 5.3l-.1.75.4.5m15.7 11.6l.1 3-.1 1.45q.6.35 1 1.15 1.9 2.6 4.7 9.45 3.1-.75 5.15-.75 6.55 0 8.1 7.6.3 1.45.4 5.6l.25 5.8v1.05.2 3.4l-.25 1.55q-.1 4.9-.7 9.25v.7q.2.75-.1 1.45l-.75 8.85v.4q-1.1 6.85-2.55 11.1-.25.5-.35 1.15l-.3 1.15-.3 1q-8.2 28.55-30.2 28.55-7.05 0-16.05-1.45-12.75-2.2-29.55-7.4l-.55-.1q-10.55-3.4-22.7-7.85l-.3-.1-6.2-2.5-8-3.35q-.75-.5-1.65-.7l-.75-.3Q50.25 121.4 44.85 112q-2.15-3.95-2.15-8 0-3.65.4-4.35 1.45-6.75 10.8-10.6 12.35-5.35 16.05-9 8.4-7.7 12.75-29.65l.35-1.55 1.3-8.4.45-.35m.7-.7q-.9-1.35-1-2.2-.85-6.4 2.15-19.15 1.45-6.25 3.65-10.3Q94 .5 99.8.5q6.55 0 15.15 4.8l3.95 2.45 1.55 1.15q3.95 3 6.65 5.9 2.8 2.8 5.4 6.15l.7.9V22l.65.6.1.1 1.05.65 3 1.95q6.5 4.35 11.3 8.6.3.1.6.4l3.2 3.35 1.05 1.15m26.55 42.7q-.6-3.65-2.15-8.4l-1.7-4.55-.5-1.45-.4-1.15m4.75 15.55l.1 1.15v.6m8.1 17.1l-.1 1.15v.3m.1-2.15l-.1 1.85"/><path d="M154.55 39.3q1.6 1.85 3.05 4.05.6.5 1 1.45l2.2 3.7q2.8 5 4.75 10.8l.95 2.7.4 1.05q.1.6.35 1.05l.5-.95q1.35-2 1.85-4.15.65-1.85.65-3.65m-68.65-11.7l.4.2q2.5 1.35 5.3 3.85l.7.7.85.85.7.75M99 60.75q-2.2-3.2-3.65-5.8-1.75-3.4-2.15-6.1V47.4q0-1.55.3-2.6.85-2.5 3.75-2.5 1.65 0 3.2.75m17 17.5l-.3-.4q-1.35-2.6-3.2-5.1l-.85-1.15-.2-.2-2.3-2.7-.4-.4m7.45 30.15l-9.85-9.6-.1-.1-1.75-1.8L104.9 68l-.5-.7-2.8-3.1-.1-.35-1.35-1.55m-.75-1q-.1-.45-.4-.55m18.45-.2l1.45 3.85.1.4q1.15 3.3 1.45 6.85l-.8 9.25m-.75.7h-.2l-.4-.3h-.1l-.25-.2h-.1l-.2-.35" class="H"/></g><g class="B"><path d="M116.2501 103.1q2.3999-.7 5.0999-.1 1.95.1 4.05 1.05l.8.1q3.65 1.45 6.25 3.6 4.85 2.8 7.65 6.85l.3.45q1.9 2.9 3.25 5.8v.3q.6001 1.45.8 2.9.65 2.2.75 4.25.2 9.85-10.1 8.6h-.3l-4.95-.9-.0999.1q-3.6501-1.15-6.9501-2.9-1.45-.45-2.7-1.35l-3.3499-1.9-2.7001-2.25-2.45-2.6q-3.3499-3.85-4.5999-7.7-1.2001-4.85 1.4499-8.9l2.5-2.7q2.4-2.05 5.3001-2.7m16.3999 31.95l2.25.4 2.6001-.2q3.9499-.95 5.2999-4.55l.5-2.7q.35-1.75-.1-3.95-.1999-1.15-.9-2.5-.95-2.7-3.5499-5.6-2.4001-2.9-6.1001-5.8l-.95-.5q-3.65-2.4-6.65-3.85-2.15-.95-4.25-1.25l-3.6.2q-4.15.85-6.35 4.8-1.8499 3.6-1.05 7.85l1.15 3.65v.4l.45 1.05h.6001v-.2l1.3499 1.45q2.9001 3.2 7.75 6.4 1.05.55 2.1 1.25 3.95 2.4 7.0501 3.15l1.3499.5h1.05" fill="#4f1b34"/><path d="M112 122.3v.2h-.6001l-.4499-1.05v-.4l-1.15-3.65q-.8-4.25 1.05-7.85 2.2-3.95 6.35-4.8l3.6-.2q2.0999.3 4.25 1.25 3 1.45 6.65 3.85l.9499.5q3.7001 2.9 6.1001 5.8 2.6 2.9 3.55 5.6.7 1.35.9 2.5.4499 2.2.1 3.95l-.5 2.7q-1.35 3.6-5.3 4.55l-2.6001.2-2.25-.4 3.9001-.85q.75-.4.25-3.1-.25-.95-.85-1.85l-2.9.7q-2.3.65-5.2-.1l-1.65-.4q-1.0501-.3-1.95-.95l-1.3501-.8q-4.4499-2.8-6.4499-6.55l-.4-1.05-.75-2.25-.4001-3.15v-.1l-1.1499-.1q-2.15.45-2.5 2.6-.1001 1.05.45 3.3l.4 1.5-.1.4m18.25-9.75h-2.2q-1.45.3-1.85.7-.5.75-.3001 2.2.5 1.95 1.75 3.85Q129 121.15 131.2 123q4.4499 3.85 7.55 3.15 1.85-.35 2.3-1.25.5-.85.0999-2.9-.4499-2.2-1.5499-3.65-.75-1.45-2.1-1.95l-1.45-1.05-.7-.75q-2.9-1.75-5.1-2.05" fill="#832b55"/><path d="M132.6499 135.05H131.6l-1.35-.5q-3.1001-.75-7.05-3.15-1.0501-.7-2.1-1.25-4.85-3.2-7.75-6.4L112 122.3l.1-.4-.4-1.5q-.5501-2.25-.45-3.3.35-2.15 2.5-2.6l1.1499.1v.1l.4 3.15.75 2.25q-1.15.45-.8499 2.1.75 3.2 4.15 6.2 2.1999 1.75 4.15 2.3l2.7.2 1.75-.95-.1-.1q2.9.75 5.1999.1l2.9001-.7q.5999.9.8499 1.85.5 2.7-.25 3.1l-3.9.85" fill="#f0499a"/><path d="M116.05 120.1l.4 1.05q2 3.75 6.4499 6.55l1.3501.8q.8999.65 1.95.95l1.65.4.1.1-1.75.95-2.7-.2q-1.95-.55-4.15-2.3-3.4-3-4.15-6.2-.3001-1.65.85-2.1" fill="#fc88c1"/><path d="M130.25 112.55q2.2.3 5.1 2.05l.6999.75 1.4501 1.05q1.35.5 2.1 1.95 1.1 1.45 1.5499 3.65.4 2.05-.1 2.9-.4499.9-2.2999 1.25-3.1001.7-7.55-3.15-2.2-1.85-3.5501-3.7-1.25-1.9-1.75-3.85-.1999-1.45.3001-2.2.4-.4 1.8499-.7h2.2001" fill="#ffdbed"/><path d="M189.05 96.8l.8001 2.7q1.25 4.15.65 8.9-.4 3.95-1.75 7.65l-1.05 2.6-.95 2.4-1.4501 1.85-1.0499 1.25q-1.3 1.75-2.8 2.9v-.1l-1.95 1.05H179.3q-4.0499 1.15-4.0499-8.7l.2999-4.25q.1-1.45.4501-2.9v-.35q.3999-2.9 1.1-5.8l.25-.4q1.1-4.05 3-6.85 1.1-2.2 2.6-3.65l.3-.1q.7999-.8 1.5499-1 1.0501-.55 2.0501.2 1.15.5 2.1999 2.6m-.4 16.45v.25h.1001l.2999-1.05V112l.4001-3.6q.3-4.25-.4001-7.9-.8499-3.95-2.5999-4.75l-1.45-.1q-.75.2-1.65 1.15l-2.7001 3.9-.2999.45q-1.4501 2.9-2.5 5.8-.9501 2.9-1.4501 5.6l-.1999 2.5-.2 3.9.2999 2.8q.6 3.65 2.0501 4.5l1.15.3.85-.4h.4l.3999-.65q1.3501-.7 2.9-3l.9501-1.35q1.85-3.2 3-6.45l.6499-1.45" fill="#4f1b34"/><path d="M180.3501 126.15l-.85.4-1.15-.3q-1.4501-.85-2.0501-4.5l-.2999-2.8.2-3.9.1999-2.5q.5-2.7 1.4501-5.6 1.0499-2.9 2.5-5.8l.2999-.45 2.7001-3.9q.9-.95 1.65-1.15l1.45.1q1.75.8 2.5999 4.75.7001 3.65.4001 7.9l-.4001 3.6v.45l-.2999 1.05h-.1001v-.25l-.25-.4.3501-1.45.2-3.3q-.2-2.2-1.0501-2.6l-.3999.1v.2l-.2001 3-.3499 2.3-.2 1.05q-.7001 3.8-2.5 6.5l-.6001.95-.6999.8q-.45.15-.75.45-1.1501.7-1.95.2l-1.25-.75-.4501 1.9q-.0999 2.6.25 3l1.5501.95m1.75-22.5q-.3001-.25-.9501 0-.7999.2-1.9499 1.95l-.3001.7q-.35.45-.5499 1.05-.5.65-.7001 2.1-.5499 1.45-.75 3.6-.1999 2 .1001 2.9.1.85.85 1.15 1.35.75 3.1-3.1l1.4499-3.75.5501-3.7q.1999-1.45 0-2.2l-.85-.7" fill="#832b55"/><path d="M188.65 113.25l-.6499 1.45q-1.15 3.25-3 6.45l-.9501 1.35q-1.5499 2.3-2.9 3l-.3999.65h-.4l-1.5501-.95q-.35-.4-.25-3l.4501-1.9 1.25.75q.7999.5 1.9499-.2v.2l.75.85 1-.15q.75-.6 1.5501-2.35 1.4499-3 1.7999-6.25.2001-1.55-.35-2.05l.35-2.3.2001-3v-.2l.3999-.1q.8501.4 1.05 2.6l-.1999 3.3-.3501 1.45.25.4" fill="#f0499a"/><path d="M182.2 120.85q.3-.3.75-.45l.7-.8.6-.95q1.8-2.7 2.5-6.5l.2-1.05q.55.5.35 2.05-.35 3.25-1.8 6.25-.8 1.75-1.55 2.35l-1 .15-.75-.85v-.2" fill="#fc88c1"/><path d="M182.1 103.65l.85.7q.2.75 0 2.2l-.55 3.7-1.45 3.75q-1.75 3.85-3.1 3.1-.75-.3-.8499-1.15-.3001-.9-.1001-2.9.2-2.15.75-3.6.2-1.45.7-2.1.2-.6.55-1.05l.3-.7q1.15-1.75 1.95-1.95.65-.25.95 0" fill="#ffdbed"/><path d="M89.5 230.75l.05-.25 3.2-4.25 4.8999-5.8 1.0501-.85q8.3-7.55 18.05-7.55l6.8999.6q1.25.55 2.7001 2.4 1.0499 2.2 1.7999 8.5.7001 5.5.7001 9.55 0 5.5-1.15 10.6-1.35-7.05-4.75-10.9-3.3001-3.95-8.3001-3.95-3.5 0-6.5499 1.45-4.4501 2.2-7.9501 7.9l-1.25 2.25-1.25 2.5-.0999.3q-.75 1.9-1.35 3.95l-.2 1.15q-.55 2.6-.55 5.2 0 1.35.35 2.55v.25q.4 1.75 1.65 2.9l1.55 1q2.3 1.15 7.25 1.15H108l1.45-.3q6.35-1.05 12.15-6.55l2.4-2.45.5.3-2.15 3.95-2 2.9q-3.85 4.65-8 7.35l-.3.2-3.5 1.65q.4 5.8-1.05 11.4l-.2.85q-1.45 5.2-4.7 9.95l-1.4501 2.1-.8999 1.3q-1.55 1.5-4.05 1.6h-.1q-1.35 0-1.75-.85-.35-.75-.35-2.7l.55-2.3-.35-.4q-1.85-4.45-4.65-5.4l-1.45-.3h-.3l-.75.75v.2q-1.2 1.75-1.85 4.05v.1.3l-.3001.6-.0999.1-.6501 1.6-.3999.3-.7.3-2.5.1q-4.9001 0-5.2-8.5-.2001-2.3.1-5.4H74l-.7.3-3.25 1.45-2.25 2.2-.35.3-.3.1-.7.65H65.3l-.75-.65-1-1.15-.55-1.55q-.3-1.35-.3-2.45 0-.75.3-1.45l-.2-.25q-1.25-2.35-4.15-2.35l-.8.1.1-.3.6-.75q1.15-.5 2.1-.5l-.65-.75q1.25-1.25 2.8-2.4l9.25-5.6.8-.5 3.95-2.6 2.9-1.75 1.05-.75.7-.2v-.2l-.5-1.05-.1-.4-.1-1.15.5 1.05q1.45 1.95 3.95 3.75l.3.2 1.1499.7q3.75 2.2 7.5501 2.7h.15.2999l1.5501.2h.5l-1.25-1.2-.5-.55-.2-.2-2.7-2.9q-2.1-1.95-2.9001-4.35l-.6499-3.3v-.55q0-2.5 1.1499-10.15v-.2L91 232.05l-.3-.4-1.15-1.05-.05.15m-5.75 31.5l-2.3-4.9 2.3 4.9m6.45 20q-1.35.6-2.4 1.45 1.05-.85 2.4-1.45m-2.5-16.8q2.9 1.75 5.1999 2.9l.6001.3 4.05 1.25 1.3499.2 1.25-.2h.3001l1.15-.1-1.15.1h-.3001l-1.25.2-1.3499-.2-4.05-1.25-.6001-.3Q90.6 267.2 87.7 265.45m-5.8001 17l2.25-.3q.3501 1.15 1.3501-.1l.55-.75 2.9-3.9q2.6999-3.65 2.4499-6.75-4 1.35-9 5.05L79.7 278.4q-2.5 2.6-2.15 4.45l4.3499-.4M101.6 269.8q3.6-.1 6.95-1.35-3.35 1.25-6.95 1.35m-1.4501 14.2l1.75-5.8v-4.65q-2.0999.95-4.25 3.2-2.8999 2.9-5.8999 8.3 3.3.1 4.6499 1.85l.1001.1.75-.2 2.1499-.4.75-2.4" class="C"/><path d="M81.45 257.15v.2l-.6999.2.6999-.4m43.0501-4.75l-.5-.3-2.4001 2.45q-5.8 5.5-12.15 6.55l-1.4499.3h-1.75q-4.9501 0-7.25-1.15l-1.5501-1q-1.25-1.15-1.65-2.9v-.25q-.35-1.2-.35-2.55 0-2.6.5501-5.2l.1999-1.15q.6-2.05 1.35-3.95l.1-.3 1.25-2.5 1.25-2.25q3.5-5.7 7.95-7.9 3.05-1.45 6.55-1.45 5 0 8.3 3.95 3.4 3.85 4.75 10.9l-.4 1.35q-.95 3.8-2.7999 7.35M114.05 241.7q-4.6 0-4.6 4.35.25 6.65 3.75 6.65 1.45 0 3.2-1.15 2.3-1.65 2.3-4.35l-.3-2.5-1.25-1.75-.3999-.3q-1.25-.95-2.7001-.95M60 271.15l.65.75q-.95 0-2.1.5l1.45-1.25m21.9 11.3l-4.35.4q-.35-1.85 2.15-4.45l2.7-2.7q5-3.7 9-5.05.25 3.1-2.45 6.75l-2.9 3.9-.5499.75q-1 1.25-1.3501.1l-2.25.3m18.25 1.55l-.75 2.4-2.1499.4-.75.2-.1001-.1q-1.35-1.75-4.6499-1.85 3-5.4 5.8999-8.3 2.15-2.25 4.25-3.2v4.65l-1.75 5.8" class="D"/><path d="M114.05 241.7q1.45 0 2.7.95l.4.3 1.25 1.75.3 2.5q0 2.7-2.3 4.35-1.75 1.15-3.2 1.15-3.5 0-3.75-6.65 0-4.35 4.6-4.35" class="J"/><path d="M89.5 230.75l.05-.15 1.15 1.05.3.4-1.3501 7.7v.2Q88.5 247.6 88.5 250.1v.55l.6499 3.3q.8001 2.4 2.9001 4.35l2.7 2.9.2.2.5.55 1.25 1.2h-.5l-1.5501-.2H94.35h-.15q-3.8001-.5-7.5501-2.7l-1.1499-.7-.3-.2q-2.5-1.8-3.95-3.75l-.5-1.05v-.1-1.75-1.15-.3-.6q.1-4.6 1.85-9.9 1.0499-2.9 2.2999-5.15l.4001.3h.3l3.85-5.1.05-.05m-31.65 42.7l.8-.1q2.9 0 4.15 2.35l.2.25q-.3.7-.3 1.45 0 1.1.3 2.45l.55 1.55 1 1.15.75.65h1.15q-.75.8-1.15 2.6l-.85 4.35-1 .4-.35-.75-.4-.3-.85-.3-1.35-.2h-.3l-1.55.5v-.3q1.45-5.3 1.45-7.15l-.1-1.45q-.5-2.1-2.05-2.1h-.85q-.2 0-.5.65h-.95l.1-1.45q.3-1.75 1.45-3.55l.65-.7m9.95 8.7l2.25-2.2 3.25-1.45.7-.3h1.45q-.3001 3.1-.1 5.4.2999 8.5 5.2 8.5l2.5-.1.7-.3.3999-.3q-.3999 1.45-.5 3.4l-.2999 4.55-.2001 2.7-.75.2-.3999-.4-2.3-2.5q-2.8001-2.25-5.3001-2.25-1.4499 0-2.8999.7l-.1001-.7.6501-7.6q0-3.85-.35-4.85v-.3q-.6-2.1-3.6-2.1l-.3-.1m17.4 6.95v-.3-.1q.65-2.3 1.85-4.05v-.2l.75-.75h.3l1.45.3q2.8.95 4.65 5.4l.35.4-.55 2.3q0 1.95.35 2.7.4.85 1.75.85h.1q2.5-.1 4.05-1.6-4.9 6.35-10.8 9.15l-1.45.85-.6001-.85q2.5501-3.85 3.5-5.8L91 297q1.05-2.5 1.05-5 0-4.35-3.6501-4.45H88.1q-1.55 0-2.8 1.45l-.1.1" class="E"/><path d="M66.45 283.2l.7-.65.3-.1.65-.2q3 0 3.6 2.1v.3q.35 1 .35 4.85l-.6501 7.6-.2999 1q-1.75 1.05-2.9 1.05-.5 0-1.15-.5l-1.45-1.55-1.05-2.5-1.1-4.05 1-.4.85-4.35q.4-1.8 1.15-2.6m17.6999 8.2l.6501-1.6.0999-.1.3001-.6.1-.1q1.25-1.45 2.8-1.45h.2999q3.6501.1 3.6501 4.45 0 2.5-1.05 5l-.1001.4q-.9499 1.95-3.5 5.8l.6001.85-.95.6q-1.85 1.15-2.45 1.15-.55 0-1.55-2.1l.0999-1.65.2001-2.7.2999-4.55q.1001-1.95.5-3.4M55.65 279.15h.95q.3-.65.5-.65h.85q1.55 0 2.05 2.1l.1 1.45q0 1.85-1.45 7.15v.3l-.3.2-1.45.45q-.85 0-1.45-1.15-.55-1.45-.55-4.8 0-1.35.45-3.1l.3-1.95" class="I"/></g><g class="F G"><path d="M80.75 254.55l.1 1.15.1.4.5 1.05v.2l2.3 4.9m43.95-18.55q1.15-5.1 1.15-10.6 0-4.05-.7001-9.55-.75-6.3-1.7999-8.5m-1.85 37.35q1.85-3.55 2.8-7.35m-18.75 23.4l3.5-1.65.3-.2q4.15-2.7 8-7.35l2-2.9 2.15-3.95m-35.05-21.6q-2.8001 1.6-4.5501 4.6v.2q-1.25 2.25-2.2999 5.15-1.75 5.3-1.85 9.9v.6.3m0 6l-1.05.75-2.9 1.75-3.95 2.6-.8.5-9.25 5.6q-1.55 1.15-2.8 2.4l-1.45 1.25m-.6.75l-.1.3m43.2999 19.3l1.4501-2.1q3.25-4.75 4.7-9.95l.2-.85q1.45-5.6 1.05-11.4-3.35 1.25-6.95 1.35m-44.4 4.35q-1.15 1.8-1.45 3.55l-.1 1.45-.3 1.95q-.45 1.75-.45 3.1 0 3.35.55 4.8.6 1.15 1.45 1.15l1.45-.45.3-.2 1.55-.5h.3l1.35.2.85.3.4.3.35.75 1.1 4.05 1.05 2.5 1.45 1.55q.65.5 1.15.5 1.15 0 2.9-1.05l.4-.3q1.45-.7 2.8999-.7 2.5 0 5.3001 2.25l2.3 2.5.3999.4.6501 1.45q1 2.1 1.55 2.1.6 0 2.45-1.15l.95-.6 1.45-.85q5.9-2.8 10.8-9.15"/><path d="M67.15 282.55l.3-.1.35-.3 2.25-2.2 3.25-1.45m11.5999 11.2l.3001-.6v-.3-.1q.65-2.3 1.85-4.05m.75-.95q1.05-.85 2.4-1.45m11.4-12.45l-1.15.1h-.3001l-1.25.2-1.3499-.2-4.05-1.25-.6001-.3Q90.6 267.2 87.7 265.45m-31.1 13.7q.3-.65.5-.65h.85q1.55 0 2.05 2.1l.1 1.45q0 1.85-1.45 7.15v.3m5.8.65l.85-4.35q.4-1.8 1.15-2.6m1.65-.95l-.65.2m.65-.2q3 0 3.6 2.1v.3q.35 1 .35 4.85l-.6501 7.6m11.75 4.95l.2001-2.7.2999-4.55q.1001-1.95.5-3.4m3.25 11.8q2.5501-3.85 3.5-5.8L91 297q1.05-2.5 1.05-5 0-4.35-3.6501-4.45H88.1q-1.55 0-2.8 1.45l-.1.1m-2.15 14.6l.0999-1.65" class="H"/></g><g class="B"><path d="M104.2 166.85l.6999-.55q3.8501-1.85 4.0501-1.95l3.5-.2q4.05 0 6.15.95 1.95.8 3 2.65l.2 1.8q.2.8.75 1.75.5 1.55.5 3.75 0 3.1-2.6 4.75-1.85 1.35-4.0501 1.35H114.75l-.2-.1q-.5-1.35-1.95-2.1-1.25-.7-2.9-.7l-1.15.1q-.35 0-.55.2-.5 0-.9.3-1.15.45-2.3 1.25l-.7.75-.35.3-.3.4-1.45 2.2-.1001-.1-1.6499-.3h-.1001q-2.1999 0-3.4499 2.25-.7 1.35-.9 2.8l2.45-.1 1.1499.1 1.4501.1h.1l.9499.2h.3001l.55.1-.75.25h-.3l-.95.2-.2.2q-.75.3-1.45.85l-.5.4q-1.7001 1.75-1.7001 4.15 0 1.45.5501 2.6l.1.3.0999.4.5.75L99.3 200l.4.45.55.3v.1q1.35.6 2.5.6l1-.3 1.55-.5.75-.5 1.05-.45 1.45-.4 3.0999-.4q1.9501 0 3 .7l.3001.2v.05.05h.1l1.15 1.15h-2.15q-3.35 0-5.6 1.55-2.5 1.8-2.5 4.25 0 2.6 2.8 3.75-.65.85-1.75 3.3l-.45.75-.9001.2-.75.1-1.1499.3q-.8 0-1.8501-.4l-.5999-.3-1.1501-.75-.4499-.4q-1.5501-1.35-2.5501-2.8-.4499.85-1.1499 3l-.65 1.75q-.6 1.45-1.15.35l-.4.1-2.8.7-3.2.95-8.5.7h-.55-.7l-4.05-.6-1.15-.1q2.6-.3 5.7-1.35l.95-.3 2.7-.85q5.1-1.85 6.65-3.5l.4-.55-.8501-.7-.8999-2.9-1.45-4.05q-1.25-.75-3-1.45l-.6501-.35-2.2999-1q-.4-.3-.8-.45-2.4001-1-5-1.85l-4.25-1.45-2.7-.7q-.3-.25-.7-.35h-.2l-5.95-1.55-8.7-1.95-13.45-2.6 1.35-.4 9.1.8q2.9.75 2.9.95l.3.1 13 3.1 1.45.2h.3l.7.25 3.25.5 4.25.6 4.4499.75q.8501 0 2.0501-1.35-.2-2 .55-4.15 1.05-3.65 4.05-7.55l1.45-1.9.3-.3.3-.3 3.95-4.15 1.05-.75 2.7-2.7h.2l3.1-2.55q1.85-1.6 3.95-3.05l1.15-.8m-1.25 21.85v.1h-.2l.2-.1m-21.4-22.5l.45.35q2.5 2.15 4.6499 4.55l.6501.6 2.25 2.3-3-.2-1.25.1-.5.1-.3-.4q-1.45-1.9-3.55-3.65l-1.45-1.15.2-1.15-.4-.8q0-.95 1.15-.95l1.1.3" class="C"/><path d="M104.2 166.85l-1.15.8q-2.1 1.45-3.95 3.05l-3.1-.45-2.2.1q-1.35.2-2.5.65l-.6-.3-.1-.15-1.45-.9-2.4-1.35-1.25-.75.1-.2q.45-.3 1.15-.3l2.1-.2h2.9l1.15-.2 11.3.2m-16.1 14l-.3.3-.3.3-2-3.1-2.15-2.3q-.95-.8-1.9-1.45l-1.65-.4h-.4q-3.3 0-6.65.75-2.15.4-4.55 1.2l-1.25.65h-.2q-2.5 1.05-5.1 2.6-7.65 4.75-9.4 10.75l-2.4-.2H48.8l-9.1-.8 1.25-.45 4.55-3.8q3.8-3.35 9.2-6.35 3.65-2.15 12.75-5.4l.75-.3 3.5-1.15 7.8-2.9 1.45 1.15q2.1 1.75 3.55 3.65l.3.4.1.3 1.65 2.5q.95 1.75 1.45 3.6l.1.45m29.55 9.45l.3.3.25.3q3.1 3.2 3.1 6.55v.1l-.2 1.45-.65-.1q-1.85-.45-3.6-2.4l-.75-.75-.1-.2q-2.4-3.1-2.4-4.85 0-1.65 2.1-1.65l.7.1.75.6.3.4.2.15m1.25 11.5h.1q1.55 1 2.3 2.6.9 1.55.9 3.7 0 .95-.6 1.75l-2.6.35h-.4q-2.1 0-3.35-.95l-.3-.2-.7-.95q-.75-1.15-.75-2.6 0-2.45 2.3-3.3l.4-.1 2.7-.3m-.3 10.85l.5.75.65.95q.6 1.45.6 3.1l-.3 2.25-.75.45q-3.2 1.75-4.35 1.75-1 0-1.65-1.25l-.2-.6-.2-1.35q0-1.45 2.6-3.85l1.95-1.65q.85-.55 1.15-.55m-55.05 4.05l-.55-.2-.2-.2q-2.4-10.15-12.85-17.75-1.55-1.1-9.75-5.5 13.25 2.6 22.4 5.2 1.65.4 3.4 1.15h.35l.6.2 6.55 2.3 3.6 1.65-10.45-2.2-.4-.2h-.35l-2.05-.4H62.7l2.8 3.75.1.3.3.4 4.05 6.55q1.9 3.1 2.9 5.5l-.1.2H71.3h-1.25l-2.15-.2-4.35-.55" class="I"/><path d="M99.1 170.7l-3.0999 2.55H95.8l-2.2999-1.1L91.3 171q1.15-.45 2.5-.65l2.2001-.1 3.0999.45m-11.5999 10.75l-1.4501 1.9q-3 3.9-4.0499 7.55H79.4l-3.55-.3h-.8l-2.2999.1H72.45h-2.6-2.05-1.05-.1l-14.4-.55q1.75-6 9.4-10.75 2.6-1.55 5.1-2.6h.2l1.25-.65q2.4-.8 4.5501-1.2 3.3499-.75 6.6499-.75h.4l1.65.4q.95.65 1.9 1.45l2.1501 2.3 2 3.1M88.4 210.2l.8501.7-.4001.55q-1.55 1.65-6.65 3.5l-2.6999.85-.9501.3q-3.1 1.05-5.7 1.35h-.0999l.0999-.2q-1-2.4-2.9-5.5l-4.05-6.55-.3-.4-.1-.3-2.8-3.75h1.15l2.05.4h.35l.4.2 10.45 2.2q1.25.4 2.4001 1.15l1.75.8.75.45Q85.6 208 88.4 210.2m20.3501.4q-2.8001-1.15-2.8001-3.75 0-2.45 2.5-4.25 2.25-1.55 5.6-1.55h2.15l-1.15-1.15h-.1v-.05-.05l-.3-.4-2.05-3.1q-.8499-1.35-1.7-2.2-.7-1.25-1.45-1.75l-.9-.75-1.5499-1q.6999-1.8 1.8499-2.9 1.05-1.05 1.75-1.15h.3 1.15l1.4501.5q1.5499.75 2.8999 2.1l-.7-.1q-2.1 0-2.1 1.65 0 1.75 2.4001 4.85l.0999.2.75.75q1.75 1.95 3.6 2.4l.65.1-.65 1.15-1.15.9-1.1.1.7.65-2.7.3-.4.1q-2.2999.85-2.2999 3.3 0 1.45.75 2.6l.6999.95.3001.2q1.25.95 3.3499.95h.4001l2.5999-.35-1.15 1.15q-1.4499 1.15-2.5 1.15l-.6999-.1-3-.4h-.2001l-3.45-.45h-.4l-1.35-.5-.0999-.1m9.4499 1.75q.2 0 .4.3-.3 0-1.15.55l-1.9499 1.65q-2.6001 2.4-2.6001 3.85l.2 1.35.2.6q.65 1.25 1.65 1.25 1.15 0 4.35-1.75l.75-.45q-.65 2.2-2.5 3.55-2.2999 1.55-5.7 1.55l-2.7-.1-1.1499-.3v-.65l.0999-.4q-.7-.3-1-.85-.45-.7-.45-1.75 0-1.85 1.45-3.6 1.05-1.15 2.6-2.2 1.35-.85 2.4-1.35l.4001-.2q2.1999-.95 3.75-.5l.5999-.25.35-.3m-2-11.3h.2l1.8.1-1.8-.1h-.2" class="K"/><path d="M95.8 173.25l-2.7 2.7-1.05.75-2.2-2.2-.2-.3-.1-.2-2.25-2.3-.65-.6q-2.1499-2.4-4.6499-4.55l-.4501-.35.4501.1 3.1999 1.05h.3001v.2l1.25.75 2.3999 1.35 1.45.9.1.15.6.3 2.2001 1.15 2.2999 1.1M82.0001 190.9q-.75 2.15-.5501 4.15-1.1999 1.35-2.05 1.35l-4.45-.75-4.25-.6-3.25-.5-.7-.25h-.3l-1.45-.2-13-3.1-.3-.1q0-.2-2.9-.95h1.05l2.4.2 14.4.55h.1 1.05 2.05 2.6.3001l2.2999-.1h.8l3.55.3h2.6001m32.9499 8.9l-.3-.2q-1.05-.7-3-.7l-3.1.4-1.45.4-1.05.45-.75.5-1.5499.5-1 .3q-1.1501 0-2.5-.6v-.1l-.5501-.3-.4-.45-1.15-1.1-.5-.75-.1-.4-.1-.3q-.55-1.15-.55-2.6 0-2.4 1.7-4.15l.5-.4q.7-.55 1.45-.85l.2001-.2.9499-.2h.3001l.75-.25h.1999v-.1l-.75-.6-.1999-.3q-.3001-.2-.4001-.85v-1.05q0-1.1.4001-2.15l1.4499-2.2.3001-.4.3499-.3.7-.75q1.15-.8 2.3-1.25.4001-.3.9001-.3.1999-.2.5499-.2l1.15-.1q1.65 0 2.9.7 1.45.75 1.95 2.1l-1.45-.75h-.2l-1.05 2.3q-.7 2.2-.7 3.65l.9.3h-1.15-.3q-.7.1-1.75 1.15-1.15 1.1-1.8499 2.9l1.5499 1 .9.75q.75.5 1.45 1.75.8501.85 1.7 2.2l2.05 3.1.3.4m-7.55-17.6q-.6499-.45-1.75 0-.35.1-.55.3-.5999.2-.5999.85v.4q.0999 1.65 1.75 1.65.75-.5 1.1499-.5l.3-.1v-2.6h-.3m-.3999 8.4q-.4501-.3-.9501-.45-.1-.2-.4-.2l-.35-.1-.7-.4-1.15-.3-.6999-.35.6999.35 1.15.3.7.4.35.1q.3 0 .4.2.5.15.9501.45m-2.2001 6.6q2.6 0 2.6-1.45 0-1.1-2.8999-2.55H101.3q.3 2.05 1.1 3.1l.3501.2q.8999.7 2.0499.7" class="D"/><path d="M107.4 182.2h.3v2.6l-.3.1q-.3999 0-1.1499.5-1.6501 0-1.75-1.65v-.4q0-.65.5999-.85.2-.2.55-.3 1.1001-.45 1.75 0m-2.6 15q-1.15 0-2.0499-.7l-.3501-.2q-.8-1.05-1.1-3.1h3.2001q2.8999 1.45 2.8999 2.55 0 1.45-2.6 1.45" class="J"/><path d="M92.05 176.7l-3.95 4.15-.0999-.45q-.5-1.85-1.4501-3.6l-1.65-2.5-.1-.3.5-.1 1.25-.1 3 .2.1.2.2.3 2.2 2.2m-53.7 12.85l13.45 2.6 8.7 1.95 5.95 1.55h.2q.4.1.7.35l2.7.7 4.25 1.45q2.6.85 5 1.85.4.15.8.45l2.3 1 .65.35q1.75.7 3 1.45l1.4501 4.05.8999 2.9q-2.8-2.2-6.3999-4.25l-.75-.45-1.75-.8q-1.1501-.75-2.4001-1.15l-3.5999-1.65-6.5501-2.3-.6-.2H66q-1.75-.75-3.4-1.15-9.15-2.6-22.4-5.2L36.55 191q.45-.85 1.05-1.15l.65-.3h.1m34.5 27.9l1.1501.1 4.0499.6h.7001.5499l8.5-.7 3.2001-.95 2.7999-.7.4-.1q.5501 1.1 1.15-.35l.6501-1.75q.6999-2.15 1.1499-3 1 1.45 2.55 2.8l.45.4 1.15.75.6.3q1.05.4 1.8501.4l1.1499-.3.75-.1.9-.2.4501-.75q1.0999-2.45 1.75-3.3l.0999.1 1.35.5h.4l3.45.45h.2001l3 .4v.85q-1.5501-.45-3.75.5l-.4001.2q-1.05.5-2.4 1.35-1.55 1.05-2.6 2.2-1.45 1.75-1.45 3.6 0 1.05.45 1.75.3.55 1 .85l-.0999.4v.65H107.7l-.6999.1-1.1501.3-2.4.4-1.55-.1-1.75-.7-1.25-.75-3.2-2.6-3.35.45-11.5-.1h-2.9l-.75-.2-2.4499-.15-.4501-.2-4.65-.8h-.1q-5.1-1.35-6.1-2.6l.1-.75 4.35.55 2.15.2h1.25 1.4501.0999m29.9001-28.65l-.5501-.1h-.3l-.95-.2h-.1l-1.45-.1-1.1499-.1-2.4501.1q.2001-1.45.9-2.8 1.25-2.25 3.45-2.25h.1001l1.6499.3.1001.1q-.4001 1.05-.4001 2.15v1.05q.1.65.4001.85l.1999.3.75.6-.1999.1" class="E"/></g><g class="F G"><path d="M121.8 169.55l-.2-1.8q-1.05-1.85-3-2.65-2.0999-.95-6.15-.95l-3.5.2q-.1999.1-4.05 1.95l-.7.55-11.3-.2-1.1499.2H88.85l-2.0999.2q-.7001 0-1.1501.3h-.0999H85.2l-3.1999-1.05-.4501-.1-1.1-.3q-1.15 0-1.15.95l.4.8m-40 21.5l-1.35.4h-.1l-.65.3q-.6.3-1.05 1.15l3.65 2.05q8.2 4.4 9.75 5.5 10.45 7.6 12.85 17.75l.2.2m58.1-17.5l.2-1.45v-.1q0-3.35-3.1-6.55l-.25-.3-.3-.3m3.45 8.7l-.65 1.15-1.15.9-1.1.1.7.65h.1001q1.5499 1 2.2999 2.6.9 1.55.9 3.7 0 .95-.6 1.75l-1.15 1.15q-1.4499 1.15-2.5 1.15.25 0 .25.2.2 0 .4.3m.5.75l.6501.95q.5999 1.45.5999 3.1l-.3 2.25q-.65 2.2-2.5 3.55-2.2999 1.55-5.7 1.55l-2.7-.1-1.1499-.3H107.7l-.6999.1-1.1501.3-2.4.4-1.55-.1-1.75-.7-1.25-.75-3.2-2.6-3.35.45-11.5-.1h-2.9l-.75-.2-2.4499-.15m-.4501-.2l-4.65-.8h-.1q-5.1-1.35-6.1-2.6m48.6-30.9l-.9-.3q0-1.45.7-3.65l1.05-2.3h.2m3.3 8.85q-1.35-1.35-2.8999-2.1l-1.4501-.5M79.5001 168.8L71.7 171.7l-3.5 1.15-.75.3q-9.1 3.25-12.75 5.4-5.4 3-9.2 6.35l-4.55 3.8-1.25.45"/><path d="M104.2 166.85l-1.15.8q-2.1 1.45-3.95 3.05l-3.1 2.55h-.2l-2.7 2.7-1.05.75-3.95 4.15-.3.3-.3.3-1.45 1.9q-3 3.9-4.05 7.55-.75 2.15-.55 4.15m-32.65-5.1l-9.1-.8m48.7 21.05l.85.7-.4.55q-1.55 1.65-6.65 3.5l-2.7.85-.95.3q-3.1 1.05-5.7 1.35h-.1-1.45-1.25l-2.15-.2-4.35-.55-.55-.2m45.75-5.9q-2.8-1.15-2.8-3.75 0-2.45 2.5-4.25 2.25-1.55 5.6-1.55h2.15l-1.15-1.15h-.1v-.05-.05l-.3-.4-2.05-3.1q-.85-1.35-1.7-2.2-.7-1.25-1.45-1.75l-.9-.75-1.55-1q.7-1.8 1.85-2.9 1.05-1.05 1.75-1.15h.3 1.15m-9.3 2.25l-.55-.1h-.3l-.95-.2h-.1l-1.45-.1-1.15-.1-2.45.1m6.95.4l.7.35 1.15.3.7.4.35.1q.3 0 .4.2.5.15.95.45m-21.5-23.05l1.25.75 2.4 1.35 1.45.9.1.15.6.3 2.2 1.15 2.3 1.1m-10.3-5.9v.2m-6 1.25l1.45 1.15q2.1 1.75 3.55 3.65l.3.4.1.3 1.65 2.5q.95 1.75 1.45 3.6l.1.45m-35.85 9.3l14.4.55h.1 1.05 2.05 2.6.3l2.3-.1h.8l3.55.3H82m-2.5 13.8l1.75.8.75.45q3.6 2.05 6.4 4.25m29.8-9.05l-1.8-.1h-.2m-7.35 9.65l1.35.5h.4l3.45.45h.2l3 .4m0 .85q-1.55-.45-3.75.5l-.4.2q-1.05.5-2.4 1.35-1.55 1.05-2.6 2.2-1.45 1.75-1.45 3.6 0 1.05.45 1.75.3.55 1 .85m-55.85-33.2l-2.4-.2H48.8m28.3 13.6l-3.6-1.65-6.55-2.3-.6-.2H66q-1.75-.75-3.4-1.15-9.15-2.6-22.4-5.2" class="H"/></g></svg>